<?xml version="1.0" encoding="UTF-8" standalone="no"?>
<!DOCTYPE svg PUBLIC "-//W3C//DTD SVG 1.1//EN" "http://www.w3.org/Graphics/SVG/1.1/DTD/svg11.dtd">
<svg xmlns="http://www.w3.org/2000/svg" version="1.1" viewBox="0.00 0.00 593.00 421.00">
<g stroke-width="2.00" fill="none" stroke-linecap="butt">
<path stroke="#a89977" vector-effect="non-scaling-stroke" d="
  M 177.99 29.80
  Q 178.74 30.24 179.95 30.37
  A 0.07 0.06 46.5 0 1 179.95 30.50
  L 164.76 30.50
  A 0.11 0.11 0.0 0 0 164.75 30.72
  Q 165.53 30.79 166.30 30.85
  Q 166.61 30.87 166.32 30.98
  Q 166.13 31.05 165.97 31.15
  Q 165.74 31.28 166.00 31.33
  L 169.74 32.07
  Q 170.67 32.26 169.96 32.89
  Q 168.23 34.43 168.61 36.74
  A 1.24 1.21 -76.2 0 0 169.06 37.50
  Q 174.02 41.33 177.22 44.78
  Q 178.23 45.87 179.43 46.09
  A 0.05 0.05 0.0 0 1 179.44 46.19
  L 179.07 46.31
  A 0.07 0.07 0.0 0 0 179.10 46.45
  C 183.23 46.44 182.78 48.69 183.71 51.39
  Q 184.12 52.57 184.17 53.84
  Q 184.19 54.38 184.47 54.83
  Q 186.41 57.98 186.22 61.77
  A 0.62 0.61 5.0 0 0 186.76 62.41
  L 201.01 64.22"
/>
<path stroke="#c5ac91" vector-effect="non-scaling-stroke" d="
  M 201.01 64.22
  L 22.52 62.06"
/>
<path stroke="#bca182" vector-effect="non-scaling-stroke" d="
  M 569.60 65.69
  Q 541.75 65.76 514.75 65.72
  C 453.29 65.62 391.77 66.03 330.32 65.31
  Q 282.29 64.74 234.24 64.29"
/>
<path stroke="#c2a88a" vector-effect="non-scaling-stroke" d="
  M 234.24 64.29
  L 201.01 64.22"
/>
<path stroke="#d9b59c" vector-effect="non-scaling-stroke" d="
  M 234.24 64.29
  L 239.47 64.89
  A 2.12 2.12 0.0 0 1 241.33 67.13
  Q 241.11 70.38 236.19 71.05"
/>
<path stroke="#d0aa90" vector-effect="non-scaling-stroke" d="
  M 236.19 71.05
  Q 227.87 70.81 219.49 70.91
  Q 211.54 71.01 203.40 70.50
  C 192.23 69.80 182.03 70.38 172.05 70.10
  C 161.65 69.82 154.61 69.91 145.85 69.98
  C 143.10 70.00 140.05 69.17 137.50 69.20
  Q 104.25 69.68 71.00 70.00
  C 68.81 70.02 66.89 69.23 64.97 69.29
  Q 43.69 69.99 22.58 68.87"
/>
<path stroke="#c9a488" vector-effect="non-scaling-stroke" d="
  M 571.45 73.68
  C 569.21 73.43 567.28 72.47 565.05 72.50
  C 547.63 72.80 530.31 71.93 512.89 72.14
  C 510.42 72.18 508.27 71.18 505.64 71.33
  C 497.83 71.78 489.88 71.48 482.06 71.53
  C 479.10 71.55 476.41 72.37 473.39 72.20
  C 461.25 71.54 450.50 72.93 438.93 71.85
  C 438.21 71.78 436.87 72.26 436.01 72.25
  C 425.08 72.13 413.90 72.77 403.33 72.49
  C 392.68 72.22 382.06 72.27 371.41 71.96
  Q 364.67 71.77 358.01 73.07
  Q 356.65 73.33 354.60 72.79
  C 350.62 71.74 345.90 72.29 341.76 72.05
  C 329.67 71.33 316.98 73.44 305.11 71.34
  Q 300.40 70.50 296.82 70.53
  Q 268.17 70.75 255.00 70.68
  Q 254.27 70.68 254.02 71.02
  A 0.40 0.38 -70.5 0 1 253.71 71.18
  L 236.19 71.05"
/>
<path stroke="#ac876a" vector-effect="non-scaling-stroke" d="
  M 571.08 75.16
  L 559.50 75.79"
/>
<path stroke="#9b7255" vector-effect="non-scaling-stroke" d="
  M 559.50 75.79
  L 420.50 75.26"
/>
<path stroke="#ac876a" vector-effect="non-scaling-stroke" d="
  M 420.50 75.26
  Q 411.02 75.04 401.53 74.96
  C 393.09 74.90 377.88 74.34 366.02 74.67
  C 343.53 75.30 321.04 74.34 298.49 75.06"
/>
<path stroke="#8d654a" vector-effect="non-scaling-stroke" d="
  M 298.49 75.06
  Q 296.82 75.62 295.51 74.96"
/>
<path stroke="#946b50" vector-effect="non-scaling-stroke" d="
  M 295.51 74.96
  L 24.47 71.79
  Q 23.95 71.79 23.99 72.31
  Q 24.02 72.68 24.26 72.98"
/>
<path stroke="#d0aa90" vector-effect="non-scaling-stroke" d="
  M 24.26 72.98
  L 23.23 73.50"
/>
<path stroke="#ab8369" vector-effect="non-scaling-stroke" d="
  M 34.07 119.31
  L 33.97 129.56"
/>
<path stroke="#d9b59c" vector-effect="non-scaling-stroke" d="
  M 33.97 129.56
  Q 31.26 129.01 30.83 130.26
  Q 30.66 130.73 30.22 130.49
  L 29.68 130.20
  A 0.99 0.98 41.6 0 0 28.68 130.25
  L 27.05 131.31
  Q 26.53 131.65 26.09 131.21
  L 25.56 130.68
  Q 25.22 130.35 25.00 130.76
  L 24.72 131.29
  Q 24.44 131.81 24.34 131.23
  L 23.56 126.64
  A 0.02 0.01 44.0 0 0 23.53 126.64
  Q 23.44 128.79 23.52 130.98
  Q 23.55 131.74 23.28 131.01
  Q 23.16 130.71 23.17 130.25"
/>
<path stroke="#61371e" vector-effect="non-scaling-stroke" d="
  M 295.51 74.96
  Q 294.24 75.56 294.51 76.14"
/>
<path stroke="#9d765c" vector-effect="non-scaling-stroke" d="
  M 294.51 76.14
  L 176.49 75.21"
/>
<path stroke="#a47c64" vector-effect="non-scaling-stroke" d="
  M 176.49 75.21
  L 36.10 73.59
  A 0.89 0.88 -89.7 0 0 35.21 74.48
  L 35.20 115.27
  Q 35.20 115.85 35.79 115.94
  L 37.96 116.24"
/>
<path stroke="#61371e" vector-effect="non-scaling-stroke" d="
  M 37.96 116.24
  Q 44.43 122.76 49.17 129.36
  C 50.19 130.79 51.76 131.44 53.07 132.63
  Q 53.55 133.08 53.90 132.52
  L 54.80 131.09
  A 0.68 0.67 9.6 0 1 55.23 130.79
  C 58.45 130.08 62.05 130.85 64.68 130.69
  C 75.32 130.04 85.20 128.82 96.48 128.39
  C 105.00 128.07 113.94 126.82 121.84 126.48
  C 133.86 125.96 144.66 124.06 153.93 124.29
  Q 155.27 124.33 155.91 124.02
  Q 156.36 123.81 156.85 123.85
  C 164.10 124.39 170.57 122.51 177.65 122.23
  C 180.68 122.11 184.19 120.99 188.14 121.35
  A 0.30 0.29 -70.3 0 0 188.42 121.21
  L 189.78 119.01
  Q 189.79 119.00 189.77 119.00
  Q 189.61 119.00 189.44 119.00
  A 0.14 0.14 0.0 0 1 189.36 118.74
  L 189.92 118.41
  Q 190.23 118.23 189.92 118.05
  L 189.50 117.80"
/>
<path stroke="#9d765c" vector-effect="non-scaling-stroke" d="
  M 189.50 117.80
  L 294.52 118.76
  Q 295.06 118.76 295.19 118.23
  L 295.54 116.74"
/>
<path stroke="#61371e" vector-effect="non-scaling-stroke" d="
  M 295.54 116.74
  Q 297.13 117.43 298.51 115.70"
/>
<path stroke="#9d765c" vector-effect="non-scaling-stroke" d="
  M 298.51 115.70
  Q 298.26 116.98 298.62 117.85
  A 0.79 0.79 0.0 0 0 299.33 118.33
  L 473.71 119.38"
/>
<path stroke="#61371e" vector-effect="non-scaling-stroke" d="
  M 473.71 119.38
  C 471.94 122.71 474.16 125.30 477.19 126.85
  C 487.01 131.89 497.15 135.29 507.32 139.75
  C 515.77 143.46 524.81 145.06 533.78 147.08
  Q 534.23 147.18 534.23 147.64
  L 534.21 154.60"
/>
<path stroke="#6f4429" vector-effect="non-scaling-stroke" d="
  M 534.21 154.60
  C 529.93 154.40 525.62 153.17 521.69 152.48
  C 516.37 151.54 510.84 149.06 506.62 147.69
  Q 503.03 146.52 499.49 145.15
  Q 499.30 145.07 499.25 145.27
  Q 499.19 145.50 499.06 145.46
  C 488.32 141.63 479.34 134.58 467.98 132.34
  C 447.32 128.25 426.47 127.65 405.53 126.63
  C 400.53 126.39 394.88 127.41 389.42 127.19
  C 382.21 126.91 375.14 128.53 367.84 128.56
  C 360.35 128.60 351.96 129.48 343.91 128.47
  Q 343.73 128.44 343.60 128.50
  Q 343.38 128.58 343.28 128.68
  Q 343.09 128.89 342.80 128.88
  L 281.28 128.14
  Q 280.84 128.14 280.71 128.57
  Q 280.61 128.90 280.25 128.88
  Q 265.02 128.28 249.79 128.20
  Q 249.76 128.20 249.74 128.22
  L 249.49 128.47
  Q 249.35 128.61 249.16 128.60
  C 244.13 128.41 238.59 129.20 234.26 129.25
  C 218.83 129.44 202.96 128.70 187.48 129.56
  Q 187.33 129.57 187.29 129.72
  Q 187.25 129.86 187.15 129.95
  Q 187.05 130.05 186.82 130.06
  C 179.16 130.27 172.09 130.24 164.00 130.87
  C 157.72 131.36 151.75 131.04 145.39 132.25
  C 140.24 133.23 134.88 133.05 130.06 134.15
  C 125.07 135.28 119.95 135.99 115.29 138.11
  C 111.80 139.70 108.72 141.53 104.89 142.53
  C 101.28 143.47 98.09 145.31 94.31 145.70
  C 84.05 146.77 74.49 147.83 65.00 146.52
  Q 58.78 145.66 55.09 145.96
  A 0.76 0.75 -2.5 0 0 54.40 146.71
  L 54.53 201.77
  A 0.63 0.63 0.0 0 1 53.35 202.08
  C 52.34 200.29 53.06 198.18 53.02 196.64
  Q 52.56 182.47 52.89 168.31
  C 53.00 163.24 53.56 154.01 52.19 148.99
  Q 52.07 148.55 51.77 148.19
  Q 48.30 144.00 45.76 137.49
  C 45.53 136.90 44.40 136.15 43.98 135.31
  Q 39.70 126.89 34.07 119.31"
/>
<path stroke="#a47c64" vector-effect="non-scaling-stroke" d="
  M 34.07 119.31
  L 34.31 73.77
  A 0.77 0.76 -89.6 0 0 33.55 72.99
  L 24.26 72.98"
/>
<path stroke="#b59277" vector-effect="non-scaling-stroke" d="
  M 570.01 77.99
  Q 569.27 77.09 567.25 77.00
  Q 561.44 76.74 559.70 76.87"
/>
<path stroke="#876044" vector-effect="non-scaling-stroke" d="
  M 559.70 76.87
  Q 560.30 76.14 559.50 75.79"
/>
<path stroke="#966f56" vector-effect="non-scaling-stroke" d="
  M 298.54 76.27
  L 298.51 115.70"
/>
<path stroke="#a47d61" vector-effect="non-scaling-stroke" d="
  M 559.70 76.87
  L 559.24 80.98"
/>
<path stroke="#876044" vector-effect="non-scaling-stroke" d="
  M 559.24 80.98
  L 558.33 81.26"
/>
<path stroke="#a47d61" vector-effect="non-scaling-stroke" d="
  M 558.33 81.26
  Q 558.60 79.55 558.01 78.04
  Q 557.81 77.53 557.26 77.53
  L 419.73 77.21"
/>
<path stroke="#876044" vector-effect="non-scaling-stroke" d="
  M 420.50 75.26
  Q 417.21 76.61 419.73 77.21"
/>
<path stroke="#b59277" vector-effect="non-scaling-stroke" d="
  M 419.73 77.21
  C 414.84 77.15 409.56 77.58 405.10 77.53
  Q 352.29 76.94 299.50 75.99
  Q 299.34 75.98 298.54 76.27"
/>
<path stroke="#785339" vector-effect="non-scaling-stroke" d="
  M 298.54 76.27
  Q 299.03 76.48 298.49 75.06"
/>
<path stroke="#683e23" vector-effect="non-scaling-stroke" d="
  M 534.21 154.60
  L 534.03 167.15"
/>
<path stroke="#7f5337" vector-effect="non-scaling-stroke" d="
  M 534.03 167.15
  C 525.84 166.48 516.19 166.78 508.96 163.08
  Q 497.85 157.38 486.67 151.80
  C 480.97 148.96 474.83 144.37 468.26 141.50
  Q 468.21 141.48 468.17 141.52
  L 468.00 141.72
  Q 467.89 141.85 467.72 141.79
  C 460.32 138.99 451.98 138.87 445.86 138.03
  C 431.95 136.12 419.60 137.44 406.31 136.93
  Q 405.83 136.91 405.45 137.20
  Q 404.83 137.67 403.75 137.62
  Q 390.59 137.08 374.25 137.51
  Q 350.35 138.15 326.46 137.20
  C 322.95 137.06 318.75 137.40 314.87 137.18
  C 294.25 135.96 273.38 136.17 252.73 136.53
  C 245.14 136.67 235.62 136.42 227.05 136.74
  Q 212.38 137.28 207.80 137.31
  Q 196.12 137.40 184.44 137.52
  C 167.59 137.71 154.89 141.66 140.04 145.50
  Q 131.45 147.73 124.87 153.34
  C 122.27 155.55 120.87 159.07 118.95 162.02
  C 113.06 171.04 107.21 182.65 111.93 194.05
  Q 112.92 196.43 112.25 201.71
  Q 112.21 202.08 112.54 202.26
  L 112.99 202.50
  Q 113.33 202.69 113.05 202.96
  L 112.74 203.24"
/>
<path stroke="#745032" vector-effect="non-scaling-stroke" d="
  M 60.58 202.87
  Q 58.93 202.57 53.74 203.22
  Q 49.10 203.81 34.29 202.27
  A 0.59 0.57 -67.4 0 0 33.78 202.49
  L 33.56 202.75"
/>
<path stroke="#a47d61" vector-effect="non-scaling-stroke" d="
  M 33.56 202.75
  L 33.97 129.56"
/>
<path stroke="#a28265" vector-effect="non-scaling-stroke" d="
  M 33.56 202.75
  L 32.75 384.78
  Q 32.75 385.26 33.15 385.50
  L 33.54 385.75"
/>
<path stroke="#966f56" vector-effect="non-scaling-stroke" d="
  M 294.51 76.14
  Q 295.76 75.67 295.72 77.75
  Q 295.34 97.25 295.54 116.74"
/>
<path stroke="#966f56" vector-effect="non-scaling-stroke" d="
  M 189.50 117.80
  Q 189.10 117.83 188.69 117.63
  A 0.70 0.61 55.8 0 0 188.38 117.55
  L 121.25 116.88"
/>
<path stroke="#d9b59c" vector-effect="non-scaling-stroke" d="
  M 176.49 75.21
  L 192.03 75.45
  A 0.51 0.51 0.0 0 1 192.09 76.46
  L 191.71 76.52
  Q 191.25 76.58 191.24 77.05
  Q 191.22 78.17 192.18 78.58
  Q 196.24 80.29 201.83 80.36
  Q 202.69 80.38 202.99 81.63
  Q 203.10 82.09 202.64 81.99
  Q 201.79 81.81 201.21 82.39
  Q 200.70 82.90 201.42 83.01
  Q 210.81 84.40 220.24 83.98
  A 0.86 0.86 0.0 0 1 220.54 85.66
  L 218.94 86.17
  A 0.42 0.41 -53.5 0 0 219.06 86.98
  L 221.96 87.01
  A 0.73 0.72 -1.1 0 0 222.69 86.26
  Q 222.63 84.93 223.64 84.22
  Q 224.05 83.93 224.56 83.96
  C 227.25 84.10 235.33 83.32 236.95 85.78
  Q 237.55 86.69 236.60 86.16
  Q 236.07 85.88 235.68 86.03
  A 0.59 0.59 0.0 0 0 235.40 86.90
  L 235.99 87.79
  Q 236.34 88.33 235.73 88.49
  Q 230.86 89.82 226.26 88.06
  A 1.76 1.75 48.8 0 0 225.24 87.99
  Q 219.89 89.25 214.63 87.88
  A 1.37 1.30 40.1 0 0 213.80 87.93
  Q 212.40 88.48 210.96 88.31
  C 206.63 87.80 202.36 88.26 198.00 87.80
  Q 197.35 87.73 197.46 88.35
  A 0.44 0.43 -4.7 0 0 197.89 88.71
  C 204.05 88.67 209.93 89.82 216.05 89.80
  Q 218.48 89.80 220.68 90.57
  Q 221.16 90.74 220.65 90.70
  Q 217.26 90.46 213.78 91.55
  Q 213.35 91.69 213.78 91.83
  Q 215.03 92.22 214.60 93.39
  A 0.42 0.42 0.0 0 0 214.96 93.96
  L 220.71 94.38
  A 0.75 0.75 0.0 0 1 220.81 95.87
  C 217.50 96.56 215.31 94.87 212.16 95.01
  Q 211.67 95.03 211.44 94.61
  L 209.70 91.53
  Q 209.45 91.08 208.94 91.02
  Q 206.24 90.69 203.68 91.52
  Q 203.19 91.68 202.78 91.38
  C 198.39 88.16 194.89 90.83 190.42 90.51
  A 0.74 0.74 0.0 0 0 190.05 91.92
  C 193.30 93.48 199.02 93.08 202.40 93.32
  A 1.80 1.79 41.5 0 1 202.62 96.87
  Q 197.64 97.84 193.72 95.06
  Q 193.27 94.75 192.73 94.69
  C 189.38 94.33 185.82 92.00 182.55 94.28
  Q 181.37 95.11 181.47 95.52
  A 1.70 1.39 -37.0 0 0 184.28 95.63
  Q 184.90 94.78 186.31 95.54
  Q 186.72 95.76 186.97 96.15
  C 187.69 97.29 188.52 97.78 189.95 97.85
  Q 207.61 98.68 225.08 99.86
  A 0.63 0.63 0.0 0 1 225.63 100.71
  Q 225.46 101.16 224.74 101.15
  Q 217.32 100.99 210.00 99.75
  Q 209.08 99.59 207.96 100.10
  A 1.77 1.75 34.5 0 1 207.12 100.25
  Q 193.67 99.51 190.01 99.41
  Q 188.79 99.38 188.64 100.44
  Q 188.57 100.90 189.04 100.92
  Q 214.19 101.84 239.31 103.43
  Q 240.87 103.53 241.97 104.11
  A 0.47 0.47 0.0 0 1 241.72 105.00
  C 221.25 103.89 200.69 103.35 180.34 101.70
  C 168.72 100.76 157.12 100.39 145.50 99.46
  Q 143.26 99.28 141.68 100.23
  A 0.61 0.61 0.0 0 0 141.93 101.36
  L 145.88 101.82
  A 0.57 0.57 0.0 0 1 146.35 102.58
  Q 145.18 105.81 141.79 105.65
  Q 130.51 105.10 123.28 105.45
  Q 122.73 105.47 122.96 105.98
  Q 123.36 106.80 124.25 106.83
  C 131.59 107.05 137.87 106.97 143.92 109.52
  Q 144.31 109.68 143.99 109.95
  Q 143.08 110.69 143.27 111.90
  Q 143.34 112.33 142.92 112.43
  L 137.36 113.82
  Q 136.87 113.94 136.42 113.70
  Q 135.59 113.24 134.73 113.27
  Q 129.74 113.47 125.27 112.60
  A 0.43 0.43 0.0 0 0 124.75 113.02
  L 124.75 116.23
  Q 124.75 116.73 124.25 116.75
  L 121.25 116.88"
/>
<path stroke="#9c765e" vector-effect="non-scaling-stroke" d="
  M 121.25 116.88
  L 37.96 116.24"
/>
<path stroke="#70462c" vector-effect="non-scaling-stroke" d="
  M 557.21 122.43
  C 555.00 125.40 554.11 128.98 551.76 131.63
  Q 550.10 133.50 548.95 135.75
  Q 543.96 145.46 535.98 152.94
  Q 535.61 153.28 535.60 153.79
  L 535.23 167.46"
/>
<path stroke="#664327" vector-effect="non-scaling-stroke" d="
  M 535.23 167.46
  L 533.97 168.05"
/>
<path stroke="#70462c" vector-effect="non-scaling-stroke" d="
  M 533.97 168.05
  L 534.03 167.15"
/>
<path stroke="#b59277" vector-effect="non-scaling-stroke" d="
  M 558.33 81.26
  L 558.29 119.98"
/>
<path stroke="#966f56" vector-effect="non-scaling-stroke" d="
  M 558.29 119.98
  L 473.71 119.38"
/>
<path stroke="#c9a488" vector-effect="non-scaling-stroke" d="
  M 569.30 246.25
  Q 569.14 246.26 569.03 246.25
  Q 568.88 246.24 568.88 246.09
  L 568.93 237.35
  A 0.09 0.08 -86.4 0 0 568.86 237.26
  Q 568.46 237.19 568.49 237.61
  Q 568.52 238.13 568.01 237.99
  Q 567.67 237.90 567.73 237.60
  A 0.17 0.17 0.0 0 0 567.49 237.41
  Q 567.29 237.51 567.26 237.72
  Q 567.17 238.30 566.58 238.30
  L 561.96 238.31
  Q 561.33 238.31 560.99 237.78
  Q 560.53 237.05 559.71 237.54
  Q 559.49 237.68 559.52 237.93
  Q 559.54 238.14 559.50 238.28
  Q 559.24 239.08 559.32 238.22
  Q 559.55 235.73 558.48 235.71"
/>
<path stroke="#b59277" vector-effect="non-scaling-stroke" d="
  M 558.48 235.71
  C 559.18 203.90 559.10 172.00 559.18 140.18
  Q 559.26 104.58 559.53 83.25
  Q 559.55 81.72 559.24 80.98"
/>
<path stroke="#ac876a" vector-effect="non-scaling-stroke" d="
  M 558.48 235.71
  Q 558.83 279.81 558.32 323.81
  Q 558.22 332.58 558.26 343.81
  Q 558.34 367.69 557.75 392.04"
/>
<path stroke="#856547" vector-effect="non-scaling-stroke" d="
  M 525.29 219.08
  Q 530.07 218.21 529.48 213.44
  A 1.08 1.05 63.7 0 1 529.76 212.58
  L 534.39 207.68
  A 1.18 1.17 -22.9 0 0 534.71 206.90
  L 535.37 171.79"
/>
<path stroke="#8f684c" vector-effect="non-scaling-stroke" d="
  M 535.37 171.79
  Q 544.66 163.20 548.18 150.82
  C 548.69 149.03 549.65 147.70 550.20 145.87
  Q 551.00 143.17 551.48 142.11
  Q 555.65 132.78 557.21 122.43"
/>
<path stroke="#785339" vector-effect="non-scaling-stroke" d="
  M 557.21 122.43
  Q 558.17 121.21 558.29 119.98"
/>
<path stroke="#7d583a" vector-effect="non-scaling-stroke" d="
  M 533.97 168.05
  L 533.82 181.26"
/>
<path stroke="#8f684c" vector-effect="non-scaling-stroke" d="
  M 533.82 181.26
  Q 534.03 179.21 533.21 177.59
  A 0.90 0.90 0.0 0 0 532.26 177.11
  C 525.40 178.26 517.53 177.16 510.45 174.26
  C 498.95 169.55 488.34 165.01 480.36 157.63
  Q 476.06 153.65 468.34 150.57
  Q 468.22 150.52 468.14 150.56
  Q 468.02 150.61 467.97 150.74
  Q 467.87 150.98 467.62 150.91
  Q 449.74 145.73 431.15 145.31
  C 426.72 145.21 420.79 145.85 415.56 145.63
  Q 407.01 145.28 403.92 145.30
  C 394.69 145.37 384.51 144.43 376.36 144.52
  Q 362.79 144.66 349.25 145.60
  C 345.33 145.87 341.33 145.09 337.25 145.12
  Q 331.55 145.16 328.25 144.91
  C 322.44 144.47 316.72 144.89 311.03 144.39
  C 292.34 142.76 273.38 143.07 254.62 143.00
  C 253.37 143.00 251.50 143.49 250.44 143.42
  C 238.05 142.70 225.96 143.12 213.20 142.96
  C 202.10 142.82 191.10 143.72 180.02 144.31
  C 168.51 144.92 157.32 149.31 146.73 154.48
  Q 143.03 156.28 140.45 158.93
  C 133.92 165.62 127.77 174.20 126.69 183.77
  Q 126.47 185.69 127.56 190.99
  Q 128.35 194.82 127.62 203.53"
/>
<path stroke="#7d583a" vector-effect="non-scaling-stroke" d="
  M 535.37 171.79
  L 535.23 167.46"
/>
<path stroke="#856547" vector-effect="non-scaling-stroke" d="
  M 533.82 181.26
  Q 533.91 190.28 533.42 199.30
  Q 533.25 202.41 533.88 205.91
  A 1.47 1.47 0.0 0 1 532.32 207.63
  L 525.22 207.12"
/>
<path stroke="#a27b5f" vector-effect="non-scaling-stroke" d="
  M 517.16 206.98
  Q 518.64 205.78 521.25 205.76
  Q 519.30 205.94 519.09 204.63
  Q 519.01 204.14 518.70 203.76
  C 516.87 201.48 514.11 200.69 513.56 197.70
  Q 513.49 197.33 513.58 196.96
  L 514.35 193.60
  Q 514.52 192.84 513.75 192.76
  Q 508.76 192.26 506.56 188.26
  C 504.06 183.69 499.20 181.91 494.16 181.84
  Q 493.63 181.83 493.23 181.48
  Q 488.85 177.59 483.87 174.48
  A 0.90 0.79 6.4 0 1 483.57 174.15
  L 481.11 169.10
  Q 480.86 168.60 480.37 168.33
  Q 475.75 165.78 471.15 163.16
  C 470.16 162.60 469.70 161.52 468.15 161.72
  Q 468.06 161.73 468.05 161.64
  Q 468.03 161.52 468.00 161.40
  Q 467.94 161.05 467.64 160.89
  Q 462.16 157.86 456.06 156.82
  C 444.19 154.80 434.85 152.50 424.62 152.45
  Q 422.08 152.43 416.02 151.97
  C 410.39 151.55 404.04 152.27 399.24 152.19
  C 389.59 152.03 380.43 151.75 370.38 152.24
  C 355.27 152.99 339.21 152.58 324.12 151.48
  C 316.93 150.95 309.07 151.22 302.55 150.69
  Q 280.45 148.89 258.31 149.64
  C 239.38 150.27 221.21 150.02 202.65 150.38
  Q 198.28 150.46 193.46 151.52
  C 182.37 153.96 171.69 151.95 163.21 158.46
  Q 156.20 163.84 153.17 166.02
  C 151.11 167.51 150.05 169.58 148.52 170.98
  C 143.48 175.60 141.82 181.58 141.81 188.14
  C 141.79 194.63 141.56 198.35 141.40 203.50"
/>
<path stroke="#b1876a" vector-effect="non-scaling-stroke" d="
  M 483.19 206.46
  C 480.61 204.79 481.43 197.80 484.21 196.26
  A 2.09 2.09 0.0 0 0 483.57 192.37
  L 479.10 191.56
  A 0.69 0.67 -89.5 0 1 478.54 190.98
  Q 478.27 189.09 479.22 187.54
  Q 479.50 187.08 479.50 186.54
  L 479.50 183.91
  Q 479.50 182.31 477.90 182.45
  Q 474.76 182.73 471.97 182.15
  C 469.67 181.67 467.20 182.06 464.89 180.93
  Q 464.39 180.69 464.48 180.14
  C 464.78 178.28 464.32 177.35 462.64 176.42
  Q 456.84 173.21 450.60 171.08
  C 445.16 169.23 438.05 168.66 432.82 167.41
  Q 425.10 165.57 422.99 165.98
  Q 417.80 167.00 412.65 165.84
  C 411.94 165.68 411.84 165.82 411.21 165.97
  A 1.31 1.30 53.2 0 1 410.28 165.83
  C 405.42 162.98 401.47 164.35 397.00 164.13
  C 380.57 163.31 367.03 163.88 352.07 164.32
  Q 346.25 164.48 339.18 163.84
  Q 327.22 162.75 295.72 160.41
  Q 286.43 159.72 277.77 159.77
  C 269.97 159.82 262.01 160.48 254.26 159.55
  Q 251.67 159.24 248.68 159.49
  Q 229.90 161.01 208.56 160.32
  Q 200.32 160.05 191.09 162.32
  C 190.06 162.58 189.11 163.43 187.98 163.59
  C 185.14 163.98 182.81 164.96 180.04 165.54
  Q 172.89 167.05 166.33 170.25
  C 162.39 172.18 160.06 176.09 157.68 179.60
  C 154.62 184.12 154.33 187.80 154.67 193.03
  C 154.89 196.24 153.86 198.82 153.36 201.89
  Q 153.28 202.37 152.87 202.63
  L 151.47 203.51"
/>
<path stroke="#bb9375" vector-effect="non-scaling-stroke" d="
  M 452.50 206.42
  L 456.51 206.08
  A 0.17 0.16 -47.1 0 0 456.50 205.75
  L 451.03 205.75
  Q 450.50 205.75 450.79 205.31
  L 451.61 204.07
  Q 451.90 203.63 451.62 203.19
  Q 450.93 202.08 449.57 201.99
  Q 449.09 201.96 448.70 201.67
  C 444.39 198.47 441.66 201.61 437.57 200.19
  A 1.30 1.25 -3.2 0 1 436.85 199.57
  Q 434.11 194.26 428.33 192.57
  A 1.37 1.33 -7.9 0 1 427.58 192.02
  L 425.75 189.22
  Q 425.44 188.74 425.77 188.27
  Q 427.28 186.18 429.52 186.27
  Q 439.36 186.65 449.27 186.87
  Q 449.96 186.89 449.43 186.43
  C 446.18 183.63 442.06 185.57 439.22 181.91
  A 1.10 1.08 -17.0 0 0 438.43 181.50
  Q 426.71 180.95 415.00 180.17
  Q 412.99 180.03 412.59 178.06
  Q 412.49 177.56 412.00 177.41
  C 407.82 176.16 401.90 177.56 397.40 177.15
  C 394.29 176.87 391.58 177.56 388.45 177.51
  A 1.54 1.49 28.4 0 0 387.66 177.73
  C 380.28 182.35 372.28 181.47 362.87 180.23
  Q 362.28 180.15 361.79 180.48
  Q 361.22 180.85 360.50 180.76
  A 0.91 0.90 86.7 0 1 359.74 180.08
  Q 359.12 177.57 356.26 177.69
  Q 348.44 178.01 340.61 178.05
  Q 334.43 178.09 325.42 178.73
  C 314.84 179.48 306.94 178.64 295.54 176.92
  C 272.13 173.36 249.12 175.58 226.00 174.81
  C 223.24 174.72 220.12 175.54 217.07 175.28
  C 206.94 174.43 197.26 175.47 187.38 177.77
  Q 187.34 177.78 187.33 177.75
  Q 187.29 177.62 187.25 177.49
  Q 187.21 177.38 187.10 177.40
  C 179.55 178.80 171.93 181.77 172.99 190.99
  Q 173.17 192.58 172.13 193.93
  C 169.91 196.79 167.02 199.63 169.26 203.73"
/>
<path stroke="#683e23" vector-effect="non-scaling-stroke" d="
  M 67.2865 191.8237
  A 3.24 3.07 50.6 0 0 67.6023 187.3714
  A 3.24 3.07 50.6 0 0 63.1735 186.8163
  A 3.24 3.07 50.6 0 0 62.8577 191.2686
  A 3.24 3.07 50.6 0 0 67.2865 191.8237"
/>
<path stroke="#856547" vector-effect="non-scaling-stroke" d="
  M 521.3884 196.0587
  A 3.06 2.69 110.9 0 0 524.9930 194.1596
  A 3.06 2.69 110.9 0 0 523.5716 190.3413
  A 3.06 2.69 110.9 0 0 519.9670 192.2404
  A 3.06 2.69 110.9 0 0 521.3884 196.0587"
/>
</g>
<path fill="#ab9d7e" d="
  M 177.99 29.80
  Q 178.74 30.24 179.95 30.37
  A 0.07 0.06 46.5 0 1 179.95 30.50
  L 164.76 30.50
  A 0.11 0.11 0.0 0 0 164.75 30.72
  Q 165.53 30.79 166.30 30.85
  Q 166.61 30.87 166.32 30.98
  Q 166.13 31.05 165.97 31.15
  Q 165.74 31.28 166.00 31.33
  L 169.74 32.07
  Q 170.67 32.26 169.96 32.89
  Q 168.23 34.43 168.61 36.74
  A 1.24 1.21 -76.2 0 0 169.06 37.50
  Q 174.02 41.33 177.22 44.78
  Q 178.23 45.87 179.43 46.09
  A 0.05 0.05 0.0 0 1 179.44 46.19
  L 179.07 46.31
  A 0.07 0.07 0.0 0 0 179.10 46.45
  C 183.23 46.44 182.78 48.69 183.71 51.39
  Q 184.12 52.57 184.17 53.84
  Q 184.19 54.38 184.47 54.83
  Q 186.41 57.98 186.22 61.77
  A 0.62 0.61 5.0 0 0 186.76 62.41
  L 201.01 64.22
  L 22.52 62.06
  Q 22.51 62.03 22.49 62.00
  Q 22.48 61.96 22.59 61.84
  L 51.87 29.02
  A 1.11 1.11 0.0 0 1 52.72 28.65
  L 177.99 29.80
  Z"
/>
<path fill="#a5946f" d="
  M 177.99 29.80
  L 534.52 33.04
  Q 535.04 33.04 535.42 33.40
  L 569.60 65.69
  Q 541.75 65.76 514.75 65.72
  C 453.29 65.62 391.77 66.03 330.32 65.31
  Q 282.29 64.74 234.24 64.29
  L 201.01 64.22
  L 186.76 62.41
  A 0.62 0.61 5.0 0 1 186.22 61.77
  Q 186.41 57.98 184.47 54.83
  Q 184.19 54.38 184.17 53.84
  Q 184.12 52.57 183.71 51.39
  C 182.78 48.69 183.23 46.44 179.10 46.45
  A 0.07 0.07 0.0 0 1 179.07 46.31
  L 179.44 46.19
  A 0.05 0.05 0.0 0 0 179.43 46.09
  Q 178.23 45.87 177.22 44.78
  Q 174.02 41.33 169.06 37.50
  A 1.24 1.21 -76.2 0 1 168.61 36.74
  Q 168.23 34.43 169.96 32.89
  Q 170.67 32.26 169.74 32.07
  L 166.00 31.33
  Q 165.74 31.28 165.97 31.15
  Q 166.13 31.05 166.32 30.98
  Q 166.61 30.87 166.30 30.85
  Q 165.53 30.79 164.75 30.72
  A 0.11 0.11 0.0 0 1 164.76 30.50
  L 179.95 30.50
  A 0.07 0.06 46.5 0 0 179.95 30.37
  Q 178.74 30.24 177.99 29.80
  Z"
/>
<path fill="#dfbba4" d="
  M 201.01 64.22
  L 234.24 64.29
  L 239.47 64.89
  A 2.12 2.12 0.0 0 1 241.33 67.13
  Q 241.11 70.38 236.19 71.05
  Q 227.87 70.81 219.49 70.91
  Q 211.54 71.01 203.40 70.50
  C 192.23 69.80 182.03 70.38 172.05 70.10
  C 161.65 69.82 154.61 69.91 145.85 69.98
  C 143.10 70.00 140.05 69.17 137.50 69.20
  Q 104.25 69.68 71.00 70.00
  C 68.81 70.02 66.89 69.23 64.97 69.29
  Q 43.69 69.99 22.58 68.87
  L 22.52 62.06
  L 201.01 64.22
  Z"
/>
<path fill="#d2ae94" d="
  M 234.24 64.29
  Q 282.29 64.74 330.32 65.31
  C 391.77 66.03 453.29 65.62 514.75 65.72
  Q 541.75 65.76 569.60 65.69
  Q 571.86 68.00 571.45 73.68
  C 569.21 73.43 567.28 72.47 565.05 72.50
  C 547.63 72.80 530.31 71.93 512.89 72.14
  C 510.42 72.18 508.27 71.18 505.64 71.33
  C 497.83 71.78 489.88 71.48 482.06 71.53
  C 479.10 71.55 476.41 72.37 473.39 72.20
  C 461.25 71.54 450.50 72.93 438.93 71.85
  C 438.21 71.78 436.87 72.26 436.01 72.25
  C 425.08 72.13 413.90 72.77 403.33 72.49
  C 392.68 72.22 382.06 72.27 371.41 71.96
  Q 364.67 71.77 358.01 73.07
  Q 356.65 73.33 354.60 72.79
  C 350.62 71.74 345.90 72.29 341.76 72.05
  C 329.67 71.33 316.98 73.44 305.11 71.34
  Q 300.40 70.50 296.82 70.53
  Q 268.17 70.75 255.00 70.68
  Q 254.27 70.68 254.02 71.02
  A 0.40 0.38 -70.5 0 1 253.71 71.18
  L 236.19 71.05
  Q 241.11 70.38 241.33 67.13
  A 2.12 2.12 0.0 0 0 239.47 64.89
  L 234.24 64.29
  Z"
/>
<path fill="#c0997b" d="
  M 236.19 71.05
  L 253.71 71.18
  A 0.40 0.38 -70.5 0 0 254.02 71.02
  Q 254.27 70.68 255.00 70.68
  Q 268.17 70.75 296.82 70.53
  Q 300.40 70.50 305.11 71.34
  C 316.98 73.44 329.67 71.33 341.76 72.05
  C 345.90 72.29 350.62 71.74 354.60 72.79
  Q 356.65 73.33 358.01 73.07
  Q 364.67 71.77 371.41 71.96
  C 382.06 72.27 392.68 72.22 403.33 72.49
  C 413.90 72.77 425.08 72.13 436.01 72.25
  C 436.87 72.26 438.21 71.78 438.93 71.85
  C 450.50 72.93 461.25 71.54 473.39 72.20
  C 476.41 72.37 479.10 71.55 482.06 71.53
  C 489.88 71.48 497.83 71.78 505.64 71.33
  C 508.27 71.18 510.42 72.18 512.89 72.14
  C 530.31 71.93 547.63 72.80 565.05 72.50
  C 567.28 72.47 569.21 73.43 571.45 73.68
  L 571.08 75.16
  L 559.50 75.79
  L 420.50 75.26
  Q 411.02 75.04 401.53 74.96
  C 393.09 74.90 377.88 74.34 366.02 74.67
  C 343.53 75.30 321.04 74.34 298.49 75.06
  Q 296.82 75.62 295.51 74.96
  L 24.47 71.79
  Q 23.95 71.79 23.99 72.31
  Q 24.02 72.68 24.26 72.98
  L 23.23 73.50
  L 22.58 68.87
  Q 43.69 69.99 64.97 69.29
  C 66.89 69.23 68.81 70.02 71.00 70.00
  Q 104.25 69.68 137.50 69.20
  C 140.05 69.17 143.10 70.00 145.85 69.98
  C 154.61 69.91 161.65 69.82 172.05 70.10
  C 182.03 70.38 192.23 69.80 203.40 70.50
  Q 211.54 71.01 219.49 70.91
  Q 227.87 70.81 236.19 71.05
  Z"
/>
<path fill="#683d24" d="
  M 295.51 74.96
  Q 294.24 75.56 294.51 76.14
  L 176.49 75.21
  L 36.10 73.59
  A 0.89 0.88 -89.7 0 0 35.21 74.48
  L 35.20 115.27
  Q 35.20 115.85 35.79 115.94
  L 37.96 116.24
  Q 44.43 122.76 49.17 129.36
  C 50.19 130.79 51.76 131.44 53.07 132.63
  Q 53.55 133.08 53.90 132.52
  L 54.80 131.09
  A 0.68 0.67 9.6 0 1 55.23 130.79
  C 58.45 130.08 62.05 130.85 64.68 130.69
  C 75.32 130.04 85.20 128.82 96.48 128.39
  C 105.00 128.07 113.94 126.82 121.84 126.48
  C 133.86 125.96 144.66 124.06 153.93 124.29
  Q 155.27 124.33 155.91 124.02
  Q 156.36 123.81 156.85 123.85
  C 164.10 124.39 170.57 122.51 177.65 122.23
  C 180.68 122.11 184.19 120.99 188.14 121.35
  A 0.30 0.29 -70.3 0 0 188.42 121.21
  L 189.78 119.01
  Q 189.79 119.00 189.77 119.00
  Q 189.61 119.00 189.44 119.00
  A 0.14 0.14 0.0 0 1 189.36 118.74
  L 189.92 118.41
  Q 190.23 118.23 189.92 118.05
  L 189.50 117.80
  L 294.52 118.76
  Q 295.06 118.76 295.19 118.23
  L 295.54 116.74
  Q 297.13 117.43 298.51 115.70
  Q 298.26 116.98 298.62 117.85
  A 0.79 0.79 0.0 0 0 299.33 118.33
  L 473.71 119.38
  C 471.94 122.71 474.16 125.30 477.19 126.85
  C 487.01 131.89 497.15 135.29 507.32 139.75
  C 515.77 143.46 524.81 145.06 533.78 147.08
  Q 534.23 147.18 534.23 147.64
  L 534.21 154.60
  C 529.93 154.40 525.62 153.17 521.69 152.48
  C 516.37 151.54 510.84 149.06 506.62 147.69
  Q 503.03 146.52 499.49 145.15
  Q 499.30 145.07 499.25 145.27
  Q 499.19 145.50 499.06 145.46
  C 488.32 141.63 479.34 134.58 467.98 132.34
  C 447.32 128.25 426.47 127.65 405.53 126.63
  C 400.53 126.39 394.88 127.41 389.42 127.19
  C 382.21 126.91 375.14 128.53 367.84 128.56
  C 360.35 128.60 351.96 129.48 343.91 128.47
  Q 343.73 128.44 343.60 128.50
  Q 343.38 128.58 343.28 128.68
  Q 343.09 128.89 342.80 128.88
  L 281.28 128.14
  Q 280.84 128.14 280.71 128.57
  Q 280.61 128.90 280.25 128.88
  Q 265.02 128.28 249.79 128.20
  Q 249.76 128.20 249.74 128.22
  L 249.49 128.47
  Q 249.35 128.61 249.16 128.60
  C 244.13 128.41 238.59 129.20 234.26 129.25
  C 218.83 129.44 202.96 128.70 187.48 129.56
  Q 187.33 129.57 187.29 129.72
  Q 187.25 129.86 187.15 129.95
  Q 187.05 130.05 186.82 130.06
  C 179.16 130.27 172.09 130.24 164.00 130.87
  C 157.72 131.36 151.75 131.04 145.39 132.25
  C 140.24 133.23 134.88 133.05 130.06 134.15
  C 125.07 135.28 119.95 135.99 115.29 138.11
  C 111.80 139.70 108.72 141.53 104.89 142.53
  C 101.28 143.47 98.09 145.31 94.31 145.70
  C 84.05 146.77 74.49 147.83 65.00 146.52
  Q 58.78 145.66 55.09 145.96
  A 0.76 0.75 -2.5 0 0 54.40 146.71
  L 54.53 201.77
  A 0.63 0.63 0.0 0 1 53.35 202.08
  C 52.34 200.29 53.06 198.18 53.02 196.64
  Q 52.56 182.47 52.89 168.31
  C 53.00 163.24 53.56 154.01 52.19 148.99
  Q 52.07 148.55 51.77 148.19
  Q 48.30 144.00 45.76 137.49
  C 45.53 136.90 44.40 136.15 43.98 135.31
  Q 39.70 126.89 34.07 119.31
  L 34.31 73.77
  A 0.77 0.76 -89.6 0 0 33.55 72.99
  L 24.26 72.98
  Q 24.02 72.68 23.99 72.31
  Q 23.95 71.79 24.47 71.79
  L 295.51 74.96
  Z"
/>
<path fill="#dfbba4" d="
  M 24.26 72.98
  L 33.55 72.99
  A 0.77 0.76 -89.6 0 1 34.31 73.77
  L 34.07 119.31
  L 33.97 129.56
  Q 31.26 129.01 30.83 130.26
  Q 30.66 130.73 30.22 130.49
  L 29.68 130.20
  A 0.99 0.98 41.6 0 0 28.68 130.25
  L 27.05 131.31
  Q 26.53 131.65 26.09 131.21
  L 25.56 130.68
  Q 25.22 130.35 25.00 130.76
  L 24.72 131.29
  Q 24.44 131.81 24.34 131.23
  L 23.56 126.64
  A 0.02 0.01 44.0 0 0 23.53 126.64
  Q 23.44 128.79 23.52 130.98
  Q 23.55 131.74 23.28 131.01
  Q 23.16 130.71 23.17 130.25
  L 23.23 73.50
  L 24.26 72.98
  Z"
/>
<path fill="#dfbba4" d="
  M 176.49 75.21
  L 192.03 75.45
  A 0.51 0.51 0.0 0 1 192.09 76.46
  L 191.71 76.52
  Q 191.25 76.58 191.24 77.05
  Q 191.22 78.17 192.18 78.58
  Q 196.24 80.29 201.83 80.36
  Q 202.69 80.38 202.99 81.63
  Q 203.10 82.09 202.64 81.99
  Q 201.79 81.81 201.21 82.39
  Q 200.70 82.90 201.42 83.01
  Q 210.81 84.40 220.24 83.98
  A 0.86 0.86 0.0 0 1 220.54 85.66
  L 218.94 86.17
  A 0.42 0.41 -53.5 0 0 219.06 86.98
  L 221.96 87.01
  A 0.73 0.72 -1.1 0 0 222.69 86.26
  Q 222.63 84.93 223.64 84.22
  Q 224.05 83.93 224.56 83.96
  C 227.25 84.10 235.33 83.32 236.95 85.78
  Q 237.55 86.69 236.60 86.16
  Q 236.07 85.88 235.68 86.03
  A 0.59 0.59 0.0 0 0 235.40 86.90
  L 235.99 87.79
  Q 236.34 88.33 235.73 88.49
  Q 230.86 89.82 226.26 88.06
  A 1.76 1.75 48.8 0 0 225.24 87.99
  Q 219.89 89.25 214.63 87.88
  A 1.37 1.30 40.1 0 0 213.80 87.93
  Q 212.40 88.48 210.96 88.31
  C 206.63 87.80 202.36 88.26 198.00 87.80
  Q 197.35 87.73 197.46 88.35
  A 0.44 0.43 -4.7 0 0 197.89 88.71
  C 204.05 88.67 209.93 89.82 216.05 89.80
  Q 218.48 89.80 220.68 90.57
  Q 221.16 90.74 220.65 90.70
  Q 217.26 90.46 213.78 91.55
  Q 213.35 91.69 213.78 91.83
  Q 215.03 92.22 214.60 93.39
  A 0.42 0.42 0.0 0 0 214.96 93.96
  L 220.71 94.38
  A 0.75 0.75 0.0 0 1 220.81 95.87
  C 217.50 96.56 215.31 94.87 212.16 95.01
  Q 211.67 95.03 211.44 94.61
  L 209.70 91.53
  Q 209.45 91.08 208.94 91.02
  Q 206.24 90.69 203.68 91.52
  Q 203.19 91.68 202.78 91.38
  C 198.39 88.16 194.89 90.83 190.42 90.51
  A 0.74 0.74 0.0 0 0 190.05 91.92
  C 193.30 93.48 199.02 93.08 202.40 93.32
  A 1.80 1.79 41.5 0 1 202.62 96.87
  Q 197.64 97.84 193.72 95.06
  Q 193.27 94.75 192.73 94.69
  C 189.38 94.33 185.82 92.00 182.55 94.28
  Q 181.37 95.11 181.47 95.52
  A 1.70 1.39 -37.0 0 0 184.28 95.63
  Q 184.90 94.78 186.31 95.54
  Q 186.72 95.76 186.97 96.15
  C 187.69 97.29 188.52 97.78 189.95 97.85
  Q 207.61 98.68 225.08 99.86
  A 0.63 0.63 0.0 0 1 225.63 100.71
  Q 225.46 101.16 224.74 101.15
  Q 217.32 100.99 210.00 99.75
  Q 209.08 99.59 207.96 100.10
  A 1.77 1.75 34.5 0 1 207.12 100.25
  Q 193.67 99.51 190.01 99.41
  Q 188.79 99.38 188.64 100.44
  Q 188.57 100.90 189.04 100.92
  Q 214.19 101.84 239.31 103.43
  Q 240.87 103.53 241.97 104.11
  A 0.47 0.47 0.0 0 1 241.72 105.00
  C 221.25 103.89 200.69 103.35 180.34 101.70
  C 168.72 100.76 157.12 100.39 145.50 99.46
  Q 143.26 99.28 141.68 100.23
  A 0.61 0.61 0.0 0 0 141.93 101.36
  L 145.88 101.82
  A 0.57 0.57 0.0 0 1 146.35 102.58
  Q 145.18 105.81 141.79 105.65
  Q 130.51 105.10 123.28 105.45
  Q 122.73 105.47 122.96 105.98
  Q 123.36 106.80 124.25 106.83
  C 131.59 107.05 137.87 106.97 143.92 109.52
  Q 144.31 109.68 143.99 109.95
  Q 143.08 110.69 143.27 111.90
  Q 143.34 112.33 142.92 112.43
  L 137.36 113.82
  Q 136.87 113.94 136.42 113.70
  Q 135.59 113.24 134.73 113.27
  Q 129.74 113.47 125.27 112.60
  A 0.43 0.43 0.0 0 0 124.75 113.02
  L 124.75 116.23
  Q 124.75 116.73 124.25 116.75
  L 121.25 116.88
  L 37.96 116.24
  L 35.79 115.94
  Q 35.20 115.85 35.20 115.27
  L 35.21 74.48
  A 0.89 0.88 -89.7 0 1 36.10 73.59
  L 176.49 75.21
  Z"
/>
<path fill="#977559" d="
  M 420.50 75.26
  Q 417.21 76.61 419.73 77.21
  C 414.84 77.15 409.56 77.58 405.10 77.53
  Q 352.29 76.94 299.50 75.99
  Q 299.34 75.98 298.54 76.27
  Q 299.03 76.48 298.49 75.06
  C 321.04 74.34 343.53 75.30 366.02 74.67
  C 377.88 74.34 393.09 74.90 401.53 74.96
  Q 411.02 75.04 420.50 75.26
  Z"
/>
<path fill="#977559" d="
  M 571.08 75.16
  L 570.01 77.99
  Q 569.27 77.09 567.25 77.00
  Q 561.44 76.74 559.70 76.87
  Q 560.30 76.14 559.50 75.79
  L 571.08 75.16
  Z"
/>
<path fill="#d2ae94" d="
  M 176.49 75.21
  L 294.51 76.14
  Q 295.76 75.67 295.72 77.75
  Q 295.34 97.25 295.54 116.74
  L 295.19 118.23
  Q 295.06 118.76 294.52 118.76
  L 189.50 117.80
  Q 189.10 117.83 188.69 117.63
  A 0.70 0.61 55.8 0 0 188.38 117.55
  L 121.25 116.88
  L 124.25 116.75
  Q 124.75 116.73 124.75 116.23
  L 124.75 113.02
  A 0.43 0.43 0.0 0 1 125.27 112.60
  Q 129.74 113.47 134.73 113.27
  Q 135.59 113.24 136.42 113.70
  Q 136.87 113.94 137.36 113.82
  L 142.92 112.43
  Q 143.34 112.33 143.27 111.90
  Q 143.08 110.69 143.99 109.95
  Q 144.31 109.68 143.92 109.52
  C 137.87 106.97 131.59 107.05 124.25 106.83
  Q 123.36 106.80 122.96 105.98
  Q 122.73 105.47 123.28 105.45
  Q 130.51 105.10 141.79 105.65
  Q 145.18 105.81 146.35 102.58
  A 0.57 0.57 0.0 0 0 145.88 101.82
  L 141.93 101.36
  A 0.61 0.61 0.0 0 1 141.68 100.23
  Q 143.26 99.28 145.50 99.46
  C 157.12 100.39 168.72 100.76 180.34 101.70
  C 200.69 103.35 221.25 103.89 241.72 105.00
  A 0.47 0.47 0.0 0 0 241.97 104.11
  Q 240.87 103.53 239.31 103.43
  Q 214.19 101.84 189.04 100.92
  Q 188.57 100.90 188.64 100.44
  Q 188.79 99.38 190.01 99.41
  Q 193.67 99.51 207.12 100.25
  A 1.77 1.75 34.5 0 0 207.96 100.10
  Q 209.08 99.59 210.00 99.75
  Q 217.32 100.99 224.74 101.15
  Q 225.46 101.16 225.63 100.71
  A 0.63 0.63 0.0 0 0 225.08 99.86
  Q 207.61 98.68 189.95 97.85
  C 188.52 97.78 187.69 97.29 186.97 96.15
  Q 186.72 95.76 186.31 95.54
  Q 184.90 94.78 184.28 95.63
  A 1.70 1.39 -37.0 0 1 181.47 95.52
  Q 181.37 95.11 182.55 94.28
  C 185.82 92.00 189.38 94.33 192.73 94.69
  Q 193.27 94.75 193.72 95.06
  Q 197.64 97.84 202.62 96.87
  A 1.80 1.79 41.5 0 0 202.40 93.32
  C 199.02 93.08 193.30 93.48 190.05 91.92
  A 0.74 0.74 0.0 0 1 190.42 90.51
  C 194.89 90.83 198.39 88.16 202.78 91.38
  Q 203.19 91.68 203.68 91.52
  Q 206.24 90.69 208.94 91.02
  Q 209.45 91.08 209.70 91.53
  L 211.44 94.61
  Q 211.67 95.03 212.16 95.01
  C 215.31 94.87 217.50 96.56 220.81 95.87
  A 0.75 0.75 0.0 0 0 220.71 94.38
  L 214.96 93.96
  A 0.42 0.42 0.0 0 1 214.60 93.39
  Q 215.03 92.22 213.78 91.83
  Q 213.35 91.69 213.78 91.55
  Q 217.26 90.46 220.65 90.70
  Q 221.16 90.74 220.68 90.57
  Q 218.48 89.80 216.05 89.80
  C 209.93 89.82 204.05 88.67 197.89 88.71
  A 0.44 0.43 -4.7 0 1 197.46 88.35
  Q 197.35 87.73 198.00 87.80
  C 202.36 88.26 206.63 87.80 210.96 88.31
  Q 212.40 88.48 213.80 87.93
  A 1.37 1.30 40.1 0 1 214.63 87.88
  Q 219.89 89.25 225.24 87.99
  A 1.76 1.75 48.8 0 1 226.26 88.06
  Q 230.86 89.82 235.73 88.49
  Q 236.34 88.33 235.99 87.79
  L 235.40 86.90
  A 0.59 0.59 0.0 0 1 235.68 86.03
  Q 236.07 85.88 236.60 86.16
  Q 237.55 86.69 236.95 85.78
  C 235.33 83.32 227.25 84.10 224.56 83.96
  Q 224.05 83.93 223.64 84.22
  Q 222.63 84.93 222.69 86.26
  A 0.73 0.72 -1.1 0 1 221.96 87.01
  L 219.06 86.98
  A 0.42 0.41 -53.5 0 1 218.94 86.17
  L 220.54 85.66
  A 0.86 0.86 0.0 0 0 220.24 83.98
  Q 210.81 84.40 201.42 83.01
  Q 200.70 82.90 201.21 82.39
  Q 201.79 81.81 202.64 81.99
  Q 203.10 82.09 202.99 81.63
  Q 202.69 80.38 201.83 80.36
  Q 196.24 80.29 192.18 78.58
  Q 191.22 78.17 191.24 77.05
  Q 191.25 76.58 191.71 76.52
  L 192.09 76.46
  A 0.51 0.51 0.0 0 0 192.03 75.45
  L 176.49 75.21
  Z"
/>
<path fill="#593018" d="
  M 295.51 74.96
  Q 296.82 75.62 298.49 75.06
  Q 299.03 76.48 298.54 76.27
  L 298.51 115.70
  Q 297.13 117.43 295.54 116.74
  Q 295.34 97.25 295.72 77.75
  Q 295.76 75.67 294.51 76.14
  Q 294.24 75.56 295.51 74.96
  Z"
/>
<path fill="#764b2e" d="
  M 420.50 75.26
  L 559.50 75.79
  Q 560.30 76.14 559.70 76.87
  L 559.24 80.98
  L 558.33 81.26
  Q 558.60 79.55 558.01 78.04
  Q 557.81 77.53 557.26 77.53
  L 419.73 77.21
  Q 417.21 76.61 420.50 75.26
  Z"
/>
<path fill="#d2ae94" d="
  M 419.73 77.21
  L 557.26 77.53
  Q 557.81 77.53 558.01 78.04
  Q 558.60 79.55 558.33 81.26
  L 558.29 119.98
  L 473.71 119.38
  L 299.33 118.33
  A 0.79 0.79 0.0 0 1 298.62 117.85
  Q 298.26 116.98 298.51 115.70
  L 298.54 76.27
  Q 299.34 75.98 299.50 75.99
  Q 352.29 76.94 405.10 77.53
  C 409.56 77.58 414.84 77.15 419.73 77.21
  Z"
/>
<path fill="#d2ae94" d="
  M 570.01 77.99
  L 569.30 246.25
  Q 569.14 246.26 569.03 246.25
  Q 568.88 246.24 568.88 246.09
  L 568.93 237.35
  A 0.09 0.08 -86.4 0 0 568.86 237.26
  Q 568.46 237.19 568.49 237.61
  Q 568.52 238.13 568.01 237.99
  Q 567.67 237.90 567.73 237.60
  A 0.17 0.17 0.0 0 0 567.49 237.41
  Q 567.29 237.51 567.26 237.72
  Q 567.17 238.30 566.58 238.30
  L 561.96 238.31
  Q 561.33 238.31 560.99 237.78
  Q 560.53 237.05 559.71 237.54
  Q 559.49 237.68 559.52 237.93
  Q 559.54 238.14 559.50 238.28
  Q 559.24 239.08 559.32 238.22
  Q 559.55 235.73 558.48 235.71
  C 559.18 203.90 559.10 172.00 559.18 140.18
  Q 559.26 104.58 559.53 83.25
  Q 559.55 81.72 559.24 80.98
  L 559.70 76.87
  Q 561.44 76.74 567.25 77.00
  Q 569.27 77.09 570.01 77.99
  Z"
/>
<path fill="#977559" d="
  M 559.24 80.98
  Q 559.55 81.72 559.53 83.25
  Q 559.26 104.58 559.18 140.18
  C 559.10 172.00 559.18 203.90 558.48 235.71
  Q 558.83 279.81 558.32 323.81
  Q 558.22 332.58 558.26 343.81
  Q 558.34 367.69 557.75 392.04
  Q 541.56 357.84 525.95 324.80
  Q 524.96 322.71 524.98 320.38
  Q 525.34 269.64 525.29 219.08
  Q 530.07 218.21 529.48 213.44
  A 1.08 1.05 63.7 0 1 529.76 212.58
  L 534.39 207.68
  A 1.18 1.17 -22.9 0 0 534.71 206.90
  L 535.37 171.79
  Q 544.66 163.20 548.18 150.82
  C 548.69 149.03 549.65 147.70 550.20 145.87
  Q 551.00 143.17 551.48 142.11
  Q 555.65 132.78 557.21 122.43
  Q 558.17 121.21 558.29 119.98
  L 558.33 81.26
  L 559.24 80.98
  Z"
/>
<path fill="#593018" d="
  M 37.96 116.24
  L 121.25 116.88
  L 188.38 117.55
  A 0.70 0.61 55.8 0 1 188.69 117.63
  Q 189.10 117.83 189.50 117.80
  L 189.92 118.05
  Q 190.23 118.23 189.92 118.41
  L 189.36 118.74
  A 0.14 0.14 0.0 0 0 189.44 119.00
  Q 189.61 119.00 189.77 119.00
  Q 189.79 119.00 189.78 119.01
  L 188.42 121.21
  A 0.30 0.29 -70.3 0 1 188.14 121.35
  C 184.19 120.99 180.68 122.11 177.65 122.23
  C 170.57 122.51 164.10 124.39 156.85 123.85
  Q 156.36 123.81 155.91 124.02
  Q 155.27 124.33 153.93 124.29
  C 144.66 124.06 133.86 125.96 121.84 126.48
  C 113.94 126.82 105.00 128.07 96.48 128.39
  C 85.20 128.82 75.32 130.04 64.68 130.69
  C 62.05 130.85 58.45 130.08 55.23 130.79
  A 0.68 0.67 9.6 0 0 54.80 131.09
  L 53.90 132.52
  Q 53.55 133.08 53.07 132.63
  C 51.76 131.44 50.19 130.79 49.17 129.36
  Q 44.43 122.76 37.96 116.24
  Z"
/>
<path fill="#764b2e" d="
  M 34.07 119.31
  Q 39.70 126.89 43.98 135.31
  C 44.40 136.15 45.53 136.90 45.76 137.49
  Q 48.30 144.00 51.77 148.19
  Q 52.07 148.55 52.19 148.99
  C 53.56 154.01 53.00 163.24 52.89 168.31
  Q 52.56 182.47 53.02 196.64
  C 53.06 198.18 52.34 200.29 53.35 202.08
  A 0.63 0.63 0.0 0 0 54.53 201.77
  L 54.40 146.71
  A 0.76 0.75 -2.5 0 1 55.09 145.96
  Q 58.78 145.66 65.00 146.52
  C 74.49 147.83 84.05 146.77 94.31 145.70
  C 98.09 145.31 101.28 143.47 104.89 142.53
  C 108.72 141.53 111.80 139.70 115.29 138.11
  C 119.95 135.99 125.07 135.28 130.06 134.15
  C 134.88 133.05 140.24 133.23 145.39 132.25
  C 151.75 131.04 157.72 131.36 164.00 130.87
  C 172.09 130.24 179.16 130.27 186.82 130.06
  Q 187.05 130.05 187.15 129.95
  Q 187.25 129.86 187.29 129.72
  Q 187.33 129.57 187.48 129.56
  C 202.96 128.70 218.83 129.44 234.26 129.25
  C 238.59 129.20 244.13 128.41 249.16 128.60
  Q 249.35 128.61 249.49 128.47
  L 249.74 128.22
  Q 249.76 128.20 249.79 128.20
  Q 265.02 128.28 280.25 128.88
  Q 280.61 128.90 280.71 128.57
  Q 280.84 128.14 281.28 128.14
  L 342.80 128.88
  Q 343.09 128.89 343.28 128.68
  Q 343.38 128.58 343.60 128.50
  Q 343.73 128.44 343.91 128.47
  C 351.96 129.48 360.35 128.60 367.84 128.56
  C 375.14 128.53 382.21 126.91 389.42 127.19
  C 394.88 127.41 400.53 126.39 405.53 126.63
  C 426.47 127.65 447.32 128.25 467.98 132.34
  C 479.34 134.58 488.32 141.63 499.06 145.46
  Q 499.19 145.50 499.25 145.27
  Q 499.30 145.07 499.49 145.15
  Q 503.03 146.52 506.62 147.69
  C 510.84 149.06 516.37 151.54 521.69 152.48
  C 525.62 153.17 529.93 154.40 534.21 154.60
  L 534.03 167.15
  C 525.84 166.48 516.19 166.78 508.96 163.08
  Q 497.85 157.38 486.67 151.80
  C 480.97 148.96 474.83 144.37 468.26 141.50
  Q 468.21 141.48 468.17 141.52
  L 468.00 141.72
  Q 467.89 141.85 467.72 141.79
  C 460.32 138.99 451.98 138.87 445.86 138.03
  C 431.95 136.12 419.60 137.44 406.31 136.93
  Q 405.83 136.91 405.45 137.20
  Q 404.83 137.67 403.75 137.62
  Q 390.59 137.08 374.25 137.51
  Q 350.35 138.15 326.46 137.20
  C 322.95 137.06 318.75 137.40 314.87 137.18
  C 294.25 135.96 273.38 136.17 252.73 136.53
  C 245.14 136.67 235.62 136.42 227.05 136.74
  Q 212.38 137.28 207.80 137.31
  Q 196.12 137.40 184.44 137.52
  C 167.59 137.71 154.89 141.66 140.04 145.50
  Q 131.45 147.73 124.87 153.34
  C 122.27 155.55 120.87 159.07 118.95 162.02
  C 113.06 171.04 107.21 182.65 111.93 194.05
  Q 112.92 196.43 112.25 201.71
  Q 112.21 202.08 112.54 202.26
  L 112.99 202.50
  Q 113.33 202.69 113.05 202.96
  L 112.74 203.24
  L 60.58 202.87
  Q 58.93 202.57 53.74 203.22
  Q 49.10 203.81 34.29 202.27
  A 0.59 0.57 -67.4 0 0 33.78 202.49
  L 33.56 202.75
  L 33.97 129.56
  L 34.07 119.31
  Z
  M 67.2865 191.8237
  A 3.24 3.07 50.6 0 0 67.6023 187.3714
  A 3.24 3.07 50.6 0 0 63.1735 186.8163
  A 3.24 3.07 50.6 0 0 62.8577 191.2686
  A 3.24 3.07 50.6 0 0 67.2865 191.8237
  Z"
/>
<path fill="#593018" d="
  M 473.71 119.38
  L 558.29 119.98
  Q 558.17 121.21 557.21 122.43
  C 555.00 125.40 554.11 128.98 551.76 131.63
  Q 550.10 133.50 548.95 135.75
  Q 543.96 145.46 535.98 152.94
  Q 535.61 153.28 535.60 153.79
  L 535.23 167.46
  L 533.97 168.05
  L 534.03 167.15
  L 534.21 154.60
  L 534.23 147.64
  Q 534.23 147.18 533.78 147.08
  C 524.81 145.06 515.77 143.46 507.32 139.75
  C 497.15 135.29 487.01 131.89 477.19 126.85
  C 474.16 125.30 471.94 122.71 473.71 119.38
  Z"
/>
<path fill="#875b3f" d="
  M 557.21 122.43
  Q 555.65 132.78 551.48 142.11
  Q 551.00 143.17 550.20 145.87
  C 549.65 147.70 548.69 149.03 548.18 150.82
  Q 544.66 163.20 535.37 171.79
  L 535.23 167.46
  L 535.60 153.79
  Q 535.61 153.28 535.98 152.94
  Q 543.96 145.46 548.95 135.75
  Q 550.10 133.50 551.76 131.63
  C 554.11 128.98 555.00 125.40 557.21 122.43
  Z"
/>
<path fill="#d2ae94" d="
  M 33.97 129.56
  L 33.56 202.75
  L 32.75 384.78
  Q 32.75 385.26 33.15 385.50
  L 33.54 385.75
  C 32.85 390.24 25.84 388.81 22.61 388.71
  Q 22.01 388.69 22.02 388.10
  L 23.17 130.25
  Q 23.16 130.71 23.28 131.01
  Q 23.55 131.74 23.52 130.98
  Q 23.44 128.79 23.53 126.64
  A 0.02 0.01 44.0 0 1 23.56 126.64
  L 24.34 131.23
  Q 24.44 131.81 24.72 131.29
  L 25.00 130.76
  Q 25.22 130.35 25.56 130.68
  L 26.09 131.21
  Q 26.53 131.65 27.05 131.31
  L 28.68 130.25
  A 0.99 0.98 41.6 0 1 29.68 130.20
  L 30.22 130.49
  Q 30.66 130.73 30.83 130.26
  Q 31.26 129.01 33.97 129.56
  Z"
/>
<path fill="#875b3f" d="
  M 534.03 167.15
  L 533.97 168.05
  L 533.82 181.26
  Q 534.03 179.21 533.21 177.59
  A 0.90 0.90 0.0 0 0 532.26 177.11
  C 525.40 178.26 517.53 177.16 510.45 174.26
  C 498.95 169.55 488.34 165.01 480.36 157.63
  Q 476.06 153.65 468.34 150.57
  Q 468.22 150.52 468.14 150.56
  Q 468.02 150.61 467.97 150.74
  Q 467.87 150.98 467.62 150.91
  Q 449.74 145.73 431.15 145.31
  C 426.72 145.21 420.79 145.85 415.56 145.63
  Q 407.01 145.28 403.92 145.30
  C 394.69 145.37 384.51 144.43 376.36 144.52
  Q 362.79 144.66 349.25 145.60
  C 345.33 145.87 341.33 145.09 337.25 145.12
  Q 331.55 145.16 328.25 144.91
  C 322.44 144.47 316.72 144.89 311.03 144.39
  C 292.34 142.76 273.38 143.07 254.62 143.00
  C 253.37 143.00 251.50 143.49 250.44 143.42
  C 238.05 142.70 225.96 143.12 213.20 142.96
  C 202.10 142.82 191.10 143.72 180.02 144.31
  C 168.51 144.92 157.32 149.31 146.73 154.48
  Q 143.03 156.28 140.45 158.93
  C 133.92 165.62 127.77 174.20 126.69 183.77
  Q 126.47 185.69 127.56 190.99
  Q 128.35 194.82 127.62 203.53
  L 112.74 203.24
  L 113.05 202.96
  Q 113.33 202.69 112.99 202.50
  L 112.54 202.26
  Q 112.21 202.08 112.25 201.71
  Q 112.92 196.43 111.93 194.05
  C 107.21 182.65 113.06 171.04 118.95 162.02
  C 120.87 159.07 122.27 155.55 124.87 153.34
  Q 131.45 147.73 140.04 145.50
  C 154.89 141.66 167.59 137.71 184.44 137.52
  Q 196.12 137.40 207.80 137.31
  Q 212.38 137.28 227.05 136.74
  C 235.62 136.42 245.14 136.67 252.73 136.53
  C 273.38 136.17 294.25 135.96 314.87 137.18
  C 318.75 137.40 322.95 137.06 326.46 137.20
  Q 350.35 138.15 374.25 137.51
  Q 390.59 137.08 403.75 137.62
  Q 404.83 137.67 405.45 137.20
  Q 405.83 136.91 406.31 136.93
  C 419.60 137.44 431.95 136.12 445.86 138.03
  C 451.98 138.87 460.32 138.99 467.72 141.79
  Q 467.89 141.85 468.00 141.72
  L 468.17 141.52
  Q 468.21 141.48 468.26 141.50
  C 474.83 144.37 480.97 148.96 486.67 151.80
  Q 497.85 157.38 508.96 163.08
  C 516.19 166.78 525.84 166.48 534.03 167.15
  Z"
/>
<path fill="#977559" d="
  M 533.82 181.26
  Q 533.91 190.28 533.42 199.30
  Q 533.25 202.41 533.88 205.91
  A 1.47 1.47 0.0 0 1 532.32 207.63
  L 525.22 207.12
  L 517.16 206.98
  Q 518.64 205.78 521.25 205.76
  Q 519.30 205.94 519.09 204.63
  Q 519.01 204.14 518.70 203.76
  C 516.87 201.48 514.11 200.69 513.56 197.70
  Q 513.49 197.33 513.58 196.96
  L 514.35 193.60
  Q 514.52 192.84 513.75 192.76
  Q 508.76 192.26 506.56 188.26
  C 504.06 183.69 499.20 181.91 494.16 181.84
  Q 493.63 181.83 493.23 181.48
  Q 488.85 177.59 483.87 174.48
  A 0.90 0.79 6.4 0 1 483.57 174.15
  L 481.11 169.10
  Q 480.86 168.60 480.37 168.33
  Q 475.75 165.78 471.15 163.16
  C 470.16 162.60 469.70 161.52 468.15 161.72
  Q 468.06 161.73 468.05 161.64
  Q 468.03 161.52 468.00 161.40
  Q 467.94 161.05 467.64 160.89
  Q 462.16 157.86 456.06 156.82
  C 444.19 154.80 434.85 152.50 424.62 152.45
  Q 422.08 152.43 416.02 151.97
  C 410.39 151.55 404.04 152.27 399.24 152.19
  C 389.59 152.03 380.43 151.75 370.38 152.24
  C 355.27 152.99 339.21 152.58 324.12 151.48
  C 316.93 150.95 309.07 151.22 302.55 150.69
  Q 280.45 148.89 258.31 149.64
  C 239.38 150.27 221.21 150.02 202.65 150.38
  Q 198.28 150.46 193.46 151.52
  C 182.37 153.96 171.69 151.95 163.21 158.46
  Q 156.20 163.84 153.17 166.02
  C 151.11 167.51 150.05 169.58 148.52 170.98
  C 143.48 175.60 141.82 181.58 141.81 188.14
  C 141.79 194.63 141.56 198.35 141.40 203.50
  L 127.62 203.53
  Q 128.35 194.82 127.56 190.99
  Q 126.47 185.69 126.69 183.77
  C 127.77 174.20 133.92 165.62 140.45 158.93
  Q 143.03 156.28 146.73 154.48
  C 157.32 149.31 168.51 144.92 180.02 144.31
  C 191.10 143.72 202.10 142.82 213.20 142.96
  C 225.96 143.12 238.05 142.70 250.44 143.42
  C 251.50 143.49 253.37 143.00 254.62 143.00
  C 273.38 143.07 292.34 142.76 311.03 144.39
  C 316.72 144.89 322.44 144.47 328.25 144.91
  Q 331.55 145.16 337.25 145.12
  C 341.33 145.09 345.33 145.87 349.25 145.60
  Q 362.79 144.66 376.36 144.52
  C 384.51 144.43 394.69 145.37 403.92 145.30
  Q 407.01 145.28 415.56 145.63
  C 420.79 145.85 426.72 145.21 431.15 145.31
  Q 449.74 145.73 467.62 150.91
  Q 467.87 150.98 467.97 150.74
  Q 468.02 150.61 468.14 150.56
  Q 468.22 150.52 468.34 150.57
  Q 476.06 153.65 480.36 157.63
  C 488.34 165.01 498.95 169.55 510.45 174.26
  C 517.53 177.16 525.40 178.26 532.26 177.11
  A 0.90 0.90 0.0 0 1 533.21 177.59
  Q 534.03 179.21 533.82 181.26
  Z
  M 521.3884 196.0587
  A 3.06 2.69 110.9 0 0 524.9930 194.1596
  A 3.06 2.69 110.9 0 0 523.5716 190.3413
  A 3.06 2.69 110.9 0 0 519.9670 192.2404
  A 3.06 2.69 110.9 0 0 521.3884 196.0587
  Z"
/>
<path fill="#ac8164" d="
  M 517.16 206.98
  L 483.19 206.46
  C 480.61 204.79 481.43 197.80 484.21 196.26
  A 2.09 2.09 0.0 0 0 483.57 192.37
  L 479.10 191.56
  A 0.69 0.67 -89.5 0 1 478.54 190.98
  Q 478.27 189.09 479.22 187.54
  Q 479.50 187.08 479.50 186.54
  L 479.50 183.91
  Q 479.50 182.31 477.90 182.45
  Q 474.76 182.73 471.97 182.15
  C 469.67 181.67 467.20 182.06 464.89 180.93
  Q 464.39 180.69 464.48 180.14
  C 464.78 178.28 464.32 177.35 462.64 176.42
  Q 456.84 173.21 450.60 171.08
  C 445.16 169.23 438.05 168.66 432.82 167.41
  Q 425.10 165.57 422.99 165.98
  Q 417.80 167.00 412.65 165.84
  C 411.94 165.68 411.84 165.82 411.21 165.97
  A 1.31 1.30 53.2 0 1 410.28 165.83
  C 405.42 162.98 401.47 164.35 397.00 164.13
  C 380.57 163.31 367.03 163.88 352.07 164.32
  Q 346.25 164.48 339.18 163.84
  Q 327.22 162.75 295.72 160.41
  Q 286.43 159.72 277.77 159.77
  C 269.97 159.82 262.01 160.48 254.26 159.55
  Q 251.67 159.24 248.68 159.49
  Q 229.90 161.01 208.56 160.32
  Q 200.32 160.05 191.09 162.32
  C 190.06 162.58 189.11 163.43 187.98 163.59
  C 185.14 163.98 182.81 164.96 180.04 165.54
  Q 172.89 167.05 166.33 170.25
  C 162.39 172.18 160.06 176.09 157.68 179.60
  C 154.62 184.12 154.33 187.80 154.67 193.03
  C 154.89 196.24 153.86 198.82 153.36 201.89
  Q 153.28 202.37 152.87 202.63
  L 151.47 203.51
  L 141.40 203.50
  C 141.56 198.35 141.79 194.63 141.81 188.14
  C 141.82 181.58 143.48 175.60 148.52 170.98
  C 150.05 169.58 151.11 167.51 153.17 166.02
  Q 156.20 163.84 163.21 158.46
  C 171.69 151.95 182.37 153.96 193.46 151.52
  Q 198.28 150.46 202.65 150.38
  C 221.21 150.02 239.38 150.27 258.31 149.64
  Q 280.45 148.89 302.55 150.69
  C 309.07 151.22 316.93 150.95 324.12 151.48
  C 339.21 152.58 355.27 152.99 370.38 152.24
  C 380.43 151.75 389.59 152.03 399.24 152.19
  C 404.04 152.27 410.39 151.55 416.02 151.97
  Q 422.08 152.43 424.62 152.45
  C 434.85 152.50 444.19 154.80 456.06 156.82
  Q 462.16 157.86 467.64 160.89
  Q 467.94 161.05 468.00 161.40
  Q 468.03 161.52 468.05 161.64
  Q 468.06 161.73 468.15 161.72
  C 469.70 161.52 470.16 162.60 471.15 163.16
  Q 475.75 165.78 480.37 168.33
  Q 480.86 168.60 481.11 169.10
  L 483.57 174.15
  A 0.90 0.79 6.4 0 0 483.87 174.48
  Q 488.85 177.59 493.23 181.48
  Q 493.63 181.83 494.16 181.84
  C 499.20 181.91 504.06 183.69 506.56 188.26
  Q 508.76 192.26 513.75 192.76
  Q 514.52 192.84 514.35 193.60
  L 513.58 196.96
  Q 513.49 197.33 513.56 197.70
  C 514.11 200.69 516.87 201.48 518.70 203.76
  Q 519.01 204.14 519.09 204.63
  Q 519.30 205.94 521.25 205.76
  Q 518.64 205.78 517.16 206.98
  Z"
/>
<path fill="#b58c6f" d="
  M 483.19 206.46
  L 452.50 206.42
  L 456.51 206.08
  A 0.17 0.16 -47.1 0 0 456.50 205.75
  L 451.03 205.75
  Q 450.50 205.75 450.79 205.31
  L 451.61 204.07
  Q 451.90 203.63 451.62 203.19
  Q 450.93 202.08 449.57 201.99
  Q 449.09 201.96 448.70 201.67
  C 444.39 198.47 441.66 201.61 437.57 200.19
  A 1.30 1.25 -3.2 0 1 436.85 199.57
  Q 434.11 194.26 428.33 192.57
  A 1.37 1.33 -7.9 0 1 427.58 192.02
  L 425.75 189.22
  Q 425.44 188.74 425.77 188.27
  Q 427.28 186.18 429.52 186.27
  Q 439.36 186.65 449.27 186.87
  Q 449.96 186.89 449.43 186.43
  C 446.18 183.63 442.06 185.57 439.22 181.91
  A 1.10 1.08 -17.0 0 0 438.43 181.50
  Q 426.71 180.95 415.00 180.17
  Q 412.99 180.03 412.59 178.06
  Q 412.49 177.56 412.00 177.41
  C 407.82 176.16 401.90 177.56 397.40 177.15
  C 394.29 176.87 391.58 177.56 388.45 177.51
  A 1.54 1.49 28.4 0 0 387.66 177.73
  C 380.28 182.35 372.28 181.47 362.87 180.23
  Q 362.28 180.15 361.79 180.48
  Q 361.22 180.85 360.50 180.76
  A 0.91 0.90 86.7 0 1 359.74 180.08
  Q 359.12 177.57 356.26 177.69
  Q 348.44 178.01 340.61 178.05
  Q 334.43 178.09 325.42 178.73
  C 314.84 179.48 306.94 178.64 295.54 176.92
  C 272.13 173.36 249.12 175.58 226.00 174.81
  C 223.24 174.72 220.12 175.54 217.07 175.28
  C 206.94 174.43 197.26 175.47 187.38 177.77
  Q 187.34 177.78 187.33 177.75
  Q 187.29 177.62 187.25 177.49
  Q 187.21 177.38 187.10 177.40
  C 179.55 178.80 171.93 181.77 172.99 190.99
  Q 173.17 192.58 172.13 193.93
  C 169.91 196.79 167.02 199.63 169.26 203.73
  L 151.47 203.51
  L 152.87 202.63
  Q 153.28 202.37 153.36 201.89
  C 153.86 198.82 154.89 196.24 154.67 193.03
  C 154.33 187.80 154.62 184.12 157.68 179.60
  C 160.06 176.09 162.39 172.18 166.33 170.25
  Q 172.89 167.05 180.04 165.54
  C 182.81 164.96 185.14 163.98 187.98 163.59
  C 189.11 163.43 190.06 162.58 191.09 162.32
  Q 200.32 160.05 208.56 160.32
  Q 229.90 161.01 248.68 159.49
  Q 251.67 159.24 254.26 159.55
  C 262.01 160.48 269.97 159.82 277.77 159.77
  Q 286.43 159.72 295.72 160.41
  Q 327.22 162.75 339.18 163.84
  Q 346.25 164.48 352.07 164.32
  C 367.03 163.88 380.57 163.31 397.00 164.13
  C 401.47 164.35 405.42 162.98 410.28 165.83
  A 1.31 1.30 53.2 0 0 411.21 165.97
  C 411.84 165.82 411.94 165.68 412.65 165.84
  Q 417.80 167.00 422.99 165.98
  Q 425.10 165.57 432.82 167.41
  C 438.05 168.66 445.16 169.23 450.60 171.08
  Q 456.84 173.21 462.64 176.42
  C 464.32 177.35 464.78 178.28 464.48 180.14
  Q 464.39 180.69 464.89 180.93
  C 467.20 182.06 469.67 181.67 471.97 182.15
  Q 474.76 182.73 477.90 182.45
  Q 479.50 182.31 479.50 183.91
  L 479.50 186.54
  Q 479.50 187.08 479.22 187.54
  Q 478.27 189.09 478.54 190.98
  A 0.69 0.67 -89.5 0 0 479.10 191.56
  L 483.57 192.37
  A 2.09 2.09 0.0 0 1 484.21 196.26
  C 481.43 197.80 480.61 204.79 483.19 206.46
  Z"
/>
<path fill="#725535" d="
  M 535.23 167.46
  L 535.37 171.79
  L 534.71 206.90
  A 1.18 1.17 -22.9 0 1 534.39 207.68
  L 529.76 212.58
  A 1.08 1.05 63.7 0 0 529.48 213.44
  Q 530.07 218.21 525.29 219.08
  L 525.22 207.12
  L 532.32 207.63
  A 1.47 1.47 0.0 0 0 533.88 205.91
  Q 533.25 202.41 533.42 199.30
  Q 533.91 190.28 533.82 181.26
  L 533.97 168.05
  L 535.23 167.46
  Z"
/>
<path fill="#c0997b" d="
  M 452.50 206.42
  L 169.26 203.73
  C 167.02 199.63 169.91 196.79 172.13 193.93
  Q 173.17 192.58 172.99 190.99
  C 171.93 181.77 179.55 178.80 187.10 177.40
  Q 187.21 177.38 187.25 177.49
  Q 187.29 177.62 187.33 177.75
  Q 187.34 177.78 187.38 177.77
  C 197.26 175.47 206.94 174.43 217.07 175.28
  C 220.12 175.54 223.24 174.72 226.00 174.81
  C 249.12 175.58 272.13 173.36 295.54 176.92
  C 306.94 178.64 314.84 179.48 325.42 178.73
  Q 334.43 178.09 340.61 178.05
  Q 348.44 178.01 356.26 177.69
  Q 359.12 177.57 359.74 180.08
  A 0.91 0.90 86.7 0 0 360.50 180.76
  Q 361.22 180.85 361.79 180.48
  Q 362.28 180.15 362.87 180.23
  C 372.28 181.47 380.28 182.35 387.66 177.73
  A 1.54 1.49 28.4 0 1 388.45 177.51
  C 391.58 177.56 394.29 176.87 397.40 177.15
  C 401.90 177.56 407.82 176.16 412.00 177.41
  Q 412.49 177.56 412.59 178.06
  Q 412.99 180.03 415.00 180.17
  Q 426.71 180.95 438.43 181.50
  A 1.10 1.08 -17.0 0 1 439.22 181.91
  C 442.06 185.57 446.18 183.63 449.43 186.43
  Q 449.96 186.89 449.27 186.87
  Q 439.36 186.65 429.52 186.27
  Q 427.28 186.18 425.77 188.27
  Q 425.44 188.74 425.75 189.22
  L 427.58 192.02
  A 1.37 1.33 -7.9 0 0 428.33 192.57
  Q 434.11 194.26 436.85 199.57
  A 1.30 1.25 -3.2 0 0 437.57 200.19
  C 441.66 201.61 444.39 198.47 448.70 201.67
  Q 449.09 201.96 449.57 201.99
  Q 450.93 202.08 451.62 203.19
  Q 451.90 203.63 451.61 204.07
  L 450.79 205.31
  Q 450.50 205.75 451.03 205.75
  L 456.50 205.75
  A 0.17 0.16 -47.1 0 1 456.51 206.08
  L 452.50 206.42
  Z"
/>
<ellipse fill="#593018" cx="0.00" cy="0.00" transform="translate(65.23,189.32) rotate(50.6)" rx="3.24" ry="3.07"/>
<ellipse fill="#725535" cx="0.00" cy="0.00" transform="translate(522.48,193.20) rotate(110.9)" rx="3.06" ry="2.69"/>
<path fill="#725535" d="
  M 60.58 202.87
  Q 60.16 260.03 59.65 316.98
  Q 59.62 319.77 58.58 322.38
  Q 45.99 354.07 33.54 385.75
  L 33.15 385.50
  Q 32.75 385.26 32.75 384.78
  L 33.56 202.75
  L 33.78 202.49
  A 0.59 0.57 -67.4 0 1 34.29 202.27
  Q 49.10 203.81 53.74 203.22
  Q 58.93 202.57 60.58 202.87
  Z"
/>
<path fill="#c0997b" d="
  M 558.48 235.71
  Q 559.55 235.73 559.32 238.22
  Q 559.24 239.08 559.50 238.28
  Q 559.54 238.14 559.52 237.93
  Q 559.49 237.68 559.71 237.54
  Q 560.53 237.05 560.99 237.78
  Q 561.33 238.31 561.96 238.31
  L 566.58 238.30
  Q 567.17 238.30 567.26 237.72
  Q 567.29 237.51 567.49 237.41
  A 0.17 0.17 0.0 0 1 567.73 237.60
  Q 567.67 237.90 568.01 237.99
  Q 568.52 238.13 568.49 237.61
  Q 568.46 237.19 568.86 237.26
  A 0.09 0.08 -86.4 0 1 568.93 237.35
  L 568.88 246.09
  Q 568.88 246.24 569.03 246.25
  Q 569.14 246.26 569.30 246.25
  L 568.70 391.83
  Q 568.70 392.24 568.29 392.33
  Q 561.76 393.69 557.75 392.04
  Q 558.34 367.69 558.26 343.81
  Q 558.22 332.58 558.32 323.81
  Q 558.83 279.81 558.48 235.71
  Z"
/>
</svg>
