<?xml version="1.0" encoding="UTF-8" standalone="no"?>
<!DOCTYPE svg PUBLIC "-//W3C//DTD SVG 1.1//EN" "http://www.w3.org/Graphics/SVG/1.1/DTD/svg11.dtd">
<svg xmlns="http://www.w3.org/2000/svg" version="1.1" viewBox="0.00 0.00 325.00 225.00">
<g stroke-width="2.00" fill="none" stroke-linecap="butt">
<path stroke="#7f7f7f" vector-effect="non-scaling-stroke" d="
  M 325.00 150.07
  Q 324.59 149.39 324.74 147.99"
/>
<path stroke="#3e433c" vector-effect="non-scaling-stroke" d="
  M 324.74 147.99
  L 324.68 140.25"
/>
<path stroke="#1b1b1c" vector-effect="non-scaling-stroke" d="
  M 324.68 140.25
  L 324.65 75.08"
/>
<path stroke="#3e433c" vector-effect="non-scaling-stroke" d="
  M 324.65 75.08
  L 324.45 51.20"
/>
<path stroke="#1b1b1c" vector-effect="non-scaling-stroke" d="
  M 324.45 51.20
  L 324.48 45.25"
/>
<path stroke="#0d0c0d" vector-effect="non-scaling-stroke" d="
  M 324.48 45.25
  L 324.58 41.13"
/>
<path stroke="#3e433c" vector-effect="non-scaling-stroke" d="
  M 324.58 41.13
  Q 325.19 37.44 324.32 35.30"
/>
<path stroke="#0d0c0d" vector-effect="non-scaling-stroke" d="
  M 324.32 35.30
  L 316.25 35.65"
/>
<path stroke="#3e433c" vector-effect="non-scaling-stroke" d="
  M 316.25 35.65
  L 128.25 35.29"
/>
<path stroke="#7f7f7f" vector-effect="non-scaling-stroke" d="
  M 128.25 35.29
  L 0.00 35.19"
/>
<path stroke="#bdc1bb" vector-effect="non-scaling-stroke" d="
  M 128.25 35.29
  L 115.25 35.79"
/>
<path stroke="#8c8b8b" vector-effect="non-scaling-stroke" d="
  M 115.25 35.79
  Q 60.23 35.93 5.21 35.95
  C 2.93 35.95 1.06 35.53 1.08 38.66
  C 1.09 41.10 0.91 43.54 0.83 45.83"
/>
<path stroke="#99999a" vector-effect="non-scaling-stroke" d="
  M 0.83 45.83
  L 0.81 74.41"
/>
<path stroke="#888485" vector-effect="non-scaling-stroke" d="
  M 0.81 74.41
  L 0.77 140.25"
/>
<path stroke="#99999a" vector-effect="non-scaling-stroke" d="
  M 0.77 140.25
  L 0.25 140.25"
/>
<path stroke="#7f7f7f" vector-effect="non-scaling-stroke" d="
  M 0.25 140.25
  L 0.24 91.75"
/>
<path stroke="#888485" vector-effect="non-scaling-stroke" d="
  M 0.24 91.75
  L 0.21 77.00"
/>
<path stroke="#7f7f7f" vector-effect="non-scaling-stroke" d="
  M 0.21 77.00
  L 0.00 38.18"
/>
<path stroke="#4b4f49" vector-effect="non-scaling-stroke" d="
  M 316.25 35.65
  L 115.25 35.79"
/>
<path stroke="#4b4f49" vector-effect="non-scaling-stroke" d="
  M 324.32 35.30
  L 324.58 41.13"
/>
<path stroke="#282728" vector-effect="non-scaling-stroke" d="
  M 324.48 45.25
  L 0.83 45.83"
/>
<path stroke="#0a0507" vector-effect="non-scaling-stroke" d="
  M 0.21 77.00
  Q 0.10 76.97 0.00 76.94"
/>
<path stroke="#595d58" vector-effect="non-scaling-stroke" d="
  M 324.45 51.20
  Q 324.17 60.64 323.96 70.00
  Q 323.90 72.59 324.65 75.08"
/>
<path stroke="#595d58" vector-effect="non-scaling-stroke" d="
  M 324.68 140.25
  L 324.15 140.31"
/>
<path stroke="#242022" vector-effect="non-scaling-stroke" d="
  M 324.15 140.31
  L 324.12 73.43
  A 0.43 0.43 0.0 0 0 323.29 73.28
  L 323.04 73.94
  Q 322.84 74.48 322.26 74.48
  L 0.81 74.41"
/>
<path stroke="#484843" vector-effect="non-scaling-stroke" d="
  M 324.15 140.31
  L 324.11 148.01"
/>
<path stroke="#888485" vector-effect="non-scaling-stroke" d="
  M 324.11 148.01
  L 323.87 170.81"
/>
<path stroke="#242022" vector-effect="non-scaling-stroke" d="
  M 323.87 170.81
  L 323.35 151.28
  Q 323.33 150.70 322.75 150.70
  L 293.74 150.80"
/>
<path stroke="#221d1f" vector-effect="non-scaling-stroke" d="
  M 293.74 150.80
  L 41.46 150.76"
/>
<path stroke="#242022" vector-effect="non-scaling-stroke" d="
  M 41.46 150.76
  L 2.95 150.72
  Q 0.80 150.72 0.79 148.57
  L 0.77 140.25"
/>
<path stroke="#888485" vector-effect="non-scaling-stroke" d="
  M 253.5385 104.2442
  A 7.19 7.19 0.0 0 0 246.3989 97.0042
  L 245.3189 96.9966
  A 7.19 7.19 0.0 0 0 238.0789 104.1362
  L 237.9615 120.9558
  A 7.19 7.19 0.0 0 0 245.1011 128.1958
  L 246.1811 128.2034
  A 7.19 7.19 0.0 0 0 253.4211 121.0638
  L 253.5385 104.2442"
/>
<path stroke="#888485" vector-effect="non-scaling-stroke" d="
  M 272.0194 104.1970
  A 7.17 7.17 0.0 0 0 264.8745 97.0020
  L 263.7545 96.9981
  A 7.17 7.17 0.0 0 0 256.5595 104.1431
  L 256.5006 121.0230
  A 7.17 7.17 0.0 0 0 263.6455 128.2180
  L 264.7655 128.2219
  A 7.17 7.17 0.0 0 0 271.9605 121.0769
  L 272.0194 104.1970"
/>
<path stroke="#888485" vector-effect="non-scaling-stroke" d="
  M 290.5442 104.1705
  A 7.14 7.14 0.0 0 0 283.4417 96.9933
  L 282.2817 96.9872
  A 7.14 7.14 0.0 0 0 275.1044 104.0897
  L 275.0158 121.0095
  A 7.14 7.14 0.0 0 0 282.1183 128.1867
  L 283.2783 128.1928
  A 7.14 7.14 0.0 0 0 290.4556 121.0903
  L 290.5442 104.1705"
/>
<path stroke="#888485" vector-effect="non-scaling-stroke" d="
  M 186.93 114.81
  Q 189.68 114.47 191.58 116.14
  Q 192.03 116.54 192.05 117.13
  L 192.33 126.99
  A 0.87 0.87 0.0 0 0 193.24 127.83
  L 196.50 127.72
  Q 196.91 127.70 196.90 127.28
  C 196.70 122.94 198.10 115.33 193.81 112.70
  A 0.39 0.39 0.0 0 1 193.82 112.02
  C 198.81 109.16 197.87 98.51 191.73 97.54
  Q 187.69 96.90 182.37 97.36
  Q 181.78 97.41 181.78 98.01
  L 181.74 127.24
  Q 181.74 127.74 182.24 127.74
  L 185.66 127.76
  Q 186.16 127.77 186.17 127.27
  L 186.47 115.32
  Q 186.49 114.87 186.93 114.81"
/>
<path stroke="#888485" vector-effect="non-scaling-stroke" d="
  M 205.00 105.50
  L 208.55 126.23
  A 2.25 2.24 -44.6 0 0 212.97 126.26
  L 216.94 104.98
  A 0.19 0.19 0.0 0 1 217.32 105.02
  L 216.95 127.10
  Q 216.94 127.75 217.60 127.75
  L 220.75 127.75
  Q 221.50 127.75 221.50 127.00
  L 221.50 97.87
  Q 221.50 97.24 220.87 97.25
  L 215.67 97.26
  Q 215.01 97.26 214.89 97.91
  L 211.24 118.71
  A 0.24 0.24 0.0 0 1 210.77 118.71
  L 207.29 97.81
  A 0.71 0.70 -5.6 0 0 206.57 97.22
  L 201.43 97.36
  Q 200.69 97.38 200.68 98.13
  L 200.43 127.21
  Q 200.42 127.75 200.96 127.75
  L 203.96 127.75
  Q 204.55 127.75 204.54 127.15
  Q 204.35 116.34 204.68 105.52
  Q 204.73 103.91 205.00 105.50"
/>
<path stroke="#888485" vector-effect="non-scaling-stroke" d="
  M 234.66 99.19
  Q 234.90 98.68 234.87 98.51
  A 1.96 1.90 54.5 0 0 231.26 97.85
  Q 229.46 101.44 225.13 100.98
  A 0.58 0.56 2.8 0 0 224.50 101.54
  L 224.50 103.97
  Q 224.50 104.69 225.21 104.65
  L 229.37 104.40
  Q 230.06 104.36 230.05 105.05
  L 229.68 127.23
  A 0.59 0.59 0.0 0 0 230.29 127.83
  L 234.03 127.71
  Q 234.49 127.70 234.49 127.25
  Q 234.52 113.54 234.50 99.85
  Q 234.50 99.52 234.66 99.19"
/>
<path stroke="#888485" vector-effect="non-scaling-stroke" d="
  M 32.86 109.18
  L 33.82 110.44
  A 0.35 0.34 17.7 0 0 34.43 110.13
  Q 32.94 105.47 28.83 102.71
  Q 28.30 102.36 28.32 103.00
  Q 28.39 106.94 31.84 108.38
  A 2.45 2.45 0.0 0 1 32.86 109.18"
/>
<path stroke="#888485" vector-effect="non-scaling-stroke" d="
  M 301.60 112.04
  A 0.34 0.34 0.0 0 1 300.98 112.03
  L 298.24 105.96
  A 0.34 0.34 0.0 0 0 297.93 105.76
  L 293.83 105.73
  A 0.34 0.34 0.0 0 0 293.52 106.22
  L 298.44 116.20
  A 0.34 0.34 0.0 0 1 298.44 116.50
  L 293.18 127.26
  A 0.34 0.34 0.0 0 0 293.48 127.75
  L 297.04 127.75
  A 0.34 0.34 0.0 0 0 297.35 127.55
  L 300.52 120.64
  A 0.34 0.34 0.0 0 1 301.14 120.65
  L 304.12 127.54
  A 0.34 0.34 0.0 0 0 304.43 127.75
  L 308.51 127.75
  A 0.34 0.34 0.0 0 0 308.82 127.27
  L 303.76 116.50
  A 0.34 0.34 0.0 0 1 303.76 116.20
  L 308.78 106.24
  A 0.34 0.34 0.0 0 0 308.48 105.75
  L 304.74 105.75
  A 0.34 0.34 0.0 0 0 304.43 105.95
  L 301.60 112.04"
/>
<path stroke="#888485" vector-effect="non-scaling-stroke" d="
  M 25.70 110.19
  L 26.79 109.52
  A 0.19 0.19 0.0 0 0 26.85 109.26
  L 26.63 108.89
  A 4.16 0.76 58.3 0 0 23.79 105.75
  L 23.67 105.82
  A 4.16 0.76 58.3 0 0 25.21 109.76
  L 25.44 110.13
  A 0.19 0.19 0.0 0 0 25.70 110.19"
/>
<path stroke="#888485" vector-effect="non-scaling-stroke" d="
  M 26.76 117.51
  L 27.07 112.91
  Q 27.10 112.38 26.68 112.04
  L 23.19 109.28
  A 0.37 0.36 12.2 0 0 22.61 109.65
  Q 23.73 114.00 22.84 118.42
  Q 22.82 118.55 22.59 118.46
  Q 22.31 118.35 22.38 118.06
  Q 23.56 113.07 18.74 111.94
  Q 18.15 111.80 18.32 112.38
  Q 19.93 118.03 16.67 122.64
  Q 16.14 123.39 16.98 123.00
  C 21.43 120.93 31.32 116.86 35.85 119.75
  Q 36.31 120.04 36.55 119.55
  C 38.93 114.72 30.29 108.88 27.26 106.67
  Q 26.47 106.10 26.87 106.99
  Q 29.21 112.20 27.00 117.56
  A 0.13 0.12 -32.7 0 1 26.76 117.51"
/>
<path stroke="#888485" vector-effect="non-scaling-stroke" d="
  M 46.84 114.83
  C 41.85 117.89 40.47 110.19 44.84 109.71
  Q 45.30 109.66 45.67 109.93
  Q 46.44 110.50 47.29 110.35
  A 0.46 0.46 0.0 0 0 47.57 109.60
  Q 46.23 108.01 44.74 108.25
  C 37.71 109.35 40.91 120.27 47.24 116.02
  Q 47.52 115.83 47.49 115.49
  L 47.47 115.15
  Q 47.41 114.48 46.84 114.83"
/>
<path stroke="#888485" vector-effect="non-scaling-stroke" d="
  M 81.54 115.06
  Q 84.65 113.90 85.98 116.54
  A 0.88 0.86 79.7 0 0 86.63 117.00
  Q 87.23 117.07 87.09 116.45
  Q 86.26 112.70 83.61 108.45
  A 0.52 0.51 41.0 0 0 82.70 108.51
  L 79.40 116.17
  A 0.46 0.45 -83.6 0 0 79.90 116.80
  Q 80.98 116.60 81.13 115.56
  Q 81.19 115.19 81.54 115.06"
/>
<path stroke="#888485" vector-effect="non-scaling-stroke" d="
  M 58.58 112.64
  A 4.20 4.20 0.0 0 0 54.38 108.44
  A 4.20 4.20 0.0 0 0 50.18 112.64
  A 4.20 4.20 0.0 0 0 54.38 116.84
  A 4.20 4.20 0.0 0 0 58.58 112.64"
/>
<path stroke="#888485" vector-effect="non-scaling-stroke" d="
  M 63.14 114.70
  A 1.05 1.05 0.0 0 1 65.07 114.41
  Q 65.85 115.76 67.10 116.84
  A 0.57 0.57 0.0 0 0 67.95 116.09
  L 66.63 114.13
  Q 66.27 113.59 66.83 113.26
  Q 68.02 112.58 68.16 111.17
  A 2.43 2.43 0.0 0 0 65.74 108.50
  L 62.25 108.50
  Q 61.75 108.50 61.75 109.00
  L 61.75 116.25
  Q 61.75 116.78 62.28 116.78
  Q 62.58 116.78 62.78 116.61
  Q 63.02 116.40 63.03 115.82
  Q 63.04 115.11 63.14 114.70"
/>
<path stroke="#888485" vector-effect="non-scaling-stroke" d="
  M 75.01 115.30
  Q 73.26 115.82 71.77 114.73
  A 0.49 0.48 27.6 0 0 71.02 114.96
  Q 70.84 115.52 71.33 115.90
  Q 74.17 118.08 76.08 116.12
  A 2.38 2.37 -57.3 0 0 75.24 112.25
  L 72.85 111.32
  A 0.56 0.56 0.0 0 1 72.71 110.36
  Q 74.20 109.18 75.75 110.35
  A 0.45 0.45 0.0 0 0 76.41 109.78
  C 74.78 106.77 69.75 109.22 71.36 111.86
  C 72.10 113.08 73.81 113.36 75.09 113.90
  A 0.74 0.74 0.0 0 1 75.01 115.30"
/>
<path stroke="#888485" vector-effect="non-scaling-stroke" d="
  M 91.7719 109.2426
  A 0.71 0.71 0.0 0 0 91.0644 108.5302
  L 90.9844 108.5299
  A 0.71 0.71 0.0 0 0 90.2719 109.2374
  L 90.2481 116.0574
  A 0.71 0.71 0.0 0 0 90.9556 116.7698
  L 91.0356 116.7701
  A 0.71 0.71 0.0 0 0 91.7481 116.0626
  L 91.7719 109.2426"
/>
<path stroke="#888485" vector-effect="non-scaling-stroke" d="
  M 100.53 113.35
  Q 102.77 111.63 100.96 109.01
  A 0.82 0.82 0.0 0 0 100.33 108.66
  L 96.13 108.44
  Q 95.41 108.40 95.39 109.12
  L 95.19 116.21
  A 0.53 0.53 0.0 0 0 95.72 116.75
  L 96.25 116.75
  Q 96.75 116.75 96.75 116.25
  L 96.75 114.98
  A 1.15 1.15 0.0 0 1 98.98 114.57
  Q 99.54 116.05 101.02 116.91
  A 0.42 0.42 0.0 0 0 101.59 116.34
  L 100.35 114.25
  A 0.70 0.68 -34.4 0 1 100.53 113.35"
/>
<path stroke="#888485" vector-effect="non-scaling-stroke" d="
  M 21.9481 112.2410
  A 2.03 0.81 55.9 0 0 21.4807 110.1059
  A 2.03 0.81 55.9 0 0 19.6719 108.8790
  A 2.03 0.81 55.9 0 0 20.1393 111.0141
  A 2.03 0.81 55.9 0 0 21.9481 112.2410"
/>
<path stroke="#0a0507" vector-effect="non-scaling-stroke" d="
  M 0.24 91.75
  Q 0.12 91.72 0.00 91.69"
/>
<path stroke="#1b1b1c" vector-effect="non-scaling-stroke" d="
  M 0.25 140.25
  L 0.26 156.46"
/>
<path stroke="#7f7f7f" vector-effect="non-scaling-stroke" d="
  M 0.26 156.46
  Q 0.31 157.37 0.00 157.19"
/>
<path stroke="#888485" vector-effect="non-scaling-stroke" d="
  M 248.75 104.17
  A 2.90 2.90 0.0 0 0 245.85 101.27
  L 245.65 101.27
  A 2.90 2.90 0.0 0 0 242.75 104.17
  L 242.75 120.89
  A 2.90 2.90 0.0 0 0 245.65 123.79
  L 245.85 123.79
  A 2.90 2.90 0.0 0 0 248.75 120.89
  L 248.75 104.17"
/>
<path stroke="#888485" vector-effect="non-scaling-stroke" d="
  M 267.2938 104.1658
  A 2.84 2.84 0.0 0 0 264.4687 101.3110
  L 264.1487 101.3093
  A 2.84 2.84 0.0 0 0 261.2939 104.1344
  L 261.2062 120.8942
  A 2.84 2.84 0.0 0 0 264.0313 123.7490
  L 264.3513 123.7507
  A 2.84 2.84 0.0 0 0 267.2061 120.9256
  L 267.2938 104.1658"
/>
<path stroke="#888485" vector-effect="non-scaling-stroke" d="
  M 285.8037 104.1758
  A 2.88 2.88 0.0 0 0 282.9389 101.2808
  L 282.6989 101.2795
  A 2.88 2.88 0.0 0 0 279.8038 104.1444
  L 279.7163 120.8642
  A 2.88 2.88 0.0 0 0 282.5811 123.7592
  L 282.8211 123.7605
  A 2.88 2.88 0.0 0 0 285.7162 120.8956
  L 285.8037 104.1758"
/>
<path stroke="#888485" vector-effect="non-scaling-stroke" d="
  M 186.49 101.99
  L 186.51 110.17
  A 0.29 0.29 0.0 0 0 186.80 110.46
  L 189.42 110.46
  A 2.76 2.59 89.9 0 0 192.00 107.70
  L 192.00 104.46
  A 2.76 2.59 89.9 0 0 189.40 101.70
  L 186.78 101.70
  A 0.29 0.29 0.0 0 0 186.49 101.99"
/>
<path stroke="#888485" vector-effect="non-scaling-stroke" d="
  M 82.94 111.44
  Q 81.94 112.23 82.32 113.08
  A 1.00 0.98 -66.9 0 0 84.15 112.32
  L 83.75 111.12
  Q 83.55 110.52 83.13 110.98
  Q 82.96 111.17 82.94 111.44"
/>
<path stroke="#888485" vector-effect="non-scaling-stroke" d="
  M 54.3750 115.4800
  A 2.86 2.63 90.3 0 0 57.0200 112.6338
  A 2.86 2.63 90.3 0 0 54.4050 109.7600
  A 2.86 2.63 90.3 0 0 51.7600 112.6062
  A 2.86 2.63 90.3 0 0 54.3750 115.4800"
/>
<path stroke="#888485" vector-effect="non-scaling-stroke" d="
  M 63.00 110.58
  L 63.11 112.15
  A 0.47 0.47 0.0 0 0 63.62 112.59
  L 64.95 112.49
  A 1.87 1.14 -4.2 0 0 66.73 111.21
  L 66.72 110.98
  A 1.87 1.14 -4.2 0 0 64.77 109.98
  L 63.43 110.07
  A 0.47 0.47 0.0 0 0 63.00 110.58"
/>
<path stroke="#7f7f7f" vector-effect="non-scaling-stroke" d="
  M 100.1904 110.9930
  A 1.00 1.00 0.0 0 0 99.1922 109.9913
  L 97.7122 109.9887
  A 1.00 1.00 0.0 0 0 96.7104 110.9870
  L 96.7096 111.4870
  A 1.00 1.00 0.0 0 0 97.7078 112.4887
  L 99.1878 112.4913
  A 1.00 1.00 0.0 0 0 100.1896 111.4930
  L 100.1904 110.9930"
/>
<path stroke="#333334" vector-effect="non-scaling-stroke" d="
  M 41.46 150.76
  C 38.68 154.37 33.18 153.49 32.39 159.92
  Q 32.32 160.50 31.74 160.50
  L 30.45 160.50
  A 0.94 0.92 -79.3 0 0 29.59 161.10
  C 28.50 163.99 25.79 166.00 24.22 168.46
  C 23.05 170.29 22.61 173.09 20.89 175.32
  A 1.40 1.39 -79.6 0 1 20.20 175.80
  Q 11.14 178.45 1.93 176.27
  Q 1.49 176.16 1.35 176.59
  L 0.75 178.53"
/>
<path stroke="#99999a" vector-effect="non-scaling-stroke" d="
  M 0.75 178.53
  Q 0.94 168.35 1.25 158.25
  Q 1.30 156.58 0.26 156.46"
/>
<path stroke="#bdc1bb" vector-effect="non-scaling-stroke" d="
  M 324.74 147.99
  L 324.11 148.01"
/>
<path stroke="#7f7f7f" vector-effect="non-scaling-stroke" d="
  M 325.00 150.31
  L 324.61 175.10"
/>
<path stroke="#99999a" vector-effect="non-scaling-stroke" d="
  M 324.61 175.10
  Q 323.70 173.37 323.87 170.81"
/>
<path stroke="#7f7f7f" vector-effect="non-scaling-stroke" d="
  M 325.00 187.31
  L 324.71 180.50"
/>
<path stroke="#1b1b1c" vector-effect="non-scaling-stroke" d="
  M 324.71 180.50
  L 324.61 175.10"
/>
<path stroke="#333334" vector-effect="non-scaling-stroke" d="
  M 293.74 150.80
  Q 293.97 150.95 294.36 151.01
  Q 294.95 151.09 294.86 151.68
  Q 294.23 155.83 297.64 158.36
  A 1.50 1.50 0.0 0 1 298.21 159.18
  Q 300.33 166.70 307.19 170.35
  Q 307.69 170.61 307.79 171.17
  Q 308.64 176.02 314.67 178.13"
/>
<path stroke="#252425" vector-effect="non-scaling-stroke" d="
  M 314.67 178.13
  L 293.50 178.32"
/>
<path stroke="#221d1f" vector-effect="non-scaling-stroke" d="
  M 293.50 178.32
  Q 215.15 179.06 136.80 178.58
  Q 130.20 178.54 116.83 178.88
  C 104.71 179.20 90.45 178.71 80.48 178.65
  C 64.33 178.57 46.58 177.96 29.80 178.80
  Q 19.76 179.30 9.72 179.57
  Q 9.19 179.59 8.72 179.81
  Q 6.70 180.78 4.76 179.65
  A 1.38 1.37 17.7 0 0 2.69 180.71
  L 2.37 184.32
  A 0.18 0.18 0.0 0 1 2.04 184.39
  Q 1.96 184.24 1.75 184.38
  Q 1.50 184.55 1.50 184.24
  L 1.50 181.99
  A 0.22 0.22 0.0 0 0 1.06 181.96
  L 0.85 183.45"
/>
<path stroke="#979797" vector-effect="non-scaling-stroke" d="
  M 0.85 183.45
  L 0.75 178.53"
/>
<path stroke="#99999a" vector-effect="non-scaling-stroke" d="
  M 324.71 180.50
  Q 324.22 180.39 324.10 181.46"
/>
<path stroke="#282728" vector-effect="non-scaling-stroke" d="
  M 324.10 181.46
  L 324.00 178.71
  A 1.09 1.08 66.4 0 0 322.15 177.98
  L 321.90 178.23
  Q 321.56 178.56 321.09 178.53
  L 314.67 178.13"
/>
<path stroke="#888485" vector-effect="non-scaling-stroke" d="
  M 0.85 183.45
  Q 0.33 188.40 2.19 189.27"
/>
<path stroke="#bdc1bb" vector-effect="non-scaling-stroke" d="
  M 2.19 189.27
  Q 2.20 189.51 2.21 189.75"
/>
<path stroke="#7f7f7f" vector-effect="non-scaling-stroke" d="
  M 2.21 189.75
  Q 0.77 190.32 0.00 189.70"
/>
<path stroke="#7f7f7f" vector-effect="non-scaling-stroke" d="
  M 0.00 185.47
  L 0.00 171.68"
/>
<path stroke="#8c8b8b" vector-effect="non-scaling-stroke" d="
  M 324.10 181.46
  Q 325.01 186.67 322.65 189.67"
/>
<path stroke="#0d0c0d" vector-effect="non-scaling-stroke" d="
  M 322.65 189.67
  Q 320.34 190.09 318.53 189.53"
/>
<path stroke="#282728" vector-effect="non-scaling-stroke" d="
  M 318.53 189.53
  L 280.96 189.04"
/>
<path stroke="#171113" vector-effect="non-scaling-stroke" d="
  M 280.96 189.04
  Q 281.62 187.96 280.14 186.99
  Q 279.74 186.72 280.18 186.53
  Q 284.70 184.62 289.51 184.59
  C 292.21 184.57 294.29 183.98 294.70 181.16
  Q 294.77 180.71 294.32 180.64
  L 293.17 180.47
  A 0.80 0.80 0.0 0 1 292.50 179.68
  L 292.50 179.01
  Q 292.50 178.58 292.93 178.54
  Q 293.36 178.50 293.50 178.32"
/>
<path stroke="#242022" vector-effect="non-scaling-stroke" d="
  M 280.96 189.04
  L 223.25 189.25"
/>
<path stroke="#484843" vector-effect="non-scaling-stroke" d="
  M 223.25 189.25
  L 2.19 189.27"
/>
<path stroke="#7f7f7f" vector-effect="non-scaling-stroke" d="
  M 325.00 190.04
  Q 323.59 190.08 322.65 189.67"
/>
<path stroke="#595d58" vector-effect="non-scaling-stroke" d="
  M 223.25 189.25
  L 223.25 189.73"
/>
<path stroke="#3e433c" vector-effect="non-scaling-stroke" d="
  M 223.25 189.73
  L 2.21 189.75"
/>
<path stroke="#1b1b1c" vector-effect="non-scaling-stroke" d="
  M 318.53 189.53
  L 223.25 189.73"
/>
</g>
<path fill="#000000" d="
  M 0.00 0.00
  L 325.00 0.00
  L 325.00 150.07
  Q 324.59 149.39 324.74 147.99
  L 324.68 140.25
  L 324.65 75.08
  L 324.45 51.20
  L 324.48 45.25
  L 324.58 41.13
  Q 325.19 37.44 324.32 35.30
  L 316.25 35.65
  L 128.25 35.29
  L 0.00 35.19
  L 0.00 0.00
  Z"
/>
<path fill="#fdfdfd" d="
  M 128.25 35.29
  L 115.25 35.79
  Q 60.23 35.93 5.21 35.95
  C 2.93 35.95 1.06 35.53 1.08 38.66
  C 1.09 41.10 0.91 43.54 0.83 45.83
  L 0.81 74.41
  L 0.77 140.25
  L 0.25 140.25
  L 0.24 91.75
  L 0.21 77.00
  L 0.00 38.18
  L 0.00 35.19
  L 128.25 35.29
  Z"
/>
<path fill="#7c8578" d="
  M 316.25 35.65
  L 115.25 35.79
  L 128.25 35.29
  L 316.25 35.65
  Z"
/>
<path fill="#1a1819" d="
  M 324.32 35.30
  L 324.58 41.13
  L 324.48 45.25
  L 0.83 45.83
  C 0.91 43.54 1.09 41.10 1.08 38.66
  C 1.06 35.53 2.93 35.95 5.21 35.95
  Q 60.23 35.93 115.25 35.79
  L 316.25 35.65
  L 324.32 35.30
  Z"
/>
<path fill="#7c8578" d="
  M 324.32 35.30
  Q 325.19 37.44 324.58 41.13
  L 324.32 35.30
  Z"
/>
<path fill="#000000" d="
  M 0.00 38.18
  L 0.21 77.00
  Q 0.10 76.97 0.00 76.94
  L 0.00 38.18
  Z"
/>
<path fill="#353537" d="
  M 324.48 45.25
  L 324.45 51.20
  Q 324.17 60.64 323.96 70.00
  Q 323.90 72.59 324.65 75.08
  L 324.68 140.25
  L 324.15 140.31
  L 324.12 73.43
  A 0.43 0.43 0.0 0 0 323.29 73.28
  L 323.04 73.94
  Q 322.84 74.48 322.26 74.48
  L 0.81 74.41
  L 0.83 45.83
  L 324.48 45.25
  Z"
/>
<path fill="#7c8578" d="
  M 324.45 51.20
  L 324.65 75.08
  Q 323.90 72.59 323.96 70.00
  Q 324.17 60.64 324.45 51.20
  Z"
/>
<path fill="#130a0d" d="
  M 324.15 140.31
  L 324.11 148.01
  L 323.87 170.81
  L 323.35 151.28
  Q 323.33 150.70 322.75 150.70
  L 293.74 150.80
  L 41.46 150.76
  L 2.95 150.72
  Q 0.80 150.72 0.79 148.57
  L 0.77 140.25
  L 0.81 74.41
  L 322.26 74.48
  Q 322.84 74.48 323.04 73.94
  L 323.29 73.28
  A 0.43 0.43 0.0 0 1 324.12 73.43
  L 324.15 140.31
  Z
  M 253.5385 104.2442
  A 7.19 7.19 0.0 0 0 246.3989 97.0042
  L 245.3189 96.9966
  A 7.19 7.19 0.0 0 0 238.0789 104.1362
  L 237.9615 120.9558
  A 7.19 7.19 0.0 0 0 245.1011 128.1958
  L 246.1811 128.2034
  A 7.19 7.19 0.0 0 0 253.4211 121.0638
  L 253.5385 104.2442
  Z
  M 272.0194 104.1970
  A 7.17 7.17 0.0 0 0 264.8745 97.0020
  L 263.7545 96.9981
  A 7.17 7.17 0.0 0 0 256.5595 104.1431
  L 256.5006 121.0230
  A 7.17 7.17 0.0 0 0 263.6455 128.2180
  L 264.7655 128.2219
  A 7.17 7.17 0.0 0 0 271.9605 121.0769
  L 272.0194 104.1970
  Z
  M 290.5442 104.1705
  A 7.14 7.14 0.0 0 0 283.4417 96.9933
  L 282.2817 96.9872
  A 7.14 7.14 0.0 0 0 275.1044 104.0897
  L 275.0158 121.0095
  A 7.14 7.14 0.0 0 0 282.1183 128.1867
  L 283.2783 128.1928
  A 7.14 7.14 0.0 0 0 290.4556 121.0903
  L 290.5442 104.1705
  Z
  M 186.93 114.81
  Q 189.68 114.47 191.58 116.14
  Q 192.03 116.54 192.05 117.13
  L 192.33 126.99
  A 0.87 0.87 0.0 0 0 193.24 127.83
  L 196.50 127.72
  Q 196.91 127.70 196.90 127.28
  C 196.70 122.94 198.10 115.33 193.81 112.70
  A 0.39 0.39 0.0 0 1 193.82 112.02
  C 198.81 109.16 197.87 98.51 191.73 97.54
  Q 187.69 96.90 182.37 97.36
  Q 181.78 97.41 181.78 98.01
  L 181.74 127.24
  Q 181.74 127.74 182.24 127.74
  L 185.66 127.76
  Q 186.16 127.77 186.17 127.27
  L 186.47 115.32
  Q 186.49 114.87 186.93 114.81
  Z
  M 205.00 105.50
  L 208.55 126.23
  A 2.25 2.24 -44.6 0 0 212.97 126.26
  L 216.94 104.98
  A 0.19 0.19 0.0 0 1 217.32 105.02
  L 216.95 127.10
  Q 216.94 127.75 217.60 127.75
  L 220.75 127.75
  Q 221.50 127.75 221.50 127.00
  L 221.50 97.87
  Q 221.50 97.24 220.87 97.25
  L 215.67 97.26
  Q 215.01 97.26 214.89 97.91
  L 211.24 118.71
  A 0.24 0.24 0.0 0 1 210.77 118.71
  L 207.29 97.81
  A 0.71 0.70 -5.6 0 0 206.57 97.22
  L 201.43 97.36
  Q 200.69 97.38 200.68 98.13
  L 200.43 127.21
  Q 200.42 127.75 200.96 127.75
  L 203.96 127.75
  Q 204.55 127.75 204.54 127.15
  Q 204.35 116.34 204.68 105.52
  Q 204.73 103.91 205.00 105.50
  Z
  M 234.66 99.19
  Q 234.90 98.68 234.87 98.51
  A 1.96 1.90 54.5 0 0 231.26 97.85
  Q 229.46 101.44 225.13 100.98
  A 0.58 0.56 2.8 0 0 224.50 101.54
  L 224.50 103.97
  Q 224.50 104.69 225.21 104.65
  L 229.37 104.40
  Q 230.06 104.36 230.05 105.05
  L 229.68 127.23
  A 0.59 0.59 0.0 0 0 230.29 127.83
  L 234.03 127.71
  Q 234.49 127.70 234.49 127.25
  Q 234.52 113.54 234.50 99.85
  Q 234.50 99.52 234.66 99.19
  Z
  M 32.86 109.18
  L 33.82 110.44
  A 0.35 0.34 17.7 0 0 34.43 110.13
  Q 32.94 105.47 28.83 102.71
  Q 28.30 102.36 28.32 103.00
  Q 28.39 106.94 31.84 108.38
  A 2.45 2.45 0.0 0 1 32.86 109.18
  Z
  M 301.60 112.04
  A 0.34 0.34 0.0 0 1 300.98 112.03
  L 298.24 105.96
  A 0.34 0.34 0.0 0 0 297.93 105.76
  L 293.83 105.73
  A 0.34 0.34 0.0 0 0 293.52 106.22
  L 298.44 116.20
  A 0.34 0.34 0.0 0 1 298.44 116.50
  L 293.18 127.26
  A 0.34 0.34 0.0 0 0 293.48 127.75
  L 297.04 127.75
  A 0.34 0.34 0.0 0 0 297.35 127.55
  L 300.52 120.64
  A 0.34 0.34 0.0 0 1 301.14 120.65
  L 304.12 127.54
  A 0.34 0.34 0.0 0 0 304.43 127.75
  L 308.51 127.75
  A 0.34 0.34 0.0 0 0 308.82 127.27
  L 303.76 116.50
  A 0.34 0.34 0.0 0 1 303.76 116.20
  L 308.78 106.24
  A 0.34 0.34 0.0 0 0 308.48 105.75
  L 304.74 105.75
  A 0.34 0.34 0.0 0 0 304.43 105.95
  L 301.60 112.04
  Z
  M 25.70 110.19
  L 26.79 109.52
  A 0.19 0.19 0.0 0 0 26.85 109.26
  L 26.63 108.89
  A 4.16 0.76 58.3 0 0 23.79 105.75
  L 23.67 105.82
  A 4.16 0.76 58.3 0 0 25.21 109.76
  L 25.44 110.13
  A 0.19 0.19 0.0 0 0 25.70 110.19
  Z
  M 26.76 117.51
  L 27.07 112.91
  Q 27.10 112.38 26.68 112.04
  L 23.19 109.28
  A 0.37 0.36 12.2 0 0 22.61 109.65
  Q 23.73 114.00 22.84 118.42
  Q 22.82 118.55 22.59 118.46
  Q 22.31 118.35 22.38 118.06
  Q 23.56 113.07 18.74 111.94
  Q 18.15 111.80 18.32 112.38
  Q 19.93 118.03 16.67 122.64
  Q 16.14 123.39 16.98 123.00
  C 21.43 120.93 31.32 116.86 35.85 119.75
  Q 36.31 120.04 36.55 119.55
  C 38.93 114.72 30.29 108.88 27.26 106.67
  Q 26.47 106.10 26.87 106.99
  Q 29.21 112.20 27.00 117.56
  A 0.13 0.12 -32.7 0 1 26.76 117.51
  Z
  M 46.84 114.83
  C 41.85 117.89 40.47 110.19 44.84 109.71
  Q 45.30 109.66 45.67 109.93
  Q 46.44 110.50 47.29 110.35
  A 0.46 0.46 0.0 0 0 47.57 109.60
  Q 46.23 108.01 44.74 108.25
  C 37.71 109.35 40.91 120.27 47.24 116.02
  Q 47.52 115.83 47.49 115.49
  L 47.47 115.15
  Q 47.41 114.48 46.84 114.83
  Z
  M 81.54 115.06
  Q 84.65 113.90 85.98 116.54
  A 0.88 0.86 79.7 0 0 86.63 117.00
  Q 87.23 117.07 87.09 116.45
  Q 86.26 112.70 83.61 108.45
  A 0.52 0.51 41.0 0 0 82.70 108.51
  L 79.40 116.17
  A 0.46 0.45 -83.6 0 0 79.90 116.80
  Q 80.98 116.60 81.13 115.56
  Q 81.19 115.19 81.54 115.06
  Z
  M 58.58 112.64
  A 4.20 4.20 0.0 0 0 54.38 108.44
  A 4.20 4.20 0.0 0 0 50.18 112.64
  A 4.20 4.20 0.0 0 0 54.38 116.84
  A 4.20 4.20 0.0 0 0 58.58 112.64
  Z
  M 63.14 114.70
  A 1.05 1.05 0.0 0 1 65.07 114.41
  Q 65.85 115.76 67.10 116.84
  A 0.57 0.57 0.0 0 0 67.95 116.09
  L 66.63 114.13
  Q 66.27 113.59 66.83 113.26
  Q 68.02 112.58 68.16 111.17
  A 2.43 2.43 0.0 0 0 65.74 108.50
  L 62.25 108.50
  Q 61.75 108.50 61.75 109.00
  L 61.75 116.25
  Q 61.75 116.78 62.28 116.78
  Q 62.58 116.78 62.78 116.61
  Q 63.02 116.40 63.03 115.82
  Q 63.04 115.11 63.14 114.70
  Z
  M 75.01 115.30
  Q 73.26 115.82 71.77 114.73
  A 0.49 0.48 27.6 0 0 71.02 114.96
  Q 70.84 115.52 71.33 115.90
  Q 74.17 118.08 76.08 116.12
  A 2.38 2.37 -57.3 0 0 75.24 112.25
  L 72.85 111.32
  A 0.56 0.56 0.0 0 1 72.71 110.36
  Q 74.20 109.18 75.75 110.35
  A 0.45 0.45 0.0 0 0 76.41 109.78
  C 74.78 106.77 69.75 109.22 71.36 111.86
  C 72.10 113.08 73.81 113.36 75.09 113.90
  A 0.74 0.74 0.0 0 1 75.01 115.30
  Z
  M 91.7719 109.2426
  A 0.71 0.71 0.0 0 0 91.0644 108.5302
  L 90.9844 108.5299
  A 0.71 0.71 0.0 0 0 90.2719 109.2374
  L 90.2481 116.0574
  A 0.71 0.71 0.0 0 0 90.9556 116.7698
  L 91.0356 116.7701
  A 0.71 0.71 0.0 0 0 91.7481 116.0626
  L 91.7719 109.2426
  Z
  M 100.53 113.35
  Q 102.77 111.63 100.96 109.01
  A 0.82 0.82 0.0 0 0 100.33 108.66
  L 96.13 108.44
  Q 95.41 108.40 95.39 109.12
  L 95.19 116.21
  A 0.53 0.53 0.0 0 0 95.72 116.75
  L 96.25 116.75
  Q 96.75 116.75 96.75 116.25
  L 96.75 114.98
  A 1.15 1.15 0.0 0 1 98.98 114.57
  Q 99.54 116.05 101.02 116.91
  A 0.42 0.42 0.0 0 0 101.59 116.34
  L 100.35 114.25
  A 0.70 0.68 -34.4 0 1 100.53 113.35
  Z
  M 21.9481 112.2410
  A 2.03 0.81 55.9 0 0 21.4807 110.1059
  A 2.03 0.81 55.9 0 0 19.6719 108.8790
  A 2.03 0.81 55.9 0 0 20.1393 111.0141
  A 2.03 0.81 55.9 0 0 21.9481 112.2410
  Z"
/>
<path fill="#130a0d" d="
  M 0.00 76.94
  Q 0.10 76.97 0.21 77.00
  L 0.24 91.75
  Q 0.12 91.72 0.00 91.69
  L 0.00 76.94
  Z"
/>
<path fill="#000000" d="
  M 0.00 91.69
  Q 0.12 91.72 0.24 91.75
  L 0.25 140.25
  L 0.26 156.46
  Q 0.31 157.37 0.00 157.19
  L 0.00 91.69
  Z"
/>
<path fill="#fdfdfd" d="
  M 253.4211 121.0638
  A 7.19 7.19 0.0 0 1 246.1811 128.2034
  L 245.1011 128.1958
  A 7.19 7.19 0.0 0 1 237.9615 120.9558
  L 238.0789 104.1362
  A 7.19 7.19 0.0 0 1 245.3189 96.9966
  L 246.3989 97.0042
  A 7.19 7.19 0.0 0 1 253.5385 104.2442
  L 253.4211 121.0638
  Z
  M 248.75 104.17
  A 2.90 2.90 0.0 0 0 245.85 101.27
  L 245.65 101.27
  A 2.90 2.90 0.0 0 0 242.75 104.17
  L 242.75 120.89
  A 2.90 2.90 0.0 0 0 245.65 123.79
  L 245.85 123.79
  A 2.90 2.90 0.0 0 0 248.75 120.89
  L 248.75 104.17
  Z"
/>
<path fill="#fdfdfd" d="
  M 271.9605 121.0769
  A 7.17 7.17 0.0 0 1 264.7655 128.2219
  L 263.6455 128.2180
  A 7.17 7.17 0.0 0 1 256.5006 121.0230
  L 256.5595 104.1431
  A 7.17 7.17 0.0 0 1 263.7545 96.9981
  L 264.8745 97.0020
  A 7.17 7.17 0.0 0 1 272.0194 104.1970
  L 271.9605 121.0769
  Z
  M 267.2938 104.1658
  A 2.84 2.84 0.0 0 0 264.4687 101.3110
  L 264.1487 101.3093
  A 2.84 2.84 0.0 0 0 261.2939 104.1344
  L 261.2062 120.8942
  A 2.84 2.84 0.0 0 0 264.0313 123.7490
  L 264.3513 123.7507
  A 2.84 2.84 0.0 0 0 267.2061 120.9256
  L 267.2938 104.1658
  Z"
/>
<path fill="#fdfdfd" d="
  M 290.4556 121.0903
  A 7.14 7.14 0.0 0 1 283.2783 128.1928
  L 282.1183 128.1867
  A 7.14 7.14 0.0 0 1 275.0158 121.0095
  L 275.1044 104.0897
  A 7.14 7.14 0.0 0 1 282.2817 96.9872
  L 283.4417 96.9933
  A 7.14 7.14 0.0 0 1 290.5442 104.1705
  L 290.4556 121.0903
  Z
  M 285.8037 104.1758
  A 2.88 2.88 0.0 0 0 282.9389 101.2808
  L 282.6989 101.2795
  A 2.88 2.88 0.0 0 0 279.8038 104.1444
  L 279.7163 120.8642
  A 2.88 2.88 0.0 0 0 282.5811 123.7592
  L 282.8211 123.7605
  A 2.88 2.88 0.0 0 0 285.7162 120.8956
  L 285.8037 104.1758
  Z"
/>
<path fill="#fdfdfd" d="
  M 186.47 115.32
  L 186.17 127.27
  Q 186.16 127.77 185.66 127.76
  L 182.24 127.74
  Q 181.74 127.74 181.74 127.24
  L 181.78 98.01
  Q 181.78 97.41 182.37 97.36
  Q 187.69 96.90 191.73 97.54
  C 197.87 98.51 198.81 109.16 193.82 112.02
  A 0.39 0.39 0.0 0 0 193.81 112.70
  C 198.10 115.33 196.70 122.94 196.90 127.28
  Q 196.91 127.70 196.50 127.72
  L 193.24 127.83
  A 0.87 0.87 0.0 0 1 192.33 126.99
  L 192.05 117.13
  Q 192.03 116.54 191.58 116.14
  Q 189.68 114.47 186.93 114.81
  Q 186.49 114.87 186.47 115.32
  Z
  M 186.49 101.99
  L 186.51 110.17
  A 0.29 0.29 0.0 0 0 186.80 110.46
  L 189.42 110.46
  A 2.76 2.59 89.9 0 0 192.00 107.70
  L 192.00 104.46
  A 2.76 2.59 89.9 0 0 189.40 101.70
  L 186.78 101.70
  A 0.29 0.29 0.0 0 0 186.49 101.99
  Z"
/>
<path fill="#fdfdfd" d="
  M 204.68 105.52
  Q 204.35 116.34 204.54 127.15
  Q 204.55 127.75 203.96 127.75
  L 200.96 127.75
  Q 200.42 127.75 200.43 127.21
  L 200.68 98.13
  Q 200.69 97.38 201.43 97.36
  L 206.57 97.22
  A 0.71 0.70 -5.6 0 1 207.29 97.81
  L 210.77 118.71
  A 0.24 0.24 0.0 0 0 211.24 118.71
  L 214.89 97.91
  Q 215.01 97.26 215.67 97.26
  L 220.87 97.25
  Q 221.50 97.24 221.50 97.87
  L 221.50 127.00
  Q 221.50 127.75 220.75 127.75
  L 217.60 127.75
  Q 216.94 127.75 216.95 127.10
  L 217.32 105.02
  A 0.19 0.19 0.0 0 0 216.94 104.98
  L 212.97 126.26
  A 2.25 2.24 -44.6 0 1 208.55 126.23
  L 205.00 105.50
  Q 204.73 103.91 204.68 105.52
  Z"
/>
<path fill="#fdfdfd" d="
  M 234.50 99.85
  Q 234.52 113.54 234.49 127.25
  Q 234.49 127.70 234.03 127.71
  L 230.29 127.83
  A 0.59 0.59 0.0 0 1 229.68 127.23
  L 230.05 105.05
  Q 230.06 104.36 229.37 104.40
  L 225.21 104.65
  Q 224.50 104.69 224.50 103.97
  L 224.50 101.54
  A 0.58 0.56 2.8 0 1 225.13 100.98
  Q 229.46 101.44 231.26 97.85
  A 1.96 1.90 54.5 0 1 234.87 98.51
  Q 234.90 98.68 234.66 99.19
  Q 234.50 99.52 234.50 99.85
  Z"
/>
<rect fill="#130a0d" x="242.75" y="101.27" width="6.00" height="22.52" rx="2.90"/>
<rect fill="#130a0d" x="-3.00" y="-11.22" transform="translate(264.25,112.53) rotate(0.3)" width="6.00" height="22.44" rx="2.84"/>
<rect fill="#130a0d" x="-3.00" y="-11.24" transform="translate(282.76,112.52) rotate(0.3)" width="6.00" height="22.48" rx="2.88"/>
<path fill="#130a0d" d="
  M 186.49 101.99
  A 0.29 0.29 0.0 0 1 186.78 101.70
  L 189.40 101.70
  A 2.76 2.59 89.9 0 1 192.00 104.46
  L 192.00 107.70
  A 2.76 2.59 89.9 0 1 189.42 110.46
  L 186.80 110.46
  A 0.29 0.29 0.0 0 1 186.51 110.17
  L 186.49 101.99
  Z"
/>
<path fill="#fdfdfd" d="
  M 31.84 108.38
  Q 28.39 106.94 28.32 103.00
  Q 28.30 102.36 28.83 102.71
  Q 32.94 105.47 34.43 110.13
  A 0.35 0.34 17.7 0 1 33.82 110.44
  L 32.86 109.18
  A 2.45 2.45 0.0 0 0 31.84 108.38
  Z"
/>
<path fill="#fdfdfd" d="
  M 301.60 112.04
  L 304.43 105.95
  A 0.34 0.34 0.0 0 1 304.74 105.75
  L 308.48 105.75
  A 0.34 0.34 0.0 0 1 308.78 106.24
  L 303.76 116.20
  A 0.34 0.34 0.0 0 0 303.76 116.50
  L 308.82 127.27
  A 0.34 0.34 0.0 0 1 308.51 127.75
  L 304.43 127.75
  A 0.34 0.34 0.0 0 1 304.12 127.54
  L 301.14 120.65
  A 0.34 0.34 0.0 0 0 300.52 120.64
  L 297.35 127.55
  A 0.34 0.34 0.0 0 1 297.04 127.75
  L 293.48 127.75
  A 0.34 0.34 0.0 0 1 293.18 127.26
  L 298.44 116.50
  A 0.34 0.34 0.0 0 0 298.44 116.20
  L 293.52 106.22
  A 0.34 0.34 0.0 0 1 293.83 105.73
  L 297.93 105.76
  A 0.34 0.34 0.0 0 1 298.24 105.96
  L 300.98 112.03
  A 0.34 0.34 0.0 0 0 301.60 112.04
  Z"
/>
<path fill="#fdfdfd" d="
  M 25.70 110.19
  A 0.19 0.19 0.0 0 1 25.44 110.13
  L 25.21 109.76
  A 4.16 0.76 58.3 0 1 23.67 105.82
  L 23.79 105.75
  A 4.16 0.76 58.3 0 1 26.63 108.89
  L 26.85 109.26
  A 0.19 0.19 0.0 0 1 26.79 109.52
  L 25.70 110.19
  Z"
/>
<path fill="#fdfdfd" d="
  M 27.00 117.56
  Q 29.21 112.20 26.87 106.99
  Q 26.47 106.10 27.26 106.67
  C 30.29 108.88 38.93 114.72 36.55 119.55
  Q 36.31 120.04 35.85 119.75
  C 31.32 116.86 21.43 120.93 16.98 123.00
  Q 16.14 123.39 16.67 122.64
  Q 19.93 118.03 18.32 112.38
  Q 18.15 111.80 18.74 111.94
  Q 23.56 113.07 22.38 118.06
  Q 22.31 118.35 22.59 118.46
  Q 22.82 118.55 22.84 118.42
  Q 23.73 114.00 22.61 109.65
  A 0.37 0.36 12.2 0 1 23.19 109.28
  L 26.68 112.04
  Q 27.10 112.38 27.07 112.91
  L 26.76 117.51
  A 0.13 0.12 -32.7 0 0 27.00 117.56
  Z"
/>
<path fill="#fdfdfd" d="
  M 44.84 109.71
  C 40.47 110.19 41.85 117.89 46.84 114.83
  Q 47.41 114.48 47.47 115.15
  L 47.49 115.49
  Q 47.52 115.83 47.24 116.02
  C 40.91 120.27 37.71 109.35 44.74 108.25
  Q 46.23 108.01 47.57 109.60
  A 0.46 0.46 0.0 0 1 47.29 110.35
  Q 46.44 110.50 45.67 109.93
  Q 45.30 109.66 44.84 109.71
  Z"
/>
<path fill="#fdfdfd" d="
  M 81.13 115.56
  Q 80.98 116.60 79.90 116.80
  A 0.46 0.45 -83.6 0 1 79.40 116.17
  L 82.70 108.51
  A 0.52 0.51 41.0 0 1 83.61 108.45
  Q 86.26 112.70 87.09 116.45
  Q 87.23 117.07 86.63 117.00
  A 0.88 0.86 79.7 0 1 85.98 116.54
  Q 84.65 113.90 81.54 115.06
  Q 81.19 115.19 81.13 115.56
  Z
  M 82.94 111.44
  Q 81.94 112.23 82.32 113.08
  A 1.00 0.98 -66.9 0 0 84.15 112.32
  L 83.75 111.12
  Q 83.55 110.52 83.13 110.98
  Q 82.96 111.17 82.94 111.44
  Z"
/>
<path fill="#fdfdfd" d="
  M 58.58 112.64
  A 4.20 4.20 0.0 0 1 54.38 116.84
  A 4.20 4.20 0.0 0 1 50.18 112.64
  A 4.20 4.20 0.0 0 1 54.38 108.44
  A 4.20 4.20 0.0 0 1 58.58 112.64
  Z
  M 54.3750 115.4800
  A 2.86 2.63 90.3 0 0 57.0200 112.6338
  A 2.86 2.63 90.3 0 0 54.4050 109.7600
  A 2.86 2.63 90.3 0 0 51.7600 112.6062
  A 2.86 2.63 90.3 0 0 54.3750 115.4800
  Z"
/>
<path fill="#fdfdfd" d="
  M 63.14 114.70
  Q 63.04 115.11 63.03 115.82
  Q 63.02 116.40 62.78 116.61
  Q 62.58 116.78 62.28 116.78
  Q 61.75 116.78 61.75 116.25
  L 61.75 109.00
  Q 61.75 108.50 62.25 108.50
  L 65.74 108.50
  A 2.43 2.43 0.0 0 1 68.16 111.17
  Q 68.02 112.58 66.83 113.26
  Q 66.27 113.59 66.63 114.13
  L 67.95 116.09
  A 0.57 0.57 0.0 0 1 67.10 116.84
  Q 65.85 115.76 65.07 114.41
  A 1.05 1.05 0.0 0 0 63.14 114.70
  Z
  M 63.00 110.58
  L 63.11 112.15
  A 0.47 0.47 0.0 0 0 63.62 112.59
  L 64.95 112.49
  A 1.87 1.14 -4.2 0 0 66.73 111.21
  L 66.72 110.98
  A 1.87 1.14 -4.2 0 0 64.77 109.98
  L 63.43 110.07
  A 0.47 0.47 0.0 0 0 63.00 110.58
  Z"
/>
<path fill="#fdfdfd" d="
  M 75.01 115.30
  A 0.74 0.74 0.0 0 0 75.09 113.90
  C 73.81 113.36 72.10 113.08 71.36 111.86
  C 69.75 109.22 74.78 106.77 76.41 109.78
  A 0.45 0.45 0.0 0 1 75.75 110.35
  Q 74.20 109.18 72.71 110.36
  A 0.56 0.56 0.0 0 0 72.85 111.32
  L 75.24 112.25
  A 2.38 2.37 -57.3 0 1 76.08 116.12
  Q 74.17 118.08 71.33 115.90
  Q 70.84 115.52 71.02 114.96
  A 0.49 0.48 27.6 0 1 71.77 114.73
  Q 73.26 115.82 75.01 115.30
  Z"
/>
<rect fill="#fdfdfd" x="-0.75" y="-4.12" transform="translate(91.01,112.65) rotate(0.2)" width="1.50" height="8.24" rx="0.71"/>
<path fill="#fdfdfd" d="
  M 100.35 114.25
  L 101.59 116.34
  A 0.42 0.42 0.0 0 1 101.02 116.91
  Q 99.54 116.05 98.98 114.57
  A 1.15 1.15 0.0 0 0 96.75 114.98
  L 96.75 116.25
  Q 96.75 116.75 96.25 116.75
  L 95.72 116.75
  A 0.53 0.53 0.0 0 1 95.19 116.21
  L 95.39 109.12
  Q 95.41 108.40 96.13 108.44
  L 100.33 108.66
  A 0.82 0.82 0.0 0 1 100.96 109.01
  Q 102.77 111.63 100.53 113.35
  A 0.70 0.68 -34.4 0 0 100.35 114.25
  Z
  M 100.1904 110.9930
  A 1.00 1.00 0.0 0 0 99.1922 109.9913
  L 97.7122 109.9887
  A 1.00 1.00 0.0 0 0 96.7104 110.9870
  L 96.7096 111.4870
  A 1.00 1.00 0.0 0 0 97.7078 112.4887
  L 99.1878 112.4913
  A 1.00 1.00 0.0 0 0 100.1896 111.4930
  L 100.1904 110.9930
  Z"
/>
<ellipse fill="#fdfdfd" cx="0.00" cy="0.00" transform="translate(20.81,110.56) rotate(55.9)" rx="2.03" ry="0.81"/>
<ellipse fill="#130a0d" cx="0.00" cy="0.00" transform="translate(54.39,112.62) rotate(90.3)" rx="2.86" ry="2.63"/>
<path fill="#130a0d" d="
  M 63.00 110.58
  A 0.47 0.47 0.0 0 1 63.43 110.07
  L 64.77 109.98
  A 1.87 1.14 -4.2 0 1 66.72 110.98
  L 66.73 111.21
  A 1.87 1.14 -4.2 0 1 64.95 112.49
  L 63.62 112.59
  A 0.47 0.47 0.0 0 1 63.11 112.15
  L 63.00 110.58
  Z"
/>
<rect fill="#000000" x="-1.74" y="-1.25" transform="translate(98.45,111.24) rotate(0.1)" width="3.48" height="2.50" rx="1.00"/>
<path fill="#130a0d" d="
  M 82.94 111.44
  Q 82.96 111.17 83.13 110.98
  Q 83.55 110.52 83.75 111.12
  L 84.15 112.32
  A 1.00 0.98 -66.9 0 1 82.32 113.08
  Q 81.94 112.23 82.94 111.44
  Z"
/>
<path fill="#353537" d="
  M 0.25 140.25
  L 0.77 140.25
  L 0.79 148.57
  Q 0.80 150.72 2.95 150.72
  L 41.46 150.76
  C 38.68 154.37 33.18 153.49 32.39 159.92
  Q 32.32 160.50 31.74 160.50
  L 30.45 160.50
  A 0.94 0.92 -79.3 0 0 29.59 161.10
  C 28.50 163.99 25.79 166.00 24.22 168.46
  C 23.05 170.29 22.61 173.09 20.89 175.32
  A 1.40 1.39 -79.6 0 1 20.20 175.80
  Q 11.14 178.45 1.93 176.27
  Q 1.49 176.16 1.35 176.59
  L 0.75 178.53
  Q 0.94 168.35 1.25 158.25
  Q 1.30 156.58 0.26 156.46
  L 0.25 140.25
  Z"
/>
<path fill="#7c8578" d="
  M 324.15 140.31
  L 324.68 140.25
  L 324.74 147.99
  L 324.11 148.01
  L 324.15 140.31
  Z"
/>
<path fill="#fdfdfd" d="
  M 324.11 148.01
  L 324.74 147.99
  Q 324.59 149.39 325.00 150.07
  Q 325.00 150.19 325.00 150.31
  L 324.61 175.10
  Q 323.70 173.37 323.87 170.81
  L 324.11 148.01
  Z"
/>
<path fill="#000000" d="
  M 325.00 150.31
  L 325.00 187.31
  L 324.71 180.50
  L 324.61 175.10
  L 325.00 150.31
  Z"
/>
<path fill="#303030" d="
  M 293.74 150.80
  Q 293.97 150.95 294.36 151.01
  Q 294.95 151.09 294.86 151.68
  Q 294.23 155.83 297.64 158.36
  A 1.50 1.50 0.0 0 1 298.21 159.18
  Q 300.33 166.70 307.19 170.35
  Q 307.69 170.61 307.79 171.17
  Q 308.64 176.02 314.67 178.13
  L 293.50 178.32
  Q 215.15 179.06 136.80 178.58
  Q 130.20 178.54 116.83 178.88
  C 104.71 179.20 90.45 178.71 80.48 178.65
  C 64.33 178.57 46.58 177.96 29.80 178.80
  Q 19.76 179.30 9.72 179.57
  Q 9.19 179.59 8.72 179.81
  Q 6.70 180.78 4.76 179.65
  A 1.38 1.37 17.7 0 0 2.69 180.71
  L 2.37 184.32
  A 0.18 0.18 0.0 0 1 2.04 184.39
  Q 1.96 184.24 1.75 184.38
  Q 1.50 184.55 1.50 184.24
  L 1.50 181.99
  A 0.22 0.22 0.0 0 0 1.06 181.96
  L 0.85 183.45
  L 0.75 178.53
  L 1.35 176.59
  Q 1.49 176.16 1.93 176.27
  Q 11.14 178.45 20.20 175.80
  A 1.40 1.39 -79.6 0 0 20.89 175.32
  C 22.61 173.09 23.05 170.29 24.22 168.46
  C 25.79 166.00 28.50 163.99 29.59 161.10
  A 0.94 0.92 -79.3 0 1 30.45 160.50
  L 31.74 160.50
  Q 32.32 160.50 32.39 159.92
  C 33.18 153.49 38.68 154.37 41.46 150.76
  L 293.74 150.80
  Z"
/>
<path fill="#353537" d="
  M 323.87 170.81
  Q 323.70 173.37 324.61 175.10
  L 324.71 180.50
  Q 324.22 180.39 324.10 181.46
  L 324.00 178.71
  A 1.09 1.08 66.4 0 0 322.15 177.98
  L 321.90 178.23
  Q 321.56 178.56 321.09 178.53
  L 314.67 178.13
  Q 308.64 176.02 307.79 171.17
  Q 307.69 170.61 307.19 170.35
  Q 300.33 166.70 298.21 159.18
  A 1.50 1.50 0.0 0 0 297.64 158.36
  Q 294.23 155.83 294.86 151.68
  Q 294.95 151.09 294.36 151.01
  Q 293.97 150.95 293.74 150.80
  L 322.75 150.70
  Q 323.33 150.70 323.35 151.28
  L 323.87 170.81
  Z"
/>
<path fill="#fdfdfd" d="
  M 0.26 156.46
  Q 1.30 156.58 1.25 158.25
  Q 0.94 168.35 0.75 178.53
  L 0.85 183.45
  Q 0.33 188.40 2.19 189.27
  Q 2.20 189.51 2.21 189.75
  Q 0.77 190.32 0.00 189.70
  L 0.00 185.47
  L 0.00 171.68
  L 0.00 157.19
  Q 0.31 157.37 0.26 156.46
  Z"
/>
<path fill="#000000" d="
  M 0.00 171.68
  L 0.00 185.47
  L 0.00 171.68
  Z"
/>
<path fill="#1a1819" d="
  M 324.10 181.46
  Q 325.01 186.67 322.65 189.67
  Q 320.34 190.09 318.53 189.53
  L 280.96 189.04
  Q 281.62 187.96 280.14 186.99
  Q 279.74 186.72 280.18 186.53
  Q 284.70 184.62 289.51 184.59
  C 292.21 184.57 294.29 183.98 294.70 181.16
  Q 294.77 180.71 294.32 180.64
  L 293.17 180.47
  A 0.80 0.80 0.0 0 1 292.50 179.68
  L 292.50 179.01
  Q 292.50 178.58 292.93 178.54
  Q 293.36 178.50 293.50 178.32
  L 314.67 178.13
  L 321.09 178.53
  Q 321.56 178.56 321.90 178.23
  L 322.15 177.98
  A 1.09 1.08 66.4 0 1 324.00 178.71
  L 324.10 181.46
  Z"
/>
<path fill="#130a0d" d="
  M 293.50 178.32
  Q 293.36 178.50 292.93 178.54
  Q 292.50 178.58 292.50 179.01
  L 292.50 179.68
  A 0.80 0.80 0.0 0 0 293.17 180.47
  L 294.32 180.64
  Q 294.77 180.71 294.70 181.16
  C 294.29 183.98 292.21 184.57 289.51 184.59
  Q 284.70 184.62 280.18 186.53
  Q 279.74 186.72 280.14 186.99
  Q 281.62 187.96 280.96 189.04
  L 223.25 189.25
  L 2.19 189.27
  Q 0.33 188.40 0.85 183.45
  L 1.06 181.96
  A 0.22 0.22 0.0 0 1 1.50 181.99
  L 1.50 184.24
  Q 1.50 184.55 1.75 184.38
  Q 1.96 184.24 2.04 184.39
  A 0.18 0.18 0.0 0 0 2.37 184.32
  L 2.69 180.71
  A 1.38 1.37 17.7 0 1 4.76 179.65
  Q 6.70 180.78 8.72 179.81
  Q 9.19 179.59 9.72 179.57
  Q 19.76 179.30 29.80 178.80
  C 46.58 177.96 64.33 178.57 80.48 178.65
  C 90.45 178.71 104.71 179.20 116.83 178.88
  Q 130.20 178.54 136.80 178.58
  Q 215.15 179.06 293.50 178.32
  Z"
/>
<path fill="#fdfdfd" d="
  M 324.71 180.50
  L 325.00 187.31
  L 325.00 190.04
  Q 323.59 190.08 322.65 189.67
  Q 325.01 186.67 324.10 181.46
  Q 324.22 180.39 324.71 180.50
  Z"
/>
<path fill="#7c8578" d="
  M 223.25 189.25
  L 223.25 189.73
  L 2.21 189.75
  Q 2.20 189.51 2.19 189.27
  L 223.25 189.25
  Z"
/>
<path fill="#353537" d="
  M 280.96 189.04
  L 318.53 189.53
  L 223.25 189.73
  L 223.25 189.25
  L 280.96 189.04
  Z"
/>
<path fill="#000000" d="
  M 318.53 189.53
  Q 320.34 190.09 322.65 189.67
  Q 323.59 190.08 325.00 190.04
  L 325.00 225.00
  L 0.00 225.00
  L 0.00 189.70
  Q 0.77 190.32 2.21 189.75
  L 223.25 189.73
  L 318.53 189.53
  Z"
/>
</svg>
