<?xml version="1.0" encoding="UTF-8" standalone="no"?>
<!DOCTYPE svg PUBLIC "-//W3C//DTD SVG 1.1//EN" "http://www.w3.org/Graphics/SVG/1.1/DTD/svg11.dtd">
<svg xmlns="http://www.w3.org/2000/svg" version="1.1" viewBox="0.00 0.00 500.00 500.00">
<path stroke="#919191" stroke-width="2.00" fill="none" stroke-linecap="butt" vector-effect="non-scaling-stroke" d="
  M 351.36 127.98
  C 296.24 102.22 232.22 97.90 173.52 112.78
  C 131.05 123.55 84.85 147.78 64.23 188.70
  C 44.85 227.14 58.28 268.35 88.57 296.19
  C 119.97 325.06 162.85 340.85 204.81 346.16
  C 228.94 349.21 252.71 349.70 276.86 346.32
  Q 277.38 346.24 277.78 346.56
  Q 310.93 372.65 349.99 388.64
  Q 350.65 388.90 350.48 388.22
  L 336.83 332.15
  A 0.87 0.87 0.0 0 1 337.37 331.14
  C 374.58 317.02 416.89 286.62 425.86 245.08
  C 437.58 190.80 396.21 148.94 351.36 127.98"
/>
<path fill="#232323" d="
  M 50.29 231.06
  C 47.69 177.56 92.71 138.61 137.85 119.69
  Q 181.37 101.44 228.69 99.64
  C 242.07 99.13 264.78 98.90 281.47 100.05
  Q 326.74 103.16 368.37 121.69
  C 401.46 136.41 435.38 163.55 445.90 199.77
  C 464.16 262.67 410.07 310.61 357.57 330.85
  A 0.84 0.83 -15.5 0 0 357.05 331.75
  L 368.07 399.76
  A 0.66 0.66 0.0 0 1 367.26 400.51
  C 355.34 397.44 345.34 393.00 333.14 387.10
  C 313.35 377.51 293.99 366.08 276.86 352.23
  Q 276.46 351.91 275.96 351.95
  Q 265.10 352.86 254.26 353.40
  C 199.38 356.11 140.90 343.01 96.57 309.69
  C 71.75 291.02 51.84 262.97 50.29 231.06
  Z
  M 351.36 127.98
  C 296.24 102.22 232.22 97.90 173.52 112.78
  C 131.05 123.55 84.85 147.78 64.23 188.70
  C 44.85 227.14 58.28 268.35 88.57 296.19
  C 119.97 325.06 162.85 340.85 204.81 346.16
  C 228.94 349.21 252.71 349.70 276.86 346.32
  Q 277.38 346.24 277.78 346.56
  Q 310.93 372.65 349.99 388.64
  Q 350.65 388.90 350.48 388.22
  L 336.83 332.15
  A 0.87 0.87 0.0 0 1 337.37 331.14
  C 374.58 317.02 416.89 286.62 425.86 245.08
  C 437.58 190.80 396.21 148.94 351.36 127.98
  Z"
/>
<path fill="#ffffff" d="
  M 173.52 112.78
  C 232.22 97.90 296.24 102.22 351.36 127.98
  C 396.21 148.94 437.58 190.80 425.86 245.08
  C 416.89 286.62 374.58 317.02 337.37 331.14
  A 0.87 0.87 0.0 0 0 336.83 332.15
  L 350.48 388.22
  Q 350.65 388.90 349.99 388.64
  Q 310.93 372.65 277.78 346.56
  Q 277.38 346.24 276.86 346.32
  C 252.71 349.70 228.94 349.21 204.81 346.16
  C 162.85 340.85 119.97 325.06 88.57 296.19
  C 58.28 268.35 44.85 227.14 64.23 188.70
  C 84.85 147.78 131.05 123.55 173.52 112.78
  Z"
/>
</svg>
