<?xml version="1.0" encoding="UTF-8" standalone="no"?>
<!DOCTYPE svg PUBLIC "-//W3C//DTD SVG 1.1//EN" "http://www.w3.org/Graphics/SVG/1.1/DTD/svg11.dtd">
<svg xmlns="http://www.w3.org/2000/svg" version="1.1" viewBox="0.00 0.00 577.00 433.00">
<path stroke="#838383" stroke-width="2.00" fill="none" stroke-linecap="butt" vector-effect="non-scaling-stroke" d="
  M 201.65 289.39
  C 236.83 304.18 276.17 308.71 313.35 304.98
  Q 323.15 304.00 327.19 304.47
  C 340.95 306.07 352.02 314.64 367.46 322.50
  Q 379.34 328.55 388.90 330.34
  Q 390.05 330.56 389.17 329.80
  C 381.54 323.24 359.39 295.90 376.94 288.91
  Q 384.45 285.91 399.52 276.76
  C 420.22 264.19 439.40 244.15 446.28 221.00
  C 460.64 172.61 422.13 133.09 381.71 114.59
  C 332.54 92.08 275.26 89.35 223.54 104.12
  C 183.90 115.44 136.12 144.11 129.05 189.02
  C 121.47 237.10 161.63 272.57 201.65 289.39"
/>
<path fill="#070707" d="
  M 226.96 301.76
  Q 223.29 301.63 221.43 301.08
  C 174.98 287.39 119.49 250.92 123.98 194.77
  C 127.57 149.89 168.30 119.70 206.95 105.20
  Q 223.83 98.87 232.75 97.02
  Q 238.84 95.76 241.48 95.02
  Q 241.91 94.89 242.28 95.13
  Q 242.80 95.46 243.32 95.07
  Q 243.76 94.73 244.31 94.63
  C 306.64 82.98 390.51 96.16 433.36 147.85
  C 436.44 151.57 438.87 156.88 442.28 161.10
  Q 442.58 161.47 442.62 161.94
  Q 442.73 163.11 443.76 163.79
  Q 444.16 164.05 444.38 164.47
  Q 448.66 172.49 451.19 181.25
  C 451.67 182.92 451.24 184.50 451.79 186.11
  Q 453.14 190.14 453.46 196.52
  C 455.85 244.07 416.89 275.15 378.27 293.21
  C 372.17 296.06 375.01 302.64 377.54 306.98
  C 378.59 308.77 379.65 311.97 381.36 314.02
  C 386.14 319.75 389.90 328.65 398.56 328.76
  A 1.58 1.48 -29.6 0 1 399.18 328.91
  C 401.43 329.99 401.23 331.91 399.22 332.90
  C 391.85 336.55 380.94 333.59 373.20 330.03
  C 359.24 323.60 347.53 316.65 334.90 310.00
  C 333.00 309.00 331.21 309.55 329.21 308.99
  C 323.44 307.35 319.54 309.16 314.04 309.21
  C 310.27 309.24 306.42 310.10 303.08 310.24
  Q 284.95 310.97 266.86 309.76
  Q 266.37 309.72 265.95 309.46
  C 264.46 308.54 262.76 309.27 261.35 309.09
  Q 252.63 308.01 239.27 305.43
  Q 233.50 304.32 230.10 303.18
  C 229.29 302.91 228.44 303.07 227.78 302.19
  A 1.09 1.08 72.4 0 0 226.96 301.76
  Z
  M 201.65 289.39
  C 236.83 304.18 276.17 308.71 313.35 304.98
  Q 323.15 304.00 327.19 304.47
  C 340.95 306.07 352.02 314.64 367.46 322.50
  Q 379.34 328.55 388.90 330.34
  Q 390.05 330.56 389.17 329.80
  C 381.54 323.24 359.39 295.90 376.94 288.91
  Q 384.45 285.91 399.52 276.76
  C 420.22 264.19 439.40 244.15 446.28 221.00
  C 460.64 172.61 422.13 133.09 381.71 114.59
  C 332.54 92.08 275.26 89.35 223.54 104.12
  C 183.90 115.44 136.12 144.11 129.05 189.02
  C 121.47 237.10 161.63 272.57 201.65 289.39
  Z"
/>
<path fill="#ffffff" d="
  M 313.35 304.98
  C 276.17 308.71 236.83 304.18 201.65 289.39
  C 161.63 272.57 121.47 237.10 129.05 189.02
  C 136.12 144.11 183.90 115.44 223.54 104.12
  C 275.26 89.35 332.54 92.08 381.71 114.59
  C 422.13 133.09 460.64 172.61 446.28 221.00
  C 439.40 244.15 420.22 264.19 399.52 276.76
  Q 384.45 285.91 376.94 288.91
  C 359.39 295.90 381.54 323.24 389.17 329.80
  Q 390.05 330.56 388.90 330.34
  Q 379.34 328.55 367.46 322.50
  C 352.02 314.64 340.95 306.07 327.19 304.47
  Q 323.15 304.00 313.35 304.98
  Z"
/>
</svg>
