<?xml version="1.0" encoding="UTF-8" standalone="no"?>
<svg
   xmlns:dc="http://purl.org/dc/elements/1.1/"
   xmlns:cc="http://creativecommons.org/ns#"
   xmlns:rdf="http://www.w3.org/1999/02/22-rdf-syntax-ns#"
   xmlns:svg="http://www.w3.org/2000/svg"
   xmlns="http://www.w3.org/2000/svg"
   xmlns:sodipodi="http://sodipodi.sourceforge.net/DTD/sodipodi-0.dtd"
   xmlns:inkscape="http://www.inkscape.org/namespaces/inkscape"
   width="210mm"
   height="297mm"
   viewBox="0 0 210 297"
   version="1.1"
   id="svg8"
   inkscape:version="1.0.2-2 (e86c870879, 2021-01-15)"
   sodipodi:docname="FanWithoutWings.svg">
  <defs
     id="defs2">
    <style
       id="style219">
      .cls-1 {
        fill: #f0f2f1;
      }

      .cls-2 {
        fill: #8bb3d3;
      }

      .cls-3 {
        fill: #322f34;
      }

      .cls-4 {
        fill: #8c7d82;
      }

      .cls-5 {
        fill: #c8cac9;
      }

      .cls-6 {
        fill: #434047;
      }

      .cls-7 {
        fill: #404042;
      }

      .cls-8 {
        fill: #554d4f;
      }

      .cls-9 {
        fill: #2b292d;
      }

      .cls-10 {
        fill: #38353a;
      }

      .cls-11 {
        fill: #5fa7cf;
      }
    </style>
  </defs>
  <sodipodi:namedview
     id="base"
     pagecolor="#ffffff"
     bordercolor="#666666"
     borderopacity="1.0"
     inkscape:pageopacity="0.0"
     inkscape:pageshadow="2"
     inkscape:zoom="0.35"
     inkscape:cx="400"
     inkscape:cy="331.42857"
     inkscape:document-units="mm"
     inkscape:current-layer="g529"
     inkscape:document-rotation="0"
     showgrid="false"
     inkscape:window-width="1267"
     inkscape:window-height="1032"
     inkscape:window-x="208"
     inkscape:window-y="0"
     inkscape:window-maximized="0" />
  <metadata
     id="metadata5">
    <rdf:RDF>
      <cc:Work
         rdf:about="">
        <dc:format>image/svg+xml</dc:format>
        <dc:type
           rdf:resource="http://purl.org/dc/dcmitype/StillImage" />
        <dc:title></dc:title>
      </cc:Work>
    </rdf:RDF>
  </metadata>
  <g
     inkscape:label="Layer 1"
     inkscape:groupmode="layer"
     id="layer1">
    <g
       id="g529"
       transform="matrix(0.26458333,0,0,0.26458333,-133.84779,-123.20663)">
      <rect
         class="cls-6"
         x="49.98"
         width="1414.67"
         height="1498.71"
         rx="24.9"
         ry="24.9"
         id="rect307"
         y="0" />
      <path
         class="cls-10"
         d="m 581.58,36.21 c -7.57,0 -10.38,9.93 -3.9,13.86 140.98,85.35 863.5,564.13 863.5,1412.42 V 77.69 c 0,-22.91 -18.57,-41.48 -41.48,-41.48 H 581.59 Z"
         id="path309" />
      <circle
         class="cls-8"
         cx="757.31"
         cy="749.34998"
         r="588.28003"
         transform="rotate(-45,757.31148,749.35132)"
         id="circle311" />
      <circle
         class="cls-3"
         cx="757.31"
         cy="749.34998"
         r="552.09003"
         transform="rotate(-45,757.31148,749.35132)"
         id="circle313" />
      <path
         class="cls-8"
         d="M 986.19,215.68 H 524.93 c -17.08,9.52 -33.46,19.88 -49.34,30.85 h 557.38 c -15.57,-10.5 -31.21,-20.76 -46.78,-30.85 z"
         id="path347" />
      <path
         class="cls-8"
         d="M 1081.15,280.46 H 430.9 c -11.78,9.83 -23.16,20.17 -34.26,30.85 h 723.95 c -12.84,-10.64 -25.99,-20.93 -39.43,-30.85 z"
         id="path349" />
      <path
         class="cls-8"
         d="M 1158.83,345.24 H 363.69 c -9.05,10 -17.89,20.26 -26.47,30.85 h 851.17 c -9.42,-10.69 -19.31,-20.94 -29.57,-30.85 z"
         id="path351" />
      <path
         class="cls-8"
         d="M 1215.4,410.02 H 310.81 c -7.43,10.03 -14.74,20.33 -21.86,30.85 h 947.25 c -6.55,-10.49 -13.48,-20.78 -20.8,-30.85 z"
         id="path353" />
      <path
         class="cls-8"
         d="m 1255.88,474.8 h -988.5 c -6.08,10.13 -11.9,20.4 -17.38,30.85 h 1021.68 c -5.03,-10.41 -10.31,-20.69 -15.8,-30.85 z"
         id="path355" />
      <path
         class="cls-8"
         d="M 1287.27,539.58 H 233.76 c -4.43,10.19 -8.61,20.45 -12.22,30.85 h 1078.8 c -4.23,-10.35 -8.6,-20.62 -13.07,-30.85 z"
         id="path357" />
      <path
         class="cls-8"
         d="m 1314.18,605.15 c -1.26,-0.34 -2.49,-0.78 -3.86,-0.78 H 211.54 c -2.49,10.21 -4.29,20.52 -5.78,30.85 h 1104.56 c 5.4,0 9.94,-2.97 12.7,-7.2 -2.93,-7.63 -5.87,-15.25 -8.84,-22.87 z"
         id="path359" />
      <rect
         class="cls-8"
         x="188.88"
         y="669.14001"
         width="1136.87"
         height="30.85"
         rx="3.9200001"
         ry="3.9200001"
         id="rect361" />
      <rect
         class="cls-8"
         x="188.88"
         y="733.92999"
         width="1136.87"
         height="30.85"
         rx="3.9200001"
         ry="3.9200001"
         id="rect363" />
      <rect
         class="cls-8"
         x="188.88"
         y="798.70001"
         width="1136.87"
         height="30.85"
         rx="3.9200001"
         ry="3.9200001"
         id="rect365" />
      <path
         class="cls-8"
         d="M 1310.32,863.49 H 204.31 c -1.13,0 -2.13,0.41 -3.2,0.65 1.49,3.16 2.71,6.65 3.62,10.47 1.59,6.68 3.58,13.24 5.8,19.73 h 1099.79 c 8.49,0 15.43,-6.94 15.43,-15.43 0,-8.49 -6.94,-15.43 -15.43,-15.43 z"
         id="path367" />
      <path
         class="cls-8"
         d="M 1309.64,928.27 H 224.55 c 4.98,10.41 10.4,20.67 15.95,30.85 h 1057.24 c 4.13,-10.22 8.07,-20.51 11.9,-30.85 z"
         id="path369" />
      <path
         class="cls-8"
         d="m 1282.57,993.23 0.09,-0.18 H 259.12 c 3.14,5.82 6.22,11.64 9.15,17.48 2.33,4.63 4.97,8.89 7.42,13.37 h 990.21 c 5.91,-10.1 11.49,-20.35 16.66,-30.67 z"
         id="path371" />
      <path
         class="cls-8"
         d="M 1243.98,1057.83 H 296 c 6.87,10.49 14.05,20.8 21.55,30.85 h 901.69 c 8.81,-9.77 17.04,-20.1 24.74,-30.85 z"
         id="path373" />
      <path
         class="cls-8"
         d="M 1183.39,1122.61 H 344.1 c 2.68,3.27 5.23,6.54 7.96,9.81 5.85,7.01 11.69,14.04 17.56,21.04 h 779.21 c 11.39,-10.65 22.87,-21.02 34.57,-30.85 z"
         id="path375" />
      <path
         class="cls-8"
         d="M 1112.84,1187.39 H 400.89 l 0.86,0.91 c 11.91,11.08 25.3,20.75 38.95,29.95 h 637.63 c 11.74,-9.92 23.21,-20.29 34.51,-30.85 z"
         id="path377" />
      <path
         class="cls-8"
         d="M 1032.87,1252.17 H 493.21 c 16.51,10.33 33.08,20.58 49.63,30.85 h 423.33 c 24.12,-6.89 46.08,-17.7 66.7,-30.85 z"
         id="path379" />
    </g>
  </g>
</svg>
