<?xml version="1.0" encoding="UTF-8" standalone="no"?>
<!DOCTYPE svg PUBLIC "-//W3C//DTD SVG 1.1//EN" "http://www.w3.org/Graphics/SVG/1.1/DTD/svg11.dtd">
<svg xmlns="http://www.w3.org/2000/svg" version="1.1" viewBox="0.00 0.00 225.00 225.00">
<g stroke-width="2.00" fill="none" stroke-linecap="butt">
<path stroke="#7bbb4a" vector-effect="non-scaling-stroke" d="
  M 208.23 112.53
  A 95.69 95.69 0.0 0 0 112.54 16.84
  A 95.69 95.69 0.0 0 0 16.85 112.53
  A 95.69 95.69 0.0 0 0 112.54 208.22
  A 95.69 95.69 0.0 0 0 208.23 112.53"
/>
<path stroke="#cbe4b8" vector-effect="non-scaling-stroke" d="
  M 40.40 120.35
  L 87.26 166.71
  A 2.77 2.77 0.0 0 0 91.17 166.70
  L 177.87 80.01
  Q 180.12 77.76 177.89 75.50
  L 160.79 58.08
  A 2.46 2.46 0.0 0 0 157.47 57.91
  Q 156.08 59.06 154.29 60.83
  Q 121.73 93.17 89.12 125.70
  A 0.55 0.54 44.6 0 1 88.35 125.70
  L 61.57 98.63
  A 1.96 1.96 0.0 0 0 58.81 98.61
  L 40.40 116.62
  A 2.62 2.60 45.2 0 0 40.40 120.35"
/>
</g>
<path fill="#5eac24" d="
  M 108.36 0.00
  L 117.50 0.00
  C 173.53 3.94 218.58 45.60 224.13 101.97
  Q 224.54 106.15 225.00 110.32
  L 225.00 113.80
  Q 224.40 120.42 223.52 126.96
  C 216.87 176.41 179.71 214.77 130.26 223.14
  C 125.68 223.91 119.55 223.99 114.18 225.00
  L 109.71 225.00
  C 102.98 224.09 95.68 223.71 89.50 222.27
  C 43.55 211.59 8.88 176.44 1.67 129.24
  Q 1.17 126.01 1.58 121.74
  Q 2.46 112.40 1.44 103.08
  Q 1.00 99.06 1.50 95.93
  C 10.10 41.86 53.83 3.46 108.36 0.00
  Z
  M 208.23 112.53
  A 95.69 95.69 0.0 0 0 112.54 16.84
  A 95.69 95.69 0.0 0 0 16.85 112.53
  A 95.69 95.69 0.0 0 0 112.54 208.22
  A 95.69 95.69 0.0 0 0 208.23 112.53
  Z"
/>
<path fill="#97c970" d="
  M 208.23 112.53
  A 95.69 95.69 0.0 0 1 112.54 208.22
  A 95.69 95.69 0.0 0 1 16.85 112.53
  A 95.69 95.69 0.0 0 1 112.54 16.84
  A 95.69 95.69 0.0 0 1 208.23 112.53
  Z
  M 40.40 120.35
  L 87.26 166.71
  A 2.77 2.77 0.0 0 0 91.17 166.70
  L 177.87 80.01
  Q 180.12 77.76 177.89 75.50
  L 160.79 58.08
  A 2.46 2.46 0.0 0 0 157.47 57.91
  Q 156.08 59.06 154.29 60.83
  Q 121.73 93.17 89.12 125.70
  A 0.55 0.54 44.6 0 1 88.35 125.70
  L 61.57 98.63
  A 1.96 1.96 0.0 0 0 58.81 98.61
  L 40.40 116.62
  A 2.62 2.60 45.2 0 0 40.40 120.35
  Z"
/>
<path fill="#ffffff" d="
  M 87.26 166.71
  L 40.40 120.35
  A 2.62 2.60 45.2 0 1 40.40 116.62
  L 58.81 98.61
  A 1.96 1.96 0.0 0 1 61.57 98.63
  L 88.35 125.70
  A 0.55 0.54 44.6 0 0 89.12 125.70
  Q 121.73 93.17 154.29 60.83
  Q 156.08 59.06 157.47 57.91
  A 2.46 2.46 0.0 0 1 160.79 58.08
  L 177.89 75.50
  Q 180.12 77.76 177.87 80.01
  L 91.17 166.70
  A 2.77 2.77 0.0 0 1 87.26 166.71
  Z"
/>
</svg>
