<?xml version="1.0" encoding="UTF-8" standalone="no"?>
<svg
   xmlns:dc="http://purl.org/dc/elements/1.1/"
   xmlns:cc="http://creativecommons.org/ns#"
   xmlns:rdf="http://www.w3.org/1999/02/22-rdf-syntax-ns#"
   xmlns:svg="http://www.w3.org/2000/svg"
   xmlns="http://www.w3.org/2000/svg"
   xmlns:sodipodi="http://sodipodi.sourceforge.net/DTD/sodipodi-0.dtd"
   xmlns:inkscape="http://www.inkscape.org/namespaces/inkscape"
   width="210mm"
   height="297mm"
   viewBox="0 0 210 297"
   version="1.1"
   id="svg8"
   inkscape:version="1.0.2-2 (e86c870879, 2021-01-15)"
   sodipodi:docname="FansWings.svg">
  <defs
     id="defs2">
    <style
       id="style219">
      .cls-1 {
        fill: #f0f2f1;
      }

      .cls-2 {
        fill: #8bb3d3;
      }

      .cls-3 {
        fill: #322f34;
      }

      .cls-4 {
        fill: #8c7d82;
      }

      .cls-5 {
        fill: #c8cac9;
      }

      .cls-6 {
        fill: #434047;
      }

      .cls-7 {
        fill: #404042;
      }

      .cls-8 {
        fill: #554d4f;
      }

      .cls-9 {
        fill: #2b292d;
      }

      .cls-10 {
        fill: #38353a;
      }

      .cls-11 {
        fill: #5fa7cf;
      }
    </style>
  </defs>
  <sodipodi:namedview
     id="base"
     pagecolor="#ffffff"
     bordercolor="#666666"
     borderopacity="1.0"
     inkscape:pageopacity="0.0"
     inkscape:pageshadow="2"
     inkscape:zoom="0.35"
     inkscape:cx="400"
     inkscape:cy="560"
     inkscape:document-units="mm"
     inkscape:current-layer="g529"
     inkscape:document-rotation="0"
     showgrid="false"
     inkscape:window-width="1267"
     inkscape:window-height="1032"
     inkscape:window-x="156"
     inkscape:window-y="0"
     inkscape:window-maximized="0" />
  <metadata
     id="metadata5">
    <rdf:RDF>
      <cc:Work
         rdf:about="">
        <dc:format>image/svg+xml</dc:format>
        <dc:type
           rdf:resource="http://purl.org/dc/dcmitype/StillImage" />
        <dc:title></dc:title>
      </cc:Work>
    </rdf:RDF>
  </metadata>
  <g
     inkscape:label="Layer 1"
     inkscape:groupmode="layer"
     id="layer1">
    <g
       id="g529"
       transform="matrix(0.26458333,0,0,0.26458333,-102.85375,-95.99234)">
      <path
         class="cls-11"
         d="m 666.67,885.22 c 6.02,-22.18 -13.16,-43.13 -35.73,-38.81 -105.53,20.23 -394.83,100.28 -249.84,270.58 183.13,215.1 217.47,120.45 204.15,68.3 -51.71,-202.4 81.43,-300.08 81.43,-300.08 z"
         id="path381" />
      <path
         class="cls-11"
         d="m 847.95,613.48 c -6.02,22.19 13.16,43.13 35.73,38.81 105.53,-20.23 394.83,-100.28 249.85,-270.58 -183.13,-215.1 -217.47,-120.44 -204.15,-68.3 51.71,202.4 -81.43,300.08 -81.43,300.08 z"
         id="path383" />
      <path
         class="cls-11"
         d="m 596.87,779.95 c 20.04,-11.26 21.54,-39.62 2.63,-52.69 -88.4,-61.08 -348.28,-211.29 -368.11,11.49 -25.04,281.39 66.54,239.53 94.39,193.47 108.1,-178.76 271.1,-152.27 271.1,-152.27 z"
         id="path385" />
      <path
         class="cls-11"
         d="m 917.75,718.75 c -20.04,11.26 -21.54,39.62 -2.63,52.69 88.4,61.08 348.28,211.29 368.11,-11.49 25.04,-281.38 -66.54,-239.52 -94.39,-193.47 -108.1,178.76 -271.1,152.27 -271.1,152.27 z"
         id="path387" />
      <path
         class="cls-11"
         d="m 617.16,665.47 c 22.45,4.93 42.44,-15.25 37.01,-37.59 C 628.8,523.47 534.68,238.43 371.68,391.59 165.8,585.03 262.03,614.69 313.45,598.84 c 199.63,-61.56 303.71,66.64 303.71,66.64 z"
         id="path389" />
      <path
         class="cls-11"
         d="m 897.46,833.23 c -22.45,-4.93 -42.44,15.26 -37.01,37.59 25.37,104.41 119.49,389.45 282.49,236.3 205.88,-193.44 109.65,-223.1 58.22,-207.25 -199.63,61.56 -303.71,-66.64 -303.71,-66.64 z"
         id="path391" />
      <path
         class="cls-11"
         d="m 714.57,591.71 c 12.75,19.13 41.15,18.46 52.74,-1.4 54.17,-92.8 184.13,-363.38 -39.51,-366.16 -282.47,-3.52 -233.76,84.6 -185.72,108.86 186.48,94.16 172.49,258.7 172.49,258.7 z"
         id="path393" />
      <path
         class="cls-11"
         d="m 800.05,906.99 c -12.75,-19.13 -41.15,-18.46 -52.74,1.4 -54.17,92.8 -184.13,363.38 39.51,366.16 282.47,3.52 233.76,-84.6 185.72,-108.86 -186.48,-94.16 -172.49,-258.7 -172.49,-258.7 z"
         id="path395" />
      <circle
         class="cls-7"
         cx="757.31"
         cy="749.34998"
         r="215.17999"
         transform="rotate(-45,757.31148,749.35132)"
         id="circle397" />
      <circle
         class="cls-1"
         cx="757.31"
         cy="749.34998"
         r="155.57001"
         transform="rotate(-45,757.31148,749.35132)"
         id="circle399" />
      <path
         class="cls-2"
         d="m 1186.7,1051.89 c 0,0 -132.05,91.66 -291.03,-118.53 0,0 25.09,142.67 121.5,200.79 0,0 67.77,50.17 169.53,-82.26 z"
         id="path403" />
      <path
         class="cls-2"
         d="m 332.6,450.51 c 0,0 132.06,-91.66 291.03,118.53 0,0 -25.09,-142.67 -121.5,-200.79 0,0 -67.76,-50.18 -169.53,82.26 z"
         id="path405" />
      <path
         class="cls-2"
         d="m 1278.24,689.17 c 0,0 -36.89,156.46 -295.65,106.5 0,0 114.07,89.3 224.61,68.03 0,0 83.94,-8.01 71.03,-174.53 z"
         id="path407" />
      <path
         class="cls-2"
         d="m 241.06,813.22 c 0,0 36.89,-156.46 295.64,-106.5 0,0 -114.06,-89.3 -224.61,-68.03 0,0 -83.94,8.01 -71.03,174.53 z"
         id="path409" />
      <path
         class="cls-2"
         d="m 1082.36,340.54 c 0,0 84.59,136.69 -133.66,284.4 0,0 143.79,-17.56 206.89,-110.79 0,0 53.67,-65.03 -73.23,-173.61 z"
         id="path411" />
      <path
         class="cls-2"
         d="m 436.94,1161.86 c 0,0 -84.59,-136.69 133.65,-284.4 0,0 -143.79,17.56 -206.89,110.79 0,0 -53.67,65.03 73.24,173.61 z"
         id="path413" />
      <path
         class="cls-2"
         d="m 655.07,239.49 c 0,0 158.97,23.86 130.51,285.86 0,0 79.58,-121.04 49.28,-229.45 0,0 -14.91,-82.99 -179.79,-56.4 z"
         id="path415" />
      <path
         class="cls-2"
         d="m 864.22,1262.91 c 0,0 -158.97,-23.86 -130.51,-285.86 0,0 -79.58,121.04 -49.28,229.45 0,0 14.9,82.99 179.79,56.4 z"
         id="path417" />
      <path
         class="cls-5"
         d="m 732.14,710.02 c 41.74,41.87 83.43,83.78 125.14,125.67 20.48,-23.61 32.9,-54.41 32.9,-88.12 0,-74.34 -60.27,-134.61 -134.61,-134.61 -33.55,0 -64.21,12.3 -87.78,32.61 21.46,21.47 42.91,42.95 64.35,64.46 z"
         id="path419" />
    </g>
  </g>
</svg>
