<?xml version="1.0" encoding="UTF-8" standalone="no"?>
<!DOCTYPE svg PUBLIC "-//W3C//DTD SVG 1.1//EN" "http://www.w3.org/Graphics/SVG/1.1/DTD/svg11.dtd">
<svg xmlns="http://www.w3.org/2000/svg" version="1.1" viewBox="0.00 0.00 381.00 228.00">
<g stroke-width="2.00" fill="none" stroke-linecap="butt">
<path stroke="#313032" vector-effect="non-scaling-stroke" d="
  M 319.98 20.16
  L 319.39 23.65
  A 0.62 0.61 -84.9 0 1 318.79 24.16
  Q 274.53 24.56 230.27 23.86
  C 226.26 23.79 221.37 23.00 217.24 23.00
  C 202.62 23.02 186.60 24.25 172.01 24.26
  C 144.45 24.27 116.87 24.50 89.32 23.89
  Q 71.13 23.49 52.76 24.39
  A 0.84 0.84 0.0 0 0 51.95 25.23
  L 52.10 170.30
  Q 52.10 171.00 52.80 171.00
  L 317.96 171.00
  A 1.22 1.22 0.0 0 1 319.17 172.05
  L 319.96 177.50"
/>
<path stroke="#474749" vector-effect="non-scaling-stroke" d="
  M 26.70 188.54
  Q 29.91 187.30 34.02 188.02
  A 1.05 1.05 0.0 0 0 35.25 186.99
  L 35.25 182.29
  Q 35.25 181.89 34.86 181.83
  Q 31.65 181.32 28.41 181.57
  Q 27.68 181.62 27.72 180.89
  L 27.81 179.44
  A 0.44 0.44 0.0 0 1 28.24 179.03
  L 34.29 178.94
  Q 35.00 178.93 35.00 178.22
  L 35.00 153.40
  A 0.66 0.65 0.0 0 0 34.34 152.75
  L 28.53 152.75
  Q 27.87 152.75 27.82 152.10
  L 27.73 150.97
  Q 27.69 150.37 28.29 150.34
  L 34.52 150.00
  Q 35.25 149.96 35.25 149.23
  L 35.25 144.37
  Q 35.25 143.75 34.62 143.75
  L 28.55 143.75
  Q 27.92 143.75 27.83 143.12
  L 27.69 142.07
  Q 27.63 141.63 27.20 141.50
  Q 26.89 141.41 26.54 141.50"
/>
<path stroke="#474749" vector-effect="non-scaling-stroke" d="
  M 26.55 131.39
  L 40.32 131.10
  Q 40.75 131.10 40.75 130.67
  L 40.75 122.00
  Q 40.75 121.50 40.25 121.50
  L 28.98 121.50
  A 1.07 1.06 74.7 0 1 28.06 120.97
  Q 27.60 120.19 26.75 120.21"
/>
<path stroke="#474749" vector-effect="non-scaling-stroke" d="
  M 26.50 118.87
  L 44.71 118.55
  Q 45.25 118.54 45.25 118.00
  L 45.25 79.38
  A 0.63 0.63 0.0 0 0 44.62 78.75
  L 28.38 78.75
  Q 27.75 78.75 27.75 78.12
  L 27.75 76.37
  Q 27.75 75.75 28.37 75.75
  L 40.52 75.75
  A 0.50 0.50 0.0 0 0 41.02 75.23
  L 40.67 66.70
  Q 40.65 66.25 40.20 66.25
  L 28.76 66.25
  A 0.92 0.89 67.4 0 1 28.11 65.97
  Q 27.95 65.80 27.73 65.71"
/>
<path stroke="#313032" vector-effect="non-scaling-stroke" d="
  M 27.73 65.71
  L 27.69 17.98
  Q 27.69 17.44 28.22 17.43
  L 69.31 16.51"
/>
<path stroke="#57585b" vector-effect="non-scaling-stroke" d="
  M 27.73 65.71
  L 26.67 65.76"
/>
<path stroke="#474749" vector-effect="non-scaling-stroke" d="
  M 43.51 31.75
  A 5.03 5.03 0.0 0 0 38.48 26.72
  A 5.03 5.03 0.0 0 0 33.45 31.75
  A 5.03 5.03 0.0 0 0 38.48 36.78
  A 5.03 5.03 0.0 0 0 43.51 31.75"
/>
<path stroke="#57585b" vector-effect="non-scaling-stroke" d="
  M 207.68 97.57
  A 64.74 64.74 0.0 0 0 142.94 32.83
  A 64.74 64.74 0.0 0 0 78.20 97.57
  A 64.74 64.74 0.0 0 0 142.94 162.31
  A 64.74 64.74 0.0 0 0 207.68 97.57"
/>
<path stroke="#57585b" vector-effect="non-scaling-stroke" d="
  M 354.80 97.59
  A 64.73 64.73 0.0 0 0 290.07 32.86
  A 64.73 64.73 0.0 0 0 225.34 97.59
  A 64.73 64.73 0.0 0 0 290.07 162.32
  A 64.73 64.73 0.0 0 0 354.80 97.59"
/>
<path stroke="#57585b" vector-effect="non-scaling-stroke" d="
  M 204.89 97.60
  A 61.98 61.98 0.0 0 0 142.91 35.62
  A 61.98 61.98 0.0 0 0 80.93 97.60
  A 61.98 61.98 0.0 0 0 142.91 159.58
  A 61.98 61.98 0.0 0 0 204.89 97.60"
/>
<path stroke="#57585b" vector-effect="non-scaling-stroke" d="
  M 352.04 97.61
  A 61.99 61.99 0.0 0 0 290.05 35.62
  A 61.99 61.99 0.0 0 0 228.06 97.61
  A 61.99 61.99 0.0 0 0 290.05 159.60
  A 61.99 61.99 0.0 0 0 352.04 97.61"
/>
<path stroke="#8a8a8c" vector-effect="non-scaling-stroke" d="
  M 154.10 56.69
  C 152.96 47.54 144.41 40.42 135.07 39.91
  Q 134.46 39.88 134.45 40.50
  L 134.28 69.75
  Q 134.28 70.51 135.00 70.27
  Q 144.37 67.17 153.73 70.22
  Q 154.19 70.37 154.21 69.88
  Q 154.52 60.09 154.10 56.69"
/>
<path stroke="#8a8a8c" vector-effect="non-scaling-stroke" d="
  M 178.42 50.06
  A 0.40 0.39 -41.7 0 0 177.84 50.03
  L 156.89 70.92
  Q 156.53 71.28 156.99 71.52
  Q 165.89 76.13 170.48 85.05
  A 0.33 0.33 0.0 0 0 171.01 85.13
  C 174.96 81.24 179.83 77.04 181.99 72.24
  Q 187.21 60.63 178.42 50.06"
/>
<path stroke="#8a8a8c" vector-effect="non-scaling-stroke" d="
  M 123.31 62.69
  Q 109.67 52.85 96.85 63.50
  Q 96.46 63.83 96.82 64.19
  L 117.57 84.95
  Q 118.08 85.45 118.40 84.82
  Q 122.88 76.13 131.60 71.66
  Q 132.07 71.42 131.72 71.02
  Q 125.95 64.59 123.31 62.69"
/>
<path stroke="#57585b" vector-effect="non-scaling-stroke" d="
  M 169.72 97.56
  A 25.36 25.36 0.0 0 0 144.36 72.20
  A 25.36 25.36 0.0 0 0 119.00 97.56
  A 25.36 25.36 0.0 0 0 144.36 122.92
  A 25.36 25.36 0.0 0 0 169.72 97.56"
/>
<path stroke="#8a8a8c" vector-effect="non-scaling-stroke" d="
  M 90.88 95.39
  Q 87.00 100.36 86.68 106.91
  A 0.56 0.56 0.0 0 0 87.24 107.50
  L 116.53 107.50
  Q 117.16 107.50 116.97 106.90
  Q 113.93 97.56 117.03 88.24
  Q 117.22 87.67 116.62 87.63
  C 106.69 86.98 97.33 87.12 90.88 95.39"
/>
<path stroke="#8a8a8c" vector-effect="non-scaling-stroke" d="
  M 201.79 87.51
  L 172.22 87.50
  Q 171.51 87.50 171.73 88.17
  Q 174.78 97.48 171.79 106.81
  Q 171.58 107.47 172.26 107.48
  C 177.72 107.56 183.98 108.10 188.86 106.30
  Q 200.89 101.86 202.15 87.91
  Q 202.19 87.51 201.79 87.51"
/>
<path stroke="#8a8a8c" vector-effect="non-scaling-stroke" d="
  M 132.18 123.81
  Q 123.00 119.41 118.41 110.33
  A 0.47 0.47 0.0 0 0 117.66 110.21
  C 114.10 113.75 109.63 117.57 107.40 121.69
  Q 101.00 133.53 110.16 145.13
  A 0.52 0.52 0.0 0 0 110.94 145.18
  L 132.20 123.94
  A 0.09 0.08 -54.7 0 0 132.18 123.81"
/>
<path stroke="#8a8a8c" vector-effect="non-scaling-stroke" d="
  M 156.94 124.18
  C 166.92 135.15 177.70 143.11 191.77 131.80
  A 0.57 0.56 -42.1 0 0 191.82 130.96
  L 170.99 110.08
  A 0.41 0.40 -54.5 0 0 170.34 110.19
  Q 165.95 119.11 157.04 123.62
  Q 156.62 123.83 156.94 124.18"
/>
<path stroke="#8a8a8c" vector-effect="non-scaling-stroke" d="
  M 153.69 125.07
  C 147.47 126.84 141.20 127.06 135.06 124.99
  A 0.61 0.60 -79.8 0 0 134.26 125.55
  C 134.14 131.53 133.94 138.58 136.38 143.82
  Q 141.18 154.11 153.42 155.25
  A 0.78 0.78 0.0 0 0 154.27 154.46
  L 154.24 125.48
  Q 154.24 124.92 153.69 125.07"
/>
<path stroke="#8a8a8c" vector-effect="non-scaling-stroke" d="
  M 301.30 57.51
  C 300.27 47.87 291.81 40.11 281.99 40.03
  Q 281.50 40.02 281.50 40.51
  L 281.50 69.73
  Q 281.50 70.48 282.22 70.24
  Q 291.49 67.17 300.78 70.18
  Q 301.33 70.36 301.37 69.78
  Q 301.84 62.59 301.30 57.51"
/>
<path stroke="#8a8a8c" vector-effect="non-scaling-stroke" d="
  M 324.26 50.68
  L 303.98 70.90
  A 0.37 0.37 0.0 0 0 304.07 71.49
  Q 313.01 76.03 317.53 84.99
  Q 317.77 85.46 318.14 85.08
  C 321.62 81.44 326.23 77.58 328.38 73.61
  Q 334.01 63.23 326.85 51.01
  A 1.65 1.65 0.0 0 0 324.26 50.68"
/>
<path stroke="#8a8a8c" vector-effect="non-scaling-stroke" d="
  M 244.06 64.13
  L 264.81 85.14
  Q 265.17 85.50 265.40 85.04
  Q 269.84 76.18 278.63 71.67
  A 0.64 0.64 0.0 0 0 278.79 70.66
  C 274.80 66.62 270.33 61.62 265.27 59.60
  Q 254.08 55.15 244.10 63.39
  Q 243.68 63.74 244.06 64.13"
/>
<path stroke="#57585b" vector-effect="non-scaling-stroke" d="
  M 316.83 97.57
  A 25.36 25.36 0.0 0 0 291.47 72.21
  A 25.36 25.36 0.0 0 0 266.11 97.57
  A 25.36 25.36 0.0 0 0 291.47 122.93
  A 25.36 25.36 0.0 0 0 316.83 97.57"
/>
<path stroke="#8a8a8c" vector-effect="non-scaling-stroke" d="
  M 264.14 106.97
  C 261.99 100.37 262.10 94.66 264.19 88.07
  Q 264.37 87.52 263.78 87.51
  C 259.13 87.47 253.74 87.14 249.54 88.17
  Q 235.74 91.56 233.70 106.86
  A 0.57 0.56 -86.4 0 0 234.26 107.50
  L 263.76 107.50
  Q 264.32 107.50 264.14 106.97"
/>
<path stroke="#8a8a8c" vector-effect="non-scaling-stroke" d="
  M 318.80 88.25
  C 321.02 94.44 320.90 100.35 318.83 106.95
  Q 318.66 107.50 319.23 107.50
  C 324.52 107.49 330.73 108.11 335.43 106.48
  Q 347.64 102.26 349.29 88.16
  A 0.59 0.58 -86.5 0 0 348.71 87.50
  L 319.33 87.50
  A 0.57 0.56 80.4 0 0 318.80 88.25"
/>
<path stroke="#8a8a8c" vector-effect="non-scaling-stroke" d="
  M 258.08 144.97
  L 279.02 124.37
  A 0.45 0.45 0.0 0 0 278.91 123.65
  Q 270.07 119.15 265.53 110.33
  A 0.37 0.37 0.0 0 0 264.97 110.22
  C 253.95 119.58 246.03 131.41 257.26 144.93
  Q 257.65 145.39 258.08 144.97"
/>
<path stroke="#8a8a8c" vector-effect="non-scaling-stroke" d="
  M 317.62 110.15
  Q 313.04 119.06 304.12 123.67
  Q 303.59 123.94 304.03 124.35
  C 307.88 127.92 311.76 132.70 316.08 134.84
  Q 327.28 140.39 338.65 132.20
  A 1.00 1.00 0.0 0 0 338.78 130.69
  L 318.20 110.06
  A 0.36 0.36 0.0 0 0 317.62 110.15"
/>
<path stroke="#8a8a8c" vector-effect="non-scaling-stroke" d="
  M 300.89 125.04
  C 293.93 126.88 288.88 126.96 282.11 124.93
  Q 281.53 124.75 281.52 125.36
  C 281.45 130.48 281.00 136.39 282.44 141.00
  Q 286.40 153.67 300.82 155.37
  A 0.61 0.61 0.0 0 0 301.50 154.76
  L 301.50 125.51
  A 0.49 0.48 82.3 0 0 300.89 125.04"
/>
<path stroke="#a0a1a4" vector-effect="non-scaling-stroke" d="
  M 167.53 97.59
  A 23.16 23.16 0.0 0 0 144.37 74.43
  A 23.16 23.16 0.0 0 0 121.21 97.59
  A 23.16 23.16 0.0 0 0 144.37 120.75
  A 23.16 23.16 0.0 0 0 167.53 97.59"
/>
<path stroke="#a0a1a4" vector-effect="non-scaling-stroke" d="
  M 314.63 97.59
  A 23.16 23.16 0.0 0 0 291.47 74.43
  A 23.16 23.16 0.0 0 0 268.31 97.59
  A 23.16 23.16 0.0 0 0 291.47 120.75
  A 23.16 23.16 0.0 0 0 314.63 97.59"
/>
</g>
<path fill="#211f20" d="
  M 319.98 20.16
  L 319.39 23.65
  A 0.62 0.61 -84.9 0 1 318.79 24.16
  Q 274.53 24.56 230.27 23.86
  C 226.26 23.79 221.37 23.00 217.24 23.00
  C 202.62 23.02 186.60 24.25 172.01 24.26
  C 144.45 24.27 116.87 24.50 89.32 23.89
  Q 71.13 23.49 52.76 24.39
  A 0.84 0.84 0.0 0 0 51.95 25.23
  L 52.10 170.30
  Q 52.10 171.00 52.80 171.00
  L 317.96 171.00
  A 1.22 1.22 0.0 0 1 319.17 172.05
  L 319.96 177.50
  C 320.35 178.58 319.80 179.10 318.75 179.12
  Q 282.54 179.73 246.43 179.33
  A 0.74 0.74 0.0 0 0 245.68 180.15
  L 246.13 184.06
  Q 246.23 184.93 247.09 184.83
  Q 249.52 184.57 251.91 184.91
  Q 252.69 185.02 252.67 185.81
  L 252.53 192.05
  A 0.82 0.82 0.0 0 1 251.70 192.85
  L 236.78 192.71
  A 0.96 0.96 0.0 0 1 235.83 191.78
  L 235.54 184.69
  A 1.34 1.30 20.4 0 0 235.09 183.75
  Q 233.74 182.57 232.02 183.20
  A 0.96 0.95 84.8 0 0 231.40 183.95
  Q 230.37 190.09 230.83 196.34
  A 1.36 1.36 0.0 0 1 229.46 197.80
  L 122.33 196.85
  Q 120.77 196.83 120.59 195.28
  Q 120.00 190.03 120.40 184.01
  C 120.46 183.14 120.19 182.44 119.33 182.30
  A 0.68 0.68 0.0 0 0 118.54 182.89
  L 117.27 194.86
  A 2.40 2.39 -86.9 0 1 114.89 197.00
  L 103.03 197.00
  A 2.29 2.28 89.9 0 1 100.75 194.72
  L 100.75 180.18
  A 0.62 0.62 0.0 0 0 100.18 179.56
  L 95.45 179.22
  A 1.02 1.02 0.0 0 0 94.36 180.31
  L 94.96 187.96
  A 1.42 1.42 0.0 0 1 93.54 189.50
  L 83.14 189.50
  A 0.59 0.59 0.0 0 1 82.55 188.89
  L 82.71 180.71
  A 1.27 1.27 0.0 0 0 81.46 179.42
  L 56.26 178.93
  Q 55.78 178.92 55.58 179.35
  Q 53.58 183.66 54.94 188.21
  A 1.00 0.99 -8.8 0 1 54.00 189.49
  L 37.33 189.83
  Q 36.26 189.86 36.24 190.92
  L 35.57 219.42
  A 1.42 1.42 0.0 0 1 34.06 220.80
  L 28.31 220.46
  A 1.70 1.70 0.0 0 1 26.72 218.77
  L 26.70 188.54
  Q 29.91 187.30 34.02 188.02
  A 1.05 1.05 0.0 0 0 35.25 186.99
  L 35.25 182.29
  Q 35.25 181.89 34.86 181.83
  Q 31.65 181.32 28.41 181.57
  Q 27.68 181.62 27.72 180.89
  L 27.81 179.44
  A 0.44 0.44 0.0 0 1 28.24 179.03
  L 34.29 178.94
  Q 35.00 178.93 35.00 178.22
  L 35.00 153.40
  A 0.66 0.65 0.0 0 0 34.34 152.75
  L 28.53 152.75
  Q 27.87 152.75 27.82 152.10
  L 27.73 150.97
  Q 27.69 150.37 28.29 150.34
  L 34.52 150.00
  Q 35.25 149.96 35.25 149.23
  L 35.25 144.37
  Q 35.25 143.75 34.62 143.75
  L 28.55 143.75
  Q 27.92 143.75 27.83 143.12
  L 27.69 142.07
  Q 27.63 141.63 27.20 141.50
  Q 26.89 141.41 26.54 141.50
  L 26.55 131.39
  L 40.32 131.10
  Q 40.75 131.10 40.75 130.67
  L 40.75 122.00
  Q 40.75 121.50 40.25 121.50
  L 28.98 121.50
  A 1.07 1.06 74.7 0 1 28.06 120.97
  Q 27.60 120.19 26.75 120.21
  L 26.50 118.87
  L 44.71 118.55
  Q 45.25 118.54 45.25 118.00
  L 45.25 79.38
  A 0.63 0.63 0.0 0 0 44.62 78.75
  L 28.38 78.75
  Q 27.75 78.75 27.75 78.12
  L 27.75 76.37
  Q 27.75 75.75 28.37 75.75
  L 40.52 75.75
  A 0.50 0.50 0.0 0 0 41.02 75.23
  L 40.67 66.70
  Q 40.65 66.25 40.20 66.25
  L 28.76 66.25
  A 0.92 0.89 67.4 0 1 28.11 65.97
  Q 27.95 65.80 27.73 65.71
  L 27.69 17.98
  Q 27.69 17.44 28.22 17.43
  L 69.31 16.51
  Q 76.44 16.22 92.81 16.23
  Q 204.66 16.27 316.50 16.24
  Q 317.70 16.24 319.39 16.63
  A 0.73 0.73 0.0 0 1 319.95 17.33
  L 319.98 20.16
  Z
  M 43.51 31.75
  A 5.03 5.03 0.0 0 0 38.48 26.72
  A 5.03 5.03 0.0 0 0 33.45 31.75
  A 5.03 5.03 0.0 0 0 38.48 36.78
  A 5.03 5.03 0.0 0 0 43.51 31.75
  Z"
/>
<path fill="#414143" d="
  M 69.31 16.51
  L 28.22 17.43
  Q 27.69 17.44 27.69 17.98
  L 27.73 65.71
  L 26.67 65.76
  L 26.71 18.36
  A 2.02 2.02 0.0 0 1 28.74 16.34
  L 69.31 16.51
  Z"
/>
<path fill="#414143" d="
  M 319.98 20.16
  L 320.28 23.23
  Q 320.33 23.78 320.87 23.78
  L 345.64 23.82
  A 3.72 3.66 -23.7 0 1 348.06 24.74
  Q 358.78 34.24 369.43 43.82
  C 371.47 45.65 369.80 67.08 369.79 69.72
  Q 369.70 110.74 369.77 151.75
  C 369.77 153.93 367.70 155.00 366.26 156.20
  C 362.76 159.12 349.36 171.68 345.71 171.73
  Q 333.91 171.90 322.12 171.49
  Q 320.33 171.43 320.22 173.22
  L 319.96 177.50
  L 319.17 172.05
  A 1.22 1.22 0.0 0 0 317.96 171.00
  L 52.80 171.00
  Q 52.10 171.00 52.10 170.30
  L 51.95 25.23
  A 0.84 0.84 0.0 0 1 52.76 24.39
  Q 71.13 23.49 89.32 23.89
  C 116.87 24.50 144.45 24.27 172.01 24.26
  C 186.60 24.25 202.62 23.02 217.24 23.00
  C 221.37 23.00 226.26 23.79 230.27 23.86
  Q 274.53 24.56 318.79 24.16
  A 0.62 0.61 -84.9 0 0 319.39 23.65
  L 319.98 20.16
  Z
  M 207.68 97.57
  A 64.74 64.74 0.0 0 0 142.94 32.83
  A 64.74 64.74 0.0 0 0 78.20 97.57
  A 64.74 64.74 0.0 0 0 142.94 162.31
  A 64.74 64.74 0.0 0 0 207.68 97.57
  Z
  M 354.80 97.59
  A 64.73 64.73 0.0 0 0 290.07 32.86
  A 64.73 64.73 0.0 0 0 225.34 97.59
  A 64.73 64.73 0.0 0 0 290.07 162.32
  A 64.73 64.73 0.0 0 0 354.80 97.59
  Z"
/>
<circle fill="#6d6e72" cx="38.48" cy="31.75" r="5.03"/>
<path fill="#6d6e72" d="
  M 207.68 97.57
  A 64.74 64.74 0.0 0 1 142.94 162.31
  A 64.74 64.74 0.0 0 1 78.20 97.57
  A 64.74 64.74 0.0 0 1 142.94 32.83
  A 64.74 64.74 0.0 0 1 207.68 97.57
  Z
  M 204.89 97.60
  A 61.98 61.98 0.0 0 0 142.91 35.62
  A 61.98 61.98 0.0 0 0 80.93 97.60
  A 61.98 61.98 0.0 0 0 142.91 159.58
  A 61.98 61.98 0.0 0 0 204.89 97.60
  Z"
/>
<path fill="#6d6e72" d="
  M 354.80 97.59
  A 64.73 64.73 0.0 0 1 290.07 162.32
  A 64.73 64.73 0.0 0 1 225.34 97.59
  A 64.73 64.73 0.0 0 1 290.07 32.86
  A 64.73 64.73 0.0 0 1 354.80 97.59
  Z
  M 352.04 97.61
  A 61.99 61.99 0.0 0 0 290.05 35.62
  A 61.99 61.99 0.0 0 0 228.06 97.61
  A 61.99 61.99 0.0 0 0 290.05 159.60
  A 61.99 61.99 0.0 0 0 352.04 97.61
  Z"
/>
<path fill="#414143" d="
  M 204.89 97.60
  A 61.98 61.98 0.0 0 1 142.91 159.58
  A 61.98 61.98 0.0 0 1 80.93 97.60
  A 61.98 61.98 0.0 0 1 142.91 35.62
  A 61.98 61.98 0.0 0 1 204.89 97.60
  Z
  M 154.10 56.69
  C 152.96 47.54 144.41 40.42 135.07 39.91
  Q 134.46 39.88 134.45 40.50
  L 134.28 69.75
  Q 134.28 70.51 135.00 70.27
  Q 144.37 67.17 153.73 70.22
  Q 154.19 70.37 154.21 69.88
  Q 154.52 60.09 154.10 56.69
  Z
  M 178.42 50.06
  A 0.40 0.39 -41.7 0 0 177.84 50.03
  L 156.89 70.92
  Q 156.53 71.28 156.99 71.52
  Q 165.89 76.13 170.48 85.05
  A 0.33 0.33 0.0 0 0 171.01 85.13
  C 174.96 81.24 179.83 77.04 181.99 72.24
  Q 187.21 60.63 178.42 50.06
  Z
  M 123.31 62.69
  Q 109.67 52.85 96.85 63.50
  Q 96.46 63.83 96.82 64.19
  L 117.57 84.95
  Q 118.08 85.45 118.40 84.82
  Q 122.88 76.13 131.60 71.66
  Q 132.07 71.42 131.72 71.02
  Q 125.95 64.59 123.31 62.69
  Z
  M 169.72 97.56
  A 25.36 25.36 0.0 0 0 144.36 72.20
  A 25.36 25.36 0.0 0 0 119.00 97.56
  A 25.36 25.36 0.0 0 0 144.36 122.92
  A 25.36 25.36 0.0 0 0 169.72 97.56
  Z
  M 90.88 95.39
  Q 87.00 100.36 86.68 106.91
  A 0.56 0.56 0.0 0 0 87.24 107.50
  L 116.53 107.50
  Q 117.16 107.50 116.97 106.90
  Q 113.93 97.56 117.03 88.24
  Q 117.22 87.67 116.62 87.63
  C 106.69 86.98 97.33 87.12 90.88 95.39
  Z
  M 201.79 87.51
  L 172.22 87.50
  Q 171.51 87.50 171.73 88.17
  Q 174.78 97.48 171.79 106.81
  Q 171.58 107.47 172.26 107.48
  C 177.72 107.56 183.98 108.10 188.86 106.30
  Q 200.89 101.86 202.15 87.91
  Q 202.19 87.51 201.79 87.51
  Z
  M 132.18 123.81
  Q 123.00 119.41 118.41 110.33
  A 0.47 0.47 0.0 0 0 117.66 110.21
  C 114.10 113.75 109.63 117.57 107.40 121.69
  Q 101.00 133.53 110.16 145.13
  A 0.52 0.52 0.0 0 0 110.94 145.18
  L 132.20 123.94
  A 0.09 0.08 -54.7 0 0 132.18 123.81
  Z
  M 156.94 124.18
  C 166.92 135.15 177.70 143.11 191.77 131.80
  A 0.57 0.56 -42.1 0 0 191.82 130.96
  L 170.99 110.08
  A 0.41 0.40 -54.5 0 0 170.34 110.19
  Q 165.95 119.11 157.04 123.62
  Q 156.62 123.83 156.94 124.18
  Z
  M 153.69 125.07
  C 147.47 126.84 141.20 127.06 135.06 124.99
  A 0.61 0.60 -79.8 0 0 134.26 125.55
  C 134.14 131.53 133.94 138.58 136.38 143.82
  Q 141.18 154.11 153.42 155.25
  A 0.78 0.78 0.0 0 0 154.27 154.46
  L 154.24 125.48
  Q 154.24 124.92 153.69 125.07
  Z"
/>
<path fill="#414143" d="
  M 352.04 97.61
  A 61.99 61.99 0.0 0 1 290.05 159.60
  A 61.99 61.99 0.0 0 1 228.06 97.61
  A 61.99 61.99 0.0 0 1 290.05 35.62
  A 61.99 61.99 0.0 0 1 352.04 97.61
  Z
  M 301.30 57.51
  C 300.27 47.87 291.81 40.11 281.99 40.03
  Q 281.50 40.02 281.50 40.51
  L 281.50 69.73
  Q 281.50 70.48 282.22 70.24
  Q 291.49 67.17 300.78 70.18
  Q 301.33 70.36 301.37 69.78
  Q 301.84 62.59 301.30 57.51
  Z
  M 324.26 50.68
  L 303.98 70.90
  A 0.37 0.37 0.0 0 0 304.07 71.49
  Q 313.01 76.03 317.53 84.99
  Q 317.77 85.46 318.14 85.08
  C 321.62 81.44 326.23 77.58 328.38 73.61
  Q 334.01 63.23 326.85 51.01
  A 1.65 1.65 0.0 0 0 324.26 50.68
  Z
  M 244.06 64.13
  L 264.81 85.14
  Q 265.17 85.50 265.40 85.04
  Q 269.84 76.18 278.63 71.67
  A 0.64 0.64 0.0 0 0 278.79 70.66
  C 274.80 66.62 270.33 61.62 265.27 59.60
  Q 254.08 55.15 244.10 63.39
  Q 243.68 63.74 244.06 64.13
  Z
  M 316.83 97.57
  A 25.36 25.36 0.0 0 0 291.47 72.21
  A 25.36 25.36 0.0 0 0 266.11 97.57
  A 25.36 25.36 0.0 0 0 291.47 122.93
  A 25.36 25.36 0.0 0 0 316.83 97.57
  Z
  M 264.14 106.97
  C 261.99 100.37 262.10 94.66 264.19 88.07
  Q 264.37 87.52 263.78 87.51
  C 259.13 87.47 253.74 87.14 249.54 88.17
  Q 235.74 91.56 233.70 106.86
  A 0.57 0.56 -86.4 0 0 234.26 107.50
  L 263.76 107.50
  Q 264.32 107.50 264.14 106.97
  Z
  M 318.80 88.25
  C 321.02 94.44 320.90 100.35 318.83 106.95
  Q 318.66 107.50 319.23 107.50
  C 324.52 107.49 330.73 108.11 335.43 106.48
  Q 347.64 102.26 349.29 88.16
  A 0.59 0.58 -86.5 0 0 348.71 87.50
  L 319.33 87.50
  A 0.57 0.56 80.4 0 0 318.80 88.25
  Z
  M 258.08 144.97
  L 279.02 124.37
  A 0.45 0.45 0.0 0 0 278.91 123.65
  Q 270.07 119.15 265.53 110.33
  A 0.37 0.37 0.0 0 0 264.97 110.22
  C 253.95 119.58 246.03 131.41 257.26 144.93
  Q 257.65 145.39 258.08 144.97
  Z
  M 317.62 110.15
  Q 313.04 119.06 304.12 123.67
  Q 303.59 123.94 304.03 124.35
  C 307.88 127.92 311.76 132.70 316.08 134.84
  Q 327.28 140.39 338.65 132.20
  A 1.00 1.00 0.0 0 0 338.78 130.69
  L 318.20 110.06
  A 0.36 0.36 0.0 0 0 317.62 110.15
  Z
  M 300.89 125.04
  C 293.93 126.88 288.88 126.96 282.11 124.93
  Q 281.53 124.75 281.52 125.36
  C 281.45 130.48 281.00 136.39 282.44 141.00
  Q 286.40 153.67 300.82 155.37
  A 0.61 0.61 0.0 0 0 301.50 154.76
  L 301.50 125.51
  A 0.49 0.48 82.3 0 0 300.89 125.04
  Z"
/>
<path fill="#d2d3d5" d="
  M 135.07 39.91
  C 144.41 40.42 152.96 47.54 154.10 56.69
  Q 154.52 60.09 154.21 69.88
  Q 154.19 70.37 153.73 70.22
  Q 144.37 67.17 135.00 70.27
  Q 134.28 70.51 134.28 69.75
  L 134.45 40.50
  Q 134.46 39.88 135.07 39.91
  Z"
/>
<path fill="#d2d3d5" d="
  M 281.99 40.03
  C 291.81 40.11 300.27 47.87 301.30 57.51
  Q 301.84 62.59 301.37 69.78
  Q 301.33 70.36 300.78 70.18
  Q 291.49 67.17 282.22 70.24
  Q 281.50 70.48 281.50 69.73
  L 281.50 40.51
  Q 281.50 40.02 281.99 40.03
  Z"
/>
<path fill="#d2d3d5" d="
  M 178.42 50.06
  Q 187.21 60.63 181.99 72.24
  C 179.83 77.04 174.96 81.24 171.01 85.13
  A 0.33 0.33 0.0 0 1 170.48 85.05
  Q 165.89 76.13 156.99 71.52
  Q 156.53 71.28 156.89 70.92
  L 177.84 50.03
  A 0.40 0.39 -41.7 0 1 178.42 50.06
  Z"
/>
<path fill="#d2d3d5" d="
  M 303.98 70.90
  L 324.26 50.68
  A 1.65 1.65 0.0 0 1 326.85 51.01
  Q 334.01 63.23 328.38 73.61
  C 326.23 77.58 321.62 81.44 318.14 85.08
  Q 317.77 85.46 317.53 84.99
  Q 313.01 76.03 304.07 71.49
  A 0.37 0.37 0.0 0 1 303.98 70.90
  Z"
/>
<path fill="#d2d3d5" d="
  M 123.31 62.69
  Q 125.95 64.59 131.72 71.02
  Q 132.07 71.42 131.60 71.66
  Q 122.88 76.13 118.40 84.82
  Q 118.08 85.45 117.57 84.95
  L 96.82 64.19
  Q 96.46 63.83 96.85 63.50
  Q 109.67 52.85 123.31 62.69
  Z"
/>
<path fill="#d2d3d5" d="
  M 264.81 85.14
  L 244.06 64.13
  Q 243.68 63.74 244.10 63.39
  Q 254.08 55.15 265.27 59.60
  C 270.33 61.62 274.80 66.62 278.79 70.66
  A 0.64 0.64 0.0 0 1 278.63 71.67
  Q 269.84 76.18 265.40 85.04
  Q 265.17 85.50 264.81 85.14
  Z"
/>
<path fill="#6d6e72" d="
  M 26.67 65.76
  L 27.73 65.71
  Q 27.95 65.80 28.11 65.97
  A 0.92 0.89 67.4 0 0 28.76 66.25
  L 40.20 66.25
  Q 40.65 66.25 40.67 66.70
  L 41.02 75.23
  A 0.50 0.50 0.0 0 1 40.52 75.75
  L 28.37 75.75
  Q 27.75 75.75 27.75 76.37
  L 27.75 78.12
  Q 27.75 78.75 28.38 78.75
  L 44.62 78.75
  A 0.63 0.63 0.0 0 1 45.25 79.38
  L 45.25 118.00
  Q 45.25 118.54 44.71 118.55
  L 26.50 118.87
  L 15.78 118.78
  Q 13.25 118.75 13.25 116.22
  L 13.25 80.44
  A 1.42 1.42 0.0 0 1 14.62 79.02
  L 25.80 78.67
  A 0.85 0.85 0.0 0 0 26.52 78.24
  Q 27.02 77.34 26.37 76.38
  Q 26.17 76.08 25.82 76.12
  Q 22.20 76.50 18.81 74.98
  Q 18.36 74.78 18.37 74.28
  L 18.41 67.16
  Q 18.41 66.63 18.94 66.59
  C 21.57 66.38 24.92 67.09 26.67 65.76
  Z"
/>
<path fill="#6d6e72" d="
  M 169.72 97.56
  A 25.36 25.36 0.0 0 1 144.36 122.92
  A 25.36 25.36 0.0 0 1 119.00 97.56
  A 25.36 25.36 0.0 0 1 144.36 72.20
  A 25.36 25.36 0.0 0 1 169.72 97.56
  Z
  M 167.53 97.59
  A 23.16 23.16 0.0 0 0 144.37 74.43
  A 23.16 23.16 0.0 0 0 121.21 97.59
  A 23.16 23.16 0.0 0 0 144.37 120.75
  A 23.16 23.16 0.0 0 0 167.53 97.59
  Z"
/>
<path fill="#6d6e72" d="
  M 316.83 97.57
  A 25.36 25.36 0.0 0 1 291.47 122.93
  A 25.36 25.36 0.0 0 1 266.11 97.57
  A 25.36 25.36 0.0 0 1 291.47 72.21
  A 25.36 25.36 0.0 0 1 316.83 97.57
  Z
  M 314.63 97.59
  A 23.16 23.16 0.0 0 0 291.47 74.43
  A 23.16 23.16 0.0 0 0 268.31 97.59
  A 23.16 23.16 0.0 0 0 291.47 120.75
  A 23.16 23.16 0.0 0 0 314.63 97.59
  Z"
/>
<circle fill="#d2d3d5" cx="144.37" cy="97.59" r="23.16"/>
<circle fill="#d2d3d5" cx="291.47" cy="97.59" r="23.16"/>
<path fill="#d2d3d5" d="
  M 90.88 95.39
  C 97.33 87.12 106.69 86.98 116.62 87.63
  Q 117.22 87.67 117.03 88.24
  Q 113.93 97.56 116.97 106.90
  Q 117.16 107.50 116.53 107.50
  L 87.24 107.50
  A 0.56 0.56 0.0 0 1 86.68 106.91
  Q 87.00 100.36 90.88 95.39
  Z"
/>
<path fill="#d2d3d5" d="
  M 201.79 87.51
  Q 202.19 87.51 202.15 87.91
  Q 200.89 101.86 188.86 106.30
  C 183.98 108.10 177.72 107.56 172.26 107.48
  Q 171.58 107.47 171.79 106.81
  Q 174.78 97.48 171.73 88.17
  Q 171.51 87.50 172.22 87.50
  L 201.79 87.51
  Z"
/>
<path fill="#d2d3d5" d="
  M 264.19 88.07
  C 262.10 94.66 261.99 100.37 264.14 106.97
  Q 264.32 107.50 263.76 107.50
  L 234.26 107.50
  A 0.57 0.56 -86.4 0 1 233.70 106.86
  Q 235.74 91.56 249.54 88.17
  C 253.74 87.14 259.13 87.47 263.78 87.51
  Q 264.37 87.52 264.19 88.07
  Z"
/>
<path fill="#d2d3d5" d="
  M 318.83 106.95
  C 320.90 100.35 321.02 94.44 318.80 88.25
  A 0.57 0.56 80.4 0 1 319.33 87.50
  L 348.71 87.50
  A 0.59 0.58 -86.5 0 1 349.29 88.16
  Q 347.64 102.26 335.43 106.48
  C 330.73 108.11 324.52 107.49 319.23 107.50
  Q 318.66 107.50 318.83 106.95
  Z"
/>
<path fill="#d2d3d5" d="
  M 132.18 123.81
  A 0.09 0.08 -54.7 0 1 132.20 123.94
  L 110.94 145.18
  A 0.52 0.52 0.0 0 1 110.16 145.13
  Q 101.00 133.53 107.40 121.69
  C 109.63 117.57 114.10 113.75 117.66 110.21
  A 0.47 0.47 0.0 0 1 118.41 110.33
  Q 123.00 119.41 132.18 123.81
  Z"
/>
<path fill="#d2d3d5" d="
  M 191.77 131.80
  C 177.70 143.11 166.92 135.15 156.94 124.18
  Q 156.62 123.83 157.04 123.62
  Q 165.95 119.11 170.34 110.19
  A 0.41 0.40 -54.5 0 1 170.99 110.08
  L 191.82 130.96
  A 0.57 0.56 -42.1 0 1 191.77 131.80
  Z"
/>
<path fill="#d2d3d5" d="
  M 279.02 124.37
  L 258.08 144.97
  Q 257.65 145.39 257.26 144.93
  C 246.03 131.41 253.95 119.58 264.97 110.22
  A 0.37 0.37 0.0 0 1 265.53 110.33
  Q 270.07 119.15 278.91 123.65
  A 0.45 0.45 0.0 0 1 279.02 124.37
  Z"
/>
<path fill="#d2d3d5" d="
  M 317.62 110.15
  A 0.36 0.36 0.0 0 1 318.20 110.06
  L 338.78 130.69
  A 1.00 1.00 0.0 0 1 338.65 132.20
  Q 327.28 140.39 316.08 134.84
  C 311.76 132.70 307.88 127.92 304.03 124.35
  Q 303.59 123.94 304.12 123.67
  Q 313.04 119.06 317.62 110.15
  Z"
/>
<path fill="#6d6e72" d="
  M 26.75 120.21
  Q 27.60 120.19 28.06 120.97
  A 1.07 1.06 74.7 0 0 28.98 121.50
  L 40.25 121.50
  Q 40.75 121.50 40.75 122.00
  L 40.75 130.67
  Q 40.75 131.10 40.32 131.10
  L 26.55 131.39
  L 19.17 131.22
  Q 18.65 131.21 18.56 130.70
  C 18.08 128.02 18.44 125.76 18.47 123.15
  C 18.51 119.93 26.17 123.73 26.75 120.21
  Z"
/>
<path fill="#d2d3d5" d="
  M 135.06 124.99
  C 141.20 127.06 147.47 126.84 153.69 125.07
  Q 154.24 124.92 154.24 125.48
  L 154.27 154.46
  A 0.78 0.78 0.0 0 1 153.42 155.25
  Q 141.18 154.11 136.38 143.82
  C 133.94 138.58 134.14 131.53 134.26 125.55
  A 0.61 0.60 -79.8 0 1 135.06 124.99
  Z"
/>
<path fill="#d2d3d5" d="
  M 282.11 124.93
  C 288.88 126.96 293.93 126.88 300.89 125.04
  A 0.49 0.48 82.3 0 1 301.50 125.51
  L 301.50 154.76
  A 0.61 0.61 0.0 0 1 300.82 155.37
  Q 286.40 153.67 282.44 141.00
  C 281.00 136.39 281.45 130.48 281.52 125.36
  Q 281.53 124.75 282.11 124.93
  Z"
/>
<path fill="#6d6e72" d="
  M 26.54 141.50
  Q 26.89 141.41 27.20 141.50
  Q 27.63 141.63 27.69 142.07
  L 27.83 143.12
  Q 27.92 143.75 28.55 143.75
  L 34.62 143.75
  Q 35.25 143.75 35.25 144.37
  L 35.25 149.23
  Q 35.25 149.96 34.52 150.00
  L 28.29 150.34
  Q 27.69 150.37 27.73 150.97
  L 27.82 152.10
  Q 27.87 152.75 28.53 152.75
  L 34.34 152.75
  A 0.66 0.65 -0.0 0 1 35.00 153.40
  L 35.00 178.22
  Q 35.00 178.93 34.29 178.94
  L 28.24 179.03
  A 0.44 0.44 0.0 0 0 27.81 179.44
  L 27.72 180.89
  Q 27.68 181.62 28.41 181.57
  Q 31.65 181.32 34.86 181.83
  Q 35.25 181.89 35.25 182.29
  L 35.25 186.99
  A 1.05 1.05 0.0 0 1 34.02 188.02
  Q 29.91 187.30 26.70 188.54
  L 19.86 188.25
  Q 19.24 188.22 19.28 187.60
  L 19.59 182.93
  Q 19.64 182.25 20.32 182.25
  L 25.77 182.25
  Q 26.33 182.25 26.38 181.69
  L 26.54 179.93
  Q 26.60 179.25 25.92 179.25
  L 20.59 179.25
  Q 18.68 179.25 18.71 177.34
  L 19.04 154.89
  A 1.36 1.36 0.0 0 1 20.36 153.55
  L 25.42 153.39
  Q 26.20 153.37 26.41 152.62
  C 27.48 148.77 21.99 150.02 19.99 149.91
  A 0.58 0.58 0.0 0 1 19.44 149.31
  L 19.56 145.25
  Q 19.58 144.59 20.25 144.54
  L 25.65 144.17
  Q 26.23 144.13 26.41 143.58
  Q 26.73 142.63 26.54 141.50
  Z"
/>
</svg>
