<?xml version="1.0" encoding="UTF-8" standalone="no"?>
<!DOCTYPE svg PUBLIC "-//W3C//DTD SVG 1.1//EN" "http://www.w3.org/Graphics/SVG/1.1/DTD/svg11.dtd">
<svg xmlns="http://www.w3.org/2000/svg" version="1.1" viewBox="0.00 0.00 572.00 90.00">
<g stroke-width="2.00" fill="none" stroke-linecap="butt">
<path stroke="#7c7c7c" vector-effect="non-scaling-stroke" d="
  M 8.37 6.00
  L 7.47 15.22"
/>
<path stroke="#7c7c7c" vector-effect="non-scaling-stroke" d="
  M 15.47 15.92
  Q 16.99 18.70 22.16 17.56
  A 1.63 1.58 49.3 0 1 23.16 17.65
  Q 26.27 18.95 26.38 16.00"
/>
<path stroke="#4d4d4d" vector-effect="non-scaling-stroke" d="
  M 29.50 16.80
  Q 29.96 17.48 29.67 18.52"
/>
<path stroke="#a3a3a2" vector-effect="non-scaling-stroke" d="
  M 29.67 18.52
  Q 29.39 17.32 28.50 17.22
  A 1.26 1.25 -86.4 0 0 27.09 18.47
  L 27.22 43.17
  A 0.80 0.80 0.0 0 1 26.61 43.95
  Q 24.39 44.50 23.46 42.67
  Q 23.21 42.18 22.67 42.26
  Q 21.24 42.46 20.25 43.46"
/>
<path stroke="#c2c2c2" vector-effect="non-scaling-stroke" d="
  M 20.25 43.46
  Q 15.14 41.41 12.85 48.20"
/>
<path stroke="#a3a3a2" vector-effect="non-scaling-stroke" d="
  M 12.85 48.20
  Q 10.50 45.53 8.26 45.59
  Q 7.62 45.61 7.57 46.24
  L 7.36 48.75"
/>
<path stroke="#7c7c7c" vector-effect="non-scaling-stroke" d="
  M 7.36 48.75
  L 7.95 32.62
  Q 7.97 32.09 8.44 31.84
  Q 12.05 29.96 14.69 26.20"
/>
<path stroke="#1c1c1c" vector-effect="non-scaling-stroke" d="
  M 32.81 17.72
  Q 32.49 23.75 32.17 29.75
  C 31.69 38.49 32.30 47.43 32.52 56.21"
/>
<path stroke="#434343" vector-effect="non-scaling-stroke" d="
  M 32.52 56.21
  L 34.81 68.30"
/>
<path stroke="#5d5d5d" vector-effect="non-scaling-stroke" d="
  M 34.81 68.30
  Q 35.53 70.33 34.90 72.38
  Q 34.75 72.86 34.88 73.36
  L 38.20 85.94"
/>
<path stroke="#6a6969" vector-effect="non-scaling-stroke" d="
  M 26.21 82.78
  Q 28.70 82.97 31.47 81.95"
/>
<path stroke="#434343" vector-effect="non-scaling-stroke" d="
  M 31.47 81.95
  Q 32.13 70.86 30.15 59.56"
/>
<path stroke="#6a6969" vector-effect="non-scaling-stroke" d="
  M 30.15 59.56
  L 29.67 18.52"
/>
<path stroke="#999998" vector-effect="non-scaling-stroke" d="
  M 30.15 59.56
  Q 29.39 70.99 31.47 81.95"
/>
<path stroke="#a3a3a2" vector-effect="non-scaling-stroke" d="
  M 7.80 82.97
  L 7.26 73.25"
/>
<path stroke="#999998" vector-effect="non-scaling-stroke" d="
  M 6.88 55.56
  Q 7.81 52.29 7.36 48.75"
/>
<path stroke="#dfdfde" vector-effect="non-scaling-stroke" d="
  M 12.85 48.20
  Q 12.00 51.42 13.17 54.58
  C 16.93 64.75 30.66 51.51 20.25 43.46"
/>
<path stroke="#919191" vector-effect="non-scaling-stroke" d="
  M 547.68 50.46
  L 480.97 51.30"
/>
<path stroke="#656565" vector-effect="non-scaling-stroke" d="
  M 480.97 51.30
  Q 479.83 51.32 479.91 50.90"
/>
<path stroke="#919191" vector-effect="non-scaling-stroke" d="
  M 479.91 50.90
  C 476.10 46.84 452.61 21.62 449.00 21.64
  Q 333.87 22.14 218.75 22.57"
/>
<path stroke="#727271" vector-effect="non-scaling-stroke" d="
  M 218.75 22.57
  L 187.75 22.48"
/>
<path stroke="#555555" vector-effect="non-scaling-stroke" d="
  M 187.75 22.48
  C 185.22 21.94 183.03 21.91 180.89 23.72
  C 173.19 30.28 166.34 37.57 158.82 44.31"
/>
<path stroke="#1c1c1c" vector-effect="non-scaling-stroke" d="
  M 158.82 44.31
  Q 158.79 43.67 158.44 43.43
  A 0.68 0.68 0.0 0 0 157.63 43.45
  L 153.11 46.97
  Q 152.58 47.38 151.92 47.26
  Q 143.70 45.77 138.44 46.40
  C 134.67 46.86 130.83 46.27 128.18 46.34
  Q 112.28 46.75 96.38 46.63
  Q 95.38 46.62 94.00 46.43
  Q 93.18 46.32 92.35 46.26
  Q 91.89 46.23 91.47 46.05
  Q 90.16 45.49 90.28 44.30
  A 1.62 1.62 0.0 0 0 88.71 42.52
  Q 82.39 42.38 76.19 43.06
  Q 70.29 43.72 57.24 42.37
  Q 55.87 42.22 56.22 44.27"
/>
<path stroke="#727271" vector-effect="non-scaling-stroke" d="
  M 56.22 44.27
  Q 55.69 42.95 54.49 42.97
  Q 43.77 43.12 32.98 42.88
  Q 32.47 42.87 32.49 43.38
  L 32.79 49.50"
/>
<path stroke="#4b4b4b" vector-effect="non-scaling-stroke" d="
  M 32.79 49.50
  L 32.52 56.21"
/>
<path stroke="#e2ca5b" vector-effect="non-scaling-stroke" d="
  M 51.62 14.81
  Q 50.73 18.40 52.16 18.51"
/>
<path stroke="#716533" vector-effect="non-scaling-stroke" d="
  M 52.16 18.51
  C 49.43 18.27 36.82 16.85 35.20 18.65"
/>
<path stroke="#796e3b" vector-effect="non-scaling-stroke" d="
  M 35.20 18.65
  L 32.81 17.72"
/>
<path stroke="#716533" vector-effect="non-scaling-stroke" d="
  M 32.81 17.72
  Q 32.06 16.21 31.05 15.74"
/>
<path stroke="#8c8c8c" vector-effect="non-scaling-stroke" d="
  M 35.04 66.75
  Q 35.11 67.56 34.81 68.30"
/>
<path stroke="#b3b3b2" vector-effect="non-scaling-stroke" d="
  M 132.57 74.56
  L 126.28 80.76
  A 0.45 0.45 0.0 0 0 126.78 81.49
  Q 128.16 80.85 129.56 80.29
  Q 129.99 80.12 130.45 80.13
  C 133.58 80.19 139.73 80.70 142.67 80.04
  C 146.52 79.19 150.09 79.26 154.00 79.18
  C 166.77 78.91 178.19 79.59 190.37 78.94
  C 195.60 78.66 203.13 79.45 206.12 79.49
  C 215.02 79.62 222.91 79.67 232.69 79.16
  Q 240.29 78.76 244.50 79.37
  C 248.64 79.96 252.56 79.50 255.82 79.76
  C 259.80 80.09 264.07 79.44 267.82 80.86
  Q 268.26 81.02 268.58 80.67
  Q 269.59 79.51 271.19 80.21
  Q 271.66 80.41 272.16 80.36
  Q 280.16 79.53 286.07 80.15
  C 291.95 80.76 297.26 79.73 302.44 79.92
  C 306.45 80.06 310.84 80.30 314.81 80.23
  Q 329.65 79.97 345.08 78.73"
/>
<path stroke="#434343" vector-effect="non-scaling-stroke" d="
  M 551.30 17.61
  L 525.88 17.99
  Q 525.56 18.00 525.30 17.81
  Q 525.18 17.73 525.06 17.63
  Q 524.68 17.33 524.21 17.47
  Q 521.40 18.34 518.48 17.93
  A 1.49 1.48 3.9 0 0 516.79 19.40
  L 516.78 35.92
  A 0.59 0.59 0.0 0 0 517.37 36.51
  L 526.83 36.59"
/>
<path stroke="#1c1c1c" vector-effect="non-scaling-stroke" d="
  M 526.83 36.59
  L 526.80 38.04
  Q 526.79 38.78 527.53 38.78
  L 540.98 38.80
  A 0.82 0.81 -80.4 0 0 541.75 38.25
  Q 542.11 37.19 542.75 36.54"
/>
<path stroke="#434343" vector-effect="non-scaling-stroke" d="
  M 542.75 36.54
  L 551.69 36.50
  Q 552.22 36.49 552.22 35.96
  L 552.46 19.09"
/>
<path stroke="#6a6969" vector-effect="non-scaling-stroke" d="
  M 555.99 41.39
  Q 555.53 41.36 555.02 41.54
  Q 554.59 41.68 554.57 42.14
  L 554.32 49.44
  Q 554.30 50.10 553.65 50.22
  L 552.45 50.45"
/>
<path stroke="#898989" vector-effect="non-scaling-stroke" d="
  M 552.45 50.45
  L 547.68 50.46"
/>
<path stroke="#1c1c1c" vector-effect="non-scaling-stroke" d="
  M 547.68 50.46
  C 547.53 46.36 550.42 44.90 551.50 41.17
  A 0.52 0.51 -81.6 0 0 551.01 40.50
  C 546.29 40.44 541.20 41.26 536.99 41.24
  C 530.44 41.22 523.90 41.59 517.37 41.24
  C 512.43 40.98 506.91 41.53 502.55 41.40
  Q 494.26 41.15 485.97 41.84
  Q 485.46 41.89 485.42 41.38
  C 485.18 38.52 484.54 35.72 484.53 32.92
  Q 484.51 26.49 484.42 20.13
  A 0.89 0.89 0.0 0 0 483.53 19.25
  L 450.82 19.25
  Q 450.21 19.25 450.09 18.65
  L 449.99 18.15
  Q 449.88 17.56 450.48 17.53
  L 454.51 17.33"
/>
<path stroke="#717171" vector-effect="non-scaling-stroke" d="
  M 151.10 52.30
  L 58.97 52.27"
/>
<path stroke="#6a6969" vector-effect="non-scaling-stroke" d="
  M 58.97 52.27
  Q 58.03 52.23 57.21 51.83
  Q 56.74 51.59 56.70 51.07
  L 56.22 44.27"
/>
<path stroke="#d2d2d2" vector-effect="non-scaling-stroke" d="
  M 479.91 50.90
  Q 479.51 51.99 477.99 51.75"
/>
<path stroke="#e6e6e6" vector-effect="non-scaling-stroke" d="
  M 477.99 51.75
  Q 477.16 51.90 476.78 51.47
  Q 470.57 44.47 463.78 38.06
  C 460.23 34.71 452.31 24.29 447.00 24.29
  Q 377.50 24.38 308.00 24.29"
/>
<path stroke="#dfdfde" vector-effect="non-scaling-stroke" d="
  M 308.00 24.29
  C 282.56 24.22 257.04 23.86 231.62 24.54
  Q 225.21 24.71 218.81 24.09
  A 0.60 0.60 0.0 0 1 218.27 23.54
  Q 218.22 22.96 218.75 22.57"
/>
<path stroke="#c7c7c6" vector-effect="non-scaling-stroke" d="
  M 308.00 24.29
  L 307.97 25.52
  Q 307.95 26.04 307.44 26.02
  C 301.44 25.85 295.51 26.55 289.61 26.25
  C 282.75 25.92 275.82 26.53 268.91 26.35
  Q 266.36 26.28 263.14 26.72
  C 257.46 27.50 251.01 26.92 245.63 27.12
  Q 242.50 27.24 238.41 26.72
  C 230.97 25.78 222.59 27.21 215.08 27.86
  C 213.36 28.01 211.39 28.99 210.31 30.07
  C 201.49 38.91 193.60 45.46 186.30 54.19
  A 0.49 0.48 -65.4 0 0 186.59 54.99
  L 187.03 55.06"
/>
<path stroke="#6a6969" vector-effect="non-scaling-stroke" d="
  M 187.03 55.06
  Q 186.80 55.40 186.51 55.52"
/>
<path stroke="#a3a3a2" vector-effect="non-scaling-stroke" d="
  M 187.75 22.48
  Q 184.19 22.13 181.93 24.45
  Q 168.43 38.31 154.82 51.13
  A 2.29 2.29 0.0 0 0 156.36 55.09
  L 186.51 55.52"
/>
<path stroke="#4d4d4d" vector-effect="non-scaling-stroke" d="
  M 186.51 55.52
  Q 186.25 55.89 186.19 56.24"
/>
<path stroke="#aaaaaa" vector-effect="non-scaling-stroke" d="
  M 186.19 56.24
  Q 184.99 56.62 182.75 56.69
  Q 169.09 57.13 158.29 56.73
  C 154.86 56.60 152.15 55.58 151.10 52.30"
/>
<path stroke="#4d4d4d" vector-effect="non-scaling-stroke" d="
  M 151.10 52.30
  L 158.82 44.31"
/>
<path stroke="#c7c7c6" vector-effect="non-scaling-stroke" d="
  M 58.97 52.27
  L 58.14 54.30
  A 0.75 0.74 13.8 0 1 57.38 54.75
  Q 49.97 54.05 42.59 55.02
  Q 42.07 55.09 41.84 55.57
  L 40.63 58.07
  Q 40.36 58.64 40.68 59.18
  L 44.53 65.79
  Q 44.79 66.24 45.30 66.28
  Q 49.72 66.61 54.16 66.39
  C 56.59 66.27 57.87 67.33 59.88 68.41
  A 1.16 1.15 -39.7 0 0 60.80 68.49
  Q 64.45 67.25 67.66 69.39
  A 1.59 1.56 -30.1 0 0 68.68 69.65
  C 72.81 69.29 76.02 71.02 79.60 71.30
  C 91.80 72.22 104.22 74.00 115.99 72.72
  Q 123.51 71.91 129.32 75.10"
/>
<path stroke="#b3b3b2" vector-effect="non-scaling-stroke" d="
  M 129.32 75.10
  L 122.31 81.79
  A 1.26 1.24 23.0 0 1 121.45 82.13
  C 112.68 82.12 107.12 82.54 101.64 82.54
  Q 99.10 82.54 97.37 82.71
  C 93.34 83.12 89.15 82.17 85.54 82.32
  C 84.00 82.39 77.03 83.02 76.10 82.42
  A 1.62 1.57 60.9 0 0 75.23 82.16
  Q 65.01 81.98 54.78 81.83
  C 51.57 81.79 47.40 83.00 43.23 81.30
  C 40.65 80.25 39.73 77.79 38.20 75.57
  Q 37.88 75.10 37.96 74.54
  Q 38.31 72.01 36.39 70.74
  Q 35.94 70.43 35.99 69.89
  Q 36.18 68.04 35.04 66.75"
/>
<path stroke="#999998" vector-effect="non-scaling-stroke" d="
  M 35.04 66.75
  L 32.79 49.50"
/>
<path stroke="#e6dba8" vector-effect="non-scaling-stroke" d="
  M 564.96 16.50
  Q 562.25 14.76 560.65 16.58"
/>
<path stroke="#796e3b" vector-effect="non-scaling-stroke" d="
  M 560.65 16.58
  L 556.62 16.75"
/>
<path stroke="#716533" vector-effect="non-scaling-stroke" d="
  M 556.62 16.75
  L 553.78 16.77
  Q 553.28 16.77 553.24 17.27
  Q 553.15 18.29 552.46 19.09"
/>
<path stroke="#a09562" vector-effect="non-scaling-stroke" d="
  M 552.46 19.09
  L 551.30 17.61"
/>
<path stroke="#716533" vector-effect="non-scaling-stroke" d="
  M 551.30 17.61
  Q 547.64 16.74 543.50 16.75
  Q 499.00 16.82 454.51 17.33"
/>
<path stroke="#796e3b" vector-effect="non-scaling-stroke" d="
  M 454.51 17.33
  L 335.25 17.27"
/>
<path stroke="#716533" vector-effect="non-scaling-stroke" d="
  M 335.25 17.27
  L 149.05 17.61"
/>
<path stroke="#e2ca5b" vector-effect="non-scaling-stroke" d="
  M 149.05 17.61
  Q 149.32 16.04 147.30 16.16
  Q 146.73 16.20 146.44 15.71
  Q 146.07 15.09 145.42 14.68"
/>
<path stroke="#bababa" vector-effect="non-scaling-stroke" d="
  M 480.32 52.93
  Q 477.31 55.66 472.25 55.68
  Q 459.92 55.72 447.38 55.68"
/>
<path stroke="#5d5d5d" vector-effect="non-scaling-stroke" d="
  M 447.38 55.68
  L 446.07 54.70"
/>
<path stroke="#e6e6e6" vector-effect="non-scaling-stroke" d="
  M 542.61 52.36
  L 480.32 52.93"
/>
<path stroke="#d2d2d2" vector-effect="non-scaling-stroke" d="
  M 480.32 52.93
  L 480.97 51.30"
/>
<path stroke="#1c1c1c" vector-effect="non-scaling-stroke" d="
  M 335.25 17.27
  Q 334.36 17.51 333.48 17.80
  Q 333.03 17.95 333.44 18.20
  L 333.80 18.41
  Q 333.90 18.47 333.78 18.48
  L 318.51 18.68
  Q 318.11 18.68 317.82 18.96
  Q 317.56 19.21 317.00 19.21
  C 265.77 19.33 214.54 19.13 163.31 19.56
  Q 160.56 19.59 157.82 20.03
  Q 157.28 20.12 157.00 20.58
  Q 155.79 22.56 153.53 22.80
  Q 152.95 22.86 152.60 23.33
  Q 151.10 25.39 151.54 27.97
  A 1.56 1.55 -5.2 0 1 150.03 29.78
  Q 104.15 30.61 58.26 29.65
  A 1.70 1.70 0.0 0 1 56.60 28.06
  L 56.18 21.51
  Q 56.14 20.98 55.61 20.91
  Q 47.22 19.78 37.59 20.19
  Q 35.53 20.27 35.20 18.65"
/>
<path stroke="#e2ca5b" vector-effect="non-scaling-stroke" d="
  M 65.97 14.78
  L 72.29 14.80"
/>
<path stroke="#85783b" vector-effect="non-scaling-stroke" d="
  M 149.05 17.61
  L 52.16 18.51"
/>
<path stroke="#242323" vector-effect="non-scaling-stroke" d="
  M 445.50 54.21
  Q 445.27 54.15 445.07 54.22
  Q 444.61 54.40 444.87 54.82
  C 445.24 55.41 453.07 64.47 452.24 60.10"
/>
<path stroke="#818181" vector-effect="non-scaling-stroke" d="
  M 452.24 60.10
  L 485.99 59.78
  A 1.39 1.36 -23.7 0 1 486.91 60.13
  L 493.10 65.63"
/>
<path stroke="#797979" vector-effect="non-scaling-stroke" d="
  M 493.10 65.63
  L 498.35 71.67"
/>
<path stroke="#6d6d6d" vector-effect="non-scaling-stroke" d="
  M 498.35 71.67
  L 484.81 82.74"
/>
<path stroke="#6d6d6d" vector-effect="non-scaling-stroke" d="
  M 351.00 83.16
  Q 351.43 82.88 350.26 81.77"
/>
<path stroke="#818181" vector-effect="non-scaling-stroke" d="
  M 350.26 81.77
  L 330.28 62.00
  A 3.98 3.97 67.7 0 0 327.57 60.86
  Q 309.87 60.54 291.68 60.72
  Q 242.23 61.21 192.74 61.04
  Q 190.30 61.03 187.99 57.67"
/>
<path stroke="#7d972a" vector-effect="non-scaling-stroke" d="
  M 278.46 49.50
  Q 279.00 51.14 280.50 51.74"
/>
<path stroke="#7d972a" vector-effect="non-scaling-stroke" d="
  M 300.85 51.47
  L 300.95 45.19
  A 1.14 1.13 2.8 0 1 302.18 44.08
  L 305.07 44.32
  Q 305.47 44.35 305.68 44.71
  L 309.36 51.06
  Q 309.55 51.39 309.91 51.52
  L 310.20 51.63"
/>
<path stroke="#7d972a" vector-effect="non-scaling-stroke" d="
  M 356.71 43.75
  C 356.08 52.06 361.89 51.42 367.70 51.83"
/>
<path stroke="#7d972a" vector-effect="non-scaling-stroke" d="
  M 383.88 51.24
  L 383.80 37.23
  A 0.72 0.72 0.0 0 1 384.52 36.50
  L 388.27 36.50
  A 0.69 0.69 0.0 0 0 388.94 35.96
  Q 389.15 34.99 388.75 33.44"
/>
<path stroke="#bababa" vector-effect="non-scaling-stroke" d="
  M 350.26 81.77
  L 350.27 82.09
  A 0.71 0.70 21.1 0 1 349.07 82.62
  L 345.08 78.73"
/>
<path stroke="#c7c7c6" vector-effect="non-scaling-stroke" d="
  M 345.08 78.73
  L 340.10 73.60
  Q 339.73 73.23 339.34 73.57
  C 338.56 74.26 337.82 74.66 336.71 74.66
  C 326.21 74.75 315.69 74.35 305.25 74.37
  C 298.28 74.38 291.10 74.68 284.16 74.07
  C 280.02 73.71 274.52 73.91 271.43 73.77
  Q 260.59 73.30 249.73 73.62
  Q 247.29 73.69 242.82 73.14
  C 236.78 72.39 230.52 73.87 224.50 73.39
  C 222.15 73.20 219.95 73.81 217.47 73.51
  C 210.93 72.73 204.17 73.49 197.57 72.59
  C 191.96 71.83 187.82 72.03 182.67 72.22
  C 179.93 72.31 176.97 71.49 174.04 71.58
  Q 171.99 71.64 169.54 71.19
  C 165.69 70.47 161.75 71.81 157.83 71.54
  Q 151.99 71.15 151.05 71.20
  Q 141.85 71.76 132.57 74.56"
/>
<path stroke="#bababa" vector-effect="non-scaling-stroke" d="
  M 132.57 74.56
  L 145.79 61.46
  A 0.50 0.49 -88.4 0 0 145.11 60.74
  L 129.32 75.10"
/>
<path stroke="#b3b3b2" vector-effect="non-scaling-stroke" d="
  M 546.75 80.54
  C 541.97 80.87 537.41 79.78 532.86 80.12
  C 527.56 80.52 523.00 80.56 516.96 81.02
  Q 512.67 81.35 508.26 80.95
  Q 507.79 80.90 507.44 80.57
  L 498.35 71.67"
/>
<path stroke="#c7c7c6" vector-effect="non-scaling-stroke" d="
  M 493.10 65.63
  Q 500.12 62.16 506.51 62.79
  C 517.76 63.90 528.90 60.00 539.68 55.62
  Q 542.84 54.34 542.61 52.36"
/>
<path stroke="#dfdfde" vector-effect="non-scaling-stroke" d="
  M 542.61 52.36
  L 552.93 51.53
  Q 553.66 51.47 553.19 50.90
  Q 552.97 50.63 552.45 50.45"
/>
<path stroke="#727271" vector-effect="non-scaling-stroke" d="
  M 565.67 41.16
  Q 560.94 40.55 555.99 41.39"
/>
<path stroke="#1c1c1c" vector-effect="non-scaling-stroke" d="
  M 555.99 41.39
  C 555.60 40.15 555.27 39.08 555.39 37.75
  Q 556.38 27.36 556.62 16.75"
/>
<path stroke="#4b4b4b" vector-effect="non-scaling-stroke" d="
  M 542.75 36.54
  L 526.83 36.59"
/>
<path stroke="#bababa" vector-effect="non-scaling-stroke" d="
  M 477.99 51.75
  L 477.13 53.35
  Q 476.88 53.82 476.34 53.80
  Q 462.07 53.24 447.81 53.68
  Q 447.09 53.24 446.07 54.70"
/>
<path stroke="#717171" vector-effect="non-scaling-stroke" d="
  M 446.07 54.70
  Q 445.72 54.26 445.50 54.21"
/>
<path stroke="#818181" vector-effect="non-scaling-stroke" d="
  M 445.50 54.21
  Q 433.82 42.66 422.18 31.07
  C 420.20 29.10 418.41 28.49 415.75 28.50
  Q 403.50 28.51 391.24 28.46"
/>
<path stroke="#797979" vector-effect="non-scaling-stroke" d="
  M 391.24 28.46
  L 215.40 29.38
  A 5.85 5.85 0.0 0 0 211.31 31.07
  L 195.44 46.66"
/>
<path stroke="#717171" vector-effect="non-scaling-stroke" d="
  M 195.44 46.66
  L 187.03 55.06"
/>
<path stroke="#717171" vector-effect="non-scaling-stroke" d="
  M 187.33 57.12
  L 186.19 56.24"
/>
<path stroke="#919191" vector-effect="non-scaling-stroke" d="
  M 564.38 18.29
  Q 563.54 19.32 561.73 18.93
  Q 561.21 18.82 561.09 18.30
  L 560.65 16.58"
/>
<path stroke="#717171" vector-effect="non-scaling-stroke" d="
  M 452.24 60.10
  L 447.38 55.68"
/>
<path stroke="#e2ca5b" vector-effect="non-scaling-stroke" d="
  M 118.24 14.68
  C 116.94 18.09 112.69 14.83 110.13 14.76
  Q 104.87 14.62 99.56 15.09
  Q 99.00 15.14 98.64 15.59
  Q 97.67 16.79 95.89 16.16
  A 1.53 1.46 -6.9 0 1 95.17 15.62
  L 94.50 14.72"
/>
<path stroke="#2c2c2c" vector-effect="non-scaling-stroke" d="
  M 391.24 28.46
  L 400.76 28.84
  Q 401.66 28.88 400.93 29.40
  C 399.46 30.47 397.04 29.81 395.11 30.60
  Q 394.61 30.80 394.12 30.56
  Q 392.84 29.94 391.62 30.54
  A 1.04 1.01 81.1 0 0 391.05 31.34
  Q 390.75 33.63 388.75 33.44"
/>
<path stroke="#758f23" vector-effect="non-scaling-stroke" d="
  M 388.75 33.44
  L 375.59 33.29
  A 0.58 0.58 0.0 0 0 375.01 33.94
  L 375.24 35.71
  Q 375.34 36.50 376.13 36.50
  L 379.35 36.50
  Q 380.45 36.50 380.43 37.60
  L 380.18 50.23
  A 1.17 1.16 16.7 0 0 380.72 51.23
  Q 381.88 51.95 383.88 51.24"
/>
<path stroke="#2c2c2c" vector-effect="non-scaling-stroke" d="
  M 383.88 51.24
  Q 384.44 50.85 384.63 50.82
  A 0.92 0.92 0.0 0 1 385.14 52.58
  C 381.54 54.05 378.91 52.96 379.02 48.82
  Q 379.14 43.85 379.07 38.85
  Q 379.06 38.12 378.33 38.11
  L 373.99 38.04
  Q 373.34 38.03 373.45 38.67
  C 374.05 42.35 375.49 51.46 370.71 53.01
  A 1.23 1.22 49.6 0 1 369.76 52.93
  L 367.70 51.83"
/>
<path stroke="#758f23" vector-effect="non-scaling-stroke" d="
  M 367.70 51.83
  C 373.91 51.79 372.75 45.49 372.43 41.64
  A 0.70 0.69 -2.2 0 0 371.73 41.00
  L 365.10 41.00
  Q 364.44 41.00 364.48 41.65
  L 364.56 43.33
  Q 364.60 44.00 365.26 44.00
  L 367.98 44.00
  Q 368.77 44.00 368.75 44.79
  L 368.70 47.11
  A 0.78 0.77 -7.6 0 1 368.14 47.84
  Q 364.33 48.93 360.83 47.16
  Q 360.29 46.88 360.30 46.28
  L 360.44 37.43
  A 0.69 0.69 0.0 0 1 361.13 36.75
  L 371.12 36.75
  Q 371.75 36.75 371.75 36.12
  L 371.75 33.87
  A 0.63 0.62 -0.0 0 0 371.12 33.25
  L 359.77 33.25
  A 2.70 2.69 -88.7 0 0 357.08 35.82
  L 356.71 43.75"
/>
<path stroke="#2c2c2c" vector-effect="non-scaling-stroke" d="
  M 356.71 43.75
  Q 356.44 44.55 355.60 44.83
  A 0.56 0.56 0.0 0 1 354.87 44.30
  L 354.69 30.74
  Q 354.68 30.00 353.94 30.00
  L 348.63 30.00
  Q 348.02 30.00 347.98 30.60
  L 347.64 36.22
  Q 347.61 36.67 347.31 37.02
  C 344.90 39.85 345.14 44.35 346.57 47.70
  C 351.09 58.23 333.21 51.02 328.87 53.23
  A 1.76 1.76 0.0 0 1 327.94 53.41
  Q 324.68 53.13 321.39 53.25
  C 319.60 53.31 317.89 52.49 315.85 53.18
  Q 315.39 53.34 314.96 53.11
  L 314.34 52.79
  Q 313.97 52.60 313.66 52.87
  C 312.42 53.95 309.30 53.15 310.20 51.63"
/>
<path stroke="#758f23" vector-effect="non-scaling-stroke" d="
  M 310.20 51.63
  Q 311.84 52.04 312.55 51.67
  A 0.62 0.62 0.0 0 0 312.80 50.81
  L 309.31 44.83
  A 0.54 0.53 -31.4 0 1 309.49 44.10
  L 311.05 43.13
  A 1.42 1.38 -10.0 0 0 311.68 42.26
  Q 312.63 38.36 311.33 34.60
  A 1.65 1.64 80.2 0 0 309.78 33.50
  L 298.41 33.50
  A 0.66 0.65 -0.0 0 0 297.75 34.15
  L 297.75 50.74
  Q 297.75 51.30 298.25 51.52
  Q 299.53 52.09 300.85 51.47"
/>
<path stroke="#2c2c2c" vector-effect="non-scaling-stroke" d="
  M 300.85 51.47
  L 301.21 51.82
  A 0.67 0.67 0.0 0 1 300.82 52.98
  Q 298.29 53.25 296.16 51.99
  A 1.13 1.12 48.7 0 0 295.15 51.92
  Q 288.40 54.78 281.50 52.95
  Q 280.33 52.64 280.50 51.74"
/>
<path stroke="#758f23" vector-effect="non-scaling-stroke" d="
  M 280.50 51.74
  L 291.25 51.74
  A 2.76 2.75 -90.0 0 0 294.00 48.98
  L 294.00 36.15
  A 2.66 2.66 0.0 0 0 291.34 33.50
  L 281.21 33.50
  A 2.97 2.97 0.0 0 0 278.24 36.52
  L 278.46 49.50"
/>
<path stroke="#2c2c2c" vector-effect="non-scaling-stroke" d="
  M 278.46 49.50
  L 278.04 52.67
  A 0.97 0.96 -11.9 0 1 277.58 53.37
  C 268.97 58.50 262.97 53.92 254.49 55.71
  Q 253.28 55.97 252.20 55.51
  A 1.78 1.67 -35.9 0 0 251.27 55.39
  Q 245.64 56.16 239.94 55.98
  C 237.48 55.90 235.59 54.26 232.73 55.20
  A 1.02 1.02 0.0 0 0 232.07 55.86
  C 230.74 59.86 224.72 55.73 221.61 55.73
  Q 208.93 55.76 196.25 56.02
  C 194.70 56.05 189.89 55.19 188.80 57.48
  Q 188.64 57.81 188.28 57.78
  Q 188.12 57.76 187.99 57.67"
/>
<path stroke="#797979" vector-effect="non-scaling-stroke" d="
  M 187.99 57.67
  Q 187.53 57.62 187.33 57.12"
/>
<path stroke="#1c1c1c" vector-effect="non-scaling-stroke" d="
  M 187.33 57.12
  L 196.44 47.61
  A 0.49 0.49 0.0 0 0 196.17 46.79
  L 195.44 46.66"
/>
<path stroke="#1c1c1c" vector-effect="non-scaling-stroke" d="
  M 496.73 36.80
  Q 496.78 40.16 503.41 38.75
  Q 503.88 38.65 503.82 38.17
  L 503.61 36.52"
/>
<path stroke="#434343" vector-effect="non-scaling-stroke" d="
  M 503.61 36.52
  L 513.38 36.53
  Q 514.00 36.53 514.00 35.91
  L 514.00 35.23
  Q 514.00 34.79 513.56 34.81
  L 505.74 35.12
  Q 504.82 35.15 504.84 34.23
  L 504.97 27.95
  A 0.56 0.56 0.0 0 1 505.54 27.41
  L 512.08 27.54
  A 0.58 0.58 0.0 0 1 512.65 28.11
  C 512.65 28.97 512.21 33.75 513.53 33.43
  Q 514.04 33.31 514.05 32.79
  L 514.22 18.33
  Q 514.23 17.77 513.67 17.76
  C 512.04 17.73 506.26 17.14 505.81 19.27
  A 0.40 0.40 0.0 0 0 506.37 19.72
  C 511.30 17.49 513.79 21.23 512.63 25.75
  Q 512.49 26.28 511.95 26.27
  L 505.54 26.15
  A 0.55 0.55 0.0 0 1 505.00 25.60
  L 505.00 21.60
  Q 505.00 21.20 504.60 21.26
  L 504.36 21.29
  A 0.42 0.41 -4.0 0 0 504.00 21.70
  L 504.00 25.74
  Q 504.00 26.23 503.51 26.23
  L 488.49 26.32
  A 0.59 0.59 0.0 0 1 487.90 25.74
  L 487.73 19.86
  A 0.84 0.84 0.0 0 1 488.59 18.99
  L 495.42 19.16
  A 0.33 0.32 -89.2 0 0 495.75 18.83
  L 495.75 18.57
  Q 495.75 18.14 495.32 18.13
  L 487.11 17.96
  Q 486.43 17.94 486.43 18.63
  L 486.41 35.91
  Q 486.41 36.51 487.02 36.53
  L 496.73 36.80"
/>
<path stroke="#4b4b4b" vector-effect="non-scaling-stroke" d="
  M 503.61 36.52
  L 496.73 36.80"
/>
<path stroke="#434343" vector-effect="non-scaling-stroke" d="
  M 503.77 19.45
  L 503.84 18.19
  A 0.17 0.17 0.0 0 0 503.69 18.01
  L 503.03 17.97
  A 4.67 0.77 3.6 0 0 498.32 18.45
  L 498.31 18.51
  A 4.67 0.77 3.6 0 0 502.93 19.57
  L 503.58 19.61
  A 0.17 0.17 0.0 0 0 503.77 19.45"
/>
<path stroke="#434343" vector-effect="non-scaling-stroke" d="
  M 500.89 22.74
  C 501.25 22.38 500.65 21.95 500.31 21.99
  A 0.56 0.56 0.0 0 0 499.87 22.78
  Q 499.97 23.01 500.45 23.23
  Q 500.50 23.26 500.56 23.23
  Q 500.77 23.13 500.80 22.92
  Q 500.82 22.82 500.89 22.74"
/>
<path stroke="#434343" vector-effect="non-scaling-stroke" d="
  M 508.12 22.78
  Q 509.42 24.04 509.25 22.19
  Q 509.23 22.00 509.04 22.00
  Q 508.77 22.00 508.52 21.97
  A 0.48 0.47 71.4 0 0 508.12 22.78"
/>
<path stroke="#434343" vector-effect="non-scaling-stroke" d="
  M 492.59 23.33
  Q 492.87 22.99 492.69 22.55
  Q 492.45 21.93 491.96 22.38
  Q 491.36 22.92 492.06 23.41
  A 0.40 0.40 0.0 0 0 492.59 23.33"
/>
<path stroke="#4d4d4d" vector-effect="non-scaling-stroke" d="
  M 508.76 30.10
  A 0.60 0.59 85.5 0 0 508.02 30.97
  L 508.44 31.60
  A 0.38 0.38 0.0 0 0 509.10 31.57
  Q 509.66 30.51 508.76 30.10"
/>
<path stroke="#656565" vector-effect="non-scaling-stroke" d="
  M 482.4424 41.5901
  A 1.09 0.83 29.1 0 0 481.8937 40.3348
  A 1.09 0.83 29.1 0 0 480.5376 40.5299
  A 1.09 0.83 29.1 0 0 481.0863 41.7852
  A 1.09 0.83 29.1 0 0 482.4424 41.5901"
/>
<path stroke="#434343" vector-effect="non-scaling-stroke" d="
  M 525.9455 19.7869
  A 0.53 0.53 0.0 0 0 525.4164 19.2560
  L 518.5364 19.2440
  A 0.53 0.53 0.0 0 0 518.0055 19.7731
  L 517.9945 26.0531
  A 0.53 0.53 0.0 0 0 518.5236 26.5840
  L 525.4036 26.5960
  A 0.53 0.53 0.0 0 0 525.9345 26.0669
  L 525.9455 19.7869"
/>
<path stroke="#434343" vector-effect="non-scaling-stroke" d="
  M 527.53 26.38
  L 533.27 26.51
  A 0.85 0.85 0.0 0 0 534.14 25.68
  L 534.20 23.02
  A 3.69 3.36 -88.7 0 0 530.92 19.26
  L 530.20 19.24
  A 3.69 3.36 -88.7 0 0 526.76 22.86
  L 526.70 25.51
  A 0.85 0.85 0.0 0 0 527.53 26.38"
/>
<path stroke="#434343" vector-effect="non-scaling-stroke" d="
  M 535.22 26.13
  L 541.98 26.27
  A 0.26 0.26 0.0 0 0 542.24 26.02
  L 542.31 22.88
  A 3.54 3.48 -88.8 0 0 538.90 19.26
  L 538.58 19.26
  A 3.54 3.48 -88.8 0 0 535.03 22.72
  L 534.96 25.86
  A 0.26 0.26 0.0 0 0 535.22 26.13"
/>
<path stroke="#434343" vector-effect="non-scaling-stroke" d="
  M 544.14 26.11
  L 550.10 26.15
  A 0.92 0.92 0.0 0 0 551.03 25.23
  L 551.04 22.87
  A 3.62 3.58 -89.7 0 0 547.48 19.23
  L 546.84 19.23
  A 3.62 3.58 -89.7 0 0 543.24 22.83
  L 543.23 25.19
  A 0.92 0.92 0.0 0 0 544.14 26.11"
/>
<path stroke="#434343" vector-effect="non-scaling-stroke" d="
  M 525.91 33.60
  L 525.65 29.62
  Q 525.62 29.17 525.25 28.91
  Q 521.52 26.31 518.40 29.17
  Q 517.99 29.53 518.00 30.08
  L 518.01 34.42
  Q 518.01 34.90 518.49 34.90
  L 533.47 35.06
  A 0.78 0.77 -89.6 0 0 534.25 34.28
  L 534.25 30.22
  A 1.41 1.40 -66.1 0 0 533.89 29.28
  Q 530.75 25.74 527.14 28.91
  A 1.18 1.16 -21.2 0 0 526.75 29.78
  Q 526.76 31.86 526.72 33.86
  A 0.11 0.10 82.8 0 1 526.65 33.96
  Q 526.47 34.02 526.32 34.01
  Q 525.93 33.99 525.91 33.60"
/>
<path stroke="#434343" vector-effect="non-scaling-stroke" d="
  M 542.25 32.29
  L 542.25 28.54
  A 0.92 0.92 0.0 0 0 541.30 27.62
  L 535.51 27.80
  Q 535.10 27.82 535.07 28.23
  L 534.70 34.03
  A 1.07 1.07 0.0 0 0 535.80 35.16
  L 550.93 34.69
  A 0.23 0.22 -3.6 0 0 551.15 34.45
  L 550.69 28.20
  Q 550.65 27.75 550.20 27.75
  L 543.96 27.75
  Q 543.33 27.75 543.28 28.37
  Q 543.12 30.17 543.19 31.97
  Q 543.20 32.14 543.16 32.32
  Q 543.07 32.70 542.79 32.74
  Q 542.25 32.83 542.25 32.29"
/>
<path stroke="#434343" vector-effect="non-scaling-stroke" d="
  M 488.16 35.01
  L 495.22 34.99
  A 0.23 0.23 0.0 0 0 495.45 34.76
  L 495.44 30.98
  A 3.45 3.30 89.8 0 0 492.13 27.54
  L 491.21 27.54
  A 3.45 3.30 89.8 0 0 487.92 31.00
  L 487.93 34.78
  A 0.23 0.23 0.0 0 0 488.16 35.01"
/>
<path stroke="#434343" vector-effect="non-scaling-stroke" d="
  M 497.41 35.06
  L 502.90 35.31
  A 1.17 1.17 0.0 0 0 504.12 34.20
  L 504.25 31.43
  A 3.78 3.64 -87.4 0 0 500.78 27.49
  L 500.23 27.46
  A 3.78 3.64 -87.4 0 0 496.42 31.07
  L 496.29 33.84
  A 1.17 1.17 0.0 0 0 497.41 35.06"
/>
<path stroke="#4d4d4d" vector-effect="non-scaling-stroke" d="
  M 521.40 22.06
  Q 521.00 21.78 521.00 22.27
  L 521.00 22.84
  A 0.47 0.46 -11.1 0 0 521.64 23.27
  Q 522.56 22.90 521.40 22.06"
/>
<path stroke="#4d4d4d" vector-effect="non-scaling-stroke" d="
  M 530.25 22.79
  Q 530.24 22.64 530.25 22.47
  A 0.32 0.32 0.0 0 0 529.85 22.13
  Q 528.52 22.45 529.59 23.18
  Q 530.32 23.67 530.25 22.79"
/>
<path stroke="#434343" vector-effect="non-scaling-stroke" d="
  M 538.10 23.45
  Q 538.86 22.99 538.82 22.63
  A 0.86 0.72 44.4 0 0 537.24 22.50
  L 537.28 23.02
  Q 537.35 23.90 538.10 23.45"
/>
<path stroke="#434343" vector-effect="non-scaling-stroke" d="
  M 546.63 22.66
  Q 544.64 21.01 545.92 23.36
  Q 546.07 23.62 546.33 23.47
  L 546.57 23.33
  Q 547.07 23.03 546.63 22.66"
/>
<path stroke="#999998" vector-effect="non-scaling-stroke" d="
  M 185.7390 41.5150
  A 6.59 6.37 -1.0 0 0 179.0388 35.2610
  A 6.59 6.37 -1.0 0 0 172.5610 41.7450
  A 6.59 6.37 -1.0 0 0 179.2612 47.9990
  A 6.59 6.37 -1.0 0 0 185.7390 41.5150"
/>
<path stroke="#aaaaaa" vector-effect="non-scaling-stroke" d="
  M 460.72 40.99
  A 6.36 6.36 0.0 0 0 454.36 34.63
  A 6.36 6.36 0.0 0 0 448.00 40.99
  A 6.36 6.36 0.0 0 0 454.36 47.35
  A 6.36 6.36 0.0 0 0 460.72 40.99"
/>
<path stroke="#4d4d4d" vector-effect="non-scaling-stroke" d="
  M 492.92 30.62
  A 0.48 0.47 -10.2 0 0 492.36 30.24
  L 491.88 30.33
  A 0.73 0.73 0.0 0 0 491.98 31.77
  Q 493.11 31.84 492.92 30.62"
/>
<path stroke="#4d4d4d" vector-effect="non-scaling-stroke" d="
  M 500.4254 31.7700
  A 0.77 0.61 89.6 0 0 501.0300 30.9957
  A 0.77 0.61 89.6 0 0 500.4146 30.2300
  A 0.77 0.61 89.6 0 0 499.8100 31.0043
  A 0.77 0.61 89.6 0 0 500.4254 31.7700"
/>
<path stroke="#4d4d4d" vector-effect="non-scaling-stroke" d="
  M 521.49 31.90
  A 0.60 0.59 85.5 0 0 522.23 31.03
  L 521.81 30.40
  A 0.38 0.38 0.0 0 0 521.15 30.43
  Q 520.59 31.49 521.49 31.90"
/>
<path stroke="#4d4d4d" vector-effect="non-scaling-stroke" d="
  M 530.1888 31.9179
  A 0.91 0.75 62.6 0 0 530.4359 30.7649
  A 0.91 0.75 62.6 0 0 529.3512 30.3021
  A 0.91 0.75 62.6 0 0 529.1041 31.4551
  A 0.91 0.75 62.6 0 0 530.1888 31.9179"
/>
<path stroke="#4d4d4d" vector-effect="non-scaling-stroke" d="
  M 538.9647 30.6475
  A 0.90 0.83 -28.0 0 0 537.7803 30.3372
  A 0.90 0.83 -28.0 0 0 537.3753 31.4925
  A 0.90 0.83 -28.0 0 0 538.5597 31.8028
  A 0.90 0.83 -28.0 0 0 538.9647 30.6475"
/>
<path stroke="#4d4d4d" vector-effect="non-scaling-stroke" d="
  M 547.00 30.85
  A 0.50 0.49 5.0 0 0 546.48 30.24
  L 545.90 30.28
  A 0.59 0.59 0.0 0 0 545.50 31.25
  Q 546.59 32.55 547.00 30.85"
/>
<path stroke="#758f23" vector-effect="non-scaling-stroke" d="
  M 237.92 33.35
  Q 232.41 32.98 227.29 33.45
  A 2.17 2.17 0.0 0 0 225.33 35.53
  L 224.98 46.02
  A 5.54 5.54 0.0 0 0 230.52 51.75
  L 237.75 51.75
  A 2.75 2.75 0.0 0 0 240.50 49.00
  L 240.50 41.75
  Q 240.50 41.25 240.00 41.25
  L 233.35 41.25
  Q 232.69 41.25 232.73 41.90
  L 232.82 43.68
  A 0.69 0.69 0.0 0 0 233.61 44.33
  L 236.11 43.95
  A 0.68 0.67 -3.7 0 1 236.88 44.62
  L 236.84 47.59
  Q 236.83 48.26 236.16 48.26
  L 230.97 48.24
  A 2.54 2.54 0.0 0 1 228.44 45.65
  L 228.64 37.30
  A 0.56 0.56 0.0 0 1 229.20 36.75
  L 239.23 36.75
  Q 239.61 36.75 239.78 36.41
  C 240.82 34.38 240.04 33.50 237.92 33.35"
/>
<path stroke="#2c2c2c" vector-effect="non-scaling-stroke" d="
  M 329.07 47.76
  L 329.14 38.98
  Q 329.14 38.33 328.49 38.31
  L 325.61 38.22
  A 0.67 0.67 0.0 0 1 325.21 37.03
  L 325.52 36.78"
/>
<path stroke="#758f23" vector-effect="non-scaling-stroke" d="
  M 325.52 36.78
  L 328.69 36.74
  A 0.56 0.56 0.0 0 0 329.25 36.18
  L 329.25 33.87
  Q 329.25 33.25 328.62 33.25
  L 319.25 33.25
  A 2.75 2.75 0.0 0 0 316.50 36.00
  L 316.50 48.90
  A 2.74 2.73 -88.8 0 0 319.12 51.64
  Q 323.76 51.84 328.42 51.73
  A 0.98 0.97 12.5 0 0 329.25 51.21
  Q 329.90 49.98 329.07 47.76"
/>
<path stroke="#7d972a" vector-effect="non-scaling-stroke" d="
  M 325.52 36.78
  L 320.38 36.77
  A 0.55 0.54 89.5 0 0 319.84 37.33
  L 320.00 47.26
  Q 320.02 47.91 320.66 47.90
  L 329.07 47.76"
/>
<path stroke="#758f23" vector-effect="non-scaling-stroke" d="
  M 336.40 47.79
  L 336.23 44.51
  A 0.60 0.59 -0.9 0 1 336.85 43.88
  C 338.88 43.95 344.55 45.38 343.70 41.40
  A 0.88 0.87 82.0 0 0 342.79 40.71
  L 337.09 41.06
  A 0.52 0.52 0.0 0 1 336.54 40.59
  L 336.19 37.06
  A 0.51 0.51 0.0 0 1 336.70 36.50
  L 344.88 36.50
  Q 345.50 36.50 345.50 35.88
  L 345.50 33.87
  Q 345.50 33.25 344.87 33.25
  L 333.65 33.26
  A 0.90 0.90 0.0 0 0 332.75 34.16
  L 332.75 51.07
  A 0.58 0.57 0.5 0 0 333.32 51.64
  L 344.47 51.80
  Q 345.21 51.81 345.49 51.13
  Q 346.10 49.64 345.26 48.39
  Q 344.93 47.91 344.34 47.93
  L 336.98 48.30
  Q 336.43 48.33 336.40 47.79"
/>
<path stroke="#758f23" vector-effect="non-scaling-stroke" d="
  M 248.00 48.00
  L 248.00 44.88
  Q 248.00 44.25 248.63 44.25
  L 254.87 44.25
  Q 255.50 44.25 255.50 43.62
  L 255.50 41.75
  Q 255.50 41.25 255.00 41.25
  L 248.81 41.25
  Q 248.37 41.25 248.33 40.81
  L 248.00 37.30
  Q 247.95 36.74 248.51 36.74
  L 256.76 36.75
  Q 257.47 36.75 257.46 36.05
  L 257.45 33.97
  A 0.48 0.47 0.0 0 0 256.97 33.50
  L 245.98 33.50
  Q 244.47 33.50 244.48 35.02
  L 244.67 50.96
  A 1.05 1.04 89.7 0 0 245.71 52.00
  L 256.37 52.00
  Q 256.93 52.00 257.19 51.50
  Q 257.80 50.27 257.24 48.99
  Q 257.02 48.50 256.48 48.50
  L 248.50 48.50
  Q 248.00 48.50 248.00 48.00"
/>
<path stroke="#758f23" vector-effect="non-scaling-stroke" d="
  M 265.25 44.00
  Q 268.62 44.00 271.98 44.00
  A 0.75 0.75 0.0 0 0 272.73 43.27
  L 272.76 41.89
  Q 272.77 41.25 272.13 41.25
  L 265.38 41.25
  Q 264.75 41.25 264.75 40.62
  L 264.75 37.51
  Q 264.75 36.86 265.40 36.81
  Q 268.94 36.56 272.50 36.94
  C 274.78 37.19 275.14 36.24 274.62 34.18
  A 0.90 0.88 82.9 0 0 273.76 33.50
  L 262.12 33.50
  Q 261.50 33.50 261.50 34.13
  L 261.50 51.21
  A 0.71 0.71 0.0 0 0 262.21 51.92
  L 264.04 51.92
  A 0.71 0.71 0.0 0 0 264.75 51.21
  L 264.75 44.50
  Q 264.75 44.00 265.25 44.00"
/>
<path stroke="#7d972a" vector-effect="non-scaling-stroke" d="
  M 400.44 45.07
  L 404.47 50.93
  Q 404.86 51.50 405.54 51.54
  L 407.31 51.66
  A 0.82 0.82 0.0 0 0 408.05 50.40
  L 402.61 42.10
  A 0.74 0.74 0.0 0 1 402.60 41.29
  L 407.17 34.14
  Q 407.64 33.41 406.77 33.36
  L 404.22 33.21
  Q 403.58 33.17 403.26 33.73
  L 400.74 37.97
  A 0.65 0.65 0.0 0 1 399.59 37.92
  C 398.62 35.92 396.74 32.15 393.89 33.35
  A 0.64 0.64 0.0 0 0 393.60 34.27
  L 397.95 41.22
  Q 398.24 41.69 397.93 42.14
  L 392.28 50.30
  A 0.72 0.71 -63.0 0 0 392.63 51.38
  C 396.15 52.63 398.35 47.57 399.72 45.10
  Q 400.05 44.50 400.44 45.07"
/>
<path stroke="#758f23" vector-effect="non-scaling-stroke" d="
  M 290.2936 37.8755
  A 0.88 0.88 0.0 0 0 289.4105 36.9986
  L 282.8705 37.0214
  A 0.88 0.88 0.0 0 0 281.9936 37.9045
  L 282.0264 47.3045
  A 0.88 0.88 0.0 0 0 282.9095 48.1814
  L 289.4495 48.1586
  A 0.88 0.88 0.0 0 0 290.3264 47.2755
  L 290.2936 37.8755"
/>
<path stroke="#758f23" vector-effect="non-scaling-stroke" d="
  M 308.2360 37.5310
  A 0.39 0.39 0.0 0 0 307.8508 37.1363
  L 301.9312 37.0640
  A 0.39 0.39 0.0 0 0 301.5365 37.4492
  L 301.5040 40.1090
  A 0.39 0.39 0.0 0 0 301.8892 40.5037
  L 307.8088 40.5760
  A 0.39 0.39 0.0 0 0 308.2035 40.1908
  L 308.2360 37.5310"
/>
<path stroke="#a3a3a2" vector-effect="non-scaling-stroke" d="
  M 453.73 39.89
  Q 454.62 40.79 454.01 41.71"
/>
<path stroke="#c2c2c2" vector-effect="non-scaling-stroke" d="
  M 454.01 41.71
  L 450.14 41.46
  A 0.62 0.62 0.0 0 0 449.53 42.34
  Q 452.07 48.00 457.64 44.66
  A 2.43 2.43 0.0 0 0 458.71 41.82
  Q 458.29 40.54 458.73 39.26
  Q 458.92 38.72 458.57 38.28
  Q 456.31 35.39 452.66 35.75
  Q 452.16 35.80 452.09 36.30
  Q 451.81 38.40 453.73 39.89"
/>
<path stroke="#dfdfde" vector-effect="non-scaling-stroke" d="
  M 454.01 41.71
  L 454.70 41.74"
/>
<path stroke="#b8b8b8" vector-effect="non-scaling-stroke" d="
  M 454.70 41.74
  Q 454.74 42.51 455.22 43.10
  Q 455.55 43.51 455.98 43.22
  Q 458.62 41.44 456.79 40.23"
/>
<path stroke="#dfdfde" vector-effect="non-scaling-stroke" d="
  M 456.79 40.23
  Q 454.54 38.23 453.73 39.89"
/>
<path stroke="#999998" vector-effect="non-scaling-stroke" d="
  M 456.79 40.23
  Q 454.92 40.69 454.70 41.74"
/>
<path stroke="#c2c2c2" vector-effect="non-scaling-stroke" d="
  M 449.51 39.30
  A 0.46 0.44 16.6 0 0 449.79 39.80
  Q 451.02 40.29 451.52 38.89
  A 0.50 0.49 -74.7 0 0 451.15 38.24
  Q 449.76 37.98 449.51 39.30"
/>
<path stroke="#8c8c8c" vector-effect="non-scaling-stroke" d="
  M 178.21 37.74
  L 176.26 37.89"
/>
<path stroke="#a0a0a0" vector-effect="non-scaling-stroke" d="
  M 176.26 37.89
  Q 174.17 38.97 175.02 40.48"
/>
<path stroke="#8c8c8c" vector-effect="non-scaling-stroke" d="
  M 175.02 40.48
  L 174.76 41.43"
/>
<path stroke="#b8b8b8" vector-effect="non-scaling-stroke" d="
  M 174.76 41.43
  C 172.30 43.81 177.85 48.20 181.56 45.90
  C 188.80 41.42 179.49 32.47 178.21 37.74"
/>
<path stroke="#d2d2d2" vector-effect="non-scaling-stroke" d="
  M 174.76 41.43
  Q 176.85 42.53 177.50 40.29
  Q 177.71 39.55 178.31 40.02
  Q 179.45 40.91 179.76 42.32
  Q 179.85 42.78 179.43 42.97
  L 177.46 43.85
  A 0.39 0.39 0.0 0 0 177.47 44.57
  Q 179.47 45.35 180.94 43.63
  C 182.83 41.42 179.80 39.09 178.21 37.74"
/>
<path stroke="#bababa" vector-effect="non-scaling-stroke" d="
  M 175.02 40.48
  C 177.16 40.98 177.68 37.96 176.26 37.89"
/>
</g>
<path fill="#727272" d="
  M 8.37 6.00
  L 7.47 15.22
  Q 5.12 11.89 6.25 6.75
  Q 6.35 6.28 6.80 6.12
  Q 7.78 5.77 8.37 6.00
  Z"
/>
<path fill="#868686" d="
  M 8.37 6.00
  L 11.71 6.33
  Q 12.25 6.39 12.25 6.93
  L 12.25 12.33
  Q 12.25 12.87 12.64 13.23
  L 15.47 15.92
  Q 16.99 18.70 22.16 17.56
  A 1.63 1.58 49.3 0 1 23.16 17.65
  Q 26.27 18.95 26.38 16.00
  L 29.50 16.80
  Q 29.96 17.48 29.67 18.52
  Q 29.39 17.32 28.50 17.22
  A 1.26 1.25 -86.4 0 0 27.09 18.47
  L 27.22 43.17
  A 0.80 0.80 0.0 0 1 26.61 43.95
  Q 24.39 44.50 23.46 42.67
  Q 23.21 42.18 22.67 42.26
  Q 21.24 42.46 20.25 43.46
  Q 15.14 41.41 12.85 48.20
  Q 10.50 45.53 8.26 45.59
  Q 7.62 45.61 7.57 46.24
  L 7.36 48.75
  L 7.95 32.62
  Q 7.97 32.09 8.44 31.84
  Q 12.05 29.96 14.69 26.20
  L 14.91 19.92
  A 0.81 0.80 15.9 0 0 14.51 19.21
  L 7.47 15.22
  L 8.37 6.00
  Z"
/>
<path fill="#ceb752" d="
  M 51.62 14.81
  Q 50.73 18.40 52.16 18.51
  C 49.43 18.27 36.82 16.85 35.20 18.65
  L 32.81 17.72
  Q 32.06 16.21 31.05 15.74
  C 30.94 13.00 49.23 14.55 51.62 14.81
  Z"
/>
<path fill="#ceb752" d="
  M 118.24 14.68
  C 116.94 18.09 112.69 14.83 110.13 14.76
  Q 104.87 14.62 99.56 15.09
  Q 99.00 15.14 98.64 15.59
  Q 97.67 16.79 95.89 16.16
  A 1.53 1.46 -6.9 0 1 95.17 15.62
  L 94.50 14.72
  L 118.24 14.68
  Z"
/>
<path fill="#ceb752" d="
  M 564.96 16.50
  Q 562.25 14.76 560.65 16.58
  L 556.62 16.75
  L 553.78 16.77
  Q 553.28 16.77 553.24 17.27
  Q 553.15 18.29 552.46 19.09
  L 551.30 17.61
  Q 547.64 16.74 543.50 16.75
  Q 499.00 16.82 454.51 17.33
  L 335.25 17.27
  L 149.05 17.61
  Q 149.32 16.04 147.30 16.16
  Q 146.73 16.20 146.44 15.71
  Q 146.07 15.09 145.42 14.68
  L 566.61 14.29
  A 0.63 0.63 0.0 0 1 566.77 15.53
  Q 565.84 15.78 564.96 16.50
  Z"
/>
<path fill="#f6dc63" d="
  M 65.97 14.78
  L 72.29 14.80
  L 94.50 14.72
  L 95.17 15.62
  A 1.53 1.46 -6.9 0 0 95.89 16.16
  Q 97.67 16.79 98.64 15.59
  Q 99.00 15.14 99.56 15.09
  Q 104.87 14.62 110.13 14.76
  C 112.69 14.83 116.94 18.09 118.24 14.68
  L 145.42 14.68
  Q 146.07 15.09 146.44 15.71
  Q 146.73 16.20 147.30 16.16
  Q 149.32 16.04 149.05 17.61
  L 52.16 18.51
  Q 50.73 18.40 51.62 14.81
  L 65.97 14.78
  Z"
/>
<path fill="#ceb752" d="
  M 72.29 14.80
  L 65.97 14.78
  L 72.29 14.80
  Z"
/>
<path fill="#727272" d="
  M 15.47 15.92
  L 26.38 16.00
  Q 26.27 18.95 23.16 17.65
  A 1.63 1.58 49.3 0 0 22.16 17.56
  Q 16.99 18.70 15.47 15.92
  Z"
/>
<path fill="#141313" d="
  M 31.05 15.74
  Q 32.06 16.21 32.81 17.72
  Q 32.49 23.75 32.17 29.75
  C 31.69 38.49 32.30 47.43 32.52 56.21
  L 34.81 68.30
  Q 35.53 70.33 34.90 72.38
  Q 34.75 72.86 34.88 73.36
  L 38.20 85.94
  L 35.13 86.21
  Q 34.62 86.25 34.57 85.74
  L 34.37 83.63
  A 0.73 0.72 87.8 0 0 33.66 82.97
  L 26.21 82.78
  Q 28.70 82.97 31.47 81.95
  Q 32.13 70.86 30.15 59.56
  L 29.67 18.52
  Q 29.96 17.48 29.50 16.80
  Q 30.86 16.87 31.05 15.74
  Z"
/>
<path fill="#fefefe" d="
  M 564.96 16.50
  Q 565.01 17.28 564.38 18.29
  Q 563.54 19.32 561.73 18.93
  Q 561.21 18.82 561.09 18.30
  L 560.65 16.58
  Q 562.25 14.76 564.96 16.50
  Z"
/>
<path fill="#242424" d="
  M 560.65 16.58
  L 561.09 18.30
  Q 561.21 18.82 561.73 18.93
  Q 563.54 19.32 564.38 18.29
  Q 564.63 18.76 565.32 19.09
  Q 565.80 19.33 565.80 19.87
  L 565.67 41.16
  Q 560.94 40.55 555.99 41.39
  C 555.60 40.15 555.27 39.08 555.39 37.75
  Q 556.38 27.36 556.62 16.75
  L 560.65 16.58
  Z"
/>
<path fill="#141313" d="
  M 551.30 17.61
  L 525.88 17.99
  Q 525.56 18.00 525.30 17.81
  Q 525.18 17.73 525.06 17.63
  Q 524.68 17.33 524.21 17.47
  Q 521.40 18.34 518.48 17.93
  A 1.49 1.48 3.9 0 0 516.79 19.40
  L 516.78 35.92
  A 0.59 0.59 0.0 0 0 517.37 36.51
  L 526.83 36.59
  L 526.80 38.04
  Q 526.79 38.78 527.53 38.78
  L 540.98 38.80
  A 0.82 0.81 -80.4 0 0 541.75 38.25
  Q 542.11 37.19 542.75 36.54
  L 551.69 36.50
  Q 552.22 36.49 552.22 35.96
  L 552.46 19.09
  Q 553.15 18.29 553.24 17.27
  Q 553.28 16.77 553.78 16.77
  L 556.62 16.75
  Q 556.38 27.36 555.39 37.75
  C 555.27 39.08 555.60 40.15 555.99 41.39
  Q 555.53 41.36 555.02 41.54
  Q 554.59 41.68 554.57 42.14
  L 554.32 49.44
  Q 554.30 50.10 553.65 50.22
  L 552.45 50.45
  L 547.68 50.46
  C 547.53 46.36 550.42 44.90 551.50 41.17
  A 0.52 0.51 -81.6 0 0 551.01 40.50
  C 546.29 40.44 541.20 41.26 536.99 41.24
  C 530.44 41.22 523.90 41.59 517.37 41.24
  C 512.43 40.98 506.91 41.53 502.55 41.40
  Q 494.26 41.15 485.97 41.84
  Q 485.46 41.89 485.42 41.38
  C 485.18 38.52 484.54 35.72 484.53 32.92
  Q 484.51 26.49 484.42 20.13
  A 0.89 0.89 0.0 0 0 483.53 19.25
  L 450.82 19.25
  Q 450.21 19.25 450.09 18.65
  L 449.99 18.15
  Q 449.88 17.56 450.48 17.53
  L 454.51 17.33
  Q 499.00 16.82 543.50 16.75
  Q 547.64 16.74 551.30 17.61
  Z
  M 496.73 36.80
  Q 496.78 40.16 503.41 38.75
  Q 503.88 38.65 503.82 38.17
  L 503.61 36.52
  L 513.38 36.53
  Q 514.00 36.53 514.00 35.91
  L 514.00 35.23
  Q 514.00 34.79 513.56 34.81
  L 505.74 35.12
  Q 504.82 35.15 504.84 34.23
  L 504.97 27.95
  A 0.56 0.56 0.0 0 1 505.54 27.41
  L 512.08 27.54
  A 0.58 0.58 0.0 0 1 512.65 28.11
  C 512.65 28.97 512.21 33.75 513.53 33.43
  Q 514.04 33.31 514.05 32.79
  L 514.22 18.33
  Q 514.23 17.77 513.67 17.76
  C 512.04 17.73 506.26 17.14 505.81 19.27
  A 0.40 0.40 0.0 0 0 506.37 19.72
  C 511.30 17.49 513.79 21.23 512.63 25.75
  Q 512.49 26.28 511.95 26.27
  L 505.54 26.15
  A 0.55 0.55 0.0 0 1 505.00 25.60
  L 505.00 21.60
  Q 505.00 21.20 504.60 21.26
  L 504.36 21.29
  A 0.42 0.41 -4.0 0 0 504.00 21.70
  L 504.00 25.74
  Q 504.00 26.23 503.51 26.23
  L 488.49 26.32
  A 0.59 0.59 0.0 0 1 487.90 25.74
  L 487.73 19.86
  A 0.84 0.84 0.0 0 1 488.59 18.99
  L 495.42 19.16
  A 0.33 0.32 -89.2 0 0 495.75 18.83
  L 495.75 18.57
  Q 495.75 18.14 495.32 18.13
  L 487.11 17.96
  Q 486.43 17.94 486.43 18.63
  L 486.41 35.91
  Q 486.41 36.51 487.02 36.53
  L 496.73 36.80
  Z
  M 503.77 19.45
  L 503.84 18.19
  A 0.17 0.17 0.0 0 0 503.69 18.01
  L 503.03 17.97
  A 4.67 0.77 3.6 0 0 498.32 18.45
  L 498.31 18.51
  A 4.67 0.77 3.6 0 0 502.93 19.57
  L 503.58 19.61
  A 0.17 0.17 0.0 0 0 503.77 19.45
  Z
  M 500.89 22.74
  C 501.25 22.38 500.65 21.95 500.31 21.99
  A 0.56 0.56 0.0 0 0 499.87 22.78
  Q 499.97 23.01 500.45 23.23
  Q 500.50 23.26 500.56 23.23
  Q 500.77 23.13 500.80 22.92
  Q 500.82 22.82 500.89 22.74
  Z
  M 508.12 22.78
  Q 509.42 24.04 509.25 22.19
  Q 509.23 22.00 509.04 22.00
  Q 508.77 22.00 508.52 21.97
  A 0.48 0.47 71.4 0 0 508.12 22.78
  Z
  M 492.59 23.33
  Q 492.87 22.99 492.69 22.55
  Q 492.45 21.93 491.96 22.38
  Q 491.36 22.92 492.06 23.41
  A 0.40 0.40 0.0 0 0 492.59 23.33
  Z
  M 508.76 30.10
  A 0.60 0.59 85.5 0 0 508.02 30.97
  L 508.44 31.60
  A 0.38 0.38 0.0 0 0 509.10 31.57
  Q 509.66 30.51 508.76 30.10
  Z"
/>
<path fill="#bfbfbe" d="
  M 29.67 18.52
  L 30.15 59.56
  Q 29.39 70.99 31.47 81.95
  Q 28.70 82.97 26.21 82.78
  L 7.80 82.97
  L 7.26 73.25
  Q 10.73 70.02 14.71 68.32
  Q 15.25 68.08 15.25 67.49
  L 15.25 62.07
  Q 15.25 61.59 14.86 61.31
  L 6.88 55.56
  Q 7.81 52.29 7.36 48.75
  L 7.57 46.24
  Q 7.62 45.61 8.26 45.59
  Q 10.50 45.53 12.85 48.20
  Q 12.00 51.42 13.17 54.58
  C 16.93 64.75 30.66 51.51 20.25 43.46
  Q 21.24 42.46 22.67 42.26
  Q 23.21 42.18 23.46 42.67
  Q 24.39 44.50 26.61 43.95
  A 0.80 0.80 0.0 0 0 27.22 43.17
  L 27.09 18.47
  A 1.26 1.25 -86.4 0 1 28.50 17.22
  Q 29.39 17.32 29.67 18.52
  Z"
/>
<path fill="#141313" d="
  M 149.05 17.61
  L 335.25 17.27
  Q 334.36 17.51 333.48 17.80
  Q 333.03 17.95 333.44 18.20
  L 333.80 18.41
  Q 333.90 18.47 333.78 18.48
  L 318.51 18.68
  Q 318.11 18.68 317.82 18.96
  Q 317.56 19.21 317.00 19.21
  C 265.77 19.33 214.54 19.13 163.31 19.56
  Q 160.56 19.59 157.82 20.03
  Q 157.28 20.12 157.00 20.58
  Q 155.79 22.56 153.53 22.80
  Q 152.95 22.86 152.60 23.33
  Q 151.10 25.39 151.54 27.97
  A 1.56 1.55 -5.2 0 1 150.03 29.78
  Q 104.15 30.61 58.26 29.65
  A 1.70 1.70 0.0 0 1 56.60 28.06
  L 56.18 21.51
  Q 56.14 20.98 55.61 20.91
  Q 47.22 19.78 37.59 20.19
  Q 35.53 20.27 35.20 18.65
  C 36.82 16.85 49.43 18.27 52.16 18.51
  L 149.05 17.61
  Z"
/>
<path fill="#242424" d="
  M 335.25 17.27
  L 454.51 17.33
  L 450.48 17.53
  Q 449.88 17.56 449.99 18.15
  L 450.09 18.65
  Q 450.21 19.25 450.82 19.25
  L 483.53 19.25
  A 0.89 0.89 0.0 0 1 484.42 20.13
  Q 484.51 26.49 484.53 32.92
  C 484.54 35.72 485.18 38.52 485.42 41.38
  Q 485.46 41.89 485.97 41.84
  Q 494.26 41.15 502.55 41.40
  C 506.91 41.53 512.43 40.98 517.37 41.24
  C 523.90 41.59 530.44 41.22 536.99 41.24
  C 541.20 41.26 546.29 40.44 551.01 40.50
  A 0.52 0.51 -81.6 0 1 551.50 41.17
  C 550.42 44.90 547.53 46.36 547.68 50.46
  L 480.97 51.30
  Q 479.83 51.32 479.91 50.90
  C 476.10 46.84 452.61 21.62 449.00 21.64
  Q 333.87 22.14 218.75 22.57
  L 187.75 22.48
  C 185.22 21.94 183.03 21.91 180.89 23.72
  C 173.19 30.28 166.34 37.57 158.82 44.31
  Q 158.79 43.67 158.44 43.43
  A 0.68 0.68 0.0 0 0 157.63 43.45
  L 153.11 46.97
  Q 152.58 47.38 151.92 47.26
  Q 143.70 45.77 138.44 46.40
  C 134.67 46.86 130.83 46.27 128.18 46.34
  Q 112.28 46.75 96.38 46.63
  Q 95.38 46.62 94.00 46.43
  Q 93.18 46.32 92.35 46.26
  Q 91.89 46.23 91.47 46.05
  Q 90.16 45.49 90.28 44.30
  A 1.62 1.62 0.0 0 0 88.71 42.52
  Q 82.39 42.38 76.19 43.06
  Q 70.29 43.72 57.24 42.37
  Q 55.87 42.22 56.22 44.27
  Q 55.69 42.95 54.49 42.97
  Q 43.77 43.12 32.98 42.88
  Q 32.47 42.87 32.49 43.38
  L 32.79 49.50
  L 32.52 56.21
  C 32.30 47.43 31.69 38.49 32.17 29.75
  Q 32.49 23.75 32.81 17.72
  L 35.20 18.65
  Q 35.53 20.27 37.59 20.19
  Q 47.22 19.78 55.61 20.91
  Q 56.14 20.98 56.18 21.51
  L 56.60 28.06
  A 1.70 1.70 0.0 0 0 58.26 29.65
  Q 104.15 30.61 150.03 29.78
  A 1.56 1.55 -5.2 0 0 151.54 27.97
  Q 151.10 25.39 152.60 23.33
  Q 152.95 22.86 153.53 22.80
  Q 155.79 22.56 157.00 20.58
  Q 157.28 20.12 157.82 20.03
  Q 160.56 19.59 163.31 19.56
  C 214.54 19.13 265.77 19.33 317.00 19.21
  Q 317.56 19.21 317.82 18.96
  Q 318.11 18.68 318.51 18.68
  L 333.78 18.48
  Q 333.90 18.47 333.80 18.41
  L 333.44 18.20
  Q 333.03 17.95 333.48 17.80
  Q 334.36 17.51 335.25 17.27
  Z
  M 482.4424 41.5901
  A 1.09 0.83 29.1 0 0 481.8937 40.3348
  A 1.09 0.83 29.1 0 0 480.5376 40.5299
  A 1.09 0.83 29.1 0 0 481.0863 41.7852
  A 1.09 0.83 29.1 0 0 482.4424 41.5901
  Z"
/>
<path fill="#727272" d="
  M 551.30 17.61
  L 552.46 19.09
  L 552.22 35.96
  Q 552.22 36.49 551.69 36.50
  L 542.75 36.54
  L 526.83 36.59
  L 517.37 36.51
  A 0.59 0.59 0.0 0 1 516.78 35.92
  L 516.79 19.40
  A 1.49 1.48 3.9 0 1 518.48 17.93
  Q 521.40 18.34 524.21 17.47
  Q 524.68 17.33 525.06 17.63
  Q 525.18 17.73 525.30 17.81
  Q 525.56 18.00 525.88 17.99
  L 551.30 17.61
  Z
  M 525.9455 19.7869
  A 0.53 0.53 0.0 0 0 525.4164 19.2560
  L 518.5364 19.2440
  A 0.53 0.53 0.0 0 0 518.0055 19.7731
  L 517.9945 26.0531
  A 0.53 0.53 0.0 0 0 518.5236 26.5840
  L 525.4036 26.5960
  A 0.53 0.53 0.0 0 0 525.9345 26.0669
  L 525.9455 19.7869
  Z
  M 527.53 26.38
  L 533.27 26.51
  A 0.85 0.85 0.0 0 0 534.14 25.68
  L 534.20 23.02
  A 3.69 3.36 -88.7 0 0 530.92 19.26
  L 530.20 19.24
  A 3.69 3.36 -88.7 0 0 526.76 22.86
  L 526.70 25.51
  A 0.85 0.85 0.0 0 0 527.53 26.38
  Z
  M 535.22 26.13
  L 541.98 26.27
  A 0.26 0.26 0.0 0 0 542.24 26.02
  L 542.31 22.88
  A 3.54 3.48 -88.8 0 0 538.90 19.26
  L 538.58 19.26
  A 3.54 3.48 -88.8 0 0 535.03 22.72
  L 534.96 25.86
  A 0.26 0.26 0.0 0 0 535.22 26.13
  Z
  M 544.14 26.11
  L 550.10 26.15
  A 0.92 0.92 0.0 0 0 551.03 25.23
  L 551.04 22.87
  A 3.62 3.58 -89.7 0 0 547.48 19.23
  L 546.84 19.23
  A 3.62 3.58 -89.7 0 0 543.24 22.83
  L 543.23 25.19
  A 0.92 0.92 0.0 0 0 544.14 26.11
  Z
  M 525.91 33.60
  L 525.65 29.62
  Q 525.62 29.17 525.25 28.91
  Q 521.52 26.31 518.40 29.17
  Q 517.99 29.53 518.00 30.08
  L 518.01 34.42
  Q 518.01 34.90 518.49 34.90
  L 533.47 35.06
  A 0.78 0.77 -89.6 0 0 534.25 34.28
  L 534.25 30.22
  A 1.41 1.40 -66.1 0 0 533.89 29.28
  Q 530.75 25.74 527.14 28.91
  A 1.18 1.16 -21.2 0 0 526.75 29.78
  Q 526.76 31.86 526.72 33.86
  A 0.11 0.10 82.8 0 1 526.65 33.96
  Q 526.47 34.02 526.32 34.01
  Q 525.93 33.99 525.91 33.60
  Z
  M 542.25 32.29
  L 542.25 28.54
  A 0.92 0.92 0.0 0 0 541.30 27.62
  L 535.51 27.80
  Q 535.10 27.82 535.07 28.23
  L 534.70 34.03
  A 1.07 1.07 0.0 0 0 535.80 35.16
  L 550.93 34.69
  A 0.23 0.22 -3.6 0 0 551.15 34.45
  L 550.69 28.20
  Q 550.65 27.75 550.20 27.75
  L 543.96 27.75
  Q 543.33 27.75 543.28 28.37
  Q 543.12 30.17 543.19 31.97
  Q 543.20 32.14 543.16 32.32
  Q 543.07 32.70 542.79 32.74
  Q 542.25 32.83 542.25 32.29
  Z"
/>
<path fill="#727272" d="
  M 503.61 36.52
  L 496.73 36.80
  L 487.02 36.53
  Q 486.41 36.51 486.41 35.91
  L 486.43 18.63
  Q 486.43 17.94 487.11 17.96
  L 495.32 18.13
  Q 495.75 18.14 495.75 18.57
  L 495.75 18.83
  A 0.33 0.32 -89.2 0 1 495.42 19.16
  L 488.59 18.99
  A 0.84 0.84 0.0 0 0 487.73 19.86
  L 487.90 25.74
  A 0.59 0.59 0.0 0 0 488.49 26.32
  L 503.51 26.23
  Q 504.00 26.23 504.00 25.74
  L 504.00 21.70
  A 0.42 0.41 -4.0 0 1 504.36 21.29
  L 504.60 21.26
  Q 505.00 21.20 505.00 21.60
  L 505.00 25.60
  A 0.55 0.55 0.0 0 0 505.54 26.15
  L 511.95 26.27
  Q 512.49 26.28 512.63 25.75
  C 513.79 21.23 511.30 17.49 506.37 19.72
  A 0.40 0.40 0.0 0 1 505.81 19.27
  C 506.26 17.14 512.04 17.73 513.67 17.76
  Q 514.23 17.77 514.22 18.33
  L 514.05 32.79
  Q 514.04 33.31 513.53 33.43
  C 512.21 33.75 512.65 28.97 512.65 28.11
  A 0.58 0.58 0.0 0 0 512.08 27.54
  L 505.54 27.41
  A 0.56 0.56 0.0 0 0 504.97 27.95
  L 504.84 34.23
  Q 504.82 35.15 505.74 35.12
  L 513.56 34.81
  Q 514.00 34.79 514.00 35.23
  L 514.00 35.91
  Q 514.00 36.53 513.38 36.53
  L 503.61 36.52
  Z
  M 488.16 35.01
  L 495.22 34.99
  A 0.23 0.23 0.0 0 0 495.45 34.76
  L 495.44 30.98
  A 3.45 3.30 89.8 0 0 492.13 27.54
  L 491.21 27.54
  A 3.45 3.30 89.8 0 0 487.92 31.00
  L 487.93 34.78
  A 0.23 0.23 0.0 0 0 488.16 35.01
  Z
  M 497.41 35.06
  L 502.90 35.31
  A 1.17 1.17 0.0 0 0 504.12 34.20
  L 504.25 31.43
  A 3.78 3.64 -87.4 0 0 500.78 27.49
  L 500.23 27.46
  A 3.78 3.64 -87.4 0 0 496.42 31.07
  L 496.29 33.84
  A 1.17 1.17 0.0 0 0 497.41 35.06
  Z"
/>
<path fill="#727272" d="
  M 503.77 19.45
  A 0.17 0.17 0.0 0 1 503.58 19.61
  L 502.93 19.57
  A 4.67 0.77 3.6 0 1 498.31 18.51
  L 498.32 18.45
  A 4.67 0.77 3.6 0 1 503.03 17.97
  L 503.69 18.01
  A 0.17 0.17 0.0 0 1 503.84 18.19
  L 503.77 19.45
  Z"
/>
<path fill="#141313" d="
  M 525.9345 26.0669
  A 0.53 0.53 0.0 0 1 525.4036 26.5960
  L 518.5236 26.5840
  A 0.53 0.53 0.0 0 1 517.9945 26.0531
  L 518.0055 19.7731
  A 0.53 0.53 0.0 0 1 518.5364 19.2440
  L 525.4164 19.2560
  A 0.53 0.53 0.0 0 1 525.9455 19.7869
  L 525.9345 26.0669
  Z
  M 521.40 22.06
  Q 521.00 21.78 521.00 22.27
  L 521.00 22.84
  A 0.47 0.46 -11.1 0 0 521.64 23.27
  Q 522.56 22.90 521.40 22.06
  Z"
/>
<path fill="#141313" d="
  M 527.53 26.38
  A 0.85 0.85 0.0 0 1 526.70 25.51
  L 526.76 22.86
  A 3.69 3.36 -88.7 0 1 530.20 19.24
  L 530.92 19.26
  A 3.69 3.36 -88.7 0 1 534.20 23.02
  L 534.14 25.68
  A 0.85 0.85 0.0 0 1 533.27 26.51
  L 527.53 26.38
  Z
  M 530.25 22.79
  Q 530.24 22.64 530.25 22.47
  A 0.32 0.32 0.0 0 0 529.85 22.13
  Q 528.52 22.45 529.59 23.18
  Q 530.32 23.67 530.25 22.79
  Z"
/>
<path fill="#141313" d="
  M 535.22 26.13
  A 0.26 0.26 0.0 0 1 534.96 25.86
  L 535.03 22.72
  A 3.54 3.48 -88.8 0 1 538.58 19.26
  L 538.90 19.26
  A 3.54 3.48 -88.8 0 1 542.31 22.88
  L 542.24 26.02
  A 0.26 0.26 0.0 0 1 541.98 26.27
  L 535.22 26.13
  Z
  M 538.10 23.45
  Q 538.86 22.99 538.82 22.63
  A 0.86 0.72 44.4 0 0 537.24 22.50
  L 537.28 23.02
  Q 537.35 23.90 538.10 23.45
  Z"
/>
<path fill="#141313" d="
  M 544.14 26.11
  A 0.92 0.92 0.0 0 1 543.23 25.19
  L 543.24 22.83
  A 3.62 3.58 -89.7 0 1 546.84 19.23
  L 547.48 19.23
  A 3.62 3.58 -89.7 0 1 551.04 22.87
  L 551.03 25.23
  A 0.92 0.92 0.0 0 1 550.10 26.15
  L 544.14 26.11
  Z
  M 546.63 22.66
  Q 544.64 21.01 545.92 23.36
  Q 546.07 23.62 546.33 23.47
  L 546.57 23.33
  Q 547.07 23.03 546.63 22.66
  Z"
/>
<path fill="#fefefe" d="
  M 479.91 50.90
  Q 479.51 51.99 477.99 51.75
  Q 477.16 51.90 476.78 51.47
  Q 470.57 44.47 463.78 38.06
  C 460.23 34.71 452.31 24.29 447.00 24.29
  Q 377.50 24.38 308.00 24.29
  C 282.56 24.22 257.04 23.86 231.62 24.54
  Q 225.21 24.71 218.81 24.09
  A 0.60 0.60 0.0 0 1 218.27 23.54
  Q 218.22 22.96 218.75 22.57
  Q 333.87 22.14 449.00 21.64
  C 452.61 21.62 476.10 46.84 479.91 50.90
  Z"
/>
<path fill="#727272" d="
  M 500.80 22.92
  Q 500.77 23.13 500.56 23.23
  Q 500.50 23.26 500.45 23.23
  Q 499.97 23.01 499.87 22.78
  A 0.56 0.56 0.0 0 1 500.31 21.99
  C 500.65 21.95 501.25 22.38 500.89 22.74
  Q 500.82 22.82 500.80 22.92
  Z"
/>
<path fill="#727272" d="
  M 508.52 21.97
  Q 508.77 22.00 509.04 22.00
  Q 509.23 22.00 509.25 22.19
  Q 509.42 24.04 508.12 22.78
  A 0.48 0.47 71.4 0 1 508.52 21.97
  Z"
/>
<path fill="#868686" d="
  M 521.40 22.06
  Q 522.56 22.90 521.64 23.27
  A 0.47 0.46 -11.1 0 1 521.00 22.84
  L 521.00 22.27
  Q 521.00 21.78 521.40 22.06
  Z"
/>
<path fill="#868686" d="
  M 529.59 23.18
  Q 528.52 22.45 529.85 22.13
  A 0.32 0.32 0.0 0 1 530.25 22.47
  Q 530.24 22.64 530.25 22.79
  Q 530.32 23.67 529.59 23.18
  Z"
/>
<path fill="#727272" d="
  M 538.10 23.45
  Q 537.35 23.90 537.28 23.02
  L 537.24 22.50
  A 0.86 0.72 44.4 0 1 538.82 22.63
  Q 538.86 22.99 538.10 23.45
  Z"
/>
<path fill="#727272" d="
  M 546.57 23.33
  L 546.33 23.47
  Q 546.07 23.62 545.92 23.36
  Q 544.64 21.01 546.63 22.66
  Q 547.07 23.03 546.57 23.33
  Z"
/>
<path fill="#868686" d="
  M 187.75 22.48
  Q 184.19 22.13 181.93 24.45
  Q 168.43 38.31 154.82 51.13
  A 2.29 2.29 0.0 0 0 156.36 55.09
  L 186.51 55.52
  Q 186.25 55.89 186.19 56.24
  Q 184.99 56.62 182.75 56.69
  Q 169.09 57.13 158.29 56.73
  C 154.86 56.60 152.15 55.58 151.10 52.30
  L 158.82 44.31
  C 166.34 37.57 173.19 30.28 180.89 23.72
  C 183.03 21.91 185.22 21.94 187.75 22.48
  Z"
/>
<path fill="#727272" d="
  M 492.06 23.41
  Q 491.36 22.92 491.96 22.38
  Q 492.45 21.93 492.69 22.55
  Q 492.87 22.99 492.59 23.33
  A 0.40 0.40 0.0 0 1 492.06 23.41
  Z"
/>
<path fill="#bfbfbe" d="
  M 187.75 22.48
  L 218.75 22.57
  Q 218.22 22.96 218.27 23.54
  A 0.60 0.60 0.0 0 0 218.81 24.09
  Q 225.21 24.71 231.62 24.54
  C 257.04 23.86 282.56 24.22 308.00 24.29
  L 307.97 25.52
  Q 307.95 26.04 307.44 26.02
  C 301.44 25.85 295.51 26.55 289.61 26.25
  C 282.75 25.92 275.82 26.53 268.91 26.35
  Q 266.36 26.28 263.14 26.72
  C 257.46 27.50 251.01 26.92 245.63 27.12
  Q 242.50 27.24 238.41 26.72
  C 230.97 25.78 222.59 27.21 215.08 27.86
  C 213.36 28.01 211.39 28.99 210.31 30.07
  C 201.49 38.91 193.60 45.46 186.30 54.19
  A 0.49 0.48 -65.4 0 0 186.59 54.99
  L 187.03 55.06
  Q 186.80 55.40 186.51 55.52
  L 156.36 55.09
  A 2.29 2.29 0.0 0 1 154.82 51.13
  Q 168.43 38.31 181.93 24.45
  Q 184.19 22.13 187.75 22.48
  Z
  M 185.7390 41.5150
  A 6.59 6.37 -1.0 0 0 179.0388 35.2610
  A 6.59 6.37 -1.0 0 0 172.5610 41.7450
  A 6.59 6.37 -1.0 0 0 179.2612 47.9990
  A 6.59 6.37 -1.0 0 0 185.7390 41.5150
  Z"
/>
<path fill="#cecece" d="
  M 308.00 24.29
  Q 377.50 24.38 447.00 24.29
  C 452.31 24.29 460.23 34.71 463.78 38.06
  Q 470.57 44.47 476.78 51.47
  Q 477.16 51.90 477.99 51.75
  L 477.13 53.35
  Q 476.88 53.82 476.34 53.80
  Q 462.07 53.24 447.81 53.68
  Q 447.09 53.24 446.07 54.70
  Q 445.72 54.26 445.50 54.21
  Q 433.82 42.66 422.18 31.07
  C 420.20 29.10 418.41 28.49 415.75 28.50
  Q 403.50 28.51 391.24 28.46
  L 215.40 29.38
  A 5.85 5.85 0.0 0 0 211.31 31.07
  L 195.44 46.66
  L 187.03 55.06
  L 186.59 54.99
  A 0.49 0.48 -65.4 0 1 186.30 54.19
  C 193.60 45.46 201.49 38.91 210.31 30.07
  C 211.39 28.99 213.36 28.01 215.08 27.86
  C 222.59 27.21 230.97 25.78 238.41 26.72
  Q 242.50 27.24 245.63 27.12
  C 251.01 26.92 257.46 27.50 263.14 26.72
  Q 266.36 26.28 268.91 26.35
  C 275.82 26.53 282.75 25.92 289.61 26.25
  C 295.51 26.55 301.44 25.85 307.44 26.02
  Q 307.95 26.04 307.97 25.52
  L 308.00 24.29
  Z
  M 460.72 40.99
  A 6.36 6.36 0.0 0 0 454.36 34.63
  A 6.36 6.36 0.0 0 0 448.00 40.99
  A 6.36 6.36 0.0 0 0 454.36 47.35
  A 6.36 6.36 0.0 0 0 460.72 40.99
  Z"
/>
<path fill="#727272" d="
  M 14.69 26.20
  Q 12.05 29.96 8.44 31.84
  Q 7.97 32.09 7.95 32.62
  L 7.36 48.75
  Q 7.81 52.29 6.88 55.56
  L 6.66 31.34
  A 0.88 0.87 75.3 0 1 7.10 30.58
  L 14.69 26.20
  Z"
/>
<path fill="#141313" d="
  M 488.16 35.01
  A 0.23 0.23 0.0 0 1 487.93 34.78
  L 487.92 31.00
  A 3.45 3.30 89.8 0 1 491.21 27.54
  L 492.13 27.54
  A 3.45 3.30 89.8 0 1 495.44 30.98
  L 495.45 34.76
  A 0.23 0.23 0.0 0 1 495.22 34.99
  L 488.16 35.01
  Z
  M 492.92 30.62
  A 0.48 0.47 -10.2 0 0 492.36 30.24
  L 491.88 30.33
  A 0.73 0.73 0.0 0 0 491.98 31.77
  Q 493.11 31.84 492.92 30.62
  Z"
/>
<path fill="#141313" d="
  M 497.41 35.06
  A 1.17 1.17 0.0 0 1 496.29 33.84
  L 496.42 31.07
  A 3.78 3.64 -87.4 0 1 500.23 27.46
  L 500.78 27.49
  A 3.78 3.64 -87.4 0 1 504.25 31.43
  L 504.12 34.20
  A 1.17 1.17 0.0 0 1 502.90 35.31
  L 497.41 35.06
  Z
  M 500.4254 31.7700
  A 0.77 0.61 89.6 0 0 501.0300 30.9957
  A 0.77 0.61 89.6 0 0 500.4146 30.2300
  A 0.77 0.61 89.6 0 0 499.8100 31.0043
  A 0.77 0.61 89.6 0 0 500.4254 31.7700
  Z"
/>
<path fill="#141313" d="
  M 526.32 34.01
  Q 526.47 34.02 526.65 33.96
  A 0.11 0.10 82.8 0 0 526.72 33.86
  Q 526.76 31.86 526.75 29.78
  A 1.18 1.16 -21.2 0 1 527.14 28.91
  Q 530.75 25.74 533.89 29.28
  A 1.41 1.40 -66.1 0 1 534.25 30.22
  L 534.25 34.28
  A 0.78 0.77 -89.6 0 1 533.47 35.06
  L 518.49 34.90
  Q 518.01 34.90 518.01 34.42
  L 518.00 30.08
  Q 517.99 29.53 518.40 29.17
  Q 521.52 26.31 525.25 28.91
  Q 525.62 29.17 525.65 29.62
  L 525.91 33.60
  Q 525.93 33.99 526.32 34.01
  Z
  M 521.49 31.90
  A 0.60 0.59 85.5 0 0 522.23 31.03
  L 521.81 30.40
  A 0.38 0.38 0.0 0 0 521.15 30.43
  Q 520.59 31.49 521.49 31.90
  Z
  M 530.1888 31.9179
  A 0.91 0.75 62.6 0 0 530.4359 30.7649
  A 0.91 0.75 62.6 0 0 529.3512 30.3021
  A 0.91 0.75 62.6 0 0 529.1041 31.4551
  A 0.91 0.75 62.6 0 0 530.1888 31.9179
  Z"
/>
<path fill="#141313" d="
  M 542.79 32.74
  Q 543.07 32.70 543.16 32.32
  Q 543.20 32.14 543.19 31.97
  Q 543.12 30.17 543.28 28.37
  Q 543.33 27.75 543.96 27.75
  L 550.20 27.75
  Q 550.65 27.75 550.69 28.20
  L 551.15 34.45
  A 0.23 0.22 -3.6 0 1 550.93 34.69
  L 535.80 35.16
  A 1.07 1.07 0.0 0 1 534.70 34.03
  L 535.07 28.23
  Q 535.10 27.82 535.51 27.80
  L 541.30 27.62
  A 0.92 0.92 0.0 0 1 542.25 28.54
  L 542.25 32.29
  Q 542.25 32.83 542.79 32.74
  Z
  M 538.9647 30.6475
  A 0.90 0.83 -28.0 0 0 537.7803 30.3372
  A 0.90 0.83 -28.0 0 0 537.3753 31.4925
  A 0.90 0.83 -28.0 0 0 538.5597 31.8028
  A 0.90 0.83 -28.0 0 0 538.9647 30.6475
  Z
  M 547.00 30.85
  A 0.50 0.49 5.0 0 0 546.48 30.24
  L 545.90 30.28
  A 0.59 0.59 0.0 0 0 545.50 31.25
  Q 546.59 32.55 547.00 30.85
  Z"
/>
<path fill="#242424" d="
  M 391.24 28.46
  L 400.76 28.84
  Q 401.66 28.88 400.93 29.40
  C 399.46 30.47 397.04 29.81 395.11 30.60
  Q 394.61 30.80 394.12 30.56
  Q 392.84 29.94 391.62 30.54
  A 1.04 1.01 81.1 0 0 391.05 31.34
  Q 390.75 33.63 388.75 33.44
  L 375.59 33.29
  A 0.58 0.58 0.0 0 0 375.01 33.94
  L 375.24 35.71
  Q 375.34 36.50 376.13 36.50
  L 379.35 36.50
  Q 380.45 36.50 380.43 37.60
  L 380.18 50.23
  A 1.17 1.16 16.7 0 0 380.72 51.23
  Q 381.88 51.95 383.88 51.24
  Q 384.44 50.85 384.63 50.82
  A 0.92 0.92 0.0 0 1 385.14 52.58
  C 381.54 54.05 378.91 52.96 379.02 48.82
  Q 379.14 43.85 379.07 38.85
  Q 379.06 38.12 378.33 38.11
  L 373.99 38.04
  Q 373.34 38.03 373.45 38.67
  C 374.05 42.35 375.49 51.46 370.71 53.01
  A 1.23 1.22 49.6 0 1 369.76 52.93
  L 367.70 51.83
  C 373.91 51.79 372.75 45.49 372.43 41.64
  A 0.70 0.69 -2.2 0 0 371.73 41.00
  L 365.10 41.00
  Q 364.44 41.00 364.48 41.65
  L 364.56 43.33
  Q 364.60 44.00 365.26 44.00
  L 367.98 44.00
  Q 368.77 44.00 368.75 44.79
  L 368.70 47.11
  A 0.78 0.77 -7.6 0 1 368.14 47.84
  Q 364.33 48.93 360.83 47.16
  Q 360.29 46.88 360.30 46.28
  L 360.44 37.43
  A 0.69 0.69 0.0 0 1 361.13 36.75
  L 371.12 36.75
  Q 371.75 36.75 371.75 36.12
  L 371.75 33.87
  A 0.63 0.62 -0.0 0 0 371.12 33.25
  L 359.77 33.25
  A 2.70 2.69 -88.7 0 0 357.08 35.82
  L 356.71 43.75
  Q 356.44 44.55 355.60 44.83
  A 0.56 0.56 0.0 0 1 354.87 44.30
  L 354.69 30.74
  Q 354.68 30.00 353.94 30.00
  L 348.63 30.00
  Q 348.02 30.00 347.98 30.60
  L 347.64 36.22
  Q 347.61 36.67 347.31 37.02
  C 344.90 39.85 345.14 44.35 346.57 47.70
  C 351.09 58.23 333.21 51.02 328.87 53.23
  A 1.76 1.76 0.0 0 1 327.94 53.41
  Q 324.68 53.13 321.39 53.25
  C 319.60 53.31 317.89 52.49 315.85 53.18
  Q 315.39 53.34 314.96 53.11
  L 314.34 52.79
  Q 313.97 52.60 313.66 52.87
  C 312.42 53.95 309.30 53.15 310.20 51.63
  Q 311.84 52.04 312.55 51.67
  A 0.62 0.62 0.0 0 0 312.80 50.81
  L 309.31 44.83
  A 0.54 0.53 -31.4 0 1 309.49 44.10
  L 311.05 43.13
  A 1.42 1.38 -10.0 0 0 311.68 42.26
  Q 312.63 38.36 311.33 34.60
  A 1.65 1.64 80.2 0 0 309.78 33.50
  L 298.41 33.50
  A 0.66 0.65 -0.0 0 0 297.75 34.15
  L 297.75 50.74
  Q 297.75 51.30 298.25 51.52
  Q 299.53 52.09 300.85 51.47
  L 301.21 51.82
  A 0.67 0.67 0.0 0 1 300.82 52.98
  Q 298.29 53.25 296.16 51.99
  A 1.13 1.12 48.7 0 0 295.15 51.92
  Q 288.40 54.78 281.50 52.95
  Q 280.33 52.64 280.50 51.74
  L 291.25 51.74
  A 2.76 2.75 -90.0 0 0 294.00 48.98
  L 294.00 36.15
  A 2.66 2.66 0.0 0 0 291.34 33.50
  L 281.21 33.50
  A 2.97 2.97 0.0 0 0 278.24 36.52
  L 278.46 49.50
  L 278.04 52.67
  A 0.97 0.96 -11.9 0 1 277.58 53.37
  C 268.97 58.50 262.97 53.92 254.49 55.71
  Q 253.28 55.97 252.20 55.51
  A 1.78 1.67 -35.9 0 0 251.27 55.39
  Q 245.64 56.16 239.94 55.98
  C 237.48 55.90 235.59 54.26 232.73 55.20
  A 1.02 1.02 0.0 0 0 232.07 55.86
  C 230.74 59.86 224.72 55.73 221.61 55.73
  Q 208.93 55.76 196.25 56.02
  C 194.70 56.05 189.89 55.19 188.80 57.48
  Q 188.64 57.81 188.28 57.78
  Q 188.12 57.76 187.99 57.67
  Q 187.53 57.62 187.33 57.12
  L 196.44 47.61
  A 0.49 0.49 0.0 0 0 196.17 46.79
  L 195.44 46.66
  L 211.31 31.07
  A 5.85 5.85 0.0 0 1 215.40 29.38
  L 391.24 28.46
  Z
  M 237.92 33.35
  Q 232.41 32.98 227.29 33.45
  A 2.17 2.17 0.0 0 0 225.33 35.53
  L 224.98 46.02
  A 5.54 5.54 0.0 0 0 230.52 51.75
  L 237.75 51.75
  A 2.75 2.75 0.0 0 0 240.50 49.00
  L 240.50 41.75
  Q 240.50 41.25 240.00 41.25
  L 233.35 41.25
  Q 232.69 41.25 232.73 41.90
  L 232.82 43.68
  A 0.69 0.69 0.0 0 0 233.61 44.33
  L 236.11 43.95
  A 0.68 0.67 -3.7 0 1 236.88 44.62
  L 236.84 47.59
  Q 236.83 48.26 236.16 48.26
  L 230.97 48.24
  A 2.54 2.54 0.0 0 1 228.44 45.65
  L 228.64 37.30
  A 0.56 0.56 0.0 0 1 229.20 36.75
  L 239.23 36.75
  Q 239.61 36.75 239.78 36.41
  C 240.82 34.38 240.04 33.50 237.92 33.35
  Z
  M 329.07 47.76
  L 329.14 38.98
  Q 329.14 38.33 328.49 38.31
  L 325.61 38.22
  A 0.67 0.67 0.0 0 1 325.21 37.03
  L 325.52 36.78
  L 328.69 36.74
  A 0.56 0.56 0.0 0 0 329.25 36.18
  L 329.25 33.87
  Q 329.25 33.25 328.62 33.25
  L 319.25 33.25
  A 2.75 2.75 0.0 0 0 316.50 36.00
  L 316.50 48.90
  A 2.74 2.73 -88.8 0 0 319.12 51.64
  Q 323.76 51.84 328.42 51.73
  A 0.98 0.97 12.5 0 0 329.25 51.21
  Q 329.90 49.98 329.07 47.76
  Z
  M 336.40 47.79
  L 336.23 44.51
  A 0.60 0.59 -0.9 0 1 336.85 43.88
  C 338.88 43.95 344.55 45.38 343.70 41.40
  A 0.88 0.87 82.0 0 0 342.79 40.71
  L 337.09 41.06
  A 0.52 0.52 0.0 0 1 336.54 40.59
  L 336.19 37.06
  A 0.51 0.51 0.0 0 1 336.70 36.50
  L 344.88 36.50
  Q 345.50 36.50 345.50 35.88
  L 345.50 33.87
  Q 345.50 33.25 344.87 33.25
  L 333.65 33.26
  A 0.90 0.90 0.0 0 0 332.75 34.16
  L 332.75 51.07
  A 0.58 0.57 0.5 0 0 333.32 51.64
  L 344.47 51.80
  Q 345.21 51.81 345.49 51.13
  Q 346.10 49.64 345.26 48.39
  Q 344.93 47.91 344.34 47.93
  L 336.98 48.30
  Q 336.43 48.33 336.40 47.79
  Z
  M 248.00 48.00
  L 248.00 44.88
  Q 248.00 44.25 248.63 44.25
  L 254.87 44.25
  Q 255.50 44.25 255.50 43.62
  L 255.50 41.75
  Q 255.50 41.25 255.00 41.25
  L 248.81 41.25
  Q 248.37 41.25 248.33 40.81
  L 248.00 37.30
  Q 247.95 36.74 248.51 36.74
  L 256.76 36.75
  Q 257.47 36.75 257.46 36.05
  L 257.45 33.97
  A 0.48 0.47 0.0 0 0 256.97 33.50
  L 245.98 33.50
  Q 244.47 33.50 244.48 35.02
  L 244.67 50.96
  A 1.05 1.04 89.7 0 0 245.71 52.00
  L 256.37 52.00
  Q 256.93 52.00 257.19 51.50
  Q 257.80 50.27 257.24 48.99
  Q 257.02 48.50 256.48 48.50
  L 248.50 48.50
  Q 248.00 48.50 248.00 48.00
  Z
  M 265.25 44.00
  Q 268.62 44.00 271.98 44.00
  A 0.75 0.75 0.0 0 0 272.73 43.27
  L 272.76 41.89
  Q 272.77 41.25 272.13 41.25
  L 265.38 41.25
  Q 264.75 41.25 264.75 40.62
  L 264.75 37.51
  Q 264.75 36.86 265.40 36.81
  Q 268.94 36.56 272.50 36.94
  C 274.78 37.19 275.14 36.24 274.62 34.18
  A 0.90 0.88 82.9 0 0 273.76 33.50
  L 262.12 33.50
  Q 261.50 33.50 261.50 34.13
  L 261.50 51.21
  A 0.71 0.71 0.0 0 0 262.21 51.92
  L 264.04 51.92
  A 0.71 0.71 0.0 0 0 264.75 51.21
  L 264.75 44.50
  Q 264.75 44.00 265.25 44.00
  Z"
/>
<path fill="#333333" d="
  M 391.24 28.46
  Q 403.50 28.51 415.75 28.50
  C 418.41 28.49 420.20 29.10 422.18 31.07
  Q 433.82 42.66 445.50 54.21
  Q 445.27 54.15 445.07 54.22
  Q 444.61 54.40 444.87 54.82
  C 445.24 55.41 453.07 64.47 452.24 60.10
  L 485.99 59.78
  A 1.39 1.36 -23.7 0 1 486.91 60.13
  L 493.10 65.63
  L 498.35 71.67
  L 484.81 82.74
  L 351.00 83.16
  Q 351.43 82.88 350.26 81.77
  L 330.28 62.00
  A 3.98 3.97 67.7 0 0 327.57 60.86
  Q 309.87 60.54 291.68 60.72
  Q 242.23 61.21 192.74 61.04
  Q 190.30 61.03 187.99 57.67
  Q 188.12 57.76 188.28 57.78
  Q 188.64 57.81 188.80 57.48
  C 189.89 55.19 194.70 56.05 196.25 56.02
  Q 208.93 55.76 221.61 55.73
  C 224.72 55.73 230.74 59.86 232.07 55.86
  A 1.02 1.02 0.0 0 1 232.73 55.20
  C 235.59 54.26 237.48 55.90 239.94 55.98
  Q 245.64 56.16 251.27 55.39
  A 1.78 1.67 -35.9 0 1 252.20 55.51
  Q 253.28 55.97 254.49 55.71
  C 262.97 53.92 268.97 58.50 277.58 53.37
  A 0.97 0.96 -11.9 0 0 278.04 52.67
  L 278.46 49.50
  Q 279.00 51.14 280.50 51.74
  Q 280.33 52.64 281.50 52.95
  Q 288.40 54.78 295.15 51.92
  A 1.13 1.12 48.7 0 1 296.16 51.99
  Q 298.29 53.25 300.82 52.98
  A 0.67 0.67 0.0 0 0 301.21 51.82
  L 300.85 51.47
  L 300.95 45.19
  A 1.14 1.13 2.8 0 1 302.18 44.08
  L 305.07 44.32
  Q 305.47 44.35 305.68 44.71
  L 309.36 51.06
  Q 309.55 51.39 309.91 51.52
  L 310.20 51.63
  C 309.30 53.15 312.42 53.95 313.66 52.87
  Q 313.97 52.60 314.34 52.79
  L 314.96 53.11
  Q 315.39 53.34 315.85 53.18
  C 317.89 52.49 319.60 53.31 321.39 53.25
  Q 324.68 53.13 327.94 53.41
  A 1.76 1.76 0.0 0 0 328.87 53.23
  C 333.21 51.02 351.09 58.23 346.57 47.70
  C 345.14 44.35 344.90 39.85 347.31 37.02
  Q 347.61 36.67 347.64 36.22
  L 347.98 30.60
  Q 348.02 30.00 348.63 30.00
  L 353.94 30.00
  Q 354.68 30.00 354.69 30.74
  L 354.87 44.30
  A 0.56 0.56 0.0 0 0 355.60 44.83
  Q 356.44 44.55 356.71 43.75
  C 356.08 52.06 361.89 51.42 367.70 51.83
  L 369.76 52.93
  A 1.23 1.22 49.6 0 0 370.71 53.01
  C 375.49 51.46 374.05 42.35 373.45 38.67
  Q 373.34 38.03 373.99 38.04
  L 378.33 38.11
  Q 379.06 38.12 379.07 38.85
  Q 379.14 43.85 379.02 48.82
  C 378.91 52.96 381.54 54.05 385.14 52.58
  A 0.92 0.92 0.0 0 0 384.63 50.82
  Q 384.44 50.85 383.88 51.24
  L 383.80 37.23
  A 0.72 0.72 0.0 0 1 384.52 36.50
  L 388.27 36.50
  A 0.69 0.69 0.0 0 0 388.94 35.96
  Q 389.15 34.99 388.75 33.44
  Q 390.75 33.63 391.05 31.34
  A 1.04 1.01 81.1 0 1 391.62 30.54
  Q 392.84 29.94 394.12 30.56
  Q 394.61 30.80 395.11 30.60
  C 397.04 29.81 399.46 30.47 400.93 29.40
  Q 401.66 28.88 400.76 28.84
  L 391.24 28.46
  Z
  M 400.44 45.07
  L 404.47 50.93
  Q 404.86 51.50 405.54 51.54
  L 407.31 51.66
  A 0.82 0.82 0.0 0 0 408.05 50.40
  L 402.61 42.10
  A 0.74 0.74 0.0 0 1 402.60 41.29
  L 407.17 34.14
  Q 407.64 33.41 406.77 33.36
  L 404.22 33.21
  Q 403.58 33.17 403.26 33.73
  L 400.74 37.97
  A 0.65 0.65 0.0 0 1 399.59 37.92
  C 398.62 35.92 396.74 32.15 393.89 33.35
  A 0.64 0.64 0.0 0 0 393.60 34.27
  L 397.95 41.22
  Q 398.24 41.69 397.93 42.14
  L 392.28 50.30
  A 0.72 0.71 -63.0 0 0 392.63 51.38
  C 396.15 52.63 398.35 47.57 399.72 45.10
  Q 400.05 44.50 400.44 45.07
  Z"
/>
<path fill="#868686" d="
  M 508.76 30.10
  Q 509.66 30.51 509.10 31.57
  A 0.38 0.38 0.0 0 1 508.44 31.60
  L 508.02 30.97
  A 0.60 0.59 85.5 0 1 508.76 30.10
  Z"
/>
<path fill="#868686" d="
  M 492.92 30.62
  Q 493.11 31.84 491.98 31.77
  A 0.73 0.73 0.0 0 1 491.88 30.33
  L 492.36 30.24
  A 0.48 0.47 -10.2 0 1 492.92 30.62
  Z"
/>
<ellipse fill="#868686" cx="0.00" cy="0.00" transform="translate(500.42,31.00) rotate(89.6)" rx="0.77" ry="0.61"/>
<path fill="#868686" d="
  M 521.49 31.90
  Q 520.59 31.49 521.15 30.43
  A 0.38 0.38 0.0 0 1 521.81 30.40
  L 522.23 31.03
  A 0.60 0.59 85.5 0 1 521.49 31.90
  Z"
/>
<ellipse fill="#868686" cx="0.00" cy="0.00" transform="translate(529.77,31.11) rotate(62.6)" rx="0.91" ry="0.75"/>
<ellipse fill="#868686" cx="0.00" cy="0.00" transform="translate(538.17,31.07) rotate(-28.0)" rx="0.90" ry="0.83"/>
<path fill="#868686" d="
  M 547.00 30.85
  Q 546.59 32.55 545.50 31.25
  A 0.59 0.59 0.0 0 1 545.90 30.28
  L 546.48 30.24
  A 0.50 0.49 5.0 0 1 547.00 30.85
  Z"
/>
<path fill="#c6fa21" d="
  M 237.92 33.35
  C 240.04 33.50 240.82 34.38 239.78 36.41
  Q 239.61 36.75 239.23 36.75
  L 229.20 36.75
  A 0.56 0.56 0.0 0 0 228.64 37.30
  L 228.44 45.65
  A 2.54 2.54 0.0 0 0 230.97 48.24
  L 236.16 48.26
  Q 236.83 48.26 236.84 47.59
  L 236.88 44.62
  A 0.68 0.67 -3.7 0 0 236.11 43.95
  L 233.61 44.33
  A 0.69 0.69 0.0 0 1 232.82 43.68
  L 232.73 41.90
  Q 232.69 41.25 233.35 41.25
  L 240.00 41.25
  Q 240.50 41.25 240.50 41.75
  L 240.50 49.00
  A 2.75 2.75 0.0 0 1 237.75 51.75
  L 230.52 51.75
  A 5.54 5.54 0.0 0 1 224.98 46.02
  L 225.33 35.53
  A 2.17 2.17 0.0 0 1 227.29 33.45
  Q 232.41 32.98 237.92 33.35
  Z"
/>
<path fill="#c6fa21" d="
  M 325.52 36.78
  L 320.38 36.77
  A 0.55 0.54 89.5 0 0 319.84 37.33
  L 320.00 47.26
  Q 320.02 47.91 320.66 47.90
  L 329.07 47.76
  Q 329.90 49.98 329.25 51.21
  A 0.98 0.97 12.5 0 1 328.42 51.73
  Q 323.76 51.84 319.12 51.64
  A 2.74 2.73 -88.8 0 1 316.50 48.90
  L 316.50 36.00
  A 2.75 2.75 0.0 0 1 319.25 33.25
  L 328.62 33.25
  Q 329.25 33.25 329.25 33.87
  L 329.25 36.18
  A 0.56 0.56 0.0 0 1 328.69 36.74
  L 325.52 36.78
  Z"
/>
<path fill="#c6fa21" d="
  M 336.98 48.30
  L 344.34 47.93
  Q 344.93 47.91 345.26 48.39
  Q 346.10 49.64 345.49 51.13
  Q 345.21 51.81 344.47 51.80
  L 333.32 51.64
  A 0.58 0.57 0.5 0 1 332.75 51.07
  L 332.75 34.16
  A 0.90 0.90 0.0 0 1 333.65 33.26
  L 344.87 33.25
  Q 345.50 33.25 345.50 33.87
  L 345.50 35.88
  Q 345.50 36.50 344.88 36.50
  L 336.70 36.50
  A 0.51 0.51 0.0 0 0 336.19 37.06
  L 336.54 40.59
  A 0.52 0.52 0.0 0 0 337.09 41.06
  L 342.79 40.71
  A 0.88 0.87 82.0 0 1 343.70 41.40
  C 344.55 45.38 338.88 43.95 336.85 43.88
  A 0.60 0.59 -0.9 0 0 336.23 44.51
  L 336.40 47.79
  Q 336.43 48.33 336.98 48.30
  Z"
/>
<path fill="#c6fa21" d="
  M 367.70 51.83
  C 361.89 51.42 356.08 52.06 356.71 43.75
  L 357.08 35.82
  A 2.70 2.69 -88.7 0 1 359.77 33.25
  L 371.12 33.25
  A 0.63 0.62 0.0 0 1 371.75 33.87
  L 371.75 36.12
  Q 371.75 36.75 371.12 36.75
  L 361.13 36.75
  A 0.69 0.69 0.0 0 0 360.44 37.43
  L 360.30 46.28
  Q 360.29 46.88 360.83 47.16
  Q 364.33 48.93 368.14 47.84
  A 0.78 0.77 -7.6 0 0 368.70 47.11
  L 368.75 44.79
  Q 368.77 44.00 367.98 44.00
  L 365.26 44.00
  Q 364.60 44.00 364.56 43.33
  L 364.48 41.65
  Q 364.44 41.00 365.10 41.00
  L 371.73 41.00
  A 0.70 0.69 -2.2 0 1 372.43 41.64
  C 372.75 45.49 373.91 51.79 367.70 51.83
  Z"
/>
<path fill="#c6fa21" d="
  M 388.75 33.44
  Q 389.15 34.99 388.94 35.96
  A 0.69 0.69 0.0 0 1 388.27 36.50
  L 384.52 36.50
  A 0.72 0.72 0.0 0 0 383.80 37.23
  L 383.88 51.24
  Q 381.88 51.95 380.72 51.23
  A 1.17 1.16 16.7 0 1 380.18 50.23
  L 380.43 37.60
  Q 380.45 36.50 379.35 36.50
  L 376.13 36.50
  Q 375.34 36.50 375.24 35.71
  L 375.01 33.94
  A 0.58 0.58 0.0 0 1 375.59 33.29
  L 388.75 33.44
  Z"
/>
<path fill="#c6fa21" d="
  M 399.72 45.10
  C 398.35 47.57 396.15 52.63 392.63 51.38
  A 0.72 0.71 -63.0 0 1 392.28 50.30
  L 397.93 42.14
  Q 398.24 41.69 397.95 41.22
  L 393.60 34.27
  A 0.64 0.64 0.0 0 1 393.89 33.35
  C 396.74 32.15 398.62 35.92 399.59 37.92
  A 0.65 0.65 0.0 0 0 400.74 37.97
  L 403.26 33.73
  Q 403.58 33.17 404.22 33.21
  L 406.77 33.36
  Q 407.64 33.41 407.17 34.14
  L 402.60 41.29
  A 0.74 0.74 0.0 0 0 402.61 42.10
  L 408.05 50.40
  A 0.82 0.82 0.0 0 1 407.31 51.66
  L 405.54 51.54
  Q 404.86 51.50 404.47 50.93
  L 400.44 45.07
  Q 400.05 44.50 399.72 45.10
  Z"
/>
<path fill="#c6fa21" d="
  M 248.50 48.50
  L 256.48 48.50
  Q 257.02 48.50 257.24 48.99
  Q 257.80 50.27 257.19 51.50
  Q 256.93 52.00 256.37 52.00
  L 245.71 52.00
  A 1.05 1.04 89.7 0 1 244.67 50.96
  L 244.48 35.02
  Q 244.47 33.50 245.98 33.50
  L 256.97 33.50
  A 0.48 0.47 0.0 0 1 257.45 33.97
  L 257.46 36.05
  Q 257.47 36.75 256.76 36.75
  L 248.51 36.74
  Q 247.95 36.74 248.00 37.30
  L 248.33 40.81
  Q 248.37 41.25 248.81 41.25
  L 255.00 41.25
  Q 255.50 41.25 255.50 41.75
  L 255.50 43.62
  Q 255.50 44.25 254.87 44.25
  L 248.63 44.25
  Q 248.00 44.25 248.00 44.88
  L 248.00 48.00
  Q 248.00 48.50 248.50 48.50
  Z"
/>
<path fill="#c6fa21" d="
  M 264.75 44.50
  L 264.75 51.21
  A 0.71 0.71 0.0 0 1 264.04 51.92
  L 262.21 51.92
  A 0.71 0.71 0.0 0 1 261.50 51.21
  L 261.50 34.13
  Q 261.50 33.50 262.12 33.50
  L 273.76 33.50
  A 0.90 0.88 82.9 0 1 274.62 34.18
  C 275.14 36.24 274.78 37.19 272.50 36.94
  Q 268.94 36.56 265.40 36.81
  Q 264.75 36.86 264.75 37.51
  L 264.75 40.62
  Q 264.75 41.25 265.38 41.25
  L 272.13 41.25
  Q 272.77 41.25 272.76 41.89
  L 272.73 43.27
  A 0.75 0.75 0.0 0 1 271.98 44.00
  Q 268.62 44.00 265.25 44.00
  Q 264.75 44.00 264.75 44.50
  Z"
/>
<path fill="#c6fa21" d="
  M 280.50 51.74
  Q 279.00 51.14 278.46 49.50
  L 278.24 36.52
  A 2.97 2.97 0.0 0 1 281.21 33.50
  L 291.34 33.50
  A 2.66 2.66 0.0 0 1 294.00 36.15
  L 294.00 48.98
  A 2.76 2.75 -90.0 0 1 291.25 51.74
  L 280.50 51.74
  Z
  M 290.2936 37.8755
  A 0.88 0.88 0.0 0 0 289.4105 36.9986
  L 282.8705 37.0214
  A 0.88 0.88 0.0 0 0 281.9936 37.9045
  L 282.0264 47.3045
  A 0.88 0.88 0.0 0 0 282.9095 48.1814
  L 289.4495 48.1586
  A 0.88 0.88 0.0 0 0 290.3264 47.2755
  L 290.2936 37.8755
  Z"
/>
<path fill="#c6fa21" d="
  M 310.20 51.63
  L 309.91 51.52
  Q 309.55 51.39 309.36 51.06
  L 305.68 44.71
  Q 305.47 44.35 305.07 44.32
  L 302.18 44.08
  A 1.14 1.13 2.8 0 0 300.95 45.19
  L 300.85 51.47
  Q 299.53 52.09 298.25 51.52
  Q 297.75 51.30 297.75 50.74
  L 297.75 34.15
  A 0.66 0.65 0.0 0 1 298.41 33.50
  L 309.78 33.50
  A 1.65 1.64 80.2 0 1 311.33 34.60
  Q 312.63 38.36 311.68 42.26
  A 1.42 1.38 -10.0 0 1 311.05 43.13
  L 309.49 44.10
  A 0.54 0.53 -31.4 0 0 309.31 44.83
  L 312.80 50.81
  A 0.62 0.62 0.0 0 1 312.55 51.67
  Q 311.84 52.04 310.20 51.63
  Z
  M 308.2360 37.5310
  A 0.39 0.39 0.0 0 0 307.8508 37.1363
  L 301.9312 37.0640
  A 0.39 0.39 0.0 0 0 301.5365 37.4492
  L 301.5040 40.1090
  A 0.39 0.39 0.0 0 0 301.8892 40.5037
  L 307.8088 40.5760
  A 0.39 0.39 0.0 0 0 308.2035 40.1908
  L 308.2360 37.5310
  Z"
/>
<path fill="#868686" d="
  M 460.72 40.99
  A 6.36 6.36 0.0 0 1 454.36 47.35
  A 6.36 6.36 0.0 0 1 448.00 40.99
  A 6.36 6.36 0.0 0 1 454.36 34.63
  A 6.36 6.36 0.0 0 1 460.72 40.99
  Z
  M 453.73 39.89
  Q 454.62 40.79 454.01 41.71
  L 450.14 41.46
  A 0.62 0.62 0.0 0 0 449.53 42.34
  Q 452.07 48.00 457.64 44.66
  A 2.43 2.43 0.0 0 0 458.71 41.82
  Q 458.29 40.54 458.73 39.26
  Q 458.92 38.72 458.57 38.28
  Q 456.31 35.39 452.66 35.75
  Q 452.16 35.80 452.09 36.30
  Q 451.81 38.40 453.73 39.89
  Z
  M 449.51 39.30
  A 0.46 0.44 16.6 0 0 449.79 39.80
  Q 451.02 40.29 451.52 38.89
  A 0.50 0.49 -74.7 0 0 451.15 38.24
  Q 449.76 37.98 449.51 39.30
  Z"
/>
<path fill="#727272" d="
  M 185.7390 41.5150
  A 6.59 6.37 -1.0 0 1 179.2612 47.9990
  A 6.59 6.37 -1.0 0 1 172.5610 41.7450
  A 6.59 6.37 -1.0 0 1 179.0388 35.2610
  A 6.59 6.37 -1.0 0 1 185.7390 41.5150
  Z
  M 178.21 37.74
  L 176.26 37.89
  Q 174.17 38.97 175.02 40.48
  L 174.76 41.43
  C 172.30 43.81 177.85 48.20 181.56 45.90
  C 188.80 41.42 179.49 32.47 178.21 37.74
  Z"
/>
<path fill="#fefefe" d="
  M 454.01 41.71
  L 454.70 41.74
  Q 454.74 42.51 455.22 43.10
  Q 455.55 43.51 455.98 43.22
  Q 458.62 41.44 456.79 40.23
  Q 454.54 38.23 453.73 39.89
  Q 451.81 38.40 452.09 36.30
  Q 452.16 35.80 452.66 35.75
  Q 456.31 35.39 458.57 38.28
  Q 458.92 38.72 458.73 39.26
  Q 458.29 40.54 458.71 41.82
  A 2.43 2.43 0.0 0 1 457.64 44.66
  Q 452.07 48.00 449.53 42.34
  A 0.62 0.62 0.0 0 1 450.14 41.46
  L 454.01 41.71
  Z"
/>
<path fill="#fefefe" d="
  M 174.76 41.43
  Q 176.85 42.53 177.50 40.29
  Q 177.71 39.55 178.31 40.02
  Q 179.45 40.91 179.76 42.32
  Q 179.85 42.78 179.43 42.97
  L 177.46 43.85
  A 0.39 0.39 0.0 0 0 177.47 44.57
  Q 179.47 45.35 180.94 43.63
  C 182.83 41.42 179.80 39.09 178.21 37.74
  C 179.49 32.47 188.80 41.42 181.56 45.90
  C 177.85 48.20 172.30 43.81 174.76 41.43
  Z"
/>
<path fill="#242424" d="
  M 542.75 36.54
  Q 542.11 37.19 541.75 38.25
  A 0.82 0.81 -80.4 0 1 540.98 38.80
  L 527.53 38.78
  Q 526.79 38.78 526.80 38.04
  L 526.83 36.59
  L 542.75 36.54
  Z"
/>
<path fill="#242424" d="
  M 503.61 36.52
  L 503.82 38.17
  Q 503.88 38.65 503.41 38.75
  Q 496.78 40.16 496.73 36.80
  L 503.61 36.52
  Z"
/>
<path fill="#333333" d="
  M 325.52 36.78
  L 325.21 37.03
  A 0.67 0.67 0.0 0 0 325.61 38.22
  L 328.49 38.31
  Q 329.14 38.33 329.14 38.98
  L 329.07 47.76
  L 320.66 47.90
  Q 320.02 47.91 320.00 47.26
  L 319.84 37.33
  A 0.55 0.54 89.5 0 1 320.38 36.77
  L 325.52 36.78
  Z"
/>
<rect fill="#242424" x="-4.15" y="-5.58" transform="translate(286.16,42.59) rotate(-0.2)" width="8.30" height="11.16" rx="0.88"/>
<rect fill="#242424" x="-3.35" y="-1.72" transform="translate(304.87,38.82) rotate(0.7)" width="6.70" height="3.44" rx="0.39"/>
<path fill="#a6a6a6" d="
  M 178.21 37.74
  C 179.80 39.09 182.83 41.42 180.94 43.63
  Q 179.47 45.35 177.47 44.57
  A 0.39 0.39 0.0 0 1 177.46 43.85
  L 179.43 42.97
  Q 179.85 42.78 179.76 42.32
  Q 179.45 40.91 178.31 40.02
  Q 177.71 39.55 177.50 40.29
  Q 176.85 42.53 174.76 41.43
  L 175.02 40.48
  C 177.16 40.98 177.68 37.96 176.26 37.89
  L 178.21 37.74
  Z"
/>
<path fill="#cecece" d="
  M 176.26 37.89
  C 177.68 37.96 177.16 40.98 175.02 40.48
  Q 174.17 38.97 176.26 37.89
  Z"
/>
<path fill="#fefefe" d="
  M 449.51 39.30
  Q 449.76 37.98 451.15 38.24
  A 0.50 0.49 -74.7 0 1 451.52 38.89
  Q 451.02 40.29 449.79 39.80
  A 0.46 0.44 16.6 0 1 449.51 39.30
  Z"
/>
<path fill="#bfbfbe" d="
  M 456.79 40.23
  Q 454.92 40.69 454.70 41.74
  L 454.01 41.71
  Q 454.62 40.79 453.73 39.89
  Q 454.54 38.23 456.79 40.23
  Z"
/>
<path fill="#727272" d="
  M 456.79 40.23
  Q 458.62 41.44 455.98 43.22
  Q 455.55 43.51 455.22 43.10
  Q 454.74 42.51 454.70 41.74
  Q 454.92 40.69 456.79 40.23
  Z"
/>
<ellipse fill="#a6a6a6" cx="0.00" cy="0.00" transform="translate(481.49,41.06) rotate(29.1)" rx="1.09" ry="0.83"/>
<path fill="#bfbfbe" d="
  M 565.67 41.16
  C 566.03 46.63 566.35 51.90 563.67 56.80
  Q 556.64 69.66 546.75 80.54
  C 541.97 80.87 537.41 79.78 532.86 80.12
  C 527.56 80.52 523.00 80.56 516.96 81.02
  Q 512.67 81.35 508.26 80.95
  Q 507.79 80.90 507.44 80.57
  L 498.35 71.67
  L 493.10 65.63
  Q 500.12 62.16 506.51 62.79
  C 517.76 63.90 528.90 60.00 539.68 55.62
  Q 542.84 54.34 542.61 52.36
  L 552.93 51.53
  Q 553.66 51.47 553.19 50.90
  Q 552.97 50.63 552.45 50.45
  L 553.65 50.22
  Q 554.30 50.10 554.32 49.44
  L 554.57 42.14
  Q 554.59 41.68 555.02 41.54
  Q 555.53 41.36 555.99 41.39
  Q 560.94 40.55 565.67 41.16
  Z"
/>
<path fill="#141313" d="
  M 158.82 44.31
  L 151.10 52.30
  L 58.97 52.27
  Q 58.03 52.23 57.21 51.83
  Q 56.74 51.59 56.70 51.07
  L 56.22 44.27
  Q 55.87 42.22 57.24 42.37
  Q 70.29 43.72 76.19 43.06
  Q 82.39 42.38 88.71 42.52
  A 1.62 1.62 0.0 0 1 90.28 44.30
  Q 90.16 45.49 91.47 46.05
  Q 91.89 46.23 92.35 46.26
  Q 93.18 46.32 94.00 46.43
  Q 95.38 46.62 96.38 46.63
  Q 112.28 46.75 128.18 46.34
  C 130.83 46.27 134.67 46.86 138.44 46.40
  Q 143.70 45.77 151.92 47.26
  Q 152.58 47.38 153.11 46.97
  L 157.63 43.45
  A 0.68 0.68 0.0 0 1 158.44 43.43
  Q 158.79 43.67 158.82 44.31
  Z"
/>
<path fill="#fefefe" d="
  M 20.25 43.46
  C 30.66 51.51 16.93 64.75 13.17 54.58
  Q 12.00 51.42 12.85 48.20
  Q 15.14 41.41 20.25 43.46
  Z"
/>
<path fill="#bfbfbe" d="
  M 56.22 44.27
  L 56.70 51.07
  Q 56.74 51.59 57.21 51.83
  Q 58.03 52.23 58.97 52.27
  L 58.14 54.30
  A 0.75 0.74 13.8 0 1 57.38 54.75
  Q 49.97 54.05 42.59 55.02
  Q 42.07 55.09 41.84 55.57
  L 40.63 58.07
  Q 40.36 58.64 40.68 59.18
  L 44.53 65.79
  Q 44.79 66.24 45.30 66.28
  Q 49.72 66.61 54.16 66.39
  C 56.59 66.27 57.87 67.33 59.88 68.41
  A 1.16 1.15 -39.7 0 0 60.80 68.49
  Q 64.45 67.25 67.66 69.39
  A 1.59 1.56 -30.1 0 0 68.68 69.65
  C 72.81 69.29 76.02 71.02 79.60 71.30
  C 91.80 72.22 104.22 74.00 115.99 72.72
  Q 123.51 71.91 129.32 75.10
  L 122.31 81.79
  A 1.26 1.24 23.0 0 1 121.45 82.13
  C 112.68 82.12 107.12 82.54 101.64 82.54
  Q 99.10 82.54 97.37 82.71
  C 93.34 83.12 89.15 82.17 85.54 82.32
  C 84.00 82.39 77.03 83.02 76.10 82.42
  A 1.62 1.57 60.9 0 0 75.23 82.16
  Q 65.01 81.98 54.78 81.83
  C 51.57 81.79 47.40 83.00 43.23 81.30
  C 40.65 80.25 39.73 77.79 38.20 75.57
  Q 37.88 75.10 37.96 74.54
  Q 38.31 72.01 36.39 70.74
  Q 35.94 70.43 35.99 69.89
  Q 36.18 68.04 35.04 66.75
  L 32.79 49.50
  L 32.49 43.38
  Q 32.47 42.87 32.98 42.88
  Q 43.77 43.12 54.49 42.97
  Q 55.69 42.95 56.22 44.27
  Z"
/>
<path fill="#141313" d="
  M 195.44 46.66
  L 196.17 46.79
  A 0.49 0.49 0.0 0 1 196.44 47.61
  L 187.33 57.12
  L 186.19 56.24
  Q 186.25 55.89 186.51 55.52
  Q 186.80 55.40 187.03 55.06
  L 195.44 46.66
  Z"
/>
<path fill="#727272" d="
  M 32.79 49.50
  L 35.04 66.75
  Q 35.11 67.56 34.81 68.30
  L 32.52 56.21
  L 32.79 49.50
  Z"
/>
<path fill="#fefefe" d="
  M 547.68 50.46
  L 552.45 50.45
  Q 552.97 50.63 553.19 50.90
  Q 553.66 51.47 552.93 51.53
  L 542.61 52.36
  L 480.32 52.93
  L 480.97 51.30
  L 547.68 50.46
  Z"
/>
<path fill="#a6a6a6" d="
  M 479.91 50.90
  Q 479.83 51.32 480.97 51.30
  L 480.32 52.93
  Q 477.31 55.66 472.25 55.68
  Q 459.92 55.72 447.38 55.68
  L 446.07 54.70
  Q 447.09 53.24 447.81 53.68
  Q 462.07 53.24 476.34 53.80
  Q 476.88 53.82 477.13 53.35
  L 477.99 51.75
  Q 479.51 51.99 479.91 50.90
  Z"
/>
<path fill="#cecece" d="
  M 58.97 52.27
  L 151.10 52.30
  C 152.15 55.58 154.86 56.60 158.29 56.73
  Q 169.09 57.13 182.75 56.69
  Q 184.99 56.62 186.19 56.24
  L 187.33 57.12
  Q 187.53 57.62 187.99 57.67
  Q 190.30 61.03 192.74 61.04
  Q 242.23 61.21 291.68 60.72
  Q 309.87 60.54 327.57 60.86
  A 3.98 3.97 67.7 0 1 330.28 62.00
  L 350.26 81.77
  L 350.27 82.09
  A 0.71 0.70 21.1 0 1 349.07 82.62
  L 345.08 78.73
  L 340.10 73.60
  Q 339.73 73.23 339.34 73.57
  C 338.56 74.26 337.82 74.66 336.71 74.66
  C 326.21 74.75 315.69 74.35 305.25 74.37
  C 298.28 74.38 291.10 74.68 284.16 74.07
  C 280.02 73.71 274.52 73.91 271.43 73.77
  Q 260.59 73.30 249.73 73.62
  Q 247.29 73.69 242.82 73.14
  C 236.78 72.39 230.52 73.87 224.50 73.39
  C 222.15 73.20 219.95 73.81 217.47 73.51
  C 210.93 72.73 204.17 73.49 197.57 72.59
  C 191.96 71.83 187.82 72.03 182.67 72.22
  C 179.93 72.31 176.97 71.49 174.04 71.58
  Q 171.99 71.64 169.54 71.19
  C 165.69 70.47 161.75 71.81 157.83 71.54
  Q 151.99 71.15 151.05 71.20
  Q 141.85 71.76 132.57 74.56
  L 145.79 61.46
  A 0.50 0.49 -88.4 0 0 145.11 60.74
  L 129.32 75.10
  Q 123.51 71.91 115.99 72.72
  C 104.22 74.00 91.80 72.22 79.60 71.30
  C 76.02 71.02 72.81 69.29 68.68 69.65
  A 1.59 1.56 -30.1 0 1 67.66 69.39
  Q 64.45 67.25 60.80 68.49
  A 1.16 1.15 -39.7 0 1 59.88 68.41
  C 57.87 67.33 56.59 66.27 54.16 66.39
  Q 49.72 66.61 45.30 66.28
  Q 44.79 66.24 44.53 65.79
  L 40.68 59.18
  Q 40.36 58.64 40.63 58.07
  L 41.84 55.57
  Q 42.07 55.09 42.59 55.02
  Q 49.97 54.05 57.38 54.75
  A 0.75 0.74 13.8 0 0 58.14 54.30
  L 58.97 52.27
  Z"
/>
<path fill="#cecece" d="
  M 542.61 52.36
  Q 542.84 54.34 539.68 55.62
  C 528.90 60.00 517.76 63.90 506.51 62.79
  Q 500.12 62.16 493.10 65.63
  L 486.91 60.13
  A 1.39 1.36 -23.7 0 0 485.99 59.78
  L 452.24 60.10
  L 447.38 55.68
  Q 459.92 55.72 472.25 55.68
  Q 477.31 55.66 480.32 52.93
  L 542.61 52.36
  Z"
/>
<path fill="#141313" d="
  M 445.50 54.21
  Q 445.72 54.26 446.07 54.70
  L 447.38 55.68
  L 452.24 60.10
  C 453.07 64.47 445.24 55.41 444.87 54.82
  Q 444.61 54.40 445.07 54.22
  Q 445.27 54.15 445.50 54.21
  Z"
/>
<path fill="#727272" d="
  M 30.15 59.56
  Q 32.13 70.86 31.47 81.95
  Q 29.39 70.99 30.15 59.56
  Z"
/>
<path fill="#a6a6a6" d="
  M 132.57 74.56
  L 126.28 80.76
  A 0.45 0.45 0.0 0 0 126.78 81.49
  Q 128.16 80.85 129.56 80.29
  Q 129.99 80.12 130.45 80.13
  C 133.58 80.19 139.73 80.70 142.67 80.04
  C 146.52 79.19 150.09 79.26 154.00 79.18
  C 166.77 78.91 178.19 79.59 190.37 78.94
  C 195.60 78.66 203.13 79.45 206.12 79.49
  C 215.02 79.62 222.91 79.67 232.69 79.16
  Q 240.29 78.76 244.50 79.37
  C 248.64 79.96 252.56 79.50 255.82 79.76
  C 259.80 80.09 264.07 79.44 267.82 80.86
  Q 268.26 81.02 268.58 80.67
  Q 269.59 79.51 271.19 80.21
  Q 271.66 80.41 272.16 80.36
  Q 280.16 79.53 286.07 80.15
  C 291.95 80.76 297.26 79.73 302.44 79.92
  C 306.45 80.06 310.84 80.30 314.81 80.23
  Q 329.65 79.97 345.08 78.73
  L 349.07 82.62
  A 0.71 0.70 21.1 0 0 350.27 82.09
  L 350.26 81.77
  Q 351.43 82.88 351.00 83.16
  Q 238.47 83.59 125.95 84.07
  C 121.77 84.09 119.37 86.94 115.42 86.86
  Q 76.57 86.02 38.20 85.94
  L 34.88 73.36
  Q 34.75 72.86 34.90 72.38
  Q 35.53 70.33 34.81 68.30
  Q 35.11 67.56 35.04 66.75
  Q 36.18 68.04 35.99 69.89
  Q 35.94 70.43 36.39 70.74
  Q 38.31 72.01 37.96 74.54
  Q 37.88 75.10 38.20 75.57
  C 39.73 77.79 40.65 80.25 43.23 81.30
  C 47.40 83.00 51.57 81.79 54.78 81.83
  Q 65.01 81.98 75.23 82.16
  A 1.62 1.57 60.9 0 1 76.10 82.42
  C 77.03 83.02 84.00 82.39 85.54 82.32
  C 89.15 82.17 93.34 83.12 97.37 82.71
  Q 99.10 82.54 101.64 82.54
  C 107.12 82.54 112.68 82.12 121.45 82.13
  A 1.26 1.24 23.0 0 0 122.31 81.79
  L 129.32 75.10
  L 145.11 60.74
  A 0.50 0.49 -88.4 0 1 145.79 61.46
  L 132.57 74.56
  Z"
/>
<path fill="#bfbfbe" d="
  M 345.08 78.73
  Q 329.65 79.97 314.81 80.23
  C 310.84 80.30 306.45 80.06 302.44 79.92
  C 297.26 79.73 291.95 80.76 286.07 80.15
  Q 280.16 79.53 272.16 80.36
  Q 271.66 80.41 271.19 80.21
  Q 269.59 79.51 268.58 80.67
  Q 268.26 81.02 267.82 80.86
  C 264.07 79.44 259.80 80.09 255.82 79.76
  C 252.56 79.50 248.64 79.96 244.50 79.37
  Q 240.29 78.76 232.69 79.16
  C 222.91 79.67 215.02 79.62 206.12 79.49
  C 203.13 79.45 195.60 78.66 190.37 78.94
  C 178.19 79.59 166.77 78.91 154.00 79.18
  C 150.09 79.26 146.52 79.19 142.67 80.04
  C 139.73 80.70 133.58 80.19 130.45 80.13
  Q 129.99 80.12 129.56 80.29
  Q 128.16 80.85 126.78 81.49
  A 0.45 0.45 0.0 0 1 126.28 80.76
  L 132.57 74.56
  Q 141.85 71.76 151.05 71.20
  Q 151.99 71.15 157.83 71.54
  C 161.75 71.81 165.69 70.47 169.54 71.19
  Q 171.99 71.64 174.04 71.58
  C 176.97 71.49 179.93 72.31 182.67 72.22
  C 187.82 72.03 191.96 71.83 197.57 72.59
  C 204.17 73.49 210.93 72.73 217.47 73.51
  C 219.95 73.81 222.15 73.20 224.50 73.39
  C 230.52 73.87 236.78 72.39 242.82 73.14
  Q 247.29 73.69 249.73 73.62
  Q 260.59 73.30 271.43 73.77
  C 274.52 73.91 280.02 73.71 284.16 74.07
  C 291.10 74.68 298.28 74.38 305.25 74.37
  C 315.69 74.35 326.21 74.75 336.71 74.66
  C 337.82 74.66 338.56 74.26 339.34 73.57
  Q 339.73 73.23 340.10 73.60
  L 345.08 78.73
  Z"
/>
<path fill="#a6a6a6" d="
  M 498.35 71.67
  L 507.44 80.57
  Q 507.79 80.90 508.26 80.95
  Q 512.67 81.35 516.96 81.02
  C 523.00 80.56 527.56 80.52 532.86 80.12
  C 537.41 79.78 541.97 80.87 546.75 80.54
  Q 544.74 83.71 542.76 83.73
  C 523.38 83.93 504.13 82.65 484.81 82.74
  L 498.35 71.67
  Z"
/>
<path fill="#868686" d="
  M 7.26 73.25
  L 7.80 82.97
  C 4.80 82.79 6.56 74.94 7.26 73.25
  Z"
/>
</svg>
