<?xml version="1.0" encoding="UTF-8" standalone="no"?>
<!DOCTYPE svg PUBLIC "-//W3C//DTD SVG 1.1//EN" "http://www.w3.org/Graphics/SVG/1.1/DTD/svg11.dtd">
<svg xmlns="http://www.w3.org/2000/svg" version="1.1" viewBox="0.00 0.00 595.00 135.00">
<g stroke-width="2.00" fill="none" stroke-linecap="butt">
<path stroke="#4d4d4d" vector-effect="non-scaling-stroke" d="
  M 27.44 12.90
  Q 26.79 12.87 27.89 13.42
  C 30.31 14.62 40.52 13.65 43.56 13.29"
/>
<path stroke="#5d5a59" vector-effect="non-scaling-stroke" d="
  M 44.75 13.05
  Q 44.73 13.15 44.77 13.32
  Q 44.80 13.50 44.99 13.50
  L 558.26 13.51"
/>
<path stroke="#1b1515" vector-effect="non-scaling-stroke" d="
  M 587.19 89.55
  C 396.44 89.33 205.60 90.15 14.81 89.56
  Q 12.07 89.55 8.92 90.26"
/>
<path stroke="#949994" vector-effect="non-scaling-stroke" d="
  M 268.56 3.31
  Q 255.99 4.18 243.50 3.73
  C 233.46 3.36 221.83 3.99 213.49 3.95
  Q 186.37 3.81 159.25 3.42
  Q 158.61 3.41 158.08 3.72
  Q 157.65 3.97 157.15 3.97
  Q 102.93 3.69 48.71 4.01
  C 48.12 4.01 47.58 3.61 47.74 2.98"
/>
<path stroke="#949994" vector-effect="non-scaling-stroke" d="
  M 309.32 3.27
  Q 307.98 3.67 306.66 3.83
  C 304.96 4.03 303.38 2.97 301.33 3.91
  A 1.40 1.39 -50.4 0 1 300.40 4.00
  C 299.54 3.78 298.86 3.42 297.97 3.44
  Q 286.97 3.71 275.93 3.23"
/>
<path stroke="#949994" vector-effect="non-scaling-stroke" d="
  M 475.59 3.26
  Q 462.39 4.25 449.25 4.03
  C 429.22 3.71 410.55 4.10 394.44 4.10
  C 368.36 4.09 342.26 4.09 316.19 3.92
  Q 315.75 3.92 315.40 3.65
  Q 315.10 3.41 314.46 3.30"
/>
<path stroke="#a5a6a0" vector-effect="non-scaling-stroke" d="
  M 556.53 8.91
  Q 553.76 8.91 551.81 7.54
  Q 551.41 7.26 550.91 7.26
  L 35.21 7.38"
/>
<path stroke="#949994" vector-effect="non-scaling-stroke" d="
  M 486.48 3.13
  Q 489.83 3.95 493.50 3.97
  Q 511.74 4.08 530.07 3.36"
/>
<path stroke="#2a2726" vector-effect="non-scaling-stroke" d="
  M 588.51 127.71
  Q 587.58 130.01 588.47 131.21"
/>
<path stroke="#090605" vector-effect="non-scaling-stroke" d="
  M 428.97 135.00
  L 422.50 134.83"
/>
<path stroke="#2a2726" vector-effect="non-scaling-stroke" d="
  M 299.72 135.00
  Q 298.53 121.09 299.38 107.26"
/>
<path stroke="#090605" vector-effect="non-scaling-stroke" d="
  M 299.38 107.26
  Q 301.64 107.24 300.63 107.30"
/>
<path stroke="#2a2726" vector-effect="non-scaling-stroke" d="
  M 300.63 107.30
  L 300.63 127.08
  Q 300.63 127.45 300.99 127.45
  L 345.60 128.12
  Q 347.09 128.14 347.08 126.65
  L 346.96 108.19
  A 0.73 0.72 0.0 0 0 346.23 107.47
  L 302.02 107.45"
/>
<path stroke="#090605" vector-effect="non-scaling-stroke" d="
  M 302.02 107.45
  Q 304.74 107.45 304.99 103.70
  A 1.30 1.30 0.0 0 0 304.25 102.44
  Q 301.87 101.32 299.50 102.17"
/>
<path stroke="#2a2726" vector-effect="non-scaling-stroke" d="
  M 299.50 102.17
  L 299.24 98.95
  Q 299.20 98.50 298.75 98.50
  L 47.52 98.50
  Q 47.03 98.50 47.03 98.99
  L 46.94 135.00"
/>
<path stroke="#090605" vector-effect="non-scaling-stroke" d="
  M 372.74 124.51
  C 377.40 124.98 381.96 126.26 386.47 126.26
  Q 403.10 126.24 419.71 125.95
  C 421.30 125.92 422.98 126.83 424.83 126.49
  C 428.42 125.83 431.68 126.16 435.27 125.73
  C 439.45 125.23 443.27 126.85 447.38 126.76
  Q 464.76 126.40 482.15 126.51
  C 483.97 126.52 487.15 125.42 488.50 125.73
  Q 495.10 127.22 501.72 126.39
  Q 505.02 125.98 507.78 126.23
  C 514.56 126.85 522.48 126.21 528.08 126.24
  Q 534.11 126.27 545.24 126.18
  Q 548.28 126.16 549.02 124.51"
/>
<path stroke="#888584" vector-effect="non-scaling-stroke" d="
  M 549.02 124.51
  L 564.38 124.51
  A 0.70 0.70 0.0 0 0 565.08 123.80
  L 565.02 103.26
  A 0.52 0.51 89.4 0 0 564.51 102.75
  L 366.13 102.75
  Q 365.50 102.75 365.50 103.37
  L 365.50 123.98
  Q 365.50 124.47 365.99 124.48
  L 372.74 124.51"
/>
<path stroke="#7f7f7f" vector-effect="non-scaling-stroke" d="
  M 549.02 124.51
  L 372.74 124.51"
/>
<path stroke="#222121" vector-effect="non-scaling-stroke" d="
  M 299.50 102.17
  L 299.38 107.26"
/>
<path stroke="#222121" vector-effect="non-scaling-stroke" d="
  M 52.07 110.75
  A 0.71 0.71 0.0 0 0 51.36 111.47
  L 51.47 126.80
  A 0.71 0.71 0.0 0 0 52.18 127.50
  L 60.32 127.50
  A 0.71 0.71 0.0 0 1 61.03 128.28
  L 60.82 130.41
  A 0.71 0.71 0.0 0 0 61.53 131.19
  L 284.79 131.26
  A 0.71 0.71 0.0 0 0 285.50 130.55
  L 285.50 103.22
  A 0.71 0.71 0.0 0 0 284.79 102.51
  L 61.40 102.50
  A 0.71 0.71 0.0 0 0 60.69 103.23
  L 60.93 110.02
  A 0.71 0.71 0.0 0 1 60.22 110.75
  L 52.07 110.75"
/>
<path stroke="#222121" vector-effect="non-scaling-stroke" d="
  M 302.02 107.45
  Q 302.04 107.12 300.63 107.30"
/>
<path stroke="#59585b" vector-effect="non-scaling-stroke" d="
  M 191.25 118.25
  L 191.25 123.00
  Q 191.25 123.50 191.75 123.50
  L 195.00 123.50
  Q 195.50 123.50 195.50 123.00
  L 195.50 114.26
  A 0.74 0.73 0.0 0 0 194.76 113.53
  L 78.50 113.66
  Q 78.11 113.66 77.74 113.52
  Q 76.73 113.14 76.36 114.24
  Q 75.82 115.87 76.39 117.21
  Q 76.61 117.75 77.20 117.75
  L 190.75 117.75
  Q 191.25 117.75 191.25 118.25"
/>
<path stroke="#59585b" vector-effect="non-scaling-stroke" d="
  M 215.50 118.10
  A 0.35 0.35 0.0 0 1 215.85 117.75
  L 268.31 117.75
  A 0.35 0.35 0.0 0 0 268.66 117.38
  L 268.44 114.04
  A 0.35 0.35 0.0 0 0 268.09 113.71
  L 211.55 113.67
  A 0.35 0.35 0.0 0 0 211.20 114.02
  L 211.28 123.15
  A 0.35 0.35 0.0 0 0 211.63 123.50
  L 215.15 123.50
  A 0.35 0.35 0.0 0 0 215.50 123.15
  L 215.50 118.10"
/>
<path stroke="#7f7f7f" vector-effect="non-scaling-stroke" d="
  M 494.2618 105.7278
  A 0.58 0.58 0.0 0 0 493.6798 105.1498
  L 493.5598 105.1503
  A 0.58 0.58 0.0 0 0 492.9818 105.7323
  L 493.0382 121.8722
  A 0.58 0.58 0.0 0 0 493.6202 122.4502
  L 493.7402 122.4497
  A 0.58 0.58 0.0 0 0 494.3182 121.8677
  L 494.2618 105.7278"
/>
<path stroke="#7f7f7f" vector-effect="non-scaling-stroke" d="
  M 371.9937 106.0213
  A 0.72 0.72 0.0 0 0 371.2750 105.3000
  L 371.2350 105.3000
  A 0.72 0.72 0.0 0 0 370.5137 106.0187
  L 370.4863 121.7587
  A 0.72 0.72 0.0 0 0 371.2050 122.4800
  L 371.2450 122.4800
  A 0.72 0.72 0.0 0 0 371.9663 121.7613
  L 371.9937 106.0213"
/>
<path stroke="#7f7f7f" vector-effect="non-scaling-stroke" d="
  M 374.2912 105.9939
  A 0.68 0.68 0.0 0 0 373.6148 105.3104
  L 373.5148 105.3099
  A 0.68 0.68 0.0 0 0 372.8313 105.9863
  L 372.7488 121.7461
  A 0.68 0.68 0.0 0 0 373.4252 122.4296
  L 373.5252 122.4301
  A 0.68 0.68 0.0 0 0 374.2087 121.7537
  L 374.2912 105.9939"
/>
<path stroke="#7f7f7f" vector-effect="non-scaling-stroke" d="
  M 380.9815 105.7126
  A 0.27 0.27 0.0 0 0 380.7106 105.4435
  L 376.9706 105.4566
  A 0.27 0.27 0.0 0 0 376.7016 105.7275
  L 376.7585 122.0274
  A 0.27 0.27 0.0 0 0 377.0294 122.2965
  L 380.7694 122.2834
  A 0.27 0.27 0.0 0 0 381.0384 122.0125
  L 380.9815 105.7126"
/>
<path stroke="#d8d7da" vector-effect="non-scaling-stroke" d="
  M 384.49 105.56
  Q 384.13 105.36 383.38 105.80"
/>
<path stroke="#7f7f7f" vector-effect="non-scaling-stroke" d="
  M 383.38 105.80
  Q 383.15 105.41 382.45 105.51
  Q 382.00 105.57 382.00 106.02
  L 382.00 121.63
  A 0.63 0.62 -81.1 0 0 382.43 122.23
  L 382.74 122.33
  Q 383.22 122.49 383.23 121.98
  L 383.28 117.01"
/>
<path stroke="#d8d7da" vector-effect="non-scaling-stroke" d="
  M 383.28 117.01
  L 383.55 116.83
  Q 383.95 116.57 384.18 116.99
  L 384.48 117.53"
/>
<path stroke="#7f7f7f" vector-effect="non-scaling-stroke" d="
  M 384.48 117.53
  L 384.52 121.66
  A 0.80 0.53 56.3 0 0 385.77 122.19
  L 385.74 105.90
  Q 385.74 105.25 385.11 105.41
  L 384.49 105.56"
/>
<path stroke="#59585b" vector-effect="non-scaling-stroke" d="
  M 384.48 117.53
  L 384.49 105.56"
/>
<path stroke="#59585b" vector-effect="non-scaling-stroke" d="
  M 383.38 105.80
  L 383.28 117.01"
/>
<path stroke="#7f7f7f" vector-effect="non-scaling-stroke" d="
  M 390.2259 105.8189
  A 0.57 0.57 0.0 0 0 389.6550 105.2499
  L 389.5550 105.2501
  A 0.57 0.57 0.0 0 0 388.9860 105.8211
  L 389.0141 121.9211
  A 0.57 0.57 0.0 0 0 389.5850 122.4901
  L 389.6850 122.4899
  A 0.57 0.57 0.0 0 0 390.2540 121.9189
  L 390.2259 105.8189"
/>
<path stroke="#888584" vector-effect="non-scaling-stroke" d="
  M 392.75 106.00
  A 0.72 0.72 0.0 0 0 392.03 105.28
  L 391.97 105.28
  A 0.72 0.72 0.0 0 0 391.25 106.00
  L 391.25 121.74
  A 0.72 0.72 0.0 0 0 391.97 122.46
  L 392.03 122.46
  A 0.72 0.72 0.0 0 0 392.75 121.74
  L 392.75 106.00"
/>
<path stroke="#7f7f7f" vector-effect="non-scaling-stroke" d="
  M 394.9884 105.9168
  A 0.61 0.61 0.0 0 0 394.3752 105.3100
  L 394.3152 105.3103
  A 0.61 0.61 0.0 0 0 393.7084 105.9235
  L 393.7916 121.8232
  A 0.61 0.61 0.0 0 0 394.4048 122.4300
  L 394.4648 122.4297
  A 0.61 0.61 0.0 0 0 395.0716 121.8165
  L 394.9884 105.9168"
/>
<path stroke="#7f7f7f" vector-effect="non-scaling-stroke" d="
  M 397.31 105.85
  A 0.58 0.58 0.0 0 0 396.73 105.27
  L 396.59 105.27
  A 0.58 0.58 0.0 0 0 396.01 105.85
  L 396.01 121.87
  A 0.58 0.58 0.0 0 0 396.59 122.45
  L 396.73 122.45
  A 0.58 0.58 0.0 0 0 397.31 121.87
  L 397.31 105.85"
/>
<path stroke="#7f7f7f" vector-effect="non-scaling-stroke" d="
  M 402.0114 105.9540
  A 0.69 0.69 0.0 0 0 401.3250 105.2604
  L 401.2250 105.2599
  A 0.69 0.69 0.0 0 0 400.5314 105.9462
  L 400.4486 121.7660
  A 0.69 0.69 0.0 0 0 401.1350 122.4596
  L 401.2350 122.4601
  A 0.69 0.69 0.0 0 0 401.9286 121.7738
  L 402.0114 105.9540"
/>
<path stroke="#d8d7da" vector-effect="non-scaling-stroke" d="
  M 404.26 121.97
  Q 404.96 121.76 405.23 122.00"
/>
<path stroke="#7f7f7f" vector-effect="non-scaling-stroke" d="
  M 405.23 122.00
  Q 405.35 122.21 405.62 122.33
  Q 405.98 122.50 406.28 122.23
  L 406.53 122.01"
/>
<path stroke="#d8d7da" vector-effect="non-scaling-stroke" d="
  M 406.53 122.01
  L 407.62 121.96"
/>
<path stroke="#7f7f7f" vector-effect="non-scaling-stroke" d="
  M 407.62 121.96
  Q 407.96 122.38 408.32 122.39
  Q 408.89 122.41 408.90 121.84
  L 408.94 106.19
  Q 408.94 105.63 408.40 105.51
  Q 407.64 105.34 407.61 105.72"
/>
<path stroke="#d8d7da" vector-effect="non-scaling-stroke" d="
  M 407.61 105.72
  L 406.58 105.78"
/>
<path stroke="#7f7f7f" vector-effect="non-scaling-stroke" d="
  M 406.58 105.78
  Q 405.61 104.80 405.24 105.74"
/>
<path stroke="#d8d7da" vector-effect="non-scaling-stroke" d="
  M 405.24 105.74
  L 404.11 105.76"
/>
<path stroke="#7f7f7f" vector-effect="non-scaling-stroke" d="
  M 404.11 105.76
  L 403.92 105.51
  A 0.63 0.63 0.0 0 0 402.78 105.89
  L 402.74 121.52
  A 0.80 0.80 0.0 0 0 404.02 122.16
  L 404.26 121.97"
/>
<path stroke="#59585b" vector-effect="non-scaling-stroke" d="
  M 404.11 105.76
  L 404.26 121.97"
/>
<path stroke="#59585b" vector-effect="non-scaling-stroke" d="
  M 406.58 105.78
  L 406.53 122.01"
/>
<path stroke="#59585b" vector-effect="non-scaling-stroke" d="
  M 405.23 122.00
  L 405.24 105.74"
/>
<path stroke="#59585b" vector-effect="non-scaling-stroke" d="
  M 407.62 121.96
  L 407.61 105.72"
/>
<path stroke="#7f7f7f" vector-effect="non-scaling-stroke" d="
  M 411.04 105.69
  A 0.26 0.26 0.0 0 0 410.78 105.43
  L 410.20 105.43
  A 0.26 0.26 0.0 0 0 409.94 105.69
  L 409.94 121.97
  A 0.26 0.26 0.0 0 0 410.20 122.23
  L 410.78 122.23
  A 0.26 0.26 0.0 0 0 411.04 121.97
  L 411.04 105.69"
/>
<path stroke="#d8d7da" vector-effect="non-scaling-stroke" d="
  M 414.46 105.54
  L 413.49 105.80"
/>
<path stroke="#7f7f7f" vector-effect="non-scaling-stroke" d="
  M 413.49 105.80
  Q 413.12 105.45 412.51 105.49
  Q 412.14 105.52 412.14 105.90
  L 412.16 121.69
  A 0.63 0.62 -85.7 0 0 412.69 122.31
  Q 413.07 122.37 413.47 122.03"
/>
<path stroke="#d8d7da" vector-effect="non-scaling-stroke" d="
  M 413.47 122.03
  L 414.43 122.01"
/>
<path stroke="#7f7f7f" vector-effect="non-scaling-stroke" d="
  M 414.43 122.01
  Q 414.67 122.39 415.91 122.22"
/>
<path stroke="#d8d7da" vector-effect="non-scaling-stroke" d="
  M 415.91 122.22
  Q 416.44 121.90 417.40 122.75"
/>
<path stroke="#7f7f7f" vector-effect="non-scaling-stroke" d="
  M 417.40 122.75
  Q 418.46 113.86 417.99 105.80
  A 0.55 0.54 85.8 0 0 417.41 105.29
  Q 417.19 105.31 416.94 105.49"
/>
<path stroke="#d8d7da" vector-effect="non-scaling-stroke" d="
  M 416.94 105.49
  L 415.79 105.77"
/>
<path stroke="#7f7f7f" vector-effect="non-scaling-stroke" d="
  M 415.79 105.77
  C 415.53 105.08 414.97 105.15 414.46 105.54"
/>
<path stroke="#59585b" vector-effect="non-scaling-stroke" d="
  M 415.79 105.77
  L 415.91 122.22"
/>
<path stroke="#59585b" vector-effect="non-scaling-stroke" d="
  M 414.43 122.01
  L 414.46 105.54"
/>
<path stroke="#59585b" vector-effect="non-scaling-stroke" d="
  M 413.49 105.80
  L 413.47 122.03"
/>
<path stroke="#59585b" vector-effect="non-scaling-stroke" d="
  M 417.40 122.75
  Q 416.12 113.79 416.94 105.49"
/>
<path stroke="#7f7f7f" vector-effect="non-scaling-stroke" d="
  M 422.7457 105.6288
  A 0.27 0.27 0.0 0 0 422.4753 105.3593
  L 421.6353 105.3607
  A 0.27 0.27 0.0 0 0 421.3657 105.6312
  L 421.3943 121.9712
  A 0.27 0.27 0.0 0 0 421.6647 122.2407
  L 422.5047 122.2393
  A 0.27 0.27 0.0 0 0 422.7743 121.9688
  L 422.7457 105.6288"
/>
<path stroke="#7f7f7f" vector-effect="non-scaling-stroke" d="
  M 425.01 105.85
  A 0.61 0.61 0.0 0 0 424.40 105.24
  L 424.36 105.24
  A 0.61 0.61 0.0 0 0 423.75 105.85
  L 423.75 121.81
  A 0.61 0.61 0.0 0 0 424.36 122.42
  L 424.40 122.42
  A 0.61 0.61 0.0 0 0 425.01 121.81
  L 425.01 105.85"
/>
<path stroke="#7f7f7f" vector-effect="non-scaling-stroke" d="
  M 427.45 105.97
  A 0.71 0.71 0.0 0 0 426.74 105.26
  L 426.72 105.26
  A 0.71 0.71 0.0 0 0 426.01 105.97
  L 426.01 121.73
  A 0.71 0.71 0.0 0 0 426.72 122.44
  L 426.74 122.44
  A 0.71 0.71 0.0 0 0 427.45 121.73
  L 427.45 105.97"
/>
<path stroke="#7f7f7f" vector-effect="non-scaling-stroke" d="
  M 431.99 105.97
  A 0.73 0.73 0.0 0 0 431.26 105.24
  L 431.22 105.24
  A 0.73 0.73 0.0 0 0 430.49 105.97
  L 430.49 121.75
  A 0.73 0.73 0.0 0 0 431.22 122.48
  L 431.26 122.48
  A 0.73 0.73 0.0 0 0 431.99 121.75
  L 431.99 105.97"
/>
<path stroke="#7f7f7f" vector-effect="non-scaling-stroke" d="
  M 434.2225 106.0076
  A 0.68 0.68 0.0 0 0 433.5402 105.3300
  L 433.5002 105.3301
  A 0.68 0.68 0.0 0 0 432.8225 106.0125
  L 432.8775 121.7524
  A 0.68 0.68 0.0 0 0 433.5598 122.4300
  L 433.5998 122.4299
  A 0.68 0.68 0.0 0 0 434.2775 121.7475
  L 434.2225 106.0076"
/>
<path stroke="#babdbc" vector-effect="non-scaling-stroke" d="
  M 444.29 105.73
  L 443.52 105.78"
/>
<path stroke="#7f7f7f" vector-effect="non-scaling-stroke" d="
  M 443.52 105.78
  Q 443.12 105.49 442.62 105.49
  Q 442.19 105.48 442.19 105.91
  L 442.27 121.77
  Q 442.28 122.35 442.85 122.38
  Q 443.24 122.41 443.64 121.96"
/>
<path stroke="#babdbc" vector-effect="non-scaling-stroke" d="
  M 443.64 121.96
  L 444.29 122.04"
/>
<path stroke="#7f7f7f" vector-effect="non-scaling-stroke" d="
  M 444.29 122.04
  Q 444.88 122.58 446.11 122.20"
/>
<path stroke="#d9dad7" vector-effect="non-scaling-stroke" d="
  M 446.11 122.20
  Q 446.31 122.32 446.75 122.20"
/>
<path stroke="#7f7f7f" vector-effect="non-scaling-stroke" d="
  M 446.75 122.20
  Q 448.12 122.86 448.09 121.69
  Q 447.92 114.22 448.01 106.75
  Q 448.04 104.54 446.73 105.67"
/>
<path stroke="#d9dad7" vector-effect="non-scaling-stroke" d="
  M 446.73 105.67
  Q 446.48 105.83 446.03 105.73"
/>
<path stroke="#7f7f7f" vector-effect="non-scaling-stroke" d="
  M 446.03 105.73
  Q 444.72 104.68 444.29 105.73"
/>
<path stroke="#5a5b58" vector-effect="non-scaling-stroke" d="
  M 446.03 105.73
  L 446.11 122.20"
/>
<path stroke="#3b3e3d" vector-effect="non-scaling-stroke" d="
  M 444.29 122.04
  L 444.29 105.73"
/>
<path stroke="#5a5b58" vector-effect="non-scaling-stroke" d="
  M 446.75 122.20
  L 446.73 105.67"
/>
<path stroke="#3b3e3d" vector-effect="non-scaling-stroke" d="
  M 443.52 105.78
  Q 442.35 113.98 443.64 121.96"
/>
<path stroke="#7f7f7f" vector-effect="non-scaling-stroke" d="
  M 450.2861 105.8789
  A 0.56 0.56 0.0 0 0 449.7251 105.3199
  L 449.5451 105.3202
  A 0.56 0.56 0.0 0 0 448.9861 105.8811
  L 449.0139 121.8011
  A 0.56 0.56 0.0 0 0 449.5749 122.3601
  L 449.7549 122.3598
  A 0.56 0.56 0.0 0 0 450.3139 121.7989
  L 450.2861 105.8789"
/>
<path stroke="#7f7f7f" vector-effect="non-scaling-stroke" d="
  M 452.7742 105.7111
  A 0.42 0.42 0.0 0 0 452.3549 105.2904
  L 451.9349 105.2896
  A 0.42 0.42 0.0 0 0 451.5142 105.7089
  L 451.4858 121.9289
  A 0.42 0.42 0.0 0 0 451.9051 122.3496
  L 452.3251 122.3504
  A 0.42 0.42 0.0 0 0 452.7458 121.9311
  L 452.7742 105.7111"
/>
<path stroke="#7f7f7f" vector-effect="non-scaling-stroke" d="
  M 455.01 105.78
  A 0.52 0.52 0.0 0 0 454.49 105.26
  L 454.27 105.26
  A 0.52 0.52 0.0 0 0 453.75 105.78
  L 453.75 121.74
  A 0.52 0.52 0.0 0 0 454.27 122.26
  L 454.49 122.26
  A 0.52 0.52 0.0 0 0 455.01 121.74
  L 455.01 105.78"
/>
<path stroke="#7f7f7f" vector-effect="non-scaling-stroke" d="
  M 457.25 105.79
  A 0.49 0.49 0.0 0 0 456.76 105.30
  L 456.50 105.30
  A 0.49 0.49 0.0 0 0 456.01 105.79
  L 456.01 121.89
  A 0.49 0.49 0.0 0 0 456.50 122.38
  L 456.76 122.38
  A 0.49 0.49 0.0 0 0 457.25 121.89
  L 457.25 105.79"
/>
<path stroke="#7f7f7f" vector-effect="non-scaling-stroke" d="
  M 459.77 105.89
  A 0.54 0.54 0.0 0 0 459.23 105.35
  L 458.93 105.35
  A 0.54 0.54 0.0 0 0 458.39 105.89
  L 458.39 121.85
  A 0.54 0.54 0.0 0 0 458.93 122.39
  L 459.23 122.39
  A 0.54 0.54 0.0 0 0 459.77 121.85
  L 459.77 105.89"
/>
<path stroke="#7f7f7f" vector-effect="non-scaling-stroke" d="
  M 466.5459 105.7789
  A 0.50 0.50 0.0 0 0 466.0450 105.2797
  L 465.7250 105.2803
  A 0.50 0.50 0.0 0 0 465.2259 105.7812
  L 465.2541 121.9411
  A 0.50 0.50 0.0 0 0 465.7550 122.4403
  L 466.0750 122.4397
  A 0.50 0.50 0.0 0 0 466.5741 121.9388
  L 466.5459 105.7789"
/>
<path stroke="#7f7f7f" vector-effect="non-scaling-stroke" d="
  M 468.99 105.89
  A 0.60 0.60 0.0 0 0 468.39 105.29
  L 468.35 105.29
  A 0.60 0.60 0.0 0 0 467.75 105.89
  L 467.75 121.79
  A 0.60 0.60 0.0 0 0 468.35 122.39
  L 468.39 122.39
  A 0.60 0.60 0.0 0 0 468.99 121.79
  L 468.99 105.89"
/>
<path stroke="#d8d7da" vector-effect="non-scaling-stroke" d="
  M 471.06 120.49
  Q 471.25 120.43 471.29 120.11
  Q 471.35 119.74 471.72 119.75
  L 472.24 119.75"
/>
<path stroke="#7f7f7f" vector-effect="non-scaling-stroke" d="
  M 472.24 119.75
  L 472.26 121.71
  Q 472.27 122.19 472.74 122.25
  Q 473.28 122.32 473.52 122.03"
/>
<path stroke="#d8d7da" vector-effect="non-scaling-stroke" d="
  M 473.52 122.03
  Q 474.33 121.86 474.73 122.15"
/>
<path stroke="#7f7f7f" vector-effect="non-scaling-stroke" d="
  M 474.73 122.15
  L 479.90 122.13
  A 0.57 0.57 0.0 0 0 480.47 121.55
  L 480.38 117.77"
/>
<path stroke="#d8d7da" vector-effect="non-scaling-stroke" d="
  M 480.38 117.77
  L 480.54 116.74
  Q 480.62 116.22 481.12 116.40
  L 481.60 116.58"
/>
<path stroke="#7f7f7f" vector-effect="non-scaling-stroke" d="
  M 481.60 116.58
  L 481.53 121.90
  A 0.59 0.59 0.0 0 0 482.59 122.27
  C 483.41 121.20 482.81 108.61 482.99 106.11
  Q 483.03 105.56 482.51 105.39
  Q 482.01 105.23 481.52 105.72"
/>
<path stroke="#d8d7da" vector-effect="non-scaling-stroke" d="
  M 481.52 105.72
  Q 480.89 105.86 480.43 105.65"
/>
<path stroke="#7f7f7f" vector-effect="non-scaling-stroke" d="
  M 480.43 105.65
  L 474.68 105.46"
/>
<path stroke="#d8d7da" vector-effect="non-scaling-stroke" d="
  M 474.68 105.46
  Q 474.08 105.43 473.52 105.73"
/>
<path stroke="#7f7f7f" vector-effect="non-scaling-stroke" d="
  M 473.52 105.73
  Q 472.88 105.15 472.23 105.73"
/>
<path stroke="#d8d7da" vector-effect="non-scaling-stroke" d="
  M 472.23 105.73
  L 471.03 105.74"
/>
<path stroke="#7f7f7f" vector-effect="non-scaling-stroke" d="
  M 471.03 105.74
  Q 470.80 105.44 470.40 105.33
  A 0.34 0.34 0.0 0 0 469.97 105.66
  L 470.01 121.97
  A 0.57 0.57 0.0 0 0 471.11 122.16
  Q 471.47 121.16 471.06 120.49"
/>
<path stroke="#59585b" vector-effect="non-scaling-stroke" d="
  M 471.03 105.74
  L 471.06 120.49"
/>
<path stroke="#59585b" vector-effect="non-scaling-stroke" d="
  M 473.52 105.73
  L 473.52 122.03"
/>
<path stroke="#59585b" vector-effect="non-scaling-stroke" d="
  M 472.24 119.75
  L 472.23 105.73"
/>
<path stroke="#59585b" vector-effect="non-scaling-stroke" d="
  M 480.43 105.65
  L 480.38 117.77"
/>
<path stroke="#59585b" vector-effect="non-scaling-stroke" d="
  M 474.73 122.15
  L 474.68 105.46"
/>
<path stroke="#59585b" vector-effect="non-scaling-stroke" d="
  M 481.60 116.58
  L 481.52 105.72"
/>
<path stroke="#d8d7da" vector-effect="non-scaling-stroke" d="
  M 487.30 122.00
  L 488.41 122.09"
/>
<path stroke="#7f7f7f" vector-effect="non-scaling-stroke" d="
  M 488.41 122.09
  Q 488.40 122.33 489.16 122.25
  Q 489.58 122.20 489.61 121.78
  Q 490.27 113.70 489.03 104.94"
/>
<path stroke="#d8d7da" vector-effect="non-scaling-stroke" d="
  M 489.03 104.94
  Q 487.59 105.94 487.26 105.74"
/>
<path stroke="#7f7f7f" vector-effect="non-scaling-stroke" d="
  M 487.26 105.74
  Q 486.94 105.42 486.37 105.44
  Q 486.00 105.45 486.00 105.81
  L 486.00 122.29
  A 0.51 0.51 0.0 0 0 486.94 122.57
  L 487.30 122.00"
/>
<path stroke="#59585b" vector-effect="non-scaling-stroke" d="
  M 487.26 105.74
  L 487.30 122.00"
/>
<path stroke="#59585b" vector-effect="non-scaling-stroke" d="
  M 488.41 122.09
  L 489.03 104.94"
/>
<path stroke="#7f7f7f" vector-effect="non-scaling-stroke" d="
  M 492.0313 105.9845
  A 0.64 0.64 0.0 0 0 491.3857 105.3501
  L 491.3257 105.3506
  A 0.64 0.64 0.0 0 0 490.6913 105.9961
  L 490.8287 121.7355
  A 0.64 0.64 0.0 0 0 491.4743 122.3699
  L 491.5343 122.3694
  A 0.64 0.64 0.0 0 0 492.1687 121.7239
  L 492.0313 105.9845"
/>
<path stroke="#7f7f7f" vector-effect="non-scaling-stroke" d="
  M 498.99 105.98
  A 0.72 0.72 0.0 0 0 498.27 105.26
  L 498.23 105.26
  A 0.72 0.72 0.0 0 0 497.51 105.98
  L 497.51 121.72
  A 0.72 0.72 0.0 0 0 498.23 122.44
  L 498.27 122.44
  A 0.72 0.72 0.0 0 0 498.99 121.72
  L 498.99 105.98"
/>
<path stroke="#d8d7da" vector-effect="non-scaling-stroke" d="
  M 504.74 105.55
  L 503.58 105.54"
/>
<path stroke="#7f7f7f" vector-effect="non-scaling-stroke" d="
  M 503.58 105.54
  L 502.25 105.54"
/>
<path stroke="#d8d7da" vector-effect="non-scaling-stroke" d="
  M 502.25 105.54
  Q 501.72 105.36 501.25 105.79"
/>
<path stroke="#7f7f7f" vector-effect="non-scaling-stroke" d="
  M 501.25 105.79
  Q 500.88 105.49 500.56 105.49
  Q 500.00 105.48 500.00 106.04
  L 500.00 121.67
  Q 500.00 122.16 500.48 122.22
  L 500.78 122.26
  A 0.31 0.31 0.0 0 0 501.14 121.97
  L 501.30 119.76"
/>
<path stroke="#d8d7da" vector-effect="non-scaling-stroke" d="
  M 501.30 119.76
  Q 501.55 118.92 502.24 118.75"
/>
<path stroke="#7f7f7f" vector-effect="non-scaling-stroke" d="
  M 502.24 118.75
  L 502.27 121.80
  Q 502.28 122.23 502.71 122.25
  Q 502.88 122.25 503.06 122.25
  Q 503.47 122.23 503.48 121.83
  L 503.54 118.29"
/>
<path stroke="#d8d7da" vector-effect="non-scaling-stroke" d="
  M 503.54 118.29
  C 503.78 117.49 504.14 116.43 504.73 118.04"
/>
<path stroke="#7f7f7f" vector-effect="non-scaling-stroke" d="
  M 504.73 118.04
  L 504.77 121.78
  Q 504.78 122.16 505.16 122.21
  L 505.47 122.26
  Q 506.01 122.33 506.01 121.78
  L 505.97 106.25
  A 1.21 1.09 12.5 0 0 505.23 105.21
  Q 505.15 105.18 504.74 105.55"
/>
<path stroke="#59585b" vector-effect="non-scaling-stroke" d="
  M 504.73 118.04
  L 504.74 105.55"
/>
<path stroke="#59585b" vector-effect="non-scaling-stroke" d="
  M 503.58 105.54
  L 503.54 118.29"
/>
<path stroke="#59585b" vector-effect="non-scaling-stroke" d="
  M 502.25 105.54
  L 502.24 118.75"
/>
<path stroke="#59585b" vector-effect="non-scaling-stroke" d="
  M 501.25 105.79
  L 501.30 119.76"
/>
<path stroke="#7f7f7f" vector-effect="non-scaling-stroke" d="
  M 508.24 105.97
  A 0.67 0.67 0.0 0 0 507.57 105.30
  L 507.51 105.30
  A 0.67 0.67 0.0 0 0 506.84 105.97
  L 506.84 121.71
  A 0.67 0.67 0.0 0 0 507.51 122.38
  L 507.57 122.38
  A 0.67 0.67 0.0 0 0 508.24 121.71
  L 508.24 105.97"
/>
<path stroke="#7f7f7f" vector-effect="non-scaling-stroke" d="
  M 510.5781 105.8624
  A 0.56 0.56 0.0 0 0 510.0200 105.3004
  L 509.8200 105.2997
  A 0.56 0.56 0.0 0 0 509.2581 105.8577
  L 509.2019 121.9376
  A 0.56 0.56 0.0 0 0 509.7600 122.4996
  L 509.9600 122.5003
  A 0.56 0.56 0.0 0 0 510.5219 121.9423
  L 510.5781 105.8624"
/>
<path stroke="#7f7f7f" vector-effect="non-scaling-stroke" d="
  M 515.19 105.81
  A 0.50 0.50 0.0 0 0 514.69 105.31
  L 514.25 105.31
  A 0.50 0.50 0.0 0 0 513.75 105.81
  L 513.75 121.91
  A 0.50 0.50 0.0 0 0 514.25 122.41
  L 514.69 122.41
  A 0.50 0.50 0.0 0 0 515.19 121.91
  L 515.19 105.81"
/>
<path stroke="#d8d7da" vector-effect="non-scaling-stroke" d="
  M 517.51 121.97
  L 518.45 122.01"
/>
<path stroke="#7f7f7f" vector-effect="non-scaling-stroke" d="
  M 518.45 122.01
  Q 519.04 122.60 519.84 122.00"
/>
<path stroke="#d8d7da" vector-effect="non-scaling-stroke" d="
  M 519.84 122.00
  L 520.73 121.96"
/>
<path stroke="#7f7f7f" vector-effect="non-scaling-stroke" d="
  M 520.73 121.96
  L 521.34 122.30
  A 0.57 0.56 -76.5 0 0 522.18 121.78
  Q 521.87 114.34 522.05 106.75
  Q 522.11 104.64 520.78 105.70"
/>
<path stroke="#d8d7da" vector-effect="non-scaling-stroke" d="
  M 520.78 105.70
  L 519.78 105.73"
/>
<path stroke="#7f7f7f" vector-effect="non-scaling-stroke" d="
  M 519.78 105.73
  Q 519.60 105.33 518.39 105.55"
/>
<path stroke="#d8d7da" vector-effect="non-scaling-stroke" d="
  M 518.39 105.55
  Q 517.80 105.42 517.46 105.55"
/>
<path stroke="#7f7f7f" vector-effect="non-scaling-stroke" d="
  M 517.46 105.55
  Q 517.02 105.33 516.67 105.29
  A 0.62 0.61 2.5 0 0 515.99 105.91
  L 516.03 121.50
  Q 516.03 122.07 516.58 122.23
  Q 517.39 122.46 517.51 121.97"
/>
<path stroke="#59585b" vector-effect="non-scaling-stroke" d="
  M 517.46 105.55
  L 517.51 121.97"
/>
<path stroke="#59585b" vector-effect="non-scaling-stroke" d="
  M 518.39 105.55
  L 518.45 122.01"
/>
<path stroke="#59585b" vector-effect="non-scaling-stroke" d="
  M 519.78 105.73
  L 519.84 122.00"
/>
<path stroke="#59585b" vector-effect="non-scaling-stroke" d="
  M 520.73 121.96
  L 520.78 105.70"
/>
<path stroke="#7f7f7f" vector-effect="non-scaling-stroke" d="
  M 524.50 105.96
  A 0.73 0.73 0.0 0 0 523.77 105.23
  L 523.73 105.23
  A 0.73 0.73 0.0 0 0 523.00 105.96
  L 523.00 121.74
  A 0.73 0.73 0.0 0 0 523.73 122.47
  L 523.77 122.47
  A 0.73 0.73 0.0 0 0 524.50 121.74
  L 524.50 105.96"
/>
<path stroke="#7f7f7f" vector-effect="non-scaling-stroke" d="
  M 528.99 105.98
  A 0.72 0.72 0.0 0 0 528.27 105.26
  L 528.25 105.26
  A 0.72 0.72 0.0 0 0 527.53 105.98
  L 527.53 121.72
  A 0.72 0.72 0.0 0 0 528.25 122.44
  L 528.27 122.44
  A 0.72 0.72 0.0 0 0 528.99 121.72
  L 528.99 105.98"
/>
<path stroke="#babdbc" vector-effect="non-scaling-stroke" d="
  M 531.33 122.01
  L 531.75 121.98"
/>
<path stroke="#7f7f7f" vector-effect="non-scaling-stroke" d="
  M 531.75 121.98
  Q 532.80 122.83 534.24 122.17"
/>
<path stroke="#d8d7da" vector-effect="non-scaling-stroke" d="
  M 534.24 122.17
  Q 535.03 122.31 534.54 122.17"
/>
<path stroke="#7f7f7f" vector-effect="non-scaling-stroke" d="
  M 534.54 122.17
  C 535.34 122.53 535.95 122.47 535.96 121.45
  Q 536.09 113.73 535.96 105.88
  Q 535.95 105.40 535.47 105.41
  L 530.62 105.50
  Q 530.00 105.51 530.00 106.13
  L 530.00 121.70
  A 0.53 0.52 -82.9 0 0 530.39 122.21
  Q 531.08 122.40 531.33 122.01"
/>
<path stroke="#59585b" vector-effect="non-scaling-stroke" d="
  M 534.54 122.17
  L 534.73 106.70
  Q 534.73 106.57 534.65 106.46
  Q 534.53 106.29 534.48 106.24
  A 0.41 0.41 0.0 0 0 533.76 106.52
  C 533.98 111.54 533.03 117.67 534.24 122.17"
/>
<path stroke="#3b3e3d" vector-effect="non-scaling-stroke" d="
  M 531.75 121.98
  Q 532.49 114.18 531.79 106.53
  A 0.20 0.20 0.0 0 0 531.39 106.54
  Q 531.00 114.24 531.33 122.01"
/>
<path stroke="#d8d7da" vector-effect="non-scaling-stroke" d="
  M 538.22 121.98
  Q 539.02 121.75 539.19 122.00"
/>
<path stroke="#7f7f7f" vector-effect="non-scaling-stroke" d="
  M 539.19 122.00
  L 539.72 122.38
  Q 540.10 122.65 540.37 122.27
  L 540.56 122.00"
/>
<path stroke="#d8d7da" vector-effect="non-scaling-stroke" d="
  M 540.56 122.00
  Q 540.86 121.66 541.63 121.76"
/>
<path stroke="#7f7f7f" vector-effect="non-scaling-stroke" d="
  M 541.63 121.76
  Q 541.41 122.09 542.12 122.35
  A 0.66 0.65 -79.8 0 0 543.00 121.73
  L 542.97 105.92
  Q 542.97 105.38 542.43 105.37
  Q 542.00 105.36 541.67 105.75"
/>
<path stroke="#d8d7da" vector-effect="non-scaling-stroke" d="
  M 541.67 105.75
  L 540.65 105.79"
/>
<path stroke="#7f7f7f" vector-effect="non-scaling-stroke" d="
  M 540.65 105.79
  Q 540.50 105.53 540.27 105.39
  Q 539.76 105.08 539.38 105.55
  L 539.02 106.01"
/>
<path stroke="#d8d7da" vector-effect="non-scaling-stroke" d="
  M 539.02 106.01
  Q 538.74 105.22 538.12 107.64"
/>
<path stroke="#7f7f7f" vector-effect="non-scaling-stroke" d="
  M 538.12 107.64
  Q 538.18 105.53 537.56 105.23
  A 0.48 0.47 12.5 0 0 536.88 105.66
  L 536.98 121.84
  A 0.54 0.54 0.0 0 0 537.86 122.26
  L 538.22 121.98"
/>
<path stroke="#59585b" vector-effect="non-scaling-stroke" d="
  M 538.12 107.64
  L 538.22 121.98"
/>
<path stroke="#59585b" vector-effect="non-scaling-stroke" d="
  M 540.65 105.79
  L 540.56 122.00"
/>
<path stroke="#59585b" vector-effect="non-scaling-stroke" d="
  M 539.19 122.00
  L 539.02 106.01"
/>
<path stroke="#59585b" vector-effect="non-scaling-stroke" d="
  M 541.63 121.76
  L 541.67 105.75"
/>
<path stroke="#a1a0a0" vector-effect="non-scaling-stroke" d="
  M 546.14 107.51
  L 546.12 119.72"
/>
<path stroke="#7f7f7f" vector-effect="non-scaling-stroke" d="
  M 546.12 119.72
  L 546.03 121.70
  A 0.50 0.50 0.0 0 0 546.52 122.22
  L 551.39 122.31
  Q 552.03 122.32 552.03 121.68
  L 551.99 105.89
  A 0.58 0.58 0.0 0 0 551.39 105.32
  L 546.51 105.52
  Q 546.09 105.54 546.02 105.96
  Q 545.90 106.78 546.14 107.51"
/>
<path stroke="#222121" vector-effect="non-scaling-stroke" d="
  M 546.12 119.72
  Q 547.01 119.87 547.39 120.74
  A 0.40 0.40 0.0 0 0 548.15 120.58
  L 548.33 107.00
  A 0.52 0.52 0.0 0 0 547.31 106.84
  Q 547.05 107.73 546.14 107.51"
/>
<path stroke="#d8d7da" vector-effect="non-scaling-stroke" d="
  M 554.29 121.76
  Q 555.01 121.63 555.46 122.01"
/>
<path stroke="#7f7f7f" vector-effect="non-scaling-stroke" d="
  M 555.46 122.01
  L 555.75 122.26
  Q 556.08 122.53 556.43 122.30
  L 556.83 122.03"
/>
<path stroke="#d8d7da" vector-effect="non-scaling-stroke" d="
  M 556.83 122.03
  Q 557.00 120.34 557.74 120.76"
/>
<path stroke="#7f7f7f" vector-effect="non-scaling-stroke" d="
  M 557.74 120.76
  Q 557.53 121.97 558.33 122.41
  A 0.45 0.45 0.0 0 0 559.00 122.02
  L 559.00 105.80
  Q 559.00 105.13 558.35 105.29
  Q 558.05 105.37 557.73 105.75"
/>
<path stroke="#d8d7da" vector-effect="non-scaling-stroke" d="
  M 557.73 105.75
  L 557.02 105.71"
/>
<path stroke="#7f7f7f" vector-effect="non-scaling-stroke" d="
  M 557.02 105.71
  Q 556.03 105.19 555.31 105.70"
/>
<path stroke="#d8d7da" vector-effect="non-scaling-stroke" d="
  M 555.31 105.70
  L 554.38 105.80"
/>
<path stroke="#7f7f7f" vector-effect="non-scaling-stroke" d="
  M 554.38 105.80
  Q 554.12 105.41 553.69 105.32
  A 0.57 0.56 6.2 0 0 553.00 105.87
  L 553.00 121.96
  A 0.57 0.57 0.0 0 0 553.73 122.51
  Q 554.29 122.36 554.29 121.76"
/>
<path stroke="#59585b" vector-effect="non-scaling-stroke" d="
  M 554.38 105.80
  L 554.29 121.76"
/>
<path stroke="#59585b" vector-effect="non-scaling-stroke" d="
  M 557.02 105.71
  L 556.83 122.03"
/>
<path stroke="#59585b" vector-effect="non-scaling-stroke" d="
  M 555.46 122.01
  L 555.31 105.70"
/>
<path stroke="#59585b" vector-effect="non-scaling-stroke" d="
  M 557.74 120.76
  L 557.73 105.75"
/>
<path stroke="#7f7f7f" vector-effect="non-scaling-stroke" d="
  M 561.25 105.86
  A 0.61 0.61 0.0 0 0 560.64 105.25
  L 560.62 105.25
  A 0.61 0.61 0.0 0 0 560.01 105.86
  L 560.01 121.80
  A 0.61 0.61 0.0 0 0 560.62 122.41
  L 560.64 122.41
  A 0.61 0.61 0.0 0 0 561.25 121.80
  L 561.25 105.86"
/>
<path stroke="#7f7f7f" vector-effect="non-scaling-stroke" d="
  M 563.8077 105.9326
  A 0.60 0.60 0.0 0 0 563.2098 105.3305
  L 562.9498 105.3296
  A 0.60 0.60 0.0 0 0 562.3478 105.9275
  L 562.2923 121.8274
  A 0.60 0.60 0.0 0 0 562.8902 122.4295
  L 563.1502 122.4304
  A 0.60 0.60 0.0 0 0 563.7522 121.8325
  L 563.8077 105.9326"
/>
<path stroke="#7f7f7f" vector-effect="non-scaling-stroke" d="
  M 420.2741 105.8211
  A 0.31 0.31 0.0 0 0 419.9647 105.5106
  L 419.3247 105.5095
  A 0.31 0.31 0.0 0 0 419.0141 105.8189
  L 418.9859 121.9989
  A 0.31 0.31 0.0 0 0 419.2953 122.3094
  L 419.9353 122.3105
  A 0.31 0.31 0.0 0 0 420.2459 122.0011
  L 420.2741 105.8211"
/>
<path stroke="#d8d7da" vector-effect="non-scaling-stroke" d="
  M 436.61 122.02
  L 437.64 121.96"
/>
<path stroke="#7f7f7f" vector-effect="non-scaling-stroke" d="
  M 437.64 121.96
  Q 437.97 122.45 438.54 122.21
  A 0.75 0.74 78.8 0 0 439.00 121.52
  L 439.00 106.12
  Q 439.00 105.47 438.35 105.51
  L 437.60 105.55"
/>
<path stroke="#d8d7da" vector-effect="non-scaling-stroke" d="
  M 437.60 105.55
  Q 437.43 105.44 436.68 105.54"
/>
<path stroke="#7f7f7f" vector-effect="non-scaling-stroke" d="
  M 436.68 105.54
  L 435.74 105.51
  Q 435.25 105.49 435.25 105.98
  L 435.25 121.75
  A 0.71 0.71 0.0 0 0 436.20 122.42
  Q 436.90 122.17 436.61 122.02"
/>
<path stroke="#59585b" vector-effect="non-scaling-stroke" d="
  M 436.68 105.54
  L 436.61 122.02"
/>
<path stroke="#59585b" vector-effect="non-scaling-stroke" d="
  M 437.60 105.55
  L 437.64 121.96"
/>
<path stroke="#7f7f7f" vector-effect="non-scaling-stroke" d="
  M 441.0641 105.8010
  A 0.27 0.27 0.0 0 0 440.7945 105.5305
  L 440.2345 105.5295
  A 0.27 0.27 0.0 0 0 439.9641 105.7991
  L 439.9359 121.9190
  A 0.27 0.27 0.0 0 0 440.2055 122.1895
  L 440.7655 122.1905
  A 0.27 0.27 0.0 0 0 441.0359 121.9209
  L 441.0641 105.8010"
/>
<path stroke="#7f7f7f" vector-effect="non-scaling-stroke" d="
  M 545.0764 105.7840
  A 0.26 0.26 0.0 0 0 544.8182 105.5222
  L 544.2382 105.5182
  A 0.26 0.26 0.0 0 0 543.9764 105.7764
  L 543.8636 121.9360
  A 0.26 0.26 0.0 0 0 544.1218 122.1978
  L 544.7018 122.2018
  A 0.26 0.26 0.0 0 0 544.9636 121.9436
  L 545.0764 105.7840"
/>
<path stroke="#3b3e3d" vector-effect="non-scaling-stroke" d="
  M 550.5677 106.3062
  A 0.27 0.27 0.0 0 0 550.2934 106.0404
  L 550.2335 106.0414
  A 0.27 0.27 0.0 0 0 549.9677 106.3156
  L 550.1923 120.6138
  A 0.27 0.27 0.0 0 0 550.4666 120.8796
  L 550.5265 120.8786
  A 0.27 0.27 0.0 0 0 550.7923 120.6044
  L 550.5677 106.3062"
/>
<path stroke="#222121" vector-effect="non-scaling-stroke" d="
  M 344.0545 110.6921
  A 0.77 0.77 0.0 0 0 343.2872 109.9194
  L 303.5474 109.7807
  A 0.77 0.77 0.0 0 0 302.7747 110.5480
  L 302.7255 124.6479
  A 0.77 0.77 0.0 0 0 303.4928 125.4206
  L 343.2326 125.5593
  A 0.77 0.77 0.0 0 0 344.0053 124.7920
  L 344.0545 110.6921"
/>
<path stroke="#7f7f7f" vector-effect="non-scaling-stroke" d="
  M 338.4483 117.4683
  A 0.85 0.85 0.0 0 0 337.5536 116.6655
  L 335.8561 116.7575
  A 0.85 0.85 0.0 0 0 335.0533 117.6522
  L 335.0717 117.9917
  A 0.85 0.85 0.0 0 0 335.9664 118.7945
  L 337.6639 118.7025
  A 0.85 0.85 0.0 0 0 338.4667 117.8078
  L 338.4483 117.4683"
/>
<path stroke="#7f7f7f" vector-effect="non-scaling-stroke" d="
  M 311.2012 117.5031
  A 0.87 0.87 0.0 0 0 310.2883 116.6783
  L 308.5905 116.7643
  A 0.87 0.87 0.0 0 0 307.7656 117.6772
  L 307.7788 117.9369
  A 0.87 0.87 0.0 0 0 308.6917 118.7617
  L 310.3895 118.6757
  A 0.87 0.87 0.0 0 0 311.2144 117.7628
  L 311.2012 117.5031"
/>
<path stroke="#7f7f7f" vector-effect="non-scaling-stroke" d="
  M 320.2473 117.4521
  A 0.73 0.73 0.0 0 0 319.5097 116.7298
  L 317.5498 116.7503
  A 0.73 0.73 0.0 0 0 316.8275 117.4879
  L 316.8327 117.9879
  A 0.73 0.73 0.0 0 0 317.5703 118.7102
  L 319.5302 118.6897
  A 0.73 0.73 0.0 0 0 320.2525 117.9521
  L 320.2473 117.4521"
/>
<path stroke="#7f7f7f" vector-effect="non-scaling-stroke" d="
  M 329.2501 117.4318
  A 0.59 0.59 0.0 0 0 328.6983 116.8059
  L 326.6623 116.6778
  A 0.59 0.59 0.0 0 0 326.0364 117.2296
  L 325.9899 117.9682
  A 0.59 0.59 0.0 0 0 326.5417 118.5941
  L 328.5777 118.7222
  A 0.59 0.59 0.0 0 0 329.2036 118.1704
  L 329.2501 117.4318"
/>
</g>
<path fill="#241e20" d="
  M 2.32 0.00
  L 22.82 0.00
  L 27.44 12.90
  Q 26.79 12.87 27.89 13.42
  C 30.31 14.62 40.52 13.65 43.56 13.29
  Q 44.14 13.30 44.75 13.05
  Q 44.73 13.15 44.77 13.32
  Q 44.80 13.50 44.99 13.50
  L 558.26 13.51
  L 568.65 13.30
  A 0.85 0.85 0.0 0 0 569.42 12.77
  L 574.55 0.00
  L 583.53 0.00
  L 594.10 0.00
  L 595.00 0.00
  L 595.00 88.88
  Q 590.82 87.04 587.19 89.55
  C 396.44 89.33 205.60 90.15 14.81 89.56
  Q 12.07 89.55 8.92 90.26
  Q 7.50 89.52 6.60 88.30
  A 0.85 0.84 66.1 0 0 5.76 87.97
  Q 2.05 88.65 2.03 84.69
  Q 1.95 64.36 2.01 1.15
  Q 2.01 1.14 2.00 1.12
  Q 1.88 1.00 1.77 0.90
  Q 1.54 0.64 1.80 0.42
  L 2.32 0.00
  Z"
/>
<path fill="#757b79" d="
  M 268.56 3.31
  Q 255.99 4.18 243.50 3.73
  C 233.46 3.36 221.83 3.99 213.49 3.95
  Q 186.37 3.81 159.25 3.42
  Q 158.61 3.41 158.08 3.72
  Q 157.65 3.97 157.15 3.97
  Q 102.93 3.69 48.71 4.01
  C 48.12 4.01 47.58 3.61 47.74 2.98
  L 268.56 3.31
  Z"
/>
<path fill="#757b79" d="
  M 309.32 3.27
  Q 307.98 3.67 306.66 3.83
  C 304.96 4.03 303.38 2.97 301.33 3.91
  A 1.40 1.39 -50.4 0 1 300.40 4.00
  C 299.54 3.78 298.86 3.42 297.97 3.44
  Q 286.97 3.71 275.93 3.23
  L 309.32 3.27
  Z"
/>
<path fill="#757b79" d="
  M 475.59 3.26
  Q 462.39 4.25 449.25 4.03
  C 429.22 3.71 410.55 4.10 394.44 4.10
  C 368.36 4.09 342.26 4.09 316.19 3.92
  Q 315.75 3.92 315.40 3.65
  Q 315.10 3.41 314.46 3.30
  L 475.59 3.26
  Z"
/>
<path fill="#b3b6af" d="
  M 556.53 8.91
  Q 553.76 8.91 551.81 7.54
  Q 551.41 7.26 550.91 7.26
  L 35.21 7.38
  Q 30.75 8.34 34.55 4.35
  Q 34.92 3.96 35.45 3.99
  Q 41.65 4.27 47.74 2.98
  C 47.58 3.61 48.12 4.01 48.71 4.01
  Q 102.93 3.69 157.15 3.97
  Q 157.65 3.97 158.08 3.72
  Q 158.61 3.41 159.25 3.42
  Q 186.37 3.81 213.49 3.95
  C 221.83 3.99 233.46 3.36 243.50 3.73
  Q 255.99 4.18 268.56 3.31
  L 275.93 3.23
  Q 286.97 3.71 297.97 3.44
  C 298.86 3.42 299.54 3.78 300.40 4.00
  A 1.40 1.39 -50.4 0 0 301.33 3.91
  C 303.38 2.97 304.96 4.03 306.66 3.83
  Q 307.98 3.67 309.32 3.27
  L 314.46 3.30
  Q 315.10 3.41 315.40 3.65
  Q 315.75 3.92 316.19 3.92
  C 342.26 4.09 368.36 4.09 394.44 4.10
  C 410.55 4.10 429.22 3.71 449.25 4.03
  Q 462.39 4.25 475.59 3.26
  L 486.48 3.13
  Q 489.83 3.95 493.50 3.97
  Q 511.74 4.08 530.07 3.36
  L 549.05 2.88
  Q 549.56 2.86 549.88 3.26
  C 552.40 6.43 558.87 3.48 562.35 6.71
  A 1.29 1.29 0.0 0 1 561.46 8.95
  L 556.53 8.91
  Z"
/>
<path fill="#757b79" d="
  M 486.48 3.13
  L 530.07 3.36
  Q 511.74 4.08 493.50 3.97
  Q 489.83 3.95 486.48 3.13
  Z"
/>
<path fill="#969591" d="
  M 556.53 8.91
  L 552.21 9.14
  A 1.94 1.92 -72.2 0 0 550.77 9.89
  C 547.59 13.93 556.83 13.32 558.26 13.51
  L 44.99 13.50
  Q 44.80 13.50 44.77 13.32
  Q 44.73 13.15 44.75 13.05
  Q 45.74 12.81 46.59 11.77
  A 1.58 1.58 0.0 0 0 45.23 9.19
  Q 39.95 9.65 35.21 7.38
  L 550.91 7.26
  Q 551.41 7.26 551.81 7.54
  Q 553.76 8.91 556.53 8.91
  Z"
/>
<path fill="#757b79" d="
  M 27.44 12.90
  L 43.56 13.29
  C 40.52 13.65 30.31 14.62 27.89 13.42
  Q 26.79 12.87 27.44 12.90
  Z"
/>
<path fill="#110c0a" d="
  M 587.19 89.55
  L 588.51 127.71
  Q 587.58 130.01 588.47 131.21
  L 586.71 135.00
  L 485.44 135.00
  L 431.93 135.00
  L 428.97 135.00
  L 422.50 134.83
  L 406.92 135.00
  L 395.19 135.00
  Q 354.70 134.15 314.18 135.00
  L 299.72 135.00
  Q 298.53 121.09 299.38 107.26
  Q 301.64 107.24 300.63 107.30
  L 300.63 127.08
  Q 300.63 127.45 300.99 127.45
  L 345.60 128.12
  Q 347.09 128.14 347.08 126.65
  L 346.96 108.19
  A 0.73 0.72 0.0 0 0 346.23 107.47
  L 302.02 107.45
  Q 304.74 107.45 304.99 103.70
  A 1.30 1.30 0.0 0 0 304.25 102.44
  Q 301.87 101.32 299.50 102.17
  L 299.24 98.95
  Q 299.20 98.50 298.75 98.50
  L 47.52 98.50
  Q 47.03 98.50 47.03 98.99
  L 46.94 135.00
  L 9.55 135.00
  Q 9.10 132.33 8.25 129.82
  Q 7.48 127.57 7.62 125.56
  Q 8.86 107.91 8.92 90.26
  Q 12.07 89.55 14.81 89.56
  C 205.60 90.15 396.44 89.33 587.19 89.55
  Z
  M 372.74 124.51
  C 377.40 124.98 381.96 126.26 386.47 126.26
  Q 403.10 126.24 419.71 125.95
  C 421.30 125.92 422.98 126.83 424.83 126.49
  C 428.42 125.83 431.68 126.16 435.27 125.73
  C 439.45 125.23 443.27 126.85 447.38 126.76
  Q 464.76 126.40 482.15 126.51
  C 483.97 126.52 487.15 125.42 488.50 125.73
  Q 495.10 127.22 501.72 126.39
  Q 505.02 125.98 507.78 126.23
  C 514.56 126.85 522.48 126.21 528.08 126.24
  Q 534.11 126.27 545.24 126.18
  Q 548.28 126.16 549.02 124.51
  L 564.38 124.51
  A 0.70 0.70 0.0 0 0 565.08 123.80
  L 565.02 103.26
  A 0.52 0.51 89.4 0 0 564.51 102.75
  L 366.13 102.75
  Q 365.50 102.75 365.50 103.37
  L 365.50 123.98
  Q 365.50 124.47 365.99 124.48
  L 372.74 124.51
  Z"
/>
<path fill="#434141" d="
  M 299.50 102.17
  L 299.38 107.26
  Q 298.53 121.09 299.72 135.00
  L 242.95 135.00
  C 238.44 134.64 233.84 134.18 229.34 134.15
  Q 194.52 133.93 159.69 134.34
  Q 152.92 134.42 146.18 135.00
  L 46.94 135.00
  L 47.03 98.99
  Q 47.03 98.50 47.52 98.50
  L 298.75 98.50
  Q 299.20 98.50 299.24 98.95
  L 299.50 102.17
  Z
  M 52.07 110.75
  A 0.71 0.71 0.0 0 0 51.36 111.47
  L 51.47 126.80
  A 0.71 0.71 0.0 0 0 52.18 127.50
  L 60.32 127.50
  A 0.71 0.71 0.0 0 1 61.03 128.28
  L 60.82 130.41
  A 0.71 0.71 0.0 0 0 61.53 131.19
  L 284.79 131.26
  A 0.71 0.71 0.0 0 0 285.50 130.55
  L 285.50 103.22
  A 0.71 0.71 0.0 0 0 284.79 102.51
  L 61.40 102.50
  A 0.71 0.71 0.0 0 0 60.69 103.23
  L 60.93 110.02
  A 0.71 0.71 0.0 0 1 60.22 110.75
  L 52.07 110.75
  Z"
/>
<path fill="#000000" d="
  M 302.02 107.45
  Q 302.04 107.12 300.63 107.30
  Q 301.64 107.24 299.38 107.26
  L 299.50 102.17
  Q 301.87 101.32 304.25 102.44
  A 1.30 1.30 0.0 0 1 304.99 103.70
  Q 304.74 107.45 302.02 107.45
  Z"
/>
<path fill="#000000" d="
  M 52.07 110.75
  L 60.22 110.75
  A 0.71 0.71 0.0 0 0 60.93 110.02
  L 60.69 103.23
  A 0.71 0.71 0.0 0 1 61.40 102.50
  L 284.79 102.51
  A 0.71 0.71 0.0 0 1 285.50 103.22
  L 285.50 130.55
  A 0.71 0.71 0.0 0 1 284.79 131.26
  L 61.53 131.19
  A 0.71 0.71 0.0 0 1 60.82 130.41
  L 61.03 128.28
  A 0.71 0.71 0.0 0 0 60.32 127.50
  L 52.18 127.50
  A 0.71 0.71 0.0 0 1 51.47 126.80
  L 51.36 111.47
  A 0.71 0.71 0.0 0 1 52.07 110.75
  Z
  M 191.25 118.25
  L 191.25 123.00
  Q 191.25 123.50 191.75 123.50
  L 195.00 123.50
  Q 195.50 123.50 195.50 123.00
  L 195.50 114.26
  A 0.74 0.73 0.0 0 0 194.76 113.53
  L 78.50 113.66
  Q 78.11 113.66 77.74 113.52
  Q 76.73 113.14 76.36 114.24
  Q 75.82 115.87 76.39 117.21
  Q 76.61 117.75 77.20 117.75
  L 190.75 117.75
  Q 191.25 117.75 191.25 118.25
  Z
  M 215.50 118.10
  A 0.35 0.35 0.0 0 1 215.85 117.75
  L 268.31 117.75
  A 0.35 0.35 0.0 0 0 268.66 117.38
  L 268.44 114.04
  A 0.35 0.35 0.0 0 0 268.09 113.71
  L 211.55 113.67
  A 0.35 0.35 0.0 0 0 211.20 114.02
  L 211.28 123.15
  A 0.35 0.35 0.0 0 0 211.63 123.50
  L 215.15 123.50
  A 0.35 0.35 0.0 0 0 215.50 123.15
  L 215.50 118.10
  Z"
/>
<path fill="#fefefe" d="
  M 549.02 124.51
  L 372.74 124.51
  L 365.99 124.48
  Q 365.50 124.47 365.50 123.98
  L 365.50 103.37
  Q 365.50 102.75 366.13 102.75
  L 564.51 102.75
  A 0.52 0.51 89.4 0 1 565.02 103.26
  L 565.08 123.80
  A 0.70 0.70 0.0 0 1 564.38 124.51
  L 549.02 124.51
  Z
  M 494.2618 105.7278
  A 0.58 0.58 0.0 0 0 493.6798 105.1498
  L 493.5598 105.1503
  A 0.58 0.58 0.0 0 0 492.9818 105.7323
  L 493.0382 121.8722
  A 0.58 0.58 0.0 0 0 493.6202 122.4502
  L 493.7402 122.4497
  A 0.58 0.58 0.0 0 0 494.3182 121.8677
  L 494.2618 105.7278
  Z
  M 371.9937 106.0213
  A 0.72 0.72 0.0 0 0 371.2750 105.3000
  L 371.2350 105.3000
  A 0.72 0.72 0.0 0 0 370.5137 106.0187
  L 370.4863 121.7587
  A 0.72 0.72 0.0 0 0 371.2050 122.4800
  L 371.2450 122.4800
  A 0.72 0.72 0.0 0 0 371.9663 121.7613
  L 371.9937 106.0213
  Z
  M 374.2912 105.9939
  A 0.68 0.68 0.0 0 0 373.6148 105.3104
  L 373.5148 105.3099
  A 0.68 0.68 0.0 0 0 372.8313 105.9863
  L 372.7488 121.7461
  A 0.68 0.68 0.0 0 0 373.4252 122.4296
  L 373.5252 122.4301
  A 0.68 0.68 0.0 0 0 374.2087 121.7537
  L 374.2912 105.9939
  Z
  M 380.9815 105.7126
  A 0.27 0.27 0.0 0 0 380.7106 105.4435
  L 376.9706 105.4566
  A 0.27 0.27 0.0 0 0 376.7016 105.7275
  L 376.7585 122.0274
  A 0.27 0.27 0.0 0 0 377.0294 122.2965
  L 380.7694 122.2834
  A 0.27 0.27 0.0 0 0 381.0384 122.0125
  L 380.9815 105.7126
  Z
  M 384.49 105.56
  Q 384.13 105.36 383.38 105.80
  Q 383.15 105.41 382.45 105.51
  Q 382.00 105.57 382.00 106.02
  L 382.00 121.63
  A 0.63 0.62 -81.1 0 0 382.43 122.23
  L 382.74 122.33
  Q 383.22 122.49 383.23 121.98
  L 383.28 117.01
  L 383.55 116.83
  Q 383.95 116.57 384.18 116.99
  L 384.48 117.53
  L 384.52 121.66
  A 0.80 0.53 56.3 0 0 385.77 122.19
  L 385.74 105.90
  Q 385.74 105.25 385.11 105.41
  L 384.49 105.56
  Z
  M 390.2259 105.8189
  A 0.57 0.57 0.0 0 0 389.6550 105.2499
  L 389.5550 105.2501
  A 0.57 0.57 0.0 0 0 388.9860 105.8211
  L 389.0141 121.9211
  A 0.57 0.57 0.0 0 0 389.5850 122.4901
  L 389.6850 122.4899
  A 0.57 0.57 0.0 0 0 390.2540 121.9189
  L 390.2259 105.8189
  Z
  M 392.75 106.00
  A 0.72 0.72 0.0 0 0 392.03 105.28
  L 391.97 105.28
  A 0.72 0.72 0.0 0 0 391.25 106.00
  L 391.25 121.74
  A 0.72 0.72 0.0 0 0 391.97 122.46
  L 392.03 122.46
  A 0.72 0.72 0.0 0 0 392.75 121.74
  L 392.75 106.00
  Z
  M 394.9884 105.9168
  A 0.61 0.61 0.0 0 0 394.3752 105.3100
  L 394.3152 105.3103
  A 0.61 0.61 0.0 0 0 393.7084 105.9235
  L 393.7916 121.8232
  A 0.61 0.61 0.0 0 0 394.4048 122.4300
  L 394.4648 122.4297
  A 0.61 0.61 0.0 0 0 395.0716 121.8165
  L 394.9884 105.9168
  Z
  M 397.31 105.85
  A 0.58 0.58 0.0 0 0 396.73 105.27
  L 396.59 105.27
  A 0.58 0.58 0.0 0 0 396.01 105.85
  L 396.01 121.87
  A 0.58 0.58 0.0 0 0 396.59 122.45
  L 396.73 122.45
  A 0.58 0.58 0.0 0 0 397.31 121.87
  L 397.31 105.85
  Z
  M 402.0114 105.9540
  A 0.69 0.69 0.0 0 0 401.3250 105.2604
  L 401.2250 105.2599
  A 0.69 0.69 0.0 0 0 400.5314 105.9462
  L 400.4486 121.7660
  A 0.69 0.69 0.0 0 0 401.1350 122.4596
  L 401.2350 122.4601
  A 0.69 0.69 0.0 0 0 401.9286 121.7738
  L 402.0114 105.9540
  Z
  M 404.26 121.97
  Q 404.96 121.76 405.23 122.00
  Q 405.35 122.21 405.62 122.33
  Q 405.98 122.50 406.28 122.23
  L 406.53 122.01
  L 407.62 121.96
  Q 407.96 122.38 408.32 122.39
  Q 408.89 122.41 408.90 121.84
  L 408.94 106.19
  Q 408.94 105.63 408.40 105.51
  Q 407.64 105.34 407.61 105.72
  L 406.58 105.78
  Q 405.61 104.80 405.24 105.74
  L 404.11 105.76
  L 403.92 105.51
  A 0.63 0.63 0.0 0 0 402.78 105.89
  L 402.74 121.52
  A 0.80 0.80 0.0 0 0 404.02 122.16
  L 404.26 121.97
  Z
  M 411.04 105.69
  A 0.26 0.26 0.0 0 0 410.78 105.43
  L 410.20 105.43
  A 0.26 0.26 0.0 0 0 409.94 105.69
  L 409.94 121.97
  A 0.26 0.26 0.0 0 0 410.20 122.23
  L 410.78 122.23
  A 0.26 0.26 0.0 0 0 411.04 121.97
  L 411.04 105.69
  Z
  M 414.46 105.54
  L 413.49 105.80
  Q 413.12 105.45 412.51 105.49
  Q 412.14 105.52 412.14 105.90
  L 412.16 121.69
  A 0.63 0.62 -85.7 0 0 412.69 122.31
  Q 413.07 122.37 413.47 122.03
  L 414.43 122.01
  Q 414.67 122.39 415.91 122.22
  Q 416.44 121.90 417.40 122.75
  Q 418.46 113.86 417.99 105.80
  A 0.55 0.54 85.8 0 0 417.41 105.29
  Q 417.19 105.31 416.94 105.49
  L 415.79 105.77
  C 415.53 105.08 414.97 105.15 414.46 105.54
  Z
  M 422.7457 105.6288
  A 0.27 0.27 0.0 0 0 422.4753 105.3593
  L 421.6353 105.3607
  A 0.27 0.27 0.0 0 0 421.3657 105.6312
  L 421.3943 121.9712
  A 0.27 0.27 0.0 0 0 421.6647 122.2407
  L 422.5047 122.2393
  A 0.27 0.27 0.0 0 0 422.7743 121.9688
  L 422.7457 105.6288
  Z
  M 425.01 105.85
  A 0.61 0.61 0.0 0 0 424.40 105.24
  L 424.36 105.24
  A 0.61 0.61 0.0 0 0 423.75 105.85
  L 423.75 121.81
  A 0.61 0.61 0.0 0 0 424.36 122.42
  L 424.40 122.42
  A 0.61 0.61 0.0 0 0 425.01 121.81
  L 425.01 105.85
  Z
  M 427.45 105.97
  A 0.71 0.71 0.0 0 0 426.74 105.26
  L 426.72 105.26
  A 0.71 0.71 0.0 0 0 426.01 105.97
  L 426.01 121.73
  A 0.71 0.71 0.0 0 0 426.72 122.44
  L 426.74 122.44
  A 0.71 0.71 0.0 0 0 427.45 121.73
  L 427.45 105.97
  Z
  M 431.99 105.97
  A 0.73 0.73 0.0 0 0 431.26 105.24
  L 431.22 105.24
  A 0.73 0.73 0.0 0 0 430.49 105.97
  L 430.49 121.75
  A 0.73 0.73 0.0 0 0 431.22 122.48
  L 431.26 122.48
  A 0.73 0.73 0.0 0 0 431.99 121.75
  L 431.99 105.97
  Z
  M 434.2225 106.0076
  A 0.68 0.68 0.0 0 0 433.5402 105.3300
  L 433.5002 105.3301
  A 0.68 0.68 0.0 0 0 432.8225 106.0125
  L 432.8775 121.7524
  A 0.68 0.68 0.0 0 0 433.5598 122.4300
  L 433.5998 122.4299
  A 0.68 0.68 0.0 0 0 434.2775 121.7475
  L 434.2225 106.0076
  Z
  M 444.29 105.73
  L 443.52 105.78
  Q 443.12 105.49 442.62 105.49
  Q 442.19 105.48 442.19 105.91
  L 442.27 121.77
  Q 442.28 122.35 442.85 122.38
  Q 443.24 122.41 443.64 121.96
  L 444.29 122.04
  Q 444.88 122.58 446.11 122.20
  Q 446.31 122.32 446.75 122.20
  Q 448.12 122.86 448.09 121.69
  Q 447.92 114.22 448.01 106.75
  Q 448.04 104.54 446.73 105.67
  Q 446.48 105.83 446.03 105.73
  Q 444.72 104.68 444.29 105.73
  Z
  M 450.2861 105.8789
  A 0.56 0.56 0.0 0 0 449.7251 105.3199
  L 449.5451 105.3202
  A 0.56 0.56 0.0 0 0 448.9861 105.8811
  L 449.0139 121.8011
  A 0.56 0.56 0.0 0 0 449.5749 122.3601
  L 449.7549 122.3598
  A 0.56 0.56 0.0 0 0 450.3139 121.7989
  L 450.2861 105.8789
  Z
  M 452.7742 105.7111
  A 0.42 0.42 0.0 0 0 452.3549 105.2904
  L 451.9349 105.2896
  A 0.42 0.42 0.0 0 0 451.5142 105.7089
  L 451.4858 121.9289
  A 0.42 0.42 0.0 0 0 451.9051 122.3496
  L 452.3251 122.3504
  A 0.42 0.42 0.0 0 0 452.7458 121.9311
  L 452.7742 105.7111
  Z
  M 455.01 105.78
  A 0.52 0.52 0.0 0 0 454.49 105.26
  L 454.27 105.26
  A 0.52 0.52 0.0 0 0 453.75 105.78
  L 453.75 121.74
  A 0.52 0.52 0.0 0 0 454.27 122.26
  L 454.49 122.26
  A 0.52 0.52 0.0 0 0 455.01 121.74
  L 455.01 105.78
  Z
  M 457.25 105.79
  A 0.49 0.49 0.0 0 0 456.76 105.30
  L 456.50 105.30
  A 0.49 0.49 0.0 0 0 456.01 105.79
  L 456.01 121.89
  A 0.49 0.49 0.0 0 0 456.50 122.38
  L 456.76 122.38
  A 0.49 0.49 0.0 0 0 457.25 121.89
  L 457.25 105.79
  Z
  M 459.77 105.89
  A 0.54 0.54 0.0 0 0 459.23 105.35
  L 458.93 105.35
  A 0.54 0.54 0.0 0 0 458.39 105.89
  L 458.39 121.85
  A 0.54 0.54 0.0 0 0 458.93 122.39
  L 459.23 122.39
  A 0.54 0.54 0.0 0 0 459.77 121.85
  L 459.77 105.89
  Z
  M 466.5459 105.7789
  A 0.50 0.50 0.0 0 0 466.0450 105.2797
  L 465.7250 105.2803
  A 0.50 0.50 0.0 0 0 465.2259 105.7812
  L 465.2541 121.9411
  A 0.50 0.50 0.0 0 0 465.7550 122.4403
  L 466.0750 122.4397
  A 0.50 0.50 0.0 0 0 466.5741 121.9388
  L 466.5459 105.7789
  Z
  M 468.99 105.89
  A 0.60 0.60 0.0 0 0 468.39 105.29
  L 468.35 105.29
  A 0.60 0.60 0.0 0 0 467.75 105.89
  L 467.75 121.79
  A 0.60 0.60 0.0 0 0 468.35 122.39
  L 468.39 122.39
  A 0.60 0.60 0.0 0 0 468.99 121.79
  L 468.99 105.89
  Z
  M 471.06 120.49
  Q 471.25 120.43 471.29 120.11
  Q 471.35 119.74 471.72 119.75
  L 472.24 119.75
  L 472.26 121.71
  Q 472.27 122.19 472.74 122.25
  Q 473.28 122.32 473.52 122.03
  Q 474.33 121.86 474.73 122.15
  L 479.90 122.13
  A 0.57 0.57 0.0 0 0 480.47 121.55
  L 480.38 117.77
  L 480.54 116.74
  Q 480.62 116.22 481.12 116.40
  L 481.60 116.58
  L 481.53 121.90
  A 0.59 0.59 0.0 0 0 482.59 122.27
  C 483.41 121.20 482.81 108.61 482.99 106.11
  Q 483.03 105.56 482.51 105.39
  Q 482.01 105.23 481.52 105.72
  Q 480.89 105.86 480.43 105.65
  L 474.68 105.46
  Q 474.08 105.43 473.52 105.73
  Q 472.88 105.15 472.23 105.73
  L 471.03 105.74
  Q 470.80 105.44 470.40 105.33
  A 0.34 0.34 0.0 0 0 469.97 105.66
  L 470.01 121.97
  A 0.57 0.57 0.0 0 0 471.11 122.16
  Q 471.47 121.16 471.06 120.49
  Z
  M 487.30 122.00
  L 488.41 122.09
  Q 488.40 122.33 489.16 122.25
  Q 489.58 122.20 489.61 121.78
  Q 490.27 113.70 489.03 104.94
  Q 487.59 105.94 487.26 105.74
  Q 486.94 105.42 486.37 105.44
  Q 486.00 105.45 486.00 105.81
  L 486.00 122.29
  A 0.51 0.51 0.0 0 0 486.94 122.57
  L 487.30 122.00
  Z
  M 492.0313 105.9845
  A 0.64 0.64 0.0 0 0 491.3857 105.3501
  L 491.3257 105.3506
  A 0.64 0.64 0.0 0 0 490.6913 105.9961
  L 490.8287 121.7355
  A 0.64 0.64 0.0 0 0 491.4743 122.3699
  L 491.5343 122.3694
  A 0.64 0.64 0.0 0 0 492.1687 121.7239
  L 492.0313 105.9845
  Z
  M 498.99 105.98
  A 0.72 0.72 0.0 0 0 498.27 105.26
  L 498.23 105.26
  A 0.72 0.72 0.0 0 0 497.51 105.98
  L 497.51 121.72
  A 0.72 0.72 0.0 0 0 498.23 122.44
  L 498.27 122.44
  A 0.72 0.72 0.0 0 0 498.99 121.72
  L 498.99 105.98
  Z
  M 504.74 105.55
  L 503.58 105.54
  L 502.25 105.54
  Q 501.72 105.36 501.25 105.79
  Q 500.88 105.49 500.56 105.49
  Q 500.00 105.48 500.00 106.04
  L 500.00 121.67
  Q 500.00 122.16 500.48 122.22
  L 500.78 122.26
  A 0.31 0.31 0.0 0 0 501.14 121.97
  L 501.30 119.76
  Q 501.55 118.92 502.24 118.75
  L 502.27 121.80
  Q 502.28 122.23 502.71 122.25
  Q 502.88 122.25 503.06 122.25
  Q 503.47 122.23 503.48 121.83
  L 503.54 118.29
  C 503.78 117.49 504.14 116.43 504.73 118.04
  L 504.77 121.78
  Q 504.78 122.16 505.16 122.21
  L 505.47 122.26
  Q 506.01 122.33 506.01 121.78
  L 505.97 106.25
  A 1.21 1.09 12.5 0 0 505.23 105.21
  Q 505.15 105.18 504.74 105.55
  Z
  M 508.24 105.97
  A 0.67 0.67 0.0 0 0 507.57 105.30
  L 507.51 105.30
  A 0.67 0.67 0.0 0 0 506.84 105.97
  L 506.84 121.71
  A 0.67 0.67 0.0 0 0 507.51 122.38
  L 507.57 122.38
  A 0.67 0.67 0.0 0 0 508.24 121.71
  L 508.24 105.97
  Z
  M 510.5781 105.8624
  A 0.56 0.56 0.0 0 0 510.0200 105.3004
  L 509.8200 105.2997
  A 0.56 0.56 0.0 0 0 509.2581 105.8577
  L 509.2019 121.9376
  A 0.56 0.56 0.0 0 0 509.7600 122.4996
  L 509.9600 122.5003
  A 0.56 0.56 0.0 0 0 510.5219 121.9423
  L 510.5781 105.8624
  Z
  M 515.19 105.81
  A 0.50 0.50 0.0 0 0 514.69 105.31
  L 514.25 105.31
  A 0.50 0.50 0.0 0 0 513.75 105.81
  L 513.75 121.91
  A 0.50 0.50 0.0 0 0 514.25 122.41
  L 514.69 122.41
  A 0.50 0.50 0.0 0 0 515.19 121.91
  L 515.19 105.81
  Z
  M 517.51 121.97
  L 518.45 122.01
  Q 519.04 122.60 519.84 122.00
  L 520.73 121.96
  L 521.34 122.30
  A 0.57 0.56 -76.5 0 0 522.18 121.78
  Q 521.87 114.34 522.05 106.75
  Q 522.11 104.64 520.78 105.70
  L 519.78 105.73
  Q 519.60 105.33 518.39 105.55
  Q 517.80 105.42 517.46 105.55
  Q 517.02 105.33 516.67 105.29
  A 0.62 0.61 2.5 0 0 515.99 105.91
  L 516.03 121.50
  Q 516.03 122.07 516.58 122.23
  Q 517.39 122.46 517.51 121.97
  Z
  M 524.50 105.96
  A 0.73 0.73 0.0 0 0 523.77 105.23
  L 523.73 105.23
  A 0.73 0.73 0.0 0 0 523.00 105.96
  L 523.00 121.74
  A 0.73 0.73 0.0 0 0 523.73 122.47
  L 523.77 122.47
  A 0.73 0.73 0.0 0 0 524.50 121.74
  L 524.50 105.96
  Z
  M 528.99 105.98
  A 0.72 0.72 0.0 0 0 528.27 105.26
  L 528.25 105.26
  A 0.72 0.72 0.0 0 0 527.53 105.98
  L 527.53 121.72
  A 0.72 0.72 0.0 0 0 528.25 122.44
  L 528.27 122.44
  A 0.72 0.72 0.0 0 0 528.99 121.72
  L 528.99 105.98
  Z
  M 531.33 122.01
  L 531.75 121.98
  Q 532.80 122.83 534.24 122.17
  Q 535.03 122.31 534.54 122.17
  C 535.34 122.53 535.95 122.47 535.96 121.45
  Q 536.09 113.73 535.96 105.88
  Q 535.95 105.40 535.47 105.41
  L 530.62 105.50
  Q 530.00 105.51 530.00 106.13
  L 530.00 121.70
  A 0.53 0.52 -82.9 0 0 530.39 122.21
  Q 531.08 122.40 531.33 122.01
  Z
  M 538.22 121.98
  Q 539.02 121.75 539.19 122.00
  L 539.72 122.38
  Q 540.10 122.65 540.37 122.27
  L 540.56 122.00
  Q 540.86 121.66 541.63 121.76
  Q 541.41 122.09 542.12 122.35
  A 0.66 0.65 -79.8 0 0 543.00 121.73
  L 542.97 105.92
  Q 542.97 105.38 542.43 105.37
  Q 542.00 105.36 541.67 105.75
  L 540.65 105.79
  Q 540.50 105.53 540.27 105.39
  Q 539.76 105.08 539.38 105.55
  L 539.02 106.01
  Q 538.74 105.22 538.12 107.64
  Q 538.18 105.53 537.56 105.23
  A 0.48 0.47 12.5 0 0 536.88 105.66
  L 536.98 121.84
  A 0.54 0.54 0.0 0 0 537.86 122.26
  L 538.22 121.98
  Z
  M 546.14 107.51
  L 546.12 119.72
  L 546.03 121.70
  A 0.50 0.50 0.0 0 0 546.52 122.22
  L 551.39 122.31
  Q 552.03 122.32 552.03 121.68
  L 551.99 105.89
  A 0.58 0.58 0.0 0 0 551.39 105.32
  L 546.51 105.52
  Q 546.09 105.54 546.02 105.96
  Q 545.90 106.78 546.14 107.51
  Z
  M 554.29 121.76
  Q 555.01 121.63 555.46 122.01
  L 555.75 122.26
  Q 556.08 122.53 556.43 122.30
  L 556.83 122.03
  Q 557.00 120.34 557.74 120.76
  Q 557.53 121.97 558.33 122.41
  A 0.45 0.45 0.0 0 0 559.00 122.02
  L 559.00 105.80
  Q 559.00 105.13 558.35 105.29
  Q 558.05 105.37 557.73 105.75
  L 557.02 105.71
  Q 556.03 105.19 555.31 105.70
  L 554.38 105.80
  Q 554.12 105.41 553.69 105.32
  A 0.57 0.56 6.2 0 0 553.00 105.87
  L 553.00 121.96
  A 0.57 0.57 0.0 0 0 553.73 122.51
  Q 554.29 122.36 554.29 121.76
  Z
  M 561.25 105.86
  A 0.61 0.61 0.0 0 0 560.64 105.25
  L 560.62 105.25
  A 0.61 0.61 0.0 0 0 560.01 105.86
  L 560.01 121.80
  A 0.61 0.61 0.0 0 0 560.62 122.41
  L 560.64 122.41
  A 0.61 0.61 0.0 0 0 561.25 121.80
  L 561.25 105.86
  Z
  M 563.8077 105.9326
  A 0.60 0.60 0.0 0 0 563.2098 105.3305
  L 562.9498 105.3296
  A 0.60 0.60 0.0 0 0 562.3478 105.9275
  L 562.2923 121.8274
  A 0.60 0.60 0.0 0 0 562.8902 122.4295
  L 563.1502 122.4304
  A 0.60 0.60 0.0 0 0 563.7522 121.8325
  L 563.8077 105.9326
  Z
  M 420.2741 105.8211
  A 0.31 0.31 0.0 0 0 419.9647 105.5106
  L 419.3247 105.5095
  A 0.31 0.31 0.0 0 0 419.0141 105.8189
  L 418.9859 121.9989
  A 0.31 0.31 0.0 0 0 419.2953 122.3094
  L 419.9353 122.3105
  A 0.31 0.31 0.0 0 0 420.2459 122.0011
  L 420.2741 105.8211
  Z
  M 436.61 122.02
  L 437.64 121.96
  Q 437.97 122.45 438.54 122.21
  A 0.75 0.74 78.8 0 0 439.00 121.52
  L 439.00 106.12
  Q 439.00 105.47 438.35 105.51
  L 437.60 105.55
  Q 437.43 105.44 436.68 105.54
  L 435.74 105.51
  Q 435.25 105.49 435.25 105.98
  L 435.25 121.75
  A 0.71 0.71 0.0 0 0 436.20 122.42
  Q 436.90 122.17 436.61 122.02
  Z
  M 441.0641 105.8010
  A 0.27 0.27 0.0 0 0 440.7945 105.5305
  L 440.2345 105.5295
  A 0.27 0.27 0.0 0 0 439.9641 105.7991
  L 439.9359 121.9190
  A 0.27 0.27 0.0 0 0 440.2055 122.1895
  L 440.7655 122.1905
  A 0.27 0.27 0.0 0 0 441.0359 121.9209
  L 441.0641 105.8010
  Z
  M 545.0764 105.7840
  A 0.26 0.26 0.0 0 0 544.8182 105.5222
  L 544.2382 105.5182
  A 0.26 0.26 0.0 0 0 543.9764 105.7764
  L 543.8636 121.9360
  A 0.26 0.26 0.0 0 0 544.1218 122.1978
  L 544.7018 122.2018
  A 0.26 0.26 0.0 0 0 544.9636 121.9436
  L 545.0764 105.7840
  Z"
/>
<rect fill="#000000" x="-0.64" y="-8.65" transform="translate(493.65,113.80) rotate(-0.2)" width="1.28" height="17.30" rx="0.58"/>
<rect fill="#000000" x="-0.74" y="-8.59" transform="translate(371.24,113.89) rotate(0.1)" width="1.48" height="17.18" rx="0.72"/>
<rect fill="#000000" x="-0.73" y="-8.56" transform="translate(373.52,113.87) rotate(0.3)" width="1.46" height="17.12" rx="0.68"/>
<rect fill="#000000" x="-2.14" y="-8.42" transform="translate(378.87,113.87) rotate(-0.2)" width="4.28" height="16.84" rx="0.27"/>
<path fill="#000000" d="
  M 384.48 117.53
  L 384.49 105.56
  L 385.11 105.41
  Q 385.74 105.25 385.74 105.90
  L 385.77 122.19
  A 0.80 0.53 56.3 0 1 384.52 121.66
  L 384.48 117.53
  Z"
/>
<rect fill="#000000" x="-0.62" y="-8.62" transform="translate(389.62,113.87) rotate(-0.1)" width="1.24" height="17.24" rx="0.57"/>
<rect fill="#110c0a" x="391.25" y="105.28" width="1.50" height="17.18" rx="0.72"/>
<rect fill="#000000" x="-0.64" y="-8.56" transform="translate(394.39,113.87) rotate(-0.3)" width="1.28" height="17.12" rx="0.61"/>
<rect fill="#000000" x="396.01" y="105.27" width="1.30" height="17.18" rx="0.58"/>
<rect fill="#000000" x="-0.74" y="-8.60" transform="translate(401.23,113.86) rotate(0.3)" width="1.48" height="17.20" rx="0.69"/>
<path fill="#000000" d="
  M 404.11 105.76
  L 404.26 121.97
  L 404.02 122.16
  A 0.80 0.80 0.0 0 1 402.74 121.52
  L 402.78 105.89
  A 0.63 0.63 0.0 0 1 403.92 105.51
  L 404.11 105.76
  Z"
/>
<path fill="#000000" d="
  M 406.58 105.78
  L 406.53 122.01
  L 406.28 122.23
  Q 405.98 122.50 405.62 122.33
  Q 405.35 122.21 405.23 122.00
  L 405.24 105.74
  Q 405.61 104.80 406.58 105.78
  Z"
/>
<rect fill="#000000" x="409.94" y="105.43" width="1.10" height="16.80" rx="0.26"/>
<path fill="#000000" d="
  M 415.79 105.77
  L 415.91 122.22
  Q 414.67 122.39 414.43 122.01
  L 414.46 105.54
  C 414.97 105.15 415.53 105.08 415.79 105.77
  Z"
/>
<path fill="#000000" d="
  M 417.40 122.75
  Q 416.12 113.79 416.94 105.49
  Q 417.19 105.31 417.41 105.29
  A 0.55 0.54 85.8 0 1 417.99 105.80
  Q 418.46 113.86 417.40 122.75
  Z"
/>
<rect fill="#000000" x="-0.69" y="-8.44" transform="translate(422.07,113.80) rotate(-0.1)" width="1.38" height="16.88" rx="0.27"/>
<rect fill="#000000" x="423.75" y="105.24" width="1.26" height="17.18" rx="0.61"/>
<rect fill="#000000" x="426.01" y="105.26" width="1.44" height="17.18" rx="0.71"/>
<rect fill="#000000" x="430.49" y="105.24" width="1.50" height="17.24" rx="0.73"/>
<rect fill="#000000" x="-0.70" y="-8.55" transform="translate(433.55,113.88) rotate(-0.2)" width="1.40" height="17.10" rx="0.68"/>
<path fill="#000000" d="
  M 446.03 105.73
  L 446.11 122.20
  Q 444.88 122.58 444.29 122.04
  L 444.29 105.73
  Q 444.72 104.68 446.03 105.73
  Z"
/>
<path fill="#000000" d="
  M 446.75 122.20
  L 446.73 105.67
  Q 448.04 104.54 448.01 106.75
  Q 447.92 114.22 448.09 121.69
  Q 448.12 122.86 446.75 122.20
  Z"
/>
<rect fill="#000000" x="-0.65" y="-8.52" transform="translate(449.65,113.84) rotate(-0.1)" width="1.30" height="17.04" rx="0.56"/>
<rect fill="#000000" x="-0.63" y="-8.53" transform="translate(452.13,113.82) rotate(0.1)" width="1.26" height="17.06" rx="0.42"/>
<rect fill="#000000" x="453.75" y="105.26" width="1.26" height="17.00" rx="0.52"/>
<rect fill="#000000" x="456.01" y="105.30" width="1.24" height="17.08" rx="0.49"/>
<rect fill="#000000" x="458.39" y="105.35" width="1.38" height="17.04" rx="0.54"/>
<rect fill="#000000" x="-0.66" y="-8.58" transform="translate(465.90,113.86) rotate(-0.1)" width="1.32" height="17.16" rx="0.50"/>
<rect fill="#000000" x="467.75" y="105.29" width="1.24" height="17.10" rx="0.60"/>
<path fill="#000000" d="
  M 471.03 105.74
  L 471.06 120.49
  Q 471.47 121.16 471.11 122.16
  A 0.57 0.57 0.0 0 1 470.01 121.97
  L 469.97 105.66
  A 0.34 0.34 0.0 0 1 470.40 105.33
  Q 470.80 105.44 471.03 105.74
  Z"
/>
<path fill="#000000" d="
  M 480.43 105.65
  L 480.38 117.77
  L 480.47 121.55
  A 0.57 0.57 0.0 0 1 479.90 122.13
  L 474.73 122.15
  L 474.68 105.46
  L 480.43 105.65
  Z"
/>
<path fill="#000000" d="
  M 481.60 116.58
  L 481.52 105.72
  Q 482.01 105.23 482.51 105.39
  Q 483.03 105.56 482.99 106.11
  C 482.81 108.61 483.41 121.20 482.59 122.27
  A 0.59 0.59 0.0 0 1 481.53 121.90
  L 481.60 116.58
  Z"
/>
<path fill="#000000" d="
  M 487.26 105.74
  L 487.30 122.00
  L 486.94 122.57
  A 0.51 0.51 0.0 0 1 486.00 122.29
  L 486.00 105.81
  Q 486.00 105.45 486.37 105.44
  Q 486.94 105.42 487.26 105.74
  Z"
/>
<path fill="#000000" d="
  M 488.41 122.09
  L 489.03 104.94
  Q 490.27 113.70 489.61 121.78
  Q 489.58 122.20 489.16 122.25
  Q 488.40 122.33 488.41 122.09
  Z"
/>
<rect fill="#000000" x="-0.67" y="-8.51" transform="translate(491.43,113.86) rotate(-0.5)" width="1.34" height="17.02" rx="0.64"/>
<rect fill="#000000" x="497.51" y="105.26" width="1.48" height="17.18" rx="0.72"/>
<path fill="#000000" d="
  M 504.73 118.04
  L 504.74 105.55
  Q 505.15 105.18 505.23 105.21
  A 1.21 1.09 12.5 0 1 505.97 106.25
  L 506.01 121.78
  Q 506.01 122.33 505.47 122.26
  L 505.16 122.21
  Q 504.78 122.16 504.77 121.78
  L 504.73 118.04
  Z"
/>
<rect fill="#000000" x="506.84" y="105.30" width="1.40" height="17.08" rx="0.67"/>
<rect fill="#000000" x="-0.66" y="-8.60" transform="translate(509.89,113.90) rotate(0.2)" width="1.32" height="17.20" rx="0.56"/>
<rect fill="#000000" x="513.75" y="105.31" width="1.44" height="17.10" rx="0.50"/>
<path fill="#000000" d="
  M 517.46 105.55
  L 517.51 121.97
  Q 517.39 122.46 516.58 122.23
  Q 516.03 122.07 516.03 121.50
  L 515.99 105.91
  A 0.62 0.61 2.5 0 1 516.67 105.29
  Q 517.02 105.33 517.46 105.55
  Z"
/>
<path fill="#000000" d="
  M 520.73 121.96
  L 520.78 105.70
  Q 522.11 104.64 522.05 106.75
  Q 521.87 114.34 522.18 121.78
  A 0.57 0.56 -76.5 0 1 521.34 122.30
  L 520.73 121.96
  Z"
/>
<rect fill="#000000" x="523.00" y="105.23" width="1.50" height="17.24" rx="0.73"/>
<rect fill="#000000" x="527.53" y="105.26" width="1.46" height="17.18" rx="0.72"/>
<path fill="#000000" d="
  M 534.54 122.17
  L 534.73 106.70
  Q 534.73 106.57 534.65 106.46
  Q 534.53 106.29 534.48 106.24
  A 0.41 0.41 0.0 0 0 533.76 106.52
  C 533.98 111.54 533.03 117.67 534.24 122.17
  Q 532.80 122.83 531.75 121.98
  Q 532.49 114.18 531.79 106.53
  A 0.20 0.20 0.0 0 0 531.39 106.54
  Q 531.00 114.24 531.33 122.01
  Q 531.08 122.40 530.39 122.21
  A 0.53 0.52 -82.9 0 1 530.00 121.70
  L 530.00 106.13
  Q 530.00 105.51 530.62 105.50
  L 535.47 105.41
  Q 535.95 105.40 535.96 105.88
  Q 536.09 113.73 535.96 121.45
  C 535.95 122.47 535.34 122.53 534.54 122.17
  Z"
/>
<path fill="#000000" d="
  M 538.12 107.64
  L 538.22 121.98
  L 537.86 122.26
  A 0.54 0.54 0.0 0 1 536.98 121.84
  L 536.88 105.66
  A 0.48 0.47 12.5 0 1 537.56 105.23
  Q 538.18 105.53 538.12 107.64
  Z"
/>
<path fill="#000000" d="
  M 540.65 105.79
  L 540.56 122.00
  L 540.37 122.27
  Q 540.10 122.65 539.72 122.38
  L 539.19 122.00
  L 539.02 106.01
  L 539.38 105.55
  Q 539.76 105.08 540.27 105.39
  Q 540.50 105.53 540.65 105.79
  Z"
/>
<path fill="#000000" d="
  M 541.63 121.76
  L 541.67 105.75
  Q 542.00 105.36 542.43 105.37
  Q 542.97 105.38 542.97 105.92
  L 543.00 121.73
  A 0.66 0.65 -79.8 0 1 542.12 122.35
  Q 541.41 122.09 541.63 121.76
  Z"
/>
<path fill="#000000" d="
  M 546.12 119.72
  Q 547.01 119.87 547.39 120.74
  A 0.40 0.40 0.0 0 0 548.15 120.58
  L 548.33 107.00
  A 0.52 0.52 0.0 0 0 547.31 106.84
  Q 547.05 107.73 546.14 107.51
  Q 545.90 106.78 546.02 105.96
  Q 546.09 105.54 546.51 105.52
  L 551.39 105.32
  A 0.58 0.58 0.0 0 1 551.99 105.89
  L 552.03 121.68
  Q 552.03 122.32 551.39 122.31
  L 546.52 122.22
  A 0.50 0.50 0.0 0 1 546.03 121.70
  L 546.12 119.72
  Z
  M 550.5677 106.3062
  A 0.27 0.27 0.0 0 0 550.2934 106.0404
  L 550.2335 106.0414
  A 0.27 0.27 0.0 0 0 549.9677 106.3156
  L 550.1923 120.6138
  A 0.27 0.27 0.0 0 0 550.4666 120.8796
  L 550.5265 120.8786
  A 0.27 0.27 0.0 0 0 550.7923 120.6044
  L 550.5677 106.3062
  Z"
/>
<path fill="#000000" d="
  M 554.38 105.80
  L 554.29 121.76
  Q 554.29 122.36 553.73 122.51
  A 0.57 0.57 0.0 0 1 553.00 121.96
  L 553.00 105.87
  A 0.57 0.56 6.2 0 1 553.69 105.32
  Q 554.12 105.41 554.38 105.80
  Z"
/>
<path fill="#000000" d="
  M 557.74 120.76
  L 557.73 105.75
  Q 558.05 105.37 558.35 105.29
  Q 559.00 105.13 559.00 105.80
  L 559.00 122.02
  A 0.45 0.45 0.0 0 1 558.33 122.41
  Q 557.53 121.97 557.74 120.76
  Z"
/>
<rect fill="#000000" x="560.01" y="105.25" width="1.24" height="17.16" rx="0.61"/>
<rect fill="#000000" x="-0.73" y="-8.55" transform="translate(563.05,113.88) rotate(0.2)" width="1.46" height="17.10" rx="0.60"/>
<path fill="#000000" d="
  M 383.38 105.80
  L 383.28 117.01
  L 383.23 121.98
  Q 383.22 122.49 382.74 122.33
  L 382.43 122.23
  A 0.63 0.62 -81.1 0 1 382.00 121.63
  L 382.00 106.02
  Q 382.00 105.57 382.45 105.51
  Q 383.15 105.41 383.38 105.80
  Z"
/>
<path fill="#b1b0b5" d="
  M 384.49 105.56
  L 384.48 117.53
  L 384.18 116.99
  Q 383.95 116.57 383.55 116.83
  L 383.28 117.01
  L 383.38 105.80
  Q 384.13 105.36 384.49 105.56
  Z"
/>
<path fill="#000000" d="
  M 407.62 121.96
  L 407.61 105.72
  Q 407.64 105.34 408.40 105.51
  Q 408.94 105.63 408.94 106.19
  L 408.90 121.84
  Q 408.89 122.41 408.32 122.39
  Q 407.96 122.38 407.62 121.96
  Z"
/>
<path fill="#000000" d="
  M 413.49 105.80
  L 413.47 122.03
  Q 413.07 122.37 412.69 122.31
  A 0.63 0.62 -85.7 0 1 412.16 121.69
  L 412.14 105.90
  Q 412.14 105.52 412.51 105.49
  Q 413.12 105.45 413.49 105.80
  Z"
/>
<path fill="#b1b0b5" d="
  M 414.46 105.54
  L 414.43 122.01
  L 413.47 122.03
  L 413.49 105.80
  L 414.46 105.54
  Z"
/>
<path fill="#b1b0b5" d="
  M 416.94 105.49
  Q 416.12 113.79 417.40 122.75
  Q 416.44 121.90 415.91 122.22
  L 415.79 105.77
  L 416.94 105.49
  Z"
/>
<rect fill="#000000" x="-0.63" y="-8.40" transform="translate(419.63,113.91) rotate(0.1)" width="1.26" height="16.80" rx="0.31"/>
<path fill="#000000" d="
  M 436.68 105.54
  L 436.61 122.02
  Q 436.90 122.17 436.20 122.42
  A 0.71 0.71 0.0 0 1 435.25 121.75
  L 435.25 105.98
  Q 435.25 105.49 435.74 105.51
  L 436.68 105.54
  Z"
/>
<path fill="#b1b0b5" d="
  M 436.68 105.54
  Q 437.43 105.44 437.60 105.55
  L 437.64 121.96
  L 436.61 122.02
  L 436.68 105.54
  Z"
/>
<path fill="#000000" d="
  M 437.60 105.55
  L 438.35 105.51
  Q 439.00 105.47 439.00 106.12
  L 439.00 121.52
  A 0.75 0.74 78.8 0 1 438.54 122.21
  Q 437.97 122.45 437.64 121.96
  L 437.60 105.55
  Z"
/>
<rect fill="#000000" x="-0.55" y="-8.33" transform="translate(440.50,113.86) rotate(0.1)" width="1.10" height="16.66" rx="0.27"/>
<path fill="#000000" d="
  M 443.52 105.78
  Q 442.35 113.98 443.64 121.96
  Q 443.24 122.41 442.85 122.38
  Q 442.28 122.35 442.27 121.77
  L 442.19 105.91
  Q 442.19 105.48 442.62 105.49
  Q 443.12 105.49 443.52 105.78
  Z"
/>
<path fill="#000000" d="
  M 473.52 105.73
  L 473.52 122.03
  Q 473.28 122.32 472.74 122.25
  Q 472.27 122.19 472.26 121.71
  L 472.24 119.75
  L 472.23 105.73
  Q 472.88 105.15 473.52 105.73
  Z"
/>
<path fill="#b1b0b5" d="
  M 474.68 105.46
  L 474.73 122.15
  Q 474.33 121.86 473.52 122.03
  L 473.52 105.73
  Q 474.08 105.43 474.68 105.46
  Z"
/>
<path fill="#b1b0b5" d="
  M 489.03 104.94
  L 488.41 122.09
  L 487.30 122.00
  L 487.26 105.74
  Q 487.59 105.94 489.03 104.94
  Z"
/>
<path fill="#000000" d="
  M 501.25 105.79
  L 501.30 119.76
  L 501.14 121.97
  A 0.31 0.31 0.0 0 1 500.78 122.26
  L 500.48 122.22
  Q 500.00 122.16 500.00 121.67
  L 500.00 106.04
  Q 500.00 105.48 500.56 105.49
  Q 500.88 105.49 501.25 105.79
  Z"
/>
<path fill="#b1b0b5" d="
  M 502.25 105.54
  L 502.24 118.75
  Q 501.55 118.92 501.30 119.76
  L 501.25 105.79
  Q 501.72 105.36 502.25 105.54
  Z"
/>
<path fill="#000000" d="
  M 502.25 105.54
  L 503.58 105.54
  L 503.54 118.29
  L 503.48 121.83
  Q 503.47 122.23 503.06 122.25
  Q 502.88 122.25 502.71 122.25
  Q 502.28 122.23 502.27 121.80
  L 502.24 118.75
  L 502.25 105.54
  Z"
/>
<path fill="#b1b0b5" d="
  M 503.58 105.54
  L 504.74 105.55
  L 504.73 118.04
  C 504.14 116.43 503.78 117.49 503.54 118.29
  L 503.58 105.54
  Z"
/>
<path fill="#b1b0b5" d="
  M 517.46 105.55
  Q 517.80 105.42 518.39 105.55
  L 518.45 122.01
  L 517.51 121.97
  L 517.46 105.55
  Z"
/>
<path fill="#000000" d="
  M 518.39 105.55
  Q 519.60 105.33 519.78 105.73
  L 519.84 122.00
  Q 519.04 122.60 518.45 122.01
  L 518.39 105.55
  Z"
/>
<rect fill="#000000" x="-0.55" y="-8.34" transform="translate(544.47,113.86) rotate(0.4)" width="1.10" height="16.68" rx="0.26"/>
<path fill="#000000" d="
  M 557.02 105.71
  L 556.83 122.03
  L 556.43 122.30
  Q 556.08 122.53 555.75 122.26
  L 555.46 122.01
  L 555.31 105.70
  Q 556.03 105.19 557.02 105.71
  Z"
/>
<path fill="#b1b0b5" d="
  M 404.11 105.76
  L 405.24 105.74
  L 405.23 122.00
  Q 404.96 121.76 404.26 121.97
  L 404.11 105.76
  Z"
/>
<path fill="#b1b0b5" d="
  M 406.58 105.78
  L 407.61 105.72
  L 407.62 121.96
  L 406.53 122.01
  L 406.58 105.78
  Z"
/>
<path fill="#757b79" d="
  M 443.52 105.78
  L 444.29 105.73
  L 444.29 122.04
  L 443.64 121.96
  Q 442.35 113.98 443.52 105.78
  Z"
/>
<path fill="#b3b6af" d="
  M 446.03 105.73
  Q 446.48 105.83 446.73 105.67
  L 446.75 122.20
  Q 446.31 122.32 446.11 122.20
  L 446.03 105.73
  Z"
/>
<path fill="#b1b0b5" d="
  M 471.03 105.74
  L 472.23 105.73
  L 472.24 119.75
  L 471.72 119.75
  Q 471.35 119.74 471.29 120.11
  Q 471.25 120.43 471.06 120.49
  L 471.03 105.74
  Z"
/>
<path fill="#b1b0b5" d="
  M 480.43 105.65
  Q 480.89 105.86 481.52 105.72
  L 481.60 116.58
  L 481.12 116.40
  Q 480.62 116.22 480.54 116.74
  L 480.38 117.77
  L 480.43 105.65
  Z"
/>
<path fill="#b1b0b5" d="
  M 519.78 105.73
  L 520.78 105.70
  L 520.73 121.96
  L 519.84 122.00
  L 519.78 105.73
  Z"
/>
<path fill="#b1b0b5" d="
  M 539.02 106.01
  L 539.19 122.00
  Q 539.02 121.75 538.22 121.98
  L 538.12 107.64
  Q 538.74 105.22 539.02 106.01
  Z"
/>
<path fill="#b1b0b5" d="
  M 540.65 105.79
  L 541.67 105.75
  L 541.63 121.76
  Q 540.86 121.66 540.56 122.00
  L 540.65 105.79
  Z"
/>
<path fill="#b1b0b5" d="
  M 554.38 105.80
  L 555.31 105.70
  L 555.46 122.01
  Q 555.01 121.63 554.29 121.76
  L 554.38 105.80
  Z"
/>
<path fill="#b1b0b5" d="
  M 557.02 105.71
  L 557.73 105.75
  L 557.74 120.76
  Q 557.00 120.34 556.83 122.03
  L 557.02 105.71
  Z"
/>
<path fill="#757b79" d="
  M 531.75 121.98
  L 531.33 122.01
  Q 531.00 114.24 531.39 106.54
  A 0.20 0.20 0.0 0 1 531.79 106.53
  Q 532.49 114.18 531.75 121.98
  Z"
/>
<path fill="#b1b0b5" d="
  M 534.54 122.17
  Q 535.03 122.31 534.24 122.17
  C 533.03 117.67 533.98 111.54 533.76 106.52
  A 0.41 0.41 0.0 0 1 534.48 106.24
  Q 534.53 106.29 534.65 106.46
  Q 534.73 106.57 534.73 106.70
  L 534.54 122.17
  Z"
/>
<rect fill="#757b79" x="-0.30" y="-7.42" transform="translate(550.38,113.46) rotate(-0.9)" width="0.60" height="14.84" rx="0.27"/>
<path fill="#434141" d="
  M 546.12 119.72
  L 546.14 107.51
  Q 547.05 107.73 547.31 106.84
  A 0.52 0.52 0.0 0 1 548.33 107.00
  L 548.15 120.58
  A 0.40 0.40 0.0 0 1 547.39 120.74
  Q 547.01 119.87 546.12 119.72
  Z"
/>
<path fill="#434141" d="
  M 300.63 107.30
  Q 302.04 107.12 302.02 107.45
  L 346.23 107.47
  A 0.73 0.72 0.0 0 1 346.96 108.19
  L 347.08 126.65
  Q 347.09 128.14 345.60 128.12
  L 300.99 127.45
  Q 300.63 127.45 300.63 127.08
  L 300.63 107.30
  Z
  M 344.0545 110.6921
  A 0.77 0.77 0.0 0 0 343.2872 109.9194
  L 303.5474 109.7807
  A 0.77 0.77 0.0 0 0 302.7747 110.5480
  L 302.7255 124.6479
  A 0.77 0.77 0.0 0 0 303.4928 125.4206
  L 343.2326 125.5593
  A 0.77 0.77 0.0 0 0 344.0053 124.7920
  L 344.0545 110.6921
  Z"
/>
<path fill="#000000" d="
  M 344.0053 124.7920
  A 0.77 0.77 0.0 0 1 343.2326 125.5593
  L 303.4928 125.4206
  A 0.77 0.77 0.0 0 1 302.7255 124.6479
  L 302.7747 110.5480
  A 0.77 0.77 0.0 0 1 303.5474 109.7807
  L 343.2872 109.9194
  A 0.77 0.77 0.0 0 1 344.0545 110.6921
  L 344.0053 124.7920
  Z
  M 338.4483 117.4683
  A 0.85 0.85 0.0 0 0 337.5536 116.6655
  L 335.8561 116.7575
  A 0.85 0.85 0.0 0 0 335.0533 117.6522
  L 335.0717 117.9917
  A 0.85 0.85 0.0 0 0 335.9664 118.7945
  L 337.6639 118.7025
  A 0.85 0.85 0.0 0 0 338.4667 117.8078
  L 338.4483 117.4683
  Z
  M 311.2012 117.5031
  A 0.87 0.87 0.0 0 0 310.2883 116.6783
  L 308.5905 116.7643
  A 0.87 0.87 0.0 0 0 307.7656 117.6772
  L 307.7788 117.9369
  A 0.87 0.87 0.0 0 0 308.6917 118.7617
  L 310.3895 118.6757
  A 0.87 0.87 0.0 0 0 311.2144 117.7628
  L 311.2012 117.5031
  Z
  M 320.2473 117.4521
  A 0.73 0.73 0.0 0 0 319.5097 116.7298
  L 317.5498 116.7503
  A 0.73 0.73 0.0 0 0 316.8275 117.4879
  L 316.8327 117.9879
  A 0.73 0.73 0.0 0 0 317.5703 118.7102
  L 319.5302 118.6897
  A 0.73 0.73 0.0 0 0 320.2525 117.9521
  L 320.2473 117.4521
  Z
  M 329.2501 117.4318
  A 0.59 0.59 0.0 0 0 328.6983 116.8059
  L 326.6623 116.6778
  A 0.59 0.59 0.0 0 0 326.0364 117.2296
  L 325.9899 117.9682
  A 0.59 0.59 0.0 0 0 326.5417 118.5941
  L 328.5777 118.7222
  A 0.59 0.59 0.0 0 0 329.2036 118.1704
  L 329.2501 117.4318
  Z"
/>
<path fill="#b1b0b5" d="
  M 190.75 117.75
  L 77.20 117.75
  Q 76.61 117.75 76.39 117.21
  Q 75.82 115.87 76.36 114.24
  Q 76.73 113.14 77.74 113.52
  Q 78.11 113.66 78.50 113.66
  L 194.76 113.53
  A 0.74 0.73 0.0 0 1 195.50 114.26
  L 195.50 123.00
  Q 195.50 123.50 195.00 123.50
  L 191.75 123.50
  Q 191.25 123.50 191.25 123.00
  L 191.25 118.25
  Q 191.25 117.75 190.75 117.75
  Z"
/>
<path fill="#b1b0b5" d="
  M 215.50 118.10
  L 215.50 123.15
  A 0.35 0.35 0.0 0 1 215.15 123.50
  L 211.63 123.50
  A 0.35 0.35 0.0 0 1 211.28 123.15
  L 211.20 114.02
  A 0.35 0.35 0.0 0 1 211.55 113.67
  L 268.09 113.71
  A 0.35 0.35 0.0 0 1 268.44 114.04
  L 268.66 117.38
  A 0.35 0.35 0.0 0 1 268.31 117.75
  L 215.85 117.75
  A 0.35 0.35 0.0 0 0 215.50 118.10
  Z"
/>
<rect fill="#fefefe" x="-1.70" y="-1.02" transform="translate(336.76,117.73) rotate(-3.1)" width="3.40" height="2.04" rx="0.85"/>
<rect fill="#fefefe" x="-1.72" y="-1.00" transform="translate(309.49,117.72) rotate(-2.9)" width="3.44" height="2.00" rx="0.87"/>
<rect fill="#fefefe" x="-1.71" y="-0.98" transform="translate(318.54,117.72) rotate(-0.6)" width="3.42" height="1.96" rx="0.73"/>
<rect fill="#fefefe" x="-1.61" y="-0.96" transform="translate(327.62,117.70) rotate(3.6)" width="3.22" height="1.92" rx="0.59"/>
<path fill="#000000" d="
  M 372.74 124.51
  L 549.02 124.51
  Q 548.28 126.16 545.24 126.18
  Q 534.11 126.27 528.08 126.24
  C 522.48 126.21 514.56 126.85 507.78 126.23
  Q 505.02 125.98 501.72 126.39
  Q 495.10 127.22 488.50 125.73
  C 487.15 125.42 483.97 126.52 482.15 126.51
  Q 464.76 126.40 447.38 126.76
  C 443.27 126.85 439.45 125.23 435.27 125.73
  C 431.68 126.16 428.42 125.83 424.83 126.49
  C 422.98 126.83 421.30 125.92 419.71 125.95
  Q 403.10 126.24 386.47 126.26
  C 381.96 126.26 377.40 124.98 372.74 124.51
  Z"
/>
<path fill="#434141" d="
  M 588.51 127.71
  Q 589.08 129.11 588.47 131.21
  Q 587.58 130.01 588.51 127.71
  Z"
/>
<path fill="#000000" d="
  M 422.50 134.83
  L 428.97 135.00
  L 422.44 135.00
  Q 422.47 134.92 422.50 134.83
  Z"
/>
</svg>
