<?xml version="1.0" encoding="UTF-8" standalone="no"?>
<!DOCTYPE svg PUBLIC "-//W3C//DTD SVG 1.1//EN" "http://www.w3.org/Graphics/SVG/1.1/DTD/svg11.dtd">
<svg xmlns="http://www.w3.org/2000/svg" version="1.1" viewBox="0.00 0.00 419.00 595.00">
<g stroke-width="2.00" fill="none" stroke-linecap="butt">
<path stroke="#31312f" vector-effect="non-scaling-stroke" d="
  M 26.49 16.75
  Q 28.01 28.22 18.78 31.43"
/>
<path stroke="#b0b0ae" vector-effect="non-scaling-stroke" d="
  M 18.78 31.43
  Q 26.31 27.25 25.71 18.63
  A 0.67 0.67 0.0 0 0 25.06 18.00
  Q 11.09 17.46 11.98 31.32
  A 0.67 0.66 89.0 0 0 12.62 31.95
  L 15.78 32.11"
/>
<path stroke="#31312f" vector-effect="non-scaling-stroke" d="
  M 15.78 32.11
  L 11.14 32.76"
/>
<path stroke="#4b4b48" vector-effect="non-scaling-stroke" d="
  M 42.44 16.82
  L 10.79 48.28"
/>
<path stroke="#808080" vector-effect="non-scaling-stroke" d="
  M 15.78 32.11
  Q 17.38 32.07 18.78 31.43"
/>
<path stroke="#31312f" vector-effect="non-scaling-stroke" d="
  M 392.26 17.03
  C 391.91 17.46 391.87 18.07 392.44 18.25"
/>
<path stroke="#808080" vector-effect="non-scaling-stroke" d="
  M 392.44 18.25
  Q 392.36 32.67 406.20 32.03
  Q 406.74 32.00 406.78 31.46
  Q 407.98 17.61 394.03 17.65"
/>
<path stroke="#31312f" vector-effect="non-scaling-stroke" d="
  M 394.03 17.65
  L 393.66 17.28"
/>
<path stroke="#4b4b48" vector-effect="non-scaling-stroke" d="
  M 407.78 48.31
  L 376.04 16.68"
/>
<path stroke="#b0b0ae" vector-effect="non-scaling-stroke" d="
  M 394.03 17.65
  L 392.44 18.25"
/>
<path stroke="#7c7b77" vector-effect="non-scaling-stroke" d="
  M 35.58 54.47
  Q 39.53 56.62 43.63 54.41
  C 50.08 50.92 51.58 42.68 45.92 37.47"
/>
<path stroke="#a8a8a3" vector-effect="non-scaling-stroke" d="
  M 45.92 37.47
  C 39.08 30.24 26.46 33.37 26.82 43.93
  Q 27.08 51.57 35.58 54.47"
/>
<path stroke="#8d8e89" vector-effect="non-scaling-stroke" d="
  M 45.92 37.47
  C 50.95 45.90 45.23 54.68 35.58 54.47"
/>
<path stroke="#7c7b77" vector-effect="non-scaling-stroke" d="
  M 378.33 54.17
  Q 377.86 54.42 377.69 54.71
  Q 377.40 55.18 377.93 55.32
  C 382.22 56.43 385.95 55.38 388.91 51.97
  Q 395.32 44.60 388.24 37.47"
/>
<path stroke="#a8a8a3" vector-effect="non-scaling-stroke" d="
  M 388.24 37.47
  C 373.31 22.66 359.48 50.70 378.33 54.17"
/>
<path stroke="#8d8e89" vector-effect="non-scaling-stroke" d="
  M 388.24 37.47
  C 392.66 45.58 387.87 55.08 378.33 54.17"
/>
<path stroke="#7c7b77" vector-effect="non-scaling-stroke" d="
  M 87.50 567.71
  Q 87.26 567.62 87.03 567.74
  Q 86.57 567.97 86.89 568.38
  C 88.26 570.10 92.80 570.44 94.88 570.44
  Q 200.74 570.45 306.65 570.16
  Q 307.20 570.16 307.52 569.72
  L 329.61 540.24
  Q 329.94 539.80 330.49 539.80
  L 396.07 539.75
  Q 396.49 539.75 396.52 539.33
  C 396.89 535.15 396.49 529.72 396.49 526.87
  Q 396.51 454.67 396.49 382.47
  C 396.49 380.50 395.99 378.71 395.20 377.02
  Q 382.35 349.27 369.23 322.33
  A 2.82 2.81 -46.5 0 1 369.17 319.98
  Q 382.39 289.15 395.53 257.88
  Q 396.62 255.27 396.68 252.49
  C 396.94 239.57 396.52 223.36 396.52 213.74
  Q 396.48 159.98 396.50 106.21
  C 396.50 104.92 396.02 103.35 394.51 103.49"
/>
<path stroke="#b0b0ac" vector-effect="non-scaling-stroke" d="
  M 394.51 103.49
  C 394.57 101.29 334.64 44.90 328.30 38.80
  A 3.72 3.71 -22.8 0 0 325.71 37.75
  L 80.24 37.75
  Q 79.73 37.75 79.48 38.19
  Q 52.32 85.64 25.31 133.23
  Q 24.27 135.06 24.27 137.17
  Q 24.23 196.68 24.25 256.23
  Q 24.25 258.45 25.24 260.43
  Q 40.86 291.57 56.34 322.38
  A 2.33 2.32 48.4 0 1 56.21 324.68
  L 24.59 373.42
  A 2.13 2.07 62.2 0 0 24.25 374.57
  L 24.25 509.98
  Q 24.25 510.44 24.61 510.72
  Q 27.39 512.90 30.03 515.24
  Q 58.43 540.40 85.73 566.77
  Q 86.09 567.11 87.50 567.71"
/>
<path stroke="#969693" vector-effect="non-scaling-stroke" d="
  M 394.51 103.49
  L 394.51 251.26
  A 6.42 6.37 -33.7 0 1 394.00 253.76
  L 366.63 318.25
  Q 366.39 318.80 366.65 319.35
  L 394.25 377.77
  A 2.63 2.57 33.0 0 1 394.50 378.88
  L 394.50 536.91
  Q 394.50 537.50 393.91 537.50
  L 328.39 537.50
  A 1.67 1.67 0.0 0 0 327.06 538.16
  L 305.35 566.91
  Q 305.07 567.29 304.60 567.40
  Q 303.32 567.71 302.00 567.72
  Q 200.38 568.68 98.75 568.17
  Q 94.66 568.15 87.50 567.71"
/>
<path stroke="#7c7b77" vector-effect="non-scaling-stroke" d="
  M 25.93 336.82
  Q 34.46 340.79 39.31 334.02
  C 42.53 329.53 42.75 323.96 38.25 320.29"
/>
<path stroke="#a8a8a3" vector-effect="non-scaling-stroke" d="
  M 38.25 320.29
  C 28.51 310.02 13.37 321.47 21.07 332.33
  Q 22.90 334.91 25.93 336.82"
/>
<path stroke="#8d8e89" vector-effect="non-scaling-stroke" d="
  M 38.25 320.29
  Q 42.95 329.15 35.94 334.94
  Q 32.54 337.74 25.93 336.82"
/>
<path stroke="#7c7b77" vector-effect="non-scaling-stroke" d="
  M 386.77 336.55
  C 391.92 340.17 397.79 337.83 400.91 332.90
  Q 404.74 326.85 399.32 320.69"
/>
<path stroke="#a8a8a3" vector-effect="non-scaling-stroke" d="
  M 399.32 320.69
  C 386.57 306.59 370.52 328.31 386.77 336.55"
/>
<path stroke="#8d8e89" vector-effect="non-scaling-stroke" d="
  M 399.32 320.69
  C 403.68 330.22 397.00 339.27 386.77 336.55"
/>
<path stroke="#7c7b77" vector-effect="non-scaling-stroke" d="
  M 34.91 580.64
  Q 40.06 583.10 44.31 580.36
  C 49.89 576.75 51.41 568.84 46.12 564.02"
/>
<path stroke="#a8a8a3" vector-effect="non-scaling-stroke" d="
  M 46.12 564.02
  C 31.56 549.80 17.64 574.04 34.91 580.64"
/>
<path stroke="#8d8e89" vector-effect="non-scaling-stroke" d="
  M 46.12 564.02
  C 50.89 572.79 44.81 581.44 34.91 580.64"
/>
<path stroke="#7c7b77" vector-effect="non-scaling-stroke" d="
  M 377.30 580.68
  Q 382.49 583.11 386.73 580.32
  C 392.37 576.59 393.80 568.88 388.34 564.01"
/>
<path stroke="#a8a8a3" vector-effect="non-scaling-stroke" d="
  M 388.34 564.01
  C 374.69 550.38 359.42 572.74 377.30 580.68"
/>
<path stroke="#8d8e89" vector-effect="non-scaling-stroke" d="
  M 388.34 564.01
  C 393.09 573.08 387.18 581.13 377.30 580.68"
/>
<path stroke="#7d7e7c" vector-effect="non-scaling-stroke" d="
  M 42.30 43.75
  A 5.11 5.11 0.0 0 0 37.19 38.64
  A 5.11 5.11 0.0 0 0 32.08 43.75
  A 5.11 5.11 0.0 0 0 37.19 48.86
  A 5.11 5.11 0.0 0 0 42.30 43.75"
/>
<path stroke="#7d7e7c" vector-effect="non-scaling-stroke" d="
  M 384.62 43.74
  A 5.10 5.10 0.0 0 0 379.52 38.64
  A 5.10 5.10 0.0 0 0 374.42 43.74
  A 5.10 5.10 0.0 0 0 379.52 48.84
  A 5.10 5.10 0.0 0 0 384.62 43.74"
/>
<path stroke="#b7b7b6" vector-effect="non-scaling-stroke" d="
  M 386.97 104.03
  C 368.81 86.32 347.23 65.45 325.60 44.85
  Q 324.71 44.00 323.49 44.00
  L 84.25 44.00
  A 1.67 1.67 0.0 0 0 82.80 44.84
  Q 56.97 90.15 31.02 135.64
  C 30.45 136.64 30.12 138.86 30.17 139.96
  Q 30.47 147.26 30.31 161.50
  C 30.09 180.33 30.08 208.21 30.54 236.41
  Q 30.68 244.83 30.39 253.26
  C 30.33 255.07 30.23 256.70 31.10 258.41
  Q 47.51 290.66 63.58 322.77
  A 2.17 2.17 0.0 0 1 63.45 324.92
  L 30.56 375.63
  A 2.03 2.01 -29.0 0 0 30.24 376.72
  L 30.41 506.95
  A 0.88 0.87 -70.3 0 0 30.72 507.62
  Q 60.00 533.68 88.27 560.82
  Q 88.66 561.19 89.19 561.27
  Q 92.54 561.77 97.01 561.77
  Q 199.07 561.77 301.17 561.42
  Q 301.71 561.42 302.03 560.99
  L 323.91 531.73
  Q 324.28 531.24 324.90 531.24
  L 387.48 531.26
  Q 388.08 531.26 388.08 530.65
  Q 387.93 458.16 388.02 385.66
  C 388.02 384.12 388.68 380.44 388.01 379.03
  Q 374.06 349.49 359.98 319.79
  A 2.13 2.12 44.1 0 1 359.95 318.06
  Q 373.54 285.86 387.30 253.16
  Q 388.28 250.85 388.27 250.00
  Q 387.65 178.50 388.11 107.00
  Q 388.12 105.16 386.97 104.03"
/>
<path stroke="#828280" vector-effect="non-scaling-stroke" d="
  M 91.62 539.05
  Q 93.29 540.04 97.01 540.13
  Q 110.69 540.45 132.31 540.34
  Q 190.19 540.04 268.94 540.37
  C 281.34 540.42 296.72 540.02 309.50 540.28
  C 311.85 540.33 313.27 540.43 315.10 538.73
  Q 331.94 523.08 348.31 506.93
  Q 348.65 506.59 348.71 506.11
  C 348.84 504.94 349.14 503.59 349.13 502.50
  Q 348.84 475.80 348.93 415.44
  Q 349.15 258.75 348.65 101.97
  A 2.90 2.90 0.0 0 0 347.96 100.12
  Q 335.37 85.53 321.83 70.68
  Q 319.98 68.66 318.58 68.61"
/>
<path stroke="#bbbcb9" vector-effect="non-scaling-stroke" d="
  M 318.58 68.61
  C 318.09 67.52 317.52 67.00 316.24 67.00
  Q 201.52 67.00 87.01 67.00
  A 1.07 1.06 14.0 0 0 86.07 67.56
  L 56.85 122.40
  A 7.28 7.26 -31.1 0 0 56.00 125.81
  L 56.00 288.08
  A 12.50 12.39 -54.8 0 0 56.68 292.14
  L 69.42 329.06
  Q 69.56 329.47 69.40 329.87
  Q 63.12 346.05 57.01 362.34
  Q 55.99 365.05 55.99 367.96
  Q 56.01 435.73 56.00 503.15
  A 3.02 2.99 -67.9 0 0 56.89 505.29
  Q 72.87 521.11 89.00 537.68
  C 89.75 538.45 90.67 538.76 91.62 539.05"
/>
<path stroke="#9a9b96" vector-effect="non-scaling-stroke" d="
  M 318.58 68.61
  L 346.43 99.68
  A 1.27 1.23 25.0 0 1 346.75 100.51
  L 346.75 503.36
  A 3.70 3.67 -22.2 0 1 345.62 506.01
  L 312.11 538.40
  Q 311.80 538.70 311.36 538.70
  L 91.62 539.05"
/>
<path stroke="#c6c7c2" vector-effect="non-scaling-stroke" d="
  M 64.24 503.94
  C 68.10 507.53 91.83 532.61 93.75 532.60
  C 164.92 532.21 236.08 532.83 307.25 532.43
  C 309.81 532.41 309.82 531.66 311.37 530.20
  Q 325.86 516.52 340.08 502.47
  Q 340.47 502.09 340.47 501.54
  L 340.44 103.59
  A 3.06 3.03 24.3 0 0 339.66 101.56
  L 315.47 74.48
  Q 314.37 73.25 312.71 73.25
  L 91.38 73.25
  A 2.13 2.13 0.0 0 0 89.50 74.38
  L 63.15 123.68
  A 7.60 7.49 59.5 0 0 62.25 127.26
  Q 62.25 205.87 62.25 285.45
  C 62.25 287.53 62.54 289.85 63.14 291.58
  Q 69.53 310.17 75.69 327.90
  A 4.46 4.43 -44.3 0 1 75.64 330.97
  Q 69.22 347.56 63.05 363.74
  C 62.35 365.58 62.20 367.37 62.21 369.25
  Q 62.27 434.53 62.24 499.81
  C 62.24 501.78 62.91 502.70 64.24 503.94"
/>
<path stroke="#dcddda" vector-effect="non-scaling-stroke" d="
  M 86.98 148.46
  Q 87.49 148.29 86.96 148.60
  A 0.97 0.94 83.0 0 0 86.50 149.21
  Q 83.51 161.40 83.51 171.25
  Q 83.48 240.47 83.52 309.67
  C 83.53 320.15 86.11 328.70 98.27 328.94
  C 104.25 329.06 110.92 328.62 116.02 329.97
  C 141.99 336.84 143.91 373.48 118.42 382.44
  C 112.23 384.61 104.19 384.41 97.26 384.13
  C 88.80 383.79 83.63 391.44 83.61 399.25
  Q 83.50 433.49 83.49 467.72
  C 83.49 468.81 82.46 471.17 83.86 471.57"
/>
<path stroke="#70739e" vector-effect="non-scaling-stroke" d="
  M 83.86 471.57
  C 82.10 482.46 85.96 486.50 96.63 486.50
  Q 199.16 486.50 301.69 486.50
  C 311.85 486.49 313.87 481.62 313.52 472.36"
/>
<path stroke="#dcddda" vector-effect="non-scaling-stroke" d="
  M 313.52 472.36
  L 313.49 148.89
  A 0.42 0.41 12.0 0 0 313.24 148.51
  Q 312.96 148.39 313.00 148.13"
/>
<path stroke="#70739e" vector-effect="non-scaling-stroke" d="
  M 313.00 148.13
  Q 312.88 148.36 313.25 148.27
  A 0.34 0.33 83.6 0 0 313.50 147.94
  Q 313.50 130.77 313.50 113.62
  C 313.51 101.52 308.76 91.50 296.71 87.63
  Q 292.25 86.20 282.66 86.22
  Q 229.33 86.30 175.99 86.23
  Q 163.08 86.21 156.07 87.35
  Q 119.26 93.37 97.75 124.77
  Q 90.71 135.04 86.98 148.46"
/>
<path stroke="#9395c3" vector-effect="non-scaling-stroke" d="
  M 313.00 148.13
  L 86.98 148.46"
/>
<path stroke="#9395c3" vector-effect="non-scaling-stroke" d="
  M 313.52 472.36
  Q 310.73 465.25 304.75 465.25
  Q 199.66 465.24 94.57 465.26
  C 89.20 465.26 85.79 466.62 83.86 471.57"
/>
<path stroke="#8d8e89" vector-effect="non-scaling-stroke" d="
  M 131.79 356.54
  A 22.92 22.92 0.0 0 0 108.87 333.62
  A 22.92 22.92 0.0 0 0 85.95 356.54
  A 22.92 22.92 0.0 0 0 108.87 379.46
  A 22.92 22.92 0.0 0 0 131.79 356.54"
/>
<path stroke="#9395c3" vector-effect="non-scaling-stroke" d="
  M 234.50 101.88
  A 0.38 0.38 0.0 0 0 234.12 101.50
  L 173.88 101.50
  A 0.38 0.38 0.0 0 0 173.50 101.88
  L 173.50 139.82
  A 0.38 0.38 0.0 0 0 173.88 140.20
  L 234.12 140.20
  A 0.38 0.38 0.0 0 0 234.50 139.82
  L 234.50 101.88"
/>
<path stroke="#9395c3" vector-effect="non-scaling-stroke" d="
  M 184.89 114.04
  A 0.53 0.53 0.0 0 1 185.42 113.50
  L 188.71 113.50
  A 0.53 0.53 0.0 0 1 189.24 114.03
  L 189.27 117.95
  A 0.53 0.53 0.0 0 0 189.92 118.46
  L 191.35 118.11
  A 0.53 0.53 0.0 0 0 191.75 117.59
  L 191.75 107.11
  A 0.53 0.53 0.0 0 0 191.19 106.58
  L 189.75 106.67
  A 0.53 0.53 0.0 0 0 189.25 107.20
  L 189.25 110.44
  A 0.53 0.53 0.0 0 1 188.73 110.97
  L 185.29 111.06
  A 0.53 0.53 0.0 0 1 184.75 110.53
  L 184.75 107.25
  A 0.53 0.53 0.0 0 0 184.29 106.72
  L 183.04 106.56
  A 0.53 0.53 0.0 0 0 182.44 107.09
  L 182.48 117.72
  A 0.53 0.53 0.0 0 0 183.01 118.25
  L 184.42 118.25
  A 0.53 0.53 0.0 0 0 184.95 117.71
  L 184.89 114.04"
/>
<path stroke="#9395c3" vector-effect="non-scaling-stroke" d="
  M 199.91 106.75
  C 197.75 105.99 196.82 106.39 196.19 108.60
  Q 194.91 113.04 193.41 117.39
  A 0.56 0.56 0.0 0 0 193.89 118.13
  L 195.68 118.28
  A 1.19 0.31 -76.3 0 0 196.24 117.25
  Q 196.33 116.89 196.19 116.29
  A 2.38 1.84 37.4 0 1 200.44 116.27
  L 200.84 117.65
  Q 201.03 118.31 201.72 118.27
  L 203.19 118.18
  A 0.45 0.44 -10.4 0 0 203.59 117.61
  L 200.42 107.29
  A 0.83 0.82 -88.6 0 0 199.91 106.75"
/>
<path stroke="#9395c3" vector-effect="non-scaling-stroke" d="
  M 212.17 112.41
  C 217.56 107.35 208.70 106.01 205.72 106.72
  A 0.68 0.67 81.2 0 0 205.20 107.44
  C 205.43 110.04 204.69 115.75 205.56 117.74
  A 1.14 1.14 0.0 0 0 207.75 117.28
  L 207.75 114.91
  A 1.23 1.22 34.7 0 1 210.12 114.48
  L 211.47 118.01
  A 1.08 1.08 0.0 0 0 213.56 117.60
  Q 213.49 115.09 212.10 113.18
  Q 211.79 112.76 212.17 112.41"
/>
<path stroke="#9395c3" vector-effect="non-scaling-stroke" d="
  M 215.47 107.42
  L 215.51 117.32
  A 0.89 0.89 0.0 0 0 216.40 118.20
  L 219.91 118.19
  A 5.62 5.05 -0.2 0 0 225.51 113.12
  L 225.51 111.54
  A 5.62 5.05 -0.2 0 0 219.87 106.51
  L 216.36 106.52
  A 0.89 0.89 0.0 0 0 215.47 107.42"
/>
<path stroke="#9395c3" vector-effect="non-scaling-stroke" d="
  M 206.06 124.32
  A 0.99 0.99 0.0 0 0 205.07 123.33
  L 204.49 123.33
  A 0.99 0.99 0.0 0 0 203.50 124.32
  L 203.50 134.00
  A 0.99 0.99 0.0 0 0 204.49 134.99
  L 205.07 134.99
  A 0.99 0.99 0.0 0 0 206.06 134.00
  L 206.06 124.32"
/>
<path stroke="#9395c3" vector-effect="non-scaling-stroke" d="
  M 181.29 124.53
  L 181.33 133.97
  A 1.10 1.10 0.0 0 0 182.43 135.06
  L 185.78 135.05
  A 5.75 5.22 -0.2 0 0 191.51 129.81
  L 191.51 128.61
  A 5.75 5.22 -0.2 0 0 185.74 123.41
  L 182.39 123.42
  A 1.10 1.10 0.0 0 0 181.29 124.53"
/>
<path stroke="#9395c3" vector-effect="non-scaling-stroke" d="
  M 200.13 129.26
  C 205.22 124.30 197.49 123.03 193.72 123.71
  Q 193.25 123.80 193.25 124.28
  L 193.25 133.71
  A 1.39 1.39 0.0 0 0 196.03 133.77
  Q 196.08 132.66 195.77 131.59
  A 0.80 0.78 -26.0 0 1 196.08 130.72
  C 198.09 129.31 198.90 133.32 199.17 134.38
  A 1.21 1.21 0.0 0 0 201.54 133.96
  Q 201.31 131.69 200.07 130.11
  A 0.64 0.64 0.0 0 1 200.13 129.26"
/>
<path stroke="#9395c3" vector-effect="non-scaling-stroke" d="
  M 212.30 131.15
  Q 211.51 127.56 210.37 124.04
  Q 210.19 123.48 209.61 123.49
  L 208.05 123.52
  Q 207.31 123.53 207.54 124.23
  L 210.64 133.77
  A 2.02 2.02 0.0 0 0 214.47 133.79
  L 217.72 124.22
  Q 217.95 123.53 217.22 123.52
  L 215.53 123.49
  Q 215.13 123.49 215.03 123.87
  L 213.00 131.17
  A 0.36 0.36 0.0 0 1 212.30 131.15"
/>
<path stroke="#9395c3" vector-effect="non-scaling-stroke" d="
  M 222.60 132.71
  A 1.25 1.25 0.0 0 1 222.93 130.26
  L 225.40 130.23
  A 1.05 1.05 0.0 0 0 225.63 128.16
  Q 224.18 127.82 222.75 128.09
  A 0.72 0.72 0.0 0 1 221.90 127.50
  L 221.68 126.24
  A 0.66 0.66 0.0 0 1 222.35 125.47
  L 225.60 125.62
  Q 226.11 125.64 226.38 125.21
  Q 226.77 124.58 226.14 123.88
  Q 225.79 123.50 225.28 123.50
  L 219.87 123.50
  Q 219.25 123.50 219.25 124.12
  L 219.25 134.38
  Q 219.25 135.00 219.87 135.00
  L 225.95 135.00
  A 0.71 0.71 0.0 0 0 226.66 134.23
  C 226.48 131.89 223.82 133.06 222.60 132.71"
/>
<path stroke="#9395c3" vector-effect="non-scaling-stroke" d="
  M 197.61 113.47
  L 199.21 113.49
  A 0.20 0.20 0.0 0 0 199.41 113.29
  L 199.41 113.12
  A 3.57 0.93 -89.4 0 0 198.52 109.54
  L 198.38 109.54
  A 3.57 0.93 -89.4 0 0 197.41 113.10
  L 197.41 113.27
  A 0.20 0.20 0.0 0 0 197.61 113.47"
/>
<path stroke="#9395c3" vector-effect="non-scaling-stroke" d="
  M 207.71 109.25
  L 207.80 111.11
  A 0.69 0.69 0.0 0 0 208.52 111.76
  L 209.15 111.73
  A 1.92 1.44 -2.8 0 0 211.00 110.20
  L 210.98 109.84
  A 1.92 1.44 -2.8 0 0 208.99 108.50
  L 208.36 108.53
  A 0.69 0.69 0.0 0 0 207.71 109.25"
/>
<path stroke="#9395c3" vector-effect="non-scaling-stroke" d="
  M 218.01 109.20
  L 217.99 115.56
  A 0.78 0.78 0.0 0 0 218.77 116.34
  L 219.09 116.35
  A 3.68 3.58 0.2 0 0 222.78 112.78
  L 222.78 112.02
  A 3.68 3.58 0.2 0 0 219.11 108.43
  L 218.79 108.42
  A 0.78 0.78 0.0 0 0 218.01 109.20"
/>
<path stroke="#9395c3" vector-effect="non-scaling-stroke" d="
  M 183.98 126.24
  L 184.02 132.24
  A 0.76 0.76 0.0 0 0 184.79 132.99
  L 185.49 132.99
  A 3.30 3.26 -0.4 0 0 188.76 129.70
  L 188.76 128.70
  A 3.30 3.26 -0.4 0 0 185.43 125.47
  L 184.73 125.47
  A 0.76 0.76 0.0 0 0 183.98 126.24"
/>
<path stroke="#9395c3" vector-effect="non-scaling-stroke" d="
  M 198.7709 125.9547
  A 1.76 1.61 -32.1 0 0 196.4244 125.5261
  A 1.76 1.61 -32.1 0 0 195.7891 127.8253
  A 1.76 1.61 -32.1 0 0 198.1356 128.2539
  A 1.76 1.61 -32.1 0 0 198.7709 125.9547"
/>
<path stroke="#a0a0a1" vector-effect="non-scaling-stroke" d="
  M 185.25 152.86
  A 0.60 0.60 0.0 0 0 184.65 152.26
  L 102.85 152.26
  A 0.60 0.60 0.0 0 0 102.25 152.86
  L 102.25 178.40
  A 0.60 0.60 0.0 0 0 102.85 179.00
  L 184.65 179.00
  A 0.60 0.60 0.0 0 0 185.25 178.40
  L 185.25 152.86"
/>
<path stroke="#a0a0a1" vector-effect="non-scaling-stroke" d="
  M 292.96 152.82
  A 0.56 0.56 0.0 0 0 292.40 152.26
  L 210.30 152.26
  A 0.56 0.56 0.0 0 0 209.74 152.82
  L 209.74 163.94
  A 0.56 0.56 0.0 0 0 210.30 164.50
  L 292.40 164.50
  A 0.56 0.56 0.0 0 0 292.96 163.94
  L 292.96 152.82"
/>
<path stroke="#a0a0a1" vector-effect="non-scaling-stroke" d="
  M 292.67 179.00
  A 0.54 0.54 0.0 0 0 293.21 178.46
  L 293.27 167.27
  A 0.54 0.54 0.0 0 0 292.73 166.73
  L 250.48 166.76
  A 0.54 0.54 0.0 0 0 249.94 167.30
  L 250.03 178.46
  A 0.54 0.54 0.0 0 0 250.57 179.00
  L 292.67 179.00"
/>
<path stroke="#a0a0a1" vector-effect="non-scaling-stroke" d="
  M 246.53 167.02
  A 0.27 0.27 0.0 0 0 246.26 166.75
  L 210.02 166.75
  A 0.27 0.27 0.0 0 0 209.75 167.02
  L 209.75 178.72
  A 0.27 0.27 0.0 0 0 210.02 178.99
  L 246.26 178.99
  A 0.27 0.27 0.0 0 0 246.53 178.72
  L 246.53 167.02"
/>
<path stroke="#a0a0a1" vector-effect="non-scaling-stroke" d="
  M 183.24 213.02
  A 0.26 0.26 0.0 0 0 182.98 212.76
  L 108.26 212.76
  A 0.26 0.26 0.0 0 0 108.00 213.02
  L 108.00 224.74
  A 0.26 0.26 0.0 0 0 108.26 225.00
  L 182.98 225.00
  A 0.26 0.26 0.0 0 0 183.24 224.74
  L 183.24 213.02"
/>
<path stroke="#a0a0a1" vector-effect="non-scaling-stroke" d="
  M 273.2551 221.4868
  A 0.45 0.45 0.0 0 0 272.8059 221.0360
  L 231.5460 220.9640
  A 0.45 0.45 0.0 0 0 231.0952 221.4132
  L 231.0849 227.3332
  A 0.45 0.45 0.0 0 0 231.5341 227.7840
  L 272.7940 227.8560
  A 0.45 0.45 0.0 0 0 273.2448 227.4068
  L 273.2551 221.4868"
/>
<path stroke="#a0a0a1" vector-effect="non-scaling-stroke" d="
  M 293.9945 232.1650
  A 0.27 0.27 0.0 0 0 293.7240 231.8955
  L 231.2841 232.0045
  A 0.27 0.27 0.0 0 0 231.0146 232.2750
  L 231.0255 238.5350
  A 0.27 0.27 0.0 0 0 231.2960 238.8045
  L 293.7359 238.6955
  A 0.27 0.27 0.0 0 0 294.0054 238.4250
  L 293.9945 232.1650"
/>
<path stroke="#a0a0a1" vector-effect="non-scaling-stroke" d="
  M 194.00 259.72
  A 0.33 0.33 0.0 0 0 193.67 259.39
  L 99.83 259.39
  A 0.33 0.33 0.0 0 0 99.50 259.72
  L 99.50 265.92
  A 0.33 0.33 0.0 0 0 99.83 266.25
  L 193.67 266.25
  A 0.33 0.33 0.0 0 0 194.00 265.92
  L 194.00 259.72"
/>
<path stroke="#a0a0a1" vector-effect="non-scaling-stroke" d="
  M 281.50 265.55
  A 0.56 0.56 0.0 0 0 280.94 264.99
  L 220.82 264.99
  A 0.56 0.56 0.0 0 0 220.26 265.55
  L 220.26 271.19
  A 0.56 0.56 0.0 0 0 220.82 271.75
  L 280.94 271.75
  A 0.56 0.56 0.0 0 0 281.50 271.19
  L 281.50 265.55"
/>
<path stroke="#a0a0a1" vector-effect="non-scaling-stroke" d="
  M 176.28 273.02
  A 0.27 0.27 0.0 0 0 176.01 272.75
  L 99.77 272.75
  A 0.27 0.27 0.0 0 0 99.50 273.02
  L 99.50 279.22
  A 0.27 0.27 0.0 0 0 99.77 279.49
  L 176.01 279.49
  A 0.27 0.27 0.0 0 0 176.28 279.22
  L 176.28 273.02"
/>
<path stroke="#a0a0a1" vector-effect="non-scaling-stroke" d="
  M 273.75 275.09
  A 0.53 0.53 0.0 0 0 273.22 274.56
  L 220.78 274.56
  A 0.53 0.53 0.0 0 0 220.25 275.09
  L 220.25 280.97
  A 0.53 0.53 0.0 0 0 220.78 281.50
  L 273.22 281.50
  A 0.53 0.53 0.0 0 0 273.75 280.97
  L 273.75 275.09"
/>
<path stroke="#a0a0a1" vector-effect="non-scaling-stroke" d="
  M 276.26 284.87
  A 0.62 0.62 0.0 0 0 275.64 284.25
  L 220.88 284.25
  A 0.62 0.62 0.0 0 0 220.26 284.87
  L 220.26 290.37
  A 0.62 0.62 0.0 0 0 220.88 290.99
  L 275.64 290.99
  A 0.62 0.62 0.0 0 0 276.26 290.37
  L 276.26 284.87"
/>
<path stroke="#a0a0a1" vector-effect="non-scaling-stroke" d="
  M 148.73 286.61
  A 0.62 0.62 0.0 0 0 148.11 285.99
  L 100.11 285.99
  A 0.62 0.62 0.0 0 0 99.49 286.61
  L 99.49 292.13
  A 0.62 0.62 0.0 0 0 100.11 292.75
  L 148.11 292.75
  A 0.62 0.62 0.0 0 0 148.73 292.13
  L 148.73 286.61"
/>
<path stroke="#a0a0a1" vector-effect="non-scaling-stroke" d="
  M 261.70 294.12
  A 0.36 0.36 0.0 0 0 261.34 293.76
  L 220.62 293.76
  A 0.36 0.36 0.0 0 0 220.26 294.12
  L 220.26 300.14
  A 0.36 0.36 0.0 0 0 220.62 300.50
  L 261.34 300.50
  A 0.36 0.36 0.0 0 0 261.70 300.14
  L 261.70 294.12"
/>
<path stroke="#a0a0a1" vector-effect="non-scaling-stroke" d="
  M 182.74 299.52
  A 0.27 0.27 0.0 0 0 182.47 299.25
  L 99.79 299.25
  A 0.27 0.27 0.0 0 0 99.52 299.52
  L 99.52 305.74
  A 0.27 0.27 0.0 0 0 99.79 306.01
  L 182.47 306.01
  A 0.27 0.27 0.0 0 0 182.74 305.74
  L 182.74 299.52"
/>
<path stroke="#a0a0a1" vector-effect="non-scaling-stroke" d="
  M 239.76 325.19
  A 0.44 0.44 0.0 0 0 239.32 324.75
  L 126.44 324.75
  A 0.44 0.44 0.0 0 0 126.00 325.19
  L 126.00 331.31
  A 0.44 0.44 0.0 0 0 126.44 331.75
  L 239.32 331.75
  A 0.44 0.44 0.0 0 0 239.76 331.31
  L 239.76 325.19"
/>
<path stroke="#e5e5e4" vector-effect="non-scaling-stroke" d="
  M 144.74 354.11
  C 145.43 355.08 146.28 353.98 145.74 355.94"
/>
<path stroke="#a0a0a1" vector-effect="non-scaling-stroke" d="
  M 145.74 355.94
  Q 144.46 355.56 143.08 355.82
  A 0.71 0.71 0.0 0 0 142.50 356.52
  L 142.50 361.88
  Q 142.50 362.50 143.13 362.50
  L 230.89 362.50
  Q 231.52 362.50 231.51 361.87
  L 231.47 356.28
  Q 231.46 355.76 230.94 355.76
  L 221.53 355.75"
/>
<path stroke="#e5e5e4" vector-effect="non-scaling-stroke" d="
  M 221.53 355.75
  Q 221.26 354.65 222.00 354.28"
/>
<path stroke="#a0a0a1" vector-effect="non-scaling-stroke" d="
  M 222.00 354.28
  L 296.18 354.26
  Q 296.75 354.26 296.75 353.69
  L 296.75 347.83
  Q 296.75 347.30 296.21 347.31
  Q 278.04 347.66 248.43 347.32
  Q 220.04 346.98 143.05 347.49
  A 0.55 0.55 0.0 0 0 142.50 348.04
  L 142.50 353.44
  Q 142.50 353.98 143.01 354.15
  Q 143.91 354.44 144.74 354.11"
/>
<path stroke="#868686" vector-effect="non-scaling-stroke" d="
  M 222.00 354.28
  L 144.74 354.11"
/>
<path stroke="#868686" vector-effect="non-scaling-stroke" d="
  M 221.53 355.75
  Q 220.69 355.63 220.10 355.83
  Q 219.63 355.98 219.14 355.98
  L 145.74 355.94"
/>
<path stroke="#a0a0a1" vector-effect="non-scaling-stroke" d="
  M 231.45 364.90
  A 0.40 0.40 0.0 0 0 231.05 364.50
  L 142.91 364.50
  A 0.40 0.40 0.0 0 0 142.51 364.90
  L 142.51 370.72
  A 0.40 0.40 0.0 0 0 142.91 371.12
  L 231.05 371.12
  A 0.40 0.40 0.0 0 0 231.45 370.72
  L 231.45 364.90"
/>
<path stroke="#a0a0a1" vector-effect="non-scaling-stroke" d="
  M 231.48 373.59
  A 0.37 0.37 0.0 0 0 231.11 373.22
  L 142.89 373.22
  A 0.37 0.37 0.0 0 0 142.52 373.59
  L 142.52 379.39
  A 0.37 0.37 0.0 0 0 142.89 379.76
  L 231.11 379.76
  A 0.37 0.37 0.0 0 0 231.48 379.39
  L 231.48 373.59"
/>
<path stroke="#a0a0a1" vector-effect="non-scaling-stroke" d="
  M 231.51 382.19
  A 0.43 0.43 0.0 0 0 231.08 381.76
  L 142.94 381.76
  A 0.43 0.43 0.0 0 0 142.51 382.19
  L 142.51 388.07
  A 0.43 0.43 0.0 0 0 142.94 388.50
  L 231.08 388.50
  A 0.43 0.43 0.0 0 0 231.51 388.07
  L 231.51 382.19"
/>
<path stroke="#a0a0a1" vector-effect="non-scaling-stroke" d="
  M 122.4812 393.5630
  A 0.33 0.33 0.0 0 0 122.1507 393.2336
  L 103.2907 393.2665
  A 0.33 0.33 0.0 0 0 102.9613 393.5971
  L 102.9988 415.0770
  A 0.33 0.33 0.0 0 0 103.3293 415.4064
  L 122.1893 415.3735
  A 0.33 0.33 0.0 0 0 122.5187 415.0429
  L 122.4812 393.5630"
/>
<path stroke="#a0a0a1" vector-effect="non-scaling-stroke" d="
  M 147.0438 393.5888
  A 0.38 0.38 0.0 0 0 146.6619 393.2108
  L 127.8221 393.3095
  A 0.38 0.38 0.0 0 0 127.4441 393.6915
  L 127.5562 415.0912
  A 0.38 0.38 0.0 0 0 127.9381 415.4692
  L 146.7779 415.3705
  A 0.38 0.38 0.0 0 0 147.1559 414.9885
  L 147.0438 393.5888"
/>
<path stroke="#a0a0a1" vector-effect="non-scaling-stroke" d="
  M 171.7316 393.8030
  A 0.57 0.57 0.0 0 0 171.1606 393.2340
  L 152.8007 393.2660
  A 0.57 0.57 0.0 0 0 152.2317 393.8370
  L 152.2684 414.8770
  A 0.57 0.57 0.0 0 0 152.8394 415.4460
  L 171.1993 415.4140
  A 0.57 0.57 0.0 0 0 171.7683 414.8430
  L 171.7316 393.8030"
/>
<path stroke="#a0a0a1" vector-effect="non-scaling-stroke" d="
  M 196.4331 393.7659
  A 0.55 0.55 0.0 0 0 195.8812 393.2178
  L 177.3813 393.2824
  A 0.55 0.55 0.0 0 0 176.8332 393.8343
  L 176.9069 414.9541
  A 0.55 0.55 0.0 0 0 177.4588 415.5022
  L 195.9587 415.4376
  A 0.55 0.55 0.0 0 0 196.5068 414.8857
  L 196.4331 393.7659"
/>
<path stroke="#a0a0a1" vector-effect="non-scaling-stroke" d="
  M 221.0014 393.7030
  A 0.47 0.47 0.0 0 0 220.5306 393.2338
  L 201.9506 393.2662
  A 0.47 0.47 0.0 0 0 201.4814 393.7371
  L 201.5186 415.0170
  A 0.47 0.47 0.0 0 0 201.9894 415.4862
  L 220.5694 415.4538
  A 0.47 0.47 0.0 0 0 221.0386 414.9829
  L 221.0014 393.7030"
/>
<path stroke="#a0a0a1" vector-effect="non-scaling-stroke" d="
  M 245.7685 393.7770
  A 0.51 0.51 0.0 0 0 245.2594 393.2661
  L 226.7794 393.2339
  A 0.51 0.51 0.0 0 0 226.2685 393.7430
  L 226.2315 414.9630
  A 0.51 0.51 0.0 0 0 226.7406 415.4739
  L 245.2206 415.5061
  A 0.51 0.51 0.0 0 0 245.7315 414.9970
  L 245.7685 393.7770"
/>
<path stroke="#a0a0a1" vector-effect="non-scaling-stroke" d="
  M 270.25 393.56
  A 0.31 0.31 0.0 0 0 269.94 393.25
  L 251.06 393.25
  A 0.31 0.31 0.0 0 0 250.75 393.56
  L 250.75 415.04
  A 0.31 0.31 0.0 0 0 251.06 415.35
  L 269.94 415.35
  A 0.31 0.31 0.0 0 0 270.25 415.04
  L 270.25 393.56"
/>
<path stroke="#a0a0a1" vector-effect="non-scaling-stroke" d="
  M 294.9812 393.5030
  A 0.27 0.27 0.0 0 0 294.7107 393.2335
  L 275.7308 393.2666
  A 0.27 0.27 0.0 0 0 275.4612 393.5371
  L 275.4988 415.0570
  A 0.27 0.27 0.0 0 0 275.7693 415.3265
  L 294.7492 415.2934
  A 0.27 0.27 0.0 0 0 295.0188 415.0229
  L 294.9812 393.5030"
/>
<path stroke="#a0a0a1" vector-effect="non-scaling-stroke" d="
  M 297.30 424.24
  A 0.27 0.27 0.0 0 0 297.03 423.97
  L 101.29 423.97
  A 0.27 0.27 0.0 0 0 101.02 424.24
  L 101.02 430.48
  A 0.27 0.27 0.0 0 0 101.29 430.75
  L 297.03 430.75
  A 0.27 0.27 0.0 0 0 297.30 430.48
  L 297.30 424.24"
/>
<path stroke="#7d7e7c" vector-effect="non-scaling-stroke" d="
  M 34.57 326.51
  A 5.10 5.10 0.0 0 0 29.47 321.41
  A 5.10 5.10 0.0 0 0 24.37 326.51
  A 5.10 5.10 0.0 0 0 29.47 331.61
  A 5.10 5.10 0.0 0 0 34.57 326.51"
/>
<path stroke="#7d7e7c" vector-effect="non-scaling-stroke" d="
  M 395.42 326.50
  A 5.10 5.10 0.0 0 0 390.32 321.40
  A 5.10 5.10 0.0 0 0 385.22 326.50
  A 5.10 5.10 0.0 0 0 390.32 331.60
  A 5.10 5.10 0.0 0 0 395.42 326.50"
/>
<path stroke="#828280" vector-effect="non-scaling-stroke" d="
  M 129.57 356.45
  A 20.65 20.65 0.0 0 0 108.92 335.80
  A 20.65 20.65 0.0 0 0 88.27 356.45
  A 20.65 20.65 0.0 0 0 108.92 377.10
  A 20.65 20.65 0.0 0 0 129.57 356.45"
/>
<path stroke="#727273" vector-effect="non-scaling-stroke" d="
  M 127.17 356.54
  A 18.30 18.30 0.0 0 0 108.87 338.24
  A 18.30 18.30 0.0 0 0 90.57 356.54
  A 18.30 18.30 0.0 0 0 108.87 374.84
  A 18.30 18.30 0.0 0 0 127.17 356.54"
/>
<path stroke="#7d7e7c" vector-effect="non-scaling-stroke" d="
  M 125.44 356.47
  A 16.58 16.58 0.0 0 0 108.86 339.89
  A 16.58 16.58 0.0 0 0 92.28 356.47
  A 16.58 16.58 0.0 0 0 108.86 373.05
  A 16.58 16.58 0.0 0 0 125.44 356.47"
/>
<path stroke="#7d7e7c" vector-effect="non-scaling-stroke" d="
  M 112.70 356.50
  A 3.83 3.83 0.0 0 0 108.87 352.67
  A 3.83 3.83 0.0 0 0 105.04 356.50
  A 3.83 3.83 0.0 0 0 108.87 360.33
  A 3.83 3.83 0.0 0 0 112.70 356.50"
/>
<path stroke="#7d7e7c" vector-effect="non-scaling-stroke" d="
  M 42.34 570.10
  A 5.12 5.12 0.0 0 0 37.22 564.98
  A 5.12 5.12 0.0 0 0 32.10 570.10
  A 5.12 5.12 0.0 0 0 37.22 575.22
  A 5.12 5.12 0.0 0 0 42.34 570.10"
/>
<path stroke="#7d7e7c" vector-effect="non-scaling-stroke" d="
  M 384.63 570.09
  A 5.12 5.12 0.0 0 0 379.51 564.97
  A 5.12 5.12 0.0 0 0 374.39 570.09
  A 5.12 5.12 0.0 0 0 379.51 575.21
  A 5.12 5.12 0.0 0 0 384.63 570.09"
/>
</g>
<ellipse fill="#d3d4cf" cx="0.00" cy="0.00" transform="translate(10.53,15.52) rotate(3.3)" rx="1.04" ry="0.55"/>
<path fill="#61615d" d="
  M 26.49 16.75
  Q 28.01 28.22 18.78 31.43
  Q 26.31 27.25 25.71 18.63
  A 0.67 0.67 0.0 0 0 25.06 18.00
  Q 11.09 17.46 11.98 31.32
  A 0.67 0.66 89.0 0 0 12.62 31.95
  L 15.78 32.11
  L 11.14 32.76
  C 9.15 23.75 13.31 16.18 22.83 16.57
  Q 24.97 16.66 26.49 16.75
  Z"
/>
<path fill="#000000" d="
  M 392.26 17.03
  C 391.91 17.46 391.87 18.07 392.44 18.25
  Q 392.36 32.67 406.20 32.03
  Q 406.74 32.00 406.78 31.46
  Q 407.98 17.61 394.03 17.65
  L 393.66 17.28
  C 404.02 15.86 407.32 21.54 407.64 30.79
  Q 407.92 39.13 407.78 48.31
  L 376.04 16.68
  L 392.26 17.03
  Z"
/>
<path fill="#000000" d="
  M 26.49 16.75
  L 42.44 16.82
  L 10.79 48.28
  Q 10.25 39.80 11.14 32.76
  L 15.78 32.11
  Q 17.38 32.07 18.78 31.43
  Q 28.01 28.22 26.49 16.75
  Z"
/>
<path fill="#969590" d="
  M 376.04 16.68
  L 407.78 48.31
  Q 407.49 74.47 407.60 86.44
  C 408.05 134.29 407.71 182.21 407.66 230.07
  Q 407.48 404.86 407.49 579.66
  C 407.49 584.92 406.40 588.52 400.56 588.61
  Q 376.38 588.99 352.19 588.95
  Q 189.09 588.71 26.00 588.64
  Q 21.76 588.64 17.52 588.50
  C 8.24 588.21 10.96 576.64 10.97 570.82
  C 11.22 419.16 10.10 267.45 10.90 115.81
  Q 11.08 81.54 10.79 48.28
  L 42.44 16.82
  L 376.04 16.68
  Z
  M 35.58 54.47
  Q 39.53 56.62 43.63 54.41
  C 50.08 50.92 51.58 42.68 45.92 37.47
  C 39.08 30.24 26.46 33.37 26.82 43.93
  Q 27.08 51.57 35.58 54.47
  Z
  M 378.33 54.17
  Q 377.86 54.42 377.69 54.71
  Q 377.40 55.18 377.93 55.32
  C 382.22 56.43 385.95 55.38 388.91 51.97
  Q 395.32 44.60 388.24 37.47
  C 373.31 22.66 359.48 50.70 378.33 54.17
  Z
  M 87.50 567.71
  Q 87.26 567.62 87.03 567.74
  Q 86.57 567.97 86.89 568.38
  C 88.26 570.10 92.80 570.44 94.88 570.44
  Q 200.74 570.45 306.65 570.16
  Q 307.20 570.16 307.52 569.72
  L 329.61 540.24
  Q 329.94 539.80 330.49 539.80
  L 396.07 539.75
  Q 396.49 539.75 396.52 539.33
  C 396.89 535.15 396.49 529.72 396.49 526.87
  Q 396.51 454.67 396.49 382.47
  C 396.49 380.50 395.99 378.71 395.20 377.02
  Q 382.35 349.27 369.23 322.33
  A 2.82 2.81 -46.5 0 1 369.17 319.98
  Q 382.39 289.15 395.53 257.88
  Q 396.62 255.27 396.68 252.49
  C 396.94 239.57 396.52 223.36 396.52 213.74
  Q 396.48 159.98 396.50 106.21
  C 396.50 104.92 396.02 103.35 394.51 103.49
  C 394.57 101.29 334.64 44.90 328.30 38.80
  A 3.72 3.71 -22.8 0 0 325.71 37.75
  L 80.24 37.75
  Q 79.73 37.75 79.48 38.19
  Q 52.32 85.64 25.31 133.23
  Q 24.27 135.06 24.27 137.17
  Q 24.23 196.68 24.25 256.23
  Q 24.25 258.45 25.24 260.43
  Q 40.86 291.57 56.34 322.38
  A 2.33 2.32 48.4 0 1 56.21 324.68
  L 24.59 373.42
  A 2.13 2.07 62.2 0 0 24.25 374.57
  L 24.25 509.98
  Q 24.25 510.44 24.61 510.72
  Q 27.39 512.90 30.03 515.24
  Q 58.43 540.40 85.73 566.77
  Q 86.09 567.11 87.50 567.71
  Z
  M 25.93 336.82
  Q 34.46 340.79 39.31 334.02
  C 42.53 329.53 42.75 323.96 38.25 320.29
  C 28.51 310.02 13.37 321.47 21.07 332.33
  Q 22.90 334.91 25.93 336.82
  Z
  M 386.77 336.55
  C 391.92 340.17 397.79 337.83 400.91 332.90
  Q 404.74 326.85 399.32 320.69
  C 386.57 306.59 370.52 328.31 386.77 336.55
  Z
  M 34.91 580.64
  Q 40.06 583.10 44.31 580.36
  C 49.89 576.75 51.41 568.84 46.12 564.02
  C 31.56 549.80 17.64 574.04 34.91 580.64
  Z
  M 377.30 580.68
  Q 382.49 583.11 386.73 580.32
  C 392.37 576.59 393.80 568.88 388.34 564.01
  C 374.69 550.38 359.42 572.74 377.30 580.68
  Z"
/>
<path fill="#61615d" d="
  M 392.26 17.03
  Q 393.29 16.84 393.66 17.28
  L 394.03 17.65
  L 392.44 18.25
  C 391.87 18.07 391.91 17.46 392.26 17.03
  Z"
/>
<path fill="#ffffff" d="
  M 394.03 17.65
  Q 407.98 17.61 406.78 31.46
  Q 406.74 32.00 406.20 32.03
  Q 392.36 32.67 392.44 18.25
  L 394.03 17.65
  Z"
/>
<path fill="#ffffff" d="
  M 18.78 31.43
  Q 17.38 32.07 15.78 32.11
  L 12.62 31.95
  A 0.67 0.66 89.0 0 1 11.98 31.32
  Q 11.09 17.46 25.06 18.00
  A 0.67 0.67 0.0 0 1 25.71 18.63
  Q 26.31 27.25 18.78 31.43
  Z"
/>
<path fill="#b9bab5" d="
  M 45.92 37.47
  C 50.95 45.90 45.23 54.68 35.58 54.47
  Q 27.08 51.57 26.82 43.93
  C 26.46 33.37 39.08 30.24 45.92 37.47
  Z
  M 42.30 43.75
  A 5.11 5.11 0.0 0 0 37.19 38.64
  A 5.11 5.11 0.0 0 0 32.08 43.75
  A 5.11 5.11 0.0 0 0 37.19 48.86
  A 5.11 5.11 0.0 0 0 42.30 43.75
  Z"
/>
<path fill="#b9bab5" d="
  M 388.24 37.47
  C 392.66 45.58 387.87 55.08 378.33 54.17
  C 359.48 50.70 373.31 22.66 388.24 37.47
  Z
  M 384.62 43.74
  A 5.10 5.10 0.0 0 0 379.52 38.64
  A 5.10 5.10 0.0 0 0 374.42 43.74
  A 5.10 5.10 0.0 0 0 379.52 48.84
  A 5.10 5.10 0.0 0 0 384.62 43.74
  Z"
/>
<path fill="#61615d" d="
  M 45.92 37.47
  C 51.58 42.68 50.08 50.92 43.63 54.41
  Q 39.53 56.62 35.58 54.47
  C 45.23 54.68 50.95 45.90 45.92 37.47
  Z"
/>
<path fill="#61615d" d="
  M 388.24 37.47
  Q 395.32 44.60 388.91 51.97
  C 385.95 55.38 382.22 56.43 377.93 55.32
  Q 377.40 55.18 377.69 54.71
  Q 377.86 54.42 378.33 54.17
  C 387.87 55.08 392.66 45.58 388.24 37.47
  Z"
/>
<path fill="#cacac8" d="
  M 394.51 103.49
  L 394.51 251.26
  A 6.42 6.37 -33.7 0 1 394.00 253.76
  L 366.63 318.25
  Q 366.39 318.80 366.65 319.35
  L 394.25 377.77
  A 2.63 2.57 33.0 0 1 394.50 378.88
  L 394.50 536.91
  Q 394.50 537.50 393.91 537.50
  L 328.39 537.50
  A 1.67 1.67 0.0 0 0 327.06 538.16
  L 305.35 566.91
  Q 305.07 567.29 304.60 567.40
  Q 303.32 567.71 302.00 567.72
  Q 200.38 568.68 98.75 568.17
  Q 94.66 568.15 87.50 567.71
  Q 86.09 567.11 85.73 566.77
  Q 58.43 540.40 30.03 515.24
  Q 27.39 512.90 24.61 510.72
  Q 24.25 510.44 24.25 509.98
  L 24.25 374.57
  A 2.13 2.07 62.2 0 1 24.59 373.42
  L 56.21 324.68
  A 2.33 2.32 48.4 0 0 56.34 322.38
  Q 40.86 291.57 25.24 260.43
  Q 24.25 258.45 24.25 256.23
  Q 24.23 196.68 24.27 137.17
  Q 24.27 135.06 25.31 133.23
  Q 52.32 85.64 79.48 38.19
  Q 79.73 37.75 80.24 37.75
  L 325.71 37.75
  A 3.72 3.71 -22.8 0 1 328.30 38.80
  C 334.64 44.90 394.57 101.29 394.51 103.49
  Z
  M 386.97 104.03
  C 368.81 86.32 347.23 65.45 325.60 44.85
  Q 324.71 44.00 323.49 44.00
  L 84.25 44.00
  A 1.67 1.67 0.0 0 0 82.80 44.84
  Q 56.97 90.15 31.02 135.64
  C 30.45 136.64 30.12 138.86 30.17 139.96
  Q 30.47 147.26 30.31 161.50
  C 30.09 180.33 30.08 208.21 30.54 236.41
  Q 30.68 244.83 30.39 253.26
  C 30.33 255.07 30.23 256.70 31.10 258.41
  Q 47.51 290.66 63.58 322.77
  A 2.17 2.17 0.0 0 1 63.45 324.92
  L 30.56 375.63
  A 2.03 2.01 -29.0 0 0 30.24 376.72
  L 30.41 506.95
  A 0.88 0.87 -70.3 0 0 30.72 507.62
  Q 60.00 533.68 88.27 560.82
  Q 88.66 561.19 89.19 561.27
  Q 92.54 561.77 97.01 561.77
  Q 199.07 561.77 301.17 561.42
  Q 301.71 561.42 302.03 560.99
  L 323.91 531.73
  Q 324.28 531.24 324.90 531.24
  L 387.48 531.26
  Q 388.08 531.26 388.08 530.65
  Q 387.93 458.16 388.02 385.66
  C 388.02 384.12 388.68 380.44 388.01 379.03
  Q 374.06 349.49 359.98 319.79
  A 2.13 2.12 44.1 0 1 359.95 318.06
  Q 373.54 285.86 387.30 253.16
  Q 388.28 250.85 388.27 250.00
  Q 387.65 178.50 388.11 107.00
  Q 388.12 105.16 386.97 104.03
  Z"
/>
<circle fill="#414143" cx="379.52" cy="43.74" r="5.10"/>
<circle fill="#414143" cx="37.19" cy="43.75" r="5.11"/>
<path fill="#a3a3a3" d="
  M 325.60 44.85
  C 347.23 65.45 368.81 86.32 386.97 104.03
  Q 388.12 105.16 388.11 107.00
  Q 387.65 178.50 388.27 250.00
  Q 388.28 250.85 387.30 253.16
  Q 373.54 285.86 359.95 318.06
  A 2.13 2.12 44.1 0 0 359.98 319.79
  Q 374.06 349.49 388.01 379.03
  C 388.68 380.44 388.02 384.12 388.02 385.66
  Q 387.93 458.16 388.08 530.65
  Q 388.08 531.26 387.48 531.26
  L 324.90 531.24
  Q 324.28 531.24 323.91 531.73
  L 302.03 560.99
  Q 301.71 561.42 301.17 561.42
  Q 199.07 561.77 97.01 561.77
  Q 92.54 561.77 89.19 561.27
  Q 88.66 561.19 88.27 560.82
  Q 60.00 533.68 30.72 507.62
  A 0.88 0.87 -70.3 0 1 30.41 506.95
  L 30.24 376.72
  A 2.03 2.01 -29.0 0 1 30.56 375.63
  L 63.45 324.92
  A 2.17 2.17 0.0 0 0 63.58 322.77
  Q 47.51 290.66 31.10 258.41
  C 30.23 256.70 30.33 255.07 30.39 253.26
  Q 30.68 244.83 30.54 236.41
  C 30.08 208.21 30.09 180.33 30.31 161.50
  Q 30.47 147.26 30.17 139.96
  C 30.12 138.86 30.45 136.64 31.02 135.64
  Q 56.97 90.15 82.80 44.84
  A 1.67 1.67 0.0 0 1 84.25 44.00
  L 323.49 44.00
  Q 324.71 44.00 325.60 44.85
  Z
  M 91.62 539.05
  Q 93.29 540.04 97.01 540.13
  Q 110.69 540.45 132.31 540.34
  Q 190.19 540.04 268.94 540.37
  C 281.34 540.42 296.72 540.02 309.50 540.28
  C 311.85 540.33 313.27 540.43 315.10 538.73
  Q 331.94 523.08 348.31 506.93
  Q 348.65 506.59 348.71 506.11
  C 348.84 504.94 349.14 503.59 349.13 502.50
  Q 348.84 475.80 348.93 415.44
  Q 349.15 258.75 348.65 101.97
  A 2.90 2.90 0.0 0 0 347.96 100.12
  Q 335.37 85.53 321.83 70.68
  Q 319.98 68.66 318.58 68.61
  C 318.09 67.52 317.52 67.00 316.24 67.00
  Q 201.52 67.00 87.01 67.00
  A 1.07 1.06 14.0 0 0 86.07 67.56
  L 56.85 122.40
  A 7.28 7.26 -31.1 0 0 56.00 125.81
  L 56.00 288.08
  A 12.50 12.39 -54.8 0 0 56.68 292.14
  L 69.42 329.06
  Q 69.56 329.47 69.40 329.87
  Q 63.12 346.05 57.01 362.34
  Q 55.99 365.05 55.99 367.96
  Q 56.01 435.73 56.00 503.15
  A 3.02 2.99 -67.9 0 0 56.89 505.29
  Q 72.87 521.11 89.00 537.68
  C 89.75 538.45 90.67 538.76 91.62 539.05
  Z"
/>
<path fill="#d3d4cf" d="
  M 318.58 68.61
  L 346.43 99.68
  A 1.27 1.23 25.0 0 1 346.75 100.51
  L 346.75 503.36
  A 3.70 3.67 -22.2 0 1 345.62 506.01
  L 312.11 538.40
  Q 311.80 538.70 311.36 538.70
  L 91.62 539.05
  C 90.67 538.76 89.75 538.45 89.00 537.68
  Q 72.87 521.11 56.89 505.29
  A 3.02 2.99 -67.9 0 1 56.00 503.15
  Q 56.01 435.73 55.99 367.96
  Q 55.99 365.05 57.01 362.34
  Q 63.12 346.05 69.40 329.87
  Q 69.56 329.47 69.42 329.06
  L 56.68 292.14
  A 12.50 12.39 -54.8 0 1 56.00 288.08
  L 56.00 125.81
  A 7.28 7.26 -31.1 0 1 56.85 122.40
  L 86.07 67.56
  A 1.07 1.06 14.0 0 1 87.01 67.00
  Q 201.52 67.00 316.24 67.00
  C 317.52 67.00 318.09 67.52 318.58 68.61
  Z
  M 64.24 503.94
  C 68.10 507.53 91.83 532.61 93.75 532.60
  C 164.92 532.21 236.08 532.83 307.25 532.43
  C 309.81 532.41 309.82 531.66 311.37 530.20
  Q 325.86 516.52 340.08 502.47
  Q 340.47 502.09 340.47 501.54
  L 340.44 103.59
  A 3.06 3.03 24.3 0 0 339.66 101.56
  L 315.47 74.48
  Q 314.37 73.25 312.71 73.25
  L 91.38 73.25
  A 2.13 2.13 0.0 0 0 89.50 74.38
  L 63.15 123.68
  A 7.60 7.49 59.5 0 0 62.25 127.26
  Q 62.25 205.87 62.25 285.45
  C 62.25 287.53 62.54 289.85 63.14 291.58
  Q 69.53 310.17 75.69 327.90
  A 4.46 4.43 -44.3 0 1 75.64 330.97
  Q 69.22 347.56 63.05 363.74
  C 62.35 365.58 62.20 367.37 62.21 369.25
  Q 62.27 434.53 62.24 499.81
  C 62.24 501.78 62.91 502.70 64.24 503.94
  Z"
/>
<path fill="#61615d" d="
  M 318.58 68.61
  Q 319.98 68.66 321.83 70.68
  Q 335.37 85.53 347.96 100.12
  A 2.90 2.90 0.0 0 1 348.65 101.97
  Q 349.15 258.75 348.93 415.44
  Q 348.84 475.80 349.13 502.50
  C 349.14 503.59 348.84 504.94 348.71 506.11
  Q 348.65 506.59 348.31 506.93
  Q 331.94 523.08 315.10 538.73
  C 313.27 540.43 311.85 540.33 309.50 540.28
  C 296.72 540.02 281.34 540.42 268.94 540.37
  Q 190.19 540.04 132.31 540.34
  Q 110.69 540.45 97.01 540.13
  Q 93.29 540.04 91.62 539.05
  L 311.36 538.70
  Q 311.80 538.70 312.11 538.40
  L 345.62 506.01
  A 3.70 3.67 -22.2 0 0 346.75 503.36
  L 346.75 100.51
  A 1.27 1.23 25.0 0 0 346.43 99.68
  L 318.58 68.61
  Z"
/>
<path fill="#b9bab5" d="
  M 93.75 532.60
  C 91.83 532.61 68.10 507.53 64.24 503.94
  C 62.91 502.70 62.24 501.78 62.24 499.81
  Q 62.27 434.53 62.21 369.25
  C 62.20 367.37 62.35 365.58 63.05 363.74
  Q 69.22 347.56 75.64 330.97
  A 4.46 4.43 -44.3 0 0 75.69 327.90
  Q 69.53 310.17 63.14 291.58
  C 62.54 289.85 62.25 287.53 62.25 285.45
  Q 62.25 205.87 62.25 127.26
  A 7.60 7.49 59.5 0 1 63.15 123.68
  L 89.50 74.38
  A 2.13 2.13 0.0 0 1 91.38 73.25
  L 312.71 73.25
  Q 314.37 73.25 315.47 74.48
  L 339.66 101.56
  A 3.06 3.03 24.3 0 1 340.44 103.59
  L 340.47 501.54
  Q 340.47 502.09 340.08 502.47
  Q 325.86 516.52 311.37 530.20
  C 309.82 531.66 309.81 532.41 307.25 532.43
  C 236.08 532.83 164.92 532.21 93.75 532.60
  Z
  M 86.98 148.46
  Q 87.49 148.29 86.96 148.60
  A 0.97 0.94 83.0 0 0 86.50 149.21
  Q 83.51 161.40 83.51 171.25
  Q 83.48 240.47 83.52 309.67
  C 83.53 320.15 86.11 328.70 98.27 328.94
  C 104.25 329.06 110.92 328.62 116.02 329.97
  C 141.99 336.84 143.91 373.48 118.42 382.44
  C 112.23 384.61 104.19 384.41 97.26 384.13
  C 88.80 383.79 83.63 391.44 83.61 399.25
  Q 83.50 433.49 83.49 467.72
  C 83.49 468.81 82.46 471.17 83.86 471.57
  C 82.10 482.46 85.96 486.50 96.63 486.50
  Q 199.16 486.50 301.69 486.50
  C 311.85 486.49 313.87 481.62 313.52 472.36
  L 313.49 148.89
  A 0.42 0.41 12.0 0 0 313.24 148.51
  Q 312.96 148.39 313.00 148.13
  Q 312.88 148.36 313.25 148.27
  A 0.34 0.33 83.6 0 0 313.50 147.94
  Q 313.50 130.77 313.50 113.62
  C 313.51 101.52 308.76 91.50 296.71 87.63
  Q 292.25 86.20 282.66 86.22
  Q 229.33 86.30 175.99 86.23
  Q 163.08 86.21 156.07 87.35
  Q 119.26 93.37 97.75 124.77
  Q 90.71 135.04 86.98 148.46
  Z
  M 131.79 356.54
  A 22.92 22.92 0.0 0 0 108.87 333.62
  A 22.92 22.92 0.0 0 0 85.95 356.54
  A 22.92 22.92 0.0 0 0 108.87 379.46
  A 22.92 22.92 0.0 0 0 131.79 356.54
  Z"
/>
<path fill="#272b86" d="
  M 313.00 148.13
  L 86.98 148.46
  Q 90.71 135.04 97.75 124.77
  Q 119.26 93.37 156.07 87.35
  Q 163.08 86.21 175.99 86.23
  Q 229.33 86.30 282.66 86.22
  Q 292.25 86.20 296.71 87.63
  C 308.76 91.50 313.51 101.52 313.50 113.62
  Q 313.50 130.77 313.50 147.94
  A 0.34 0.33 83.6 0 1 313.25 148.27
  Q 312.88 148.36 313.00 148.13
  Z
  M 234.50 101.88
  A 0.38 0.38 0.0 0 0 234.12 101.50
  L 173.88 101.50
  A 0.38 0.38 0.0 0 0 173.50 101.88
  L 173.50 139.82
  A 0.38 0.38 0.0 0 0 173.88 140.20
  L 234.12 140.20
  A 0.38 0.38 0.0 0 0 234.50 139.82
  L 234.50 101.88
  Z"
/>
<path fill="#ffffff" d="
  M 234.50 139.82
  A 0.38 0.38 0.0 0 1 234.12 140.20
  L 173.88 140.20
  A 0.38 0.38 0.0 0 1 173.50 139.82
  L 173.50 101.88
  A 0.38 0.38 0.0 0 1 173.88 101.50
  L 234.12 101.50
  A 0.38 0.38 0.0 0 1 234.50 101.88
  L 234.50 139.82
  Z
  M 184.89 114.04
  A 0.53 0.53 0.0 0 1 185.42 113.50
  L 188.71 113.50
  A 0.53 0.53 0.0 0 1 189.24 114.03
  L 189.27 117.95
  A 0.53 0.53 0.0 0 0 189.92 118.46
  L 191.35 118.11
  A 0.53 0.53 0.0 0 0 191.75 117.59
  L 191.75 107.11
  A 0.53 0.53 0.0 0 0 191.19 106.58
  L 189.75 106.67
  A 0.53 0.53 0.0 0 0 189.25 107.20
  L 189.25 110.44
  A 0.53 0.53 0.0 0 1 188.73 110.97
  L 185.29 111.06
  A 0.53 0.53 0.0 0 1 184.75 110.53
  L 184.75 107.25
  A 0.53 0.53 0.0 0 0 184.29 106.72
  L 183.04 106.56
  A 0.53 0.53 0.0 0 0 182.44 107.09
  L 182.48 117.72
  A 0.53 0.53 0.0 0 0 183.01 118.25
  L 184.42 118.25
  A 0.53 0.53 0.0 0 0 184.95 117.71
  L 184.89 114.04
  Z
  M 199.91 106.75
  C 197.75 105.99 196.82 106.39 196.19 108.60
  Q 194.91 113.04 193.41 117.39
  A 0.56 0.56 0.0 0 0 193.89 118.13
  L 195.68 118.28
  A 1.19 0.31 -76.3 0 0 196.24 117.25
  Q 196.33 116.89 196.19 116.29
  A 2.38 1.84 37.4 0 1 200.44 116.27
  L 200.84 117.65
  Q 201.03 118.31 201.72 118.27
  L 203.19 118.18
  A 0.45 0.44 -10.4 0 0 203.59 117.61
  L 200.42 107.29
  A 0.83 0.82 -88.6 0 0 199.91 106.75
  Z
  M 212.17 112.41
  C 217.56 107.35 208.70 106.01 205.72 106.72
  A 0.68 0.67 81.2 0 0 205.20 107.44
  C 205.43 110.04 204.69 115.75 205.56 117.74
  A 1.14 1.14 0.0 0 0 207.75 117.28
  L 207.75 114.91
  A 1.23 1.22 34.7 0 1 210.12 114.48
  L 211.47 118.01
  A 1.08 1.08 0.0 0 0 213.56 117.60
  Q 213.49 115.09 212.10 113.18
  Q 211.79 112.76 212.17 112.41
  Z
  M 215.47 107.42
  L 215.51 117.32
  A 0.89 0.89 0.0 0 0 216.40 118.20
  L 219.91 118.19
  A 5.62 5.05 -0.2 0 0 225.51 113.12
  L 225.51 111.54
  A 5.62 5.05 -0.2 0 0 219.87 106.51
  L 216.36 106.52
  A 0.89 0.89 0.0 0 0 215.47 107.42
  Z
  M 206.06 124.32
  A 0.99 0.99 0.0 0 0 205.07 123.33
  L 204.49 123.33
  A 0.99 0.99 0.0 0 0 203.50 124.32
  L 203.50 134.00
  A 0.99 0.99 0.0 0 0 204.49 134.99
  L 205.07 134.99
  A 0.99 0.99 0.0 0 0 206.06 134.00
  L 206.06 124.32
  Z
  M 181.29 124.53
  L 181.33 133.97
  A 1.10 1.10 0.0 0 0 182.43 135.06
  L 185.78 135.05
  A 5.75 5.22 -0.2 0 0 191.51 129.81
  L 191.51 128.61
  A 5.75 5.22 -0.2 0 0 185.74 123.41
  L 182.39 123.42
  A 1.10 1.10 0.0 0 0 181.29 124.53
  Z
  M 200.13 129.26
  C 205.22 124.30 197.49 123.03 193.72 123.71
  Q 193.25 123.80 193.25 124.28
  L 193.25 133.71
  A 1.39 1.39 0.0 0 0 196.03 133.77
  Q 196.08 132.66 195.77 131.59
  A 0.80 0.78 -26.0 0 1 196.08 130.72
  C 198.09 129.31 198.90 133.32 199.17 134.38
  A 1.21 1.21 0.0 0 0 201.54 133.96
  Q 201.31 131.69 200.07 130.11
  A 0.64 0.64 0.0 0 1 200.13 129.26
  Z
  M 212.30 131.15
  Q 211.51 127.56 210.37 124.04
  Q 210.19 123.48 209.61 123.49
  L 208.05 123.52
  Q 207.31 123.53 207.54 124.23
  L 210.64 133.77
  A 2.02 2.02 0.0 0 0 214.47 133.79
  L 217.72 124.22
  Q 217.95 123.53 217.22 123.52
  L 215.53 123.49
  Q 215.13 123.49 215.03 123.87
  L 213.00 131.17
  A 0.36 0.36 0.0 0 1 212.30 131.15
  Z
  M 222.60 132.71
  A 1.25 1.25 0.0 0 1 222.93 130.26
  L 225.40 130.23
  A 1.05 1.05 0.0 0 0 225.63 128.16
  Q 224.18 127.82 222.75 128.09
  A 0.72 0.72 0.0 0 1 221.90 127.50
  L 221.68 126.24
  A 0.66 0.66 0.0 0 1 222.35 125.47
  L 225.60 125.62
  Q 226.11 125.64 226.38 125.21
  Q 226.77 124.58 226.14 123.88
  Q 225.79 123.50 225.28 123.50
  L 219.87 123.50
  Q 219.25 123.50 219.25 124.12
  L 219.25 134.38
  Q 219.25 135.00 219.87 135.00
  L 225.95 135.00
  A 0.71 0.71 0.0 0 0 226.66 134.23
  C 226.48 131.89 223.82 133.06 222.60 132.71
  Z"
/>
<path fill="#61615d" d="
  M 394.51 103.49
  C 396.02 103.35 396.50 104.92 396.50 106.21
  Q 396.48 159.98 396.52 213.74
  C 396.52 223.36 396.94 239.57 396.68 252.49
  Q 396.62 255.27 395.53 257.88
  Q 382.39 289.15 369.17 319.98
  A 2.82 2.81 -46.5 0 0 369.23 322.33
  Q 382.35 349.27 395.20 377.02
  C 395.99 378.71 396.49 380.50 396.49 382.47
  Q 396.51 454.67 396.49 526.87
  C 396.49 529.72 396.89 535.15 396.52 539.33
  Q 396.49 539.75 396.07 539.75
  L 330.49 539.80
  Q 329.94 539.80 329.61 540.24
  L 307.52 569.72
  Q 307.20 570.16 306.65 570.16
  Q 200.74 570.45 94.88 570.44
  C 92.80 570.44 88.26 570.10 86.89 568.38
  Q 86.57 567.97 87.03 567.74
  Q 87.26 567.62 87.50 567.71
  Q 94.66 568.15 98.75 568.17
  Q 200.38 568.68 302.00 567.72
  Q 303.32 567.71 304.60 567.40
  Q 305.07 567.29 305.35 566.91
  L 327.06 538.16
  A 1.67 1.67 0.0 0 1 328.39 537.50
  L 393.91 537.50
  Q 394.50 537.50 394.50 536.91
  L 394.50 378.88
  A 2.63 2.57 33.0 0 0 394.25 377.77
  L 366.65 319.35
  Q 366.39 318.80 366.63 318.25
  L 394.00 253.76
  A 6.42 6.37 -33.7 0 0 394.51 251.26
  L 394.51 103.49
  Z"
/>
<path fill="#272b86" d="
  M 184.89 114.04
  L 184.95 117.71
  A 0.53 0.53 0.0 0 1 184.42 118.25
  L 183.01 118.25
  A 0.53 0.53 0.0 0 1 182.48 117.72
  L 182.44 107.09
  A 0.53 0.53 0.0 0 1 183.04 106.56
  L 184.29 106.72
  A 0.53 0.53 0.0 0 1 184.75 107.25
  L 184.75 110.53
  A 0.53 0.53 0.0 0 0 185.29 111.06
  L 188.73 110.97
  A 0.53 0.53 0.0 0 0 189.25 110.44
  L 189.25 107.20
  A 0.53 0.53 0.0 0 1 189.75 106.67
  L 191.19 106.58
  A 0.53 0.53 0.0 0 1 191.75 107.11
  L 191.75 117.59
  A 0.53 0.53 0.0 0 1 191.35 118.11
  L 189.92 118.46
  A 0.53 0.53 0.0 0 1 189.27 117.95
  L 189.24 114.03
  A 0.53 0.53 0.0 0 0 188.71 113.50
  L 185.42 113.50
  A 0.53 0.53 0.0 0 0 184.89 114.04
  Z"
/>
<path fill="#272b86" d="
  M 199.91 106.75
  A 0.83 0.82 -88.6 0 1 200.42 107.29
  L 203.59 117.61
  A 0.45 0.44 -10.4 0 1 203.19 118.18
  L 201.72 118.27
  Q 201.03 118.31 200.84 117.65
  L 200.44 116.27
  A 2.38 1.84 37.4 0 0 196.19 116.29
  Q 196.33 116.89 196.24 117.25
  A 1.19 0.31 -76.3 0 1 195.68 118.28
  L 193.89 118.13
  A 0.56 0.56 0.0 0 1 193.41 117.39
  Q 194.91 113.04 196.19 108.60
  C 196.82 106.39 197.75 105.99 199.91 106.75
  Z
  M 197.61 113.47
  L 199.21 113.49
  A 0.20 0.20 0.0 0 0 199.41 113.29
  L 199.41 113.12
  A 3.57 0.93 -89.4 0 0 198.52 109.54
  L 198.38 109.54
  A 3.57 0.93 -89.4 0 0 197.41 113.10
  L 197.41 113.27
  A 0.20 0.20 0.0 0 0 197.61 113.47
  Z"
/>
<path fill="#272b86" d="
  M 205.72 106.72
  C 208.70 106.01 217.56 107.35 212.17 112.41
  Q 211.79 112.76 212.10 113.18
  Q 213.49 115.09 213.56 117.60
  A 1.08 1.08 0.0 0 1 211.47 118.01
  L 210.12 114.48
  A 1.23 1.22 34.7 0 0 207.75 114.91
  L 207.75 117.28
  A 1.14 1.14 0.0 0 1 205.56 117.74
  C 204.69 115.75 205.43 110.04 205.20 107.44
  A 0.68 0.67 81.2 0 1 205.72 106.72
  Z
  M 207.71 109.25
  L 207.80 111.11
  A 0.69 0.69 0.0 0 0 208.52 111.76
  L 209.15 111.73
  A 1.92 1.44 -2.8 0 0 211.00 110.20
  L 210.98 109.84
  A 1.92 1.44 -2.8 0 0 208.99 108.50
  L 208.36 108.53
  A 0.69 0.69 0.0 0 0 207.71 109.25
  Z"
/>
<path fill="#272b86" d="
  M 215.47 107.42
  A 0.89 0.89 0.0 0 1 216.36 106.52
  L 219.87 106.51
  A 5.62 5.05 -0.2 0 1 225.51 111.54
  L 225.51 113.12
  A 5.62 5.05 -0.2 0 1 219.91 118.19
  L 216.40 118.20
  A 0.89 0.89 0.0 0 1 215.51 117.32
  L 215.47 107.42
  Z
  M 218.01 109.20
  L 217.99 115.56
  A 0.78 0.78 0.0 0 0 218.77 116.34
  L 219.09 116.35
  A 3.68 3.58 0.2 0 0 222.78 112.78
  L 222.78 112.02
  A 3.68 3.58 0.2 0 0 219.11 108.43
  L 218.79 108.42
  A 0.78 0.78 0.0 0 0 218.01 109.20
  Z"
/>
<path fill="#ffffff" d="
  M 207.71 109.25
  A 0.69 0.69 0.0 0 1 208.36 108.53
  L 208.99 108.50
  A 1.92 1.44 -2.8 0 1 210.98 109.84
  L 211.00 110.20
  A 1.92 1.44 -2.8 0 1 209.15 111.73
  L 208.52 111.76
  A 0.69 0.69 0.0 0 1 207.80 111.11
  L 207.71 109.25
  Z"
/>
<path fill="#ffffff" d="
  M 218.01 109.20
  A 0.78 0.78 0.0 0 1 218.79 108.42
  L 219.11 108.43
  A 3.68 3.58 0.2 0 1 222.78 112.02
  L 222.78 112.78
  A 3.68 3.58 0.2 0 1 219.09 116.35
  L 218.77 116.34
  A 0.78 0.78 0.0 0 1 217.99 115.56
  L 218.01 109.20
  Z"
/>
<path fill="#ffffff" d="
  M 197.61 113.47
  A 0.20 0.20 0.0 0 1 197.41 113.27
  L 197.41 113.10
  A 3.57 0.93 -89.4 0 1 198.38 109.54
  L 198.52 109.54
  A 3.57 0.93 -89.4 0 1 199.41 113.12
  L 199.41 113.29
  A 0.20 0.20 0.0 0 1 199.21 113.49
  L 197.61 113.47
  Z"
/>
<rect fill="#272b86" x="203.50" y="123.33" width="2.56" height="11.66" rx="0.99"/>
<path fill="#272b86" d="
  M 181.29 124.53
  A 1.10 1.10 0.0 0 1 182.39 123.42
  L 185.74 123.41
  A 5.75 5.22 -0.2 0 1 191.51 128.61
  L 191.51 129.81
  A 5.75 5.22 -0.2 0 1 185.78 135.05
  L 182.43 135.06
  A 1.10 1.10 0.0 0 1 181.33 133.97
  L 181.29 124.53
  Z
  M 183.98 126.24
  L 184.02 132.24
  A 0.76 0.76 0.0 0 0 184.79 132.99
  L 185.49 132.99
  A 3.30 3.26 -0.4 0 0 188.76 129.70
  L 188.76 128.70
  A 3.30 3.26 -0.4 0 0 185.43 125.47
  L 184.73 125.47
  A 0.76 0.76 0.0 0 0 183.98 126.24
  Z"
/>
<path fill="#272b86" d="
  M 193.72 123.71
  C 197.49 123.03 205.22 124.30 200.13 129.26
  A 0.64 0.64 0.0 0 0 200.07 130.11
  Q 201.31 131.69 201.54 133.96
  A 1.21 1.21 0.0 0 1 199.17 134.38
  C 198.90 133.32 198.09 129.31 196.08 130.72
  A 0.80 0.78 -26.0 0 0 195.77 131.59
  Q 196.08 132.66 196.03 133.77
  A 1.39 1.39 0.0 0 1 193.25 133.71
  L 193.25 124.28
  Q 193.25 123.80 193.72 123.71
  Z
  M 198.7709 125.9547
  A 1.76 1.61 -32.1 0 0 196.4244 125.5261
  A 1.76 1.61 -32.1 0 0 195.7891 127.8253
  A 1.76 1.61 -32.1 0 0 198.1356 128.2539
  A 1.76 1.61 -32.1 0 0 198.7709 125.9547
  Z"
/>
<path fill="#272b86" d="
  M 213.00 131.17
  L 215.03 123.87
  Q 215.13 123.49 215.53 123.49
  L 217.22 123.52
  Q 217.95 123.53 217.72 124.22
  L 214.47 133.79
  A 2.02 2.02 0.0 0 1 210.64 133.77
  L 207.54 124.23
  Q 207.31 123.53 208.05 123.52
  L 209.61 123.49
  Q 210.19 123.48 210.37 124.04
  Q 211.51 127.56 212.30 131.15
  A 0.36 0.36 0.0 0 0 213.00 131.17
  Z"
/>
<path fill="#272b86" d="
  M 222.60 132.71
  C 223.82 133.06 226.48 131.89 226.66 134.23
  A 0.71 0.71 0.0 0 1 225.95 135.00
  L 219.87 135.00
  Q 219.25 135.00 219.25 134.38
  L 219.25 124.12
  Q 219.25 123.50 219.87 123.50
  L 225.28 123.50
  Q 225.79 123.50 226.14 123.88
  Q 226.77 124.58 226.38 125.21
  Q 226.11 125.64 225.60 125.62
  L 222.35 125.47
  A 0.66 0.66 0.0 0 0 221.68 126.24
  L 221.90 127.50
  A 0.72 0.72 0.0 0 0 222.75 128.09
  Q 224.18 127.82 225.63 128.16
  A 1.05 1.05 0.0 0 1 225.40 130.23
  L 222.93 130.26
  A 1.25 1.25 0.0 0 0 222.60 132.71
  Z"
/>
<ellipse fill="#ffffff" cx="0.00" cy="0.00" transform="translate(197.28,126.89) rotate(-32.1)" rx="1.76" ry="1.61"/>
<path fill="#ffffff" d="
  M 183.98 126.24
  A 0.76 0.76 0.0 0 1 184.73 125.47
  L 185.43 125.47
  A 3.30 3.26 -0.4 0 1 188.76 128.70
  L 188.76 129.70
  A 3.30 3.26 -0.4 0 1 185.49 132.99
  L 184.79 132.99
  A 0.76 0.76 0.0 0 1 184.02 132.24
  L 183.98 126.24
  Z"
/>
<path fill="#ffffff" d="
  M 313.00 148.13
  Q 312.96 148.39 313.24 148.51
  A 0.42 0.41 12.0 0 1 313.49 148.89
  L 313.52 472.36
  Q 310.73 465.25 304.75 465.25
  Q 199.66 465.24 94.57 465.26
  C 89.20 465.26 85.79 466.62 83.86 471.57
  C 82.46 471.17 83.49 468.81 83.49 467.72
  Q 83.50 433.49 83.61 399.25
  C 83.63 391.44 88.80 383.79 97.26 384.13
  C 104.19 384.41 112.23 384.61 118.42 382.44
  C 143.91 373.48 141.99 336.84 116.02 329.97
  C 110.92 328.62 104.25 329.06 98.27 328.94
  C 86.11 328.70 83.53 320.15 83.52 309.67
  Q 83.48 240.47 83.51 171.25
  Q 83.51 161.40 86.50 149.21
  A 0.97 0.94 83.0 0 1 86.96 148.60
  Q 87.49 148.29 86.98 148.46
  L 313.00 148.13
  Z
  M 185.25 152.86
  A 0.60 0.60 0.0 0 0 184.65 152.26
  L 102.85 152.26
  A 0.60 0.60 0.0 0 0 102.25 152.86
  L 102.25 178.40
  A 0.60 0.60 0.0 0 0 102.85 179.00
  L 184.65 179.00
  A 0.60 0.60 0.0 0 0 185.25 178.40
  L 185.25 152.86
  Z
  M 292.96 152.82
  A 0.56 0.56 0.0 0 0 292.40 152.26
  L 210.30 152.26
  A 0.56 0.56 0.0 0 0 209.74 152.82
  L 209.74 163.94
  A 0.56 0.56 0.0 0 0 210.30 164.50
  L 292.40 164.50
  A 0.56 0.56 0.0 0 0 292.96 163.94
  L 292.96 152.82
  Z
  M 292.67 179.00
  A 0.54 0.54 0.0 0 0 293.21 178.46
  L 293.27 167.27
  A 0.54 0.54 0.0 0 0 292.73 166.73
  L 250.48 166.76
  A 0.54 0.54 0.0 0 0 249.94 167.30
  L 250.03 178.46
  A 0.54 0.54 0.0 0 0 250.57 179.00
  L 292.67 179.00
  Z
  M 246.53 167.02
  A 0.27 0.27 0.0 0 0 246.26 166.75
  L 210.02 166.75
  A 0.27 0.27 0.0 0 0 209.75 167.02
  L 209.75 178.72
  A 0.27 0.27 0.0 0 0 210.02 178.99
  L 246.26 178.99
  A 0.27 0.27 0.0 0 0 246.53 178.72
  L 246.53 167.02
  Z
  M 183.24 213.02
  A 0.26 0.26 0.0 0 0 182.98 212.76
  L 108.26 212.76
  A 0.26 0.26 0.0 0 0 108.00 213.02
  L 108.00 224.74
  A 0.26 0.26 0.0 0 0 108.26 225.00
  L 182.98 225.00
  A 0.26 0.26 0.0 0 0 183.24 224.74
  L 183.24 213.02
  Z
  M 273.2551 221.4868
  A 0.45 0.45 0.0 0 0 272.8059 221.0360
  L 231.5460 220.9640
  A 0.45 0.45 0.0 0 0 231.0952 221.4132
  L 231.0849 227.3332
  A 0.45 0.45 0.0 0 0 231.5341 227.7840
  L 272.7940 227.8560
  A 0.45 0.45 0.0 0 0 273.2448 227.4068
  L 273.2551 221.4868
  Z
  M 293.9945 232.1650
  A 0.27 0.27 0.0 0 0 293.7240 231.8955
  L 231.2841 232.0045
  A 0.27 0.27 0.0 0 0 231.0146 232.2750
  L 231.0255 238.5350
  A 0.27 0.27 0.0 0 0 231.2960 238.8045
  L 293.7359 238.6955
  A 0.27 0.27 0.0 0 0 294.0054 238.4250
  L 293.9945 232.1650
  Z
  M 194.00 259.72
  A 0.33 0.33 0.0 0 0 193.67 259.39
  L 99.83 259.39
  A 0.33 0.33 0.0 0 0 99.50 259.72
  L 99.50 265.92
  A 0.33 0.33 0.0 0 0 99.83 266.25
  L 193.67 266.25
  A 0.33 0.33 0.0 0 0 194.00 265.92
  L 194.00 259.72
  Z
  M 281.50 265.55
  A 0.56 0.56 0.0 0 0 280.94 264.99
  L 220.82 264.99
  A 0.56 0.56 0.0 0 0 220.26 265.55
  L 220.26 271.19
  A 0.56 0.56 0.0 0 0 220.82 271.75
  L 280.94 271.75
  A 0.56 0.56 0.0 0 0 281.50 271.19
  L 281.50 265.55
  Z
  M 176.28 273.02
  A 0.27 0.27 0.0 0 0 176.01 272.75
  L 99.77 272.75
  A 0.27 0.27 0.0 0 0 99.50 273.02
  L 99.50 279.22
  A 0.27 0.27 0.0 0 0 99.77 279.49
  L 176.01 279.49
  A 0.27 0.27 0.0 0 0 176.28 279.22
  L 176.28 273.02
  Z
  M 273.75 275.09
  A 0.53 0.53 0.0 0 0 273.22 274.56
  L 220.78 274.56
  A 0.53 0.53 0.0 0 0 220.25 275.09
  L 220.25 280.97
  A 0.53 0.53 0.0 0 0 220.78 281.50
  L 273.22 281.50
  A 0.53 0.53 0.0 0 0 273.75 280.97
  L 273.75 275.09
  Z
  M 276.26 284.87
  A 0.62 0.62 0.0 0 0 275.64 284.25
  L 220.88 284.25
  A 0.62 0.62 0.0 0 0 220.26 284.87
  L 220.26 290.37
  A 0.62 0.62 0.0 0 0 220.88 290.99
  L 275.64 290.99
  A 0.62 0.62 0.0 0 0 276.26 290.37
  L 276.26 284.87
  Z
  M 148.73 286.61
  A 0.62 0.62 0.0 0 0 148.11 285.99
  L 100.11 285.99
  A 0.62 0.62 0.0 0 0 99.49 286.61
  L 99.49 292.13
  A 0.62 0.62 0.0 0 0 100.11 292.75
  L 148.11 292.75
  A 0.62 0.62 0.0 0 0 148.73 292.13
  L 148.73 286.61
  Z
  M 261.70 294.12
  A 0.36 0.36 0.0 0 0 261.34 293.76
  L 220.62 293.76
  A 0.36 0.36 0.0 0 0 220.26 294.12
  L 220.26 300.14
  A 0.36 0.36 0.0 0 0 220.62 300.50
  L 261.34 300.50
  A 0.36 0.36 0.0 0 0 261.70 300.14
  L 261.70 294.12
  Z
  M 182.74 299.52
  A 0.27 0.27 0.0 0 0 182.47 299.25
  L 99.79 299.25
  A 0.27 0.27 0.0 0 0 99.52 299.52
  L 99.52 305.74
  A 0.27 0.27 0.0 0 0 99.79 306.01
  L 182.47 306.01
  A 0.27 0.27 0.0 0 0 182.74 305.74
  L 182.74 299.52
  Z
  M 239.76 325.19
  A 0.44 0.44 0.0 0 0 239.32 324.75
  L 126.44 324.75
  A 0.44 0.44 0.0 0 0 126.00 325.19
  L 126.00 331.31
  A 0.44 0.44 0.0 0 0 126.44 331.75
  L 239.32 331.75
  A 0.44 0.44 0.0 0 0 239.76 331.31
  L 239.76 325.19
  Z
  M 144.74 354.11
  C 145.43 355.08 146.28 353.98 145.74 355.94
  Q 144.46 355.56 143.08 355.82
  A 0.71 0.71 0.0 0 0 142.50 356.52
  L 142.50 361.88
  Q 142.50 362.50 143.13 362.50
  L 230.89 362.50
  Q 231.52 362.50 231.51 361.87
  L 231.47 356.28
  Q 231.46 355.76 230.94 355.76
  L 221.53 355.75
  Q 221.26 354.65 222.00 354.28
  L 296.18 354.26
  Q 296.75 354.26 296.75 353.69
  L 296.75 347.83
  Q 296.75 347.30 296.21 347.31
  Q 278.04 347.66 248.43 347.32
  Q 220.04 346.98 143.05 347.49
  A 0.55 0.55 0.0 0 0 142.50 348.04
  L 142.50 353.44
  Q 142.50 353.98 143.01 354.15
  Q 143.91 354.44 144.74 354.11
  Z
  M 231.45 364.90
  A 0.40 0.40 0.0 0 0 231.05 364.50
  L 142.91 364.50
  A 0.40 0.40 0.0 0 0 142.51 364.90
  L 142.51 370.72
  A 0.40 0.40 0.0 0 0 142.91 371.12
  L 231.05 371.12
  A 0.40 0.40 0.0 0 0 231.45 370.72
  L 231.45 364.90
  Z
  M 231.48 373.59
  A 0.37 0.37 0.0 0 0 231.11 373.22
  L 142.89 373.22
  A 0.37 0.37 0.0 0 0 142.52 373.59
  L 142.52 379.39
  A 0.37 0.37 0.0 0 0 142.89 379.76
  L 231.11 379.76
  A 0.37 0.37 0.0 0 0 231.48 379.39
  L 231.48 373.59
  Z
  M 231.51 382.19
  A 0.43 0.43 0.0 0 0 231.08 381.76
  L 142.94 381.76
  A 0.43 0.43 0.0 0 0 142.51 382.19
  L 142.51 388.07
  A 0.43 0.43 0.0 0 0 142.94 388.50
  L 231.08 388.50
  A 0.43 0.43 0.0 0 0 231.51 388.07
  L 231.51 382.19
  Z
  M 122.4812 393.5630
  A 0.33 0.33 0.0 0 0 122.1507 393.2336
  L 103.2907 393.2665
  A 0.33 0.33 0.0 0 0 102.9613 393.5971
  L 102.9988 415.0770
  A 0.33 0.33 0.0 0 0 103.3293 415.4064
  L 122.1893 415.3735
  A 0.33 0.33 0.0 0 0 122.5187 415.0429
  L 122.4812 393.5630
  Z
  M 147.0438 393.5888
  A 0.38 0.38 0.0 0 0 146.6619 393.2108
  L 127.8221 393.3095
  A 0.38 0.38 0.0 0 0 127.4441 393.6915
  L 127.5562 415.0912
  A 0.38 0.38 0.0 0 0 127.9381 415.4692
  L 146.7779 415.3705
  A 0.38 0.38 0.0 0 0 147.1559 414.9885
  L 147.0438 393.5888
  Z
  M 171.7316 393.8030
  A 0.57 0.57 0.0 0 0 171.1606 393.2340
  L 152.8007 393.2660
  A 0.57 0.57 0.0 0 0 152.2317 393.8370
  L 152.2684 414.8770
  A 0.57 0.57 0.0 0 0 152.8394 415.4460
  L 171.1993 415.4140
  A 0.57 0.57 0.0 0 0 171.7683 414.8430
  L 171.7316 393.8030
  Z
  M 196.4331 393.7659
  A 0.55 0.55 0.0 0 0 195.8812 393.2178
  L 177.3813 393.2824
  A 0.55 0.55 0.0 0 0 176.8332 393.8343
  L 176.9069 414.9541
  A 0.55 0.55 0.0 0 0 177.4588 415.5022
  L 195.9587 415.4376
  A 0.55 0.55 0.0 0 0 196.5068 414.8857
  L 196.4331 393.7659
  Z
  M 221.0014 393.7030
  A 0.47 0.47 0.0 0 0 220.5306 393.2338
  L 201.9506 393.2662
  A 0.47 0.47 0.0 0 0 201.4814 393.7371
  L 201.5186 415.0170
  A 0.47 0.47 0.0 0 0 201.9894 415.4862
  L 220.5694 415.4538
  A 0.47 0.47 0.0 0 0 221.0386 414.9829
  L 221.0014 393.7030
  Z
  M 245.7685 393.7770
  A 0.51 0.51 0.0 0 0 245.2594 393.2661
  L 226.7794 393.2339
  A 0.51 0.51 0.0 0 0 226.2685 393.7430
  L 226.2315 414.9630
  A 0.51 0.51 0.0 0 0 226.7406 415.4739
  L 245.2206 415.5061
  A 0.51 0.51 0.0 0 0 245.7315 414.9970
  L 245.7685 393.7770
  Z
  M 270.25 393.56
  A 0.31 0.31 0.0 0 0 269.94 393.25
  L 251.06 393.25
  A 0.31 0.31 0.0 0 0 250.75 393.56
  L 250.75 415.04
  A 0.31 0.31 0.0 0 0 251.06 415.35
  L 269.94 415.35
  A 0.31 0.31 0.0 0 0 270.25 415.04
  L 270.25 393.56
  Z
  M 294.9812 393.5030
  A 0.27 0.27 0.0 0 0 294.7107 393.2335
  L 275.7308 393.2666
  A 0.27 0.27 0.0 0 0 275.4612 393.5371
  L 275.4988 415.0570
  A 0.27 0.27 0.0 0 0 275.7693 415.3265
  L 294.7492 415.2934
  A 0.27 0.27 0.0 0 0 295.0188 415.0229
  L 294.9812 393.5030
  Z
  M 297.30 424.24
  A 0.27 0.27 0.0 0 0 297.03 423.97
  L 101.29 423.97
  A 0.27 0.27 0.0 0 0 101.02 424.24
  L 101.02 430.48
  A 0.27 0.27 0.0 0 0 101.29 430.75
  L 297.03 430.75
  A 0.27 0.27 0.0 0 0 297.30 430.48
  L 297.30 424.24
  Z"
/>
<rect fill="#414143" x="102.25" y="152.26" width="83.00" height="26.74" rx="0.60"/>
<rect fill="#414143" x="209.74" y="152.26" width="83.22" height="12.24" rx="0.56"/>
<path fill="#414143" d="
  M 292.67 179.00
  L 250.57 179.00
  A 0.54 0.54 0.0 0 1 250.03 178.46
  L 249.94 167.30
  A 0.54 0.54 0.0 0 1 250.48 166.76
  L 292.73 166.73
  A 0.54 0.54 0.0 0 1 293.27 167.27
  L 293.21 178.46
  A 0.54 0.54 0.0 0 1 292.67 179.00
  Z"
/>
<rect fill="#414143" x="209.75" y="166.75" width="36.78" height="12.24" rx="0.27"/>
<rect fill="#414143" x="108.00" y="212.76" width="75.24" height="12.24" rx="0.26"/>
<rect fill="#414143" x="-21.08" y="-3.41" transform="translate(252.17,224.41) rotate(0.1)" width="42.16" height="6.82" rx="0.45"/>
<rect fill="#414143" x="-31.49" y="-3.40" transform="translate(262.51,235.35) rotate(-0.1)" width="62.98" height="6.80" rx="0.27"/>
<rect fill="#414143" x="99.50" y="259.39" width="94.50" height="6.86" rx="0.33"/>
<rect fill="#414143" x="220.26" y="264.99" width="61.24" height="6.76" rx="0.56"/>
<rect fill="#414143" x="99.50" y="272.75" width="76.78" height="6.74" rx="0.27"/>
<rect fill="#414143" x="220.25" y="274.56" width="53.50" height="6.94" rx="0.53"/>
<rect fill="#414143" x="220.26" y="284.25" width="56.00" height="6.74" rx="0.62"/>
<rect fill="#414143" x="99.49" y="285.99" width="49.24" height="6.76" rx="0.62"/>
<rect fill="#414143" x="220.26" y="293.76" width="41.44" height="6.74" rx="0.36"/>
<rect fill="#414143" x="99.52" y="299.25" width="83.22" height="6.76" rx="0.27"/>
<path fill="#b9bab5" d="
  M 38.25 320.29
  Q 42.95 329.15 35.94 334.94
  Q 32.54 337.74 25.93 336.82
  Q 22.90 334.91 21.07 332.33
  C 13.37 321.47 28.51 310.02 38.25 320.29
  Z
  M 34.57 326.51
  A 5.10 5.10 0.0 0 0 29.47 321.41
  A 5.10 5.10 0.0 0 0 24.37 326.51
  A 5.10 5.10 0.0 0 0 29.47 331.61
  A 5.10 5.10 0.0 0 0 34.57 326.51
  Z"
/>
<path fill="#b9bab5" d="
  M 399.32 320.69
  C 403.68 330.22 397.00 339.27 386.77 336.55
  C 370.52 328.31 386.57 306.59 399.32 320.69
  Z
  M 395.42 326.50
  A 5.10 5.10 0.0 0 0 390.32 321.40
  A 5.10 5.10 0.0 0 0 385.22 326.50
  A 5.10 5.10 0.0 0 0 390.32 331.60
  A 5.10 5.10 0.0 0 0 395.42 326.50
  Z"
/>
<path fill="#61615d" d="
  M 38.25 320.29
  C 42.75 323.96 42.53 329.53 39.31 334.02
  Q 34.46 340.79 25.93 336.82
  Q 32.54 337.74 35.94 334.94
  Q 42.95 329.15 38.25 320.29
  Z"
/>
<path fill="#61615d" d="
  M 399.32 320.69
  Q 404.74 326.85 400.91 332.90
  C 397.79 337.83 391.92 340.17 386.77 336.55
  C 397.00 339.27 403.68 330.22 399.32 320.69
  Z"
/>
<circle fill="#414143" cx="29.47" cy="326.51" r="5.10"/>
<circle fill="#414143" cx="390.32" cy="326.50" r="5.10"/>
<rect fill="#414143" x="126.00" y="324.75" width="113.76" height="7.00" rx="0.44"/>
<path fill="#61615d" d="
  M 131.79 356.54
  A 22.92 22.92 0.0 0 1 108.87 379.46
  A 22.92 22.92 0.0 0 1 85.95 356.54
  A 22.92 22.92 0.0 0 1 108.87 333.62
  A 22.92 22.92 0.0 0 1 131.79 356.54
  Z
  M 129.57 356.45
  A 20.65 20.65 0.0 0 0 108.92 335.80
  A 20.65 20.65 0.0 0 0 88.27 356.45
  A 20.65 20.65 0.0 0 0 108.92 377.10
  A 20.65 20.65 0.0 0 0 129.57 356.45
  Z"
/>
<path fill="#a3a3a3" d="
  M 129.57 356.45
  A 20.65 20.65 0.0 0 1 108.92 377.10
  A 20.65 20.65 0.0 0 1 88.27 356.45
  A 20.65 20.65 0.0 0 1 108.92 335.80
  A 20.65 20.65 0.0 0 1 129.57 356.45
  Z
  M 127.17 356.54
  A 18.30 18.30 0.0 0 0 108.87 338.24
  A 18.30 18.30 0.0 0 0 90.57 356.54
  A 18.30 18.30 0.0 0 0 108.87 374.84
  A 18.30 18.30 0.0 0 0 127.17 356.54
  Z"
/>
<path fill="#414143" d="
  M 127.17 356.54
  A 18.30 18.30 0.0 0 1 108.87 374.84
  A 18.30 18.30 0.0 0 1 90.57 356.54
  A 18.30 18.30 0.0 0 1 108.87 338.24
  A 18.30 18.30 0.0 0 1 127.17 356.54
  Z
  M 125.44 356.47
  A 16.58 16.58 0.0 0 0 108.86 339.89
  A 16.58 16.58 0.0 0 0 92.28 356.47
  A 16.58 16.58 0.0 0 0 108.86 373.05
  A 16.58 16.58 0.0 0 0 125.44 356.47
  Z"
/>
<path fill="#b9bab5" d="
  M 125.44 356.47
  A 16.58 16.58 0.0 0 1 108.86 373.05
  A 16.58 16.58 0.0 0 1 92.28 356.47
  A 16.58 16.58 0.0 0 1 108.86 339.89
  A 16.58 16.58 0.0 0 1 125.44 356.47
  Z
  M 112.70 356.50
  A 3.83 3.83 0.0 0 0 108.87 352.67
  A 3.83 3.83 0.0 0 0 105.04 356.50
  A 3.83 3.83 0.0 0 0 108.87 360.33
  A 3.83 3.83 0.0 0 0 112.70 356.50
  Z"
/>
<path fill="#414143" d="
  M 222.00 354.28
  L 144.74 354.11
  Q 143.91 354.44 143.01 354.15
  Q 142.50 353.98 142.50 353.44
  L 142.50 348.04
  A 0.55 0.55 0.0 0 1 143.05 347.49
  Q 220.04 346.98 248.43 347.32
  Q 278.04 347.66 296.21 347.31
  Q 296.75 347.30 296.75 347.83
  L 296.75 353.69
  Q 296.75 354.26 296.18 354.26
  L 222.00 354.28
  Z"
/>
<circle fill="#414143" cx="108.87" cy="356.50" r="3.83"/>
<path fill="#cacac8" d="
  M 222.00 354.28
  Q 221.26 354.65 221.53 355.75
  Q 220.69 355.63 220.10 355.83
  Q 219.63 355.98 219.14 355.98
  L 145.74 355.94
  C 146.28 353.98 145.43 355.08 144.74 354.11
  L 222.00 354.28
  Z"
/>
<path fill="#414143" d="
  M 145.74 355.94
  L 219.14 355.98
  Q 219.63 355.98 220.10 355.83
  Q 220.69 355.63 221.53 355.75
  L 230.94 355.76
  Q 231.46 355.76 231.47 356.28
  L 231.51 361.87
  Q 231.52 362.50 230.89 362.50
  L 143.13 362.50
  Q 142.50 362.50 142.50 361.88
  L 142.50 356.52
  A 0.71 0.71 0.0 0 1 143.08 355.82
  Q 144.46 355.56 145.74 355.94
  Z"
/>
<rect fill="#414143" x="142.51" y="364.50" width="88.94" height="6.62" rx="0.40"/>
<rect fill="#414143" x="142.52" y="373.22" width="88.96" height="6.54" rx="0.37"/>
<rect fill="#414143" x="142.51" y="381.76" width="89.00" height="6.74" rx="0.43"/>
<rect fill="#414143" x="-9.76" y="-11.07" transform="translate(112.74,404.32) rotate(-0.1)" width="19.52" height="22.14" rx="0.33"/>
<rect fill="#414143" x="-9.80" y="-11.08" transform="translate(137.30,404.34) rotate(-0.3)" width="19.60" height="22.16" rx="0.38"/>
<rect fill="#414143" x="-9.75" y="-11.09" transform="translate(162.00,404.34) rotate(-0.1)" width="19.50" height="22.18" rx="0.57"/>
<rect fill="#414143" x="-9.80" y="-11.11" transform="translate(186.67,404.36) rotate(-0.2)" width="19.60" height="22.22" rx="0.55"/>
<rect fill="#414143" x="-9.76" y="-11.11" transform="translate(211.26,404.36) rotate(-0.1)" width="19.52" height="22.22" rx="0.47"/>
<rect fill="#414143" x="-9.75" y="-11.12" transform="translate(236.00,404.37) rotate(0.1)" width="19.50" height="22.24" rx="0.51"/>
<rect fill="#414143" x="250.75" y="393.25" width="19.50" height="22.10" rx="0.31"/>
<rect fill="#414143" x="-9.76" y="-11.03" transform="translate(285.24,404.28) rotate(-0.1)" width="19.52" height="22.06" rx="0.27"/>
<rect fill="#414143" x="101.02" y="423.97" width="196.28" height="6.78" rx="0.27"/>
<path fill="#272b86" d="
  M 313.52 472.36
  C 313.87 481.62 311.85 486.49 301.69 486.50
  Q 199.16 486.50 96.63 486.50
  C 85.96 486.50 82.10 482.46 83.86 471.57
  C 85.79 466.62 89.20 465.26 94.57 465.26
  Q 199.66 465.24 304.75 465.25
  Q 310.73 465.25 313.52 472.36
  Z"
/>
<path fill="#b9bab5" d="
  M 46.12 564.02
  C 50.89 572.79 44.81 581.44 34.91 580.64
  C 17.64 574.04 31.56 549.80 46.12 564.02
  Z
  M 42.34 570.10
  A 5.12 5.12 0.0 0 0 37.22 564.98
  A 5.12 5.12 0.0 0 0 32.10 570.10
  A 5.12 5.12 0.0 0 0 37.22 575.22
  A 5.12 5.12 0.0 0 0 42.34 570.10
  Z"
/>
<path fill="#b9bab5" d="
  M 388.34 564.01
  C 393.09 573.08 387.18 581.13 377.30 580.68
  C 359.42 572.74 374.69 550.38 388.34 564.01
  Z
  M 384.63 570.09
  A 5.12 5.12 0.0 0 0 379.51 564.97
  A 5.12 5.12 0.0 0 0 374.39 570.09
  A 5.12 5.12 0.0 0 0 379.51 575.21
  A 5.12 5.12 0.0 0 0 384.63 570.09
  Z"
/>
<path fill="#61615d" d="
  M 46.12 564.02
  C 51.41 568.84 49.89 576.75 44.31 580.36
  Q 40.06 583.10 34.91 580.64
  C 44.81 581.44 50.89 572.79 46.12 564.02
  Z"
/>
<path fill="#61615d" d="
  M 388.34 564.01
  C 393.80 568.88 392.37 576.59 386.73 580.32
  Q 382.49 583.11 377.30 580.68
  C 387.18 581.13 393.09 573.08 388.34 564.01
  Z"
/>
<circle fill="#414143" cx="37.22" cy="570.10" r="5.12"/>
<circle fill="#414143" cx="379.51" cy="570.09" r="5.12"/>
</svg>
