<?xml version="1.0" encoding="UTF-8" standalone="no"?>
<!DOCTYPE svg PUBLIC "-//W3C//DTD SVG 1.1//EN" "http://www.w3.org/Graphics/SVG/1.1/DTD/svg11.dtd">
<svg xmlns="http://www.w3.org/2000/svg" version="1.1" viewBox="0.00 0.00 1105.00 209.00">
<g stroke-width="2.00" fill="none" stroke-linecap="butt">
<path stroke="#b99d7e" vector-effect="non-scaling-stroke" d="
  M 1105.00 71.99
  Q 1100.54 68.50 1097.70 71.00
  A 1.32 1.32 0.0 0 0 1097.70 72.98
  L 1105.00 79.42"
/>
<path stroke="#b99d7e" vector-effect="non-scaling-stroke" d="
  M 1105.00 81.70
  L 1095.17 72.03
  A 6.71 6.71 0.0 0 0 1090.34 70.10
  C 1088.18 70.13 1077.61 69.26 1078.83 73.83
  Q 1078.97 74.33 1078.73 74.80
  L 1078.03 76.19
  Q 1077.73 76.77 1078.16 77.25
  L 1092.56 93.47
  A 0.64 0.63 46.7 0 1 1092.54 94.34
  L 1092.32 94.56
  A 0.88 0.87 -46.2 0 1 1091.12 94.59
  Q 1081.82 86.18 1073.25 77.03
  C 1071.47 75.14 1069.98 72.21 1067.30 70.35
  Q 1066.91 70.08 1066.44 70.16
  L 1062.14 70.83
  A 1.64 1.64 0.0 0 0 1060.96 73.24
  Q 1062.13 75.37 1064.25 77.51
  Q 1073.58 86.92 1082.66 96.31
  A 0.54 0.54 0.0 0 1 1081.97 97.13
  C 1073.83 91.56 1065.52 82.38 1058.83 75.07
  C 1054.08 69.88 1050.82 66.76 1044.22 71.15
  Q 1042.77 72.11 1043.98 73.38
  L 1062.56 92.82
  Q 1063.09 93.38 1062.51 93.89
  L 1060.43 95.71
  Q 1059.99 96.10 1059.55 95.70
  Q 1045.66 82.91 1032.91 68.98
  A 1.04 1.02 -27.9 0 0 1031.90 68.68
  Q 1028.99 69.38 1027.40 71.96
  Q 1027.12 72.41 1027.47 72.82
  Q 1036.95 83.91 1046.81 94.67
  C 1049.50 97.61 1049.49 100.92 1052.91 103.79
  Q 1053.09 103.94 1053.03 104.16
  Q 1052.99 104.31 1052.93 104.44
  A 0.38 0.38 0.0 0 1 1052.34 104.59
  Q 1044.39 97.97 1036.85 90.88
  C 1035.44 89.55 1034.19 89.27 1032.40 88.77
  Q 1031.90 88.63 1031.68 88.17
  Q 1029.71 83.87 1025.45 81.47
  Q 1025.00 81.22 1024.49 81.31
  L 1022.16 81.75
  Q 1021.40 81.89 1021.78 82.56
  L 1025.81 89.67
  A 0.35 0.34 1.6 0 1 1025.32 90.13
  Q 1022.81 88.52 1021.54 85.78
  Q 1021.32 85.31 1020.82 85.21
  C 1019.17 84.89 1018.19 82.18 1016.36 81.51
  A 1.91 1.91 0.0 0 0 1013.92 83.96
  L 1014.94 86.74
  A 0.69 0.69 0.0 0 1 1013.79 87.46
  C 1010.07 83.65 999.45 69.70 994.01 71.59
  A 0.54 0.54 0.0 0 0 993.85 72.52
  L 995.20 73.60
  Q 995.49 73.83 995.63 74.18
  Q 996.14 75.51 997.65 77.09
  Q 1003.15 82.85 1008.78 89.47
  A 0.67 0.66 -48.2 0 1 1008.82 90.29
  Q 1008.31 91.00 1007.57 90.71
  Q 1007.16 90.56 1006.70 89.96
  Q 998.81 79.80 988.71 71.41
  A 0.25 0.25 0.0 0 0 988.30 71.56
  L 988.25 71.95
  Q 988.19 72.38 988.48 72.70
  L 1004.45 90.05
  A 0.47 0.47 0.0 0 1 1003.93 90.80
  Q 1002.68 90.29 1001.47 89.03
  C 997.08 84.45 992.67 79.34 987.29 75.96
  A 0.95 0.92 43.2 0 0 986.26 75.98
  Q 984.87 76.95 983.26 76.46
  A 0.32 0.32 0.0 0 0 982.95 77.00
  Q 991.71 84.96 998.84 94.45
  A 0.45 0.45 0.0 0 1 998.16 95.04
  Q 997.74 94.64 997.11 93.88
  Q 988.78 83.97 978.71 75.62
  A 0.78 0.77 -42.2 0 0 977.77 75.58
  Q 975.22 77.34 972.42 75.98
  Q 971.94 75.74 971.41 75.88
  Q 966.67 77.08 961.83 76.62
  A 1.14 1.14 0.0 0 0 960.92 78.57
  Q 968.47 86.05 976.39 93.74
  Q 976.92 94.25 976.95 94.77
  Q 976.99 95.69 976.03 95.67
  A 1.10 1.09 73.6 0 0 975.11 97.37
  L 979.56 104.14
  A 1.54 1.53 72.3 0 1 978.33 106.52
  L 968.29 106.83
  A 1.51 1.48 -26.6 0 1 967.36 106.53
  Q 962.83 102.99 959.59 97.68
  Q 958.16 95.33 955.79 93.09
  Q 955.44 92.76 954.97 92.71
  Q 953.55 92.57 953.47 93.67
  Q 953.44 94.20 953.83 94.55
  Q 959.51 99.60 963.47 106.08
  A 0.56 0.55 -17.1 0 1 963.02 106.92
  L 956.43 107.28
  A 1.19 1.18 61.7 0 1 955.67 107.05
  C 952.16 104.53 949.26 101.34 945.83 98.92
  C 936.61 92.43 930.34 82.72 923.59 74.14
  Q 922.10 72.26 920.58 71.11
  A 0.79 0.78 3.3 0 0 919.43 72.13
  C 920.61 74.10 925.27 79.33 923.23 81.35
  A 0.41 0.41 0.0 0 1 922.59 81.27
  Q 914.18 67.70 903.87 55.61
  Q 901.19 52.47 896.79 52.88
  A 0.50 0.50 0.0 0 0 896.43 53.68
  Q 901.63 60.71 906.44 68.29
  Q 908.39 71.37 906.60 73.37
  Q 906.24 73.77 905.70 73.78
  L 894.77 74.09
  A 0.72 0.67 24.9 0 0 894.41 74.21
  C 889.87 77.31 885.13 73.55 881.86 69.77
  A 0.87 0.86 -27.4 0 0 880.98 69.50
  C 875.72 70.95 874.00 69.67 869.70 69.11
  Q 868.98 69.02 869.36 69.63
  L 882.91 92.05
  A 0.48 0.48 0.0 0 1 882.32 92.74
  C 876.48 90.32 871.80 80.68 868.38 75.44
  A 0.81 0.80 37.3 0 0 866.94 75.63
  L 866.42 77.25
  A 0.57 0.55 -54.1 0 0 866.49 77.73
  Q 871.79 85.21 876.53 93.04
  C 877.29 94.29 877.46 95.77 875.63 96.06
  A 0.92 0.92 0.0 0 1 874.71 95.66
  L 861.48 75.89
  Q 861.20 75.48 860.71 75.57
  L 850.46 77.47
  A 0.57 0.57 0.0 0 0 850.15 78.42
  Q 854.52 82.98 857.29 88.65
  A 0.78 0.77 64.7 0 1 856.92 89.70
  L 854.24 90.93
  A 0.65 0.65 0.0 0 1 853.42 90.70
  Q 848.26 82.79 841.81 75.90
  Q 841.46 75.53 840.96 75.63
  L 836.26 76.54
  A 0.74 0.74 0.0 0 0 835.86 77.78
  Q 839.91 81.99 842.25 87.35
  Q 842.50 87.93 841.96 88.24
  L 839.58 89.62
  Q 839.10 89.90 838.81 89.42
  C 835.54 84.07 829.75 74.57 824.49 71.24
  A 0.97 0.95 53.9 0 0 823.79 71.12
  Q 822.06 71.51 820.86 72.75
  A 0.76 0.76 0.0 0 0 820.79 73.72
  L 827.84 83.54
  A 0.81 0.80 50.3 0 1 827.75 84.59
  Q 825.99 86.29 825.49 88.68
  A 0.40 0.40 0.0 0 1 824.75 88.80
  Q 818.79 78.64 811.23 69.60
  Q 810.88 69.19 810.35 69.22
  C 798.87 69.98 806.95 79.45 809.40 83.65
  A 1.00 1.00 0.0 0 1 807.88 84.92
  L 803.59 81.25
  Q 803.25 80.96 802.80 81.00
  Q 799.95 81.27 798.77 78.54
  Q 798.54 78.01 797.97 77.91
  L 794.09 77.20
  Q 793.34 77.07 793.52 77.81
  Q 794.20 80.55 794.97 83.26
  Q 795.61 85.50 793.37 84.85
  A 1.87 1.84 84.1 0 1 792.23 83.91
  L 784.78 69.46
  Q 784.24 68.41 783.16 68.91
  Q 781.07 69.89 780.30 71.98
  Q 780.12 72.45 780.31 72.92
  L 783.84 81.43
  A 1.50 1.48 -20.5 0 1 782.93 83.41
  Q 781.47 83.90 780.44 82.03
  Q 779.90 81.05 776.95 78.25
  Q 776.59 77.91 776.11 78.00
  Q 760.31 81.07 744.26 82.24
  C 737.48 82.73 730.24 86.05 723.52 87.66
  C 721.91 88.04 720.64 89.01 720.27 90.54
  A 2.06 2.05 3.1 0 1 718.53 92.10
  Q 711.02 93.08 703.19 94.48
  C 701.53 94.77 700.34 95.91 699.00 96.85
  A 0.46 0.46 0.0 0 0 698.94 97.56
  L 699.55 98.18
  Q 699.87 98.49 699.55 98.81
  C 698.08 100.30 695.25 100.91 694.01 98.77
  Q 693.81 98.42 693.45 98.24
  L 690.60 96.88
  A 0.74 0.73 -77.1 0 1 690.19 96.22
  Q 690.21 91.48 686.56 89.01
  Q 686.14 88.73 686.01 88.25
  C 684.81 83.77 683.76 79.88 682.01 75.32
  Q 680.92 72.47 681.28 69.28
  A 0.32 0.32 0.0 0 0 681.13 68.96
  L 680.81 68.77
  Q 680.16 68.38 680.15 69.14
  Q 680.06 79.83 682.48 90.25
  Q 682.88 91.95 681.41 91.62
  A 1.07 1.06 0.4 0 1 680.60 90.80
  Q 679.24 84.39 677.87 79.42
  Q 677.08 76.58 674.16 76.71
  A 2.87 2.86 -6.0 0 0 671.46 80.03
  L 673.38 91.84
  Q 673.48 92.46 672.86 92.50
  Q 671.58 92.60 670.70 91.84
  Q 670.32 91.51 670.30 91.00
  L 670.16 87.02
  A 0.41 0.41 0.0 0 0 669.40 86.83
  Q 666.74 91.25 663.07 88.18
  A 1.10 1.09 -71.2 0 0 661.27 89.07
  Q 661.37 91.58 660.13 93.90
  A 1.75 1.75 0.0 0 1 657.02 93.85
  L 650.65 81.03
  A 0.69 0.69 0.0 0 0 649.35 81.21
  Q 648.95 83.34 647.23 84.63
  Q 646.76 84.98 646.54 84.44
  L 643.63 77.30
  Q 643.34 76.60 642.59 76.67
  L 638.81 76.99
  Q 637.88 77.07 638.15 77.96
  L 638.91 80.42
  A 1.02 1.02 0.0 0 1 637.61 81.69
  Q 635.47 80.97 634.09 79.17
  A 1.00 0.99 -24.4 0 0 633.09 78.80
  L 616.79 82.15
  A 0.53 0.51 -72.7 0 0 616.50 82.31
  L 613.17 86.02
  Q 612.59 86.67 612.30 85.85
  L 605.42 66.09
  Q 605.21 65.50 604.58 65.50
  L 595.44 65.54
  Q 593.07 65.54 593.63 67.84
  L 595.46 75.30
  Q 595.59 75.84 595.17 76.21
  Q 594.28 77.01 593.14 76.50
  Q 592.65 76.29 592.44 75.80
  L 590.34 70.88
  Q 590.06 70.25 589.38 70.25
  L 584.41 70.25
  A 1.55 1.54 -0.9 0 0 582.86 71.84
  L 583.23 84.41
  A 0.57 0.57 0.0 0 1 582.42 84.94
  Q 581.48 84.49 581.47 83.24
  Q 581.45 80.11 580.22 77.28
  A 0.47 0.47 0.0 0 0 579.42 77.19
  Q 577.38 79.97 576.78 83.36
  Q 576.69 83.87 576.37 84.30
  L 569.59 93.28
  A 1.67 1.66 40.8 0 1 567.10 93.46
  L 564.70 91.09
  A 0.72 0.71 68.2 0 0 564.22 90.88
  Q 562.96 90.81 562.98 89.24
  Q 563.11 79.88 563.99 70.65
  A 0.92 0.92 0.0 0 0 563.06 69.64
  L 546.53 69.87
  A 1.12 1.10 -66.9 0 0 545.80 70.17
  C 542.71 73.05 543.64 76.44 543.78 80.00
  Q 543.80 80.54 543.28 80.70
  C 541.12 81.37 541.11 78.79 540.81 77.52
  Q 540.68 76.99 540.13 77.00
  L 528.36 77.22
  Q 527.92 77.23 527.86 77.66
  L 527.11 83.38
  A 1.84 1.84 0.0 0 1 525.65 84.95
  Q 522.89 85.50 523.42 82.48
  Q 524.49 76.42 524.22 70.12
  A 0.79 0.78 -9.5 0 0 523.21 69.40
  Q 521.72 69.86 521.46 71.78
  Q 520.24 81.09 520.20 91.91
  A 0.57 0.57 0.0 0 1 519.22 92.31
  L 517.35 90.44
  Q 517.00 90.09 517.00 89.60
  L 517.00 72.99
  A 3.05 3.05 0.0 0 0 513.69 69.95
  C 511.68 70.12 509.33 69.99 507.17 70.08
  Q 505.51 70.16 504.97 68.89
  A 0.86 0.86 0.0 0 0 503.32 69.25
  L 503.95 89.57
  A 0.83 0.83 0.0 0 1 503.17 90.43
  L 499.61 90.66
  Q 498.96 90.70 498.90 90.05
  L 497.00 70.92
  Q 496.93 70.23 496.24 70.25
  L 491.68 70.33
  A 2.36 2.36 0.0 0 0 489.37 72.82
  L 490.18 87.86
  A 1.17 1.16 -3.5 0 1 489.09 89.08
  Q 485.51 89.33 482.35 91.20
  C 478.49 93.47 474.99 94.38 471.12 97.16
  Q 466.47 100.50 460.32 99.59
  C 456.61 99.05 458.83 94.52 457.44 92.20
  Q 456.52 90.64 454.67 91.64
  A 0.66 0.66 0.0 0 1 453.70 91.00
  L 455.14 76.48
  A 0.99 0.98 80.2 0 0 453.74 75.49
  Q 451.01 76.79 448.35 75.40
  A 0.85 0.85 0.0 0 0 447.12 75.97
  L 443.23 93.53
  A 0.85 0.85 0.0 0 1 441.56 93.48
  Q 440.95 89.68 441.76 85.92
  A 1.51 1.50 -5.0 0 0 439.72 84.21
  Q 437.57 85.08 435.49 84.22
  A 0.65 0.64 -61.5 0 0 434.70 84.46
  Q 431.77 88.86 431.61 94.02
  A 1.45 1.45 0.0 0 1 429.47 95.25
  L 428.27 94.61
  Q 427.71 94.31 427.88 93.70
  L 432.40 77.08
  A 0.91 0.91 0.0 0 0 431.54 75.94
  L 411.74 75.73
  Q 411.18 75.73 410.94 76.23
  Q 406.17 86.33 403.11 97.06
  C 402.40 99.55 400.73 101.20 398.63 102.40
  C 393.73 105.20 389.59 100.79 385.04 99.74
  C 382.36 99.12 371.56 95.92 371.30 92.67
  Q 370.99 88.60 371.63 85.29
  Q 371.88 83.96 370.54 83.77
  Q 366.60 83.19 363.05 84.91
  Q 362.59 85.13 362.40 85.62
  L 359.05 94.44
  A 0.76 0.76 0.0 0 1 357.60 94.01
  Q 359.94 83.13 365.03 73.24
  A 0.80 0.80 0.0 0 0 363.91 72.19
  C 359.61 74.72 352.50 94.45 350.39 99.85
  A 1.01 0.99 7.5 0 1 349.55 100.48
  L 342.23 101.14
  Q 341.60 101.20 341.28 100.65
  Q 339.19 96.98 340.26 94.00
  Q 341.76 89.90 347.65 77.48
  C 349.28 74.05 343.36 72.18 341.90 75.42
  Q 338.29 83.49 334.36 91.40
  Q 333.86 92.42 333.12 91.76
  A 0.80 0.80 0.0 0 1 332.91 90.85
  L 340.65 72.10
  A 0.73 0.72 22.6 0 0 340.26 71.16
  Q 336.97 69.78 333.96 71.59
  Q 333.48 71.88 333.30 72.42
  Q 332.25 75.61 331.21 78.82
  Q 331.03 79.39 330.74 79.60
  Q 330.33 79.90 329.86 79.75
  Q 329.41 79.62 329.53 79.16
  L 336.45 54.39
  A 1.16 1.16 0.0 0 0 334.49 53.29
  Q 332.75 55.14 331.90 58.02
  C 328.90 68.13 326.26 78.73 322.17 87.97
  Q 315.42 103.23 306.44 117.35
  Q 306.31 117.54 306.12 117.66
  Q 305.88 117.80 305.76 117.85
  A 0.50 0.49 2.4 0 1 305.13 117.17
  C 312.09 103.96 319.43 92.01 324.42 77.74
  A 0.98 0.97 -80.7 0 0 323.49 76.44
  L 317.84 76.53
  A 0.70 0.69 -83.4 0 0 317.18 77.06
  Q 314.28 88.59 308.08 98.66
  C 307.25 100.02 305.96 101.10 304.96 102.45
  A 1.38 1.38 0.0 0 1 304.14 102.98
  C 301.80 103.47 300.19 101.80 298.54 101.39
  Q 293.76 100.20 288.65 101.57
  A 1.56 1.55 83.8 0 1 286.69 99.99
  Q 286.85 96.82 284.73 94.65
  A 2.27 2.26 32.6 0 1 284.21 92.31
  C 286.61 85.57 289.58 79.20 289.31 72.00
  A 1.95 1.95 0.0 0 0 286.74 70.22
  Q 283.29 71.37 279.68 70.57
  A 1.60 1.60 0.0 0 0 277.81 71.64
  Q 274.44 82.00 269.88 92.23
  C 269.22 93.69 267.99 94.78 266.39 94.42
  Q 265.19 94.16 265.66 93.02
  L 273.87 73.20
  Q 274.46 71.78 273.06 71.15
  C 269.86 69.73 266.87 69.87 265.03 73.24
  Q 259.93 82.56 255.63 92.29
  Q 255.19 93.29 254.63 93.58
  Q 253.70 94.06 252.77 93.11
  Q 252.41 92.75 252.67 92.31
  Q 257.52 84.34 260.69 75.54
  A 0.49 0.48 -16.2 0 0 259.85 75.08
  Q 254.21 82.29 250.35 90.62
  Q 250.08 91.21 249.56 90.80
  L 248.61 90.05
  Q 248.22 89.74 247.86 90.09
  C 240.90 96.94 242.59 104.04 229.73 98.86
  Q 229.27 98.67 228.78 98.79
  Q 220.65 100.72 214.96 101.48
  Q 208.91 102.28 208.82 96.23
  A 1.55 1.51 62.1 0 1 209.08 95.34
  L 220.48 78.20
  A 1.01 1.01 0.0 0 0 219.47 76.64
  Q 214.72 77.45 210.70 74.95
  A 0.90 0.89 33.0 0 0 209.49 75.20
  L 199.50 89.65
  Q 199.10 90.23 198.69 89.65
  L 197.61 88.12
  A 0.88 0.88 0.0 0 1 197.58 87.16
  L 203.63 77.09
  A 0.67 0.67 0.0 0 0 202.90 76.09
  C 198.67 77.05 191.15 90.99 188.75 94.99
  Q 188.41 95.55 188.07 95.81
  Q 186.72 96.83 186.38 94.43
  A 1.00 0.97 -33.0 0 1 186.53 93.76
  L 197.51 76.65
  A 1.16 1.15 18.7 0 0 196.63 74.88
  C 193.23 74.61 189.84 74.68 186.57 74.39
  Q 184.95 74.25 184.30 75.55
  Q 178.77 86.61 171.79 94.55
  A 0.58 0.58 0.0 0 1 170.95 94.58
  L 170.65 94.27
  A 0.59 0.59 0.0 0 1 170.74 93.36
  Q 172.57 92.13 171.15 90.51
  A 0.71 0.70 37.0 0 1 171.04 89.74
  L 178.12 75.47
  A 0.72 0.71 8.4 0 0 177.36 74.45
  L 171.13 75.47
  Q 170.59 75.56 170.34 76.05
  Q 166.29 84.05 161.02 91.31
  A 1.10 1.10 0.0 0 1 159.37 91.46
  L 157.69 89.90
  Q 157.23 89.47 157.61 88.96
  Q 162.39 82.43 165.60 74.99
  A 0.53 0.53 0.0 0 0 165.16 74.25
  L 160.30 73.73
  A 0.69 0.68 17.7 0 0 159.63 74.07
  C 156.27 79.67 150.62 90.11 144.85 93.15
  C 140.72 95.32 132.41 96.86 128.51 92.98
  C 125.66 90.14 112.22 98.73 113.83 88.16
  A 1.21 1.20 -81.7 0 0 112.81 86.78
  C 107.59 86.04 100.77 93.22 97.19 96.44
  A 0.54 0.54 0.0 0 1 96.39 95.72
  C 102.28 87.71 109.83 80.34 116.89 73.03
  A 1.35 1.35 0.0 0 0 116.01 70.75
  L 99.07 69.58
  A 0.71 0.70 25.5 0 0 98.55 69.76
  Q 81.61 84.97 65.87 101.38
  A 0.43 0.43 0.0 0 1 65.16 100.90
  Q 66.13 98.75 67.91 96.68
  Q 72.87 90.89 77.69 85.12
  A 0.42 0.42 0.0 0 0 77.45 84.44
  L 71.89 83.22
  A 1.04 1.03 -60.3 0 0 70.93 83.49
  Q 65.22 89.00 59.79 94.79
  C 58.56 96.09 56.16 96.39 54.62 97.73
  Q 52.02 100.00 49.33 102.30
  A 0.70 0.69 -58.3 0 1 48.72 102.45
  L 40.57 100.72
  Q 40.14 100.63 39.87 100.28
  Q 38.59 98.64 39.05 96.52
  A 1.44 1.44 0.0 0 0 37.74 94.79
  Q 33.72 94.51 29.50 95.27
  Q 27.80 95.58 26.95 93.83
  Q 26.75 93.42 26.84 92.98
  C 27.38 90.16 32.47 84.78 34.25 82.27
  A 0.57 0.57 0.0 0 0 33.40 81.52
  Q 26.18 88.16 19.43 94.83
  C 15.90 98.31 12.87 99.64 8.13 99.40
  Q 7.57 99.38 7.51 98.82
  L 7.20 95.96
  Q 7.14 95.43 7.51 95.04
  L 19.15 82.94
  Q 19.23 82.85 19.14 82.77
  Q 19.04 82.67 18.94 82.57
  Q 18.77 82.38 18.57 82.55
  Q 16.58 84.23 14.24 82.90
  A 0.85 0.84 -50.7 0 0 13.25 83.00
  L 0.00 94.64"
/>
<path stroke="#b99d7e" vector-effect="non-scaling-stroke" d="
  M 0.00 79.86
  L 12.64 65.91
  A 0.51 0.51 0.0 0 0 12.10 65.08
  C 7.75 66.49 4.91 74.90 0.00 76.65"
/>
<path stroke="#af9171" vector-effect="non-scaling-stroke" d="
  M 1105.00 137.62
  L 1091.53 125.02
  A 2.39 2.38 50.5 0 0 1088.64 124.74
  Q 1086.88 125.84 1084.82 125.77
  A 0.91 0.91 0.0 0 0 1084.14 127.32
  L 1105.00 148.26"
/>
<path stroke="#af9171" vector-effect="non-scaling-stroke" d="
  M 1105.00 153.59
  Q 1096.48 144.73 1088.73 139.98
  Q 1085.19 137.82 1080.37 139.78
  Q 1079.91 139.97 1079.98 140.46
  L 1080.32 143.03
  A 0.62 0.62 0.0 0 1 1079.20 143.47
  L 1077.18 140.69
  Q 1076.85 140.25 1076.33 140.08
  C 1073.19 139.09 1070.42 137.37 1067.42 140.42
  Q 1067.03 140.82 1067.28 141.33
  L 1067.71 142.15
  A 1.25 1.25 0.0 0 1 1065.74 143.62
  L 1046.59 125.43
  Q 1046.12 124.99 1045.64 125.42
  Q 1044.17 126.74 1042.27 126.03
  A 1.01 1.01 0.0 0 0 1041.23 127.72
  C 1046.49 132.56 1050.50 138.39 1055.39 143.61
  Q 1056.17 144.44 1055.67 145.20
  A 0.60 0.60 0.0 0 1 1054.76 145.30
  L 1034.67 125.85
  A 0.78 0.77 -42.3 0 0 1033.64 125.81
  Q 1032.79 126.52 1033.58 127.43
  Q 1040.80 135.71 1048.23 143.69
  A 0.38 0.38 0.0 0 1 1047.72 144.26
  Q 1041.25 139.52 1035.98 133.45
  Q 1035.53 132.93 1035.05 133.42
  Q 1033.45 135.03 1030.96 134.62
  A 0.62 0.62 0.0 0 0 1030.53 135.76
  Q 1032.85 137.21 1033.61 139.85
  Q 1033.74 140.30 1034.12 140.57
  Q 1035.82 141.77 1036.55 143.70
  A 0.41 0.41 0.0 0 1 1035.92 144.17
  C 1030.52 140.12 1027.07 134.35 1022.79 130.03
  Q 1022.37 129.61 1022.02 130.10
  Q 1021.27 131.17 1020.08 130.56
  Q 1019.62 130.33 1019.10 130.41
  Q 1009.79 131.89 1000.88 128.67
  A 1.10 1.09 -8.0 0 0 999.62 130.34
  L 1010.31 145.04
  A 0.46 0.45 40.7 0 1 1010.35 145.52
  Q 1010.25 145.71 1010.21 145.90
  Q 1010.19 146.01 1010.09 145.96
  L 1008.46 145.17
  Q 1007.73 144.81 1008.14 145.51
  L 1014.04 155.63
  A 1.51 1.50 71.9 0 1 1012.90 157.89
  L 1004.73 158.73
  Q 1004.25 158.78 1003.86 158.49
  C 998.90 154.80 993.96 147.03 989.96 142.12
  A 0.56 0.55 14.8 0 0 989.01 142.67
  C 991.13 148.04 995.77 152.29 998.91 157.14
  A 0.77 0.77 0.0 0 1 998.32 158.33
  C 990.19 158.85 990.25 159.83 985.06 153.31
  Q 975.98 141.90 967.54 130.01
  C 966.82 129.00 965.84 128.34 964.77 129.31
  A 0.88 0.88 0.0 0 0 964.63 130.44
  L 976.19 147.82
  Q 976.34 148.04 976.15 148.22
  L 975.85 148.53
  A 0.77 0.76 -40.0 0 1 974.69 148.43
  Q 970.20 142.20 965.31 136.00
  C 962.30 132.19 960.51 129.42 955.58 131.72
  A 0.60 0.60 0.0 0 0 955.34 132.59
  L 963.31 144.69
  Q 963.48 144.96 963.49 145.76
  Q 963.50 146.20 963.16 146.51
  Q 962.10 147.46 962.84 148.67
  L 968.14 157.33
  A 1.05 1.05 0.0 0 1 967.24 158.93
  Q 958.52 158.91 950.27 161.50
  Q 949.77 161.66 949.38 161.32
  Q 944.00 156.59 940.99 152.25
  C 936.98 146.47 927.85 132.20 923.80 131.45
  Q 918.02 130.39 912.56 131.34
  A 0.71 0.71 0.0 0 0 912.07 132.41
  L 919.18 144.28
  A 1.07 1.06 81.8 0 1 918.00 145.86
  C 916.26 145.41 915.16 144.23 914.17 142.59
  Q 910.60 136.69 905.86 131.80
  A 0.59 0.58 -77.1 0 0 904.89 132.41
  Q 906.95 138.12 910.59 142.99
  A 1.85 1.84 -60.2 0 1 910.94 144.29
  Q 910.54 147.51 912.79 150.00
  A 0.40 0.40 0.0 0 1 912.51 150.67
  Q 911.60 150.72 910.93 149.80
  C 906.47 143.75 903.39 137.04 898.43 131.40
  Q 898.11 131.04 897.62 131.03
  L 885.46 130.89
  A 1.15 1.15 0.0 0 0 884.40 132.52
  Q 887.36 138.94 891.79 144.43
  A 0.88 0.88 0.0 0 1 890.73 145.78
  Q 889.03 144.98 887.68 146.16
  A 0.78 0.78 0.0 0 1 886.69 146.19
  C 882.63 143.07 879.40 135.05 876.87 130.43
  A 0.97 0.96 57.0 0 0 875.44 130.12
  C 873.91 131.29 870.62 130.60 868.75 130.85
  A 1.08 1.08 0.0 0 0 867.99 132.50
  L 875.50 144.18
  Q 875.76 144.58 875.47 144.95
  L 872.94 148.19
  A 0.44 0.43 46.4 0 1 872.24 148.17
  L 856.74 125.06
  Q 856.43 124.59 855.89 124.77
  L 850.73 126.51
  Q 850.07 126.73 850.46 127.30
  L 861.63 143.72
  A 1.15 1.15 0.0 0 1 861.09 145.44
  Q 858.56 146.42 855.92 145.75
  A 1.69 1.66 77.7 0 1 855.03 145.17
  Q 846.84 134.79 840.46 123.21
  Q 840.18 122.70 839.68 122.99
  L 838.46 123.69
  A 0.85 0.81 32.3 0 1 837.96 123.79
  Q 833.49 123.26 830.24 126.22
  Q 829.72 126.70 830.03 127.34
  Q 835.16 137.74 841.60 147.38
  A 1.17 1.17 0.0 0 1 841.46 148.83
  Q 840.78 149.53 840.18 149.09
  Q 839.91 148.89 839.65 148.16
  C 838.81 145.76 835.93 145.39 833.77 144.58
  Q 833.34 144.42 833.24 143.98
  Q 831.64 136.79 824.01 138.80
  Q 823.55 138.92 823.31 139.32
  Q 821.53 142.24 822.99 145.26
  A 0.67 0.67 0.0 0 1 822.77 146.11
  C 821.89 146.74 820.86 146.17 820.35 145.28
  Q 815.14 136.19 810.07 126.99
  Q 809.59 126.12 809.00 125.93
  Q 808.16 125.66 807.32 126.34
  A 0.94 0.94 0.0 0 1 806.49 126.52
  L 804.51 125.98
  A 1.07 1.06 84.4 0 0 803.28 127.48
  L 812.97 147.52
  A 0.67 0.67 0.0 0 1 812.47 148.48
  C 810.05 148.85 807.94 145.13 803.84 145.69
  C 797.60 146.56 791.38 148.16 785.32 148.60
  Q 778.78 149.07 772.23 149.57
  C 770.37 149.71 768.72 149.36 766.98 149.87
  Q 755.25 153.38 741.75 160.26
  Q 736.17 163.11 729.33 162.06
  C 727.71 161.81 726.73 162.41 725.05 162.23
  A 1.61 1.58 31.4 0 0 724.02 162.47
  Q 720.04 164.97 715.55 163.34
  Q 715.05 163.16 714.79 162.70
  Q 714.07 161.40 714.53 160.01
  Q 714.71 159.47 714.58 158.91
  Q 714.00 156.48 712.57 154.46
  Q 712.26 154.02 712.26 153.48
  C 712.21 149.88 712.30 145.00 708.34 144.04
  Q 707.86 143.92 707.67 143.45
  Q 706.52 140.53 705.21 137.67
  C 704.23 135.55 702.12 134.16 701.53 131.53
  A 0.58 0.57 -24.0 0 0 700.64 131.19
  Q 700.47 131.30 700.37 131.53
  Q 700.30 131.71 700.34 131.95
  Q 701.34 139.02 703.88 146.11
  A 0.44 0.44 0.0 0 1 703.30 146.66
  C 702.69 146.40 702.10 145.87 701.83 145.21
  Q 699.87 140.51 697.73 135.79
  A 1.16 1.16 0.0 0 0 697.04 135.17
  Q 694.84 134.45 694.91 132.02
  A 0.81 0.81 0.0 0 0 694.08 131.18
  L 688.36 131.27
  Q 687.38 131.29 687.76 132.19
  Q 689.87 137.25 690.59 142.72
  Q 690.65 143.20 690.46 143.64
  Q 688.91 147.24 689.03 151.22
  A 0.97 0.96 -20.4 0 1 688.67 151.99
  C 683.12 156.58 680.94 146.22 677.61 145.55
  Q 674.81 144.99 675.78 147.75
  Q 677.67 153.11 678.09 158.83
  A 0.75 0.75 0.0 0 1 677.36 159.63
  L 670.87 159.80
  Q 670.24 159.82 669.97 159.25
  C 667.92 155.00 666.30 144.44 660.72 143.36
  C 659.34 143.09 657.86 144.05 656.41 144.42
  A 0.81 0.81 0.0 0 1 655.56 144.11
  L 650.46 137.12
  Q 650.08 136.59 649.53 136.94
  L 642.46 141.34
  A 1.47 1.46 -55.8 0 1 641.45 141.54
  Q 638.69 141.11 636.43 142.62
  Q 635.97 142.93 635.50 142.64
  L 634.52 142.05
  Q 634.02 141.75 633.43 141.73
  L 618.75 141.45
  Q 618.28 141.44 617.98 141.80
  Q 617.39 142.54 616.74 142.37
  Q 616.25 142.25 615.73 141.32
  Q 613.49 137.30 609.11 137.74
  C 606.30 138.03 605.13 137.40 602.85 136.24
  A 1.60 1.60 0.0 0 0 600.54 137.59
  L 600.13 146.38
  Q 600.12 146.69 599.80 146.72
  L 599.30 146.76
  A 0.53 0.53 0.0 0 1 598.73 146.25
  Q 598.54 141.32 596.34 136.90
  A 1.21 1.20 65.6 0 0 594.82 136.32
  C 590.97 137.89 586.12 139.79 584.08 143.57
  Q 580.39 150.40 575.52 156.64
  A 0.82 0.81 29.3 0 1 574.58 156.90
  Q 572.18 155.98 571.31 152.96
  Q 568.11 141.92 566.85 134.47
  Q 566.76 133.97 566.34 133.69
  C 561.50 130.44 544.84 136.26 540.04 138.53
  C 536.83 140.06 534.41 140.21 531.26 139.02
  A 2.11 2.10 -62.2 0 0 528.79 139.79
  Q 527.09 142.24 524.40 143.49
  A 0.54 0.54 0.0 0 1 523.64 142.95
  L 524.30 135.05
  A 1.39 1.39 0.0 0 0 522.24 133.72
  C 518.93 135.57 521.59 141.93 517.72 145.80
  A 0.70 0.70 0.0 0 1 516.53 145.38
  L 515.21 134.39
  Q 515.12 133.62 514.39 133.34
  L 509.65 131.54
  A 0.92 0.90 42.0 0 0 508.93 131.57
  Q 507.08 132.47 504.51 131.76
  C 497.40 129.77 503.83 148.67 493.78 147.81
  Q 493.27 147.76 493.31 147.25
  C 493.66 142.12 494.63 136.05 493.34 131.04
  Q 493.22 130.54 492.70 130.56
  C 487.91 130.68 485.79 134.86 485.20 138.99
  Q 484.37 144.86 482.95 150.67
  Q 482.82 151.16 482.40 151.44
  C 479.32 153.39 477.11 156.29 473.85 157.52
  C 470.73 158.69 467.66 158.79 464.86 160.72
  C 456.95 166.18 450.09 168.57 447.30 156.90
  Q 446.54 153.74 443.97 151.78
  Q 443.56 151.47 443.40 150.98
  Q 441.57 145.48 440.07 139.92
  Q 440.02 139.73 440.08 139.58
  Q 440.13 139.44 440.22 139.37
  Q 440.53 139.11 440.72 139.46
  L 441.01 139.99
  A 0.45 0.45 0.0 0 0 441.85 139.81
  Q 442.37 132.09 434.91 130.94
  Q 434.28 130.85 434.15 131.47
  L 431.25 145.42
  Q 431.13 145.97 430.58 145.89
  Q 428.75 145.66 427.60 144.32
  A 0.77 0.77 0.0 0 1 427.53 143.41
  Q 429.10 140.85 427.06 138.65
  A 0.64 0.64 0.0 0 1 427.24 137.64
  L 428.29 137.09
  Q 428.86 136.79 428.68 136.18
  L 428.29 134.88
  A 0.65 0.64 74.0 0 0 427.50 134.44
  L 423.28 135.61
  A 0.95 0.94 9.9 0 0 422.78 135.96
  C 421.29 137.97 420.11 143.57 419.20 144.40
  Q 418.32 145.21 417.02 144.25
  Q 416.75 144.05 416.75 143.71
  L 416.75 132.98
  A 0.72 0.71 2.6 0 0 416.10 132.27
  C 413.94 132.08 412.18 133.78 410.73 134.18
  Q 407.08 135.15 403.50 134.05
  Q 403.04 133.90 402.54 133.88
  Q 400.52 133.80 400.24 135.63
  A 0.77 0.76 85.8 0 1 399.71 136.25
  C 392.68 138.44 391.46 145.58 388.04 151.33
  C 385.98 154.79 384.53 157.85 381.78 160.86
  Q 381.45 161.22 380.96 161.19
  C 376.28 160.87 373.48 158.39 369.52 157.39
  Q 365.86 156.46 362.18 155.59
  C 356.56 154.26 358.54 151.03 358.02 146.90
  C 357.61 143.62 358.89 140.08 359.51 136.88
  Q 359.61 136.36 359.16 136.09
  Q 356.30 134.40 353.15 135.27
  Q 352.60 135.43 352.06 135.23
  L 351.56 135.04
  Q 351.00 134.83 350.80 135.41
  Q 348.21 142.82 347.01 145.46
  Q 346.65 146.24 345.85 145.96
  Q 345.42 145.81 345.54 145.38
  Q 347.90 136.30 348.80 126.95
  A 1.21 1.21 0.0 0 0 346.78 125.95
  L 345.10 127.49
  Q 344.68 127.88 344.61 128.46
  C 343.86 134.59 342.90 139.60 339.90 145.36
  Q 337.48 150.01 335.27 154.75
  C 333.85 157.78 329.54 160.80 326.40 158.09
  A 1.01 1.00 -65.6 0 1 326.06 157.18
  L 327.25 148.53
  Q 327.36 147.75 326.58 147.66
  Q 325.10 147.48 325.17 145.50
  A 0.74 0.64 -40.7 0 1 325.20 145.30
  Q 327.30 135.21 329.77 125.22
  A 1.41 1.41 0.0 0 0 328.90 123.56
  Q 325.56 122.32 323.98 125.26
  Q 323.77 125.65 323.33 125.69
  L 321.42 125.87
  Q 320.80 125.93 320.66 126.54
  C 319.29 132.37 318.00 139.40 315.37 144.76
  Q 315.15 145.22 314.65 145.26
  C 312.87 145.41 312.31 144.06 312.78 142.50
  Q 314.49 136.81 315.83 131.22
  A 0.90 0.89 81.6 0 0 314.51 130.24
  Q 311.68 131.90 309.02 130.36
  A 1.03 1.02 -63.2 0 0 307.57 130.84
  Q 304.66 137.53 302.80 144.27
  Q 302.18 146.52 299.77 145.15
  Q 299.38 144.94 299.54 144.52
  Q 301.54 139.12 302.80 133.51
  Q 303.32 131.22 301.25 131.15
  A 2.24 2.23 -77.9 0 0 299.11 132.54
  Q 296.62 138.70 294.88 144.91
  Q 294.53 146.19 293.60 146.43
  A 0.92 0.92 0.0 0 1 292.49 145.27
  L 296.28 132.71
  A 1.69 1.68 89.4 0 0 294.15 130.62
  C 287.75 132.69 285.49 138.65 282.94 144.11
  C 282.16 145.77 280.60 146.90 279.80 148.65
  C 278.23 152.12 276.40 158.25 272.19 158.91
  Q 266.12 159.86 257.75 159.75
  C 247.36 159.62 251.00 150.82 252.11 145.09
  C 252.97 140.68 256.99 136.05 259.23 132.10
  A 0.57 0.57 0.0 0 0 258.74 131.25
  L 248.82 131.24
  A 0.82 0.81 -25.9 0 1 248.32 131.07
  L 247.02 130.08
  A 0.60 0.60 0.0 0 0 246.14 130.25
  Q 241.86 137.56 237.56 144.87
  Q 237.04 145.76 235.96 145.47
  A 0.63 0.63 0.0 0 1 235.56 144.57
  Q 238.24 139.42 240.67 134.18
  Q 241.66 132.05 239.27 131.08
  Q 238.83 130.90 238.38 131.03
  Q 236.57 131.55 234.76 131.00
  Q 234.22 130.83 233.83 131.24
  Q 233.04 132.05 232.10 133.59
  Q 223.62 147.44 220.59 152.83
  Q 220.15 153.62 219.28 153.48
  A 0.32 0.32 0.0 0 1 219.04 153.02
  L 228.43 134.97
  A 0.37 0.36 2.1 0 0 227.96 134.47
  C 224.76 135.81 220.84 143.02 218.99 146.05
  Q 218.68 146.56 218.26 146.13
  L 217.63 145.50
  A 0.85 0.84 35.6 0 0 216.28 145.72
  C 214.44 149.43 211.58 156.03 206.62 155.20
  A 2.26 2.25 -71.2 0 1 205.01 151.92
  L 207.60 147.01
  A 1.39 1.39 0.0 0 0 205.31 145.46
  Q 199.77 152.00 195.84 159.57
  Q 195.58 160.06 195.05 159.94
  C 189.39 158.69 183.33 159.41 177.48 159.50
  A 3.05 3.05 0.0 0 1 174.85 154.82
  C 178.38 149.23 184.73 140.73 186.22 133.94
  Q 186.73 131.65 184.40 131.37
  Q 180.43 130.90 176.48 131.41
  Q 176.00 131.47 175.55 131.31
  Q 174.61 130.97 174.03 131.79
  Q 168.48 139.65 162.59 148.18
  A 1.01 1.00 61.6 0 1 160.76 147.63
  L 160.71 145.71
  Q 160.70 145.16 160.98 144.70
  L 166.23 136.25
  A 0.63 0.63 0.0 0 0 165.94 135.34
  C 165.21 135.03 164.39 135.20 163.76 135.77
  Q 160.48 138.72 156.07 144.82
  Q 155.03 146.25 153.94 144.94
  Q 153.68 144.62 153.90 144.27
  L 162.76 130.07
  A 0.93 0.92 -46.5 0 0 162.74 129.07
  C 160.62 125.89 157.30 126.25 153.32 126.79
  A 0.84 0.84 0.0 0 1 152.50 126.41
  Q 151.87 125.42 151.01 125.69
  Q 150.41 125.88 149.64 126.95
  Q 142.01 137.56 134.10 147.85
  A 1.98 1.97 -42.1 0 1 130.85 147.69
  L 130.08 146.43
  Q 129.74 145.89 130.11 145.36
  L 142.61 127.32
  A 0.74 0.74 0.0 0 0 141.79 126.19
  Q 138.26 127.22 135.19 125.37
  Q 134.65 125.04 134.28 125.57
  L 120.50 145.01
  Q 120.22 145.40 119.75 145.43
  L 116.23 145.68
  A 0.77 0.77 0.0 0 1 115.52 144.50
  L 127.96 124.69
  A 0.36 0.36 0.0 0 0 127.43 124.22
  C 126.01 125.41 123.06 127.98 121.40 125.45
  A 0.80 0.79 -44.5 0 0 120.08 125.44
  Q 113.81 134.67 107.79 144.05
  Q 106.19 146.55 104.06 145.23
  Q 103.61 144.94 103.08 145.02
  C 100.30 145.44 96.92 150.41 95.54 152.44
  A 4.15 4.14 12.5 0 1 92.74 154.22
  C 87.58 155.01 81.49 156.76 77.73 151.65
  A 1.32 1.31 -36.0 0 0 75.89 151.37
  C 70.46 155.35 58.97 158.22 66.37 145.85
  C 67.95 143.20 67.24 139.51 63.48 139.64
  C 59.54 139.76 57.28 142.62 55.13 145.55
  A 0.61 0.61 0.0 0 1 54.05 145.06
  Q 54.28 144.03 55.14 142.91
  C 57.89 139.32 63.84 133.04 64.75 128.79
  A 0.62 0.61 -81.8 0 0 64.20 128.04
  C 60.23 127.71 57.18 127.32 52.91 126.43
  C 48.51 125.52 45.38 126.70 42.37 130.26
  Q 32.06 142.46 20.43 153.43
  Q 19.90 153.93 19.10 153.73
  A 0.49 0.49 0.0 0 1 18.85 152.94
  L 33.82 135.51
  Q 34.24 135.02 33.70 134.67
  Q 31.29 133.06 28.83 133.58
  C 25.38 134.32 17.36 143.80 14.52 146.65
  Q 14.18 146.99 13.70 146.93
  Q 10.11 146.49 8.28 149.08
  Q 4.34 154.61 0.00 156.92"
/>
</g>
<path fill="#bca182" d="
  M 0.00 0.00
  L 1105.00 0.00
  L 1105.00 71.99
  Q 1100.54 68.50 1097.70 71.00
  A 1.32 1.32 0.0 0 0 1097.70 72.98
  L 1105.00 79.42
  L 1105.00 81.70
  L 1095.17 72.03
  A 6.71 6.71 0.0 0 0 1090.34 70.10
  C 1088.18 70.13 1077.61 69.26 1078.83 73.83
  Q 1078.97 74.33 1078.73 74.80
  L 1078.03 76.19
  Q 1077.73 76.77 1078.16 77.25
  L 1092.56 93.47
  A 0.64 0.63 46.7 0 1 1092.54 94.34
  L 1092.32 94.56
  A 0.88 0.87 -46.2 0 1 1091.12 94.59
  Q 1081.82 86.18 1073.25 77.03
  C 1071.47 75.14 1069.98 72.21 1067.30 70.35
  Q 1066.91 70.08 1066.44 70.16
  L 1062.14 70.83
  A 1.64 1.64 0.0 0 0 1060.96 73.24
  Q 1062.13 75.37 1064.25 77.51
  Q 1073.58 86.92 1082.66 96.31
  A 0.54 0.54 0.0 0 1 1081.97 97.13
  C 1073.83 91.56 1065.52 82.38 1058.83 75.07
  C 1054.08 69.88 1050.82 66.76 1044.22 71.15
  Q 1042.77 72.11 1043.98 73.38
  L 1062.56 92.82
  Q 1063.09 93.38 1062.51 93.89
  L 1060.43 95.71
  Q 1059.99 96.10 1059.55 95.70
  Q 1045.66 82.91 1032.91 68.98
  A 1.04 1.02 -27.9 0 0 1031.90 68.68
  Q 1028.99 69.38 1027.40 71.96
  Q 1027.12 72.41 1027.47 72.82
  Q 1036.95 83.91 1046.81 94.67
  C 1049.50 97.61 1049.49 100.92 1052.91 103.79
  Q 1053.09 103.94 1053.03 104.16
  Q 1052.99 104.31 1052.93 104.44
  A 0.38 0.38 0.0 0 1 1052.34 104.59
  Q 1044.39 97.97 1036.85 90.88
  C 1035.44 89.55 1034.19 89.27 1032.40 88.77
  Q 1031.90 88.63 1031.68 88.17
  Q 1029.71 83.87 1025.45 81.47
  Q 1025.00 81.22 1024.49 81.31
  L 1022.16 81.75
  Q 1021.40 81.89 1021.78 82.56
  L 1025.81 89.67
  A 0.35 0.34 1.6 0 1 1025.32 90.13
  Q 1022.81 88.52 1021.54 85.78
  Q 1021.32 85.31 1020.82 85.21
  C 1019.17 84.89 1018.19 82.18 1016.36 81.51
  A 1.91 1.91 0.0 0 0 1013.92 83.96
  L 1014.94 86.74
  A 0.69 0.69 0.0 0 1 1013.79 87.46
  C 1010.07 83.65 999.45 69.70 994.01 71.59
  A 0.54 0.54 0.0 0 0 993.85 72.52
  L 995.20 73.60
  Q 995.49 73.83 995.63 74.18
  Q 996.14 75.51 997.65 77.09
  Q 1003.15 82.85 1008.78 89.47
  A 0.67 0.66 -48.2 0 1 1008.82 90.29
  Q 1008.31 91.00 1007.57 90.71
  Q 1007.16 90.56 1006.70 89.96
  Q 998.81 79.80 988.71 71.41
  A 0.25 0.25 0.0 0 0 988.30 71.56
  L 988.25 71.95
  Q 988.19 72.38 988.48 72.70
  L 1004.45 90.05
  A 0.47 0.47 0.0 0 1 1003.93 90.80
  Q 1002.68 90.29 1001.47 89.03
  C 997.08 84.45 992.67 79.34 987.29 75.96
  A 0.95 0.92 43.2 0 0 986.26 75.98
  Q 984.87 76.95 983.26 76.46
  A 0.32 0.32 0.0 0 0 982.95 77.00
  Q 991.71 84.96 998.84 94.45
  A 0.45 0.45 0.0 0 1 998.16 95.04
  Q 997.74 94.64 997.11 93.88
  Q 988.78 83.97 978.71 75.62
  A 0.78 0.77 -42.2 0 0 977.77 75.58
  Q 975.22 77.34 972.42 75.98
  Q 971.94 75.74 971.41 75.88
  Q 966.67 77.08 961.83 76.62
  A 1.14 1.14 0.0 0 0 960.92 78.57
  Q 968.47 86.05 976.39 93.74
  Q 976.92 94.25 976.95 94.77
  Q 976.99 95.69 976.03 95.67
  A 1.10 1.09 73.6 0 0 975.11 97.37
  L 979.56 104.14
  A 1.54 1.53 72.3 0 1 978.33 106.52
  L 968.29 106.83
  A 1.51 1.48 -26.6 0 1 967.36 106.53
  Q 962.83 102.99 959.59 97.68
  Q 958.16 95.33 955.79 93.09
  Q 955.44 92.76 954.97 92.71
  Q 953.55 92.57 953.47 93.67
  Q 953.44 94.20 953.83 94.55
  Q 959.51 99.60 963.47 106.08
  A 0.56 0.55 -17.1 0 1 963.02 106.92
  L 956.43 107.28
  A 1.19 1.18 61.7 0 1 955.67 107.05
  C 952.16 104.53 949.26 101.34 945.83 98.92
  C 936.61 92.43 930.34 82.72 923.59 74.14
  Q 922.10 72.26 920.58 71.11
  A 0.79 0.78 3.3 0 0 919.43 72.13
  C 920.61 74.10 925.27 79.33 923.23 81.35
  A 0.41 0.41 0.0 0 1 922.59 81.27
  Q 914.18 67.70 903.87 55.61
  Q 901.19 52.47 896.79 52.88
  A 0.50 0.50 0.0 0 0 896.43 53.68
  Q 901.63 60.71 906.44 68.29
  Q 908.39 71.37 906.60 73.37
  Q 906.24 73.77 905.70 73.78
  L 894.77 74.09
  A 0.72 0.67 24.9 0 0 894.41 74.21
  C 889.87 77.31 885.13 73.55 881.86 69.77
  A 0.87 0.86 -27.4 0 0 880.98 69.50
  C 875.72 70.95 874.00 69.67 869.70 69.11
  Q 868.98 69.02 869.36 69.63
  L 882.91 92.05
  A 0.48 0.48 0.0 0 1 882.32 92.74
  C 876.48 90.32 871.80 80.68 868.38 75.44
  A 0.81 0.80 37.3 0 0 866.94 75.63
  L 866.42 77.25
  A 0.57 0.55 -54.1 0 0 866.49 77.73
  Q 871.79 85.21 876.53 93.04
  C 877.29 94.29 877.46 95.77 875.63 96.06
  A 0.92 0.92 0.0 0 1 874.71 95.66
  L 861.48 75.89
  Q 861.20 75.48 860.71 75.57
  L 850.46 77.47
  A 0.57 0.57 0.0 0 0 850.15 78.42
  Q 854.52 82.98 857.29 88.65
  A 0.78 0.77 64.7 0 1 856.92 89.70
  L 854.24 90.93
  A 0.65 0.65 0.0 0 1 853.42 90.70
  Q 848.26 82.79 841.81 75.90
  Q 841.46 75.53 840.96 75.63
  L 836.26 76.54
  A 0.74 0.74 0.0 0 0 835.86 77.78
  Q 839.91 81.99 842.25 87.35
  Q 842.50 87.93 841.96 88.24
  L 839.58 89.62
  Q 839.10 89.90 838.81 89.42
  C 835.54 84.07 829.75 74.57 824.49 71.24
  A 0.97 0.95 53.9 0 0 823.79 71.12
  Q 822.06 71.51 820.86 72.75
  A 0.76 0.76 0.0 0 0 820.79 73.72
  L 827.84 83.54
  A 0.81 0.80 50.3 0 1 827.75 84.59
  Q 825.99 86.29 825.49 88.68
  A 0.40 0.40 0.0 0 1 824.75 88.80
  Q 818.79 78.64 811.23 69.60
  Q 810.88 69.19 810.35 69.22
  C 798.87 69.98 806.95 79.45 809.40 83.65
  A 1.00 1.00 0.0 0 1 807.88 84.92
  L 803.59 81.25
  Q 803.25 80.96 802.80 81.00
  Q 799.95 81.27 798.77 78.54
  Q 798.54 78.01 797.97 77.91
  L 794.09 77.20
  Q 793.34 77.07 793.52 77.81
  Q 794.20 80.55 794.97 83.26
  Q 795.61 85.50 793.37 84.85
  A 1.87 1.84 84.1 0 1 792.23 83.91
  L 784.78 69.46
  Q 784.24 68.41 783.16 68.91
  Q 781.07 69.89 780.30 71.98
  Q 780.12 72.45 780.31 72.92
  L 783.84 81.43
  A 1.50 1.48 -20.5 0 1 782.93 83.41
  Q 781.47 83.90 780.44 82.03
  Q 779.90 81.05 776.95 78.25
  Q 776.59 77.91 776.11 78.00
  Q 760.31 81.07 744.26 82.24
  C 737.48 82.73 730.24 86.05 723.52 87.66
  C 721.91 88.04 720.64 89.01 720.27 90.54
  A 2.06 2.05 3.1 0 1 718.53 92.10
  Q 711.02 93.08 703.19 94.48
  C 701.53 94.77 700.34 95.91 699.00 96.85
  A 0.46 0.46 0.0 0 0 698.94 97.56
  L 699.55 98.18
  Q 699.87 98.49 699.55 98.81
  C 698.08 100.30 695.25 100.91 694.01 98.77
  Q 693.81 98.42 693.45 98.24
  L 690.60 96.88
  A 0.74 0.73 -77.1 0 1 690.19 96.22
  Q 690.21 91.48 686.56 89.01
  Q 686.14 88.73 686.01 88.25
  C 684.81 83.77 683.76 79.88 682.01 75.32
  Q 680.92 72.47 681.28 69.28
  A 0.32 0.32 0.0 0 0 681.13 68.96
  L 680.81 68.77
  Q 680.16 68.38 680.15 69.14
  Q 680.06 79.83 682.48 90.25
  Q 682.88 91.95 681.41 91.62
  A 1.07 1.06 0.4 0 1 680.60 90.80
  Q 679.24 84.39 677.87 79.42
  Q 677.08 76.58 674.16 76.71
  A 2.87 2.86 -6.0 0 0 671.46 80.03
  L 673.38 91.84
  Q 673.48 92.46 672.86 92.50
  Q 671.58 92.60 670.70 91.84
  Q 670.32 91.51 670.30 91.00
  L 670.16 87.02
  A 0.41 0.41 0.0 0 0 669.40 86.83
  Q 666.74 91.25 663.07 88.18
  A 1.10 1.09 -71.2 0 0 661.27 89.07
  Q 661.37 91.58 660.13 93.90
  A 1.75 1.75 0.0 0 1 657.02 93.85
  L 650.65 81.03
  A 0.69 0.69 0.0 0 0 649.35 81.21
  Q 648.95 83.34 647.23 84.63
  Q 646.76 84.98 646.54 84.44
  L 643.63 77.30
  Q 643.34 76.60 642.59 76.67
  L 638.81 76.99
  Q 637.88 77.07 638.15 77.96
  L 638.91 80.42
  A 1.02 1.02 0.0 0 1 637.61 81.69
  Q 635.47 80.97 634.09 79.17
  A 1.00 0.99 -24.4 0 0 633.09 78.80
  L 616.79 82.15
  A 0.53 0.51 -72.7 0 0 616.50 82.31
  L 613.17 86.02
  Q 612.59 86.67 612.30 85.85
  L 605.42 66.09
  Q 605.21 65.50 604.58 65.50
  L 595.44 65.54
  Q 593.07 65.54 593.63 67.84
  L 595.46 75.30
  Q 595.59 75.84 595.17 76.21
  Q 594.28 77.01 593.14 76.50
  Q 592.65 76.29 592.44 75.80
  L 590.34 70.88
  Q 590.06 70.25 589.38 70.25
  L 584.41 70.25
  A 1.55 1.54 -0.9 0 0 582.86 71.84
  L 583.23 84.41
  A 0.57 0.57 0.0 0 1 582.42 84.94
  Q 581.48 84.49 581.47 83.24
  Q 581.45 80.11 580.22 77.28
  A 0.47 0.47 0.0 0 0 579.42 77.19
  Q 577.38 79.97 576.78 83.36
  Q 576.69 83.87 576.37 84.30
  L 569.59 93.28
  A 1.67 1.66 40.8 0 1 567.10 93.46
  L 564.70 91.09
  A 0.72 0.71 68.2 0 0 564.22 90.88
  Q 562.96 90.81 562.98 89.24
  Q 563.11 79.88 563.99 70.65
  A 0.92 0.92 0.0 0 0 563.06 69.64
  L 546.53 69.87
  A 1.12 1.10 -66.9 0 0 545.80 70.17
  C 542.71 73.05 543.64 76.44 543.78 80.00
  Q 543.80 80.54 543.28 80.70
  C 541.12 81.37 541.11 78.79 540.81 77.52
  Q 540.68 76.99 540.13 77.00
  L 528.36 77.22
  Q 527.92 77.23 527.86 77.66
  L 527.11 83.38
  A 1.84 1.84 0.0 0 1 525.65 84.95
  Q 522.89 85.50 523.42 82.48
  Q 524.49 76.42 524.22 70.12
  A 0.79 0.78 -9.5 0 0 523.21 69.40
  Q 521.72 69.86 521.46 71.78
  Q 520.24 81.09 520.20 91.91
  A 0.57 0.57 0.0 0 1 519.22 92.31
  L 517.35 90.44
  Q 517.00 90.09 517.00 89.60
  L 517.00 72.99
  A 3.05 3.05 0.0 0 0 513.69 69.95
  C 511.68 70.12 509.33 69.99 507.17 70.08
  Q 505.51 70.16 504.97 68.89
  A 0.86 0.86 0.0 0 0 503.32 69.25
  L 503.95 89.57
  A 0.83 0.83 0.0 0 1 503.17 90.43
  L 499.61 90.66
  Q 498.96 90.70 498.90 90.05
  L 497.00 70.92
  Q 496.93 70.23 496.24 70.25
  L 491.68 70.33
  A 2.36 2.36 0.0 0 0 489.37 72.82
  L 490.18 87.86
  A 1.17 1.16 -3.5 0 1 489.09 89.08
  Q 485.51 89.33 482.35 91.20
  C 478.49 93.47 474.99 94.38 471.12 97.16
  Q 466.47 100.50 460.32 99.59
  C 456.61 99.05 458.83 94.52 457.44 92.20
  Q 456.52 90.64 454.67 91.64
  A 0.66 0.66 0.0 0 1 453.70 91.00
  L 455.14 76.48
  A 0.99 0.98 80.2 0 0 453.74 75.49
  Q 451.01 76.79 448.35 75.40
  A 0.85 0.85 0.0 0 0 447.12 75.97
  L 443.23 93.53
  A 0.85 0.85 0.0 0 1 441.56 93.48
  Q 440.95 89.68 441.76 85.92
  A 1.51 1.50 -5.0 0 0 439.72 84.21
  Q 437.57 85.08 435.49 84.22
  A 0.65 0.64 -61.5 0 0 434.70 84.46
  Q 431.77 88.86 431.61 94.02
  A 1.45 1.45 0.0 0 1 429.47 95.25
  L 428.27 94.61
  Q 427.71 94.31 427.88 93.70
  L 432.40 77.08
  A 0.91 0.91 0.0 0 0 431.54 75.94
  L 411.74 75.73
  Q 411.18 75.73 410.94 76.23
  Q 406.17 86.33 403.11 97.06
  C 402.40 99.55 400.73 101.20 398.63 102.40
  C 393.73 105.20 389.59 100.79 385.04 99.74
  C 382.36 99.12 371.56 95.92 371.30 92.67
  Q 370.99 88.60 371.63 85.29
  Q 371.88 83.96 370.54 83.77
  Q 366.60 83.19 363.05 84.91
  Q 362.59 85.13 362.40 85.62
  L 359.05 94.44
  A 0.76 0.76 0.0 0 1 357.60 94.01
  Q 359.94 83.13 365.03 73.24
  A 0.80 0.80 0.0 0 0 363.91 72.19
  C 359.61 74.72 352.50 94.45 350.39 99.85
  A 1.01 0.99 7.5 0 1 349.55 100.48
  L 342.23 101.14
  Q 341.60 101.20 341.28 100.65
  Q 339.19 96.98 340.26 94.00
  Q 341.76 89.90 347.65 77.48
  C 349.28 74.05 343.36 72.18 341.90 75.42
  Q 338.29 83.49 334.36 91.40
  Q 333.86 92.42 333.12 91.76
  A 0.80 0.80 0.0 0 1 332.91 90.85
  L 340.65 72.10
  A 0.73 0.72 22.6 0 0 340.26 71.16
  Q 336.97 69.78 333.96 71.59
  Q 333.48 71.88 333.30 72.42
  Q 332.25 75.61 331.21 78.82
  Q 331.03 79.39 330.74 79.60
  Q 330.33 79.90 329.86 79.75
  Q 329.41 79.62 329.53 79.16
  L 336.45 54.39
  A 1.16 1.16 0.0 0 0 334.49 53.29
  Q 332.75 55.14 331.90 58.02
  C 328.90 68.13 326.26 78.73 322.17 87.97
  Q 315.42 103.23 306.44 117.35
  Q 306.31 117.54 306.12 117.66
  Q 305.88 117.80 305.76 117.85
  A 0.50 0.49 2.4 0 1 305.13 117.17
  C 312.09 103.96 319.43 92.01 324.42 77.74
  A 0.98 0.97 -80.7 0 0 323.49 76.44
  L 317.84 76.53
  A 0.70 0.69 -83.4 0 0 317.18 77.06
  Q 314.28 88.59 308.08 98.66
  C 307.25 100.02 305.96 101.10 304.96 102.45
  A 1.38 1.38 0.0 0 1 304.14 102.98
  C 301.80 103.47 300.19 101.80 298.54 101.39
  Q 293.76 100.20 288.65 101.57
  A 1.56 1.55 83.8 0 1 286.69 99.99
  Q 286.85 96.82 284.73 94.65
  A 2.27 2.26 32.6 0 1 284.21 92.31
  C 286.61 85.57 289.58 79.20 289.31 72.00
  A 1.95 1.95 0.0 0 0 286.74 70.22
  Q 283.29 71.37 279.68 70.57
  A 1.60 1.60 0.0 0 0 277.81 71.64
  Q 274.44 82.00 269.88 92.23
  C 269.22 93.69 267.99 94.78 266.39 94.42
  Q 265.19 94.16 265.66 93.02
  L 273.87 73.20
  Q 274.46 71.78 273.06 71.15
  C 269.86 69.73 266.87 69.87 265.03 73.24
  Q 259.93 82.56 255.63 92.29
  Q 255.19 93.29 254.63 93.58
  Q 253.70 94.06 252.77 93.11
  Q 252.41 92.75 252.67 92.31
  Q 257.52 84.34 260.69 75.54
  A 0.49 0.48 -16.2 0 0 259.85 75.08
  Q 254.21 82.29 250.35 90.62
  Q 250.08 91.21 249.56 90.80
  L 248.61 90.05
  Q 248.22 89.74 247.86 90.09
  C 240.90 96.94 242.59 104.04 229.73 98.86
  Q 229.27 98.67 228.78 98.79
  Q 220.65 100.72 214.96 101.48
  Q 208.91 102.28 208.82 96.23
  A 1.55 1.51 62.1 0 1 209.08 95.34
  L 220.48 78.20
  A 1.01 1.01 0.0 0 0 219.47 76.64
  Q 214.72 77.45 210.70 74.95
  A 0.90 0.89 33.0 0 0 209.49 75.20
  L 199.50 89.65
  Q 199.10 90.23 198.69 89.65
  L 197.61 88.12
  A 0.88 0.88 0.0 0 1 197.58 87.16
  L 203.63 77.09
  A 0.67 0.67 0.0 0 0 202.90 76.09
  C 198.67 77.05 191.15 90.99 188.75 94.99
  Q 188.41 95.55 188.07 95.81
  Q 186.72 96.83 186.38 94.43
  A 1.00 0.97 -33.0 0 1 186.53 93.76
  L 197.51 76.65
  A 1.16 1.15 18.7 0 0 196.63 74.88
  C 193.23 74.61 189.84 74.68 186.57 74.39
  Q 184.95 74.25 184.30 75.55
  Q 178.77 86.61 171.79 94.55
  A 0.58 0.58 0.0 0 1 170.95 94.58
  L 170.65 94.27
  A 0.59 0.59 0.0 0 1 170.74 93.36
  Q 172.57 92.13 171.15 90.51
  A 0.71 0.70 37.0 0 1 171.04 89.74
  L 178.12 75.47
  A 0.72 0.71 8.4 0 0 177.36 74.45
  L 171.13 75.47
  Q 170.59 75.56 170.34 76.05
  Q 166.29 84.05 161.02 91.31
  A 1.10 1.10 0.0 0 1 159.37 91.46
  L 157.69 89.90
  Q 157.23 89.47 157.61 88.96
  Q 162.39 82.43 165.60 74.99
  A 0.53 0.53 0.0 0 0 165.16 74.25
  L 160.30 73.73
  A 0.69 0.68 17.7 0 0 159.63 74.07
  C 156.27 79.67 150.62 90.11 144.85 93.15
  C 140.72 95.32 132.41 96.86 128.51 92.98
  C 125.66 90.14 112.22 98.73 113.83 88.16
  A 1.21 1.20 -81.7 0 0 112.81 86.78
  C 107.59 86.04 100.77 93.22 97.19 96.44
  A 0.54 0.54 0.0 0 1 96.39 95.72
  C 102.28 87.71 109.83 80.34 116.89 73.03
  A 1.35 1.35 0.0 0 0 116.01 70.75
  L 99.07 69.58
  A 0.71 0.70 25.5 0 0 98.55 69.76
  Q 81.61 84.97 65.87 101.38
  A 0.43 0.43 0.0 0 1 65.16 100.90
  Q 66.13 98.75 67.91 96.68
  Q 72.87 90.89 77.69 85.12
  A 0.42 0.42 0.0 0 0 77.45 84.44
  L 71.89 83.22
  A 1.04 1.03 -60.3 0 0 70.93 83.49
  Q 65.22 89.00 59.79 94.79
  C 58.56 96.09 56.16 96.39 54.62 97.73
  Q 52.02 100.00 49.33 102.30
  A 0.70 0.69 -58.3 0 1 48.72 102.45
  L 40.57 100.72
  Q 40.14 100.63 39.87 100.28
  Q 38.59 98.64 39.05 96.52
  A 1.44 1.44 0.0 0 0 37.74 94.79
  Q 33.72 94.51 29.50 95.27
  Q 27.80 95.58 26.95 93.83
  Q 26.75 93.42 26.84 92.98
  C 27.38 90.16 32.47 84.78 34.25 82.27
  A 0.57 0.57 0.0 0 0 33.40 81.52
  Q 26.18 88.16 19.43 94.83
  C 15.90 98.31 12.87 99.64 8.13 99.40
  Q 7.57 99.38 7.51 98.82
  L 7.20 95.96
  Q 7.14 95.43 7.51 95.04
  L 19.15 82.94
  Q 19.23 82.85 19.14 82.77
  Q 19.04 82.67 18.94 82.57
  Q 18.77 82.38 18.57 82.55
  Q 16.58 84.23 14.24 82.90
  A 0.85 0.84 -50.7 0 0 13.25 83.00
  L 0.00 94.64
  L 0.00 79.86
  L 12.64 65.91
  A 0.51 0.51 0.0 0 0 12.10 65.08
  C 7.75 66.49 4.91 74.90 0.00 76.65
  L 0.00 0.00
  Z"
/>
<path fill="#b59979" d="
  M 1105.00 81.70
  L 1105.00 137.62
  L 1091.53 125.02
  A 2.39 2.38 50.5 0 0 1088.64 124.74
  Q 1086.88 125.84 1084.82 125.77
  A 0.91 0.91 0.0 0 0 1084.14 127.32
  L 1105.00 148.26
  L 1105.00 153.59
  Q 1096.48 144.73 1088.73 139.98
  Q 1085.19 137.82 1080.37 139.78
  Q 1079.91 139.97 1079.98 140.46
  L 1080.32 143.03
  A 0.62 0.62 0.0 0 1 1079.20 143.47
  L 1077.18 140.69
  Q 1076.85 140.25 1076.33 140.08
  C 1073.19 139.09 1070.42 137.37 1067.42 140.42
  Q 1067.03 140.82 1067.28 141.33
  L 1067.71 142.15
  A 1.25 1.25 0.0 0 1 1065.74 143.62
  L 1046.59 125.43
  Q 1046.12 124.99 1045.64 125.42
  Q 1044.17 126.74 1042.27 126.03
  A 1.01 1.01 0.0 0 0 1041.23 127.72
  C 1046.49 132.56 1050.50 138.39 1055.39 143.61
  Q 1056.17 144.44 1055.67 145.20
  A 0.60 0.60 0.0 0 1 1054.76 145.30
  L 1034.67 125.85
  A 0.78 0.77 -42.3 0 0 1033.64 125.81
  Q 1032.79 126.52 1033.58 127.43
  Q 1040.80 135.71 1048.23 143.69
  A 0.38 0.38 0.0 0 1 1047.72 144.26
  Q 1041.25 139.52 1035.98 133.45
  Q 1035.53 132.93 1035.05 133.42
  Q 1033.45 135.03 1030.96 134.62
  A 0.62 0.62 0.0 0 0 1030.53 135.76
  Q 1032.85 137.21 1033.61 139.85
  Q 1033.74 140.30 1034.12 140.57
  Q 1035.82 141.77 1036.55 143.70
  A 0.41 0.41 0.0 0 1 1035.92 144.17
  C 1030.52 140.12 1027.07 134.35 1022.79 130.03
  Q 1022.37 129.61 1022.02 130.10
  Q 1021.27 131.17 1020.08 130.56
  Q 1019.62 130.33 1019.10 130.41
  Q 1009.79 131.89 1000.88 128.67
  A 1.10 1.09 -8.0 0 0 999.62 130.34
  L 1010.31 145.04
  A 0.46 0.45 40.7 0 1 1010.35 145.52
  Q 1010.25 145.71 1010.21 145.90
  Q 1010.19 146.01 1010.09 145.96
  L 1008.46 145.17
  Q 1007.73 144.81 1008.14 145.51
  L 1014.04 155.63
  A 1.51 1.50 71.9 0 1 1012.90 157.89
  L 1004.73 158.73
  Q 1004.25 158.78 1003.86 158.49
  C 998.90 154.80 993.96 147.03 989.96 142.12
  A 0.56 0.55 14.8 0 0 989.01 142.67
  C 991.13 148.04 995.77 152.29 998.91 157.14
  A 0.77 0.77 0.0 0 1 998.32 158.33
  C 990.19 158.85 990.25 159.83 985.06 153.31
  Q 975.98 141.90 967.54 130.01
  C 966.82 129.00 965.84 128.34 964.77 129.31
  A 0.88 0.88 0.0 0 0 964.63 130.44
  L 976.19 147.82
  Q 976.34 148.04 976.15 148.22
  L 975.85 148.53
  A 0.77 0.76 -40.0 0 1 974.69 148.43
  Q 970.20 142.20 965.31 136.00
  C 962.30 132.19 960.51 129.42 955.58 131.72
  A 0.60 0.60 0.0 0 0 955.34 132.59
  L 963.31 144.69
  Q 963.48 144.96 963.49 145.76
  Q 963.50 146.20 963.16 146.51
  Q 962.10 147.46 962.84 148.67
  L 968.14 157.33
  A 1.05 1.05 0.0 0 1 967.24 158.93
  Q 958.52 158.91 950.27 161.50
  Q 949.77 161.66 949.38 161.32
  Q 944.00 156.59 940.99 152.25
  C 936.98 146.47 927.85 132.20 923.80 131.45
  Q 918.02 130.39 912.56 131.34
  A 0.71 0.71 0.0 0 0 912.07 132.41
  L 919.18 144.28
  A 1.07 1.06 81.8 0 1 918.00 145.86
  C 916.26 145.41 915.16 144.23 914.17 142.59
  Q 910.60 136.69 905.86 131.80
  A 0.59 0.58 -77.1 0 0 904.89 132.41
  Q 906.95 138.12 910.59 142.99
  A 1.85 1.84 -60.2 0 1 910.94 144.29
  Q 910.54 147.51 912.79 150.00
  A 0.40 0.40 0.0 0 1 912.51 150.67
  Q 911.60 150.72 910.93 149.80
  C 906.47 143.75 903.39 137.04 898.43 131.40
  Q 898.11 131.04 897.62 131.03
  L 885.46 130.89
  A 1.15 1.15 0.0 0 0 884.40 132.52
  Q 887.36 138.94 891.79 144.43
  A 0.88 0.88 0.0 0 1 890.73 145.78
  Q 889.03 144.98 887.68 146.16
  A 0.78 0.78 0.0 0 1 886.69 146.19
  C 882.63 143.07 879.40 135.05 876.87 130.43
  A 0.97 0.96 57.0 0 0 875.44 130.12
  C 873.91 131.29 870.62 130.60 868.75 130.85
  A 1.08 1.08 0.0 0 0 867.99 132.50
  L 875.50 144.18
  Q 875.76 144.58 875.47 144.95
  L 872.94 148.19
  A 0.44 0.43 46.4 0 1 872.24 148.17
  L 856.74 125.06
  Q 856.43 124.59 855.89 124.77
  L 850.73 126.51
  Q 850.07 126.73 850.46 127.30
  L 861.63 143.72
  A 1.15 1.15 0.0 0 1 861.09 145.44
  Q 858.56 146.42 855.92 145.75
  A 1.69 1.66 77.7 0 1 855.03 145.17
  Q 846.84 134.79 840.46 123.21
  Q 840.18 122.70 839.68 122.99
  L 838.46 123.69
  A 0.85 0.81 32.3 0 1 837.96 123.79
  Q 833.49 123.26 830.24 126.22
  Q 829.72 126.70 830.03 127.34
  Q 835.16 137.74 841.60 147.38
  A 1.17 1.17 0.0 0 1 841.46 148.83
  Q 840.78 149.53 840.18 149.09
  Q 839.91 148.89 839.65 148.16
  C 838.81 145.76 835.93 145.39 833.77 144.58
  Q 833.34 144.42 833.24 143.98
  Q 831.64 136.79 824.01 138.80
  Q 823.55 138.92 823.31 139.32
  Q 821.53 142.24 822.99 145.26
  A 0.67 0.67 0.0 0 1 822.77 146.11
  C 821.89 146.74 820.86 146.17 820.35 145.28
  Q 815.14 136.19 810.07 126.99
  Q 809.59 126.12 809.00 125.93
  Q 808.16 125.66 807.32 126.34
  A 0.94 0.94 0.0 0 1 806.49 126.52
  L 804.51 125.98
  A 1.07 1.06 84.4 0 0 803.28 127.48
  L 812.97 147.52
  A 0.67 0.67 0.0 0 1 812.47 148.48
  C 810.05 148.85 807.94 145.13 803.84 145.69
  C 797.60 146.56 791.38 148.16 785.32 148.60
  Q 778.78 149.07 772.23 149.57
  C 770.37 149.71 768.72 149.36 766.98 149.87
  Q 755.25 153.38 741.75 160.26
  Q 736.17 163.11 729.33 162.06
  C 727.71 161.81 726.73 162.41 725.05 162.23
  A 1.61 1.58 31.4 0 0 724.02 162.47
  Q 720.04 164.97 715.55 163.34
  Q 715.05 163.16 714.79 162.70
  Q 714.07 161.40 714.53 160.01
  Q 714.71 159.47 714.58 158.91
  Q 714.00 156.48 712.57 154.46
  Q 712.26 154.02 712.26 153.48
  C 712.21 149.88 712.30 145.00 708.34 144.04
  Q 707.86 143.92 707.67 143.45
  Q 706.52 140.53 705.21 137.67
  C 704.23 135.55 702.12 134.16 701.53 131.53
  A 0.58 0.57 -24.0 0 0 700.64 131.19
  Q 700.47 131.30 700.37 131.53
  Q 700.30 131.71 700.34 131.95
  Q 701.34 139.02 703.88 146.11
  A 0.44 0.44 0.0 0 1 703.30 146.66
  C 702.69 146.40 702.10 145.87 701.83 145.21
  Q 699.87 140.51 697.73 135.79
  A 1.16 1.16 0.0 0 0 697.04 135.17
  Q 694.84 134.45 694.91 132.02
  A 0.81 0.81 0.0 0 0 694.08 131.18
  L 688.36 131.27
  Q 687.38 131.29 687.76 132.19
  Q 689.87 137.25 690.59 142.72
  Q 690.65 143.20 690.46 143.64
  Q 688.91 147.24 689.03 151.22
  A 0.97 0.96 -20.4 0 1 688.67 151.99
  C 683.12 156.58 680.94 146.22 677.61 145.55
  Q 674.81 144.99 675.78 147.75
  Q 677.67 153.11 678.09 158.83
  A 0.75 0.75 0.0 0 1 677.36 159.63
  L 670.87 159.80
  Q 670.24 159.82 669.97 159.25
  C 667.92 155.00 666.30 144.44 660.72 143.36
  C 659.34 143.09 657.86 144.05 656.41 144.42
  A 0.81 0.81 0.0 0 1 655.56 144.11
  L 650.46 137.12
  Q 650.08 136.59 649.53 136.94
  L 642.46 141.34
  A 1.47 1.46 -55.8 0 1 641.45 141.54
  Q 638.69 141.11 636.43 142.62
  Q 635.97 142.93 635.50 142.64
  L 634.52 142.05
  Q 634.02 141.75 633.43 141.73
  L 618.75 141.45
  Q 618.28 141.44 617.98 141.80
  Q 617.39 142.54 616.74 142.37
  Q 616.25 142.25 615.73 141.32
  Q 613.49 137.30 609.11 137.74
  C 606.30 138.03 605.13 137.40 602.85 136.24
  A 1.60 1.60 0.0 0 0 600.54 137.59
  L 600.13 146.38
  Q 600.12 146.69 599.80 146.72
  L 599.30 146.76
  A 0.53 0.53 0.0 0 1 598.73 146.25
  Q 598.54 141.32 596.34 136.90
  A 1.21 1.20 65.6 0 0 594.82 136.32
  C 590.97 137.89 586.12 139.79 584.08 143.57
  Q 580.39 150.40 575.52 156.64
  A 0.82 0.81 29.3 0 1 574.58 156.90
  Q 572.18 155.98 571.31 152.96
  Q 568.11 141.92 566.85 134.47
  Q 566.76 133.97 566.34 133.69
  C 561.50 130.44 544.84 136.26 540.04 138.53
  C 536.83 140.06 534.41 140.21 531.26 139.02
  A 2.11 2.10 -62.2 0 0 528.79 139.79
  Q 527.09 142.24 524.40 143.49
  A 0.54 0.54 0.0 0 1 523.64 142.95
  L 524.30 135.05
  A 1.39 1.39 0.0 0 0 522.24 133.72
  C 518.93 135.57 521.59 141.93 517.72 145.80
  A 0.70 0.70 0.0 0 1 516.53 145.38
  L 515.21 134.39
  Q 515.12 133.62 514.39 133.34
  L 509.65 131.54
  A 0.92 0.90 42.0 0 0 508.93 131.57
  Q 507.08 132.47 504.51 131.76
  C 497.40 129.77 503.83 148.67 493.78 147.81
  Q 493.27 147.76 493.31 147.25
  C 493.66 142.12 494.63 136.05 493.34 131.04
  Q 493.22 130.54 492.70 130.56
  C 487.91 130.68 485.79 134.86 485.20 138.99
  Q 484.37 144.86 482.95 150.67
  Q 482.82 151.16 482.40 151.44
  C 479.32 153.39 477.11 156.29 473.85 157.52
  C 470.73 158.69 467.66 158.79 464.86 160.72
  C 456.95 166.18 450.09 168.57 447.30 156.90
  Q 446.54 153.74 443.97 151.78
  Q 443.56 151.47 443.40 150.98
  Q 441.57 145.48 440.07 139.92
  Q 440.02 139.73 440.08 139.58
  Q 440.13 139.44 440.22 139.37
  Q 440.53 139.11 440.72 139.46
  L 441.01 139.99
  A 0.45 0.45 0.0 0 0 441.85 139.81
  Q 442.37 132.09 434.91 130.94
  Q 434.28 130.85 434.15 131.47
  L 431.25 145.42
  Q 431.13 145.97 430.58 145.89
  Q 428.75 145.66 427.60 144.32
  A 0.77 0.77 0.0 0 1 427.53 143.41
  Q 429.10 140.85 427.06 138.65
  A 0.64 0.64 0.0 0 1 427.24 137.64
  L 428.29 137.09
  Q 428.86 136.79 428.68 136.18
  L 428.29 134.88
  A 0.65 0.64 74.0 0 0 427.50 134.44
  L 423.28 135.61
  A 0.95 0.94 9.9 0 0 422.78 135.96
  C 421.29 137.97 420.11 143.57 419.20 144.40
  Q 418.32 145.21 417.02 144.25
  Q 416.75 144.05 416.75 143.71
  L 416.75 132.98
  A 0.72 0.71 2.6 0 0 416.10 132.27
  C 413.94 132.08 412.18 133.78 410.73 134.18
  Q 407.08 135.15 403.50 134.05
  Q 403.04 133.90 402.54 133.88
  Q 400.52 133.80 400.24 135.63
  A 0.77 0.76 85.8 0 1 399.71 136.25
  C 392.68 138.44 391.46 145.58 388.04 151.33
  C 385.98 154.79 384.53 157.85 381.78 160.86
  Q 381.45 161.22 380.96 161.19
  C 376.28 160.87 373.48 158.39 369.52 157.39
  Q 365.86 156.46 362.18 155.59
  C 356.56 154.26 358.54 151.03 358.02 146.90
  C 357.61 143.62 358.89 140.08 359.51 136.88
  Q 359.61 136.36 359.16 136.09
  Q 356.30 134.40 353.15 135.27
  Q 352.60 135.43 352.06 135.23
  L 351.56 135.04
  Q 351.00 134.83 350.80 135.41
  Q 348.21 142.82 347.01 145.46
  Q 346.65 146.24 345.85 145.96
  Q 345.42 145.81 345.54 145.38
  Q 347.90 136.30 348.80 126.95
  A 1.21 1.21 0.0 0 0 346.78 125.95
  L 345.10 127.49
  Q 344.68 127.88 344.61 128.46
  C 343.86 134.59 342.90 139.60 339.90 145.36
  Q 337.48 150.01 335.27 154.75
  C 333.85 157.78 329.54 160.80 326.40 158.09
  A 1.01 1.00 -65.6 0 1 326.06 157.18
  L 327.25 148.53
  Q 327.36 147.75 326.58 147.66
  Q 325.10 147.48 325.17 145.50
  A 0.74 0.64 -40.7 0 1 325.20 145.30
  Q 327.30 135.21 329.77 125.22
  A 1.41 1.41 0.0 0 0 328.90 123.56
  Q 325.56 122.32 323.98 125.26
  Q 323.77 125.65 323.33 125.69
  L 321.42 125.87
  Q 320.80 125.93 320.66 126.54
  C 319.29 132.37 318.00 139.40 315.37 144.76
  Q 315.15 145.22 314.65 145.26
  C 312.87 145.41 312.31 144.06 312.78 142.50
  Q 314.49 136.81 315.83 131.22
  A 0.90 0.89 81.6 0 0 314.51 130.24
  Q 311.68 131.90 309.02 130.36
  A 1.03 1.02 -63.2 0 0 307.57 130.84
  Q 304.66 137.53 302.80 144.27
  Q 302.18 146.52 299.77 145.15
  Q 299.38 144.94 299.54 144.52
  Q 301.54 139.12 302.80 133.51
  Q 303.32 131.22 301.25 131.15
  A 2.24 2.23 -77.9 0 0 299.11 132.54
  Q 296.62 138.70 294.88 144.91
  Q 294.53 146.19 293.60 146.43
  A 0.92 0.92 0.0 0 1 292.49 145.27
  L 296.28 132.71
  A 1.69 1.68 89.4 0 0 294.15 130.62
  C 287.75 132.69 285.49 138.65 282.94 144.11
  C 282.16 145.77 280.60 146.90 279.80 148.65
  C 278.23 152.12 276.40 158.25 272.19 158.91
  Q 266.12 159.86 257.75 159.75
  C 247.36 159.62 251.00 150.82 252.11 145.09
  C 252.97 140.68 256.99 136.05 259.23 132.10
  A 0.57 0.57 0.0 0 0 258.74 131.25
  L 248.82 131.24
  A 0.82 0.81 -25.9 0 1 248.32 131.07
  L 247.02 130.08
  A 0.60 0.60 0.0 0 0 246.14 130.25
  Q 241.86 137.56 237.56 144.87
  Q 237.04 145.76 235.96 145.47
  A 0.63 0.63 0.0 0 1 235.56 144.57
  Q 238.24 139.42 240.67 134.18
  Q 241.66 132.05 239.27 131.08
  Q 238.83 130.90 238.38 131.03
  Q 236.57 131.55 234.76 131.00
  Q 234.22 130.83 233.83 131.24
  Q 233.04 132.05 232.10 133.59
  Q 223.62 147.44 220.59 152.83
  Q 220.15 153.62 219.28 153.48
  A 0.32 0.32 0.0 0 1 219.04 153.02
  L 228.43 134.97
  A 0.37 0.36 2.1 0 0 227.96 134.47
  C 224.76 135.81 220.84 143.02 218.99 146.05
  Q 218.68 146.56 218.26 146.13
  L 217.63 145.50
  A 0.85 0.84 35.6 0 0 216.28 145.72
  C 214.44 149.43 211.58 156.03 206.62 155.20
  A 2.26 2.25 -71.2 0 1 205.01 151.92
  L 207.60 147.01
  A 1.39 1.39 0.0 0 0 205.31 145.46
  Q 199.77 152.00 195.84 159.57
  Q 195.58 160.06 195.05 159.94
  C 189.39 158.69 183.33 159.41 177.48 159.50
  A 3.05 3.05 0.0 0 1 174.85 154.82
  C 178.38 149.23 184.73 140.73 186.22 133.94
  Q 186.73 131.65 184.40 131.37
  Q 180.43 130.90 176.48 131.41
  Q 176.00 131.47 175.55 131.31
  Q 174.61 130.97 174.03 131.79
  Q 168.48 139.65 162.59 148.18
  A 1.01 1.00 61.6 0 1 160.76 147.63
  L 160.71 145.71
  Q 160.70 145.16 160.98 144.70
  L 166.23 136.25
  A 0.63 0.63 0.0 0 0 165.94 135.34
  C 165.21 135.03 164.39 135.20 163.76 135.77
  Q 160.48 138.72 156.07 144.82
  Q 155.03 146.25 153.94 144.94
  Q 153.68 144.62 153.90 144.27
  L 162.76 130.07
  A 0.93 0.92 -46.5 0 0 162.74 129.07
  C 160.62 125.89 157.30 126.25 153.32 126.79
  A 0.84 0.84 0.0 0 1 152.50 126.41
  Q 151.87 125.42 151.01 125.69
  Q 150.41 125.88 149.64 126.95
  Q 142.01 137.56 134.10 147.85
  A 1.98 1.97 -42.1 0 1 130.85 147.69
  L 130.08 146.43
  Q 129.74 145.89 130.11 145.36
  L 142.61 127.32
  A 0.74 0.74 0.0 0 0 141.79 126.19
  Q 138.26 127.22 135.19 125.37
  Q 134.65 125.04 134.28 125.57
  L 120.50 145.01
  Q 120.22 145.40 119.75 145.43
  L 116.23 145.68
  A 0.77 0.77 0.0 0 1 115.52 144.50
  L 127.96 124.69
  A 0.36 0.36 0.0 0 0 127.43 124.22
  C 126.01 125.41 123.06 127.98 121.40 125.45
  A 0.80 0.79 -44.5 0 0 120.08 125.44
  Q 113.81 134.67 107.79 144.05
  Q 106.19 146.55 104.06 145.23
  Q 103.61 144.94 103.08 145.02
  C 100.30 145.44 96.92 150.41 95.54 152.44
  A 4.15 4.14 12.5 0 1 92.74 154.22
  C 87.58 155.01 81.49 156.76 77.73 151.65
  A 1.32 1.31 -36.0 0 0 75.89 151.37
  C 70.46 155.35 58.97 158.22 66.37 145.85
  C 67.95 143.20 67.24 139.51 63.48 139.64
  C 59.54 139.76 57.28 142.62 55.13 145.55
  A 0.61 0.61 0.0 0 1 54.05 145.06
  Q 54.28 144.03 55.14 142.91
  C 57.89 139.32 63.84 133.04 64.75 128.79
  A 0.62 0.61 -81.8 0 0 64.20 128.04
  C 60.23 127.71 57.18 127.32 52.91 126.43
  C 48.51 125.52 45.38 126.70 42.37 130.26
  Q 32.06 142.46 20.43 153.43
  Q 19.90 153.93 19.10 153.73
  A 0.49 0.49 0.0 0 1 18.85 152.94
  L 33.82 135.51
  Q 34.24 135.02 33.70 134.67
  Q 31.29 133.06 28.83 133.58
  C 25.38 134.32 17.36 143.80 14.52 146.65
  Q 14.18 146.99 13.70 146.93
  Q 10.11 146.49 8.28 149.08
  Q 4.34 154.61 0.00 156.92
  L 0.00 94.64
  L 13.25 83.00
  A 0.85 0.84 -50.7 0 1 14.24 82.90
  Q 16.58 84.23 18.57 82.55
  Q 18.77 82.38 18.94 82.57
  Q 19.04 82.67 19.14 82.77
  Q 19.23 82.85 19.15 82.94
  L 7.51 95.04
  Q 7.14 95.43 7.20 95.96
  L 7.51 98.82
  Q 7.57 99.38 8.13 99.40
  C 12.87 99.64 15.90 98.31 19.43 94.83
  Q 26.18 88.16 33.40 81.52
  A 0.57 0.57 0.0 0 1 34.25 82.27
  C 32.47 84.78 27.38 90.16 26.84 92.98
  Q 26.75 93.42 26.95 93.83
  Q 27.80 95.58 29.50 95.27
  Q 33.72 94.51 37.74 94.79
  A 1.44 1.44 0.0 0 1 39.05 96.52
  Q 38.59 98.64 39.87 100.28
  Q 40.14 100.63 40.57 100.72
  L 48.72 102.45
  A 0.70 0.69 -58.3 0 0 49.33 102.30
  Q 52.02 100.00 54.62 97.73
  C 56.16 96.39 58.56 96.09 59.79 94.79
  Q 65.22 89.00 70.93 83.49
  A 1.04 1.03 -60.3 0 1 71.89 83.22
  L 77.45 84.44
  A 0.42 0.42 0.0 0 1 77.69 85.12
  Q 72.87 90.89 67.91 96.68
  Q 66.13 98.75 65.16 100.90
  A 0.43 0.43 0.0 0 0 65.87 101.38
  Q 81.61 84.97 98.55 69.76
  A 0.71 0.70 25.5 0 1 99.07 69.58
  L 116.01 70.75
  A 1.35 1.35 0.0 0 1 116.89 73.03
  C 109.83 80.34 102.28 87.71 96.39 95.72
  A 0.54 0.54 0.0 0 0 97.19 96.44
  C 100.77 93.22 107.59 86.04 112.81 86.78
  A 1.21 1.20 -81.7 0 1 113.83 88.16
  C 112.22 98.73 125.66 90.14 128.51 92.98
  C 132.41 96.86 140.72 95.32 144.85 93.15
  C 150.62 90.11 156.27 79.67 159.63 74.07
  A 0.69 0.68 17.7 0 1 160.30 73.73
  L 165.16 74.25
  A 0.53 0.53 0.0 0 1 165.60 74.99
  Q 162.39 82.43 157.61 88.96
  Q 157.23 89.47 157.69 89.90
  L 159.37 91.46
  A 1.10 1.10 0.0 0 0 161.02 91.31
  Q 166.29 84.05 170.34 76.05
  Q 170.59 75.56 171.13 75.47
  L 177.36 74.45
  A 0.72 0.71 8.4 0 1 178.12 75.47
  L 171.04 89.74
  A 0.71 0.70 37.0 0 0 171.15 90.51
  Q 172.57 92.13 170.74 93.36
  A 0.59 0.59 0.0 0 0 170.65 94.27
  L 170.95 94.58
  A 0.58 0.58 0.0 0 0 171.79 94.55
  Q 178.77 86.61 184.30 75.55
  Q 184.95 74.25 186.57 74.39
  C 189.84 74.68 193.23 74.61 196.63 74.88
  A 1.16 1.15 18.7 0 1 197.51 76.65
  L 186.53 93.76
  A 1.00 0.97 -33.0 0 0 186.38 94.43
  Q 186.72 96.83 188.07 95.81
  Q 188.41 95.55 188.75 94.99
  C 191.15 90.99 198.67 77.05 202.90 76.09
  A 0.67 0.67 0.0 0 1 203.63 77.09
  L 197.58 87.16
  A 0.88 0.88 0.0 0 0 197.61 88.12
  L 198.69 89.65
  Q 199.10 90.23 199.50 89.65
  L 209.49 75.20
  A 0.90 0.89 33.0 0 1 210.70 74.95
  Q 214.72 77.45 219.47 76.64
  A 1.01 1.01 0.0 0 1 220.48 78.20
  L 209.08 95.34
  A 1.55 1.51 62.1 0 0 208.82 96.23
  Q 208.91 102.28 214.96 101.48
  Q 220.65 100.72 228.78 98.79
  Q 229.27 98.67 229.73 98.86
  C 242.59 104.04 240.90 96.94 247.86 90.09
  Q 248.22 89.74 248.61 90.05
  L 249.56 90.80
  Q 250.08 91.21 250.35 90.62
  Q 254.21 82.29 259.85 75.08
  A 0.49 0.48 -16.2 0 1 260.69 75.54
  Q 257.52 84.34 252.67 92.31
  Q 252.41 92.75 252.77 93.11
  Q 253.70 94.06 254.63 93.58
  Q 255.19 93.29 255.63 92.29
  Q 259.93 82.56 265.03 73.24
  C 266.87 69.87 269.86 69.73 273.06 71.15
  Q 274.46 71.78 273.87 73.20
  L 265.66 93.02
  Q 265.19 94.16 266.39 94.42
  C 267.99 94.78 269.22 93.69 269.88 92.23
  Q 274.44 82.00 277.81 71.64
  A 1.60 1.60 0.0 0 1 279.68 70.57
  Q 283.29 71.37 286.74 70.22
  A 1.95 1.95 0.0 0 1 289.31 72.00
  C 289.58 79.20 286.61 85.57 284.21 92.31
  A 2.27 2.26 32.6 0 0 284.73 94.65
  Q 286.85 96.82 286.69 99.99
  A 1.56 1.55 83.8 0 0 288.65 101.57
  Q 293.76 100.20 298.54 101.39
  C 300.19 101.80 301.80 103.47 304.14 102.98
  A 1.38 1.38 0.0 0 0 304.96 102.45
  C 305.96 101.10 307.25 100.02 308.08 98.66
  Q 314.28 88.59 317.18 77.06
  A 0.70 0.69 -83.4 0 1 317.84 76.53
  L 323.49 76.44
  A 0.98 0.97 -80.7 0 1 324.42 77.74
  C 319.43 92.01 312.09 103.96 305.13 117.17
  A 0.50 0.49 2.4 0 0 305.76 117.85
  Q 305.88 117.80 306.12 117.66
  Q 306.31 117.54 306.44 117.35
  Q 315.42 103.23 322.17 87.97
  C 326.26 78.73 328.90 68.13 331.90 58.02
  Q 332.75 55.14 334.49 53.29
  A 1.16 1.16 0.0 0 1 336.45 54.39
  L 329.53 79.16
  Q 329.41 79.62 329.86 79.75
  Q 330.33 79.90 330.74 79.60
  Q 331.03 79.39 331.21 78.82
  Q 332.25 75.61 333.30 72.42
  Q 333.48 71.88 333.96 71.59
  Q 336.97 69.78 340.26 71.16
  A 0.73 0.72 22.6 0 1 340.65 72.10
  L 332.91 90.85
  A 0.80 0.80 0.0 0 0 333.12 91.76
  Q 333.86 92.42 334.36 91.40
  Q 338.29 83.49 341.90 75.42
  C 343.36 72.18 349.28 74.05 347.65 77.48
  Q 341.76 89.90 340.26 94.00
  Q 339.19 96.98 341.28 100.65
  Q 341.60 101.20 342.23 101.14
  L 349.55 100.48
  A 1.01 0.99 7.5 0 0 350.39 99.85
  C 352.50 94.45 359.61 74.72 363.91 72.19
  A 0.80 0.80 0.0 0 1 365.03 73.24
  Q 359.94 83.13 357.60 94.01
  A 0.76 0.76 0.0 0 0 359.05 94.44
  L 362.40 85.62
  Q 362.59 85.13 363.05 84.91
  Q 366.60 83.19 370.54 83.77
  Q 371.88 83.96 371.63 85.29
  Q 370.99 88.60 371.30 92.67
  C 371.56 95.92 382.36 99.12 385.04 99.74
  C 389.59 100.79 393.73 105.20 398.63 102.40
  C 400.73 101.20 402.40 99.55 403.11 97.06
  Q 406.17 86.33 410.94 76.23
  Q 411.18 75.73 411.74 75.73
  L 431.54 75.94
  A 0.91 0.91 0.0 0 1 432.40 77.08
  L 427.88 93.70
  Q 427.71 94.31 428.27 94.61
  L 429.47 95.25
  A 1.45 1.45 0.0 0 0 431.61 94.02
  Q 431.77 88.86 434.70 84.46
  A 0.65 0.64 -61.5 0 1 435.49 84.22
  Q 437.57 85.08 439.72 84.21
  A 1.51 1.50 -5.0 0 1 441.76 85.92
  Q 440.95 89.68 441.56 93.48
  A 0.85 0.85 0.0 0 0 443.23 93.53
  L 447.12 75.97
  A 0.85 0.85 0.0 0 1 448.35 75.40
  Q 451.01 76.79 453.74 75.49
  A 0.99 0.98 80.2 0 1 455.14 76.48
  L 453.70 91.00
  A 0.66 0.66 0.0 0 0 454.67 91.64
  Q 456.52 90.64 457.44 92.20
  C 458.83 94.52 456.61 99.05 460.32 99.59
  Q 466.47 100.50 471.12 97.16
  C 474.99 94.38 478.49 93.47 482.35 91.20
  Q 485.51 89.33 489.09 89.08
  A 1.17 1.16 -3.5 0 0 490.18 87.86
  L 489.37 72.82
  A 2.36 2.36 0.0 0 1 491.68 70.33
  L 496.24 70.25
  Q 496.93 70.23 497.00 70.92
  L 498.90 90.05
  Q 498.96 90.70 499.61 90.66
  L 503.17 90.43
  A 0.83 0.83 0.0 0 0 503.95 89.57
  L 503.32 69.25
  A 0.86 0.86 0.0 0 1 504.97 68.89
  Q 505.51 70.16 507.17 70.08
  C 509.33 69.99 511.68 70.12 513.69 69.95
  A 3.05 3.05 0.0 0 1 517.00 72.99
  L 517.00 89.60
  Q 517.00 90.09 517.35 90.44
  L 519.22 92.31
  A 0.57 0.57 0.0 0 0 520.20 91.91
  Q 520.24 81.09 521.46 71.78
  Q 521.72 69.86 523.21 69.40
  A 0.79 0.78 -9.5 0 1 524.22 70.12
  Q 524.49 76.42 523.42 82.48
  Q 522.89 85.50 525.65 84.95
  A 1.84 1.84 0.0 0 0 527.11 83.38
  L 527.86 77.66
  Q 527.92 77.23 528.36 77.22
  L 540.13 77.00
  Q 540.68 76.99 540.81 77.52
  C 541.11 78.79 541.12 81.37 543.28 80.70
  Q 543.80 80.54 543.78 80.00
  C 543.64 76.44 542.71 73.05 545.80 70.17
  A 1.12 1.10 -66.9 0 1 546.53 69.87
  L 563.06 69.64
  A 0.92 0.92 0.0 0 1 563.99 70.65
  Q 563.11 79.88 562.98 89.24
  Q 562.96 90.81 564.22 90.88
  A 0.72 0.71 68.2 0 1 564.70 91.09
  L 567.10 93.46
  A 1.67 1.66 40.8 0 0 569.59 93.28
  L 576.37 84.30
  Q 576.69 83.87 576.78 83.36
  Q 577.38 79.97 579.42 77.19
  A 0.47 0.47 0.0 0 1 580.22 77.28
  Q 581.45 80.11 581.47 83.24
  Q 581.48 84.49 582.42 84.94
  A 0.57 0.57 0.0 0 0 583.23 84.41
  L 582.86 71.84
  A 1.55 1.54 -0.9 0 1 584.41 70.25
  L 589.38 70.25
  Q 590.06 70.25 590.34 70.88
  L 592.44 75.80
  Q 592.65 76.29 593.14 76.50
  Q 594.28 77.01 595.17 76.21
  Q 595.59 75.84 595.46 75.30
  L 593.63 67.84
  Q 593.07 65.54 595.44 65.54
  L 604.58 65.50
  Q 605.21 65.50 605.42 66.09
  L 612.30 85.85
  Q 612.59 86.67 613.17 86.02
  L 616.50 82.31
  A 0.53 0.51 -72.7 0 1 616.79 82.15
  L 633.09 78.80
  A 1.00 0.99 -24.4 0 1 634.09 79.17
  Q 635.47 80.97 637.61 81.69
  A 1.02 1.02 0.0 0 0 638.91 80.42
  L 638.15 77.96
  Q 637.88 77.07 638.81 76.99
  L 642.59 76.67
  Q 643.34 76.60 643.63 77.30
  L 646.54 84.44
  Q 646.76 84.98 647.23 84.63
  Q 648.95 83.34 649.35 81.21
  A 0.69 0.69 0.0 0 1 650.65 81.03
  L 657.02 93.85
  A 1.75 1.75 0.0 0 0 660.13 93.90
  Q 661.37 91.58 661.27 89.07
  A 1.10 1.09 -71.2 0 1 663.07 88.18
  Q 666.74 91.25 669.40 86.83
  A 0.41 0.41 0.0 0 1 670.16 87.02
  L 670.30 91.00
  Q 670.32 91.51 670.70 91.84
  Q 671.58 92.60 672.86 92.50
  Q 673.48 92.46 673.38 91.84
  L 671.46 80.03
  A 2.87 2.86 -6.0 0 1 674.16 76.71
  Q 677.08 76.58 677.87 79.42
  Q 679.24 84.39 680.60 90.80
  A 1.07 1.06 0.4 0 0 681.41 91.62
  Q 682.88 91.95 682.48 90.25
  Q 680.06 79.83 680.15 69.14
  Q 680.16 68.38 680.81 68.77
  L 681.13 68.96
  A 0.32 0.32 0.0 0 1 681.28 69.28
  Q 680.92 72.47 682.01 75.32
  C 683.76 79.88 684.81 83.77 686.01 88.25
  Q 686.14 88.73 686.56 89.01
  Q 690.21 91.48 690.19 96.22
  A 0.74 0.73 -77.1 0 0 690.60 96.88
  L 693.45 98.24
  Q 693.81 98.42 694.01 98.77
  C 695.25 100.91 698.08 100.30 699.55 98.81
  Q 699.87 98.49 699.55 98.18
  L 698.94 97.56
  A 0.46 0.46 0.0 0 1 699.00 96.85
  C 700.34 95.91 701.53 94.77 703.19 94.48
  Q 711.02 93.08 718.53 92.10
  A 2.06 2.05 3.1 0 0 720.27 90.54
  C 720.64 89.01 721.91 88.04 723.52 87.66
  C 730.24 86.05 737.48 82.73 744.26 82.24
  Q 760.31 81.07 776.11 78.00
  Q 776.59 77.91 776.95 78.25
  Q 779.90 81.05 780.44 82.03
  Q 781.47 83.90 782.93 83.41
  A 1.50 1.48 -20.5 0 0 783.84 81.43
  L 780.31 72.92
  Q 780.12 72.45 780.30 71.98
  Q 781.07 69.89 783.16 68.91
  Q 784.24 68.41 784.78 69.46
  L 792.23 83.91
  A 1.87 1.84 84.1 0 0 793.37 84.85
  Q 795.61 85.50 794.97 83.26
  Q 794.20 80.55 793.52 77.81
  Q 793.34 77.07 794.09 77.20
  L 797.97 77.91
  Q 798.54 78.01 798.77 78.54
  Q 799.95 81.27 802.80 81.00
  Q 803.25 80.96 803.59 81.25
  L 807.88 84.92
  A 1.00 1.00 0.0 0 0 809.40 83.65
  C 806.95 79.45 798.87 69.98 810.35 69.22
  Q 810.88 69.19 811.23 69.60
  Q 818.79 78.64 824.75 88.80
  A 0.40 0.40 0.0 0 0 825.49 88.68
  Q 825.99 86.29 827.75 84.59
  A 0.81 0.80 50.3 0 0 827.84 83.54
  L 820.79 73.72
  A 0.76 0.76 0.0 0 1 820.86 72.75
  Q 822.06 71.51 823.79 71.12
  A 0.97 0.95 53.9 0 1 824.49 71.24
  C 829.75 74.57 835.54 84.07 838.81 89.42
  Q 839.10 89.90 839.58 89.62
  L 841.96 88.24
  Q 842.50 87.93 842.25 87.35
  Q 839.91 81.99 835.86 77.78
  A 0.74 0.74 0.0 0 1 836.26 76.54
  L 840.96 75.63
  Q 841.46 75.53 841.81 75.90
  Q 848.26 82.79 853.42 90.70
  A 0.65 0.65 0.0 0 0 854.24 90.93
  L 856.92 89.70
  A 0.78 0.77 64.7 0 0 857.29 88.65
  Q 854.52 82.98 850.15 78.42
  A 0.57 0.57 0.0 0 1 850.46 77.47
  L 860.71 75.57
  Q 861.20 75.48 861.48 75.89
  L 874.71 95.66
  A 0.92 0.92 0.0 0 0 875.63 96.06
  C 877.46 95.77 877.29 94.29 876.53 93.04
  Q 871.79 85.21 866.49 77.73
  A 0.57 0.55 -54.1 0 1 866.42 77.25
  L 866.94 75.63
  A 0.81 0.80 37.3 0 1 868.38 75.44
  C 871.80 80.68 876.48 90.32 882.32 92.74
  A 0.48 0.48 0.0 0 0 882.91 92.05
  L 869.36 69.63
  Q 868.98 69.02 869.70 69.11
  C 874.00 69.67 875.72 70.95 880.98 69.50
  A 0.87 0.86 -27.4 0 1 881.86 69.77
  C 885.13 73.55 889.87 77.31 894.41 74.21
  A 0.72 0.67 24.9 0 1 894.77 74.09
  L 905.70 73.78
  Q 906.24 73.77 906.60 73.37
  Q 908.39 71.37 906.44 68.29
  Q 901.63 60.71 896.43 53.68
  A 0.50 0.50 0.0 0 1 896.79 52.88
  Q 901.19 52.47 903.87 55.61
  Q 914.18 67.70 922.59 81.27
  A 0.41 0.41 0.0 0 0 923.23 81.35
  C 925.27 79.33 920.61 74.10 919.43 72.13
  A 0.79 0.78 3.3 0 1 920.58 71.11
  Q 922.10 72.26 923.59 74.14
  C 930.34 82.72 936.61 92.43 945.83 98.92
  C 949.26 101.34 952.16 104.53 955.67 107.05
  A 1.19 1.18 61.7 0 0 956.43 107.28
  L 963.02 106.92
  A 0.56 0.55 -17.1 0 0 963.47 106.08
  Q 959.51 99.60 953.83 94.55
  Q 953.44 94.20 953.47 93.67
  Q 953.55 92.57 954.97 92.71
  Q 955.44 92.76 955.79 93.09
  Q 958.16 95.33 959.59 97.68
  Q 962.83 102.99 967.36 106.53
  A 1.51 1.48 -26.6 0 0 968.29 106.83
  L 978.33 106.52
  A 1.54 1.53 72.3 0 0 979.56 104.14
  L 975.11 97.37
  A 1.10 1.09 73.6 0 1 976.03 95.67
  Q 976.99 95.69 976.95 94.77
  Q 976.92 94.25 976.39 93.74
  Q 968.47 86.05 960.92 78.57
  A 1.14 1.14 0.0 0 1 961.83 76.62
  Q 966.67 77.08 971.41 75.88
  Q 971.94 75.74 972.42 75.98
  Q 975.22 77.34 977.77 75.58
  A 0.78 0.77 -42.2 0 1 978.71 75.62
  Q 988.78 83.97 997.11 93.88
  Q 997.74 94.64 998.16 95.04
  A 0.45 0.45 0.0 0 0 998.84 94.45
  Q 991.71 84.96 982.95 77.00
  A 0.32 0.32 0.0 0 1 983.26 76.46
  Q 984.87 76.95 986.26 75.98
  A 0.95 0.92 43.2 0 1 987.29 75.96
  C 992.67 79.34 997.08 84.45 1001.47 89.03
  Q 1002.68 90.29 1003.93 90.80
  A 0.47 0.47 0.0 0 0 1004.45 90.05
  L 988.48 72.70
  Q 988.19 72.38 988.25 71.95
  L 988.30 71.56
  A 0.25 0.25 0.0 0 1 988.71 71.41
  Q 998.81 79.80 1006.70 89.96
  Q 1007.16 90.56 1007.57 90.71
  Q 1008.31 91.00 1008.82 90.29
  A 0.67 0.66 -48.2 0 0 1008.78 89.47
  Q 1003.15 82.85 997.65 77.09
  Q 996.14 75.51 995.63 74.18
  Q 995.49 73.83 995.20 73.60
  L 993.85 72.52
  A 0.54 0.54 0.0 0 1 994.01 71.59
  C 999.45 69.70 1010.07 83.65 1013.79 87.46
  A 0.69 0.69 0.0 0 0 1014.94 86.74
  L 1013.92 83.96
  A 1.91 1.91 0.0 0 1 1016.36 81.51
  C 1018.19 82.18 1019.17 84.89 1020.82 85.21
  Q 1021.32 85.31 1021.54 85.78
  Q 1022.81 88.52 1025.32 90.13
  A 0.35 0.34 1.6 0 0 1025.81 89.67
  L 1021.78 82.56
  Q 1021.40 81.89 1022.16 81.75
  L 1024.49 81.31
  Q 1025.00 81.22 1025.45 81.47
  Q 1029.71 83.87 1031.68 88.17
  Q 1031.90 88.63 1032.40 88.77
  C 1034.19 89.27 1035.44 89.55 1036.85 90.88
  Q 1044.39 97.97 1052.34 104.59
  A 0.38 0.38 0.0 0 0 1052.93 104.44
  Q 1052.99 104.31 1053.03 104.16
  Q 1053.09 103.94 1052.91 103.79
  C 1049.49 100.92 1049.50 97.61 1046.81 94.67
  Q 1036.95 83.91 1027.47 72.82
  Q 1027.12 72.41 1027.40 71.96
  Q 1028.99 69.38 1031.90 68.68
  A 1.04 1.02 -27.9 0 1 1032.91 68.98
  Q 1045.66 82.91 1059.55 95.70
  Q 1059.99 96.10 1060.43 95.71
  L 1062.51 93.89
  Q 1063.09 93.38 1062.56 92.82
  L 1043.98 73.38
  Q 1042.77 72.11 1044.22 71.15
  C 1050.82 66.76 1054.08 69.88 1058.83 75.07
  C 1065.52 82.38 1073.83 91.56 1081.97 97.13
  A 0.54 0.54 0.0 0 0 1082.66 96.31
  Q 1073.58 86.92 1064.25 77.51
  Q 1062.13 75.37 1060.96 73.24
  A 1.64 1.64 0.0 0 1 1062.14 70.83
  L 1066.44 70.16
  Q 1066.91 70.08 1067.30 70.35
  C 1069.98 72.21 1071.47 75.14 1073.25 77.03
  Q 1081.82 86.18 1091.12 94.59
  A 0.88 0.87 -46.2 0 0 1092.32 94.56
  L 1092.54 94.34
  A 0.64 0.63 46.7 0 0 1092.56 93.47
  L 1078.16 77.25
  Q 1077.73 76.77 1078.03 76.19
  L 1078.73 74.80
  Q 1078.97 74.33 1078.83 73.83
  C 1077.61 69.26 1088.18 70.13 1090.34 70.10
  A 6.71 6.71 0.0 0 1 1095.17 72.03
  L 1105.00 81.70
  Z"
/>
<path fill="#b59979" d="
  M 0.00 79.86
  L 0.00 76.65
  C 4.91 74.90 7.75 66.49 12.10 65.08
  A 0.51 0.51 0.0 0 1 12.64 65.91
  L 0.00 79.86
  Z"
/>
<path fill="#b59979" d="
  M 1105.00 71.99
  L 1105.00 79.42
  L 1097.70 72.98
  A 1.32 1.32 0.0 0 1 1097.70 71.00
  Q 1100.54 68.50 1105.00 71.99
  Z"
/>
<path fill="#a88968" d="
  M 1105.00 153.59
  L 1105.00 209.00
  L 0.00 209.00
  L 0.00 156.92
  Q 4.34 154.61 8.28 149.08
  Q 10.11 146.49 13.70 146.93
  Q 14.18 146.99 14.52 146.65
  C 17.36 143.80 25.38 134.32 28.83 133.58
  Q 31.29 133.06 33.70 134.67
  Q 34.24 135.02 33.82 135.51
  L 18.85 152.94
  A 0.49 0.49 0.0 0 0 19.10 153.73
  Q 19.90 153.93 20.43 153.43
  Q 32.06 142.46 42.37 130.26
  C 45.38 126.70 48.51 125.52 52.91 126.43
  C 57.18 127.32 60.23 127.71 64.20 128.04
  A 0.62 0.61 -81.8 0 1 64.75 128.79
  C 63.84 133.04 57.89 139.32 55.14 142.91
  Q 54.28 144.03 54.05 145.06
  A 0.61 0.61 0.0 0 0 55.13 145.55
  C 57.28 142.62 59.54 139.76 63.48 139.64
  C 67.24 139.51 67.95 143.20 66.37 145.85
  C 58.97 158.22 70.46 155.35 75.89 151.37
  A 1.32 1.31 -36.0 0 1 77.73 151.65
  C 81.49 156.76 87.58 155.01 92.74 154.22
  A 4.15 4.14 12.5 0 0 95.54 152.44
  C 96.92 150.41 100.30 145.44 103.08 145.02
  Q 103.61 144.94 104.06 145.23
  Q 106.19 146.55 107.79 144.05
  Q 113.81 134.67 120.08 125.44
  A 0.80 0.79 -44.5 0 1 121.40 125.45
  C 123.06 127.98 126.01 125.41 127.43 124.22
  A 0.36 0.36 0.0 0 1 127.96 124.69
  L 115.52 144.50
  A 0.77 0.77 0.0 0 0 116.23 145.68
  L 119.75 145.43
  Q 120.22 145.40 120.50 145.01
  L 134.28 125.57
  Q 134.65 125.04 135.19 125.37
  Q 138.26 127.22 141.79 126.19
  A 0.74 0.74 0.0 0 1 142.61 127.32
  L 130.11 145.36
  Q 129.74 145.89 130.08 146.43
  L 130.85 147.69
  A 1.98 1.97 -42.1 0 0 134.10 147.85
  Q 142.01 137.56 149.64 126.95
  Q 150.41 125.88 151.01 125.69
  Q 151.87 125.42 152.50 126.41
  A 0.84 0.84 0.0 0 0 153.32 126.79
  C 157.30 126.25 160.62 125.89 162.74 129.07
  A 0.93 0.92 -46.5 0 1 162.76 130.07
  L 153.90 144.27
  Q 153.68 144.62 153.94 144.94
  Q 155.03 146.25 156.07 144.82
  Q 160.48 138.72 163.76 135.77
  C 164.39 135.20 165.21 135.03 165.94 135.34
  A 0.63 0.63 0.0 0 1 166.23 136.25
  L 160.98 144.70
  Q 160.70 145.16 160.71 145.71
  L 160.76 147.63
  A 1.01 1.00 61.6 0 0 162.59 148.18
  Q 168.48 139.65 174.03 131.79
  Q 174.61 130.97 175.55 131.31
  Q 176.00 131.47 176.48 131.41
  Q 180.43 130.90 184.40 131.37
  Q 186.73 131.65 186.22 133.94
  C 184.73 140.73 178.38 149.23 174.85 154.82
  A 3.05 3.05 0.0 0 0 177.48 159.50
  C 183.33 159.41 189.39 158.69 195.05 159.94
  Q 195.58 160.06 195.84 159.57
  Q 199.77 152.00 205.31 145.46
  A 1.39 1.39 0.0 0 1 207.60 147.01
  L 205.01 151.92
  A 2.26 2.25 -71.2 0 0 206.62 155.20
  C 211.58 156.03 214.44 149.43 216.28 145.72
  A 0.85 0.84 35.6 0 1 217.63 145.50
  L 218.26 146.13
  Q 218.68 146.56 218.99 146.05
  C 220.84 143.02 224.76 135.81 227.96 134.47
  A 0.37 0.36 2.1 0 1 228.43 134.97
  L 219.04 153.02
  A 0.32 0.32 0.0 0 0 219.28 153.48
  Q 220.15 153.62 220.59 152.83
  Q 223.62 147.44 232.10 133.59
  Q 233.04 132.05 233.83 131.24
  Q 234.22 130.83 234.76 131.00
  Q 236.57 131.55 238.38 131.03
  Q 238.83 130.90 239.27 131.08
  Q 241.66 132.05 240.67 134.18
  Q 238.24 139.42 235.56 144.57
  A 0.63 0.63 0.0 0 0 235.96 145.47
  Q 237.04 145.76 237.56 144.87
  Q 241.86 137.56 246.14 130.25
  A 0.60 0.60 0.0 0 1 247.02 130.08
  L 248.32 131.07
  A 0.82 0.81 -25.9 0 0 248.82 131.24
  L 258.74 131.25
  A 0.57 0.57 0.0 0 1 259.23 132.10
  C 256.99 136.05 252.97 140.68 252.11 145.09
  C 251.00 150.82 247.36 159.62 257.75 159.75
  Q 266.12 159.86 272.19 158.91
  C 276.40 158.25 278.23 152.12 279.80 148.65
  C 280.60 146.90 282.16 145.77 282.94 144.11
  C 285.49 138.65 287.75 132.69 294.15 130.62
  A 1.69 1.68 89.4 0 1 296.28 132.71
  L 292.49 145.27
  A 0.92 0.92 0.0 0 0 293.60 146.43
  Q 294.53 146.19 294.88 144.91
  Q 296.62 138.70 299.11 132.54
  A 2.24 2.23 -77.9 0 1 301.25 131.15
  Q 303.32 131.22 302.80 133.51
  Q 301.54 139.12 299.54 144.52
  Q 299.38 144.94 299.77 145.15
  Q 302.18 146.52 302.80 144.27
  Q 304.66 137.53 307.57 130.84
  A 1.03 1.02 -63.2 0 1 309.02 130.36
  Q 311.68 131.90 314.51 130.24
  A 0.90 0.89 81.6 0 1 315.83 131.22
  Q 314.49 136.81 312.78 142.50
  C 312.31 144.06 312.87 145.41 314.65 145.26
  Q 315.15 145.22 315.37 144.76
  C 318.00 139.40 319.29 132.37 320.66 126.54
  Q 320.80 125.93 321.42 125.87
  L 323.33 125.69
  Q 323.77 125.65 323.98 125.26
  Q 325.56 122.32 328.90 123.56
  A 1.41 1.41 0.0 0 1 329.77 125.22
  Q 327.30 135.21 325.20 145.30
  A 0.74 0.64 -40.7 0 0 325.17 145.50
  Q 325.10 147.48 326.58 147.66
  Q 327.36 147.75 327.25 148.53
  L 326.06 157.18
  A 1.01 1.00 -65.6 0 0 326.40 158.09
  C 329.54 160.80 333.85 157.78 335.27 154.75
  Q 337.48 150.01 339.90 145.36
  C 342.90 139.60 343.86 134.59 344.61 128.46
  Q 344.68 127.88 345.10 127.49
  L 346.78 125.95
  A 1.21 1.21 0.0 0 1 348.80 126.95
  Q 347.90 136.30 345.54 145.38
  Q 345.42 145.81 345.85 145.96
  Q 346.65 146.24 347.01 145.46
  Q 348.21 142.82 350.80 135.41
  Q 351.00 134.83 351.56 135.04
  L 352.06 135.23
  Q 352.60 135.43 353.15 135.27
  Q 356.30 134.40 359.16 136.09
  Q 359.61 136.36 359.51 136.88
  C 358.89 140.08 357.61 143.62 358.02 146.90
  C 358.54 151.03 356.56 154.26 362.18 155.59
  Q 365.86 156.46 369.52 157.39
  C 373.48 158.39 376.28 160.87 380.96 161.19
  Q 381.45 161.22 381.78 160.86
  C 384.53 157.85 385.98 154.79 388.04 151.33
  C 391.46 145.58 392.68 138.44 399.71 136.25
  A 0.77 0.76 85.8 0 0 400.24 135.63
  Q 400.52 133.80 402.54 133.88
  Q 403.04 133.90 403.50 134.05
  Q 407.08 135.15 410.73 134.18
  C 412.18 133.78 413.94 132.08 416.10 132.27
  A 0.72 0.71 2.6 0 1 416.75 132.98
  L 416.75 143.71
  Q 416.75 144.05 417.02 144.25
  Q 418.32 145.21 419.20 144.40
  C 420.11 143.57 421.29 137.97 422.78 135.96
  A 0.95 0.94 9.9 0 1 423.28 135.61
  L 427.50 134.44
  A 0.65 0.64 74.0 0 1 428.29 134.88
  L 428.68 136.18
  Q 428.86 136.79 428.29 137.09
  L 427.24 137.64
  A 0.64 0.64 0.0 0 0 427.06 138.65
  Q 429.10 140.85 427.53 143.41
  A 0.77 0.77 0.0 0 0 427.60 144.32
  Q 428.75 145.66 430.58 145.89
  Q 431.13 145.97 431.25 145.42
  L 434.15 131.47
  Q 434.28 130.85 434.91 130.94
  Q 442.37 132.09 441.85 139.81
  A 0.45 0.45 0.0 0 1 441.01 139.99
  L 440.72 139.46
  Q 440.53 139.11 440.22 139.37
  Q 440.13 139.44 440.08 139.58
  Q 440.02 139.73 440.07 139.92
  Q 441.57 145.48 443.40 150.98
  Q 443.56 151.47 443.97 151.78
  Q 446.54 153.74 447.30 156.90
  C 450.09 168.57 456.95 166.18 464.86 160.72
  C 467.66 158.79 470.73 158.69 473.85 157.52
  C 477.11 156.29 479.32 153.39 482.40 151.44
  Q 482.82 151.16 482.95 150.67
  Q 484.37 144.86 485.20 138.99
  C 485.79 134.86 487.91 130.68 492.70 130.56
  Q 493.22 130.54 493.34 131.04
  C 494.63 136.05 493.66 142.12 493.31 147.25
  Q 493.27 147.76 493.78 147.81
  C 503.83 148.67 497.40 129.77 504.51 131.76
  Q 507.08 132.47 508.93 131.57
  A 0.92 0.90 42.0 0 1 509.65 131.54
  L 514.39 133.34
  Q 515.12 133.62 515.21 134.39
  L 516.53 145.38
  A 0.70 0.70 0.0 0 0 517.72 145.80
  C 521.59 141.93 518.93 135.57 522.24 133.72
  A 1.39 1.39 0.0 0 1 524.30 135.05
  L 523.64 142.95
  A 0.54 0.54 0.0 0 0 524.40 143.49
  Q 527.09 142.24 528.79 139.79
  A 2.11 2.10 -62.2 0 1 531.26 139.02
  C 534.41 140.21 536.83 140.06 540.04 138.53
  C 544.84 136.26 561.50 130.44 566.34 133.69
  Q 566.76 133.97 566.85 134.47
  Q 568.11 141.92 571.31 152.96
  Q 572.18 155.98 574.58 156.90
  A 0.82 0.81 29.3 0 0 575.52 156.64
  Q 580.39 150.40 584.08 143.57
  C 586.12 139.79 590.97 137.89 594.82 136.32
  A 1.21 1.20 65.6 0 1 596.34 136.90
  Q 598.54 141.32 598.73 146.25
  A 0.53 0.53 0.0 0 0 599.30 146.76
  L 599.80 146.72
  Q 600.12 146.69 600.13 146.38
  L 600.54 137.59
  A 1.60 1.60 0.0 0 1 602.85 136.24
  C 605.13 137.40 606.30 138.03 609.11 137.74
  Q 613.49 137.30 615.73 141.32
  Q 616.25 142.25 616.74 142.37
  Q 617.39 142.54 617.98 141.80
  Q 618.28 141.44 618.75 141.45
  L 633.43 141.73
  Q 634.02 141.75 634.52 142.05
  L 635.50 142.64
  Q 635.97 142.93 636.43 142.62
  Q 638.69 141.11 641.45 141.54
  A 1.47 1.46 -55.8 0 0 642.46 141.34
  L 649.53 136.94
  Q 650.08 136.59 650.46 137.12
  L 655.56 144.11
  A 0.81 0.81 0.0 0 0 656.41 144.42
  C 657.86 144.05 659.34 143.09 660.72 143.36
  C 666.30 144.44 667.92 155.00 669.97 159.25
  Q 670.24 159.82 670.87 159.80
  L 677.36 159.63
  A 0.75 0.75 0.0 0 0 678.09 158.83
  Q 677.67 153.11 675.78 147.75
  Q 674.81 144.99 677.61 145.55
  C 680.94 146.22 683.12 156.58 688.67 151.99
  A 0.97 0.96 -20.4 0 0 689.03 151.22
  Q 688.91 147.24 690.46 143.64
  Q 690.65 143.20 690.59 142.72
  Q 689.87 137.25 687.76 132.19
  Q 687.38 131.29 688.36 131.27
  L 694.08 131.18
  A 0.81 0.81 0.0 0 1 694.91 132.02
  Q 694.84 134.45 697.04 135.17
  A 1.16 1.16 0.0 0 1 697.73 135.79
  Q 699.87 140.51 701.83 145.21
  C 702.10 145.87 702.69 146.40 703.30 146.66
  A 0.44 0.44 0.0 0 0 703.88 146.11
  Q 701.34 139.02 700.34 131.95
  Q 700.30 131.71 700.37 131.53
  Q 700.47 131.30 700.64 131.19
  A 0.58 0.57 -24.0 0 1 701.53 131.53
  C 702.12 134.16 704.23 135.55 705.21 137.67
  Q 706.52 140.53 707.67 143.45
  Q 707.86 143.92 708.34 144.04
  C 712.30 145.00 712.21 149.88 712.26 153.48
  Q 712.26 154.02 712.57 154.46
  Q 714.00 156.48 714.58 158.91
  Q 714.71 159.47 714.53 160.01
  Q 714.07 161.40 714.79 162.70
  Q 715.05 163.16 715.55 163.34
  Q 720.04 164.97 724.02 162.47
  A 1.61 1.58 31.4 0 1 725.05 162.23
  C 726.73 162.41 727.71 161.81 729.33 162.06
  Q 736.17 163.11 741.75 160.26
  Q 755.25 153.38 766.98 149.87
  C 768.72 149.36 770.37 149.71 772.23 149.57
  Q 778.78 149.07 785.32 148.60
  C 791.38 148.16 797.60 146.56 803.84 145.69
  C 807.94 145.13 810.05 148.85 812.47 148.48
  A 0.67 0.67 0.0 0 0 812.97 147.52
  L 803.28 127.48
  A 1.07 1.06 84.4 0 1 804.51 125.98
  L 806.49 126.52
  A 0.94 0.94 0.0 0 0 807.32 126.34
  Q 808.16 125.66 809.00 125.93
  Q 809.59 126.12 810.07 126.99
  Q 815.14 136.19 820.35 145.28
  C 820.86 146.17 821.89 146.74 822.77 146.11
  A 0.67 0.67 0.0 0 0 822.99 145.26
  Q 821.53 142.24 823.31 139.32
  Q 823.55 138.92 824.01 138.80
  Q 831.64 136.79 833.24 143.98
  Q 833.34 144.42 833.77 144.58
  C 835.93 145.39 838.81 145.76 839.65 148.16
  Q 839.91 148.89 840.18 149.09
  Q 840.78 149.53 841.46 148.83
  A 1.17 1.17 0.0 0 0 841.60 147.38
  Q 835.16 137.74 830.03 127.34
  Q 829.72 126.70 830.24 126.22
  Q 833.49 123.26 837.96 123.79
  A 0.85 0.81 32.3 0 0 838.46 123.69
  L 839.68 122.99
  Q 840.18 122.70 840.46 123.21
  Q 846.84 134.79 855.03 145.17
  A 1.69 1.66 77.7 0 0 855.92 145.75
  Q 858.56 146.42 861.09 145.44
  A 1.15 1.15 0.0 0 0 861.63 143.72
  L 850.46 127.30
  Q 850.07 126.73 850.73 126.51
  L 855.89 124.77
  Q 856.43 124.59 856.74 125.06
  L 872.24 148.17
  A 0.44 0.43 46.4 0 0 872.94 148.19
  L 875.47 144.95
  Q 875.76 144.58 875.50 144.18
  L 867.99 132.50
  A 1.08 1.08 0.0 0 1 868.75 130.85
  C 870.62 130.60 873.91 131.29 875.44 130.12
  A 0.97 0.96 57.0 0 1 876.87 130.43
  C 879.40 135.05 882.63 143.07 886.69 146.19
  A 0.78 0.78 0.0 0 0 887.68 146.16
  Q 889.03 144.98 890.73 145.78
  A 0.88 0.88 0.0 0 0 891.79 144.43
  Q 887.36 138.94 884.40 132.52
  A 1.15 1.15 0.0 0 1 885.46 130.89
  L 897.62 131.03
  Q 898.11 131.04 898.43 131.40
  C 903.39 137.04 906.47 143.75 910.93 149.80
  Q 911.60 150.72 912.51 150.67
  A 0.40 0.40 0.0 0 0 912.79 150.00
  Q 910.54 147.51 910.94 144.29
  A 1.85 1.84 -60.2 0 0 910.59 142.99
  Q 906.95 138.12 904.89 132.41
  A 0.59 0.58 -77.1 0 1 905.86 131.80
  Q 910.60 136.69 914.17 142.59
  C 915.16 144.23 916.26 145.41 918.00 145.86
  A 1.07 1.06 81.8 0 0 919.18 144.28
  L 912.07 132.41
  A 0.71 0.71 0.0 0 1 912.56 131.34
  Q 918.02 130.39 923.80 131.45
  C 927.85 132.20 936.98 146.47 940.99 152.25
  Q 944.00 156.59 949.38 161.32
  Q 949.77 161.66 950.27 161.50
  Q 958.52 158.91 967.24 158.93
  A 1.05 1.05 0.0 0 0 968.14 157.33
  L 962.84 148.67
  Q 962.10 147.46 963.16 146.51
  Q 963.50 146.20 963.49 145.76
  Q 963.48 144.96 963.31 144.69
  L 955.34 132.59
  A 0.60 0.60 0.0 0 1 955.58 131.72
  C 960.51 129.42 962.30 132.19 965.31 136.00
  Q 970.20 142.20 974.69 148.43
  A 0.77 0.76 -40.0 0 0 975.85 148.53
  L 976.15 148.22
  Q 976.34 148.04 976.19 147.82
  L 964.63 130.44
  A 0.88 0.88 0.0 0 1 964.77 129.31
  C 965.84 128.34 966.82 129.00 967.54 130.01
  Q 975.98 141.90 985.06 153.31
  C 990.25 159.83 990.19 158.85 998.32 158.33
  A 0.77 0.77 0.0 0 0 998.91 157.14
  C 995.77 152.29 991.13 148.04 989.01 142.67
  A 0.56 0.55 14.8 0 1 989.96 142.12
  C 993.96 147.03 998.90 154.80 1003.86 158.49
  Q 1004.25 158.78 1004.73 158.73
  L 1012.90 157.89
  A 1.51 1.50 71.9 0 0 1014.04 155.63
  L 1008.14 145.51
  Q 1007.73 144.81 1008.46 145.17
  L 1010.09 145.96
  Q 1010.19 146.01 1010.21 145.90
  Q 1010.25 145.71 1010.35 145.52
  A 0.46 0.45 40.7 0 0 1010.31 145.04
  L 999.62 130.34
  A 1.10 1.09 -8.0 0 1 1000.88 128.67
  Q 1009.79 131.89 1019.10 130.41
  Q 1019.62 130.33 1020.08 130.56
  Q 1021.27 131.17 1022.02 130.10
  Q 1022.37 129.61 1022.79 130.03
  C 1027.07 134.35 1030.52 140.12 1035.92 144.17
  A 0.41 0.41 0.0 0 0 1036.55 143.70
  Q 1035.82 141.77 1034.12 140.57
  Q 1033.74 140.30 1033.61 139.85
  Q 1032.85 137.21 1030.53 135.76
  A 0.62 0.62 0.0 0 1 1030.96 134.62
  Q 1033.45 135.03 1035.05 133.42
  Q 1035.53 132.93 1035.98 133.45
  Q 1041.25 139.52 1047.72 144.26
  A 0.38 0.38 0.0 0 0 1048.23 143.69
  Q 1040.80 135.71 1033.58 127.43
  Q 1032.79 126.52 1033.64 125.81
  A 0.78 0.77 -42.3 0 1 1034.67 125.85
  L 1054.76 145.30
  A 0.60 0.60 0.0 0 0 1055.67 145.20
  Q 1056.17 144.44 1055.39 143.61
  C 1050.50 138.39 1046.49 132.56 1041.23 127.72
  A 1.01 1.01 0.0 0 1 1042.27 126.03
  Q 1044.17 126.74 1045.64 125.42
  Q 1046.12 124.99 1046.59 125.43
  L 1065.74 143.62
  A 1.25 1.25 0.0 0 0 1067.71 142.15
  L 1067.28 141.33
  Q 1067.03 140.82 1067.42 140.42
  C 1070.42 137.37 1073.19 139.09 1076.33 140.08
  Q 1076.85 140.25 1077.18 140.69
  L 1079.20 143.47
  A 0.62 0.62 0.0 0 0 1080.32 143.03
  L 1079.98 140.46
  Q 1079.91 139.97 1080.37 139.78
  Q 1085.19 137.82 1088.73 139.98
  Q 1096.48 144.73 1105.00 153.59
  Z"
/>
<path fill="#a88968" d="
  M 1105.00 137.62
  L 1105.00 148.26
  L 1084.14 127.32
  A 0.91 0.91 0.0 0 1 1084.82 125.77
  Q 1086.88 125.84 1088.64 124.74
  A 2.39 2.38 50.5 0 1 1091.53 125.02
  L 1105.00 137.62
  Z"
/>
</svg>
