<?xml version="1.0" encoding="UTF-8" standalone="no"?>
<!DOCTYPE svg PUBLIC "-//W3C//DTD SVG 1.1//EN" "http://www.w3.org/Graphics/SVG/1.1/DTD/svg11.dtd">
<svg xmlns="http://www.w3.org/2000/svg" version="1.1" viewBox="0.00 0.00 512.00 512.00">
<g stroke-width="2.00" fill="none" stroke-linecap="butt">
<path stroke="#3c9845" vector-effect="non-scaling-stroke" d="
  M 413.01 45.58
  Q 412.00 46.85 412.00 49.00
  Q 412.00 251.23 412.00 453.47
  C 412.00 459.37 410.60 463.96 404.00 464.00
  Q 318.71 464.43 144.90 464.23
  Q 144.82 464.23 129.60 464.02
  Q 117.77 463.86 105.76 464.58"
/>
<path stroke="#3c9845" vector-effect="non-scaling-stroke" d="
  M 104.02 307.00
  Q 104.39 306.76 104.89 306.74
  Q 105.41 306.71 105.69 307.16
  Q 108.67 311.81 115.23 311.96
  Q 126.88 312.21 138.08 311.62
  A 1.60 1.59 -88.3 0 0 139.58 310.20
  Q 139.89 307.38 139.90 304.25
  Q 140.00 270.39 140.00 236.53
  C 140.00 235.66 139.30 233.80 138.74 233.16
  Q 133.91 227.69 127.94 223.36"
/>
<path stroke="#3f9286" vector-effect="non-scaling-stroke" d="
  M 127.94 223.36
  Q 127.50 219.99 124.75 220.00
  Q 114.11 220.04 103.86 219.94"
/>
<path stroke="#3c9845" vector-effect="non-scaling-stroke" d="
  M 103.97 202.93
  L 105.64 203.32
  Q 106.10 203.43 106.37 203.82
  Q 108.96 207.73 113.31 207.93
  Q 123.11 208.39 138.44 207.68
  Q 138.97 207.65 139.16 207.16
  Q 139.98 205.05 139.99 202.75
  Q 140.06 192.00 139.98 181.26
  C 139.94 176.63 132.31 170.56 129.10 167.55
  A 0.64 0.64 0.0 0 0 128.03 167.95
  L 127.92 169.06"
/>
<path stroke="#98c89b" vector-effect="non-scaling-stroke" d="
  M 127.92 169.06
  C 128.03 166.14 127.63 164.30 124.28 164.19
  Q 114.15 163.86 104.06 163.97"
/>
<path stroke="#3c9845" vector-effect="non-scaling-stroke" d="
  M 104.19 154.59
  Q 106.60 156.06 108.69 158.06
  C 110.83 160.11 111.72 159.87 114.50 159.94
  Q 126.76 160.24 138.50 159.69
  A 1.16 1.16 0.0 0 0 139.60 158.60
  Q 140.29 146.03 139.93 133.30
  C 139.79 128.23 131.20 121.43 127.82 118.69"
/>
<path stroke="#98c89b" vector-effect="non-scaling-stroke" d="
  M 127.82 118.69
  C 127.39 117.10 126.78 116.28 124.99 116.21
  Q 114.49 115.82 104.03 116.03"
/>
<path stroke="#3c9845" vector-effect="non-scaling-stroke" d="
  M 104.10 104.77
  C 108.68 106.21 107.82 111.71 111.57 111.91
  Q 121.56 112.46 138.60 111.64
  Q 139.13 111.61 139.29 111.10
  C 141.25 104.74 140.03 92.97 139.97 86.06
  C 139.92 80.43 132.89 75.20 129.16 71.58
  A 0.65 0.65 0.0 0 0 128.07 71.93
  L 127.92 72.78"
/>
<path stroke="#98c89b" vector-effect="non-scaling-stroke" d="
  M 127.92 72.78
  C 128.11 69.75 127.29 68.30 124.08 68.19
  Q 113.83 67.83 103.91 68.04"
/>
<path stroke="#92bf99" vector-effect="non-scaling-stroke" d="
  M 127.92 72.78
  Q 128.31 91.84 127.68 97.03
  Q 127.28 100.23 123.49 100.00
  Q 118.38 99.70 99.23 100.18"
/>
<path stroke="#92bf99" vector-effect="non-scaling-stroke" d="
  M 127.82 118.69
  C 127.95 122.46 128.73 145.59 126.72 147.22
  C 124.69 148.86 102.94 148.05 98.57 148.13"
/>
<path stroke="#398984" vector-effect="non-scaling-stroke" d="
  M 127.94 223.36
  L 127.94 296.80
  A 3.13 3.13 0.0 0 1 124.84 299.93
  L 98.75 300.19"
/>
<path stroke="#92bf99" vector-effect="non-scaling-stroke" d="
  M 127.92 169.06
  L 127.59 193.96
  A 1.84 1.84 0.0 0 1 125.77 195.78
  L 98.58 196.05"
/>
<path stroke="#3c9845" vector-effect="non-scaling-stroke" d="
  M 190.50 71.96
  Q 190.76 73.97 193.39 73.88
  C 195.44 73.82 197.09 73.55 198.73 72.26
  Q 204.38 67.82 200.19 62.00"
/>
<path stroke="#98c89b" vector-effect="non-scaling-stroke" d="
  M 200.19 62.00
  Q 197.51 56.11 192.09 56.18
  C 182.32 56.31 181.18 69.74 190.50 71.96"
/>
<path stroke="#92bf99" vector-effect="non-scaling-stroke" d="
  M 200.19 62.00
  Q 200.12 72.55 190.50 71.96"
/>
<path stroke="#3c9845" vector-effect="non-scaling-stroke" d="
  M 221.37 72.00
  Q 228.93 76.82 233.00 69.42
  Q 234.12 67.37 234.00 65.57
  Q 233.83 63.17 231.98 61.81"
/>
<path stroke="#98c89b" vector-effect="non-scaling-stroke" d="
  M 231.98 61.81
  C 227.59 51.59 213.43 56.43 216.50 66.74
  Q 217.41 69.78 221.37 72.00"
/>
<path stroke="#92bf99" vector-effect="non-scaling-stroke" d="
  M 231.98 61.81
  C 232.53 67.29 229.85 71.89 224.25 71.94
  Q 222.88 71.95 221.37 72.00"
/>
<path stroke="#3c9845" vector-effect="non-scaling-stroke" d="
  M 253.60 72.25
  Q 266.49 77.28 265.46 63.31
  C 265.40 62.55 264.56 61.04 263.97 62.51"
/>
<path stroke="#98c89b" vector-effect="non-scaling-stroke" d="
  M 263.97 62.51
  C 262.05 54.94 251.63 53.79 248.81 60.56
  Q 245.82 67.76 253.60 72.25"
/>
<path stroke="#92bf99" vector-effect="non-scaling-stroke" d="
  M 263.97 62.51
  Q 264.53 72.24 253.60 72.25"
/>
<path stroke="#316134" vector-effect="non-scaling-stroke" d="
  M 344.01 299.99
  Q 344.08 302.85 346.48 303.80"
/>
<path stroke="#3c9845" vector-effect="non-scaling-stroke" d="
  M 346.48 303.80
  Q 350.22 308.60 355.36 311.79
  A 1.78 1.68 58.8 0 0 356.30 312.05
  C 360.16 311.94 367.99 313.55 367.99 307.50
  Q 368.01 198.13 368.00 88.76
  C 368.00 88.08 367.67 87.35 367.52 86.66
  A 1.57 1.52 -75.0 0 0 367.07 85.85
  L 359.95 78.94"
/>
<path stroke="#316134" vector-effect="non-scaling-stroke" d="
  M 359.95 78.94
  Q 358.87 76.11 356.00 76.03"
/>
<path stroke="#427245" vector-effect="non-scaling-stroke" d="
  M 356.00 76.03
  C 352.94 75.95 347.35 75.34 344.94 77.38
  Q 344.56 77.70 344.48 78.20
  Q 344.00 81.39 344.00 83.25
  Q 343.99 191.64 344.01 299.99"
/>
<path stroke="#313132" vector-effect="non-scaling-stroke" d="
  M 356.00 76.03
  Q 356.01 184.28 355.99 292.51
  C 355.99 296.49 356.38 299.78 351.74 299.95
  Q 348.18 300.09 344.01 299.99"
/>
<path stroke="#2b5832" vector-effect="non-scaling-stroke" d="
  M 359.95 78.94
  L 359.86 300.84
  A 2.97 2.96 0.0 0 1 356.89 303.80
  L 346.48 303.80"
/>
<path stroke="#316134" vector-effect="non-scaling-stroke" d="
  M 376.01 300.00
  Q 376.21 303.22 378.95 303.99"
/>
<path stroke="#3c9845" vector-effect="non-scaling-stroke" d="
  M 378.95 303.99
  Q 381.82 308.21 385.77 310.91
  C 388.41 312.72 393.05 312.00 396.12 312.00
  A 3.87 3.87 0.0 0 0 399.99 308.13
  C 400.01 234.22 400.81 160.42 399.64 87.01
  Q 399.63 86.50 399.32 86.09
  Q 396.08 81.81 391.86 78.74"
/>
<path stroke="#316134" vector-effect="non-scaling-stroke" d="
  M 391.86 78.74
  Q 390.97 76.03 388.00 76.07"
/>
<path stroke="#427245" vector-effect="non-scaling-stroke" d="
  M 388.00 76.07
  L 378.70 76.35
  A 2.39 2.38 0.8 0 0 376.39 78.59
  C 376.28 80.47 376.00 82.50 376.00 84.44
  Q 375.99 192.23 376.01 300.00"
/>
<path stroke="#313132" vector-effect="non-scaling-stroke" d="
  M 388.00 76.07
  Q 387.93 76.22 387.70 76.29
  Q 387.47 76.36 387.67 76.49
  Q 387.78 76.56 387.96 76.56
  Q 388.00 76.56 388.00 76.60
  C 388.00 150.32 388.52 224.09 387.62 297.78
  A 1.80 1.80 0.0 0 1 385.90 299.56
  L 376.01 300.00"
/>
<path stroke="#2b5832" vector-effect="non-scaling-stroke" d="
  M 391.86 78.74
  Q 392.16 179.66 392.06 280.56
  Q 392.05 290.93 391.64 301.29
  A 2.63 2.62 -89.3 0 1 389.06 303.81
  L 378.95 303.99"
/>
<path stroke="#316134" vector-effect="non-scaling-stroke" d="
  M 164.85 211.87
  Q 166.10 214.01 169.42 215.95"
/>
<path stroke="#3c9845" vector-effect="non-scaling-stroke" d="
  M 169.42 215.95
  Q 171.49 219.99 177.00 219.99
  Q 226.46 220.03 275.92 219.99
  C 282.77 219.98 287.94 218.77 287.98 211.00
  Q 288.08 187.93 287.92 108.81
  Q 287.91 103.02 283.64 101.07"
/>
<path stroke="#316134" vector-effect="non-scaling-stroke" d="
  M 283.64 101.07
  Q 282.55 98.46 279.99 97.17"
/>
<path stroke="#427245" vector-effect="non-scaling-stroke" d="
  M 279.99 97.17
  Q 277.62 95.94 274.00 95.94
  Q 223.25 96.00 172.50 96.00
  C 165.01 96.00 164.00 101.74 164.00 108.20
  Q 164.00 157.60 164.04 207.00
  Q 164.04 208.69 164.85 211.87"
/>
<path stroke="#313132" vector-effect="non-scaling-stroke" d="
  M 279.99 97.17
  Q 280.02 148.80 279.98 200.14
  C 279.97 206.33 279.11 211.89 271.94 211.98
  Q 248.87 212.24 164.85 211.87"
/>
<path stroke="#2b5832" vector-effect="non-scaling-stroke" d="
  M 283.64 101.07
  Q 283.80 103.24 283.81 105.00
  Q 284.01 154.64 283.99 204.28
  C 283.98 210.99 282.90 215.98 275.25 216.00
  Q 222.43 216.08 169.42 215.95"
/>
<path stroke="#98c89b" vector-effect="non-scaling-stroke" d="
  M 168.29 268.25
  Q 167.81 271.40 170.82 271.87"
/>
<path stroke="#3c9845" vector-effect="non-scaling-stroke" d="
  M 170.82 271.87
  Q 173.07 275.07 175.94 277.83
  Q 178.13 279.94 181.75 279.96
  Q 209.26 280.14 235.92 280.00
  A 4.11 4.10 -89.9 0 0 240.00 275.93
  C 240.03 271.74 241.06 260.15 238.49 257.03
  Q 235.64 253.57 231.64 250.87"
/>
<path stroke="#98c89b" vector-effect="non-scaling-stroke" d="
  M 231.64 250.87
  Q 231.65 248.28 229.02 248.17"
/>
<path stroke="#a1d0a3" vector-effect="non-scaling-stroke" d="
  M 229.02 248.17
  Q 220.86 247.94 212.71 248.03
  C 199.03 248.17 186.03 247.83 172.69 248.12
  C 170.07 248.17 168.55 248.50 168.29 251.50
  Q 167.57 259.91 168.29 268.25"
/>
<path stroke="#f7f7f7" vector-effect="non-scaling-stroke" d="
  M 229.02 248.17
  C 227.80 253.45 228.33 259.21 228.05 264.46
  A 4.02 4.01 1.6 0 1 224.04 268.25
  L 168.29 268.25"
/>
<path stroke="#92bf99" vector-effect="non-scaling-stroke" d="
  M 231.64 250.87
  L 231.62 270.16
  A 1.53 1.52 -0.2 0 1 230.10 271.68
  L 170.82 271.87"
/>
<path stroke="#3c9845" vector-effect="non-scaling-stroke" d="
  M 280.58 301.65
  Q 289.27 309.60 299.83 307.65
  C 317.67 304.35 325.50 284.65 315.41 269.77
  Q 315.12 269.34 314.65 269.55
  Q 314.28 269.71 313.99 270.03"
/>
<path stroke="#98c89b" vector-effect="non-scaling-stroke" d="
  M 313.99 270.03
  C 307.38 256.64 290.01 251.62 278.17 260.43
  Q 269.36 267.00 268.25 276.49
  Q 266.41 292.41 280.58 301.65"
/>
<path stroke="#92bf99" vector-effect="non-scaling-stroke" d="
  M 313.99 270.03
  C 322.68 292.23 302.15 310.42 280.58 301.65"
/>
<path stroke="#98c89b" vector-effect="non-scaling-stroke" d="
  M 168.23 308.20
  Q 168.08 309.64 168.52 310.70
  Q 168.72 311.15 169.19 311.29
  L 171.03 311.85"
/>
<path stroke="#3c9845" vector-effect="non-scaling-stroke" d="
  M 171.03 311.85
  Q 173.43 315.79 177.08 318.51
  C 179.16 320.06 181.33 319.76 183.76 319.78
  Q 209.71 320.02 235.70 319.97
  C 240.30 319.96 239.88 316.74 239.95 312.83
  Q 240.06 306.33 239.71 299.82
  C 239.53 296.58 233.93 292.39 231.66 290.75"
/>
<path stroke="#98c89b" vector-effect="non-scaling-stroke" d="
  M 231.66 290.75
  Q 231.71 288.57 229.18 288.15"
/>
<path stroke="#a1d0a3" vector-effect="non-scaling-stroke" d="
  M 229.18 288.15
  Q 201.55 287.90 173.75 288.08
  Q 170.85 288.09 169.02 289.03
  Q 168.50 289.30 168.44 289.88
  Q 167.55 299.16 168.23 308.20"
/>
<path stroke="#f7f7f7" vector-effect="non-scaling-stroke" d="
  M 229.18 288.15
  Q 227.44 295.31 228.18 302.49
  Q 228.66 307.12 224.84 307.87
  Q 221.59 308.51 213.27 308.32
  C 198.27 307.98 183.27 308.06 168.23 308.20"
/>
<path stroke="#92bf99" vector-effect="non-scaling-stroke" d="
  M 231.66 290.75
  L 231.65 310.10
  A 1.46 1.45 85.9 0 1 230.41 311.54
  Q 227.29 312.00 223.75 312.02
  Q 197.66 312.13 171.03 311.85"
/>
<path stroke="#98c89b" vector-effect="non-scaling-stroke" d="
  M 124.05 344.16
  Q 123.83 347.17 127.10 347.96"
/>
<path stroke="#3c9845" vector-effect="non-scaling-stroke" d="
  M 127.10 347.96
  C 128.33 349.91 133.25 356.00 136.00 356.00
  Q 245.18 356.00 354.35 356.00
  C 358.03 356.00 359.33 355.15 359.75 351.51
  C 360.83 342.07 358.67 341.26 352.95 335.17
  A 0.53 0.53 0.0 0 0 352.04 335.42
  L 351.91 336.01"
/>
<path stroke="#98c89b" vector-effect="non-scaling-stroke" d="
  M 351.91 336.01
  Q 351.91 332.36 348.51 332.01"
/>
<path stroke="#a1d0a3" vector-effect="non-scaling-stroke" d="
  M 348.51 332.01
  Q 239.27 331.99 130.06 332.23
  C 127.70 332.24 124.61 331.72 124.24 335.25
  Q 123.80 339.49 124.05 344.16"
/>
<path stroke="#f7f7f7" vector-effect="non-scaling-stroke" d="
  M 348.51 332.01
  C 348.71 334.95 348.24 337.62 347.99 340.50
  Q 347.67 344.15 343.06 344.16
  Q 181.84 344.28 124.05 344.16"
/>
<path stroke="#92bf99" vector-effect="non-scaling-stroke" d="
  M 351.91 336.01
  L 351.50 346.25
  A 1.43 1.42 1.0 0 1 350.07 347.62
  L 127.10 347.96"
/>
<path stroke="#98c89b" vector-effect="non-scaling-stroke" d="
  M 124.08 380.19
  Q 123.92 383.06 126.75 383.79"
/>
<path stroke="#3c9845" vector-effect="non-scaling-stroke" d="
  M 126.75 383.79
  Q 130.19 388.81 133.52 390.75
  Q 135.66 391.99 137.31 391.99
  Q 247.06 392.01 356.16 392.00
  A 3.82 3.82 0.0 0 0 359.98 388.30
  C 360.08 384.83 360.78 379.46 358.30 376.69
  Q 355.39 373.45 351.77 370.54"
/>
<path stroke="#98c89b" vector-effect="non-scaling-stroke" d="
  M 351.77 370.54
  Q 350.83 367.82 348.58 368.30"
/>
<path stroke="#a1d0a3" vector-effect="non-scaling-stroke" d="
  M 348.58 368.30
  Q 348.05 368.29 347.71 368.21
  Q 346.80 368.00 346.75 368.00
  Q 238.40 367.99 130.06 367.97
  Q 127.56 367.97 125.24 368.86
  Q 124.73 369.06 124.62 369.60
  Q 123.59 374.64 124.08 380.19"
/>
<path stroke="#f7f7f7" vector-effect="non-scaling-stroke" d="
  M 348.58 368.30
  L 347.76 377.35
  A 2.64 2.64 0.0 0 1 345.72 379.69
  Q 344.06 380.07 341.75 380.08
  Q 232.87 380.30 124.08 380.19"
/>
<path stroke="#92bf99" vector-effect="non-scaling-stroke" d="
  M 351.77 370.54
  L 351.55 381.66
  A 2.31 2.30 0.5 0 1 349.24 383.92
  L 126.75 383.79"
/>
<path stroke="#316134" vector-effect="non-scaling-stroke" d="
  M 336.34 447.58
  L 341.15 451.90"
/>
<path stroke="#3c9845" vector-effect="non-scaling-stroke" d="
  M 341.15 451.90
  Q 343.46 455.93 350.25 455.97
  Q 373.70 456.11 379.69 455.95
  C 386.77 455.77 387.95 450.68 387.98 444.40
  Q 388.04 430.70 387.96 417.00
  Q 387.92 410.73 383.66 408.84"
/>
<path stroke="#316134" vector-effect="non-scaling-stroke" d="
  M 383.66 408.84
  L 379.71 404.40"
/>
<path stroke="#427245" vector-effect="non-scaling-stroke" d="
  M 379.71 404.40
  Q 363.54 403.78 347.70 403.97
  C 340.94 404.05 336.23 405.17 336.08 412.76
  Q 335.76 429.80 336.34 447.58"
/>
<path stroke="#313132" vector-effect="non-scaling-stroke" d="
  M 379.71 404.40
  Q 380.24 421.90 379.94 439.49
  C 379.83 445.87 376.02 447.79 370.00 447.93
  Q 353.13 448.34 336.34 447.58"
/>
<path stroke="#2b5832" vector-effect="non-scaling-stroke" d="
  M 383.66 408.84
  C 383.61 410.00 384.00 411.03 384.00 412.07
  Q 384.01 426.48 383.99 440.90
  C 383.99 447.66 382.72 451.85 375.24 451.93
  Q 358.38 452.13 341.15 451.90"
/>
<path stroke="#316134" vector-effect="non-scaling-stroke" d="
  M 124.22 419.99
  Q 123.88 422.91 127.12 424.01"
/>
<path stroke="#3c9845" vector-effect="non-scaling-stroke" d="
  M 127.12 424.01
  C 130.06 428.10 133.58 432.01 137.75 432.01
  Q 218.04 432.00 298.34 432.00
  C 302.47 432.00 303.92 430.55 303.92 426.50
  C 303.93 422.48 304.72 419.80 302.15 416.64
  Q 299.38 413.23 295.75 410.67"
/>
<path stroke="#316134" vector-effect="non-scaling-stroke" d="
  M 295.75 410.67
  Q 294.80 408.03 291.99 408.01"
/>
<path stroke="#427245" vector-effect="non-scaling-stroke" d="
  M 291.99 408.01
  Q 210.16 407.98 128.31 408.07
  Q 126.42 408.08 125.05 409.15
  A 1.45 1.45 0.0 0 0 124.54 409.97
  Q 123.54 414.95 124.22 419.99"
/>
<path stroke="#313132" vector-effect="non-scaling-stroke" d="
  M 291.99 408.01
  L 291.54 418.32
  Q 291.51 418.91 290.99 419.19
  Q 289.55 419.98 287.25 419.98
  Q 205.78 420.02 124.22 419.99"
/>
<path stroke="#2b5832" vector-effect="non-scaling-stroke" d="
  M 295.75 410.67
  C 296.16 414.96 297.98 424.00 291.25 424.00
  Q 209.34 423.99 127.12 424.01"
/>
<path stroke="#313132" vector-effect="non-scaling-stroke" d="
  M 184.12 199.80
  Q 187.80 203.94 195.74 203.96
  Q 227.67 204.05 259.61 203.98
  C 266.59 203.96 271.98 203.05 271.98 194.99
  Q 272.02 161.75 271.94 128.50
  C 271.93 123.50 271.83 120.52 268.85 117.08
  Q 268.57 116.76 268.25 117.03
  Q 267.84 117.37 267.71 117.75"
/>
<path stroke="#989999" vector-effect="non-scaling-stroke" d="
  M 267.71 117.75
  Q 265.76 111.98 259.50 111.98
  Q 225.24 111.96 190.98 112.01
  C 185.08 112.02 180.00 113.68 180.00 120.25
  Q 179.99 156.34 180.02 192.44
  Q 180.02 195.79 184.12 199.80"
/>
<path stroke="#878888" vector-effect="non-scaling-stroke" d="
  M 267.71 117.75
  Q 268.25 153.87 267.94 190.00
  C 267.90 195.70 266.21 199.93 260.00 200.00
  Q 234.31 200.27 184.12 199.80"
/>
</g>
<path fill="#42a147" d="
  M 413.01 45.58
  Q 412.00 46.85 412.00 49.00
  Q 412.00 251.23 412.00 453.47
  C 412.00 459.37 410.60 463.96 404.00 464.00
  Q 318.71 464.43 144.90 464.23
  Q 144.82 464.23 129.60 464.02
  Q 117.77 463.86 105.76 464.58
  Q 104.07 463.73 104.06 460.69
  Q 103.94 383.85 104.02 307.00
  Q 104.39 306.76 104.89 306.74
  Q 105.41 306.71 105.69 307.16
  Q 108.67 311.81 115.23 311.96
  Q 126.88 312.21 138.08 311.62
  A 1.60 1.59 -88.3 0 0 139.58 310.20
  Q 139.89 307.38 139.90 304.25
  Q 140.00 270.39 140.00 236.53
  C 140.00 235.66 139.30 233.80 138.74 233.16
  Q 133.91 227.69 127.94 223.36
  Q 127.50 219.99 124.75 220.00
  Q 114.11 220.04 103.86 219.94
  L 103.97 202.93
  L 105.64 203.32
  Q 106.10 203.43 106.37 203.82
  Q 108.96 207.73 113.31 207.93
  Q 123.11 208.39 138.44 207.68
  Q 138.97 207.65 139.16 207.16
  Q 139.98 205.05 139.99 202.75
  Q 140.06 192.00 139.98 181.26
  C 139.94 176.63 132.31 170.56 129.10 167.55
  A 0.64 0.64 0.0 0 0 128.03 167.95
  L 127.92 169.06
  C 128.03 166.14 127.63 164.30 124.28 164.19
  Q 114.15 163.86 104.06 163.97
  L 104.19 154.59
  Q 106.60 156.06 108.69 158.06
  C 110.83 160.11 111.72 159.87 114.50 159.94
  Q 126.76 160.24 138.50 159.69
  A 1.16 1.16 0.0 0 0 139.60 158.60
  Q 140.29 146.03 139.93 133.30
  C 139.79 128.23 131.20 121.43 127.82 118.69
  C 127.39 117.10 126.78 116.28 124.99 116.21
  Q 114.49 115.82 104.03 116.03
  L 104.10 104.77
  C 108.68 106.21 107.82 111.71 111.57 111.91
  Q 121.56 112.46 138.60 111.64
  Q 139.13 111.61 139.29 111.10
  C 141.25 104.74 140.03 92.97 139.97 86.06
  C 139.92 80.43 132.89 75.20 129.16 71.58
  A 0.65 0.65 0.0 0 0 128.07 71.93
  L 127.92 72.78
  C 128.11 69.75 127.29 68.30 124.08 68.19
  Q 113.83 67.83 103.91 68.04
  Q 104.06 61.76 104.00 55.57
  C 103.92 48.14 105.77 44.00 113.63 44.00
  Q 260.69 44.00 407.75 44.00
  Q 410.22 44.00 413.01 45.58
  Z
  M 190.50 71.96
  Q 190.76 73.97 193.39 73.88
  C 195.44 73.82 197.09 73.55 198.73 72.26
  Q 204.38 67.82 200.19 62.00
  Q 197.51 56.11 192.09 56.18
  C 182.32 56.31 181.18 69.74 190.50 71.96
  Z
  M 221.37 72.00
  Q 228.93 76.82 233.00 69.42
  Q 234.12 67.37 234.00 65.57
  Q 233.83 63.17 231.98 61.81
  C 227.59 51.59 213.43 56.43 216.50 66.74
  Q 217.41 69.78 221.37 72.00
  Z
  M 253.60 72.25
  Q 266.49 77.28 265.46 63.31
  C 265.40 62.55 264.56 61.04 263.97 62.51
  C 262.05 54.94 251.63 53.79 248.81 60.56
  Q 245.82 67.76 253.60 72.25
  Z
  M 344.01 299.99
  Q 344.08 302.85 346.48 303.80
  Q 350.22 308.60 355.36 311.79
  A 1.78 1.68 58.8 0 0 356.30 312.05
  C 360.16 311.94 367.99 313.55 367.99 307.50
  Q 368.01 198.13 368.00 88.76
  C 368.00 88.08 367.67 87.35 367.52 86.66
  A 1.57 1.52 -75.0 0 0 367.07 85.85
  L 359.95 78.94
  Q 358.87 76.11 356.00 76.03
  C 352.94 75.95 347.35 75.34 344.94 77.38
  Q 344.56 77.70 344.48 78.20
  Q 344.00 81.39 344.00 83.25
  Q 343.99 191.64 344.01 299.99
  Z
  M 376.01 300.00
  Q 376.21 303.22 378.95 303.99
  Q 381.82 308.21 385.77 310.91
  C 388.41 312.72 393.05 312.00 396.12 312.00
  A 3.87 3.87 0.0 0 0 399.99 308.13
  C 400.01 234.22 400.81 160.42 399.64 87.01
  Q 399.63 86.50 399.32 86.09
  Q 396.08 81.81 391.86 78.74
  Q 390.97 76.03 388.00 76.07
  L 378.70 76.35
  A 2.39 2.38 0.8 0 0 376.39 78.59
  C 376.28 80.47 376.00 82.50 376.00 84.44
  Q 375.99 192.23 376.01 300.00
  Z
  M 164.85 211.87
  Q 166.10 214.01 169.42 215.95
  Q 171.49 219.99 177.00 219.99
  Q 226.46 220.03 275.92 219.99
  C 282.77 219.98 287.94 218.77 287.98 211.00
  Q 288.08 187.93 287.92 108.81
  Q 287.91 103.02 283.64 101.07
  Q 282.55 98.46 279.99 97.17
  Q 277.62 95.94 274.00 95.94
  Q 223.25 96.00 172.50 96.00
  C 165.01 96.00 164.00 101.74 164.00 108.20
  Q 164.00 157.60 164.04 207.00
  Q 164.04 208.69 164.85 211.87
  Z
  M 168.29 268.25
  Q 167.81 271.40 170.82 271.87
  Q 173.07 275.07 175.94 277.83
  Q 178.13 279.94 181.75 279.96
  Q 209.26 280.14 235.92 280.00
  A 4.11 4.10 -89.9 0 0 240.00 275.93
  C 240.03 271.74 241.06 260.15 238.49 257.03
  Q 235.64 253.57 231.64 250.87
  Q 231.65 248.28 229.02 248.17
  Q 220.86 247.94 212.71 248.03
  C 199.03 248.17 186.03 247.83 172.69 248.12
  C 170.07 248.17 168.55 248.50 168.29 251.50
  Q 167.57 259.91 168.29 268.25
  Z
  M 280.58 301.65
  Q 289.27 309.60 299.83 307.65
  C 317.67 304.35 325.50 284.65 315.41 269.77
  Q 315.12 269.34 314.65 269.55
  Q 314.28 269.71 313.99 270.03
  C 307.38 256.64 290.01 251.62 278.17 260.43
  Q 269.36 267.00 268.25 276.49
  Q 266.41 292.41 280.58 301.65
  Z
  M 168.23 308.20
  Q 168.08 309.64 168.52 310.70
  Q 168.72 311.15 169.19 311.29
  L 171.03 311.85
  Q 173.43 315.79 177.08 318.51
  C 179.16 320.06 181.33 319.76 183.76 319.78
  Q 209.71 320.02 235.70 319.97
  C 240.30 319.96 239.88 316.74 239.95 312.83
  Q 240.06 306.33 239.71 299.82
  C 239.53 296.58 233.93 292.39 231.66 290.75
  Q 231.71 288.57 229.18 288.15
  Q 201.55 287.90 173.75 288.08
  Q 170.85 288.09 169.02 289.03
  Q 168.50 289.30 168.44 289.88
  Q 167.55 299.16 168.23 308.20
  Z
  M 124.05 344.16
  Q 123.83 347.17 127.10 347.96
  C 128.33 349.91 133.25 356.00 136.00 356.00
  Q 245.18 356.00 354.35 356.00
  C 358.03 356.00 359.33 355.15 359.75 351.51
  C 360.83 342.07 358.67 341.26 352.95 335.17
  A 0.53 0.53 0.0 0 0 352.04 335.42
  L 351.91 336.01
  Q 351.91 332.36 348.51 332.01
  Q 239.27 331.99 130.06 332.23
  C 127.70 332.24 124.61 331.72 124.24 335.25
  Q 123.80 339.49 124.05 344.16
  Z
  M 124.08 380.19
  Q 123.92 383.06 126.75 383.79
  Q 130.19 388.81 133.52 390.75
  Q 135.66 391.99 137.31 391.99
  Q 247.06 392.01 356.16 392.00
  A 3.82 3.82 0.0 0 0 359.98 388.30
  C 360.08 384.83 360.78 379.46 358.30 376.69
  Q 355.39 373.45 351.77 370.54
  Q 350.83 367.82 348.58 368.30
  Q 348.05 368.29 347.71 368.21
  Q 346.80 368.00 346.75 368.00
  Q 238.40 367.99 130.06 367.97
  Q 127.56 367.97 125.24 368.86
  Q 124.73 369.06 124.62 369.60
  Q 123.59 374.64 124.08 380.19
  Z
  M 336.34 447.58
  L 341.15 451.90
  Q 343.46 455.93 350.25 455.97
  Q 373.70 456.11 379.69 455.95
  C 386.77 455.77 387.95 450.68 387.98 444.40
  Q 388.04 430.70 387.96 417.00
  Q 387.92 410.73 383.66 408.84
  L 379.71 404.40
  Q 363.54 403.78 347.70 403.97
  C 340.94 404.05 336.23 405.17 336.08 412.76
  Q 335.76 429.80 336.34 447.58
  Z
  M 124.22 419.99
  Q 123.88 422.91 127.12 424.01
  C 130.06 428.10 133.58 432.01 137.75 432.01
  Q 218.04 432.00 298.34 432.00
  C 302.47 432.00 303.92 430.55 303.92 426.50
  C 303.93 422.48 304.72 419.80 302.15 416.64
  Q 299.38 413.23 295.75 410.67
  Q 294.80 408.03 291.99 408.01
  Q 210.16 407.98 128.31 408.07
  Q 126.42 408.08 125.05 409.15
  A 1.45 1.45 0.0 0 0 124.54 409.97
  Q 123.54 414.95 124.22 419.99
  Z"
/>
<path fill="#368f43" d="
  M 413.01 45.58
  C 415.03 47.28 416.00 49.35 416.00 52.18
  Q 416.00 255.48 416.00 458.79
  C 416.00 464.45 413.37 468.00 407.62 468.00
  Q 258.94 468.01 110.25 468.00
  Q 107.90 468.00 105.76 464.58
  Q 117.77 463.86 129.60 464.02
  Q 144.82 464.23 144.90 464.23
  Q 318.71 464.43 404.00 464.00
  C 410.60 463.96 412.00 459.37 412.00 453.47
  Q 412.00 251.23 412.00 49.00
  Q 412.00 46.85 413.01 45.58
  Z"
/>
<path fill="#eeefef" d="
  M 200.19 62.00
  Q 200.12 72.55 190.50 71.96
  C 181.18 69.74 182.32 56.31 192.09 56.18
  Q 197.51 56.11 200.19 62.00
  Z"
/>
<path fill="#eeefef" d="
  M 231.98 61.81
  C 232.53 67.29 229.85 71.89 224.25 71.94
  Q 222.88 71.95 221.37 72.00
  Q 217.41 69.78 216.50 66.74
  C 213.43 56.43 227.59 51.59 231.98 61.81
  Z"
/>
<path fill="#eeefef" d="
  M 263.97 62.51
  Q 264.53 72.24 253.60 72.25
  Q 245.82 67.76 248.81 60.56
  C 251.63 53.79 262.05 54.94 263.97 62.51
  Z"
/>
<path fill="#368f43" d="
  M 221.37 72.00
  Q 222.88 71.95 224.25 71.94
  C 229.85 71.89 232.53 67.29 231.98 61.81
  Q 233.83 63.17 234.00 65.57
  Q 234.12 67.37 233.00 69.42
  Q 228.93 76.82 221.37 72.00
  Z"
/>
<path fill="#368f43" d="
  M 190.50 71.96
  Q 200.12 72.55 200.19 62.00
  Q 204.38 67.82 198.73 72.26
  C 197.09 73.55 195.44 73.82 193.39 73.88
  Q 190.76 73.97 190.50 71.96
  Z"
/>
<path fill="#368f43" d="
  M 253.60 72.25
  Q 264.53 72.24 263.97 62.51
  C 264.56 61.04 265.40 62.55 265.46 63.31
  Q 266.49 77.28 253.60 72.25
  Z"
/>
<path fill="#eeefef" d="
  M 103.91 68.04
  Q 113.83 67.83 124.08 68.19
  C 127.29 68.30 128.11 69.75 127.92 72.78
  Q 128.31 91.84 127.68 97.03
  Q 127.28 100.23 123.49 100.00
  Q 118.38 99.70 99.23 100.18
  Q 97.68 99.69 96.32 97.86
  Q 96.02 97.45 96.02 96.95
  Q 95.95 84.25 96.04 71.57
  C 96.06 67.76 101.37 68.00 103.91 68.04
  Z"
/>
<path fill="#368f43" d="
  M 104.10 104.77
  Q 103.27 102.57 99.23 100.18
  Q 118.38 99.70 123.49 100.00
  Q 127.28 100.23 127.68 97.03
  Q 128.31 91.84 127.92 72.78
  L 128.07 71.93
  A 0.65 0.65 0.0 0 1 129.16 71.58
  C 132.89 75.20 139.92 80.43 139.97 86.06
  C 140.03 92.97 141.25 104.74 139.29 111.10
  Q 139.13 111.61 138.60 111.64
  Q 121.56 112.46 111.57 111.91
  C 107.82 111.71 108.68 106.21 104.10 104.77
  Z"
/>
<path fill="#424243" d="
  M 356.00 76.03
  Q 356.01 184.28 355.99 292.51
  C 355.99 296.49 356.38 299.78 351.74 299.95
  Q 348.18 300.09 344.01 299.99
  Q 343.99 191.64 344.00 83.25
  Q 344.00 81.39 344.48 78.20
  Q 344.56 77.70 344.94 77.38
  C 347.35 75.34 352.94 75.95 356.00 76.03
  Z"
/>
<path fill="#202020" d="
  M 356.00 76.03
  Q 358.87 76.11 359.95 78.94
  L 359.86 300.84
  A 2.97 2.96 0.0 0 1 356.89 303.80
  L 346.48 303.80
  Q 344.08 302.85 344.01 299.99
  Q 348.18 300.09 351.74 299.95
  C 356.38 299.78 355.99 296.49 355.99 292.51
  Q 356.01 184.28 356.00 76.03
  Z"
/>
<path fill="#424243" d="
  M 388.00 76.07
  Q 387.93 76.22 387.70 76.29
  Q 387.47 76.36 387.67 76.49
  Q 387.78 76.56 387.96 76.56
  Q 388.00 76.56 388.00 76.60
  C 388.00 150.32 388.52 224.09 387.62 297.78
  A 1.80 1.80 0.0 0 1 385.90 299.56
  L 376.01 300.00
  Q 375.99 192.23 376.00 84.44
  C 376.00 82.50 376.28 80.47 376.39 78.59
  A 2.39 2.38 0.8 0 1 378.70 76.35
  L 388.00 76.07
  Z"
/>
<path fill="#202020" d="
  M 388.00 76.07
  Q 390.97 76.03 391.86 78.74
  Q 392.16 179.66 392.06 280.56
  Q 392.05 290.93 391.64 301.29
  A 2.63 2.62 -89.3 0 1 389.06 303.81
  L 378.95 303.99
  Q 376.21 303.22 376.01 300.00
  L 385.90 299.56
  A 1.80 1.80 0.0 0 0 387.62 297.78
  C 388.52 224.09 388.00 150.32 388.00 76.60
  Q 388.00 76.56 387.96 76.56
  Q 387.78 76.56 387.67 76.49
  Q 387.47 76.36 387.70 76.29
  Q 387.93 76.22 388.00 76.07
  Z"
/>
<path fill="#368f43" d="
  M 391.86 78.74
  Q 396.08 81.81 399.32 86.09
  Q 399.63 86.50 399.64 87.01
  C 400.81 160.42 400.01 234.22 399.99 308.13
  A 3.87 3.87 0.0 0 1 396.12 312.00
  C 393.05 312.00 388.41 312.72 385.77 310.91
  Q 381.82 308.21 378.95 303.99
  L 389.06 303.81
  A 2.63 2.62 -89.3 0 0 391.64 301.29
  Q 392.05 290.93 392.06 280.56
  Q 392.16 179.66 391.86 78.74
  Z"
/>
<path fill="#368f43" d="
  M 359.95 78.94
  L 367.07 85.85
  A 1.57 1.52 -75.0 0 1 367.52 86.66
  C 367.67 87.35 368.00 88.08 368.00 88.76
  Q 368.01 198.13 367.99 307.50
  C 367.99 313.55 360.16 311.94 356.30 312.05
  A 1.78 1.68 58.8 0 1 355.36 311.79
  Q 350.22 308.60 346.48 303.80
  L 356.89 303.80
  A 2.97 2.96 0.0 0 0 359.86 300.84
  L 359.95 78.94
  Z"
/>
<path fill="#424243" d="
  M 279.99 97.17
  Q 280.02 148.80 279.98 200.14
  C 279.97 206.33 279.11 211.89 271.94 211.98
  Q 248.87 212.24 164.85 211.87
  Q 164.04 208.69 164.04 207.00
  Q 164.00 157.60 164.00 108.20
  C 164.00 101.74 165.01 96.00 172.50 96.00
  Q 223.25 96.00 274.00 95.94
  Q 277.62 95.94 279.99 97.17
  Z
  M 184.12 199.80
  Q 187.80 203.94 195.74 203.96
  Q 227.67 204.05 259.61 203.98
  C 266.59 203.96 271.98 203.05 271.98 194.99
  Q 272.02 161.75 271.94 128.50
  C 271.93 123.50 271.83 120.52 268.85 117.08
  Q 268.57 116.76 268.25 117.03
  Q 267.84 117.37 267.71 117.75
  Q 265.76 111.98 259.50 111.98
  Q 225.24 111.96 190.98 112.01
  C 185.08 112.02 180.00 113.68 180.00 120.25
  Q 179.99 156.34 180.02 192.44
  Q 180.02 195.79 184.12 199.80
  Z"
/>
<path fill="#202020" d="
  M 279.99 97.17
  Q 282.55 98.46 283.64 101.07
  Q 283.80 103.24 283.81 105.00
  Q 284.01 154.64 283.99 204.28
  C 283.98 210.99 282.90 215.98 275.25 216.00
  Q 222.43 216.08 169.42 215.95
  Q 166.10 214.01 164.85 211.87
  Q 248.87 212.24 271.94 211.98
  C 279.11 211.89 279.97 206.33 279.98 200.14
  Q 280.02 148.80 279.99 97.17
  Z"
/>
<path fill="#368f43" d="
  M 283.64 101.07
  Q 287.91 103.02 287.92 108.81
  Q 288.08 187.93 287.98 211.00
  C 287.94 218.77 282.77 219.98 275.92 219.99
  Q 226.46 220.03 177.00 219.99
  Q 171.49 219.99 169.42 215.95
  Q 222.43 216.08 275.25 216.00
  C 282.90 215.98 283.98 210.99 283.99 204.28
  Q 284.01 154.64 283.81 105.00
  Q 283.80 103.24 283.64 101.07
  Z"
/>
<path fill="#eeefef" d="
  M 267.71 117.75
  Q 268.25 153.87 267.94 190.00
  C 267.90 195.70 266.21 199.93 260.00 200.00
  Q 234.31 200.27 184.12 199.80
  Q 180.02 195.79 180.02 192.44
  Q 179.99 156.34 180.00 120.25
  C 180.00 113.68 185.08 112.02 190.98 112.01
  Q 225.24 111.96 259.50 111.98
  Q 265.76 111.98 267.71 117.75
  Z"
/>
<path fill="#eeefef" d="
  M 104.03 116.03
  Q 114.49 115.82 124.99 116.21
  C 126.78 116.28 127.39 117.10 127.82 118.69
  C 127.95 122.46 128.73 145.59 126.72 147.22
  C 124.69 148.86 102.94 148.05 98.57 148.13
  L 96.38 145.95
  A 1.23 1.22 -68.1 0 1 96.01 145.07
  Q 95.97 132.77 96.03 120.51
  C 96.05 115.56 100.59 116.05 104.03 116.03
  Z"
/>
<path fill="#202020" d="
  M 184.12 199.80
  Q 234.31 200.27 260.00 200.00
  C 266.21 199.93 267.90 195.70 267.94 190.00
  Q 268.25 153.87 267.71 117.75
  Q 267.84 117.37 268.25 117.03
  Q 268.57 116.76 268.85 117.08
  C 271.83 120.52 271.93 123.50 271.94 128.50
  Q 272.02 161.75 271.98 194.99
  C 271.98 203.05 266.59 203.96 259.61 203.98
  Q 227.67 204.05 195.74 203.96
  Q 187.80 203.94 184.12 199.80
  Z"
/>
<path fill="#368f43" d="
  M 127.82 118.69
  C 131.20 121.43 139.79 128.23 139.93 133.30
  Q 140.29 146.03 139.60 158.60
  A 1.16 1.16 0.0 0 1 138.50 159.69
  Q 126.76 160.24 114.50 159.94
  C 111.72 159.87 110.83 160.11 108.69 158.06
  Q 106.60 156.06 104.19 154.59
  L 98.57 148.13
  C 102.94 148.05 124.69 148.86 126.72 147.22
  C 128.73 145.59 127.95 122.46 127.82 118.69
  Z"
/>
<path fill="#eeefef" d="
  M 104.06 163.97
  Q 114.15 163.86 124.28 164.19
  C 127.63 164.30 128.03 166.14 127.92 169.06
  L 127.59 193.96
  A 1.84 1.84 0.0 0 1 125.77 195.78
  L 98.58 196.05
  L 96.38 193.93
  A 1.18 1.18 0.0 0 1 96.01 193.07
  Q 95.97 180.65 96.05 168.26
  C 96.08 163.47 100.88 164.06 104.06 163.97
  Z"
/>
<path fill="#368f43" d="
  M 103.97 202.93
  C 104.40 201.38 99.93 197.48 98.58 196.05
  L 125.77 195.78
  A 1.84 1.84 0.0 0 0 127.59 193.96
  L 127.92 169.06
  L 128.03 167.95
  A 0.64 0.64 0.0 0 1 129.10 167.55
  C 132.31 170.56 139.94 176.63 139.98 181.26
  Q 140.06 192.00 139.99 202.75
  Q 139.98 205.05 139.16 207.16
  Q 138.97 207.65 138.44 207.68
  Q 123.11 208.39 113.31 207.93
  Q 108.96 207.73 106.37 203.82
  Q 106.10 203.43 105.64 203.32
  L 103.97 202.93
  Z"
/>
<path fill="#3c83c4" d="
  M 103.86 219.94
  Q 114.11 220.04 124.75 220.00
  Q 127.50 219.99 127.94 223.36
  L 127.94 296.80
  A 3.13 3.13 0.0 0 1 124.84 299.93
  L 98.75 300.19
  Q 97.52 299.66 96.30 297.89
  Q 96.01 297.48 96.01 296.97
  Q 95.98 260.26 96.02 223.57
  C 96.02 219.84 101.21 219.99 103.86 219.94
  Z"
/>
<path fill="#368f43" d="
  M 104.02 307.00
  L 104.00 306.15
  Q 103.98 305.64 103.63 305.27
  L 98.75 300.19
  L 124.84 299.93
  A 3.13 3.13 0.0 0 0 127.94 296.80
  L 127.94 223.36
  Q 133.91 227.69 138.74 233.16
  C 139.30 233.80 140.00 235.66 140.00 236.53
  Q 140.00 270.39 139.90 304.25
  Q 139.89 307.38 139.58 310.20
  A 1.60 1.59 -88.3 0 1 138.08 311.62
  Q 126.88 312.21 115.23 311.96
  Q 108.67 311.81 105.69 307.16
  Q 105.41 306.71 104.89 306.74
  Q 104.39 306.76 104.02 307.00
  Z"
/>
<path fill="#ffffff" d="
  M 229.02 248.17
  C 227.80 253.45 228.33 259.21 228.05 264.46
  A 4.02 4.01 1.6 0 1 224.04 268.25
  L 168.29 268.25
  Q 167.57 259.91 168.29 251.50
  C 168.55 248.50 170.07 248.17 172.69 248.12
  C 186.03 247.83 199.03 248.17 212.71 248.03
  Q 220.86 247.94 229.02 248.17
  Z"
/>
<path fill="#eeefef" d="
  M 229.02 248.17
  Q 231.65 248.28 231.64 250.87
  L 231.62 270.16
  A 1.53 1.52 -0.2 0 1 230.10 271.68
  L 170.82 271.87
  Q 167.81 271.40 168.29 268.25
  L 224.04 268.25
  A 4.02 4.01 1.6 0 0 228.05 264.46
  C 228.33 259.21 227.80 253.45 229.02 248.17
  Z"
/>
<path fill="#368f43" d="
  M 231.64 250.87
  Q 235.64 253.57 238.49 257.03
  C 241.06 260.15 240.03 271.74 240.00 275.93
  A 4.11 4.10 -89.9 0 1 235.92 280.00
  Q 209.26 280.14 181.75 279.96
  Q 178.13 279.94 175.94 277.83
  Q 173.07 275.07 170.82 271.87
  L 230.10 271.68
  A 1.53 1.52 -0.2 0 0 231.62 270.16
  L 231.64 250.87
  Z"
/>
<path fill="#eeefef" d="
  M 313.99 270.03
  C 322.68 292.23 302.15 310.42 280.58 301.65
  Q 266.41 292.41 268.25 276.49
  Q 269.36 267.00 278.17 260.43
  C 290.01 251.62 307.38 256.64 313.99 270.03
  Z"
/>
<path fill="#368f43" d="
  M 280.58 301.65
  C 302.15 310.42 322.68 292.23 313.99 270.03
  Q 314.28 269.71 314.65 269.55
  Q 315.12 269.34 315.41 269.77
  C 325.50 284.65 317.67 304.35 299.83 307.65
  Q 289.27 309.60 280.58 301.65
  Z"
/>
<path fill="#ffffff" d="
  M 229.18 288.15
  Q 227.44 295.31 228.18 302.49
  Q 228.66 307.12 224.84 307.87
  Q 221.59 308.51 213.27 308.32
  C 198.27 307.98 183.27 308.06 168.23 308.20
  Q 167.55 299.16 168.44 289.88
  Q 168.50 289.30 169.02 289.03
  Q 170.85 288.09 173.75 288.08
  Q 201.55 287.90 229.18 288.15
  Z"
/>
<path fill="#eeefef" d="
  M 229.18 288.15
  Q 231.71 288.57 231.66 290.75
  L 231.65 310.10
  A 1.46 1.45 85.9 0 1 230.41 311.54
  Q 227.29 312.00 223.75 312.02
  Q 197.66 312.13 171.03 311.85
  L 169.19 311.29
  Q 168.72 311.15 168.52 310.70
  Q 168.08 309.64 168.23 308.20
  C 183.27 308.06 198.27 307.98 213.27 308.32
  Q 221.59 308.51 224.84 307.87
  Q 228.66 307.12 228.18 302.49
  Q 227.44 295.31 229.18 288.15
  Z"
/>
<path fill="#368f43" d="
  M 231.66 290.75
  C 233.93 292.39 239.53 296.58 239.71 299.82
  Q 240.06 306.33 239.95 312.83
  C 239.88 316.74 240.30 319.96 235.70 319.97
  Q 209.71 320.02 183.76 319.78
  C 181.33 319.76 179.16 320.06 177.08 318.51
  Q 173.43 315.79 171.03 311.85
  Q 197.66 312.13 223.75 312.02
  Q 227.29 312.00 230.41 311.54
  A 1.46 1.45 85.9 0 0 231.65 310.10
  L 231.66 290.75
  Z"
/>
<path fill="#ffffff" d="
  M 348.51 332.01
  C 348.71 334.95 348.24 337.62 347.99 340.50
  Q 347.67 344.15 343.06 344.16
  Q 181.84 344.28 124.05 344.16
  Q 123.80 339.49 124.24 335.25
  C 124.61 331.72 127.70 332.24 130.06 332.23
  Q 239.27 331.99 348.51 332.01
  Z"
/>
<path fill="#eeefef" d="
  M 348.51 332.01
  Q 351.91 332.36 351.91 336.01
  L 351.50 346.25
  A 1.43 1.42 1.0 0 1 350.07 347.62
  L 127.10 347.96
  Q 123.83 347.17 124.05 344.16
  Q 181.84 344.28 343.06 344.16
  Q 347.67 344.15 347.99 340.50
  C 348.24 337.62 348.71 334.95 348.51 332.01
  Z"
/>
<path fill="#368f43" d="
  M 127.10 347.96
  L 350.07 347.62
  A 1.43 1.42 1.0 0 0 351.50 346.25
  L 351.91 336.01
  L 352.04 335.42
  A 0.53 0.53 0.0 0 1 352.95 335.17
  C 358.67 341.26 360.83 342.07 359.75 351.51
  C 359.33 355.15 358.03 356.00 354.35 356.00
  Q 245.18 356.00 136.00 356.00
  C 133.25 356.00 128.33 349.91 127.10 347.96
  Z"
/>
<path fill="#ffffff" d="
  M 348.58 368.30
  L 347.76 377.35
  A 2.64 2.64 0.0 0 1 345.72 379.69
  Q 344.06 380.07 341.75 380.08
  Q 232.87 380.30 124.08 380.19
  Q 123.59 374.64 124.62 369.60
  Q 124.73 369.06 125.24 368.86
  Q 127.56 367.97 130.06 367.97
  Q 238.40 367.99 346.75 368.00
  Q 346.80 368.00 347.71 368.21
  Q 348.05 368.29 348.58 368.30
  Z"
/>
<path fill="#eeefef" d="
  M 348.58 368.30
  Q 350.83 367.82 351.77 370.54
  L 351.55 381.66
  A 2.31 2.30 0.5 0 1 349.24 383.92
  L 126.75 383.79
  Q 123.92 383.06 124.08 380.19
  Q 232.87 380.30 341.75 380.08
  Q 344.06 380.07 345.72 379.69
  A 2.64 2.64 0.0 0 0 347.76 377.35
  L 348.58 368.30
  Z"
/>
<path fill="#368f43" d="
  M 351.77 370.54
  Q 355.39 373.45 358.30 376.69
  C 360.78 379.46 360.08 384.83 359.98 388.30
  A 3.82 3.82 0.0 0 1 356.16 392.00
  Q 247.06 392.01 137.31 391.99
  Q 135.66 391.99 133.52 390.75
  Q 130.19 388.81 126.75 383.79
  L 349.24 383.92
  A 2.31 2.30 0.5 0 0 351.55 381.66
  L 351.77 370.54
  Z"
/>
<path fill="#424243" d="
  M 379.71 404.40
  Q 380.24 421.90 379.94 439.49
  C 379.83 445.87 376.02 447.79 370.00 447.93
  Q 353.13 448.34 336.34 447.58
  Q 335.76 429.80 336.08 412.76
  C 336.23 405.17 340.94 404.05 347.70 403.97
  Q 363.54 403.78 379.71 404.40
  Z"
/>
<path fill="#202020" d="
  M 379.71 404.40
  L 383.66 408.84
  C 383.61 410.00 384.00 411.03 384.00 412.07
  Q 384.01 426.48 383.99 440.90
  C 383.99 447.66 382.72 451.85 375.24 451.93
  Q 358.38 452.13 341.15 451.90
  L 336.34 447.58
  Q 353.13 448.34 370.00 447.93
  C 376.02 447.79 379.83 445.87 379.94 439.49
  Q 380.24 421.90 379.71 404.40
  Z"
/>
<path fill="#424243" d="
  M 291.99 408.01
  L 291.54 418.32
  Q 291.51 418.91 290.99 419.19
  Q 289.55 419.98 287.25 419.98
  Q 205.78 420.02 124.22 419.99
  Q 123.54 414.95 124.54 409.97
  A 1.45 1.45 0.0 0 1 125.05 409.15
  Q 126.42 408.08 128.31 408.07
  Q 210.16 407.98 291.99 408.01
  Z"
/>
<path fill="#202020" d="
  M 291.99 408.01
  Q 294.80 408.03 295.75 410.67
  C 296.16 414.96 297.98 424.00 291.25 424.00
  Q 209.34 423.99 127.12 424.01
  Q 123.88 422.91 124.22 419.99
  Q 205.78 420.02 287.25 419.98
  Q 289.55 419.98 290.99 419.19
  Q 291.51 418.91 291.54 418.32
  L 291.99 408.01
  Z"
/>
<path fill="#368f43" d="
  M 383.66 408.84
  Q 387.92 410.73 387.96 417.00
  Q 388.04 430.70 387.98 444.40
  C 387.95 450.68 386.77 455.77 379.69 455.95
  Q 373.70 456.11 350.25 455.97
  Q 343.46 455.93 341.15 451.90
  Q 358.38 452.13 375.24 451.93
  C 382.72 451.85 383.99 447.66 383.99 440.90
  Q 384.01 426.48 384.00 412.07
  C 384.00 411.03 383.61 410.00 383.66 408.84
  Z"
/>
<path fill="#368f43" d="
  M 295.75 410.67
  Q 299.38 413.23 302.15 416.64
  C 304.72 419.80 303.93 422.48 303.92 426.50
  C 303.92 430.55 302.47 432.00 298.34 432.00
  Q 218.04 432.00 137.75 432.01
  C 133.58 432.01 130.06 428.10 127.12 424.01
  Q 209.34 423.99 291.25 424.00
  C 297.98 424.00 296.16 414.96 295.75 410.67
  Z"
/>
</svg>
