<?xml version="1.0" encoding="UTF-8" standalone="no"?>
<!DOCTYPE svg PUBLIC "-//W3C//DTD SVG 1.1//EN" "http://www.w3.org/Graphics/SVG/1.1/DTD/svg11.dtd">
<svg xmlns="http://www.w3.org/2000/svg" version="1.1" viewBox="0.00 0.00 150.00 280.00">
<g stroke-width="2.00" fill="none" stroke-linecap="butt">
<path stroke="#686868" vector-effect="non-scaling-stroke" d="
  M 137.54 57.50
  Q 137.03 57.51 136.90 57.64
  A 0.60 0.60 0.0 0 1 135.90 57.19
  Q 136.23 41.62 135.98 27.50
  Q 135.93 24.98 135.01 22.71"
/>
<path stroke="#b6b6b6" vector-effect="non-scaling-stroke" d="
  M 135.01 22.71
  Q 135.13 18.34 134.56 11.69
  C 134.18 7.13 131.64 5.95 127.26 5.91
  Q 82.62 5.48 53.19 5.85
  Q 35.41 6.08 25.25 5.72
  Q 21.81 5.60 18.13 8.06"
/>
<path stroke="#9d9d9e" vector-effect="non-scaling-stroke" d="
  M 18.13 8.06
  Q 17.59 7.63 17.87 6.02
  Q 17.97 5.49 16.43 5.33"
/>
<path stroke="#a7a6a6" vector-effect="non-scaling-stroke" d="
  M 135.01 22.71
  L 135.01 163.40"
/>
<path stroke="#e7e7e7" vector-effect="non-scaling-stroke" d="
  M 135.01 163.40
  Q 133.25 166.96 128.01 163.82
  A 0.81 0.70 57.2 0 0 127.70 163.73
  Q 126.37 163.68 126.07 161.67"
/>
<path stroke="#8b8b8b" vector-effect="non-scaling-stroke" d="
  M 126.07 161.67
  Q 125.81 159.43 123.70 160.54
  A 0.85 0.82 -14.7 0 0 123.26 161.27
  L 123.31 164.35"
/>
<path stroke="#e7e7e7" vector-effect="non-scaling-stroke" d="
  M 123.31 164.35
  Q 119.31 164.95 115.87 166.23
  C 113.08 167.27 110.75 167.09 107.95 166.95
  C 103.85 166.74 100.60 168.16 96.83 169.32
  Q 94.27 170.11 91.02 170.16
  C 86.85 170.22 81.82 171.06 77.28 169.66
  C 74.21 168.72 71.35 169.69 68.15 168.83
  Q 64.99 167.99 61.69 167.87
  Q 61.18 167.86 60.76 167.57
  C 57.57 165.39 54.13 164.94 51.06 163.23
  C 49.03 162.10 44.82 158.50 43.69 162.66
  Q 43.48 163.43 43.15 164.21
  Q 42.96 164.65 43.03 165.12
  Q 43.27 166.79 42.14 168.00
  A 0.71 0.70 -22.3 0 1 40.92 167.49
  L 41.24 160.55
  Q 41.26 160.05 40.88 159.73
  L 39.46 158.55
  A 1.57 1.56 11.0 0 1 38.97 157.83
  L 38.08 155.05
  A 2.06 2.05 -14.9 0 0 35.71 153.68
  L 31.80 154.50
  Q 31.36 154.59 30.95 154.41
  Q 28.56 153.35 26.03 154.04
  Q 25.52 154.19 25.10 153.87
  Q 22.44 151.86 19.66 153.60
  Q 19.47 153.72 19.33 153.72
  Q 19.20 153.72 19.07 153.67
  Q 18.82 153.56 18.63 153.77
  L 18.21 154.22
  A 0.11 0.11 0.0 0 1 18.02 154.14
  Q 18.11 153.07 17.76 152.49"
/>
<path stroke="#cbcbcb" vector-effect="non-scaling-stroke" d="
  M 17.76 152.49
  L 17.79 101.75"
/>
<path stroke="#d4d4d4" vector-effect="non-scaling-stroke" d="
  M 17.79 101.75
  L 18.04 84.46"
/>
<path stroke="#dcdcdc" vector-effect="non-scaling-stroke" d="
  M 18.13 8.06
  L 18.04 84.46"
/>
<path stroke="#bcbcbc" vector-effect="non-scaling-stroke" d="
  M 18.04 84.46
  Q 15.58 85.06 15.51 81.99
  Q 15.19 66.38 16.14 41.76
  Q 16.14 41.62 16.00 41.58
  Q 15.87 41.54 15.72 41.51
  Q 15.42 41.45 15.41 41.15
  L 15.08 31.50"
/>
<path stroke="#686868" vector-effect="non-scaling-stroke" d="
  M 138.23 237.75
  L 137.99 234.61
  Q 137.99 234.56 137.94 234.56
  Q 137.90 234.56 137.87 234.56
  Q 137.75 234.56 137.75 234.69
  L 136.89 266.23"
/>
<path stroke="#8e8e8e" vector-effect="non-scaling-stroke" d="
  M 136.89 266.23
  L 136.49 267.85"
/>
<path stroke="#878686" vector-effect="non-scaling-stroke" d="
  M 136.49 267.85
  L 134.69 266.87
  Q 134.30 266.66 134.31 266.21
  L 134.73 244.49"
/>
<path stroke="#8e8e8e" vector-effect="non-scaling-stroke" d="
  M 134.73 244.49
  L 135.00 198.49"
/>
<path stroke="#999999" vector-effect="non-scaling-stroke" d="
  M 135.00 198.49
  L 135.01 163.40"
/>
<path stroke="#bebebd" vector-effect="non-scaling-stroke" d="
  M 17.76 152.49
  L 18.02 194.73"
/>
<path stroke="#b3b3b2" vector-effect="non-scaling-stroke" d="
  M 18.02 194.73
  L 18.02 234.24"
/>
<path stroke="#ababab" vector-effect="non-scaling-stroke" d="
  M 18.02 234.24
  L 18.06 266.44
  Q 18.06 267.00 17.50 267.02
  L 17.02 267.04"
/>
<path stroke="#b3b3b2" vector-effect="non-scaling-stroke" d="
  M 17.02 267.04
  Q 15.29 265.47 15.38 264.19
  C 15.82 257.17 15.29 248.48 15.22 243.27
  Q 14.87 215.87 15.02 188.10
  A 0.63 0.63 0.0 0 0 13.76 188.03
  L 13.58 189.76"
/>
<path stroke="#7e7e7e" vector-effect="non-scaling-stroke" d="
  M 123.31 164.35
  L 123.30 167.11
  Q 123.30 167.75 123.94 167.75
  L 125.27 167.75
  A 0.73 0.73 0.0 0 0 126.00 167.03
  L 126.07 161.67"
/>
<path stroke="#cecece" vector-effect="non-scaling-stroke" d="
  M 135.00 198.49
  L 134.72 199.91
  Q 134.63 200.36 134.16 200.34
  C 130.54 200.18 126.72 201.94 124.26 202.46
  C 118.16 203.73 111.95 204.22 106.81 205.11
  C 104.08 205.58 101.27 205.40 98.46 205.82
  C 94.89 206.36 91.83 205.54 88.25 205.79
  Q 87.74 205.83 87.30 205.57
  C 83.91 203.61 81.23 204.58 78.12 204.47
  C 72.29 204.28 66.26 204.33 60.72 203.12
  Q 52.85 201.39 47.57 198.90
  Q 43.86 197.14 41.15 197.47
  A 1.45 1.40 56.0 0 1 40.21 197.27
  Q 37.24 195.49 33.77 195.76
  A 1.38 1.35 -32.3 0 1 32.97 195.59
  Q 25.48 191.32 18.02 194.73"
/>
<path stroke="#ababab" vector-effect="non-scaling-stroke" d="
  M 17.79 101.75
  L 15.60 98.93
  Q 15.53 98.85 15.45 98.93
  L 15.19 99.18
  A 0.27 0.27 0.0 0 1 14.73 98.99
  L 14.64 79.75"
/>
<path stroke="#d4d4d4" vector-effect="non-scaling-stroke" d="
  M 105.10 245.56
  Q 104.75 245.29 105.31 246.01"
/>
<path stroke="#6b6b6b" vector-effect="non-scaling-stroke" d="
  M 105.31 246.01
  Q 105.07 246.25 104.92 246.48
  Q 104.78 246.70 104.82 247.05
  Q 105.84 254.64 113.09 256.72
  A 0.79 0.79 0.0 0 0 114.06 256.21
  L 117.42 246.16"
/>
<path stroke="#d4d4d4" vector-effect="non-scaling-stroke" d="
  M 117.42 246.16
  Q 118.82 244.58 119.13 241.83
  Q 119.19 241.25 119.77 241.25
  L 124.43 241.25
  A 1.11 1.11 0.0 0 1 125.48 242.71
  L 124.41 245.92"
/>
<path stroke="#6b6b6b" vector-effect="non-scaling-stroke" d="
  M 124.41 245.92
  L 122.54 250.34
  Q 122.32 250.86 121.76 250.91
  L 118.73 251.20
  Q 118.31 251.24 118.10 251.60
  Q 117.77 252.16 117.70 252.95"
/>
<path stroke="#969696" vector-effect="non-scaling-stroke" d="
  M 117.70 252.95
  Q 116.39 254.55 116.29 256.68
  Q 116.27 257.17 116.76 257.13
  Q 122.35 256.65 125.52 252.61"
/>
<path stroke="#6b6b6b" vector-effect="non-scaling-stroke" d="
  M 125.52 252.61
  Q 127.37 249.83 127.72 246.81
  Q 127.79 246.28 127.25 246.26
  L 125.71 246.21"
/>
<path stroke="#d4d4d4" vector-effect="non-scaling-stroke" d="
  M 125.71 246.21
  Q 126.61 245.71 127.84 246.17"
/>
<path stroke="#c7c7c7" vector-effect="non-scaling-stroke" d="
  M 125.77 271.10
  Q 76.23 271.22 26.75 270.99
  Q 21.66 270.96 17.78 267.99"
/>
<path stroke="#bcbcbc" vector-effect="non-scaling-stroke" d="
  M 17.02 267.04
  Q 17.81 267.49 17.78 267.99"
/>
<path stroke="#cecece" vector-effect="non-scaling-stroke" d="
  M 17.78 267.99
  Q 16.55 267.88 15.56 268.39
  Q 15.07 268.65 15.23 269.18
  C 16.26 272.55 18.71 273.70 22.25 273.71
  Q 37.35 273.78 52.46 273.81
  C 62.84 273.83 78.05 274.35 90.88 274.07
  C 103.76 273.78 117.69 274.59 131.38 273.90
  A 0.89 0.89 0.0 0 0 131.49 272.14
  L 125.77 271.10"
/>
<path stroke="#bcbcbc" vector-effect="non-scaling-stroke" d="
  M 125.77 271.10
  L 135.19 269.29
  Q 135.60 269.21 135.74 268.81
  Q 135.91 268.28 136.49 267.85"
/>
<path stroke="#9d9d9e" vector-effect="non-scaling-stroke" d="
  M 136.89 266.23
  Q 137.21 265.87 138.54 266.01"
/>
<path stroke="#8e8e8e" vector-effect="non-scaling-stroke" d="
  M 135.05 273.06
  L 127.72 275.23"
/>
<path stroke="#bcbcbc" vector-effect="non-scaling-stroke" d="
  M 134.73 244.49
  Q 134.53 244.54 134.48 245.01
  A 0.12 0.11 49.3 0 1 134.25 244.99
  Q 134.25 244.84 134.25 244.69
  A 0.18 0.17 82.4 0 0 134.03 244.52
  L 127.84 246.17"
/>
<path stroke="#dcdcdc" vector-effect="non-scaling-stroke" d="
  M 127.84 246.17
  Q 127.48 242.60 125.57 240.03
  Q 125.27 239.63 124.77 239.62
  Q 122.27 239.56 119.74 239.47
  Q 119.22 239.45 118.78 239.99
  Q 118.54 240.28 118.17 240.18
  L 115.04 239.35
  Q 114.28 239.15 114.12 239.92
  L 113.99 240.61
  Q 113.89 241.09 114.38 241.17
  L 116.44 241.50
  Q 117.22 241.62 116.99 242.38
  L 115.90 246.03"
/>
<path stroke="#737373" vector-effect="non-scaling-stroke" d="
  M 115.90 246.03
  Q 115.28 247.06 114.44 249.95
  Q 113.99 251.48 112.34 250.92
  Q 111.93 250.78 112.04 250.36
  L 113.16 246.10"
/>
<path stroke="#dcdcdc" vector-effect="non-scaling-stroke" d="
  M 113.16 246.10
  Q 114.67 244.92 114.40 243.22
  Q 114.29 242.53 113.67 242.86
  Q 112.26 243.62 111.82 245.94"
/>
<path stroke="#737373" vector-effect="non-scaling-stroke" d="
  M 111.82 245.94
  Q 110.77 247.52 110.20 249.69
  Q 110.00 250.46 109.58 250.73
  Q 108.92 251.16 108.17 250.63
  Q 107.78 250.36 107.95 249.91
  L 109.03 247.01
  Q 109.20 246.56 108.81 246.28
  L 108.48 246.04"
/>
<path stroke="#dcdcdc" vector-effect="non-scaling-stroke" d="
  M 108.48 246.04
  L 108.78 246.01
  A 0.88 0.88 0.0 0 0 109.53 245.43
  L 112.25 237.94
  A 0.80 0.80 0.0 0 0 111.24 236.91
  Q 105.65 238.82 105.10 245.56"
/>
<path stroke="#bcbcbc" vector-effect="non-scaling-stroke" d="
  M 105.10 245.56
  Q 104.16 245.33 103.69 246.33
  Q 103.43 246.88 103.04 246.41
  Q 102.26 245.46 100.59 246.49
  Q 100.15 246.76 99.74 247.07
  C 96.10 249.82 93.20 247.62 89.93 247.22
  C 85.81 246.71 82.37 245.95 78.01 246.27
  Q 70.59 246.81 63.41 244.98
  Q 57.90 243.57 54.94 243.12
  Q 45.13 241.64 35.63 238.79
  C 30.62 237.29 25.69 234.38 19.06 234.46
  Q 18.86 234.47 18.79 234.65
  Q 18.74 234.79 18.69 234.93
  A 0.15 0.14 39.7 0 1 18.43 234.95
  L 18.02 234.24"
/>
<path stroke="#8b8b8b" vector-effect="non-scaling-stroke" d="
  M 108.48 246.04
  L 105.31 246.01"
/>
<path stroke="#8b8b8b" vector-effect="non-scaling-stroke" d="
  M 125.71 246.21
  L 124.41 245.92"
/>
<path stroke="#8b8b8b" vector-effect="non-scaling-stroke" d="
  M 117.42 246.16
  Q 117.03 245.90 115.90 246.03"
/>
<path stroke="#4d4d4d" vector-effect="non-scaling-stroke" d="
  M 125.52 252.61
  L 121.28 252.51
  Q 120.78 252.50 120.38 252.79
  Q 119.11 253.68 117.70 252.95"
/>
<path stroke="#8b8b8b" vector-effect="non-scaling-stroke" d="
  M 113.16 246.10
  L 111.82 245.94"
/>
<path stroke="#cbcbcb" vector-effect="non-scaling-stroke" d="
  M 123.95 14.57
  L 125.09 15.99
  Q 125.23 16.16 125.25 15.94
  Q 125.28 15.53 125.27 15.14
  Q 125.26 14.65 125.03 14.41
  Q 124.66 14.04 124.00 14.35
  A 0.15 0.15 0.0 0 0 123.95 14.57"
/>
<path stroke="#e7e7e7" vector-effect="non-scaling-stroke" d="
  M 49.73 124.63
  Q 50.32 124.13 50.32 123.75
  Q 50.11 108.36 50.93 93.00
  Q 51.70 78.72 50.32 23.45"
/>
<path stroke="#b6b6b6" vector-effect="non-scaling-stroke" d="
  M 50.32 23.45
  L 50.15 18.06
  A 0.74 0.74 0.0 0 0 49.42 17.34
  L 38.82 17.28
  A 1.65 1.65 0.0 0 0 37.17 18.93
  L 37.02 122.92
  A 1.76 1.76 0.0 0 0 38.78 124.68
  L 49.73 124.63"
/>
<path stroke="#a8a8a9" vector-effect="non-scaling-stroke" d="
  M 50.32 23.45
  Q 50.00 23.57 49.85 23.75"
/>
<path stroke="#b6b6b6" vector-effect="non-scaling-stroke" d="
  M 49.85 23.75
  L 49.77 18.53
  A 0.79 0.79 0.0 0 0 48.98 17.75
  L 39.32 17.75
  A 1.43 1.43 0.0 0 0 37.89 19.18
  L 37.95 122.41
  A 1.83 1.83 0.0 0 0 39.79 124.24
  L 49.49 124.23"
/>
<path stroke="#a8a8a9" vector-effect="non-scaling-stroke" d="
  M 49.49 124.23
  Q 49.77 124.14 49.73 124.63"
/>
<path stroke="#e7e7e7" vector-effect="non-scaling-stroke" d="
  M 49.85 23.75
  Q 48.73 76.17 49.30 94.69
  Q 49.88 113.73 49.77 121.80
  Q 49.77 122.26 49.94 122.67
  Q 50.34 123.63 49.49 124.23"
/>
<path stroke="#a7a6a6" vector-effect="non-scaling-stroke" d="
  M 125.01 17.59
  L 125.28 29.12
  A 0.62 0.62 0.0 0 1 124.63 29.76
  L 123.67 29.71
  Q 123.16 29.68 123.26 30.18
  Q 123.44 31.01 124.50 31.03
  A 1.44 1.44 0.0 0 0 125.96 29.65
  Q 126.19 24.12 125.68 18.26
  Q 125.63 17.70 125.30 17.44
  Q 125.00 17.20 125.01 17.59"
/>
<path stroke="#b6b6b6" vector-effect="non-scaling-stroke" d="
  M 123.52 18.00
  C 123.52 21.68 123.00 25.47 123.32 28.94
  Q 123.33 29.10 123.49 29.16
  Q 123.76 29.25 123.75 28.97
  Q 123.63 25.01 123.99 21.06
  C 124.10 19.90 123.40 18.79 124.36 17.69
  Q 124.53 17.50 124.27 17.50
  Q 124.15 17.50 124.01 17.50
  Q 123.52 17.51 123.52 18.00"
/>
<path stroke="#dcdcdc" vector-effect="non-scaling-stroke" d="
  M 124.17 36.07
  L 125.05 37.65
  Q 125.49 38.45 125.51 37.53
  Q 125.52 36.31 124.50 35.74
  A 0.24 0.24 0.0 0 0 124.17 36.07"
/>
<path stroke="#8b8b8b" vector-effect="non-scaling-stroke" d="
  M 127.15 42.24
  A 2.50 2.50 0.0 0 0 124.65 39.74
  A 2.50 2.50 0.0 0 0 122.15 42.24
  A 2.50 2.50 0.0 0 0 124.65 44.74
  A 2.50 2.50 0.0 0 0 127.15 42.24"
/>
<path stroke="#8b8b8b" vector-effect="non-scaling-stroke" d="
  M 127.0212 53.8858
  A 0.35 0.35 0.0 0 0 126.6706 53.5364
  L 122.5506 53.5436
  A 0.35 0.35 0.0 0 0 122.2012 53.8942
  L 122.2188 63.9542
  A 0.35 0.35 0.0 0 0 122.5694 64.3036
  L 126.6894 64.2964
  A 0.35 0.35 0.0 0 0 127.0388 63.9458
  L 127.0212 53.8858"
/>
<path stroke="#8b8b8b" vector-effect="non-scaling-stroke" d="
  M 126.9986 73.6741
  A 0.43 0.43 0.0 0 0 126.5694 73.2434
  L 122.6894 73.2366
  A 0.43 0.43 0.0 0 0 122.2586 73.6659
  L 122.2414 83.5459
  A 0.43 0.43 0.0 0 0 122.6706 83.9766
  L 126.5506 83.9834
  A 0.43 0.43 0.0 0 0 126.9814 83.5541
  L 126.9986 73.6741"
/>
<path stroke="#8b8b8b" vector-effect="non-scaling-stroke" d="
  M 127.0489 92.9642
  A 0.34 0.34 0.0 0 0 126.7095 92.6236
  L 122.5695 92.6164
  A 0.34 0.34 0.0 0 0 122.2289 92.9558
  L 122.2111 103.1358
  A 0.34 0.34 0.0 0 0 122.5505 103.4764
  L 126.6905 103.4836
  A 0.34 0.34 0.0 0 0 127.0311 103.1442
  L 127.0489 92.9642"
/>
<path stroke="#8b8b8b" vector-effect="non-scaling-stroke" d="
  M 126.99 112.69
  A 0.43 0.43 0.0 0 0 126.56 112.26
  L 122.68 112.26
  A 0.43 0.43 0.0 0 0 122.25 112.69
  L 122.25 122.83
  A 0.43 0.43 0.0 0 0 122.68 123.26
  L 126.56 123.26
  A 0.43 0.43 0.0 0 0 126.99 122.83
  L 126.99 112.69"
/>
<path stroke="#b6b6b6" vector-effect="non-scaling-stroke" d="
  M 124.94 129.00
  Q 123.82 129.07 123.96 130.13
  A 0.77 0.77 0.0 0 0 125.50 130.03
  L 125.50 129.53
  A 0.53 0.53 0.0 0 0 124.94 129.00"
/>
<path stroke="#8b8b8b" vector-effect="non-scaling-stroke" d="
  M 125.99 132.52
  A 0.72 0.72 0.0 0 0 125.27 131.80
  L 123.97 131.80
  A 0.72 0.72 0.0 0 0 123.25 132.52
  L 123.25 151.06
  A 0.72 0.72 0.0 0 0 123.97 151.78
  L 125.27 151.78
  A 0.72 0.72 0.0 0 0 125.99 151.06
  L 125.99 132.52"
/>
<path stroke="#b6b6b6" vector-effect="non-scaling-stroke" d="
  M 124.78 158.04
  L 123.80 158.29
  Q 122.94 158.52 123.80 158.76
  Q 124.60 158.99 125.07 158.63
  A 0.34 0.33 18.9 0 0 124.78 158.04"
/>
<path stroke="#6b6b6b" vector-effect="non-scaling-stroke" d="
  M 120.51 246.01
  Q 119.00 247.40 119.10 249.08
  Q 119.14 249.76 119.80 249.57
  Q 121.70 249.02 121.48 246.01"
/>
<path stroke="#d4d4d4" vector-effect="non-scaling-stroke" d="
  M 121.48 246.01
  Q 122.75 245.74 122.71 243.37
  A 0.70 0.70 0.0 0 0 121.39 243.04
  L 120.01 245.53
  Q 119.83 245.86 120.18 245.98
  Q 120.33 246.03 120.51 246.01"
/>
<path stroke="#8b8b8b" vector-effect="non-scaling-stroke" d="
  M 121.48 246.01
  L 120.51 246.01"
/>
</g>
<path fill="#777778" d="
  M 137.54 57.50
  Q 137.03 57.51 136.90 57.64
  A 0.60 0.60 0.0 0 1 135.90 57.19
  Q 136.23 41.62 135.98 27.50
  Q 135.93 24.98 135.01 22.71
  Q 135.13 18.34 134.56 11.69
  C 134.18 7.13 131.64 5.95 127.26 5.91
  Q 82.62 5.48 53.19 5.85
  Q 35.41 6.08 25.25 5.72
  Q 21.81 5.60 18.13 8.06
  Q 17.59 7.63 17.87 6.02
  Q 17.97 5.49 16.43 5.33
  Q 19.66 2.77 23.76 2.77
  Q 76.49 2.73 129.26 2.76
  Q 137.51 2.76 137.51 11.50
  Q 137.51 34.50 137.54 57.50
  Z"
/>
<path fill="#c3c3c3" d="
  M 16.43 5.33
  Q 17.97 5.49 17.87 6.02
  Q 17.59 7.63 18.13 8.06
  L 18.04 84.46
  Q 15.58 85.06 15.51 81.99
  Q 15.19 66.38 16.14 41.76
  Q 16.14 41.62 16.00 41.58
  Q 15.87 41.54 15.72 41.51
  Q 15.42 41.45 15.41 41.15
  L 15.08 31.50
  Q 14.71 19.56 15.46 7.65
  C 15.52 6.65 15.98 6.17 16.43 5.33
  Z"
/>
<path fill="#f4f4f4" d="
  M 135.01 22.71
  L 135.01 163.40
  Q 133.25 166.96 128.01 163.82
  A 0.81 0.70 57.2 0 0 127.70 163.73
  Q 126.37 163.68 126.07 161.67
  Q 125.81 159.43 123.70 160.54
  A 0.85 0.82 -14.7 0 0 123.26 161.27
  L 123.31 164.35
  Q 119.31 164.95 115.87 166.23
  C 113.08 167.27 110.75 167.09 107.95 166.95
  C 103.85 166.74 100.60 168.16 96.83 169.32
  Q 94.27 170.11 91.02 170.16
  C 86.85 170.22 81.82 171.06 77.28 169.66
  C 74.21 168.72 71.35 169.69 68.15 168.83
  Q 64.99 167.99 61.69 167.87
  Q 61.18 167.86 60.76 167.57
  C 57.57 165.39 54.13 164.94 51.06 163.23
  C 49.03 162.10 44.82 158.50 43.69 162.66
  Q 43.48 163.43 43.15 164.21
  Q 42.96 164.65 43.03 165.12
  Q 43.27 166.79 42.14 168.00
  A 0.71 0.70 -22.3 0 1 40.92 167.49
  L 41.24 160.55
  Q 41.26 160.05 40.88 159.73
  L 39.46 158.55
  A 1.57 1.56 11.0 0 1 38.97 157.83
  L 38.08 155.05
  A 2.06 2.05 -14.9 0 0 35.71 153.68
  L 31.80 154.50
  Q 31.36 154.59 30.95 154.41
  Q 28.56 153.35 26.03 154.04
  Q 25.52 154.19 25.10 153.87
  Q 22.44 151.86 19.66 153.60
  Q 19.47 153.72 19.33 153.72
  Q 19.20 153.72 19.07 153.67
  Q 18.82 153.56 18.63 153.77
  L 18.21 154.22
  A 0.11 0.11 0.0 0 1 18.02 154.14
  Q 18.11 153.07 17.76 152.49
  L 17.79 101.75
  L 18.04 84.46
  L 18.13 8.06
  Q 21.81 5.60 25.25 5.72
  Q 35.41 6.08 53.19 5.85
  Q 82.62 5.48 127.26 5.91
  C 131.64 5.95 134.18 7.13 134.56 11.69
  Q 135.13 18.34 135.01 22.71
  Z
  M 123.95 14.57
  L 125.09 15.99
  Q 125.23 16.16 125.25 15.94
  Q 125.28 15.53 125.27 15.14
  Q 125.26 14.65 125.03 14.41
  Q 124.66 14.04 124.00 14.35
  A 0.15 0.15 0.0 0 0 123.95 14.57
  Z
  M 49.73 124.63
  Q 50.32 124.13 50.32 123.75
  Q 50.11 108.36 50.93 93.00
  Q 51.70 78.72 50.32 23.45
  L 50.15 18.06
  A 0.74 0.74 0.0 0 0 49.42 17.34
  L 38.82 17.28
  A 1.65 1.65 0.0 0 0 37.17 18.93
  L 37.02 122.92
  A 1.76 1.76 0.0 0 0 38.78 124.68
  L 49.73 124.63
  Z
  M 125.01 17.59
  L 125.28 29.12
  A 0.62 0.62 0.0 0 1 124.63 29.76
  L 123.67 29.71
  Q 123.16 29.68 123.26 30.18
  Q 123.44 31.01 124.50 31.03
  A 1.44 1.44 0.0 0 0 125.96 29.65
  Q 126.19 24.12 125.68 18.26
  Q 125.63 17.70 125.30 17.44
  Q 125.00 17.20 125.01 17.59
  Z
  M 123.52 18.00
  C 123.52 21.68 123.00 25.47 123.32 28.94
  Q 123.33 29.10 123.49 29.16
  Q 123.76 29.25 123.75 28.97
  Q 123.63 25.01 123.99 21.06
  C 124.10 19.90 123.40 18.79 124.36 17.69
  Q 124.53 17.50 124.27 17.50
  Q 124.15 17.50 124.01 17.50
  Q 123.52 17.51 123.52 18.00
  Z
  M 124.17 36.07
  L 125.05 37.65
  Q 125.49 38.45 125.51 37.53
  Q 125.52 36.31 124.50 35.74
  A 0.24 0.24 0.0 0 0 124.17 36.07
  Z
  M 127.15 42.24
  A 2.50 2.50 0.0 0 0 124.65 39.74
  A 2.50 2.50 0.0 0 0 122.15 42.24
  A 2.50 2.50 0.0 0 0 124.65 44.74
  A 2.50 2.50 0.0 0 0 127.15 42.24
  Z
  M 127.0212 53.8858
  A 0.35 0.35 0.0 0 0 126.6706 53.5364
  L 122.5506 53.5436
  A 0.35 0.35 0.0 0 0 122.2012 53.8942
  L 122.2188 63.9542
  A 0.35 0.35 0.0 0 0 122.5694 64.3036
  L 126.6894 64.2964
  A 0.35 0.35 0.0 0 0 127.0388 63.9458
  L 127.0212 53.8858
  Z
  M 126.9986 73.6741
  A 0.43 0.43 0.0 0 0 126.5694 73.2434
  L 122.6894 73.2366
  A 0.43 0.43 0.0 0 0 122.2586 73.6659
  L 122.2414 83.5459
  A 0.43 0.43 0.0 0 0 122.6706 83.9766
  L 126.5506 83.9834
  A 0.43 0.43 0.0 0 0 126.9814 83.5541
  L 126.9986 73.6741
  Z
  M 127.0489 92.9642
  A 0.34 0.34 0.0 0 0 126.7095 92.6236
  L 122.5695 92.6164
  A 0.34 0.34 0.0 0 0 122.2289 92.9558
  L 122.2111 103.1358
  A 0.34 0.34 0.0 0 0 122.5505 103.4764
  L 126.6905 103.4836
  A 0.34 0.34 0.0 0 0 127.0311 103.1442
  L 127.0489 92.9642
  Z
  M 126.99 112.69
  A 0.43 0.43 0.0 0 0 126.56 112.26
  L 122.68 112.26
  A 0.43 0.43 0.0 0 0 122.25 112.69
  L 122.25 122.83
  A 0.43 0.43 0.0 0 0 122.68 123.26
  L 126.56 123.26
  A 0.43 0.43 0.0 0 0 126.99 122.83
  L 126.99 112.69
  Z
  M 124.94 129.00
  Q 123.82 129.07 123.96 130.13
  A 0.77 0.77 0.0 0 0 125.50 130.03
  L 125.50 129.53
  A 0.53 0.53 0.0 0 0 124.94 129.00
  Z
  M 125.99 132.52
  A 0.72 0.72 0.0 0 0 125.27 131.80
  L 123.97 131.80
  A 0.72 0.72 0.0 0 0 123.25 132.52
  L 123.25 151.06
  A 0.72 0.72 0.0 0 0 123.97 151.78
  L 125.27 151.78
  A 0.72 0.72 0.0 0 0 125.99 151.06
  L 125.99 132.52
  Z
  M 124.78 158.04
  L 123.80 158.29
  Q 122.94 158.52 123.80 158.76
  Q 124.60 158.99 125.07 158.63
  A 0.34 0.33 18.9 0 0 124.78 158.04
  Z"
/>
<path fill="#a2a2a1" d="
  M 123.95 14.57
  A 0.15 0.15 0.0 0 1 124.00 14.35
  Q 124.66 14.04 125.03 14.41
  Q 125.26 14.65 125.27 15.14
  Q 125.28 15.53 125.25 15.94
  Q 125.23 16.16 125.09 15.99
  L 123.95 14.57
  Z"
/>
<path fill="#777778" d="
  M 50.32 23.45
  Q 50.00 23.57 49.85 23.75
  L 49.77 18.53
  A 0.79 0.79 0.0 0 0 48.98 17.75
  L 39.32 17.75
  A 1.43 1.43 0.0 0 0 37.89 19.18
  L 37.95 122.41
  A 1.83 1.83 0.0 0 0 39.79 124.24
  L 49.49 124.23
  Q 49.77 124.14 49.73 124.63
  L 38.78 124.68
  A 1.76 1.76 0.0 0 1 37.02 122.92
  L 37.17 18.93
  A 1.65 1.65 0.0 0 1 38.82 17.28
  L 49.42 17.34
  A 0.74 0.74 0.0 0 1 50.15 18.06
  L 50.32 23.45
  Z"
/>
<path fill="#595858" fill-opacity="0.996" d="
  M 125.28 29.12
  L 125.01 17.59
  Q 125.00 17.20 125.30 17.44
  Q 125.63 17.70 125.68 18.26
  Q 126.19 24.12 125.96 29.65
  A 1.44 1.44 0.0 0 1 124.50 31.03
  Q 123.44 31.01 123.26 30.18
  Q 123.16 29.68 123.67 29.71
  L 124.63 29.76
  A 0.62 0.62 0.0 0 0 125.28 29.12
  Z"
/>
<path fill="#777778" d="
  M 123.32 28.94
  C 123.00 25.47 123.52 21.68 123.52 18.00
  Q 123.52 17.51 124.01 17.50
  Q 124.15 17.50 124.27 17.50
  Q 124.53 17.50 124.36 17.69
  C 123.40 18.79 124.10 19.90 123.99 21.06
  Q 123.63 25.01 123.75 28.97
  Q 123.76 29.25 123.49 29.16
  Q 123.33 29.10 123.32 28.94
  Z"
/>
<path fill="#f4f4f4" d="
  M 49.85 23.75
  Q 48.73 76.17 49.30 94.69
  Q 49.88 113.73 49.77 121.80
  Q 49.77 122.26 49.94 122.67
  Q 50.34 123.63 49.49 124.23
  L 39.79 124.24
  A 1.83 1.83 0.0 0 1 37.95 122.41
  L 37.89 19.18
  A 1.43 1.43 0.0 0 1 39.32 17.75
  L 48.98 17.75
  A 0.79 0.79 0.0 0 1 49.77 18.53
  L 49.85 23.75
  Z"
/>
<path fill="#595858" fill-opacity="0.996" d="
  M 135.01 22.71
  Q 135.93 24.98 135.98 27.50
  Q 136.23 41.62 135.90 57.19
  A 0.60 0.60 0.0 0 0 136.90 57.64
  Q 137.03 57.51 137.54 57.50
  L 138.23 237.75
  L 137.99 234.61
  Q 137.99 234.56 137.94 234.56
  Q 137.90 234.56 137.87 234.56
  Q 137.75 234.56 137.75 234.69
  L 136.89 266.23
  L 136.49 267.85
  L 134.69 266.87
  Q 134.30 266.66 134.31 266.21
  L 134.73 244.49
  L 135.00 198.49
  L 135.01 163.40
  L 135.01 22.71
  Z"
/>
<path fill="#d9d9d9" d="
  M 50.32 23.45
  Q 51.70 78.72 50.93 93.00
  Q 50.11 108.36 50.32 123.75
  Q 50.32 124.13 49.73 124.63
  Q 49.77 124.14 49.49 124.23
  Q 50.34 123.63 49.94 122.67
  Q 49.77 122.26 49.77 121.80
  Q 49.88 113.73 49.30 94.69
  Q 48.73 76.17 49.85 23.75
  Q 50.00 23.57 50.32 23.45
  Z"
/>
<path fill="#b4b4b4" d="
  M 15.08 31.50
  L 15.41 41.15
  Q 15.42 41.45 15.72 41.51
  Q 15.87 41.54 16.00 41.58
  Q 16.14 41.62 16.14 41.76
  Q 15.19 66.38 15.51 81.99
  Q 15.58 85.06 18.04 84.46
  L 17.79 101.75
  L 15.60 98.93
  Q 15.53 98.85 15.45 98.93
  L 15.19 99.18
  A 0.27 0.27 0.0 0 1 14.73 98.99
  L 14.64 79.75
  L 15.08 31.50
  Z"
/>
<path fill="#c3c3c3" d="
  M 124.17 36.07
  A 0.24 0.24 0.0 0 1 124.50 35.74
  Q 125.52 36.31 125.51 37.53
  Q 125.49 38.45 125.05 37.65
  L 124.17 36.07
  Z"
/>
<circle fill="#222222" cx="124.65" cy="42.24" r="2.50"/>
<rect fill="#222222" x="-2.41" y="-5.38" transform="translate(124.62,58.92) rotate(-0.1)" width="4.82" height="10.76" rx="0.35"/>
<rect fill="#222222" x="-2.37" y="-5.37" transform="translate(124.62,78.61) rotate(0.1)" width="4.74" height="10.74" rx="0.43"/>
<path fill="#a2a2a1" d="
  M 14.64 79.75
  L 14.73 98.99
  A 0.27 0.27 0.0 0 0 15.19 99.18
  L 15.45 98.93
  Q 15.53 98.85 15.60 98.93
  L 17.79 101.75
  L 17.76 152.49
  L 18.02 194.73
  L 18.02 234.24
  L 18.06 266.44
  Q 18.06 267.00 17.50 267.02
  L 17.02 267.04
  Q 15.29 265.47 15.38 264.19
  C 15.82 257.17 15.29 248.48 15.22 243.27
  Q 14.87 215.87 15.02 188.10
  A 0.63 0.63 0.0 0 0 13.76 188.03
  L 13.58 189.76
  L 14.64 79.75
  Z"
/>
<rect fill="#222222" x="-2.41" y="-5.43" transform="translate(124.63,98.05) rotate(0.1)" width="4.82" height="10.86" rx="0.34"/>
<rect fill="#222222" x="122.25" y="112.26" width="4.74" height="11.00" rx="0.43"/>
<path fill="#777778" d="
  M 124.94 129.00
  A 0.53 0.53 0.0 0 1 125.50 129.53
  L 125.50 130.03
  A 0.77 0.77 0.0 0 1 123.96 130.13
  Q 123.82 129.07 124.94 129.00
  Z"
/>
<rect fill="#222222" x="123.25" y="131.80" width="2.74" height="19.98" rx="0.72"/>
<path fill="#d9d9d9" d="
  M 17.76 152.49
  Q 18.11 153.07 18.02 154.14
  A 0.11 0.11 0.0 0 0 18.21 154.22
  L 18.63 153.77
  Q 18.82 153.56 19.07 153.67
  Q 19.20 153.72 19.33 153.72
  Q 19.47 153.72 19.66 153.60
  Q 22.44 151.86 25.10 153.87
  Q 25.52 154.19 26.03 154.04
  Q 28.56 153.35 30.95 154.41
  Q 31.36 154.59 31.80 154.50
  L 35.71 153.68
  A 2.06 2.05 -14.9 0 1 38.08 155.05
  L 38.97 157.83
  A 1.57 1.56 11.0 0 0 39.46 158.55
  L 40.88 159.73
  Q 41.26 160.05 41.24 160.55
  L 40.92 167.49
  A 0.71 0.70 -22.3 0 0 42.14 168.00
  Q 43.27 166.79 43.03 165.12
  Q 42.96 164.65 43.15 164.21
  Q 43.48 163.43 43.69 162.66
  C 44.82 158.50 49.03 162.10 51.06 163.23
  C 54.13 164.94 57.57 165.39 60.76 167.57
  Q 61.18 167.86 61.69 167.87
  Q 64.99 167.99 68.15 168.83
  C 71.35 169.69 74.21 168.72 77.28 169.66
  C 81.82 171.06 86.85 170.22 91.02 170.16
  Q 94.27 170.11 96.83 169.32
  C 100.60 168.16 103.85 166.74 107.95 166.95
  C 110.75 167.09 113.08 167.27 115.87 166.23
  Q 119.31 164.95 123.31 164.35
  L 123.30 167.11
  Q 123.30 167.75 123.94 167.75
  L 125.27 167.75
  A 0.73 0.73 0.0 0 0 126.00 167.03
  L 126.07 161.67
  Q 126.37 163.68 127.70 163.73
  A 0.81 0.70 57.2 0 1 128.01 163.82
  Q 133.25 166.96 135.01 163.40
  L 135.00 198.49
  L 134.72 199.91
  Q 134.63 200.36 134.16 200.34
  C 130.54 200.18 126.72 201.94 124.26 202.46
  C 118.16 203.73 111.95 204.22 106.81 205.11
  C 104.08 205.58 101.27 205.40 98.46 205.82
  C 94.89 206.36 91.83 205.54 88.25 205.79
  Q 87.74 205.83 87.30 205.57
  C 83.91 203.61 81.23 204.58 78.12 204.47
  C 72.29 204.28 66.26 204.33 60.72 203.12
  Q 52.85 201.39 47.57 198.90
  Q 43.86 197.14 41.15 197.47
  A 1.45 1.40 56.0 0 1 40.21 197.27
  Q 37.24 195.49 33.77 195.76
  A 1.38 1.35 -32.3 0 1 32.97 195.59
  Q 25.48 191.32 18.02 194.73
  L 17.76 152.49
  Z"
/>
<path fill="#777778" d="
  M 124.78 158.04
  A 0.34 0.33 18.9 0 1 125.07 158.63
  Q 124.60 158.99 123.80 158.76
  Q 122.94 158.52 123.80 158.29
  L 124.78 158.04
  Z"
/>
<path fill="#222222" d="
  M 126.07 161.67
  L 126.00 167.03
  A 0.73 0.73 0.0 0 1 125.27 167.75
  L 123.94 167.75
  Q 123.30 167.75 123.30 167.11
  L 123.31 164.35
  L 123.26 161.27
  A 0.85 0.82 -14.7 0 1 123.70 160.54
  Q 125.81 159.43 126.07 161.67
  Z"
/>
<path fill="#c3c3c3" d="
  M 17.02 267.04
  Q 17.81 267.49 17.78 267.99
  Q 16.55 267.88 15.56 268.39
  Q 15.07 268.65 15.23 269.18
  C 16.26 272.55 18.71 273.70 22.25 273.71
  Q 37.35 273.78 52.46 273.81
  C 62.84 273.83 78.05 274.35 90.88 274.07
  C 103.76 273.78 117.69 274.59 131.38 273.90
  A 0.89 0.89 0.0 0 0 131.49 272.14
  L 125.77 271.10
  L 135.19 269.29
  Q 135.60 269.21 135.74 268.81
  Q 135.91 268.28 136.49 267.85
  L 136.89 266.23
  Q 137.21 265.87 138.54 266.01
  Q 138.28 270.29 135.05 273.06
  L 127.72 275.23
  Q 78.65 275.27 29.50 275.24
  C 21.74 275.23 13.26 275.28 13.29 264.94
  Q 13.38 227.34 13.58 189.76
  L 13.76 188.03
  A 0.63 0.63 0.0 0 1 15.02 188.10
  Q 14.87 215.87 15.22 243.27
  C 15.29 248.48 15.82 257.17 15.38 264.19
  Q 15.29 265.47 17.02 267.04
  Z"
/>
<path fill="#c3c3c3" d="
  M 135.00 198.49
  L 134.73 244.49
  Q 134.53 244.54 134.48 245.01
  A 0.12 0.11 49.3 0 1 134.25 244.99
  Q 134.25 244.84 134.25 244.69
  A 0.18 0.17 82.4 0 0 134.03 244.52
  L 127.84 246.17
  Q 127.48 242.60 125.57 240.03
  Q 125.27 239.63 124.77 239.62
  Q 122.27 239.56 119.74 239.47
  Q 119.22 239.45 118.78 239.99
  Q 118.54 240.28 118.17 240.18
  L 115.04 239.35
  Q 114.28 239.15 114.12 239.92
  L 113.99 240.61
  Q 113.89 241.09 114.38 241.17
  L 116.44 241.50
  Q 117.22 241.62 116.99 242.38
  L 115.90 246.03
  Q 115.28 247.06 114.44 249.95
  Q 113.99 251.48 112.34 250.92
  Q 111.93 250.78 112.04 250.36
  L 113.16 246.10
  Q 114.67 244.92 114.40 243.22
  Q 114.29 242.53 113.67 242.86
  Q 112.26 243.62 111.82 245.94
  Q 110.77 247.52 110.20 249.69
  Q 110.00 250.46 109.58 250.73
  Q 108.92 251.16 108.17 250.63
  Q 107.78 250.36 107.95 249.91
  L 109.03 247.01
  Q 109.20 246.56 108.81 246.28
  L 108.48 246.04
  L 108.78 246.01
  A 0.88 0.88 0.0 0 0 109.53 245.43
  L 112.25 237.94
  A 0.80 0.80 0.0 0 0 111.24 236.91
  Q 105.65 238.82 105.10 245.56
  Q 104.16 245.33 103.69 246.33
  Q 103.43 246.88 103.04 246.41
  Q 102.26 245.46 100.59 246.49
  Q 100.15 246.76 99.74 247.07
  C 96.10 249.82 93.20 247.62 89.93 247.22
  C 85.81 246.71 82.37 245.95 78.01 246.27
  Q 70.59 246.81 63.41 244.98
  Q 57.90 243.57 54.94 243.12
  Q 45.13 241.64 35.63 238.79
  C 30.62 237.29 25.69 234.38 19.06 234.46
  Q 18.86 234.47 18.79 234.65
  Q 18.74 234.79 18.69 234.93
  A 0.15 0.14 39.7 0 1 18.43 234.95
  L 18.02 234.24
  L 18.02 194.73
  Q 25.48 191.32 32.97 195.59
  A 1.38 1.35 -32.3 0 0 33.77 195.76
  Q 37.24 195.49 40.21 197.27
  A 1.45 1.40 56.0 0 0 41.15 197.47
  Q 43.86 197.14 47.57 198.90
  Q 52.85 201.39 60.72 203.12
  C 66.26 204.33 72.29 204.28 78.12 204.47
  C 81.23 204.58 83.91 203.61 87.30 205.57
  Q 87.74 205.83 88.25 205.79
  C 91.83 205.54 94.89 206.36 98.46 205.82
  C 101.27 205.40 104.08 205.58 106.81 205.11
  C 111.95 204.22 118.16 203.73 124.26 202.46
  C 126.72 201.94 130.54 200.18 134.16 200.34
  Q 134.63 200.36 134.72 199.91
  L 135.00 198.49
  Z"
/>
<path fill="#b4b4b4" d="
  M 18.02 234.24
  L 18.43 234.95
  A 0.15 0.14 39.7 0 0 18.69 234.93
  Q 18.74 234.79 18.79 234.65
  Q 18.86 234.47 19.06 234.46
  C 25.69 234.38 30.62 237.29 35.63 238.79
  Q 45.13 241.64 54.94 243.12
  Q 57.90 243.57 63.41 244.98
  Q 70.59 246.81 78.01 246.27
  C 82.37 245.95 85.81 246.71 89.93 247.22
  C 93.20 247.62 96.10 249.82 99.74 247.07
  Q 100.15 246.76 100.59 246.49
  Q 102.26 245.46 103.04 246.41
  Q 103.43 246.88 103.69 246.33
  Q 104.16 245.33 105.10 245.56
  Q 104.75 245.29 105.31 246.01
  Q 105.07 246.25 104.92 246.48
  Q 104.78 246.70 104.82 247.05
  Q 105.84 254.64 113.09 256.72
  A 0.79 0.79 0.0 0 0 114.06 256.21
  L 117.42 246.16
  Q 118.82 244.58 119.13 241.83
  Q 119.19 241.25 119.77 241.25
  L 124.43 241.25
  A 1.11 1.11 0.0 0 1 125.48 242.71
  L 124.41 245.92
  L 122.54 250.34
  Q 122.32 250.86 121.76 250.91
  L 118.73 251.20
  Q 118.31 251.24 118.10 251.60
  Q 117.77 252.16 117.70 252.95
  Q 116.39 254.55 116.29 256.68
  Q 116.27 257.17 116.76 257.13
  Q 122.35 256.65 125.52 252.61
  Q 127.37 249.83 127.72 246.81
  Q 127.79 246.28 127.25 246.26
  L 125.71 246.21
  Q 126.61 245.71 127.84 246.17
  L 134.03 244.52
  A 0.18 0.17 82.4 0 1 134.25 244.69
  Q 134.25 244.84 134.25 244.99
  A 0.12 0.11 49.3 0 0 134.48 245.01
  Q 134.53 244.54 134.73 244.49
  L 134.31 266.21
  Q 134.30 266.66 134.69 266.87
  L 136.49 267.85
  Q 135.91 268.28 135.74 268.81
  Q 135.60 269.21 135.19 269.29
  L 125.77 271.10
  Q 76.23 271.22 26.75 270.99
  Q 21.66 270.96 17.78 267.99
  Q 17.81 267.49 17.02 267.04
  L 17.50 267.02
  Q 18.06 267.00 18.06 266.44
  L 18.02 234.24
  Z
  M 120.51 246.01
  Q 119.00 247.40 119.10 249.08
  Q 119.14 249.76 119.80 249.57
  Q 121.70 249.02 121.48 246.01
  Q 122.75 245.74 122.71 243.37
  A 0.70 0.70 0.0 0 0 121.39 243.04
  L 120.01 245.53
  Q 119.83 245.86 120.18 245.98
  Q 120.33 246.03 120.51 246.01
  Z"
/>
<path fill="#777778" d="
  M 138.23 237.75
  L 138.54 266.01
  Q 137.21 265.87 136.89 266.23
  L 137.75 234.69
  Q 137.75 234.56 137.87 234.56
  Q 137.90 234.56 137.94 234.56
  Q 137.99 234.56 137.99 234.61
  L 138.23 237.75
  Z"
/>
<path fill="#f4f4f4" d="
  M 108.48 246.04
  L 105.31 246.01
  Q 104.75 245.29 105.10 245.56
  Q 105.65 238.82 111.24 236.91
  A 0.80 0.80 0.0 0 1 112.25 237.94
  L 109.53 245.43
  A 0.88 0.88 0.0 0 1 108.78 246.01
  L 108.48 246.04
  Z"
/>
<path fill="#f4f4f4" d="
  M 127.84 246.17
  Q 126.61 245.71 125.71 246.21
  L 124.41 245.92
  L 125.48 242.71
  A 1.11 1.11 0.0 0 0 124.43 241.25
  L 119.77 241.25
  Q 119.19 241.25 119.13 241.83
  Q 118.82 244.58 117.42 246.16
  Q 117.03 245.90 115.90 246.03
  L 116.99 242.38
  Q 117.22 241.62 116.44 241.50
  L 114.38 241.17
  Q 113.89 241.09 113.99 240.61
  L 114.12 239.92
  Q 114.28 239.15 115.04 239.35
  L 118.17 240.18
  Q 118.54 240.28 118.78 239.99
  Q 119.22 239.45 119.74 239.47
  Q 122.27 239.56 124.77 239.62
  Q 125.27 239.63 125.57 240.03
  Q 127.48 242.60 127.84 246.17
  Z"
/>
<path fill="#f4f4f4" d="
  M 113.16 246.10
  L 111.82 245.94
  Q 112.26 243.62 113.67 242.86
  Q 114.29 242.53 114.40 243.22
  Q 114.67 244.92 113.16 246.10
  Z"
/>
<path fill="#f4f4f4" d="
  M 121.48 246.01
  L 120.51 246.01
  Q 120.33 246.03 120.18 245.98
  Q 119.83 245.86 120.01 245.53
  L 121.39 243.04
  A 0.70 0.70 0.0 0 1 122.71 243.37
  Q 122.75 245.74 121.48 246.01
  Z"
/>
<path fill="#222222" d="
  M 105.31 246.01
  L 108.48 246.04
  L 108.81 246.28
  Q 109.20 246.56 109.03 247.01
  L 107.95 249.91
  Q 107.78 250.36 108.17 250.63
  Q 108.92 251.16 109.58 250.73
  Q 110.00 250.46 110.20 249.69
  Q 110.77 247.52 111.82 245.94
  L 113.16 246.10
  L 112.04 250.36
  Q 111.93 250.78 112.34 250.92
  Q 113.99 251.48 114.44 249.95
  Q 115.28 247.06 115.90 246.03
  Q 117.03 245.90 117.42 246.16
  L 114.06 256.21
  A 0.79 0.79 0.0 0 1 113.09 256.72
  Q 105.84 254.64 104.82 247.05
  Q 104.78 246.70 104.92 246.48
  Q 105.07 246.25 105.31 246.01
  Z"
/>
<path fill="#222222" d="
  M 120.51 246.01
  L 121.48 246.01
  Q 121.70 249.02 119.80 249.57
  Q 119.14 249.76 119.10 249.08
  Q 119.00 247.40 120.51 246.01
  Z"
/>
<path fill="#222222" d="
  M 124.41 245.92
  L 125.71 246.21
  L 127.25 246.26
  Q 127.79 246.28 127.72 246.81
  Q 127.37 249.83 125.52 252.61
  L 121.28 252.51
  Q 120.78 252.50 120.38 252.79
  Q 119.11 253.68 117.70 252.95
  Q 117.77 252.16 118.10 251.60
  Q 118.31 251.24 118.73 251.20
  L 121.76 250.91
  Q 122.32 250.86 122.54 250.34
  L 124.41 245.92
  Z"
/>
<path fill="#777778" d="
  M 125.52 252.61
  Q 122.35 256.65 116.76 257.13
  Q 116.27 257.17 116.29 256.68
  Q 116.39 254.55 117.70 252.95
  Q 119.11 253.68 120.38 252.79
  Q 120.78 252.50 121.28 252.51
  L 125.52 252.61
  Z"
/>
<path fill="#d9d9d9" d="
  M 17.78 267.99
  Q 21.66 270.96 26.75 270.99
  Q 76.23 271.22 125.77 271.10
  L 131.49 272.14
  A 0.89 0.89 0.0 0 1 131.38 273.90
  C 117.69 274.59 103.76 273.78 90.88 274.07
  C 78.05 274.35 62.84 273.83 52.46 273.81
  Q 37.35 273.78 22.25 273.71
  C 18.71 273.70 16.26 272.55 15.23 269.18
  Q 15.07 268.65 15.56 268.39
  Q 16.55 267.88 17.78 267.99
  Z"
/>
<path fill="#595858" fill-opacity="0.996" d="
  M 135.05 273.06
  Q 132.26 275.45 127.72 275.23
  L 135.05 273.06
  Z"
/>
</svg>
