<?xml version="1.0" encoding="UTF-8" standalone="no"?>
<!-- Created with Inkscape (http://www.inkscape.org/) -->

<svg
   version="1.1"
   id="svg2"
   width="130"
   height="200"
   viewBox="0 0 130 200"
   sodipodi:docname="poubelle_ouverte.svg"
   inkscape:version="1.2.2 (732a01da63, 2022-12-09)"
   xmlns:inkscape="http://www.inkscape.org/namespaces/inkscape"
   xmlns:sodipodi="http://sodipodi.sourceforge.net/DTD/sodipodi-0.dtd"
   xmlns="http://www.w3.org/2000/svg"
   xmlns:svg="http://www.w3.org/2000/svg">
  <defs
     id="defs6" />
  <sodipodi:namedview
     id="namedview4"
     pagecolor="#ffffff"
     bordercolor="#000000"
     borderopacity="0.25"
     inkscape:showpageshadow="2"
     inkscape:pageopacity="0.0"
     inkscape:pagecheckerboard="0"
     inkscape:deskcolor="#d1d1d1"
     showgrid="false"
     inkscape:zoom="1.6042486"
     inkscape:cx="137.44753"
     inkscape:cy="211.93723"
     inkscape:window-width="1920"
     inkscape:window-height="1009"
     inkscape:window-x="1912"
     inkscape:window-y="-8"
     inkscape:window-maximized="1"
     inkscape:current-layer="g10" />
  <g
     id="g8"
     inkscape:groupmode="layer"
     inkscape:label="ink_ext_XXXXXX"
     transform="matrix(1.3333333,0,0,-1.3333333,0,281.16)">
    <g
       id="g10"
       transform="scale(0.1)">
      <path
         d="m 110.09149,1653.5645 87.34577,-694.31108 c 5.47713,-45.19019 44.49775,-79.13259 90.80401,-79.13259 h 398.54168 c 46.28501,0 85.30766,33.9424 90.76961,78.95437 l 87.36094,694.4893 z M 686.78295,796.20001 H 288.24127 c -89.72881,0 -165.36375,65.77385 -175.92555,152.99377 L 19.075083,1690.397 c -1.510128,11.931 2.286942,23.9215 10.434358,32.9316 8.127188,9.0001 19.822852,14.1587 32.11023,14.1587 H 913.3833 c 12.28938,0 23.98198,-5.1586 32.11419,-14.1587 8.1424,-9.0101 11.93538,-21.0006 10.42836,-32.9316 L 862.66804,949.00367 C 852.11836,861.96198 776.50063,796.20001 686.78295,796.20001"
         style="fill:#100f0d;fill-opacity:1;fill-rule:nonzero;stroke:none;stroke-width:0.999992"
         id="path26" />
      <path
         d="M 815.52661,1890.4115 161.2363,1890.104 c -20.83159,-0.017 -40.4896,-8.297 -55.35472,-23.3365 -14.343365,-14.5072 -22.56484,-33.6269 -23.301236,-54.0406 l 810.220046,0.3888 c -0.78061,42.846 -34.97774,77.3058 -77.27378,77.2958 z M 29.855109,1730.3717 c -6.804699,1.9052 -13.048771,5.5859 -18.088561,10.7796 -7.6415604,7.8649 -11.87073337,18.5159 -11.76459751,29.639 l 0.36186418,39.6685 c 0.38107008,43.6412 17.41090133,84.6768 47.94246333,115.549 30.527835,30.8733 70.899862,47.889 113.686192,47.9058 l 654.29671,0.316 v 0 c 88.24744,0.045 159.50699,-73.213 158.70413,-163.2901 l -0.37449,-39.6958 c -0.21043,-23.1512 -18.77076,-41.9154 -41.45818,-41.9262 L 40.702396,1728.887 c -3.699328,0 -7.346554,0.5046 -10.847287,1.4847"
         style="fill:#100f0d;fill-opacity:1;fill-rule:nonzero;stroke:none;stroke-width:1"
         id="path28" />
      <path
         d="m 487.50249,968.43087 c -17.75134,0 -32.14461,14.09043 -32.14461,31.46808 v 544.20755 c 0,17.3865 14.39327,31.4759 32.14461,31.4759 17.76148,0 32.15474,-14.0894 32.15474,-31.4759 V 999.89895 c 0,-17.37765 -14.39326,-31.46808 -32.15474,-31.46808"
         style="fill:#100f0d;fill-opacity:1;fill-rule:nonzero;stroke:none;stroke-width:0.999992"
         id="path30" />
      <path
         d="m 311.70238,968.43087 c -16.61041,0 -30.68809,12.50425 -32.01515,28.99277 l -43.9475,544.20746 c -1.40291,17.3272 11.813,32.4761 29.51379,33.8524 17.66537,1.3366 33.18946,-11.5647 34.58428,-28.8919 l 43.94347,-544.2094 c 1.4029,-17.32717 -11.81402,-32.48496 -29.5148,-33.86222 -0.85672,-0.0574 -1.71849,-0.0891 -2.56409,-0.0891"
         style="fill:#100f0d;fill-opacity:1;fill-rule:nonzero;stroke:none;stroke-width:0.999992"
         id="path32" />
      <path
         d="m 663.29654,968.43087 c -0.83952,0 -1.69927,0.0317 -2.55903,0.0891 -17.70078,1.37726 -30.92074,16.53505 -29.51478,33.86223 l 43.94851,544.2094 c 1.38572,17.3272 16.84103,30.2285 34.58226,28.8919 17.70079,-1.3763 30.91063,-16.5252 29.5148,-33.8524 L 695.31979,997.42364 c -1.33515,-16.48852 -15.41486,-28.99277 -32.02325,-28.99277"
         style="fill:#100f0d;fill-opacity:1;fill-rule:nonzero;stroke:none;stroke-width:0.999992"
         id="path34" />
      <path
         d="m 562.67106,2023.6814 c -2.81818,0.778 -5.78844,1.1972 -8.8553,1.2011 l -128.57422,-0.059 c -18.50333,-0.021 -33.69456,-15.162 -33.86839,-33.7807 l -0.15282,-17.0212 195.69059,0.104 0.15484,17.0103 c 0.14619,15.5324 -10.20925,28.6293 -24.3947,32.5456 z M 337.77911,1891.6689 c -6.90075,1.9052 -13.23405,5.5965 -18.34293,10.7793 -7.73903,7.862 -12.03924,18.5162 -11.9343,29.6298 l 0.53891,58.9353 c 0.5937,64.8205 53.51188,117.5905 117.96271,117.6313 l 128.58557,0.055 c 64.44218,0.053 116.40604,-52.685 115.81171,-117.5258 l -0.52599,-58.9184 c -0.10668,-11.1233 -4.58951,-21.7889 -12.47958,-29.6431 -7.88329,-7.8663 -18.52652,-12.2877 -29.57594,-12.2902 l -279.03328,-0.1303 c -3.7571,-0.014 -7.45673,0.4962 -11.00688,1.4763"
         style="fill:#100f0d;fill-opacity:1;fill-rule:nonzero;stroke:none;stroke-width:1"
         id="path36" />
    </g>
  </g>
</svg>
