<?xml version="1.0" encoding="UTF-8" standalone="no"?>
<!-- Created with Inkscape (http://www.inkscape.org/) -->

<svg
   version="1.1"
   id="svg2"
   width="130"
   height="200"
   viewBox="0 0 130 200"
   sodipodi:docname="poubelle_fermee.svg"
   inkscape:version="1.2.2 (732a01da63, 2022-12-09)"
   xmlns:inkscape="http://www.inkscape.org/namespaces/inkscape"
   xmlns:sodipodi="http://sodipodi.sourceforge.net/DTD/sodipodi-0.dtd"
   xmlns="http://www.w3.org/2000/svg"
   xmlns:svg="http://www.w3.org/2000/svg">
  <defs
     id="defs6" />
  <sodipodi:namedview
     id="namedview4"
     pagecolor="#ffffff"
     bordercolor="#000000"
     borderopacity="0.25"
     inkscape:showpageshadow="2"
     inkscape:pageopacity="0.0"
     inkscape:pagecheckerboard="0"
     inkscape:deskcolor="#d1d1d1"
     showgrid="false"
     inkscape:zoom="1.6042486"
     inkscape:cx="137.44753"
     inkscape:cy="211.93723"
     inkscape:window-width="1920"
     inkscape:window-height="1009"
     inkscape:window-x="1912"
     inkscape:window-y="-8"
     inkscape:window-maximized="1"
     inkscape:current-layer="g10" />
  <g
     id="g8"
     inkscape:groupmode="layer"
     inkscape:label="ink_ext_XXXXXX"
     transform="matrix(1.3333333,0,0,-1.3333333,0,281.16)">
    <g
       id="g10"
       transform="scale(0.1)">
      <path
         d="m 153.67554,1474.8134 84.78224,-701.39643 c 5.31638,-45.65125 43.19177,-79.93994 88.13898,-79.93994 h 386.84481 c 44.92658,0 82.80394,34.28869 88.10559,79.7599 l 84.79696,701.57647 z M 713.44157,608.7 H 326.59676 c -87.09534,0 -160.51045,66.44491 -170.76227,154.55469 L 65.330394,1512.0217 c -1.465808,12.0527 2.219821,24.1655 10.128118,33.2675 7.888661,9.092 19.241067,14.3032 31.167818,14.3032 h 826.76504 c 11.92872,0 23.27818,-5.2112 31.17175,-14.3032 7.90339,-9.102 11.58509,-21.2148 10.12223,-33.2675 L 884.16456,763.06264 C 873.92452,675.13291 800.5261,608.7 713.44157,608.7"
         style="fill:#100f0d;fill-opacity:1;fill-rule:nonzero;stroke:none;stroke-width:0.999997"
         id="path26" />
      <path
         d="m 780.43873,1963.353 -639.05124,-178.55 c -20.34459,-5.6913 -37.30006,-19.1043 -47.739405,-37.7885 -10.074119,-18.0241 -12.916394,-38.8687 -8.095818,-58.9332 l 791.347063,221.1096 c -12.39015,41.4793 -55.14699,65.6947 -96.4606,54.1621 z M 56.398093,1593.58 c -7.164101,0 -14.262424,1.8805 -20.594952,5.5613 -9.598934,5.5712 -16.620677,14.7833 -19.535603,25.6357 l -10.4118539,38.6987 c -11.4712027,42.5696 -5.972212,87.1396 15.4739489,125.4982 21.442235,38.3586 56.261321,65.9148 98.052077,77.5874 l 639.05517,178.5601 v 0 c 86.1911,24.0854 175.68101,-27.7862 199.34209,-115.656 l 10.40694,-38.7287 c 6.07727,-22.585 -6.96087,-45.9003 -29.11981,-52.0917 L 67.397056,1595.0904 c -3.612977,-1.0102 -7.313333,-1.5104 -10.998963,-1.5104"
         style="fill:#100f0d;fill-opacity:1;fill-rule:nonzero;stroke:none;stroke-width:0.999997"
         id="path28" />
      <path
         d="m 520.00983,782.68805 c -17.23036,0 -31.2012,14.23419 -31.2012,31.78913 v 549.76142 c 0,17.5639 13.97084,31.7971 31.2012,31.7971 17.24019,0 31.21102,-14.2332 31.21102,-31.7971 V 814.47718 c 0,-17.55494 -13.97083,-31.78913 -31.21102,-31.78913"
         style="fill:#100f0d;fill-opacity:1;fill-rule:nonzero;stroke:none;stroke-width:0.999997"
         id="path30" />
      <path
         d="m 349.36931,782.68805 c -16.12291,0 -29.78742,12.63183 -31.07553,29.28857 L 275.6361,1361.738 c -1.36173,17.5039 11.4663,32.8074 28.64758,34.1977 17.14691,1.3503 32.21538,-11.6826 33.56927,-29.1866 L 380.5067,816.98575 c 1.36173,-17.50393 -11.46728,-32.81637 -28.64856,-34.20768 -0.83157,-0.058 -1.66805,-0.09 -2.48883,-0.09"
         style="fill:#100f0d;fill-opacity:1;fill-rule:nonzero;stroke:none;stroke-width:0.999997"
         id="path32" />
      <path
         d="m 690.64446,782.68805 c -0.81488,0 -1.6494,0.032 -2.48392,0.09 -17.18128,1.39131 -30.01324,16.70375 -28.64855,34.20768 l 42.65866,549.76337 c 1.34505,17.504 16.34676,30.5369 33.5673,29.1866 17.18128,-1.3903 30.00342,-16.6938 28.64856,-34.1977 L 721.72785,811.97662 c -1.29596,-16.65674 -14.96244,-29.28857 -31.08339,-29.28857"
         style="fill:#100f0d;fill-opacity:1;fill-rule:nonzero;stroke:none;stroke-width:0.999997"
         id="path34" />
      <path
         d="m 496.33894,2023.8866 c -2.92572,0 -5.90054,-0.3901 -8.85572,-1.2102 l -123.83185,-34.5978 c -17.81747,-4.9911 -28.34125,-23.8054 -23.45588,-41.9694 l 4.47204,-16.6038 188.4688,52.6719 -4.46713,16.5937 c -4.07442,15.1534 -17.60345,25.1156 -32.33026,25.1156 z M 315.53987,1835.0142 c -7.16411,0 -14.26635,1.8905 -20.59397,5.5613 -9.58814,5.5712 -16.62166,14.7833 -19.53659,25.6257 l -15.47493,57.4929 c -17.01928,63.2342 19.6328,128.7989 81.70336,146.1528 l 123.84363,34.5978 c 62.05877,17.3639 126.42475,-19.9945 143.44894,-83.2487 l 15.48278,-57.4729 c 2.91591,-10.8524 1.49232,-22.435 -3.97623,-32.1972 -5.45874,-9.7722 -14.51082,-16.9338 -25.1534,-19.9045 l -268.7407,-75.0868 c -3.61593,-1.0203 -7.31726,-1.5204 -11.00289,-1.5204"
         style="fill:#100f0d;fill-opacity:1;fill-rule:nonzero;stroke:none;stroke-width:0.999997"
         id="path36" />
    </g>
  </g>
</svg>
