<?xml version="1.0" encoding="UTF-8" standalone="no"?>
<!DOCTYPE svg PUBLIC "-//W3C//DTD SVG 1.1//EN" "http://www.w3.org/Graphics/SVG/1.1/DTD/svg11.dtd">
<svg xmlns="http://www.w3.org/2000/svg" version="1.1" viewBox="0.00 0.00 60.00 386.00">
<g stroke-width="2.00" fill="none" stroke-linecap="butt">
<path stroke="#6e5c45" vector-effect="non-scaling-stroke" d="
  M 24.97 23.52
  L 36.83 23.48
  A 0.36 0.36 0.0 0 0 37.19 23.12
  L 37.17 16.78
  A 5.80 5.80 0.0 0 0 31.35 11.00
  L 30.37 11.00
  A 5.80 5.80 0.0 0 0 24.59 16.82
  L 24.61 23.16
  A 0.36 0.36 0.0 0 0 24.97 23.52"
/>
<path stroke="#7b3e78" vector-effect="non-scaling-stroke" d="
  M 24.75 52.96
  L 24.75 123.74"
/>
<path stroke="#5c3c7d" vector-effect="non-scaling-stroke" d="
  M 24.75 123.74
  L 25.03 141.72"
/>
<path stroke="#3e4e7e" vector-effect="non-scaling-stroke" d="
  M 25.03 141.72
  L 25.02 193.62"
/>
<path stroke="#0e6775" vector-effect="non-scaling-stroke" d="
  M 25.02 193.62
  L 24.68 243.79"
/>
<path stroke="#3b7468" vector-effect="non-scaling-stroke" d="
  M 24.68 243.79
  L 24.75 254.76"
/>
<path stroke="#646f4f" vector-effect="non-scaling-stroke" d="
  M 24.75 254.76
  L 24.82 326.97
  Q 24.82 327.40 25.24 327.49
  Q 25.57 327.57 25.85 327.30
  Q 26.12 327.05 26.48 327.10
  L 35.15 328.21
  A 1.45 1.44 3.7 0 0 36.78 326.78
  L 37.03 251.32"
/>
<path stroke="#3b7468" vector-effect="non-scaling-stroke" d="
  M 37.03 251.32
  L 36.80 237.49"
/>
<path stroke="#0e6775" vector-effect="non-scaling-stroke" d="
  M 36.80 237.49
  L 36.78 193.98"
/>
<path stroke="#3e4e7e" vector-effect="non-scaling-stroke" d="
  M 36.78 193.98
  L 36.94 137.74"
/>
<path stroke="#5c3c7d" vector-effect="non-scaling-stroke" d="
  M 36.94 137.74
  L 37.20 126.61"
/>
<path stroke="#7b3e78" vector-effect="non-scaling-stroke" d="
  M 37.20 126.61
  L 36.99 56.27"
/>
<path stroke="#7d4158" vector-effect="non-scaling-stroke" d="
  M 36.99 56.27
  L 36.71 35.99
  Q 36.70 35.50 36.21 35.50
  L 26.26 35.50
  A 1.49 1.49 0.0 0 0 24.77 36.99
  L 24.75 52.96"
/>
<path stroke="#f87fd0" vector-effect="non-scaling-stroke" d="
  M 36.99 56.27
  C 36.40 54.86 31.89 55.02 30.03 53.95
  Q 27.24 52.34 24.75 52.96"
/>
<path stroke="#d77af5" vector-effect="non-scaling-stroke" d="
  M 37.20 126.61
  Q 30.73 126.07 24.75 123.74"
/>
<path stroke="#9a8afb" vector-effect="non-scaling-stroke" d="
  M 36.94 137.74
  L 36.75 143.05
  Q 36.74 143.36 36.62 143.08
  Q 36.56 142.95 36.53 142.82
  Q 36.47 142.60 36.26 142.67
  Q 36.01 142.75 35.71 142.78
  A 1.24 1.14 -36.0 0 1 35.12 142.71
  Q 29.58 140.45 25.03 141.72"
/>
<path stroke="#4cb5f3" vector-effect="non-scaling-stroke" d="
  M 36.78 193.98
  Q 34.87 195.50 33.14 194.78
  C 30.43 193.65 27.88 193.32 25.02 193.62"
/>
<path stroke="#49dbdd" vector-effect="non-scaling-stroke" d="
  M 36.80 237.49
  Q 37.28 240.64 35.55 241.93
  Q 35.17 242.21 35.02 242.65
  C 34.46 244.30 26.55 243.80 24.68 243.79"
/>
<path stroke="#9fe3b7" vector-effect="non-scaling-stroke" d="
  M 37.03 251.32
  L 24.75 254.76"
/>
<path stroke="#6b302a" vector-effect="non-scaling-stroke" d="
  M 35.58 339.45
  L 25.78 339.39
  A 1.00 1.00 0.0 0 0 24.77 340.39
  L 24.70 354.03
  A 4.30 2.58 0.3 0 0 28.98 356.63
  L 32.18 356.65
  A 4.30 2.58 0.3 0 0 36.50 354.09
  L 36.57 340.45
  A 1.00 1.00 0.0 0 0 35.58 339.45"
/>
</g>
<path fill="#000000" d="
  M 23.09 355.06
  L 23.07 15.15
  Q 23.07 14.58 23.47 14.17
  Q 23.94 13.68 23.99 12.99
  Q 24.03 12.48 24.43 12.15
  C 29.74 7.72 38.98 9.34 38.98 17.46
  Q 39.06 185.95 38.92 354.44
  Q 38.92 354.89 38.60 355.21
  C 34.81 358.89 27.18 359.41 23.36 355.68
  Q 23.09 355.42 23.09 355.06
  Z
  M 24.97 23.52
  L 36.83 23.48
  A 0.36 0.36 0.0 0 0 37.19 23.12
  L 37.17 16.78
  A 5.80 5.80 0.0 0 0 31.35 11.00
  L 30.37 11.00
  A 5.80 5.80 0.0 0 0 24.59 16.82
  L 24.61 23.16
  A 0.36 0.36 0.0 0 0 24.97 23.52
  Z
  M 24.75 52.96
  L 24.75 123.74
  L 25.03 141.72
  L 25.02 193.62
  L 24.68 243.79
  L 24.75 254.76
  L 24.82 326.97
  Q 24.82 327.40 25.24 327.49
  Q 25.57 327.57 25.85 327.30
  Q 26.12 327.05 26.48 327.10
  L 35.15 328.21
  A 1.45 1.44 3.7 0 0 36.78 326.78
  L 37.03 251.32
  L 36.80 237.49
  L 36.78 193.98
  L 36.94 137.74
  L 37.20 126.61
  L 36.99 56.27
  L 36.71 35.99
  Q 36.70 35.50 36.21 35.50
  L 26.26 35.50
  A 1.49 1.49 0.0 0 0 24.77 36.99
  L 24.75 52.96
  Z
  M 35.58 339.45
  L 25.78 339.39
  A 1.00 1.00 0.0 0 0 24.77 340.39
  L 24.70 354.03
  A 4.30 2.58 0.3 0 0 28.98 356.63
  L 32.18 356.65
  A 4.30 2.58 0.3 0 0 36.50 354.09
  L 36.57 340.45
  A 1.00 1.00 0.0 0 0 35.58 339.45
  Z"
/>
<path fill="#dcb78a" d="
  M 24.97 23.52
  A 0.36 0.36 0.0 0 1 24.61 23.16
  L 24.59 16.82
  A 5.80 5.80 0.0 0 1 30.37 11.00
  L 31.35 11.00
  A 5.80 5.80 0.0 0 1 37.17 16.78
  L 37.19 23.12
  A 0.36 0.36 0.0 0 1 36.83 23.48
  L 24.97 23.52
  Z"
/>
<path fill="#f982af" d="
  M 36.99 56.27
  C 36.40 54.86 31.89 55.02 30.03 53.95
  Q 27.24 52.34 24.75 52.96
  L 24.77 36.99
  A 1.49 1.49 0.0 0 1 26.26 35.50
  L 36.21 35.50
  Q 36.70 35.50 36.71 35.99
  L 36.99 56.27
  Z"
/>
<path fill="#f67bf0" d="
  M 36.99 56.27
  L 37.20 126.61
  Q 30.73 126.07 24.75 123.74
  L 24.75 52.96
  Q 27.24 52.34 30.03 53.95
  C 31.89 55.02 36.40 54.86 36.99 56.27
  Z"
/>
<path fill="#b878f9" d="
  M 37.20 126.61
  L 36.94 137.74
  L 36.75 143.05
  Q 36.74 143.36 36.62 143.08
  Q 36.56 142.95 36.53 142.82
  Q 36.47 142.60 36.26 142.67
  Q 36.01 142.75 35.71 142.78
  A 1.24 1.14 -36.0 0 1 35.12 142.71
  Q 29.58 140.45 25.03 141.72
  L 24.75 123.74
  Q 30.73 126.07 37.20 126.61
  Z"
/>
<path fill="#7c9cfc" d="
  M 36.94 137.74
  L 36.78 193.98
  Q 34.87 195.50 33.14 194.78
  C 30.43 193.65 27.88 193.32 25.02 193.62
  L 25.03 141.72
  Q 29.58 140.45 35.12 142.71
  A 1.24 1.14 -36.0 0 0 35.71 142.78
  Q 36.01 142.75 36.26 142.67
  Q 36.47 142.60 36.53 142.82
  Q 36.56 142.95 36.62 143.08
  Q 36.74 143.36 36.75 143.05
  L 36.94 137.74
  Z"
/>
<path fill="#1bcdea" d="
  M 36.78 193.98
  L 36.80 237.49
  Q 37.28 240.64 35.55 241.93
  Q 35.17 242.21 35.02 242.65
  C 34.46 244.30 26.55 243.80 24.68 243.79
  L 25.02 193.62
  C 27.88 193.32 30.43 193.65 33.14 194.78
  Q 34.87 195.50 36.78 193.98
  Z"
/>
<path fill="#76e8d0" d="
  M 36.80 237.49
  L 37.03 251.32
  L 24.75 254.76
  L 24.68 243.79
  C 26.55 243.80 34.46 244.30 35.02 242.65
  Q 35.17 242.21 35.55 241.93
  Q 37.28 240.64 36.80 237.49
  Z"
/>
<path fill="#c8de9e" d="
  M 37.03 251.32
  L 36.78 326.78
  A 1.45 1.44 3.7 0 1 35.15 328.21
  L 26.48 327.10
  Q 26.12 327.05 25.85 327.30
  Q 25.57 327.57 25.24 327.49
  Q 24.82 327.40 24.82 326.97
  L 24.75 254.76
  L 37.03 251.32
  Z"
/>
<path fill="#d66053" d="
  M 35.58 339.45
  A 1.00 1.00 0.0 0 1 36.57 340.45
  L 36.50 354.09
  A 4.30 2.58 0.3 0 1 32.18 356.65
  L 28.98 356.63
  A 4.30 2.58 0.3 0 1 24.70 354.03
  L 24.77 340.39
  A 1.00 1.00 0.0 0 1 25.78 339.39
  L 35.58 339.45
  Z"
/>
</svg>
