<?xml version="1.0" encoding="UTF-8" standalone="no"?>
<!DOCTYPE svg PUBLIC "-//W3C//DTD SVG 1.1//EN" "http://www.w3.org/Graphics/SVG/1.1/DTD/svg11.dtd">
<svg xmlns="http://www.w3.org/2000/svg" version="1.1" viewBox="0.00 0.00 651.00 202.00">
<g stroke-width="2.00" fill="none" stroke-linecap="butt">
<path stroke="#71b99a" vector-effect="non-scaling-stroke" d="
  M 9.34 4.67
  L 6.02 4.99
  Q 5.50 5.04 5.32 5.53
  L 4.81 6.97"
/>
<path stroke="#7fb61f" vector-effect="non-scaling-stroke" d="
  M 622.70 11.49
  Q 621.37 13.74 622.18 17.22
  Q 622.30 17.71 622.80 17.71
  L 642.95 17.67"
/>
<path stroke="#7fb61f" vector-effect="non-scaling-stroke" d="
  M 642.96 20.75
  L 622.52 20.78
  Q 622.00 20.78 622.00 21.30
  L 622.00 26.69
  Q 622.00 27.18 622.49 27.18
  L 642.98 27.14"
/>
<path stroke="#7fb61f" vector-effect="non-scaling-stroke" d="
  M 642.87 30.14
  L 622.54 30.25
  A 0.53 0.53 0.0 0 0 622.01 30.78
  L 622.00 36.38"
/>
<path stroke="#027a35" vector-effect="non-scaling-stroke" d="
  M 622.00 36.38
  L 607.28 36.81
  Q 606.78 36.82 606.51 37.25
  Q 605.61 38.66 606.24 40.32"
/>
<path stroke="#7fb61f" vector-effect="non-scaling-stroke" d="
  M 622.19 47.72
  L 622.09 53.33
  Q 622.08 53.92 622.68 53.92
  L 642.76 53.94"
/>
<path stroke="#7fb61f" vector-effect="non-scaling-stroke" d="
  M 642.76 57.64
  L 622.57 57.52
  A 0.54 0.53 -0.0 0 0 622.03 58.05
  L 621.99 63.61
  Q 621.99 64.03 622.41 64.03
  L 642.70 64.00"
/>
<path stroke="#7fb61f" vector-effect="non-scaling-stroke" d="
  M 642.70 67.71
  L 622.59 67.51
  Q 622.04 67.50 622.03 68.06
  L 621.98 73.43
  Q 621.98 73.96 622.51 73.96
  L 642.71 74.00"
/>
<path stroke="#7fb61f" vector-effect="non-scaling-stroke" d="
  M 642.72 77.35
  L 622.66 77.55
  Q 622.00 77.55 622.00 78.21
  L 622.00 83.01
  Q 622.00 83.69 622.68 83.69
  L 642.73 83.65"
/>
<path stroke="#7fb61f" vector-effect="non-scaling-stroke" d="
  M 642.72 87.51
  L 622.51 87.51
  Q 622.00 87.51 622.00 88.02
  L 622.00 93.01
  Q 622.00 93.69 622.68 93.69
  L 642.73 93.69"
/>
<path stroke="#7fb61f" vector-effect="non-scaling-stroke" d="
  M 642.73 97.59
  L 622.55 97.56
  Q 622.02 97.56 622.02 98.08
  L 622.02 103.44
  Q 622.02 104.00 622.57 104.00
  L 642.73 104.06"
/>
<path stroke="#7fb61f" vector-effect="non-scaling-stroke" d="
  M 642.73 107.20
  L 622.19 107.42
  A 0.18 0.18 0.0 0 0 622.01 107.60
  L 622.00 113.19
  Q 621.99 113.69 622.49 113.69
  L 642.73 113.66"
/>
<path stroke="#7fb61f" vector-effect="non-scaling-stroke" d="
  M 642.71 117.50
  L 622.56 117.49
  Q 622.00 117.49 622.00 118.05
  L 622.00 123.20
  Q 622.00 123.69 622.49 123.69
  L 642.72 123.66"
/>
<path stroke="#7fb61f" vector-effect="non-scaling-stroke" d="
  M 642.71 128.25
  L 622.66 128.10
  Q 622.00 128.09 622.00 128.75
  L 622.00 133.76
  Q 622.00 134.44 622.68 134.44
  L 642.80 134.41"
/>
<path stroke="#7fb61f" vector-effect="non-scaling-stroke" d="
  M 642.72 137.86
  L 622.68 137.84
  Q 622.07 137.84 622.06 138.44
  L 622.00 144.02"
/>
<path stroke="#027a35" vector-effect="non-scaling-stroke" d="
  M 622.00 144.02
  L 607.24 144.52
  Q 606.71 144.53 606.52 145.03
  Q 605.73 147.08 606.07 148.52"
/>
<path stroke="#7fb61f" vector-effect="non-scaling-stroke" d="
  M 622.00 155.49
  L 622.01 160.74
  A 0.77 0.77 0.0 0 0 622.78 161.50
  L 642.71 161.63"
/>
<path stroke="#7fb61f" vector-effect="non-scaling-stroke" d="
  M 642.72 164.70
  L 622.36 164.93
  A 0.33 0.33 0.0 0 0 622.03 165.26
  L 621.99 171.06
  Q 621.99 171.56 622.49 171.56
  L 642.79 171.46"
/>
<path stroke="#7fb61f" vector-effect="non-scaling-stroke" d="
  M 642.71 174.25
  L 622.73 174.34
  Q 622.09 174.34 622.08 174.99
  L 622.02 180.59"
/>
<path stroke="#027a35" vector-effect="non-scaling-stroke" d="
  M 622.02 180.59
  L 607.64 180.76
  Q 607.11 180.77 606.77 181.18
  Q 605.44 182.81 606.21 185.26"
/>
<path stroke="#027a35" vector-effect="non-scaling-stroke" d="
  M 605.71 188.25
  L 5.53 188.24"
/>
<path stroke="#027a35" vector-effect="non-scaling-stroke" d="
  M 29.44 94.56
  Q 31.08 94.14 30.50 92.00
  Q 25.44 73.15 5.49 71.64"
/>
<path stroke="#7ca036" vector-effect="non-scaling-stroke" d="
  M 48.86 25.74
  L 24.78 25.72
  Q 24.26 25.72 24.26 26.24
  L 24.23 49.29
  Q 24.23 49.73 24.67 49.73
  L 43.60 49.74"
/>
<path stroke="#71b99a" vector-effect="non-scaling-stroke" d="
  M 43.60 49.74
  L 43.74 113.96"
/>
<path stroke="#027a35" vector-effect="non-scaling-stroke" d="
  M 43.74 113.96
  Q 42.83 118.76 44.29 123.24
  C 46.50 129.97 51.14 132.98 58.23 133.15
  Q 67.65 133.38 73.44 133.36
  Q 73.79 133.36 73.78 132.73"
/>
<path stroke="#58852f" vector-effect="non-scaling-stroke" d="
  M 73.78 132.73
  Q 74.36 133.22 73.84 133.32"
/>
<path stroke="#7ca036" vector-effect="non-scaling-stroke" d="
  M 73.84 133.32
  L 73.79 156.95
  Q 73.79 157.47 74.31 157.48
  L 88.76 157.58"
/>
<path stroke="#025822" vector-effect="non-scaling-stroke" d="
  M 88.76 157.58
  L 228.25 157.61"
/>
<path stroke="#7ca036" vector-effect="non-scaling-stroke" d="
  M 228.25 157.61
  L 236.71 157.40
  Q 237.28 157.39 237.28 156.81
  L 237.29 133.75"
/>
<path stroke="#027a35" vector-effect="non-scaling-stroke" d="
  M 237.29 133.75
  Q 237.94 133.40 238.69 133.39
  Q 266.53 133.03 294.52 133.37"
/>
<path stroke="#58852f" vector-effect="non-scaling-stroke" d="
  M 294.52 133.37
  Q 294.53 133.45 294.54 133.53"
/>
<path stroke="#7ca036" vector-effect="non-scaling-stroke" d="
  M 294.54 133.53
  L 294.66 157.02
  Q 294.66 157.52 295.16 157.53
  L 305.51 157.58"
/>
<path stroke="#025822" vector-effect="non-scaling-stroke" d="
  M 305.51 157.58
  L 445.00 157.56"
/>
<path stroke="#7ca036" vector-effect="non-scaling-stroke" d="
  M 445.00 157.56
  L 457.33 157.68
  A 0.67 0.67 0.0 0 0 458.00 157.01
  L 458.00 34.01
  Q 458.00 33.53 457.52 33.52
  L 445.00 33.45"
/>
<path stroke="#025822" vector-effect="non-scaling-stroke" d="
  M 445.00 33.45
  L 385.65 33.39"
/>
<path stroke="#71b99a" vector-effect="non-scaling-stroke" d="
  M 385.65 33.39
  C 382.58 24.52 376.51 22.52 367.75 22.52
  Q 213.53 22.49 59.31 22.51
  Q 53.08 22.51 48.86 25.74"
/>
<path stroke="#708385" vector-effect="non-scaling-stroke" d="
  M 385.65 33.39
  Q 386.00 95.56 385.69 111.69
  Q 385.62 115.27 382.67 119.03"
/>
<path stroke="#707f83" vector-effect="non-scaling-stroke" d="
  M 382.67 119.03
  Q 377.76 124.28 371.00 124.27
  Q 338.27 124.25 305.48 124.25"
/>
<path stroke="#c6b191" vector-effect="non-scaling-stroke" d="
  M 305.48 124.25
  L 294.93 124.26"
/>
<path stroke="#6fa598" vector-effect="non-scaling-stroke" d="
  M 294.93 124.26
  L 237.28 124.26"
/>
<path stroke="#c6b191" vector-effect="non-scaling-stroke" d="
  M 237.28 124.26
  L 228.65 124.26"
/>
<path stroke="#707f83" vector-effect="non-scaling-stroke" d="
  M 228.65 124.26
  L 89.00 124.29"
/>
<path stroke="#c6b191" vector-effect="non-scaling-stroke" d="
  M 89.00 124.29
  L 73.81 124.25"
/>
<path stroke="#6fa598" vector-effect="non-scaling-stroke" d="
  M 73.81 124.25
  C 60.59 124.32 49.66 126.94 43.74 113.96"
/>
<path stroke="#eacb98" vector-effect="non-scaling-stroke" d="
  M 43.60 49.74
  C 43.44 41.41 41.76 31.98 48.86 25.74"
/>
<path stroke="#7b6a21" vector-effect="non-scaling-stroke" d="
  M 445.00 33.45
  L 445.00 157.56"
/>
<path stroke="#7b6a21" vector-effect="non-scaling-stroke" d="
  M 305.51 157.58
  L 305.52 133.73"
/>
<path stroke="#011e0c" vector-effect="non-scaling-stroke" d="
  M 305.52 133.73
  C 305.79 134.13 306.62 134.99 307.00 134.30
  Q 307.13 134.08 307.37 134.08
  C 327.34 133.46 346.07 134.12 369.69 133.90
  C 371.42 133.88 372.57 133.15 374.09 132.97
  Q 382.63 131.99 384.55 123.48
  Q 384.66 122.98 384.23 122.69
  Q 382.71 121.67 382.67 119.03"
/>
<path stroke="#57722d" vector-effect="non-scaling-stroke" d="
  M 73.81 124.25
  L 73.78 132.73"
/>
<path stroke="#7b661f" vector-effect="non-scaling-stroke" d="
  M 305.52 133.73
  Q 305.51 133.57 305.49 133.40"
/>
<path stroke="#574b18" vector-effect="non-scaling-stroke" d="
  M 305.49 133.40
  L 305.48 124.25"
/>
<path stroke="#574b18" vector-effect="non-scaling-stroke" d="
  M 228.65 124.26
  L 228.45 134.08"
/>
<path stroke="#7b661f" vector-effect="non-scaling-stroke" d="
  M 228.45 134.08
  Q 228.20 133.80 228.25 134.45"
/>
<path stroke="#011e0c" vector-effect="non-scaling-stroke" d="
  M 228.25 134.45
  Q 226.46 134.90 225.49 133.80
  Q 225.16 133.42 224.67 133.44
  Q 207.28 133.97 200.75 133.98
  Q 146.40 134.01 92.04 133.97
  Q 91.57 133.97 91.15 134.18
  Q 89.90 134.84 89.46 136.01
  Q 89.20 136.71 89.05 135.98
  L 88.78 134.74"
/>
<path stroke="#7b661f" vector-effect="non-scaling-stroke" d="
  M 88.78 134.74
  L 88.80 133.46"
/>
<path stroke="#d1982d" vector-effect="non-scaling-stroke" d="
  M 305.49 133.40
  L 294.54 133.53"
/>
<path stroke="#574b18" vector-effect="non-scaling-stroke" d="
  M 89.00 124.29
  L 88.80 133.46"
/>
<path stroke="#d1982d" vector-effect="non-scaling-stroke" d="
  M 88.80 133.46
  L 73.84 133.32"
/>
<path stroke="#57722d" vector-effect="non-scaling-stroke" d="
  M 237.28 124.26
  L 237.23 133.23"
/>
<path stroke="#d1982d" vector-effect="non-scaling-stroke" d="
  M 237.23 133.23
  Q 233.11 133.79 229.05 133.29
  C 228.42 133.21 228.37 133.59 228.45 134.08"
/>
<path stroke="#57722d" vector-effect="non-scaling-stroke" d="
  M 294.93 124.26
  L 294.52 133.37"
/>
<path stroke="#7b8c34" vector-effect="non-scaling-stroke" d="
  M 237.29 133.75
  L 237.23 133.23"
/>
<path stroke="#7b6a21" vector-effect="non-scaling-stroke" d="
  M 88.78 134.74
  L 88.76 157.58"
/>
<path stroke="#7b6a21" vector-effect="non-scaling-stroke" d="
  M 228.25 134.45
  L 228.25 157.61"
/>
<path stroke="#025822" vector-effect="non-scaling-stroke" d="
  M 536.25 35.18
  A 0.43 0.43 0.0 0 0 535.82 34.75
  L 487.94 34.75
  A 0.43 0.43 0.0 0 0 487.51 35.18
  L 487.51 82.32
  A 0.43 0.43 0.0 0 0 487.94 82.75
  L 535.82 82.75
  A 0.43 0.43 0.0 0 0 536.25 82.32
  L 536.25 35.18"
/>
<path stroke="#7ca036" vector-effect="non-scaling-stroke" d="
  M 572.8104 53.8206
  A 0.30 0.30 0.0 0 0 572.5109 53.5200
  L 549.5710 53.4800
  A 0.30 0.30 0.0 0 0 549.2704 53.7795
  L 549.2296 77.1794
  A 0.30 0.30 0.0 0 0 549.5291 77.4800
  L 572.4690 77.5200
  A 0.30 0.30 0.0 0 0 572.7696 77.2205
  L 572.8104 53.8206"
/>
<path stroke="#025822" vector-effect="non-scaling-stroke" d="
  M 488.25 157.56
  L 573.49 157.64"
/>
<path stroke="#7ca036" vector-effect="non-scaling-stroke" d="
  M 573.49 157.64
  L 578.81 157.68
  A 0.43 0.43 0.0 0 0 579.25 157.25
  L 579.25 97.23
  Q 579.25 96.71 578.74 96.62
  Q 575.95 96.13 573.48 96.77"
/>
<path stroke="#025822" vector-effect="non-scaling-stroke" d="
  M 573.48 96.77
  L 488.22 96.81"
/>
<path stroke="#7ca036" vector-effect="non-scaling-stroke" d="
  M 488.22 96.81
  L 481.43 96.74
  A 0.67 0.67 0.0 0 0 480.75 97.41
  L 480.75 157.01
  Q 480.75 157.54 481.28 157.54
  L 488.25 157.56"
/>
<path stroke="#7b6a21" vector-effect="non-scaling-stroke" d="
  M 488.22 96.81
  L 488.25 157.56"
/>
<path stroke="#7b6a21" vector-effect="non-scaling-stroke" d="
  M 573.48 96.77
  L 573.49 157.64"
/>
<path stroke="#7ca036" vector-effect="non-scaling-stroke" d="
  M 48.50 138.56
  A 0.34 0.34 0.0 0 0 48.16 138.22
  L 24.58 138.22
  A 0.34 0.34 0.0 0 0 24.24 138.56
  L 24.24 161.90
  A 0.34 0.34 0.0 0 0 24.58 162.24
  L 48.16 162.24
  A 0.34 0.34 0.0 0 0 48.50 161.90
  L 48.50 138.56"
/>
<path stroke="#8d909c" vector-effect="non-scaling-stroke" d="
  M 187.73 45.45
  C 186.75 52.60 194.71 54.54 199.93 56.55
  C 208.45 59.82 195.79 68.66 192.32 58.79
  Q 192.19 58.41 191.79 58.42
  L 187.02 58.53
  Q 186.56 58.55 186.62 59.00
  C 188.31 71.45 210.71 70.47 208.44 58.32
  C 206.91 50.18 193.83 51.20 193.45 46.52
  C 193.11 42.28 201.34 41.60 202.93 46.77
  Q 203.08 47.26 203.59 47.25
  L 208.35 47.24
  A 0.56 0.56 0.0 0 0 208.89 46.54
  Q 206.60 37.64 196.45 38.59
  C 192.16 38.99 188.37 40.79 187.73 45.45"
/>
<path stroke="#8d909c" vector-effect="non-scaling-stroke" d="
  M 219.37 44.07
  C 222.10 42.55 227.06 42.59 227.59 46.65
  Q 227.66 47.25 228.26 47.25
  L 232.99 47.25
  Q 233.65 47.25 233.54 46.59
  C 231.39 33.76 210.16 37.37 212.48 47.58
  C 214.27 55.46 227.22 55.19 227.54 59.21
  Q 227.75 61.82 226.04 62.49
  Q 219.33 65.14 217.21 58.88
  Q 217.08 58.50 216.67 58.50
  L 212.01 58.50
  Q 211.52 58.50 211.56 58.99
  C 212.61 73.08 239.57 68.95 232.55 56.24
  C 230.48 52.50 225.60 50.89 221.61 49.67
  Q 217.62 48.45 218.73 44.87
  Q 218.89 44.34 219.37 44.07"
/>
<path stroke="#8d909c" vector-effect="non-scaling-stroke" d="
  M 70.33 67.50
  A 0.33 0.33 0.0 0 0 70.66 67.17
  L 70.52 49.54
  A 0.33 0.33 0.0 0 1 71.13 49.36
  L 82.03 67.34
  A 0.33 0.33 0.0 0 0 82.32 67.50
  L 87.93 67.50
  A 0.33 0.33 0.0 0 0 88.26 67.17
  L 88.22 39.08
  A 0.33 0.33 0.0 0 0 87.89 38.75
  L 82.58 38.75
  A 0.33 0.33 0.0 0 0 82.25 39.08
  L 82.25 56.55
  A 0.33 0.33 0.0 0 1 81.64 56.73
  L 70.79 38.91
  A 0.33 0.33 0.0 0 0 70.50 38.75
  L 65.08 38.75
  A 0.33 0.33 0.0 0 0 64.75 39.08
  L 64.75 67.17
  A 0.33 0.33 0.0 0 0 65.08 67.50
  L 70.33 67.50"
/>
<path stroke="#8d909c" vector-effect="non-scaling-stroke" d="
  M 110.62 38.75
  A 0.32 0.32 0.0 0 0 110.31 38.98
  L 104.18 59.35
  A 0.32 0.32 0.0 0 1 103.57 59.35
  L 97.51 38.98
  A 0.32 0.32 0.0 0 0 97.20 38.75
  L 91.27 38.75
  A 0.32 0.32 0.0 0 0 90.97 39.17
  L 100.73 67.28
  A 0.32 0.32 0.0 0 0 101.03 67.50
  L 106.73 67.50
  A 0.32 0.32 0.0 0 0 107.03 67.29
  L 116.80 39.18
  A 0.32 0.32 0.0 0 0 116.50 38.75
  L 110.62 38.75"
/>
<path stroke="#8d909c" vector-effect="non-scaling-stroke" d="
  M 125.33 47.14
  L 132.24 66.03
  A 2.70 2.70 0.0 0 0 137.31 66.02
  L 143.99 47.69
  Q 144.45 46.43 144.41 47.77
  L 143.85 66.79
  Q 143.83 67.50 144.54 67.50
  L 149.14 67.50
  A 0.64 0.64 0.0 0 0 149.78 66.86
  L 149.75 39.38
  Q 149.75 38.75 149.12 38.75
  L 142.63 38.75
  Q 142.13 38.75 141.96 39.23
  L 135.00 58.84
  A 0.24 0.24 0.0 0 1 134.55 58.84
  L 127.62 39.25
  Q 127.44 38.75 126.92 38.75
  L 120.25 38.75
  Q 119.75 38.75 119.75 39.25
  L 119.75 66.87
  Q 119.75 67.50 120.37 67.50
  L 125.13 67.50
  Q 125.77 67.50 125.75 66.87
  L 125.13 47.18
  A 0.10 0.10 0.0 0 1 125.33 47.14"
/>
<path stroke="#8d909c" vector-effect="non-scaling-stroke" d="
  M 161.31 50.36
  A 0.32 0.32 0.0 0 1 161.00 50.04
  L 161.00 43.82
  A 0.32 0.32 0.0 0 1 161.32 43.50
  L 173.93 43.50
  A 0.32 0.32 0.0 0 0 174.25 43.18
  L 174.25 39.07
  A 0.32 0.32 0.0 0 0 173.93 38.75
  L 155.32 38.75
  A 0.32 0.32 0.0 0 0 155.00 39.07
  L 155.00 67.18
  A 0.32 0.32 0.0 0 0 155.32 67.50
  L 173.93 67.50
  A 0.32 0.32 0.0 0 0 174.25 67.18
  L 174.25 63.07
  A 0.32 0.32 0.0 0 0 173.93 62.75
  L 161.32 62.75
  A 0.32 0.32 0.0 0 1 161.00 62.43
  L 161.00 55.32
  A 0.32 0.32 0.0 0 1 161.32 55.00
  L 171.86 55.00
  A 0.32 0.32 0.0 0 0 172.18 54.70
  L 172.40 50.90
  A 0.32 0.32 0.0 0 0 172.09 50.56
  L 161.31 50.36"
/>
<path stroke="#8d909c" vector-effect="non-scaling-stroke" d="
  M 237.51 39.18
  L 237.47 67.02
  A 0.49 0.49 0.0 0 0 237.95 67.51
  L 246.48 67.53
  A 13.34 13.00 -89.9 0 0 259.51 54.21
  L 259.51 52.07
  A 13.34 13.00 -89.9 0 0 246.54 38.71
  L 238.01 38.69
  A 0.49 0.49 0.0 0 0 237.51 39.18"
/>
<path stroke="#8d909c" vector-effect="non-scaling-stroke" d="
  M 361.51 48.94
  A 3.19 3.19 0.0 0 0 358.32 45.75
  L 302.66 45.75
  A 3.19 3.19 0.0 0 0 299.47 48.94
  L 299.47 49.06
  A 3.19 3.19 0.0 0 0 302.66 52.25
  L 358.32 52.25
  A 3.19 3.19 0.0 0 0 361.51 49.06
  L 361.51 48.94"
/>
<path stroke="#8d909c" vector-effect="non-scaling-stroke" d="
  M 327.91 65.21
  A 2.93 2.93 0.0 0 0 324.98 62.28
  L 302.44 62.28
  A 2.93 2.93 0.0 0 0 299.51 65.21
  L 299.51 65.69
  A 2.93 2.93 0.0 0 0 302.44 68.62
  L 324.98 68.62
  A 2.93 2.93 0.0 0 0 327.91 65.69
  L 327.91 65.21"
/>
<path stroke="#8d909c" vector-effect="non-scaling-stroke" d="
  M 361.4998 65.3251
  A 3.10 3.10 0.0 0 0 358.3944 62.2306
  L 336.1144 62.2694
  A 3.10 3.10 0.0 0 0 333.0198 65.3749
  L 333.0202 65.6149
  A 3.10 3.10 0.0 0 0 336.1256 68.7094
  L 358.4056 68.6706
  A 3.10 3.10 0.0 0 0 361.5002 65.5651
  L 361.4998 65.3251"
/>
<path stroke="#8d909c" vector-effect="non-scaling-stroke" d="
  M 359.21 79.61
  A 2.85 2.85 0.0 0 0 356.36 76.76
  L 339.58 76.76
  A 2.85 2.85 0.0 0 0 336.73 79.61
  L 336.73 88.91
  A 2.85 2.85 0.0 0 0 339.58 91.76
  L 356.36 91.76
  A 2.85 2.85 0.0 0 0 359.21 88.91
  L 359.21 79.61"
/>
<path stroke="#8d909c" vector-effect="non-scaling-stroke" d="
  M 153.45 85.86
  A 3.11 3.11 0.0 0 0 150.34 82.75
  L 65.44 82.75
  A 3.11 3.11 0.0 0 0 62.33 85.86
  L 62.33 86.68
  A 3.11 3.11 0.0 0 0 65.44 89.79
  L 150.34 89.79
  A 3.11 3.11 0.0 0 0 153.45 86.68
  L 153.45 85.86"
/>
<path stroke="#8d909c" vector-effect="non-scaling-stroke" d="
  M 210.68 85.81
  A 3.05 3.05 0.0 0 0 207.63 82.76
  L 166.03 82.76
  A 3.05 3.05 0.0 0 0 162.98 85.81
  L 162.98 86.71
  A 3.05 3.05 0.0 0 0 166.03 89.76
  L 207.63 89.76
  A 3.05 3.05 0.0 0 0 210.68 86.71
  L 210.68 85.81"
/>
<path stroke="#8d909c" vector-effect="non-scaling-stroke" d="
  M 107.78 100.31
  A 3.05 3.05 0.0 0 0 104.73 97.26
  L 65.37 97.26
  A 3.05 3.05 0.0 0 0 62.32 100.31
  L 62.32 101.45
  A 3.05 3.05 0.0 0 0 65.37 104.50
  L 104.73 104.50
  A 3.05 3.05 0.0 0 0 107.78 101.45
  L 107.78 100.31"
/>
<path stroke="#8d909c" vector-effect="non-scaling-stroke" d="
  M 173.54 100.35
  A 3.09 3.09 0.0 0 0 170.45 97.26
  L 117.89 97.26
  A 3.09 3.09 0.0 0 0 114.80 100.35
  L 114.80 101.41
  A 3.09 3.09 0.0 0 0 117.89 104.50
  L 170.45 104.50
  A 3.09 3.09 0.0 0 0 173.54 101.41
  L 173.54 100.35"
/>
<path stroke="#8d909c" vector-effect="non-scaling-stroke" d="
  M 361.51 100.96
  A 2.70 2.70 0.0 0 0 358.81 98.26
  L 314.71 98.26
  A 2.70 2.70 0.0 0 0 312.01 100.96
  L 312.01 101.80
  A 2.70 2.70 0.0 0 0 314.71 104.50
  L 358.81 104.50
  A 2.70 2.70 0.0 0 0 361.51 101.80
  L 361.51 100.96"
/>
<path stroke="#7da31d" vector-effect="non-scaling-stroke" d="
  M 642.71 36.50
  L 622.00 36.38"
/>
<path stroke="#8d909c" vector-effect="non-scaling-stroke" d="
  M 243.51 44.13
  L 243.47 62.11
  A 0.66 0.66 0.0 0 0 244.13 62.77
  L 246.05 62.78
  A 7.79 7.38 -89.9 0 0 253.45 55.00
  L 253.45 51.28
  A 7.79 7.38 -89.9 0 0 246.09 43.48
  L 244.17 43.47
  A 0.66 0.66 0.0 0 0 243.51 44.13"
/>
<path stroke="#7da31d" vector-effect="non-scaling-stroke" d="
  M 642.72 143.91
  Q 632.32 144.67 622.00 144.02"
/>
<path stroke="#7da31d" vector-effect="non-scaling-stroke" d="
  M 642.71 180.53
  L 622.02 180.59"
/>
</g>
<path fill="#dee4fc" d="
  M 9.34 4.67
  L 6.02 4.99
  Q 5.50 5.04 5.32 5.53
  L 4.81 6.97
  Q 2.23 7.51 0.00 6.69
  L 0.00 5.68
  C 2.03 4.60 2.20 1.10 2.37 1.06
  A 0.37 0.37 0.0 0 1 2.80 1.34
  C 3.54 4.64 7.23 3.56 9.34 4.67
  Z"
/>
<path fill="#038d37" d="
  M 9.34 4.67
  L 605.32 5.00
  A 0.59 0.59 0.0 0 1 605.91 5.58
  L 606.03 10.99
  Q 606.04 11.47 606.52 11.47
  L 622.70 11.49
  Q 621.37 13.74 622.18 17.22
  Q 622.30 17.71 622.80 17.71
  L 642.95 17.67
  L 642.96 20.75
  L 622.52 20.78
  Q 622.00 20.78 622.00 21.30
  L 622.00 26.69
  Q 622.00 27.18 622.49 27.18
  L 642.98 27.14
  L 642.87 30.14
  L 622.54 30.25
  A 0.53 0.53 0.0 0 0 622.01 30.78
  L 622.00 36.38
  L 607.28 36.81
  Q 606.78 36.82 606.51 37.25
  Q 605.61 38.66 606.24 40.32
  L 606.16 47.27
  A 0.61 0.61 0.0 0 0 606.77 47.89
  L 622.19 47.72
  L 622.09 53.33
  Q 622.08 53.92 622.68 53.92
  L 642.76 53.94
  L 642.76 57.64
  L 622.57 57.52
  A 0.54 0.53 -0.0 0 0 622.03 58.05
  L 621.99 63.61
  Q 621.99 64.03 622.41 64.03
  L 642.70 64.00
  L 642.70 67.71
  L 622.59 67.51
  Q 622.04 67.50 622.03 68.06
  L 621.98 73.43
  Q 621.98 73.96 622.51 73.96
  L 642.71 74.00
  L 642.72 77.35
  L 622.66 77.55
  Q 622.00 77.55 622.00 78.21
  L 622.00 83.01
  Q 622.00 83.69 622.68 83.69
  L 642.73 83.65
  L 642.72 87.51
  L 622.51 87.51
  Q 622.00 87.51 622.00 88.02
  L 622.00 93.01
  Q 622.00 93.69 622.68 93.69
  L 642.73 93.69
  L 642.73 97.59
  L 622.55 97.56
  Q 622.02 97.56 622.02 98.08
  L 622.02 103.44
  Q 622.02 104.00 622.57 104.00
  L 642.73 104.06
  L 642.73 107.20
  L 622.19 107.42
  A 0.18 0.18 0.0 0 0 622.01 107.60
  L 622.00 113.19
  Q 621.99 113.69 622.49 113.69
  L 642.73 113.66
  L 642.71 117.50
  L 622.56 117.49
  Q 622.00 117.49 622.00 118.05
  L 622.00 123.20
  Q 622.00 123.69 622.49 123.69
  L 642.72 123.66
  L 642.71 128.25
  L 622.66 128.10
  Q 622.00 128.09 622.00 128.75
  L 622.00 133.76
  Q 622.00 134.44 622.68 134.44
  L 642.80 134.41
  L 642.72 137.86
  L 622.68 137.84
  Q 622.07 137.84 622.06 138.44
  L 622.00 144.02
  L 607.24 144.52
  Q 606.71 144.53 606.52 145.03
  Q 605.73 147.08 606.07 148.52
  L 606.11 155.13
  A 0.56 0.56 0.0 0 0 606.68 155.68
  L 622.00 155.49
  L 622.01 160.74
  A 0.77 0.77 0.0 0 0 622.78 161.50
  L 642.71 161.63
  L 642.72 164.70
  L 622.36 164.93
  A 0.33 0.33 0.0 0 0 622.03 165.26
  L 621.99 171.06
  Q 621.99 171.56 622.49 171.56
  L 642.79 171.46
  Q 643.35 172.46 642.71 174.25
  L 622.73 174.34
  Q 622.09 174.34 622.08 174.99
  L 622.02 180.59
  L 607.64 180.76
  Q 607.11 180.77 606.77 181.18
  Q 605.44 182.81 606.21 185.26
  Q 605.61 186.69 605.71 188.25
  L 5.53 188.24
  L 5.60 123.93
  Q 5.60 122.53 6.97 122.21
  C 9.44 121.63 12.36 121.22 14.64 120.34
  C 24.04 116.74 34.13 105.56 29.44 94.56
  Q 31.08 94.14 30.50 92.00
  Q 25.44 73.15 5.49 71.64
  L 5.19 7.98
  A 0.88 0.87 24.6 0 0 4.97 7.40
  Q 4.83 7.23 4.81 6.97
  L 5.32 5.53
  Q 5.50 5.04 6.02 4.99
  L 9.34 4.67
  Z
  M 48.86 25.74
  L 24.78 25.72
  Q 24.26 25.72 24.26 26.24
  L 24.23 49.29
  Q 24.23 49.73 24.67 49.73
  L 43.60 49.74
  L 43.74 113.96
  Q 42.83 118.76 44.29 123.24
  C 46.50 129.97 51.14 132.98 58.23 133.15
  Q 67.65 133.38 73.44 133.36
  Q 73.79 133.36 73.78 132.73
  Q 74.36 133.22 73.84 133.32
  L 73.79 156.95
  Q 73.79 157.47 74.31 157.48
  L 88.76 157.58
  L 228.25 157.61
  L 236.71 157.40
  Q 237.28 157.39 237.28 156.81
  L 237.29 133.75
  Q 237.94 133.40 238.69 133.39
  Q 266.53 133.03 294.52 133.37
  Q 294.53 133.45 294.54 133.53
  L 294.66 157.02
  Q 294.66 157.52 295.16 157.53
  L 305.51 157.58
  L 445.00 157.56
  L 457.33 157.68
  A 0.67 0.67 0.0 0 0 458.00 157.01
  L 458.00 34.01
  Q 458.00 33.53 457.52 33.52
  L 445.00 33.45
  L 385.65 33.39
  C 382.58 24.52 376.51 22.52 367.75 22.52
  Q 213.53 22.49 59.31 22.51
  Q 53.08 22.51 48.86 25.74
  Z
  M 536.25 35.18
  A 0.43 0.43 0.0 0 0 535.82 34.75
  L 487.94 34.75
  A 0.43 0.43 0.0 0 0 487.51 35.18
  L 487.51 82.32
  A 0.43 0.43 0.0 0 0 487.94 82.75
  L 535.82 82.75
  A 0.43 0.43 0.0 0 0 536.25 82.32
  L 536.25 35.18
  Z
  M 572.8104 53.8206
  A 0.30 0.30 0.0 0 0 572.5109 53.5200
  L 549.5710 53.4800
  A 0.30 0.30 0.0 0 0 549.2704 53.7795
  L 549.2296 77.1794
  A 0.30 0.30 0.0 0 0 549.5291 77.4800
  L 572.4690 77.5200
  A 0.30 0.30 0.0 0 0 572.7696 77.2205
  L 572.8104 53.8206
  Z
  M 488.25 157.56
  L 573.49 157.64
  L 578.81 157.68
  A 0.43 0.43 0.0 0 0 579.25 157.25
  L 579.25 97.23
  Q 579.25 96.71 578.74 96.62
  Q 575.95 96.13 573.48 96.77
  L 488.22 96.81
  L 481.43 96.74
  A 0.67 0.67 0.0 0 0 480.75 97.41
  L 480.75 157.01
  Q 480.75 157.54 481.28 157.54
  L 488.25 157.56
  Z
  M 48.50 138.56
  A 0.34 0.34 0.0 0 0 48.16 138.22
  L 24.58 138.22
  A 0.34 0.34 0.0 0 0 24.24 138.56
  L 24.24 161.90
  A 0.34 0.34 0.0 0 0 24.58 162.24
  L 48.16 162.24
  A 0.34 0.34 0.0 0 0 48.50 161.90
  L 48.50 138.56
  Z"
/>
<path fill="#fadf07" d="
  M 642.95 17.67
  L 622.80 17.71
  Q 622.30 17.71 622.18 17.22
  Q 621.37 13.74 622.70 11.49
  L 641.23 11.17
  A 1.52 1.52 0.0 0 1 642.78 12.64
  L 642.95 17.67
  Z"
/>
<path fill="#fadf07" d="
  M 642.96 20.75
  L 642.98 27.14
  L 622.49 27.18
  Q 622.00 27.18 622.00 26.69
  L 622.00 21.30
  Q 622.00 20.78 622.52 20.78
  L 642.96 20.75
  Z"
/>
<path fill="#dee4fc" d="
  M 385.65 33.39
  Q 386.00 95.56 385.69 111.69
  Q 385.62 115.27 382.67 119.03
  Q 377.76 124.28 371.00 124.27
  Q 338.27 124.25 305.48 124.25
  L 294.93 124.26
  L 237.28 124.26
  L 228.65 124.26
  L 89.00 124.29
  L 73.81 124.25
  C 60.59 124.32 49.66 126.94 43.74 113.96
  L 43.60 49.74
  C 43.44 41.41 41.76 31.98 48.86 25.74
  Q 53.08 22.51 59.31 22.51
  Q 213.53 22.49 367.75 22.52
  C 376.51 22.52 382.58 24.52 385.65 33.39
  Z
  M 187.73 45.45
  C 186.75 52.60 194.71 54.54 199.93 56.55
  C 208.45 59.82 195.79 68.66 192.32 58.79
  Q 192.19 58.41 191.79 58.42
  L 187.02 58.53
  Q 186.56 58.55 186.62 59.00
  C 188.31 71.45 210.71 70.47 208.44 58.32
  C 206.91 50.18 193.83 51.20 193.45 46.52
  C 193.11 42.28 201.34 41.60 202.93 46.77
  Q 203.08 47.26 203.59 47.25
  L 208.35 47.24
  A 0.56 0.56 0.0 0 0 208.89 46.54
  Q 206.60 37.64 196.45 38.59
  C 192.16 38.99 188.37 40.79 187.73 45.45
  Z
  M 219.37 44.07
  C 222.10 42.55 227.06 42.59 227.59 46.65
  Q 227.66 47.25 228.26 47.25
  L 232.99 47.25
  Q 233.65 47.25 233.54 46.59
  C 231.39 33.76 210.16 37.37 212.48 47.58
  C 214.27 55.46 227.22 55.19 227.54 59.21
  Q 227.75 61.82 226.04 62.49
  Q 219.33 65.14 217.21 58.88
  Q 217.08 58.50 216.67 58.50
  L 212.01 58.50
  Q 211.52 58.50 211.56 58.99
  C 212.61 73.08 239.57 68.95 232.55 56.24
  C 230.48 52.50 225.60 50.89 221.61 49.67
  Q 217.62 48.45 218.73 44.87
  Q 218.89 44.34 219.37 44.07
  Z
  M 70.33 67.50
  A 0.33 0.33 0.0 0 0 70.66 67.17
  L 70.52 49.54
  A 0.33 0.33 0.0 0 1 71.13 49.36
  L 82.03 67.34
  A 0.33 0.33 0.0 0 0 82.32 67.50
  L 87.93 67.50
  A 0.33 0.33 0.0 0 0 88.26 67.17
  L 88.22 39.08
  A 0.33 0.33 0.0 0 0 87.89 38.75
  L 82.58 38.75
  A 0.33 0.33 0.0 0 0 82.25 39.08
  L 82.25 56.55
  A 0.33 0.33 0.0 0 1 81.64 56.73
  L 70.79 38.91
  A 0.33 0.33 0.0 0 0 70.50 38.75
  L 65.08 38.75
  A 0.33 0.33 0.0 0 0 64.75 39.08
  L 64.75 67.17
  A 0.33 0.33 0.0 0 0 65.08 67.50
  L 70.33 67.50
  Z
  M 110.62 38.75
  A 0.32 0.32 0.0 0 0 110.31 38.98
  L 104.18 59.35
  A 0.32 0.32 0.0 0 1 103.57 59.35
  L 97.51 38.98
  A 0.32 0.32 0.0 0 0 97.20 38.75
  L 91.27 38.75
  A 0.32 0.32 0.0 0 0 90.97 39.17
  L 100.73 67.28
  A 0.32 0.32 0.0 0 0 101.03 67.50
  L 106.73 67.50
  A 0.32 0.32 0.0 0 0 107.03 67.29
  L 116.80 39.18
  A 0.32 0.32 0.0 0 0 116.50 38.75
  L 110.62 38.75
  Z
  M 125.33 47.14
  L 132.24 66.03
  A 2.70 2.70 0.0 0 0 137.31 66.02
  L 143.99 47.69
  Q 144.45 46.43 144.41 47.77
  L 143.85 66.79
  Q 143.83 67.50 144.54 67.50
  L 149.14 67.50
  A 0.64 0.64 0.0 0 0 149.78 66.86
  L 149.75 39.38
  Q 149.75 38.75 149.12 38.75
  L 142.63 38.75
  Q 142.13 38.75 141.96 39.23
  L 135.00 58.84
  A 0.24 0.24 0.0 0 1 134.55 58.84
  L 127.62 39.25
  Q 127.44 38.75 126.92 38.75
  L 120.25 38.75
  Q 119.75 38.75 119.75 39.25
  L 119.75 66.87
  Q 119.75 67.50 120.37 67.50
  L 125.13 67.50
  Q 125.77 67.50 125.75 66.87
  L 125.13 47.18
  A 0.10 0.10 0.0 0 1 125.33 47.14
  Z
  M 161.31 50.36
  A 0.32 0.32 0.0 0 1 161.00 50.04
  L 161.00 43.82
  A 0.32 0.32 0.0 0 1 161.32 43.50
  L 173.93 43.50
  A 0.32 0.32 0.0 0 0 174.25 43.18
  L 174.25 39.07
  A 0.32 0.32 0.0 0 0 173.93 38.75
  L 155.32 38.75
  A 0.32 0.32 0.0 0 0 155.00 39.07
  L 155.00 67.18
  A 0.32 0.32 0.0 0 0 155.32 67.50
  L 173.93 67.50
  A 0.32 0.32 0.0 0 0 174.25 67.18
  L 174.25 63.07
  A 0.32 0.32 0.0 0 0 173.93 62.75
  L 161.32 62.75
  A 0.32 0.32 0.0 0 1 161.00 62.43
  L 161.00 55.32
  A 0.32 0.32 0.0 0 1 161.32 55.00
  L 171.86 55.00
  A 0.32 0.32 0.0 0 0 172.18 54.70
  L 172.40 50.90
  A 0.32 0.32 0.0 0 0 172.09 50.56
  L 161.31 50.36
  Z
  M 237.51 39.18
  L 237.47 67.02
  A 0.49 0.49 0.0 0 0 237.95 67.51
  L 246.48 67.53
  A 13.34 13.00 -89.9 0 0 259.51 54.21
  L 259.51 52.07
  A 13.34 13.00 -89.9 0 0 246.54 38.71
  L 238.01 38.69
  A 0.49 0.49 0.0 0 0 237.51 39.18
  Z
  M 361.51 48.94
  A 3.19 3.19 0.0 0 0 358.32 45.75
  L 302.66 45.75
  A 3.19 3.19 0.0 0 0 299.47 48.94
  L 299.47 49.06
  A 3.19 3.19 0.0 0 0 302.66 52.25
  L 358.32 52.25
  A 3.19 3.19 0.0 0 0 361.51 49.06
  L 361.51 48.94
  Z
  M 327.91 65.21
  A 2.93 2.93 0.0 0 0 324.98 62.28
  L 302.44 62.28
  A 2.93 2.93 0.0 0 0 299.51 65.21
  L 299.51 65.69
  A 2.93 2.93 0.0 0 0 302.44 68.62
  L 324.98 68.62
  A 2.93 2.93 0.0 0 0 327.91 65.69
  L 327.91 65.21
  Z
  M 361.4998 65.3251
  A 3.10 3.10 0.0 0 0 358.3944 62.2306
  L 336.1144 62.2694
  A 3.10 3.10 0.0 0 0 333.0198 65.3749
  L 333.0202 65.6149
  A 3.10 3.10 0.0 0 0 336.1256 68.7094
  L 358.4056 68.6706
  A 3.10 3.10 0.0 0 0 361.5002 65.5651
  L 361.4998 65.3251
  Z
  M 359.21 79.61
  A 2.85 2.85 0.0 0 0 356.36 76.76
  L 339.58 76.76
  A 2.85 2.85 0.0 0 0 336.73 79.61
  L 336.73 88.91
  A 2.85 2.85 0.0 0 0 339.58 91.76
  L 356.36 91.76
  A 2.85 2.85 0.0 0 0 359.21 88.91
  L 359.21 79.61
  Z
  M 153.45 85.86
  A 3.11 3.11 0.0 0 0 150.34 82.75
  L 65.44 82.75
  A 3.11 3.11 0.0 0 0 62.33 85.86
  L 62.33 86.68
  A 3.11 3.11 0.0 0 0 65.44 89.79
  L 150.34 89.79
  A 3.11 3.11 0.0 0 0 153.45 86.68
  L 153.45 85.86
  Z
  M 210.68 85.81
  A 3.05 3.05 0.0 0 0 207.63 82.76
  L 166.03 82.76
  A 3.05 3.05 0.0 0 0 162.98 85.81
  L 162.98 86.71
  A 3.05 3.05 0.0 0 0 166.03 89.76
  L 207.63 89.76
  A 3.05 3.05 0.0 0 0 210.68 86.71
  L 210.68 85.81
  Z
  M 107.78 100.31
  A 3.05 3.05 0.0 0 0 104.73 97.26
  L 65.37 97.26
  A 3.05 3.05 0.0 0 0 62.32 100.31
  L 62.32 101.45
  A 3.05 3.05 0.0 0 0 65.37 104.50
  L 104.73 104.50
  A 3.05 3.05 0.0 0 0 107.78 101.45
  L 107.78 100.31
  Z
  M 173.54 100.35
  A 3.09 3.09 0.0 0 0 170.45 97.26
  L 117.89 97.26
  A 3.09 3.09 0.0 0 0 114.80 100.35
  L 114.80 101.41
  A 3.09 3.09 0.0 0 0 117.89 104.50
  L 170.45 104.50
  A 3.09 3.09 0.0 0 0 173.54 101.41
  L 173.54 100.35
  Z
  M 361.51 100.96
  A 2.70 2.70 0.0 0 0 358.81 98.26
  L 314.71 98.26
  A 2.70 2.70 0.0 0 0 312.01 100.96
  L 312.01 101.80
  A 2.70 2.70 0.0 0 0 314.71 104.50
  L 358.81 104.50
  A 2.70 2.70 0.0 0 0 361.51 101.80
  L 361.51 100.96
  Z"
/>
<path fill="#f5b234" d="
  M 48.86 25.74
  C 41.76 31.98 43.44 41.41 43.60 49.74
  L 24.67 49.73
  Q 24.23 49.73 24.23 49.29
  L 24.26 26.24
  Q 24.26 25.72 24.78 25.72
  L 48.86 25.74
  Z"
/>
<path fill="#fadf07" d="
  M 642.87 30.14
  L 642.71 36.50
  L 622.00 36.38
  L 622.01 30.78
  A 0.53 0.53 0.0 0 1 622.54 30.25
  L 642.87 30.14
  Z"
/>
<path fill="#01220d" d="
  M 385.65 33.39
  L 445.00 33.45
  L 445.00 157.56
  L 305.51 157.58
  L 305.52 133.73
  C 305.79 134.13 306.62 134.99 307.00 134.30
  Q 307.13 134.08 307.37 134.08
  C 327.34 133.46 346.07 134.12 369.69 133.90
  C 371.42 133.88 372.57 133.15 374.09 132.97
  Q 382.63 131.99 384.55 123.48
  Q 384.66 122.98 384.23 122.69
  Q 382.71 121.67 382.67 119.03
  Q 385.62 115.27 385.69 111.69
  Q 386.00 95.56 385.65 33.39
  Z"
/>
<path fill="#f5b234" d="
  M 445.00 157.56
  L 445.00 33.45
  L 457.52 33.52
  Q 458.00 33.53 458.00 34.01
  L 458.00 157.01
  A 0.67 0.67 0.0 0 1 457.33 157.68
  L 445.00 157.56
  Z"
/>
<rect fill="#01220d" x="487.51" y="34.75" width="48.74" height="48.00" rx="0.43"/>
<path fill="#006633" d="
  M 622.00 36.38
  L 642.71 36.50
  L 642.84 39.64
  Q 642.86 40.19 642.31 40.19
  L 606.24 40.32
  Q 605.61 38.66 606.51 37.25
  Q 606.78 36.82 607.28 36.81
  L 622.00 36.38
  Z"
/>
<path fill="#3b3c3c" d="
  M 199.93 56.55
  C 194.71 54.54 186.75 52.60 187.73 45.45
  C 188.37 40.79 192.16 38.99 196.45 38.59
  Q 206.60 37.64 208.89 46.54
  A 0.56 0.56 0.0 0 1 208.35 47.24
  L 203.59 47.25
  Q 203.08 47.26 202.93 46.77
  C 201.34 41.60 193.11 42.28 193.45 46.52
  C 193.83 51.20 206.91 50.18 208.44 58.32
  C 210.71 70.47 188.31 71.45 186.62 59.00
  Q 186.56 58.55 187.02 58.53
  L 191.79 58.42
  Q 192.19 58.41 192.32 58.79
  C 195.79 68.66 208.45 59.82 199.93 56.55
  Z"
/>
<path fill="#3b3c3c" d="
  M 218.73 44.87
  Q 217.62 48.45 221.61 49.67
  C 225.60 50.89 230.48 52.50 232.55 56.24
  C 239.57 68.95 212.61 73.08 211.56 58.99
  Q 211.52 58.50 212.01 58.50
  L 216.67 58.50
  Q 217.08 58.50 217.21 58.88
  Q 219.33 65.14 226.04 62.49
  Q 227.75 61.82 227.54 59.21
  C 227.22 55.19 214.27 55.46 212.48 47.58
  C 210.16 37.37 231.39 33.76 233.54 46.59
  Q 233.65 47.25 232.99 47.25
  L 228.26 47.25
  Q 227.66 47.25 227.59 46.65
  C 227.06 42.59 222.10 42.55 219.37 44.07
  Q 218.89 44.34 218.73 44.87
  Z"
/>
<path fill="#3b3c3c" d="
  M 70.33 67.50
  L 65.08 67.50
  A 0.33 0.33 0.0 0 1 64.75 67.17
  L 64.75 39.08
  A 0.33 0.33 0.0 0 1 65.08 38.75
  L 70.50 38.75
  A 0.33 0.33 0.0 0 1 70.79 38.91
  L 81.64 56.73
  A 0.33 0.33 0.0 0 0 82.25 56.55
  L 82.25 39.08
  A 0.33 0.33 0.0 0 1 82.58 38.75
  L 87.89 38.75
  A 0.33 0.33 0.0 0 1 88.22 39.08
  L 88.26 67.17
  A 0.33 0.33 0.0 0 1 87.93 67.50
  L 82.32 67.50
  A 0.33 0.33 0.0 0 1 82.03 67.34
  L 71.13 49.36
  A 0.33 0.33 0.0 0 0 70.52 49.54
  L 70.66 67.17
  A 0.33 0.33 0.0 0 1 70.33 67.50
  Z"
/>
<path fill="#3b3c3c" d="
  M 110.62 38.75
  L 116.50 38.75
  A 0.32 0.32 0.0 0 1 116.80 39.18
  L 107.03 67.29
  A 0.32 0.32 0.0 0 1 106.73 67.50
  L 101.03 67.50
  A 0.32 0.32 0.0 0 1 100.73 67.28
  L 90.97 39.17
  A 0.32 0.32 0.0 0 1 91.27 38.75
  L 97.20 38.75
  A 0.32 0.32 0.0 0 1 97.51 38.98
  L 103.57 59.35
  A 0.32 0.32 0.0 0 0 104.18 59.35
  L 110.31 38.98
  A 0.32 0.32 0.0 0 1 110.62 38.75
  Z"
/>
<path fill="#3b3c3c" d="
  M 125.13 47.18
  L 125.75 66.87
  Q 125.77 67.50 125.13 67.50
  L 120.37 67.50
  Q 119.75 67.50 119.75 66.87
  L 119.75 39.25
  Q 119.75 38.75 120.25 38.75
  L 126.92 38.75
  Q 127.44 38.75 127.62 39.25
  L 134.55 58.84
  A 0.24 0.24 0.0 0 0 135.00 58.84
  L 141.96 39.23
  Q 142.13 38.75 142.63 38.75
  L 149.12 38.75
  Q 149.75 38.75 149.75 39.38
  L 149.78 66.86
  A 0.64 0.64 0.0 0 1 149.14 67.50
  L 144.54 67.50
  Q 143.83 67.50 143.85 66.79
  L 144.41 47.77
  Q 144.45 46.43 143.99 47.69
  L 137.31 66.02
  A 2.70 2.70 0.0 0 1 132.24 66.03
  L 125.33 47.14
  A 0.10 0.10 0.0 0 0 125.13 47.18
  Z"
/>
<path fill="#3b3c3c" d="
  M 161.31 50.36
  L 172.09 50.56
  A 0.32 0.32 0.0 0 1 172.40 50.90
  L 172.18 54.70
  A 0.32 0.32 0.0 0 1 171.86 55.00
  L 161.32 55.00
  A 0.32 0.32 0.0 0 0 161.00 55.32
  L 161.00 62.43
  A 0.32 0.32 0.0 0 0 161.32 62.75
  L 173.93 62.75
  A 0.32 0.32 0.0 0 1 174.25 63.07
  L 174.25 67.18
  A 0.32 0.32 0.0 0 1 173.93 67.50
  L 155.32 67.50
  A 0.32 0.32 0.0 0 1 155.00 67.18
  L 155.00 39.07
  A 0.32 0.32 0.0 0 1 155.32 38.75
  L 173.93 38.75
  A 0.32 0.32 0.0 0 1 174.25 39.07
  L 174.25 43.18
  A 0.32 0.32 0.0 0 1 173.93 43.50
  L 161.32 43.50
  A 0.32 0.32 0.0 0 0 161.00 43.82
  L 161.00 50.04
  A 0.32 0.32 0.0 0 0 161.31 50.36
  Z"
/>
<path fill="#3b3c3c" d="
  M 237.51 39.18
  A 0.49 0.49 0.0 0 1 238.01 38.69
  L 246.54 38.71
  A 13.34 13.00 -89.9 0 1 259.51 52.07
  L 259.51 54.21
  A 13.34 13.00 -89.9 0 1 246.48 67.53
  L 237.95 67.51
  A 0.49 0.49 0.0 0 1 237.47 67.02
  L 237.51 39.18
  Z
  M 243.51 44.13
  L 243.47 62.11
  A 0.66 0.66 0.0 0 0 244.13 62.77
  L 246.05 62.78
  A 7.79 7.38 -89.9 0 0 253.45 55.00
  L 253.45 51.28
  A 7.79 7.38 -89.9 0 0 246.09 43.48
  L 244.17 43.47
  A 0.66 0.66 0.0 0 0 243.51 44.13
  Z"
/>
<path fill="#dee4fc" d="
  M 243.51 44.13
  A 0.66 0.66 0.0 0 1 244.17 43.47
  L 246.09 43.48
  A 7.79 7.38 -89.9 0 1 253.45 51.28
  L 253.45 55.00
  A 7.79 7.38 -89.9 0 1 246.05 62.78
  L 244.13 62.77
  A 0.66 0.66 0.0 0 1 243.47 62.11
  L 243.51 44.13
  Z"
/>
<rect fill="#3b3c3c" x="299.47" y="45.75" width="62.04" height="6.50" rx="3.19"/>
<path fill="#fadf07" d="
  M 642.76 53.94
  L 622.68 53.92
  Q 622.08 53.92 622.09 53.33
  L 622.19 47.72
  Q 632.08 47.11 641.82 47.92
  Q 642.38 47.96 642.54 48.50
  Q 643.34 51.18 642.76 53.94
  Z"
/>
<rect fill="#f5b234" x="-11.77" y="-12.00" transform="translate(561.02,65.50) rotate(0.1)" width="23.54" height="24.00" rx="0.30"/>
<path fill="#fadf07" d="
  M 642.76 57.64
  L 642.70 64.00
  L 622.41 64.03
  Q 621.99 64.03 621.99 63.61
  L 622.03 58.05
  A 0.54 0.53 -0.0 0 1 622.57 57.52
  L 642.76 57.64
  Z"
/>
<rect fill="#3b3c3c" x="299.51" y="62.28" width="28.40" height="6.34" rx="2.93"/>
<rect fill="#3b3c3c" x="-14.24" y="-3.22" transform="translate(347.26,65.47) rotate(-0.1)" width="28.48" height="6.44" rx="3.10"/>
<path fill="#fadf07" d="
  M 642.70 67.71
  L 642.71 74.00
  L 622.51 73.96
  Q 621.98 73.96 621.98 73.43
  L 622.03 68.06
  Q 622.04 67.50 622.59 67.51
  L 642.70 67.71
  Z"
/>
<path fill="#006633" d="
  M 5.49 71.64
  Q 25.44 73.15 30.50 92.00
  Q 31.08 94.14 29.44 94.56
  Q 22.31 80.35 6.72 79.07
  A 1.33 1.32 2.4 0 1 5.50 77.75
  L 5.49 71.64
  Z"
/>
<rect fill="#3b3c3c" x="336.73" y="76.76" width="22.48" height="15.00" rx="2.85"/>
<path fill="#fadf07" d="
  M 642.72 77.35
  L 642.73 83.65
  L 622.68 83.69
  Q 622.00 83.69 622.00 83.01
  L 622.00 78.21
  Q 622.00 77.55 622.66 77.55
  L 642.72 77.35
  Z"
/>
<rect fill="#3b3c3c" x="62.33" y="82.75" width="91.12" height="7.04" rx="3.11"/>
<rect fill="#3b3c3c" x="162.98" y="82.76" width="47.70" height="7.00" rx="3.05"/>
<path fill="#fadf07" d="
  M 642.72 87.51
  L 642.73 93.69
  L 622.68 93.69
  Q 622.00 93.69 622.00 93.01
  L 622.00 88.02
  Q 622.00 87.51 622.51 87.51
  L 642.72 87.51
  Z"
/>
<path fill="#f5b234" d="
  M 488.22 96.81
  L 488.25 157.56
  L 481.28 157.54
  Q 480.75 157.54 480.75 157.01
  L 480.75 97.41
  A 0.67 0.67 0.0 0 1 481.43 96.74
  L 488.22 96.81
  Z"
/>
<path fill="#01220d" d="
  M 573.48 96.77
  L 573.49 157.64
  L 488.25 157.56
  L 488.22 96.81
  L 573.48 96.77
  Z"
/>
<path fill="#f5b234" d="
  M 573.49 157.64
  L 573.48 96.77
  Q 575.95 96.13 578.74 96.62
  Q 579.25 96.71 579.25 97.23
  L 579.25 157.25
  A 0.43 0.43 0.0 0 1 578.81 157.68
  L 573.49 157.64
  Z"
/>
<rect fill="#3b3c3c" x="62.32" y="97.26" width="45.46" height="7.24" rx="3.05"/>
<rect fill="#3b3c3c" x="114.80" y="97.26" width="58.74" height="7.24" rx="3.09"/>
<path fill="#fadf07" d="
  M 642.73 97.59
  L 642.73 104.06
  L 622.57 104.00
  Q 622.02 104.00 622.02 103.44
  L 622.02 98.08
  Q 622.02 97.56 622.55 97.56
  L 642.73 97.59
  Z"
/>
<rect fill="#3b3c3c" x="312.01" y="98.26" width="49.50" height="6.24" rx="2.70"/>
<path fill="#fadf07" d="
  M 642.73 107.20
  L 642.73 113.66
  L 622.49 113.69
  Q 621.99 113.69 622.00 113.19
  L 622.01 107.60
  A 0.18 0.18 0.0 0 1 622.19 107.42
  L 642.73 107.20
  Z"
/>
<path fill="#006633" d="
  M 43.74 113.96
  C 49.66 126.94 60.59 124.32 73.81 124.25
  L 73.78 132.73
  Q 73.79 133.36 73.44 133.36
  Q 67.65 133.38 58.23 133.15
  C 51.14 132.98 46.50 129.97 44.29 123.24
  Q 42.83 118.76 43.74 113.96
  Z"
/>
<path fill="#fadf07" d="
  M 642.71 117.50
  L 642.72 123.66
  L 622.49 123.69
  Q 622.00 123.69 622.00 123.20
  L 622.00 118.05
  Q 622.00 117.49 622.56 117.49
  L 642.71 117.50
  Z"
/>
<path fill="#01190a" d="
  M 382.67 119.03
  Q 382.71 121.67 384.23 122.69
  Q 384.66 122.98 384.55 123.48
  Q 382.63 131.99 374.09 132.97
  C 372.57 133.15 371.42 133.88 369.69 133.90
  C 346.07 134.12 327.34 133.46 307.37 134.08
  Q 307.13 134.08 307.00 134.30
  C 306.62 134.99 305.79 134.13 305.52 133.73
  Q 305.51 133.57 305.49 133.40
  L 305.48 124.25
  Q 338.27 124.25 371.00 124.27
  Q 377.76 124.28 382.67 119.03
  Z"
/>
<path fill="#ad7d26" d="
  M 73.81 124.25
  L 89.00 124.29
  L 88.80 133.46
  L 73.84 133.32
  Q 74.36 133.22 73.78 132.73
  L 73.81 124.25
  Z"
/>
<path fill="#01190a" d="
  M 89.00 124.29
  L 228.65 124.26
  L 228.45 134.08
  Q 228.20 133.80 228.25 134.45
  Q 226.46 134.90 225.49 133.80
  Q 225.16 133.42 224.67 133.44
  Q 207.28 133.97 200.75 133.98
  Q 146.40 134.01 92.04 133.97
  Q 91.57 133.97 91.15 134.18
  Q 89.90 134.84 89.46 136.01
  Q 89.20 136.71 89.05 135.98
  L 88.78 134.74
  L 88.80 133.46
  L 89.00 124.29
  Z"
/>
<path fill="#ad7d26" d="
  M 228.65 124.26
  L 237.28 124.26
  L 237.23 133.23
  Q 233.11 133.79 229.05 133.29
  C 228.42 133.21 228.37 133.59 228.45 134.08
  L 228.65 124.26
  Z"
/>
<path fill="#006633" d="
  M 237.28 124.26
  L 294.93 124.26
  L 294.52 133.37
  Q 266.53 133.03 238.69 133.39
  Q 237.94 133.40 237.29 133.75
  L 237.23 133.23
  L 237.28 124.26
  Z"
/>
<path fill="#ad7d26" d="
  M 294.93 124.26
  L 305.48 124.25
  L 305.49 133.40
  L 294.54 133.53
  Q 294.53 133.45 294.52 133.37
  L 294.93 124.26
  Z"
/>
<path fill="#fadf07" d="
  M 642.71 128.25
  L 642.80 134.41
  L 622.68 134.44
  Q 622.00 134.44 622.00 133.76
  L 622.00 128.75
  Q 622.00 128.09 622.66 128.10
  L 642.71 128.25
  Z"
/>
<path fill="#f5b234" d="
  M 73.84 133.32
  L 88.80 133.46
  L 88.78 134.74
  L 88.76 157.58
  L 74.31 157.48
  Q 73.79 157.47 73.79 156.95
  L 73.84 133.32
  Z"
/>
<path fill="#01220d" d="
  M 228.25 134.45
  L 228.25 157.61
  L 88.76 157.58
  L 88.78 134.74
  L 89.05 135.98
  Q 89.20 136.71 89.46 136.01
  Q 89.90 134.84 91.15 134.18
  Q 91.57 133.97 92.04 133.97
  Q 146.40 134.01 200.75 133.98
  Q 207.28 133.97 224.67 133.44
  Q 225.16 133.42 225.49 133.80
  Q 226.46 134.90 228.25 134.45
  Z"
/>
<path fill="#f5b234" d="
  M 237.23 133.23
  L 237.29 133.75
  L 237.28 156.81
  Q 237.28 157.39 236.71 157.40
  L 228.25 157.61
  L 228.25 134.45
  Q 228.20 133.80 228.45 134.08
  C 228.37 133.59 228.42 133.21 229.05 133.29
  Q 233.11 133.79 237.23 133.23
  Z"
/>
<path fill="#f5b234" d="
  M 305.49 133.40
  Q 305.51 133.57 305.52 133.73
  L 305.51 157.58
  L 295.16 157.53
  Q 294.66 157.52 294.66 157.02
  L 294.54 133.53
  L 305.49 133.40
  Z"
/>
<path fill="#fadf07" d="
  M 642.72 137.86
  L 642.72 143.91
  Q 632.32 144.67 622.00 144.02
  L 622.06 138.44
  Q 622.07 137.84 622.68 137.84
  L 642.72 137.86
  Z"
/>
<rect fill="#f5b234" x="24.24" y="138.22" width="24.26" height="24.02" rx="0.34"/>
<path fill="#006633" d="
  M 642.72 143.91
  Q 643.14 145.35 642.57 147.97
  Q 642.44 148.52 641.88 148.52
  L 606.07 148.52
  Q 605.73 147.08 606.52 145.03
  Q 606.71 144.53 607.24 144.52
  L 622.00 144.02
  Q 632.32 144.67 642.72 143.91
  Z"
/>
<path fill="#fadf07" d="
  M 642.71 161.63
  L 622.78 161.50
  A 0.77 0.77 0.0 0 1 622.01 160.74
  L 622.00 155.49
  Q 631.73 154.38 641.49 155.46
  A 1.38 1.37 -86.8 0 1 642.72 156.84
  L 642.71 161.63
  Z"
/>
<path fill="#fadf07" d="
  M 642.72 164.70
  L 642.79 171.46
  L 622.49 171.56
  Q 621.99 171.56 621.99 171.06
  L 622.03 165.26
  A 0.33 0.33 0.0 0 1 622.36 164.93
  L 642.72 164.70
  Z"
/>
<path fill="#fadf07" d="
  M 642.71 174.25
  Q 643.39 176.99 642.71 180.53
  L 622.02 180.59
  L 622.08 174.99
  Q 622.09 174.34 622.73 174.34
  L 642.71 174.25
  Z"
/>
<path fill="#006633" d="
  M 642.71 180.53
  L 642.73 183.88
  A 1.36 1.36 0.0 0 1 641.37 185.25
  L 606.21 185.26
  Q 605.44 182.81 606.77 181.18
  Q 607.11 180.77 607.64 180.76
  L 622.02 180.59
  L 642.71 180.53
  Z"
/>
<path fill="#006633" d="
  M 5.53 188.24
  L 605.71 188.25
  L 605.12 195.09
  A 0.72 0.61 -87.5 0 1 604.50 195.76
  L 6.87 195.73
  A 1.04 1.03 -1.1 0 1 5.83 194.74
  L 5.53 188.24
  Z"
/>
</svg>
