<?xml version="1.0" encoding="UTF-8" standalone="no"?>
<!-- Created with Inkscape (http://www.inkscape.org/) -->

<svg
   width="190mm"
   height="65mm"
   viewBox="0 0 190 65"
   version="1.1"
   id="svg5"
   inkscape:version="1.2.2 (732a01da63, 2022-12-09)"
   sodipodi:docname="Table.svg"
   xmlns:inkscape="http://www.inkscape.org/namespaces/inkscape"
   xmlns:sodipodi="http://sodipodi.sourceforge.net/DTD/sodipodi-0.dtd"
   xmlns="http://www.w3.org/2000/svg"
   xmlns:svg="http://www.w3.org/2000/svg">
  <sodipodi:namedview
     id="namedview7"
     pagecolor="#ffffff"
     bordercolor="#000000"
     borderopacity="0.25"
     inkscape:showpageshadow="2"
     inkscape:pageopacity="0.0"
     inkscape:pagecheckerboard="0"
     inkscape:deskcolor="#d1d1d1"
     inkscape:document-units="mm"
     showgrid="false"
     inkscape:zoom="1.0444209"
     inkscape:cx="13.883291"
     inkscape:cy="286.28304"
     inkscape:window-width="1920"
     inkscape:window-height="1009"
     inkscape:window-x="1912"
     inkscape:window-y="-8"
     inkscape:window-maximized="1"
     inkscape:current-layer="layer1" />
  <defs
     id="defs2" />
  <g
     inkscape:label="Layer 1"
     inkscape:groupmode="layer"
     id="layer1">
    <path
       style="fill:#f3de8a;fill-opacity:1;stroke:none;stroke-width:0;stroke-dasharray:none;stroke-opacity:0"
       d="m 94.039997,20.76754 c -48.331442,-0.01928 -75.603,-0.07138 -75.54872,-0.144497 0.04935,-0.06293 5.845527,-4.633316 12.887201,-10.156447 L 44.180803,0.42452912 82.905565,0.39241782 c 21.298715,-0.017692 44.331455,-0.032305 51.184625,-0.032606 l 12.45888,-6.263e-4 14.90742,10.15961248 c 8.19933,5.587779 14.91434,10.199701 14.92124,10.248722 0,0.04901 -1.49814,0.07585 -3.34565,0.05965 -1.84752,-0.01621 -37.3944,-0.04304 -78.992083,-0.05965 z"
       id="path691" />
    <path
       style="opacity:0.186567;fill:#000000;fill-opacity:1;stroke:none;stroke-width:0;stroke-dasharray:none;stroke-opacity:0"
       d="M 91.420573,65.233559 C 33.258729,65.195981 0.44024903,65.094229 0.50557033,64.951627 0.56495333,64.828843 7.5400532,55.911802 16.013974,45.135872 l 15.406265,-19.592597 46.601217,-0.06264 c 25.630774,-0.03451 53.348304,-0.06304 61.595374,-0.06361 l 14.99296,-0.0012 17.93953,19.821935 c 9.86704,10.902038 17.94785,19.900149 17.95615,19.995774 0,0.09574 -1.80285,0.147981 -4.02614,0.116404 -2.22329,-0.03166 -45.00026,-0.08399 -95.058757,-0.116404 z"
       id="path691-3" />
    <rect
       style="fill:#b7a767;fill-opacity:1;stroke:none;stroke-width:0;stroke-dasharray:none;stroke-opacity:0"
       id="rect4594"
       width="157.8152"
       height="8.5626554"
       x="18.470568"
       y="20.624289" />
    <rect
       style="fill:#7e7f9a;fill-opacity:1;stroke:none;stroke-width:0;stroke-dasharray:none;stroke-opacity:0"
       id="rect4648"
       width="12.369256"
       height="29.38316"
       x="23.096769"
       y="29.199005" />
    <path
       id="rect4648-2"
       style="fill:#616375;fill-opacity:1;stroke-width:0;stroke-opacity:0"
       d="m 35.461366,29.236463 h 4.890188 v 21.324195 c 0.598073,1.028782 -4.890188,8.058962 -4.890188,8.058962 z"
       sodipodi:nodetypes="ccccc" />
    <path
       id="rect4648-2-13"
       style="fill:#616375;fill-opacity:1;stroke-width:0;stroke-opacity:0"
       d="m 49.985866,29.180493 h 1.345172 V 34.8949 c 0.163829,0.275672 -1.345172,2.159606 -1.345172,2.159606 z"
       sodipodi:nodetypes="ccccc" />
    <path
       id="rect4648-2-13-9"
       style="fill:#616375;fill-opacity:1;stroke-width:0;stroke-opacity:0"
       d="m 146.80567,29.193267 h -1.34518 v 5.714408 c -0.16382,0.275671 1.34518,2.159605 1.34518,2.159605 z"
       sodipodi:nodetypes="ccccc" />
    <path
       id="rect4648-2-1"
       style="fill:#616375;fill-opacity:1;stroke-width:0;stroke-opacity:0"
       d="m 160.32055,29.173495 h -4.89118 v 21.324193 c -0.59708,1.028782 4.89118,8.058963 4.89118,8.058963 z"
       sodipodi:nodetypes="ccccc" />
    <rect
       style="fill:#7e7f9a;fill-opacity:1;stroke:none;stroke-width:0;stroke-dasharray:none;stroke-opacity:0"
       id="rect4648-0"
       width="5.0172219"
       height="7.8889232"
       x="44.968998"
       y="29.154346" />
    <rect
       style="fill:#7e7f9a;fill-opacity:1;stroke:none;stroke-width:0;stroke-dasharray:none;stroke-opacity:0"
       id="rect4648-8"
       width="12.369256"
       height="29.38316"
       x="160.31902"
       y="29.157791" />
    <rect
       style="fill:#7e7f9a;fill-opacity:1;stroke:none;stroke-width:0;stroke-dasharray:none;stroke-opacity:0"
       id="rect4648-0-5"
       width="5.0172219"
       height="7.8889232"
       x="146.78935"
       y="29.191212" />
  </g>
</svg>
